/* XPM */
static char * TBIDIDBNAVIGATOR_xpm[] = {
"24 24 7 1",
" 	c None",
".	c #000000",
"+	c #FFFFFF",
"@	c #0000FF",
"#	c #FF0000",
"$	c #C0C0C0",
"%	c #808080",
"                        ",
"                        ",
"         $$$$$+$$$$+%$  ",
"         %%%%%%%%%%%%%  ",
"         ++++++$++++%$  ",
"         +$$$$+$+$$+%+  ",
"         ++++++$++++%$  ",
"         ++$$$+$+$$+%+  ",
"         ++++++$++++%$  ",
"         +$$$$+$+$$+%+  ",
"         ++++++$++++%$  ",
"         %%%%%%%%%%%    ",
"         ...........    ",
"  $++++++++%++++++++    ",
"  %$$$$$$$+%$$$$$$$+    ",
"  %$$$$%@$+%$#%$$$$+    ",
"  %$$%@@@$+%$###%$$+    ",
"  %$@@@@@$+%$#####$+    ",
"  %$$%@@@$+%$###%$$+    ",
"  %$$$$%@$+%$#%$$$$+    ",
"  %$$$$$$$+%$$$$$$$+    ",
"  %%%%%%%%$%%%%%%%%$    ",
"                        ",
"                        "};
