/* XPM */
static char * TColorComboBox_xpm[] = {
"24 24 12 1",
" 	c None",
".	c #FFFFFF",
"+	c #FFFF00",
"@	c #FF00FF",
"#	c #FF0000",
"$	c #00FFFF",
"%	c #00FF00",
"&	c #0000FF",
"*	c #000000",
"=	c #000080",
"-	c #008000",
";	c #808080",
"                        ",
"                        ",
"  ;;;;;;;;;;;;;;******  ",
"  ;.............*... *  ",
"  ;.********....*.** *  ",
"  ;.********....*.;; *  ",
"  ;.............*    *  ",
"  ;*******************  ",
"    *................*  ",
"    *.....########...*  ",
"    *.....########...*  ",
"   ######.########...*  ",
"  =##==##............*  ",
"  =##.=##.--------...*  ",
"  =##.=##.--------...*  ",
"  =#####..--------...*  ",
"  =##=##.............*  ",
"  =##==##.&&&&&&&&...*  ",
"  =##.==##&&&&&&&&...*  ",
"  ==*..==.&&&&&&&&...*  ",
"    *................*  ",
"    ******************  ",
"                        ",
"                        "};
