/* XPM */
static char * TDBColorComboBox_xpm[] = {
"24 24 17 1",
" 	c None",
".	c #FFFFFF",
"+	c #FFFF00",
"@	c #FF00FF",
"#	c #FF0000",
"$	c #00FFFF",
"%	c #00FF00",
"&	c #0000FF",
"*	c #000000",
"=	c #000080",
"-	c #A0A0A4",
";	c #ECECED",
">	c #008000",
",	c #ACA899",
"'	c #FFFBF0",
")	c #FFFEFC",
"!	c #808080",
",,,,,,,,,,,,,,,         ",
",'-.''''.''''',         ",
",,,,,,,,,,,,,,,         ",
",);....)......,         ",
",.-.!!!!!!!!!!!!!!******",
",);.!.............*... *",
",.-.!.********....*.** *",
",...!.********....*.!! *",
",.  !.............*    *",
",...!*******************",
",,,,,,*................*",
"      *.....########...*",
"      *.....########...*",
"     ######.########...*",
"    =##==##............*",
"    =##.=##.>>>>>>>>...*",
"    =##.=##.>>>>>>>>...*",
"    =#####..>>>>>>>>...*",
"    =##=##.............*",
"    =##==##.&&&&&&&&...*",
"    =##.==##&&&&&&&&...*",
"    ==*..==.&&&&&&&&...*",
"      *................*",
"      ******************"};
