/* XPM */
static char * TDBNumEdit_xpm[] = {
"24 24 15 1",
" 	c None",
".	c #FFFFFF",
"+	c #FFFF00",
"@	c #FF00FF",
"#	c #FF0000",
"$	c #00FFFF",
"%	c #00FF00",
"&	c #0000FF",
"*	c #000000",
"=	c #A0A0A4",
"-	c #4080C0",
";	c #80A0C0",
">	c #A6CAF0",
",	c #60A0C0",
"'	c #FFFBF0",
"===============         ",
"='=.''''.'''''=         ",
"===============         ",
"='=....'......=         ",
"=.=.''.'.''''.=         ",
"='=....'......=         ",
"=.=.''.'.'''..=         ",
"======================= ",
"=*********************. ",
"=*..'>.....'>........'. ",
"=*.;--->..,--->**.**.'. ",
"=*'->.,,.>->.,,..*...'. ",
"=*>-..>-';-..>-'.*...'. ",
"=*;-..>->>-..>->.*...'. ",
"=*;-..>->.-,;-->.*...'. ",
"=*;-..>->..;;>->.*...'. ",
"=*>-'.>-.';'.>-..*...'. ",
"=*.,,;->..,,;->..*...'. ",
"=*..>;>....;;>...*...'. ",
"=*.............**.**.'. ",
"=*...................'. ",
"=*''''''''''''''''''''. ",
"=...................... ",
"                        "};
