/* XPM */
static char * TPDBCHECK_xpm[] = {
"24 24 7 1",
" 	c None",
".	c #000000",
"+	c #FFFFFF",
"@	c #FF0000",
"#	c #800000",
"$	c #C0C0C0",
"%	c #808080",
"%%%%%%%%%%%%%%%%%%      ",
"%$%+$$$$$+$$$$$$$%      ",
"%%%%%%%%%%%%%%%%%%      ",
"%$%+++++$++++++++%      ",
"%+%+$$$+$+$$$$$$+%      ",
"%$%+++++$++++++++%      ",
"%+%+$$$+$+$$$$$$+%      ",
"%$%+++++$++++++++%      ",
"%+%+$$$+$+$$$$$$+%      ",
"%$%+++++%@@@%%%%%%%%@@  ",
"%+%+$$$+%@@@@......@@+  ",
"%$%+++++%#@@@@++++@@@+  ",
"%+%+$$$+%.#@@@@++@@@$+  ",
"%+%+++++%.+#@@@@@@@+$+  ",
"%%%%%%%%%.++#@@@@@++$+  ",
"        %.+++@@@@#++$+  ",
"        %.++@@@#@@++$+  ",
"        %.+@@@###@@+$+  ",
"        %.@@@##++#@@$+  ",
"        %@@@##++++#@@+  ",
"        @@@##++++++#@@  ",
"        @@##$$$$$$$$#@@ ",
"        @@#++++++++++#@ ",
"                        "};
