/* XPM */
static char * tfwcopy_xpm[] = {
"16 16 15 1",
" 	c None",
".	c #000000",
"+	c #000080",
"@	c #1E0710",
"#	c #7C205E",
"$	c #88235A",
"%	c #8D2458",
"&	c #942656",
"*	c #972756",
"=	c #9B2856",
"-	c #9E305C",
";	c #E3C3CF",
">	c #EBD4DD",
",	c #EDD9E1",
"'	c #FFFFFF",
"                ",
" ''''''''       ",
" ''''+++-=#     ",
" '''''''>@#     ",
" '++++''$%==='  ",
" ''''''';&=*+'. ",
" '++++''',&'''. ",
" ''''''++++++'. ",
" '++++''''''''. ",
" ''''''++++++'. ",
" '''''''''''''. ",
"  ....'++++++'. ",
"      ''''''''. ",
"      ''''''''. ",
"       ........ ",
"                "};
