/* XPM */
static char * tfwcancel_xpm[] = {
"16 16 28 1",
" 	c None",
".	c #198CFF",
"+	c #33A1FE",
"@	c #001676",
"#	c #0048D7",
"$	c #007BFF",
"%	c #0085FF",
"&	c #208FFF",
"*	c #3355A5",
"=	c #FFFFFA",
"-	c #BBE0FB",
";	c #008CFF",
">	c #778DC1",
",	c #00268C",
"'	c #99D1FC",
")	c #45A9FE",
"!	c #EEF7FA",
"~	c #006DF3",
"{	c #66BAFD",
"]	c #77C2FD",
"^	c #005CFD",
"/	c #CCE8FB",
"(	c #1194FF",
"_	c #AAD9FC",
":	c #88C9FC",
"<	c #88BAFC",
"[	c #113897",
"}	c #007DFF",
"      .....     ",
"    +@#$%$#@&   ",
"   *=-;;;;;+=>  ",
"  ,;'=);;;;=!;, ",
" ~$;;!=;;;!=;;$~",
" @;;;;=={]=+;;;@",
".^;;;;;===/;;;;^",
".%;;;;;/==;;;;;%",
".%;;;;;===(;;;;%",
".^;;;;=='==;;;;^",
" @;;;!=(;;=_;;;@",
" ~$;/=+;;;]=+;$~",
"  ,:={;;;;;==;, ",
"   ><;;;;;;;=[  ",
"    }@#$%$#@}   ",
"      .....     "};
