/* XPM */
static char * tfwdoc_xpm[] = {
"16 16 161 2",
"  	c None",
". 	c #BEDBFB",
"+ 	c #DEEEFD",
"@ 	c #DBE8F9",
"# 	c #D9E3F4",
"$ 	c #D8E3F3",
"% 	c #D4DFEF",
"& 	c #D3DCEE",
"* 	c #CFD8E9",
"= 	c #A7B2D3",
"- 	c #B0BCD7",
"; 	c #D1E4F9",
"> 	c #C6C7DC",
", 	c #6AC9FF",
"' 	c #8099C5",
") 	c #CCDDF5",
"! 	c #EBF3FC",
"~ 	c #EBF6FF",
"{ 	c #C3C4DD",
"] 	c #368FDD",
"^ 	c #167BD6",
"/ 	c #8388A7",
"( 	c #C8DAF3",
"_ 	c #ECF4FD",
": 	c #E9F2FC",
"< 	c #E5F0FC",
"[ 	c #E2EFFC",
"} 	c #E5F3FF",
"| 	c #D9DAFF",
"1 	c #DDE1FF",
"2 	c #636399",
"3 	c #C7D8EF",
"4 	c #EBF4FC",
"5 	c #E8F2FD",
"6 	c #E4F0FC",
"7 	c #E1EDFC",
"8 	c #DDEAFC",
"9 	c #D8E8FB",
"0 	c #D6E9FB",
"a 	c #DCF3FF",
"b 	c #626298",
"c 	c #BEC9E6",
"d 	c #E9F3FC",
"e 	c #E6F0FC",
"f 	c #E2EEFC",
"g 	c #DEEDFC",
"h 	c #DBEAFB",
"i 	c #D6E8FB",
"j 	c #D3E5FB",
"k 	c #CFE4FA",
"l 	c #D5EDFF",
"m 	c #646599",
"n 	c #B9C5DE",
"o 	c #E5EFFD",
"p 	c #DEEBFC",
"q 	c #D9E9FB",
"r 	c #D5E8FA",
"s 	c #D2E5FB",
"t 	c #CEE2FA",
"u 	c #CAE1F9",
"v 	c #CEE9FF",
"w 	c #686799",
"x 	c #B5C0DD",
"y 	c #E8F4FE",
"z 	c #DFEDFC",
"A 	c #DBEAFC",
"B 	c #D8E8FA",
"C 	c #D5E7FB",
"D 	c #D0E3FB",
"E 	c #CCE1F9",
"F 	c #C8DFF9",
"G 	c #C4DEFA",
"H 	c #C8E6FF",
"I 	c #646193",
"J 	c #B2BDD8",
"K 	c #E3F1FF",
"L 	c #DBE9FB",
"M 	c #D7E7FB",
"N 	c #D3E6FA",
"O 	c #CEE3FB",
"P 	c #CBE1FA",
"Q 	c #C7DEFA",
"R 	c #C3DCFA",
"S 	c #BFDBF8",
"T 	c #C3E3FF",
"U 	c #686694",
"V 	c #ABB5D0",
"W 	c #DDEEFF",
"X 	c #D5E6FB",
"Y 	c #D1E4FB",
"Z 	c #CDE3FA",
"` 	c #C9E1F9",
" .	c #C5DDF9",
"..	c #C1DBF9",
"+.	c #BDD9F8",
"@.	c #BBD7F9",
"#.	c #BEE0FF",
"$.	c #63608E",
"%.	c #A5AEC9",
"&.	c #D8EBFF",
"*.	c #CFE3FB",
"=.	c #CCE2FA",
"-.	c #C7DFF9",
";.	c #C4DCF9",
">.	c #C0DBF9",
",.	c #BCD8F9",
"'.	c #B9D7F8",
").	c #B5D4F7",
"!.	c #B9DDFF",
"~.	c #63608C",
"{.	c #A2A8C2",
"].	c #D3E8FF",
"^.	c #C5DEF9",
"/.	c #C2DDF9",
"(.	c #BED9F9",
"_.	c #BBD8F9",
":.	c #B8D6F8",
"<.	c #B4D4F7",
"[.	c #B2D2F8",
"}.	c #B4DBFF",
"|.	c #64648B",
"1.	c #A0A7C1",
"2.	c #CCE5FF",
"3.	c #C5DEFA",
"4.	c #BED9F8",
"5.	c #B9D7F9",
"6.	c #B6D5F8",
"7.	c #B3D3F7",
"8.	c #B0D1F8",
"9.	c #ADD0F8",
"0.	c #B0D8FF",
"a.	c #68658D",
"b.	c #9DA5BF",
"c.	c #CCE9FF",
"d.	c #C3E1FD",
"e.	c #C0DEFD",
"f.	c #BCDCFD",
"g.	c #B8DAFC",
"h.	c #B4D8FC",
"i.	c #B2D6FC",
"j.	c #AED5FC",
"k.	c #ACD3FC",
"l.	c #AEDCFF",
"m.	c #6C688E",
"n.	c #7073A6",
"o.	c #959FD3",
"p.	c #919CD0",
"q.	c #919BCF",
"r.	c #909BCF",
"s.	c #8E9AD0",
"t.	c #8D99CF",
"u.	c #8C98CF",
"v.	c #8F9DD6",
"w.	c #454C74",
"x.	c #E4E4DF",
"y.	c #CFCEC8",
"z.	c #D1D0CB",
"A.	c #D2D0CB",
"B.	c #D2D1CB",
"C.	c #D3D1CB",
"D.	c #D1D0CC",
"    . + @ # $ % & * = -         ",
"    ;               > , '       ",
"    )           ! ~ { ] ^ /     ",
"    (       _ : < [ } | 1 2     ",
"    3     4 5 6 7 8 9 0 a b     ",
"    c   d e f g h i j k l m     ",
"    n   o 7 p q r s t u v w     ",
"    x y z A B C D E F G H I     ",
"    J K L M N O P Q R S T U     ",
"    V W X Y Z `  ...+.@.#.$.    ",
"    %.&.*.=.-.;.>.,.'.).!.~.    ",
"    {.].u ^./.(._.:.<.[.}.|.    ",
"    1.2.3...4.5.6.7.8.9.0.a.    ",
"    b.c.d.e.f.g.h.i.j.k.l.m.    ",
"    n.o.p.q.r.s.s.t.u.u.v.w.    ",
"    x.y.z.A.A.A.A.A.B.B.C.D.    "};
