/* XPM */
static char * tfwdelete_xpm[] = {
"16 16 256 2",
"  	c None",
". 	c #FFFFFF",
"+ 	c #FFFF00",
"@ 	c #FF00FF",
"# 	c #FF0000",
"$ 	c #00FFFF",
"% 	c #00FF00",
"& 	c #0000FF",
"* 	c #000000",
"= 	c #0F579F",
"- 	c #0A75E1",
"; 	c #097EF5",
"> 	c #0674E4",
", 	c #008CFF",
"' 	c #00003F",
") 	c #00003D",
"! 	c #FDFDFE",
"~ 	c #000D62",
"{ 	c #000A56",
"] 	c #001577",
"^ 	c #001775",
"/ 	c #001B82",
"( 	c #001B80",
"_ 	c #001F7F",
": 	c #002A9B",
"< 	c #00268C",
"[ 	c #002EA7",
"} 	c #002A90",
"| 	c #002A8E",
"1 	c #00288C",
"2 	c #003DC4",
"3 	c #0039BA",
"4 	c #0048D7",
"5 	c #0043CB",
"6 	c #005CFD",
"7 	c #0052E8",
"8 	c #0042B7",
"9 	c #003DAE",
"0 	c #0066FF",
"a 	c #0052CC",
"b 	c #006DFF",
"c 	c #0075FF",
"d 	c #006DF3",
"e 	c #007BFF",
"f 	c #1F4B7A",
"g 	c #295482",
"h 	c #007DFF",
"i 	c #01264A",
"j 	c #0482FF",
"k 	c #023569",
"l 	c #034B94",
"m 	c #034990",
"n 	c #03488D",
"o 	c #034283",
"p 	c #0672E0",
"q 	c #0671DF",
"r 	c #056AD1",
"s 	c #0568CC",
"t 	c #0564C5",
"u 	c #055FBA",
"v 	c #04509E",
"w 	c #044F9A",
"x 	c #044D97",
"y 	c #033F7C",
"z 	c #03386F",
"A 	c #02264B",
"B 	c #0670DB",
"C 	c #033668",
"D 	c #065CB2",
"E 	c #032E58",
"F 	c #097CF1",
"G 	c #097BF0",
"H 	c #097BEF",
"I 	c #097AEC",
"J 	c #0874E1",
"K 	c #0871DC",
"L 	c #086DD4",
"M 	c #0656A7",
"N 	c #0653A0",
"O 	c #06509C",
"P 	c #0862BC",
"Q 	c #0758AB",
"R 	c #0755A3",
"S 	c #064F99",
"T 	c #06498E",
"U 	c #053E79",
"V 	c #0B85FF",
"W 	c #0A73DE",
"X 	c #0A72DD",
"Y 	c #0A71D9",
"Z 	c #096CCF",
"` 	c #0969CA",
" .	c #0965C3",
"..	c #085CB0",
"+.	c #064687",
"@.	c #053B72",
"#.	c #04305D",
"$.	c #0857A5",
"%.	c #08529E",
"&.	c #074D94",
"*.	c #074B90",
"=.	c #074A8D",
"-.	c #063E78",
";.	c #042B51",
">.	c #08519A",
",.	c #084F96",
"'.	c #074483",
").	c #063C71",
"!.	c #063A70",
"~.	c #07427D",
"{.	c #06376A",
"].	c #073D74",
"^.	c #052B53",
"/.	c #073A6F",
"(.	c #073A6D",
"_.	c #05294C",
":.	c #083D74",
"<.	c #073869",
"[.	c #073666",
"}.	c #093F76",
"|.	c #093E74",
"1.	c #06294D",
"2.	c #0A4077",
"3.	c #08335F",
"4.	c #0B447E",
"5.	c #0F559D",
"6.	c #0F549A",
"7.	c #0E5193",
"8.	c #0E4F90",
"9.	c #0C457E",
"0.	c #0B4075",
"a.	c #198CFF",
"b.	c #0E4D8C",
"c.	c #0E4B8A",
"d.	c #0D4781",
"e.	c #0B3C6E",
"f.	c #0E4A87",
"g.	c #0F4C8A",
"h.	c #0E4984",
"i.	c #0D4277",
"j.	c #0E467E",
"k.	c #0D4175",
"l.	c #0E4377",
"m.	c #0D3C6C",
"n.	c #125192",
"o.	c #0E3F72",
"p.	c #0D3B69",
"q.	c #135496",
"r.	c #0E3F70",
"s.	c #0E3D6D",
"t.	c #0D3A67",
"u.	c #145598",
"v.	c #145597",
"w.	c #124E8B",
"x.	c #124C87",
"y.	c #0D3660",
"z.	c #144F8C",
"A.	c #0D355C",
"B.	c #185DA4",
"C.	c #185DA3",
"D.	c #175797",
"E.	c #0C2D4F",
"F.	c #0D2F53",
"G.	c #0D2E4F",
"H.	c #1E63AA",
"I.	c #2065AB",
"J.	c #103357",
"K.	c #246DB9",
"L.	c #113558",
"M.	c #103152",
"N.	c #0E2B48",
"O.	c #2264AA",
"P.	c #143B63",
"Q.	c #0C243C",
"R.	c #2366AB",
"S.	c #153D66",
"T.	c #256BB2",
"U.	c #276CB4",
"V.	c #276CB3",
"W.	c #18436E",
"X.	c #163D66",
"Y.	c #2A75C0",
"Z.	c #18436D",
"`.	c #286CB1",
" +	c #2C76C2",
".+	c #2C76C1",
"++	c #2B6FB5",
"@+	c #2A6DB2",
"#+	c #3179C3",
"$+	c #2E70B6",
"%+	c #2F71B5",
"&+	c #204D7B",
"*+	c #347AC4",
"=+	c #4097F0",
"-+	c #357BC3",
";+	c #3272B5",
">+	c #23517F",
",+	c #245180",
"'+	c #275381",
")+	c #3774B4",
"!+	c #3774B3",
"~+	c #3D7EC2",
"{+	c #3D7EC1",
"]+	c #3975B3",
"^+	c #3975B2",
"/+	c #2A5581",
"(+	c #58A3EE",
"_+	c #2F5780",
":+	c #6FADEC",
"<+	c #70ADEC",
"[+	c #6EA7DF",
"}+	c #A4C6E7",
"|+	c #B5D3F2",
"1+	c #FBFCFD",
"2+	c #0084FF",
"3+	c #0086FF",
"4+	c #063460",
"5+	c #073159",
"6+	c #0D2944",
"7+	c #113557",
"8+	c #0C243B",
"9+	c #7799B9",
"0+	c #93BCE3",
"a+	c #8AA5BD",
"b+	c #8EA3B6",
"c+	c #91A6B9",
"d+	c #8FA4B7",
"e+	c #93A8BB",
"f+	c #BDD1E4",
"g+	c #C6D5E3",
"h+	c #0088FF",
"i+	c #94C7F4",
"j+	c #92A9BD",
"k+	c #8DA3B6",
"l+	c #AEC7DD",
"m+	c #E9F1F8",
"n+	c #6CBBFA",
"o+	c #B3DAF7",
"p+	c #CDD9E2",
"q+	c #D2DBE2",
"r+	c #D3DBE1",
"s+	c #D3D7DA",
"t+	c #DCECF7",
"u+	c #E8F3F7",
"v+	c #F8FAFA",
"w+	c #FBFDF8",
"x+	c #FDFEF9",
"y+	c #FFFFFA",
"z+	c #DDDDD9",
"A+	c #FFFEF9",
"B+	c #EFE4D4",
"C+	c #EEE4D5",
"D+	c #EFE3D3",
"E+	c #EDE3D5",
"F+	c #EBE2D6",
"G+	c #FFFEFE",
"            a.a.a.a.a.          ",
"        h ^ 4 e 3+e 4 ^ h       ",
"      } b , , , , , , , b }     ",
"    < , , , , , , , , , , , <   ",
"  d e , , , , , , , , , , , e d ",
"  ] , , , , , , , , , , , , , ] ",
"a.6 , , , u+u+u+u+x+x+x+n+, , 6 ",
"a.3+, , u+y+y+y+y+y+y+y+w+, , 3+",
"a.3+, , o+y+y+y+y+y+y+y+i+, , 3+",
"a.6 , , , , , , , , , , , , , 6 ",
"  ] , , , , , , , , , , , , , ] ",
"  d e , , , , , , , , , , , e d ",
"    < , , , , , , , , , , , <   ",
"      } b , , , , , , , b }     ",
"        h ^ 4 e 3+e 4 ^ h       ",
"            a.a.a.a.a.          "};
