/* XPM */
static char * insere_xpm[] = {
"16 16 256 2",
"  	c None",
". 	c #FFFFFF",
"+ 	c #FFFF00",
"@ 	c #FF00FF",
"# 	c #FF0000",
"$ 	c #00FFFF",
"% 	c #00FF00",
"& 	c #0000FF",
"* 	c #000000",
"= 	c #FFFFFA",
"- 	c #FEFEFD",
"; 	c #FDF1E1",
"> 	c #D3DBE1",
", 	c #8DA3B6",
"' 	c #0F579F",
") 	c #0A75E1",
"! 	c #097EF5",
"~ 	c #0674E4",
"{ 	c #008CFF",
"] 	c #00003F",
"^ 	c #00003D",
"/ 	c #000D62",
"( 	c #000A56",
"_ 	c #001577",
": 	c #001775",
"< 	c #001B82",
"[ 	c #001B80",
"} 	c #001F7F",
"| 	c #002A9B",
"1 	c #00268C",
"2 	c #002EA7",
"3 	c #002A90",
"4 	c #002A8E",
"5 	c #00288C",
"6 	c #003DC4",
"7 	c #0039BA",
"8 	c #0049DB",
"9 	c #0047D3",
"0 	c #0043CB",
"a 	c #005CFD",
"b 	c #0052E8",
"c 	c #0042B7",
"d 	c #003DAE",
"e 	c #0066FF",
"f 	c #0052CC",
"g 	c #006DFF",
"h 	c #0075FF",
"i 	c #006DF3",
"j 	c #007BFF",
"k 	c #1F4B7A",
"l 	c #295482",
"m 	c #007DFF",
"n 	c #01264A",
"o 	c #0482FF",
"p 	c #023569",
"q 	c #034B94",
"r 	c #034990",
"s 	c #03488D",
"t 	c #034283",
"u 	c #0672E0",
"v 	c #0671DF",
"w 	c #056AD1",
"x 	c #0568CC",
"y 	c #0564C5",
"z 	c #055FBA",
"A 	c #04509E",
"B 	c #044F9A",
"C 	c #044D97",
"D 	c #033F7C",
"E 	c #03386F",
"F 	c #02264B",
"G 	c #0670DB",
"H 	c #033668",
"I 	c #065CB2",
"J 	c #032E58",
"K 	c #097CF1",
"L 	c #097BF0",
"M 	c #097BEF",
"N 	c #097AEC",
"O 	c #0874E1",
"P 	c #0871DC",
"Q 	c #086DD4",
"R 	c #0656A7",
"S 	c #0653A0",
"T 	c #06509C",
"U 	c #0862BC",
"V 	c #0758AB",
"W 	c #0755A3",
"X 	c #064F99",
"Y 	c #06498E",
"Z 	c #053E79",
"` 	c #0B85FF",
" .	c #0A73DE",
"..	c #0A72DD",
"+.	c #0A71D9",
"@.	c #096CCF",
"#.	c #0969CA",
"$.	c #0965C3",
"%.	c #085CB0",
"&.	c #064687",
"*.	c #053B72",
"=.	c #04305D",
"-.	c #0857A5",
";.	c #08529E",
">.	c #074D94",
",.	c #074B90",
"'.	c #074A8D",
").	c #063E78",
"!.	c #042B51",
"~.	c #08519A",
"{.	c #084F96",
"].	c #074483",
"^.	c #063C71",
"/.	c #063A70",
"(.	c #07427D",
"_.	c #06376A",
":.	c #073D74",
"<.	c #052B53",
"[.	c #073A6F",
"}.	c #073A6D",
"|.	c #05294C",
"1.	c #083D74",
"2.	c #073869",
"3.	c #073666",
"4.	c #093F76",
"5.	c #093E74",
"6.	c #06294D",
"7.	c #0A4077",
"8.	c #08335F",
"9.	c #0B447E",
"0.	c #1684F4",
"a.	c #0F559D",
"b.	c #0F559C",
"c.	c #0F549A",
"d.	c #0E5193",
"e.	c #0E4F90",
"f.	c #0C457E",
"g.	c #0B4075",
"h.	c #198CFF",
"i.	c #177DE6",
"j.	c #0E4D8C",
"k.	c #0E4B8A",
"l.	c #0D4781",
"m.	c #0B3C6E",
"n.	c #0E4A87",
"o.	c #0F4C8A",
"p.	c #0E4984",
"q.	c #0D4277",
"r.	c #0E467E",
"s.	c #0D4175",
"t.	c #1A7DE1",
"u.	c #0E4377",
"v.	c #0D3C6C",
"w.	c #125192",
"x.	c #0E3F72",
"y.	c #0D3B69",
"z.	c #135496",
"A.	c #0E3F70",
"B.	c #0E3D6D",
"C.	c #0D3A67",
"D.	c #145598",
"E.	c #145597",
"F.	c #124E8B",
"G.	c #124C87",
"H.	c #0D3660",
"I.	c #175CA1",
"J.	c #144F8C",
"K.	c #0D355C",
"L.	c #185DA4",
"M.	c #185DA3",
"N.	c #175797",
"O.	c #0C2D4F",
"P.	c #0D2F53",
"Q.	c #0D2E4F",
"R.	c #1E63AA",
"S.	c #2065AB",
"T.	c #103357",
"U.	c #246DB9",
"V.	c #113558",
"W.	c #103152",
"X.	c #0E2B48",
"Y.	c #2264AA",
"Z.	c #143B63",
"`.	c #0C243C",
" +	c #2366AB",
".+	c #153D66",
"++	c #256BB2",
"@+	c #276CB4",
"#+	c #276CB3",
"$+	c #18436E",
"%+	c #163D66",
"&+	c #2A75C0",
"*+	c #18436D",
"=+	c #286CB1",
"-+	c #2C76C2",
";+	c #2C76C1",
">+	c #2B6FB5",
",+	c #2A6DB3",
"'+	c #2A6DB2",
")+	c #3179C3",
"!+	c #2E70B6",
"~+	c #2F71B5",
"{+	c #204D7B",
"]+	c #3F97F0",
"^+	c #347AC4",
"/+	c #357BC3",
"(+	c #3272B5",
"_+	c #23517F",
":+	c #245180",
"<+	c #316BA5",
"[+	c #275381",
"}+	c #4899EB",
"|+	c #3774B4",
"1+	c #3774B3",
"2+	c #3D7EC2",
"3+	c #3D7EC1",
"4+	c #3975B3",
"5+	c #3975B2",
"6+	c #2A5581",
"7+	c #4B96E1",
"8+	c #2F5780",
"9+	c #5AA3ED",
"0+	c #4175A8",
"a+	c #67A9EC",
"b+	c #4A7AAA",
"c+	c #69ABEE",
"d+	c #7AB4F0",
"e+	c #82B6E9",
"f+	c #9BC7F3",
"g+	c #9DC2E6",
"h+	c #9CBFE1",
"i+	c #ABC8E5",
"j+	c #BCD9F6",
"k+	c #CCE2F8",
"l+	c #0084FF",
"m+	c #0086FF",
"n+	c #063460",
"o+	c #073159",
"p+	c #0D2944",
"q+	c #113557",
"r+	c #0C243B",
"s+	c #6BA7E1",
"t+	c #5B85AD",
"u+	c #7BAFE1",
"v+	c #6B8FB0",
"w+	c #7494B1",
"x+	c #0088FF",
"y+	c #1194FF",
"z+	c #44ABFE",
"A+	c #BCD0E1",
"B+	c #66BAFD",
"C+	c #77C2FD",
"D+	c #99D1FC",
"E+	c #CCD8E1",
"F+	c #BBE0FB",
"G+	c #CCE8FB",
"            h.h.h.h.h.          ",
"        m : 8 j m+j 8 : m       ",
"      3 g { { { { { { { g 3     ",
"    1 { { { { { { { { { { { 1   ",
"  i j { { { { z+z+z+{ { { { j i ",
"  _ { { { { { = = = { { { { { _ ",
"h.a { { { { { = = = { { { { { a ",
"h.m+{ { { = = = = = = = { { { m+",
"h.m+{ { { = = = = = = = { { { m+",
"h.a { { { F+F+= = = F+F+{ { { a ",
"  _ { { { { { = = = { { { { { _ ",
"  i j { { { { = = = { { { { j i ",
"    1 { { { { { { { { { { { 1   ",
"      3 g { { { { { { { g 3     ",
"        m : 8 j m+j 8 : m       ",
"            h.h.h.h.h.          "};
