/* XPM */
static char * tfwok_xpm[] = {
"20 20 35 1",
" 	c None",
".	c #DBE6F2",
"+	c #86ABD0",
"@	c #6896C5",
"#	c #3E79B4",
"$	c #AEC7E0",
"%	c #2B6EB2",
"&	c #073869",
"*	c #08529E",
"=	c #0862BC",
"-	c #0A72DD",
";	c #07427D",
">	c #B1C9E1",
",	c #175797",
"'	c #073A6E",
")	c #0965C3",
"!	c #0A75E1",
"~	c #3071B4",
"{	c #0B4075",
"]	c #0A73DE",
"^	c #AAC4DF",
"/	c #C1D4E7",
"(	c #08519A",
"_	c #EFE3D3",
":	c #407CBA",
"<	c #2366AB",
"[	c #096CCF",
"}	c #063B71",
"|	c #0D4277",
"1	c #0857A5",
"2	c #95B5D6",
"3	c #074B90",
"4	c #709BC8",
"5	c #085CB0",
"6	c #407AB5",
"      .+@##@$.      ",
"    +%&*=--=;&%+    ",
"   >,')!!!!!!)',>   ",
"  ~{]!!!!!!!!!!]{^  ",
" /{(!!!!!!!!!!!_(:/ ",
" <[!!!!!!!!!!_!!!}< ",
" |!!!!!!!!!!__!!!1| ",
"23!!!!!!!!!_!!!!!!32",
"45!!!!!!!!!_!!!!!!54",
"6-!!!!!!!__!!!!!!!-6",
"6-!!!!!!!__!!!!!!!-6",
"45!___!__!!!!!!!!!54",
"23!!__!__!!!!!!!!!32",
" |!!!____!!!!!!!!1| ",
" <[!!___!!!!!!!!!}< ",
" /{(!!_!!!!!!!!!(:/ ",
"  ~{]!!!!!!!!!!]{^  ",
"   >,')!!!!!!)',>   ",
"    +%&*=--=;&%+    ",
"      .+@##@$.      "};
