/* XPM */
static char * tfwprint_xpm[] = {
"16 16 149 2",
"  	c None",
". 	c #A8A8C5",
"+ 	c #C7C5D0",
"@ 	c #A9A7B8",
"# 	c #B4B1C2",
"$ 	c #BBB9CB",
"% 	c #BBBBCE",
"& 	c #DBDBE4",
"* 	c #D0CFDB",
"= 	c #AFB4CE",
"- 	c #FFFFFF",
"; 	c #CBCFDC",
"> 	c #E3E1E9",
", 	c #ECEBF0",
"' 	c #969DBA",
") 	c #DFF4FF",
"! 	c #DBEDFF",
"~ 	c #D8EAFF",
"{ 	c #DEF1FF",
"] 	c #C7D5E5",
"^ 	c #CED0DC",
"/ 	c #C4CBDA",
"( 	c #A1BCDB",
"_ 	c #D3F0FF",
": 	c #C7E1FF",
"< 	c #C8E4FF",
"[ 	c #BCD6F2",
"} 	c #CFD7EA",
"| 	c #D0D2E1",
"1 	c #9EBCDE",
"2 	c #BCE5FF",
"3 	c #B7DCFF",
"4 	c #B7DEFF",
"5 	c #AAD2F6",
"6 	c #ACBDD7",
"7 	c #E1DFE5",
"8 	c #C2C3CB",
"9 	c #A5BAE6",
"0 	c #ACCCFE",
"a 	c #AEC8F1",
"b 	c #B3CCEE",
"c 	c #BED6EE",
"d 	c #AFB8C5",
"e 	c #B1B0B2",
"f 	c #D9D9D9",
"g 	c #CCCDCC",
"h 	c #A5A4A4",
"i 	c #D4D5E5",
"j 	c #B6B8CD",
"k 	c #A9A8B3",
"l 	c #B5B1B4",
"m 	c #CEC8C2",
"n 	c #C8C3BE",
"o 	c #B9B9B7",
"p 	c #BEBEBF",
"q 	c #B0B0B0",
"r 	c #DDDDDD",
"s 	c #BDBDBD",
"t 	c #B0B1B1",
"u 	c #BEBDBD",
"v 	c #D3D1CA",
"w 	c #B5B3A9",
"x 	c #BEBDB5",
"y 	c #D0D0CB",
"z 	c #D2D3D2",
"A 	c #D6D7D8",
"B 	c #E4E4E4",
"C 	c #DADADA",
"D 	c #BFC0BF",
"E 	c #969695",
"F 	c #EAEAEA",
"G 	c #8A8A8A",
"H 	c #E9E9E9",
"I 	c #DEDEDE",
"J 	c #CBCCCD",
"K 	c #D1D2D3",
"L 	c #DFDFE1",
"M 	c #E1E1E1",
"N 	c #DFDFDF",
"O 	c #D4D5D4",
"P 	c #E4E2E6",
"Q 	c #8F8B91",
"R 	c #C1C1C2",
"S 	c #7D7D7D",
"T 	c #C9C9C9",
"U 	c #D7D7D7",
"V 	c #E5E5E5",
"W 	c #D8D8D8",
"X 	c #CECECE",
"Y 	c #B5B5B5",
"Z 	c #A9A6A9",
"` 	c #A7AFA5",
" .	c #6A7365",
"..	c #BEBCBF",
"+.	c #828282",
"@.	c #C6C6C6",
"#.	c #D0D0D0",
"$.	c #CCCCCC",
"%.	c #B2B2B2",
"&.	c #989898",
"*.	c #919191",
"=.	c #999B99",
"-.	c #B2ABB5",
";.	c #9DB093",
">.	c #667D5A",
",.	c #C5C2C6",
"'.	c #6D6D6D",
").	c #B8B8B8",
"!.	c #A7A7A7",
"~.	c #858586",
"{.	c #A4A4A4",
"].	c #B6B6B5",
"^.	c #B3B2B4",
"/.	c #888D86",
"(.	c #616660",
"_.	c #B8B8BA",
":.	c #A2A2A2",
"<.	c #878787",
"[.	c #D2D2D2",
"}.	c #A6A6A6",
"|.	c #A3A3A1",
"1.	c #9A9A95",
"2.	c #7C7C7A",
"3.	c #727272",
"4.	c #707170",
"5.	c #ABAAAC",
"6.	c #B2B1B3",
"7.	c #959495",
"8.	c #BCBCBC",
"9.	c #696969",
"0.	c #A9A9A9",
"a.	c #EAEAE9",
"b.	c #A4A4A6",
"c.	c #585862",
"d.	c #5B5B5E",
"e.	c #8B8B8A",
"f.	c #D4D4D4",
"g.	c #B5B4B3",
"h.	c #E6E5E5",
"i.	c #979797",
"j.	c #676767",
"k.	c #555552",
"l.	c #5D5D5E",
"m.	c #696984",
"n.	c #6E6E86",
"o.	c #A8A8AB",
"p.	c #EBEBEB",
"q.	c #DCDCDC",
"r.	c #E8E8E8",
"    . + @ # $ % &               ",
"    * = - - - - ; >             ",
"    , ' ) ! ~ { ] ^             ",
"      / ( _ : < [ }             ",
"      | 1 2 3 4 5 6 7           ",
"      8 9 0 a b c d e f         ",
"    g h i j k l m n o p q r     ",
"  s t u v w x y z A B C D E F   ",
"  G H I J K L - H M N O P Q R   ",
"  S T U F V F B W X Y Z `  ...  ",
"  +.@.Y Y #.$.%.&.*.=.-.;.>.,.  ",
"  '.- B ).!.G ~.{.%.].^./.(._.  ",
"  :.<.- - [.}.|.1.2.3.4.5.6.7.  ",
"    8.9.0.- a.b.c.d.e.f.g.:.h.  ",
"      M i.j.k.l.m.n.o.!.f       ",
"          p.q.p.p.r.            "};
