/* XPM */
static char * tfwpreview48_xpm[] = {
"48 48 255 2",
"  	c None",
". 	c #98C8FA",
"+ 	c #96C5F7",
"@ 	c #99C3F3",
"# 	c #94C2EE",
"$ 	c #98BAE4",
"% 	c #98B2DC",
"& 	c #98ACD5",
"* 	c #93A6CD",
"= 	c #92A0C6",
"- 	c #7481B4",
"; 	c #99CCFE",
"> 	c #FFFFFF",
", 	c #FCFCFC",
"' 	c #F8F8FA",
") 	c #F6F6F6",
"! 	c #F1F1F1",
"~ 	c #EEF1F3",
"{ 	c #EDEEEE",
"] 	c #E9EAEB",
"^ 	c #E6E7E8",
"/ 	c #E2E4E5",
"( 	c #DFDFDF",
"_ 	c #727EB1",
": 	c #86A7DA",
"< 	c #FDFEFF",
"[ 	c #FEFFFF",
"} 	c #FBFDFF",
"| 	c #F8FBFF",
"1 	c #F5FAFF",
"2 	c #F3FAFF",
"3 	c #F1F8FF",
"4 	c #717BAE",
"5 	c #ADD7EE",
"6 	c #84A2D5",
"7 	c #F9FCFF",
"8 	c #6F78AB",
"9 	c #EDF6FF",
"0 	c #6D75A7",
"a 	c #C7F9FF",
"b 	c #6EB0EE",
"c 	c #6B70A3",
"d 	c #B6E9FF",
"e 	c #87CBFF",
"f 	c #57AFF6",
"g 	c #819CCF",
"h 	c #ECF5FF",
"i 	c #6B6EA1",
"j 	c #AADCFF",
"k 	c #71C2FF",
"l 	c #7E96C9",
"m 	c #94C1F4",
"n 	c #EAF4FF",
"o 	c #6A6C9E",
"p 	c #369CEF",
"q 	c #686B9E",
"r 	c #008FF5",
"s 	c #0073D9",
"t 	c #DFE1ED",
"u 	c #DBDCEB",
"v 	c #DDE1F2",
"w 	c #F2F8FF",
"x 	c #E5F2FF",
"y 	c #696A9B",
"z 	c #707070",
"A 	c #92BDF0",
"B 	c #A8A7C6",
"C 	c #797AA9",
"D 	c #7578A9",
"E 	c #8A91BF",
"F 	c #A2A9D4",
"G 	c #9195C3",
"H 	c #ACADD2",
"I 	c #C3C9E2",
"J 	c #8FA3DA",
"K 	c #8C9FD6",
"L 	c #8597D5",
"M 	c #7C92C5",
"N 	c #B6B6D3",
"O 	c #848CB7",
"P 	c #A6BBDC",
"Q 	c #B6E2F4",
"R 	c #C4F5FF",
"S 	c #CBF3FE",
"T 	c #C4EFFF",
"U 	c #BBE7FF",
"V 	c #B3E5FF",
"W 	c #A7C7EA",
"X 	c #919ECA",
"Y 	c #D2DDF0",
"Z 	c #E0EFFF",
"` 	c #DCEDFF",
" .	c #BCBCFF",
"..	c #AEAEFF",
"+.	c #9E9EFF",
"@.	c #7A8EC1",
"#.	c #9E9EC7",
"$.	c #A2B0D0",
"%.	c #D9F1FA",
"&.	c #DDFAFF",
"*.	c #E0FDFF",
"=.	c #CEFFFF",
"-.	c #C9FAFF",
";.	c #C9FCFF",
">.	c #CBFEFF",
",.	c #CFFCFF",
"'.	c #BFEBFF",
").	c #A6D6FF",
"!.	c #8FADDE",
"~.	c #8183B4",
"{.	c #CDD9EF",
"].	c #D8ECFF",
"^.	c #D5E6FD",
"/.	c #D1E1FF",
"(.	c #CEDFFF",
"_.	c #CADDFF",
":.	c #C1CBFF",
"<.	c #B0C1DC",
"[.	c #D5F8FF",
"}.	c #B9EAFF",
"|.	c #ACDFFF",
"1.	c #BAEDFF",
"2.	c #D7ECFF",
"3.	c #D6EAFF",
"4.	c #D4E9FF",
"5.	c #D1E8FF",
"6.	c #CEE6FF",
"7.	c #C6DAFF",
"8.	c #8EB6E9",
"9.	c #E3FBFF",
"0.	c #C8E9FF",
"a.	c #A4D7FF",
"b.	c #A6D9FF",
"c.	c #BEF1FF",
"d.	c #D0E7FF",
"e.	c #798BBE",
"f.	c #F0F1F8",
"g.	c #BCECFB",
"h.	c #F1FFFF",
"i.	c #B6DFFF",
"j.	c #B9ECFF",
"k.	c #A8DAFF",
"l.	c #7D8AB7",
"m.	c #CCE5FF",
"n.	c #C7DCFF",
"o.	c #E4FFFF",
"p.	c #C4E6FF",
"q.	c #B5E7FF",
"r.	c #7F83B0",
"s.	c #CAE5FF",
"t.	c #7789BC",
"u.	c #B4DAF1",
"v.	c #CEF8FF",
"w.	c #D5F6FD",
"x.	c #CCFFFF",
"y.	c #B0E2FF",
"z.	c #7073A4",
"A.	c #CDE1F9",
"B.	c #C8E3FF",
"C.	c #9696C9",
"D.	c #B0DDFF",
"E.	c #CAFDFF",
"F.	c #D5FFFF",
"G.	c #D9FFFF",
"H.	c #CDFDFF",
"I.	c #B4C6E6",
"J.	c #CCCCFF",
"K.	c #7687BA",
"L.	c #A2D2FF",
"M.	c #D1FEFF",
"N.	c #DAFFFF",
"O.	c #DEFFFF",
"P.	c #C7E3FF",
"Q.	c #8AAEE1",
"R.	c #F6FAFF",
"S.	c #E7FFFF",
"T.	c #C3E1FF",
"U.	c #7584B7",
"V.	c #B1E0FB",
"W.	c #EBFFFF",
"X.	c #C8E4FF",
"Y.	c #C4E1FF",
"Z.	c #C2DAFF",
"`.	c #F4FFFF",
" +	c #F9FFFF",
".+	c #C1DFFF",
"++	c #BFDFFF",
"@+	c #EEF6FF",
"#+	c #E7EFFB",
"$+	c #BCDEFF",
"%+	c #BED8FF",
"&+	c #88A9DC",
"*+	c #8A99C9",
"=+	c #FAFFFF",
"-+	c #BBDDFF",
";+	c #B8BBBF",
">+	c #83809E",
",+	c #A0D0FA",
"'+	c #C2DCFA",
")+	c #B9DCFF",
"!+	c #FCCB79",
"~+	c #C4BEB9",
"{+	c #A39DA5",
"]+	c #818181",
"^+	c #8A8AAA",
"/+	c #9EC8F0",
"(+	c #B8DBFF",
"_+	c #BAD6FF",
":+	c #FFC45E",
"<+	c #FE9F3B",
"[+	c #DC9356",
"}+	c #91908F",
"|+	c #AEDDF9",
"1+	c #BEE4F1",
"2+	c #B5DAFF",
"3+	c #8DA5CE",
"4+	c #E8BD74",
"5+	c #FEA23D",
"6+	c #E3873B",
"7+	c #B06A50",
"8+	c #98706A",
"9+	c #D3E5FA",
"0+	c #C0D8F7",
"a+	c #B4D9FF",
"b+	c #FEA642",
"c+	c #A97068",
"d+	c #A47D85",
"e+	c #D8E8FC",
"f+	c #D4EAFF",
"g+	c #CDE6FF",
"h+	c #B2D8FF",
"i+	c #B7D5FF",
"j+	c #B16A4C",
"k+	c #A087A0",
"l+	c #B0D7FF",
"m+	c #BBDEFF",
"n+	c #AED7FF",
"o+	c #B4D3FF",
"p+	c #ACD5FF",
"q+	c #6C72A5",
"r+	c #C5E2FF",
"s+	c #ABD5FF",
"t+	c #B1D1FF",
"u+	c #A8D3FF",
"v+	c #CDA969",
"w+	c #B2AECA",
"x+	c #A5D2FF",
"y+	c #AED0FF",
"z+	c #737373",
"A+	c #9292BC",
"B+	c #CED2D9",
"C+	c #ABCFFF",
"D+	c #867686",
"E+	c #7D8390",
"F+	c #67699C",
"                                                                                                ",
"                                                                                                ",
"                  . + @ # # $ $ % % & & * * * = = = = = = = = = = = -                           ",
"                  ; > > , , , ' ) ) ! ~ ! { { { ] ] ^ ^ / / ( ( ( ( _ :                         ",
"                  ; < > > > > > > [ > > > > > > > > < } | | 1 2 3 3 4 5 6                       ",
"                  . , > > > > > > > > > > > > > > < } 7 | 1 2 3 3 3 8 5 # 6                     ",
"                  . , > > > > > > > > > > > > > < } 7 | 1 2 3 3 9 9 0 a # b 6                   ",
"                  + , > > > > > > > > > > > > > < } 7 | 1 2 3 3 9 9 c d e b f g                 ",
"                  + , > > > > > > > > > > > > < } 7 | 1 2 3 3 9 h h i j k f f f l               ",
"                  m , > > > > > > > > > > > < } 7 | 1 2 3 3 9 h n n o ; f p p p p l             ",
"                  m ' > > > > > > > > > > < } 7 | 1 2 3 3 9 h n n n q f r r r s s s l           ",
"                  m ' > > > > > > > > > < } t u v v w 3 9 h n n x x y q o y y y y y y z         ",
"                  A ) > > > > > > > > u B C D E & F G H I n n x x x % % J K K L L L M z         ",
"                  A ) > > > > > > ' N O P Q R S T U V W X G Y x x Z Z `  . .....+.+.@.z         ",
"                  A ) > > > > > ' #.$.%.&.*.=.-.;.>.,.'.).!.~.{.Z Z ` ].^./.(._.:.+.@.z         ",
"                  A ) > > > > ' #.<.< > < [.&.}.|.|.1.-.a ).A ~.{.` ` 2.3.4.5.6.7...@.z         ",
"                  8.! > > > > I & 9.> > > 0.).T a.b.b.j c.;.j !.O ` ].3.4.5.d.6.7...e.z         ",
"                  8.! > > > f.G g.h.[ > } i.b.j.k.|.|.|.|.c.a b.l.<.2.4.5.d.6.m.n. .e.z         ",
"                  8.! > > < I P a o.S p.i.k.k.}.V q.j.j.j.q.a d $ r.3.5.d.6.m.s.n. .t.z         ",
"                  8.! < < } F u.-.v.w.).k.b.d 1.R x.x.x.x.x.a R y.z.A.d.6.m.s.B.n.:.t.z         ",
"                  8.{ } } 7 C.1.=.1.D.S j.c.c.E.=.F.G.G.G.F.=.H.}.l.I.d.6.m.s.B.n.J.K.z         ",
"                  8.{ 7 7 | C.d x.d L.b.y.q.E.M.G.N.O.O.O.N.G.=.E.l.I.6.m.s.B.P.n.J.K.z         ",
"                  Q.] | | R.C.V x.d a.k.V R =.G.N.o.S.S.o.o.N.=.x.O I.m.s.B.P.T.n.J.U.z         ",
"                  Q.] R.R.1 C.V.,.j.b.|.V E.F.G.o.W.h.h.h.S.o.F.M.O I.s.X.P.Y.T.Z.J.U.z         ",
"                  Q.] 1 1 w H W T a k.|.}.x.F.N.o.h.`. +h.W.o.F.S o s.X.P.Y.T..+Z.J.- z         ",
"                  Q.^ w w 3 I % k.=.q.|.j.x.F.N.o.h. +> < < S.N.<.E X.P.Y.T..+++Z.J.- z         ",
"                  Q.^ 3 3 @+#+C.@ U E.V V x.F.N.o.W.h. +> > < N.r.I.P.Y.T..+++$+%+J._ z         ",
"                  &+/ @+@+h n N *+. T E.j.a =.G.O.o.S.`.> > =+$.G P.Y.T..+++$+-+%+J._ z         ",
"                  &+/ ~ ~ ~ n ;+>+K ,+'.M.a x.F.G.O.O.O.h.`.I O '+T.T..+++$+-+)+%+J.4 z         ",
"                  : / ~ !+!+~+{+]+^+E /+j T v.F.F.N.N.G.w.$.E '+T.T..+++$+-+)+(+_+J.4 z         ",
"                  : / !+:+<+[+}+]+;+B ~.*+$ |+c.E.x.1+P E F '+Y.T..+++$+-+)+(+2+_+J.4 z         ",
"                  3+4+:+5+6+7+8+{+Z ` 9+<.G z.D G C.F P 0+P.Y.T..+++$+-+)+(+2+a+_+J.8 z         ",
"                  4+:+b+6+7+c+d+{+e+].].3.f+5.d.6.g+s.B.P.Y.T..+++$+-+)+(+2+a+h+i+J.8 z         ",
"                !+:+b+6+j+c+d+k+B ^.].3.f+5.d.6.g+s.X.P.Y.T..+++$+-+)+(+2+a+h+l+i+J.0 z         ",
"              !+:+b+6+j+c+d+k+H ^.].3.f+5.d.6.g+s.X.P.Y.T..+++$+m+)+(+2+a+h+l+n+o+J.0 z         ",
"            !+:+b+6+j+c+d+k+N ].].3.f+5.d.6.g+s.X.P.Y.T..+++$+m+)+(+2+a+h+l+n+p+o+J.q+z         ",
"          !+:+b+6+j+c+d+k+N ].].3.f+5.d.6.g+s.X.P.r+T..+++$+m+)+(+2+a+h+l+n+p+s+t+J.q+z         ",
"        !+:+b+6+j+c+d+k+N 3.].3.f+5.d.6.g+s.X.P.r+T..+++$+m+)+(+2+a+h+l+n+p+s+u+t+J.c z         ",
"        v+b+6+j+c+d+k+w+].].3.f+5.d.6.g+s.X.P.r+T..+++$+m+)+(+2+a+h+l+n+p+s+u+x+y+J.i z         ",
"        ]+j+j+c+d+k+B 3.3.3.f+5.d.6.g+s.X.P.r+T..+++$+m+)+(+2+a+h+l+n+p+s+u+x+x+y+J.i z         ",
"        }+z+8+d+k+A+B+3.3.f+5.d.6.g+s.X.P.r+T..+++$+m+)+(+2+a+h+l+n+p+s+u+x+x+L.C+J.o z         ",
"          }+z D+>+l B+/./././.(.(._._.n.n.n.7.Z.Z.%+%+%+_+_+_+i+i+o+o+t+t+y+y+C+y+:.q z         ",
"            ]+]+E+l J.J.J.J.J.J.J.J.J.J.J.J.J.J.J.J.J.J.J.J.J.J.J.J.J.J.J.J.J.J.:.:.F+z         ",
"                  l M M M @.@.@.e.t.t.K.K.U.U.- - _ _ 4 4 4 8 8 0 0 q+q+c i i o q F+F+z         ",
"                    z z z z z z z z z z z z z z z z z z z z z z z z z z z z z z z z z z         ",
"                                                                                                ",
"                                                                                                ",
"                                                                                                "};
