/* XPM */
static char * tfwsaveas_xpm[] = {
"16 16 107 2",
"  	c None",
". 	c #B2B2C5",
"+ 	c #5D514F",
"@ 	c #505036",
"# 	c #AAAA00",
"$ 	c #AAAABD",
"% 	c #C2BFBE",
"& 	c #514A4A",
"* 	c #00677E",
"= 	c #84747D",
"- 	c #595946",
"; 	c #FFFF00",
"> 	c #35351B",
", 	c #434647",
"' 	c #70828A",
") 	c #BFD4DF",
"! 	c #7BA9BF",
"~ 	c #214538",
"{ 	c #2E2E1B",
"] 	c #B8D0DB",
"^ 	c #B0C6D0",
"/ 	c #B5CEDF",
"( 	c #73724F",
"_ 	c #4D4834",
": 	c #C6C2C1",
"< 	c #000000",
"[ 	c #86929A",
"} 	c #ABC0CA",
"| 	c #B1C8D2",
"1 	c #565E69",
"2 	c #FFFFCF",
"3 	c #3B441F",
"4 	c #00071B",
"5 	c #C5C0BF",
"6 	c #001F28",
"7 	c #648D97",
"8 	c #B4C7D1",
"9 	c #AEC4CE",
"0 	c #909FA7",
"a 	c #5B6570",
"b 	c #8B95A4",
"c 	c #06262A",
"d 	c #7B7271",
"e 	c #2D2F30",
"f 	c #002C35",
"g 	c #C7D7E1",
"h 	c #B6CAD4",
"i 	c #CBDAE5",
"j 	c #6F9DA8",
"k 	c #317A85",
"l 	c #000003",
"m 	c #D4CFCF",
"n 	c #000A0E",
"o 	c #5E8992",
"p 	c #B2C6D0",
"q 	c #C4D4DE",
"r 	c #6E949E",
"s 	c #03434C",
"t 	c #004651",
"u 	c #045C6B",
"v 	c #006C81",
"w 	c #7F6C69",
"x 	c #2C3132",
"y 	c #D7E6F1",
"z 	c #6F949D",
"A 	c #073C44",
"B 	c #003039",
"C 	c #133D44",
"D 	c #215760",
"E 	c #075764",
"F 	c #076676",
"G 	c #000510",
"H 	c #001317",
"I 	c #082E34",
"J 	c #0E3137",
"K 	c #0F353B",
"L 	c #646E6F",
"M 	c #D1C8C6",
"N 	c #CABAB7",
"O 	c #004655",
"P 	c #006071",
"Q 	c #3C94A2",
"R 	c #584F4E",
"S 	c #2C3233",
"T 	c #153C43",
"U 	c #062E35",
"V 	c #DED3D1",
"W 	c #CBD1D3",
"X 	c #A8C5CA",
"Y 	c #DED7D5",
"Z 	c #5E8E95",
"` 	c #001F24",
" .	c #726563",
"..	c #001318",
"+.	c #103339",
"@.	c #868484",
"#.	c #A6C3C7",
"$.	c #241F1E",
"%.	c #2A2A2A",
"&.	c #696463",
"*.	c #252727",
"=.	c #005161",
"-.	c #0C6170",
";.	c #2F2423",
">.	c #6D6D6D",
",.	c #6D6463",
"'.	c #6A6361",
"                          .     ",
"                  +     @ # $   ",
"              % & * = - ; >     ",
"          % , ' ) ! ~ ; {       ",
"      % , ' ] ^ / ( ; _         ",
"  : < [ ] ^ } | 1 2 3 4         ",
"  5 6 7 8 } } 9 0 a b c d       ",
"    e f g } } } h i j k l       ",
"    m n o 8 p q r s t u v w     ",
"      x f y z A B C D E F G     ",
"      m H I J K L M N O P Q R   ",
"        S T U V W X Y Z `  .    ",
"        m ..+.@.#.$.%.&.        ",
"          *.=.-.;.>.            ",
"            ,.'.                ",
"                                "};
