/* XPM */
static char * ABOUTCHECK_xpm[] = {
"32 32 15 1",
" 	c None",
".	c #000000",
"+	c #FFFFFF",
"@	c #800080",
"#	c #0000FF",
"$	c #00FFFF",
"%	c #008080",
"&	c #00FF00",
"*	c #008000",
"=	c #FFFF00",
"-	c #808000",
";	c #FF0000",
">	c #800000",
",	c #C0C0C0",
"'	c #808080",
"          -----                 ",
"       ---===-.                 ",
"     --======-.                 ",
"    -=-======-....              ",
"    -==-=====-.'''.. .          ",
"   -====-====-.   ''>@..        ",
"   -=====-===-.    >@;>>..      ",
"  -=======-==-.    >@;>;>>..    ",
"  -========-=-.   >@;;>;;;>>..  ",
"  -=========--.   >@;;;>;;;;>>. ",
"  ------------.  >@;;;;>;;;;;;>.",
"  .............  >@;;;;>;;;;;>. ",
"     .'         >@;;;;;;>;;;>.  ",
"    .'          >@;;;;;;>;;>..  ",
"    .'  ***     ..>>;;;;>;>.'.  ",
"    .'**&&*.      ..>>>;>>. '.  ",
"    **&&&**.        ..>>..  '.  ",
"  **&&&&&*&.          ...   '.  ",
"**&&&&&&*&&*.               '.  ",
".&&&&&&&*&&*.           %   '.  ",
" .*&&&&*&&&*.          %#.  '.  ",
"  .*&&&*&&&&*.        %$#%.''.  ",
"   .*&*&&&&&*.       %$,#,%..   ",
"    .**&&&&&*.      %$,,#,,%.   ",
"     .*******.     %$,,,#,,,%.  ",
"     .........    %$,,,,#,,,,%. ",
"      .''        %$,,,,,#,,,,,#.",
"       ..'''     .%%,,,,#,,,###.",
"         ...''''''..%%,,#,,##.. ",
"            ..........%%###..   ",
"                      .....     ",
"                                "};
