/* XPM */
static char * BLANK_xpm[] = {
"16 16 5 1",
" 	c None",
".	c #000000",
"+	c #FFFFFF",
"@	c #C0C0C0",
"#	c #808080",
"                ",
" #############+ ",
" #...........@+ ",
" #.++++++++++@+ ",
" #.++++++++++@+ ",
" #.++++++++++@+ ",
" #.++++++++++@+ ",
" #.++++++++++@+ ",
" #.++++++++++@+ ",
" #.++++++++++@+ ",
" #.++++++++++@+ ",
" #.++++++++++@+ ",
" #.++++++++++@+ ",
" #@@@@@@@@@@@@+ ",
" ++++++++++++++ ",
"                "};
