/* XPM */
static char * CHECKOKG_xpm[] = {
"16 16 5 1",
" 	c None",
".	c #000000",
"+	c #FFFFFF",
"@	c #000080",
"#	c #00FF00",
"               @",
"             ##@",
"            ##@ ",
"           ##@  ",
"          ##@   ",
"         ###@   ",
"   #@    ##@    ",
"   ###@ ###@    ",
"    ######@     ",
"     #####@     ",
"      ###@      ",
"      ###@      ",
"       #@       ",
"                ",
"                ",
"                "};
