/* XPM */
static char * CHECKEIKSG_xpm[] = {
"16 16 5 1",
" 	c None",
".	c #000000",
"+	c #FFFFFF",
"@	c #008080",
"#	c #008000",
"                ",
"  ###        ## ",
"  ####      ##  ",
"  @####    ###  ",
"   @####  ###   ",
"    @#######    ",
"     @#####     ",
"      #####     ",
"     ###@##     ",
"    ###@@@##    ",
"   ###@@  @##   ",
"  ###@@    @##  ",
" ###@@      @## ",
" ##@@        @##",
" ##@          @#",
"                "};
