/* XPM */
static char * NAVMOVEPRIORL_xpm[] = {
"16 16 23 1",
" 	c None",
".	c #000000",
"+	c #FFFFFF",
"@	c #C06080",
"#	c #E0A0C0",
"$	c #FFFBF0",
"%	c #E08040",
"&	c #602000",
"*	c #E0A080",
"=	c #E04000",
"-	c #802000",
";	c #C06040",
">	c #A02000",
",	c #E06040",
"'	c #C02000",
")	c #E02000",
"!	c #800000",
"~	c #E04040",
"{	c #C04040",
"]	c #A04040",
"^	c #E08080",
"/	c #C08080",
"(	c #C0C0C0",
"     *^^%,,     ",
"   *$+++++$))   ",
"  *$+++++++#~   ",
" ^$++%)))=^++'' ",
" *++$===)))$+^' ",
")$+^===$^))'*+, ",
",$+=)),++))'{+#>",
"=$+)=#+++$'>>+(>",
"=$+=)+++++#>>+#!",
")*+,))'++>>!;+@!",
" ,+#)''+$>!!($- ",
" ),++'>>!!>++-! ",
" ))++(;!!@(+$!! ",
"   ''$+++$(-&   ",
"   ''>{//]!!!   ",
"      !!!!      "};
