/* XPM */
static char * NAVMOVENEXTL_xpm[] = {
"16 16 35 1",
" 	c None",
".	c #000000",
"+	c #FFFFFF",
"@	c #E0A0C0",
"#	c #608080",
"$	c #60A080",
"%	c #60C080",
"&	c #20A040",
"*	c #00A000",
"=	c #008000",
"-	c #006000",
";	c #004000",
">	c #40A040",
",	c #408040",
"'	c #80C080",
")	c #C0DCC0",
"!	c #20A000",
"~	c #208000",
"{	c #206000",
"]	c #60A040",
"^	c #608040",
"/	c #A0C080",
"(	c #FFFBF0",
"_	c #E08040",
":	c #E04000",
"<	c #C06040",
"[	c #A02000",
"}	c #E06040",
"|	c #C02000",
"1	c #E02000",
"2	c #FF0000",
"3	c #800000",
"4	c #C04040",
"5	c #E08080",
"6	c #C08080",
"     %55_>!     ",
"   )(+++++(!!   ",
"  %++++++++)>   ",
" )(++!:22!'++=~ ",
" (++'!:::*=++'= ",
">++>*||+(=3~)+$ ",
"&++**||++[3-/+/-",
"*++!!+++++@-,+)-",
"!++!!@+++(|;^+)-",
"*++!=:}++11;)+$;",
"*(+'=11(511#+({ ",
" !)++-[|[;#++-; ",
" ~!++)@<<)++(;; ",
"  ~~'+++++(-;   ",
"   =-]466#{;;   ",
"      333;      "};
