/* XPM */
static char *FBDataSet[]={
"24 24 8 1",
"b c #000000",
"f c #000080",
"e c #008080",
"# c #808080",
". c #c0c0c0",
"c c #ff0000",
"d c #ffff00",
"a c #ffffff",
"........................",
"..#####################.",
"..#aa#aaaaaaaaaaaaaaaab.",
"..#a.#................b.",
"..####################b.",
"..#a.#aaaaaa#aaaaaaaaab.",
"..#a.#aaaaaa#aacccccaab.",
"..#a.#acccca#acccccccab.",
"..#a.#aaaaaa#accaaaccab.",
"..#a.#acccca#aaaaacccab.",
"..#a.#aaaaaa#aaaacccaab.",
"..#a.#acccca#aaacccaaab.",
"..#a.#aaaaaa#aaaccaaaab.",
"..#a.#aaaaaa#aaaccaaaab.",
"..#bbbbbbbbbbbbaaaabbbb.",
"...............acca.....",
"...............acca.....",
"ddddedddeeeeeeeaaaaeeeee",
"deededeedeeddeeeddeeedee",
"deeeedeededeededeedeedee",
"dddeedddeeedeeedeedeedee",
"dffffdffdfffdffdffdffdff",
"dffffdffdfdffdfdfddffdff",
"dffffddddffddfffdddffddd"};
