/* XPM */
static char *TFBDataSet[]={
"18 18 9 1",
"d c None",
"a c #000000",
"e c #004040",
". c #808080",
"b c #c0c0c0",
"f c #d2626c",
"c c #ff0000",
"g c #ffff00",
"# c #ffffff",
"..................",
".################a",
".bbbbbbbbbbbbbbbba",
".................a",
".######.#########a",
".######.##ccccc##a",
".#cccc#.#ccccccc#a",
".######.#cc###cc#a",
".#cccc#.#####ccc#a",
".######.####ccc##a",
".#cccc#.###ccc###a",
".######.###cc####a",
".######.###cc####a",
".aaaaaaaaa####aaaa",
"dbbbbbbbbb#cc#bbbb",
"dbbbbbbbbb#cc#bbbb",
"deeeeeeeee####eeee",
"fggggggggggggggggg"};
