/* XPM */
static char * EXTNAVREFRESHT_xpm[] = {
"100 20 906 2",
"  	c None",
". 	c #2A67A6",
"+ 	c #2A629B",
"@ 	c #285D92",
"# 	c #254E78",
"$ 	c #254A71",
"% 	c #23476A",
"& 	c #0C70EC",
"* 	c #1167D4",
"= 	c #115FC2",
"- 	c #2866A6",
"; 	c #27609B",
"> 	c #265B91",
", 	c #2D70B4",
"' 	c #2C69A8",
") 	c #2A649F",
"! 	c #2565A6",
"~ 	c #164F89",
"{ 	c #0D4F92",
"] 	c #09539F",
"^ 	c #0859AA",
"/ 	c #0859AC",
"( 	c #0953A0",
"_ 	c #214B77",
": 	c #183E64",
"< 	c #123E6A",
"[ 	c #0F4275",
"} 	c #0E447B",
"| 	c #046BE9",
"1 	c #0443B1",
"2 	c #0043BE",
"3 	c #0051CD",
"4 	c #0058C2",
"5 	c #2263A6",
"6 	c #154E89",
"7 	c #0B4D90",
"8 	c #06529F",
"9 	c #0558AC",
"0 	c #276DB4",
"a 	c #185594",
"b 	c #0E549C",
"c 	c #095CB0",
"d 	c #0760BA",
"e 	c #185796",
"f 	c #064E98",
"g 	c #0867C7",
"h 	c #1279DF",
"i 	c #3181CB",
"j 	c #3C82C0",
"k 	c #2E83D0",
"l 	c #19436C",
"m 	c #0E3D6D",
"n 	c #0F4E8E",
"o 	c #165B9F",
"p 	c #26619B",
"q 	c #296098",
"r 	c #286199",
"s 	c #23619E",
"t 	c #0352CC",
"u 	c #0043BB",
"v 	c #0074F6",
"w 	c #098FFC",
"x 	c #2E98E6",
"y 	c #3C98D5",
"z 	c #3A97D6",
"A 	c #2796E9",
"B 	c #175696",
"C 	c #054E99",
"D 	c #0667CA",
"E 	c #0E78E4",
"F 	c #3284CE",
"G 	c #3F86C0",
"H 	c #4086C2",
"I 	c #2C84D3",
"J 	c #195DA2",
"K 	c #0655A5",
"L 	c #086FD8",
"M 	c #1081F2",
"N 	c #3087D7",
"O 	c #3D86C6",
"P 	c #3C87C9",
"Q 	c #2D89DE",
"R 	c #13508E",
"S 	c #085AAC",
"T 	c #0A71DB",
"U 	c #3986CC",
"V 	c #719DBB",
"W 	c #CBD7DA",
"X 	c #E0DDD4",
"Y 	c #DED9C8",
"Z 	c #C6C8B1",
"` 	c #7F9EA8",
" .	c #2F88D5",
"..	c #2B6AA5",
"+.	c #878B78",
"@.	c #163E67",
"#.	c #0F559B",
"$.	c #2C66A0",
"%.	c #4F799E",
"&.	c #9CAAB6",
"*.	c #A7AEB6",
"=.	c #A2ABB3",
"-.	c #8D9CAA",
";.	c #547798",
">.	c #27639E",
",.	c #214F7F",
"'.	c #4F667D",
").	c #0046BB",
"!.	c #0059D1",
"~.	c #0085FE",
"{.	c #2F9DEE",
"].	c #78B0C2",
"^.	c #CFE0E2",
"/.	c #E6E4D4",
"(.	c #E4E4D3",
"_.	c #CCE0C6",
":.	c #82B1B6",
"<.	c #2E9DEF",
"[.	c #256DC5",
"}.	c #8B9188",
"|.	c #104E8D",
"1.	c #0659AE",
"2.	c #0671DE",
"3.	c #378CD2",
"4.	c #79A7B9",
"5.	c #CFDCDC",
"6.	c #E5E2D2",
"7.	c #E6E2D0",
"8.	c #CDDCC2",
"9.	c #84A8AE",
"0.	c #2E88D7",
"a.	c #2B6BA6",
"b.	c #939176",
"c.	c #15579A",
"d.	c #0861BC",
"e.	c #097AEE",
"f.	c #378FDA",
"g.	c #719CB5",
"h.	c #BBC7C9",
"i.	c #CFCABB",
"j.	c #CECBBA",
"k.	c #BAC8AF",
"l.	c #7A9AA5",
"m.	c #2F8CDE",
"n.	c #2A6EAE",
"o.	c #88846D",
"p.	c #175492",
"q.	c #0960B7",
"r.	c #0A75E1",
"s.	c #558CB8",
"t.	c #B0C7D3",
"u.	c #FDF9EF",
"v.	c #FBF3E0",
"w.	c #FBF2DE",
"x.	c #FCF3DF",
"y.	c #FCF3E1",
"z.	c #FCF5E5",
"A.	c #BFC3AF",
"B.	c #5C8EB4",
"C.	c #A9B6AC",
"D.	c #979889",
"E.	c #19416A",
"F.	c #0F4983",
"G.	c #0F579F",
"H.	c #376696",
"I.	c #849EB2",
"J.	c #C7C7C7",
"K.	c #C2C2C2",
"L.	c #C1C1C1",
"M.	c #C3C3C3",
"N.	c #C4C4C4",
"O.	c #8598A7",
"P.	c #3D6A97",
"Q.	c #738B9E",
"R.	c #5E7387",
"S.	c #004DC0",
"T.	c #0066E0",
"U.	c #008CFF",
"V.	c #58A0C7",
"W.	c #B2D3E0",
"X.	c #FFFFFD",
"Y.	c #FFFFFE",
"Z.	c #FFFFFF",
"`.	c #C9D0C0",
" +	c #5FA3C5",
".+	c #B1CAB8",
"++	c #A3A393",
"@+	c #135190",
"#+	c #065EB7",
"$+	c #0674E4",
"%+	c #5A8DB6",
"&+	c #B2CEDD",
"*+	c #C8CFB8",
"=+	c #6296B4",
"-+	c #B3C3AE",
";+	c #A4A184",
">+	c #185A9D",
",+	c #097EF5",
"'+	c #538DBB",
")+	c #A1BECF",
"!+	c #E4E4E0",
"~+	c #E4E4E2",
"{+	c #E4E4E3",
"]+	c #E4E4E4",
"^+	c #B6B9A7",
"/+	c #5B90B4",
"(+	c #A4B0A0",
"_+	c #979379",
":+	c #2463A3",
"<+	c #095098",
"[+	c #0A72DC",
"}+	c #4685BB",
"|+	c #8DB6DA",
"1+	c #EEEEE5",
"2+	c #FCF2DE",
"3+	c #FCF3E0",
"4+	c #F3EFE2",
"5+	c #D9D1B4",
"6+	c #F1F0E9",
"7+	c #A8ACA3",
"8+	c #214B76",
"9+	c #0F3E6D",
"0+	c #0F559C",
"a+	c #306396",
"b+	c #6C8BAA",
"c+	c #B9BDC1",
"d+	c #BDBFC1",
"e+	c #9CA4AB",
"f+	c #BABFC2",
"g+	c #6F8499",
"h+	c #0768E9",
"i+	c #0086FC",
"j+	c #4797CA",
"k+	c #8DC2DF",
"l+	c #F0F8F8",
"m+	c #F6FBFB",
"n+	c #E3E7C4",
"o+	c #F2F5EC",
"p+	c #B2B7A6",
"q+	c #2362A3",
"r+	c #075099",
"s+	c #0672DF",
"t+	c #4A89BA",
"u+	c #90B8DA",
"v+	c #F1F6F7",
"w+	c #F6FAFB",
"x+	c #E3E5C2",
"y+	c #F2F4EB",
"z+	c #B4B29C",
"A+	c #266BB2",
"B+	c #0856A5",
"C+	c #097BEF",
"D+	c #4887BD",
"E+	c #81AED4",
"F+	c #D7DEDE",
"G+	c #E4E4E1",
"H+	c #DDE0E0",
"I+	c #CCCEAA",
"J+	c #DBDBD1",
"K+	c #A2A491",
"L+	c #0755A5",
"M+	c #144F8B",
"N+	c #096ACD",
"O+	c #277ED1",
"P+	c #A0BAC8",
"Q+	c #FCF5E7",
"R+	c #FAEFD6",
"S+	c #FBF1DC",
"T+	c #F2E4C8",
"U+	c #DED5BB",
"V+	c #DED5BC",
"W+	c #F3E6CB",
"X+	c #FEFEFC",
"Y+	c #A8AFA8",
"Z+	c #163E65",
"`+	c #0E5090",
" @	c #205F9D",
".@	c #7795AD",
"+@	c #BEBEBE",
"@@	c #C0C0C0",
"#@	c #B4B5B7",
"$@	c #A1A8AE",
"%@	c #A0A7AE",
"&@	c #B5B7B9",
"*@	c #CBCBCB",
"=@	c #6F869D",
"-@	c #0444B3",
";@	c #0079FB",
">@	c #2296EC",
",@	c #A3CBD9",
"'@	c #FFFFF8",
")@	c #FFFFF5",
"!@	c #FFFFFC",
"~@	c #F9F4DD",
"{@	c #E7E6CE",
"]@	c #F9F7E2",
"^@	c #B2BCA9",
"/@	c #124E8B",
"(@	c #066ACE",
"_@	c #2781D4",
":@	c #A3C6D4",
"<@	c #F9F3DC",
"[@	c #E7E3CB",
"}@	c #F9F6E1",
"|@	c #B4B5A1",
"1@	c #155697",
"2@	c #0872DE",
"3@	c #2485E1",
"4@	c #91B4C9",
"5@	c #E4E4DC",
"6@	c #E4E4DA",
"7@	c #DFD9C2",
"8@	c #CFCBB1",
"9@	c #DFDCC7",
"0@	c #A2A696",
"a@	c #2B6AAA",
"b@	c #0C5197",
"c@	c #0A74E0",
"d@	c #4F91C9",
"e@	c #D7E1E3",
"f@	c #FAEBCD",
"g@	c #F9EACA",
"h@	c #F5DDB2",
"i@	c #A2A796",
"j@	c #4988BE",
"k@	c #A7AC99",
"l@	c #F6DFB4",
"m@	c #FEFCF6",
"n@	c #26507A",
"o@	c #113F6C",
"p@	c #0F569E",
"q@	c #3F70A0",
"r@	c #A7B4BD",
"s@	c #B9B9B9",
"t@	c #BCBCBC",
"u@	c #B0B0B0",
"v@	c #677E94",
"w@	c #336698",
"x@	c #316498",
"y@	c #6D8296",
"z@	c #B1B1B1",
"A@	c #CACACA",
"B@	c #0D76F0",
"C@	c #0047C3",
"D@	c #018BFF",
"E@	c #4CA2DE",
"F@	c #D9E8EB",
"G@	c #FFFFE7",
"H@	c #FFFFE9",
"I@	c #FFF0C8",
"J@	c #AEBDA0",
"K@	c #4A9ED1",
"L@	c #B4C2A2",
"M@	c #FFF3C5",
"N@	c #008AFF",
"O@	c #0047BD",
"P@	c #2869AB",
"Q@	c #0A4F96",
"R@	c #0674E3",
"S@	c #4F95CD",
"T@	c #D9E6E9",
"U@	c #B2B597",
"V@	c #4E8CBD",
"W@	c #B4BA99",
"X@	c #0B5095",
"Y@	c #2A69AA",
"Z@	c #2E72B7",
"`@	c #0C57A3",
" #	c #097DF4",
".#	c #4B99D6",
"+#	c #C3D0D4",
"@#	c #E4E4CC",
"##	c #E4E4D0",
"$#	c #E4D8AE",
"%#	c #A2A889",
"&#	c #488BC2",
"*#	c #A2AA8E",
"=#	c #E4D8A9",
"-#	c #286098",
";#	c #095BAD",
">#	c #9DA9A9",
",#	c #F5DDAC",
"'#	c #F2DBAD",
")#	c #A0A28C",
"!#	c #1779D9",
"~#	c #1A79D6",
"{#	c #889690",
"]#	c #EBBB6E",
"^#	c #EFC781",
"/#	c #F5DBAA",
"(#	c #FDF6EA",
"_#	c #A6A9A0",
":#	c #095AAD",
"<#	c #285F97",
"[#	c #23496F",
"}#	c #0E447A",
"|#	c #68819A",
"1#	c #AEAEAE",
"2#	c #ABABAC",
"3#	c #607890",
"4#	c #15599E",
"5#	c #175A9C",
"6#	c #506F8C",
"7#	c #91918D",
"8#	c #9A9A9A",
"9#	c #ACACAC",
"0#	c #6B8095",
"a#	c #0E457C",
"b#	c #1063D0",
"c#	c #0055DA",
"d#	c #A6B7AF",
"e#	c #FFFEF0",
"f#	c #FFFEBE",
"g#	c #FCF8BF",
"h#	c #AEB38F",
"i#	c #108FF5",
"j#	c #1390F1",
"k#	c #94AA98",
"l#	c #FFD268",
"m#	c #FFE283",
"n#	c #FFF4BA",
"o#	c #FFFFF6",
"p#	c #B3B5A1",
"q#	c #265E99",
"r#	c #075AAE",
"s#	c #A6AFA7",
"t#	c #FFFEEF",
"u#	c #B0AD87",
"v#	c #1478DB",
"w#	c #1879D8",
"x#	c #949E8C",
"y#	c #B3AD98",
"z#	c #0659AD",
"A#	c #255E98",
"B#	c #2A67A4",
"C#	c #0861BB",
"D#	c #9A9D98",
"E#	c #E4E4D6",
"F#	c #E4E2A0",
"G#	c #E2DDA4",
"H#	c #9E9B7A",
"I#	c #157FEA",
"J#	c #1A80E6",
"K#	c #889385",
"L#	c #E4BB53",
"M#	c #E4C769",
"N#	c #E4D9A1",
"O#	c #A49C88",
"P#	c #265A8E",
"Q#	c #095FB7",
"R#	c #A7ABA4",
"S#	c #F7E2BC",
"T#	c #F2D398",
"U#	c #E6C88F",
"V#	c #5482A6",
"W#	c #0B76E1",
"X#	c #758994",
"Y#	c #C8AB73",
"Z#	c #EDC277",
"`#	c #EEC67F",
" $	c #EFC984",
".$	c #F7E4BE",
"+$	c #A5A296",
"@$	c #224669",
"#$	c #0E4883",
"$$	c #6D839A",
"%$	c #B2B2B2",
"&$	c #A6A6A6",
"*$	c #999DA0",
"=$	c #306090",
"-$	c #10579F",
";$	c #45688B",
">$	c #79838D",
",$	c #979797",
"'$	c #989898",
")$	c #9D9D9D",
"!$	c #B4B4B4",
"~$	c #62788E",
"{$	c #0E4983",
"]$	c #1059BB",
"^$	c #0062D2",
"/$	c #B2BAA8",
"($	c #FFF7C4",
"_$	c #FFF4A4",
":$	c #F4E396",
"<$	c #5993B4",
"[$	c #018DFF",
"}$	c #819996",
"|$	c #DCC072",
"1$	c #FFDB77",
"2$	c #FFE181",
"3$	c #FFE486",
"4$	c #FFF7CA",
"5$	c #B2B09B",
"6$	c #24588E",
"7$	c #055EB7",
"8$	c #0673E3",
"9$	c #B3B4A1",
"0$	c #F4E395",
"a$	c #5C85A4",
"b$	c #0775E4",
"c$	c #81918A",
"d$	c #DCBE6F",
"e$	c #FFF8CA",
"f$	c #ADA792",
"g$	c #28609A",
"h$	c #0766C7",
"i$	c #A3A190",
"j$	c #E4DCAB",
"k$	c #E4D786",
"l$	c #DBCA7E",
"m$	c #5881A4",
"n$	c #0A7EF4",
"o$	c #7A8988",
"p$	c #C6A556",
"q$	c #E4C360",
"r$	c #E4C564",
"s$	c #E4CB6F",
"t$	c #E4DCB1",
"u$	c #A59785",
"v$	c #A4A69C",
"w$	c #F4D9A9",
"x$	c #DEAF65",
"y$	c #4E7CA4",
"z$	c #2C83D3",
"A$	c #5C82A5",
"B$	c #5782A6",
"C$	c #597F9E",
"D$	c #5280AD",
"E$	c #647A91",
"F$	c #A9A9A9",
"G$	c #838789",
"H$	c #2A5C8D",
"I$	c #2060A0",
"J$	c #33608C",
"K$	c #335F8B",
"L$	c #2E5F8E",
"M$	c #0E4882",
"N$	c #224567",
"O$	c #B0B09C",
"P$	c #FFEAAC",
"Q$	c #FFDF7E",
"R$	c #F4C45E",
"S$	c #528EB2",
"T$	c #2595EB",
"U$	c #6395AE",
"V$	c #5E93B0",
"W$	c #5794B8",
"X$	c #B0A893",
"Y$	c #F4C25D",
"Z$	c #567EA1",
"`$	c #2A82D5",
" %	c #658A9D",
".%	c #61879F",
"+%	c #62849C",
"@%	c #63849B",
"#%	c #5A87A5",
"$%	c #0774E4",
"%%	c #A29988",
"&%	c #E4CD8D",
"*%	c #DBA843",
"=%	c #537BA4",
"-%	c #2C88DF",
";%	c #5E829D",
">%	c #5980A0",
",%	c #597F9F",
"'%	c #5482A8",
")%	c #99958E",
"!%	c #F4DAA7",
"~%	c #EAB96A",
"{%	c #DEAB5D",
"]%	c #78868B",
"^%	c #1377DB",
"/%	c #0F78E2",
"(%	c #0C76E1",
"_%	c #566E86",
":%	c #90908F",
"<%	c #818485",
"[%	c #3E6184",
"}%	c #13589D",
"|%	c #1259A0",
"1%	c #10589F",
"2%	c #23486D",
"3%	c #A49F8F",
"4%	c #FFF1B1",
"5%	c #FFD166",
"6%	c #F5BE53",
"7%	c #81938B",
"8%	c #0A8DF7",
"9%	c #068FFF",
"0%	c #028DFF",
"a%	c #A49C8C",
"b%	c #F6BD53",
"c%	c #85897F",
"d%	c #1076DC",
"e%	c #0B77E4",
"f%	c #0875E4",
"g%	c #9A8F85",
"h%	c #E4D596",
"i%	c #E4B84D",
"j%	c #DCA339",
"k%	c #7A807D",
"l%	c #127EEC",
"m%	c #0A7EF5",
"n%	c #0E80F4",
"o%	c #0B7EF4",
"p%	c #097EF4",
"q%	c #0A74DF",
"r%	c #688CA6",
"s%	c #EBD4AC",
"t%	c #E8B25F",
"u%	c #E8B05D",
"v%	c #D0A868",
"w%	c #6E8593",
"x%	c #2E79C2",
"y%	c #2A7AC7",
"z%	c #498DC9",
"A%	c #C0D7E9",
"B%	c #69AAEA",
"C%	c #1279E1",
"D%	c #3E6790",
"E%	c #A2A4A7",
"F%	c #878887",
"G%	c #747B82",
"H%	c #3E6185",
"I%	c #1D5893",
"J%	c #1E5A97",
"K%	c #366A9E",
"L%	c #99ABBC",
"M%	c #5885B3",
"N%	c #155BA2",
"O%	c #008BFF",
"P%	c #709FAE",
"Q%	c #F4E6B4",
"R%	c #FFC859",
"S%	c #FFC655",
"T%	c #E2B85D",
"U%	c #76959E",
"V%	c #2C8CD5",
"W%	c #288EDB",
"X%	c #47A2E0",
"Y%	c #BBDFF8",
"Z%	c #64B9FD",
"`%	c #088FFE",
" &	c #018CFF",
".&	c #0673E2",
"+&	c #75919D",
"@&	c #E3B45B",
"#&	c #7A8B8E",
"$&	c #327ABF",
"%&	c #2E7AC3",
"&&	c #4B91CB",
"*&	c #C1DDF0",
"=&	c #68ABEF",
"-&	c #0F79E4",
";&	c #6A8A9C",
">&	c #DCCC9D",
",&	c #E4AE3F",
"'&	c #E4AB3A",
")&	c #CE9E49",
"!&	c #71818C",
"~&	c #307DCA",
"{&	c #2D7FCE",
"]&	c #4891D1",
"^&	c #AFCBDF",
"/&	c #5EA5EE",
"(&	c #1081F4",
"_&	c #0A7FF5",
":&	c #096ACC",
"<&	c #2F7AC3",
"[&	c #CAB38A",
"}&	c #F2D2A2",
"|&	c #E9B664",
"1&	c #ECBE72",
"2&	c #D4B782",
"3&	c #C6B084",
"4&	c #C6BC9E",
"5&	c #D2D5CD",
"6&	c #EDF4FC",
"7&	c #509DE9",
"8&	c #157BE1",
"9&	c #1C5893",
"0&	c #7F8790",
"a&	c #A1A3A0",
"b&	c #878885",
"c&	c #929292",
"d&	c #868C92",
"e&	c #7B8691",
"f&	c #84919E",
"g&	c #9DA9B5",
"h&	c #C8C8C8",
"i&	c #BEC3C9",
"j&	c #467AAD",
"k&	c #185DA3",
"l&	c #2C8DD7",
"m&	c #D8C18B",
"n&	c #FFDB98",
"o&	c #FFC95A",
"p&	c #FFD56D",
"q&	c #E4CF82",
"r&	c #D6C887",
"s&	c #D2D0A6",
"t&	c #D7E5E6",
"u&	c #ECF6FE",
"v&	c #4BAEFE",
"w&	c #0D92FD",
"x&	c #114D8A",
"y&	c #2F78C1",
"z&	c #D7BD88",
"A&	c #FFD36A",
"B&	c #E4CE80",
"C&	c #D8C583",
"D&	c #D4CCA2",
"E&	c #D7E1E2",
"F&	c #ECF4FD",
"G&	c #4F9CEB",
"H&	c #127CE6",
"I&	c #307DCC",
"J&	c #C5AA76",
"K&	c #E4C381",
"L&	c #E4B041",
"M&	c #E4B94F",
"N&	c #CEB56B",
"O&	c #C2B071",
"P&	c #BFB88E",
"Q&	c #C3CBCE",
"R&	c #D3DCE5",
"S&	c #489CEF",
"T&	c #1382F4",
"U&	c #0B73DC",
"V&	c #5077A1",
"W&	c #E8DCC7",
"X&	c #F1CF97",
"Y&	c #F0CA87",
"Z&	c #F4D9A4",
"`&	c #F9E9C6",
" *	c #FCF5E3",
".*	c #FFFEFD",
"+*	c #EEF5FC",
"@*	c #62A4E2",
"#*	c #177BDD",
"$*	c #10569C",
"%*	c #295989",
"&*	c #A6ABB0",
"**	c #A2A2A2",
"=*	c #949494",
"-*	c #9E9E9E",
";*	c #A8A8A8",
">*	c #B6B6B6",
",*	c #CCCCCC",
"'*	c #BFC3C8",
")*	c #4F7EAD",
"!*	c #135AA0",
"~*	c #0188FC",
"{*	c #4E85AF",
"]*	c #EEE4D5",
"^*	c #FFE1A1",
"/*	c #FFDA74",
"(*	c #FFE88E",
"_*	c #FFF8AC",
":*	c #FFFFE0",
"<*	c #ECF6FF",
"[*	c #5AB4F9",
"}*	c #0C91FD",
"|*	c #0087FC",
"1*	c #0872DF",
"2*	c #56779C",
"3*	c #EBE0D5",
"4*	c #FFE1A2",
"5*	c #EDF5FE",
"6*	c #60A5E8",
"7*	c #127AE2",
"8*	c #0A7CEF",
"9*	c #4E74A6",
"0*	c #D2C8BF",
"a*	c #E4C586",
"b*	c #E4BF59",
"c*	c #E4CC70",
"d*	c #E4DD92",
"e*	c #E4E4C8",
"f*	c #D4DDE5",
"g*	c #56A0E9",
"h*	c #1381F0",
"i*	c #1577DB",
"j*	c #808C96",
"k*	c #E4C89B",
"l*	c #F5DEB4",
"m*	c #F1CE8E",
"n*	c #FEFBF2",
"o*	c #FFFEFE",
"p*	c #80B5E1",
"q*	c #277ED4",
"r*	c #15589C",
"s*	c #45688A",
"t*	c #96999E",
"u*	c #A1A1A1",
"v*	c #B8B8B8",
"w*	c #C9C9C9",
"x*	c #668BAE",
"y*	c #205F9E",
"z*	c #0E8FF6",
"A*	c #86969D",
"B*	c #EED8A5",
"C*	c #FFF2BC",
"D*	c #FFEC95",
"E*	c #FFFAB4",
"F*	c #83C4F2",
"G*	c #2095F0",
"H*	c #1278DE",
"I*	c #858B92",
"J*	c #EFD7A3",
"K*	c #88BBE0",
"L*	c #2681D8",
"M*	c #1580EB",
"N*	c #7A8292",
"O*	c #D6BD8A",
"P*	c #E4D8A1",
"Q*	c #E4CF78",
"R*	c #E4DF9A",
"S*	c #E4E4CB",
"T*	c #77AEDA",
"U*	c #2585E2",
"V*	c #0D73DA",
"W*	c #4A7CA8",
"X*	c #9B937C",
"Y*	c #D3C1A4",
"Z*	c #DACAB8",
"`*	c #D6CDC0",
" =	c #C1C2B8",
".=	c #5489B4",
"+=	c #2A7ECF",
"@=	c #0A72DB",
"#=	c #11559B",
"$=	c #275684",
"%=	c #526981",
"&=	c #8E969F",
"*=	c #969EA6",
"==	c #979FA7",
"-=	c #8797A7",
";=	c #1F5E9C",
">=	c #0386FE",
",=	c #4D8AB3",
"'=	c #AAA279",
")=	c #DCCFB1",
"!=	c #DED2C5",
"~=	c #DDD4C8",
"{=	c #C8D1C3",
"]=	c #599EC4",
"^=	c #2792E6",
"/=	c #0972DD",
"(=	c #4F77A0",
"_=	c #AA9B72",
":=	c #DCCCAF",
"<=	c #E0CEC1",
"[=	c #DCD0C6",
"}=	c #C8CCBC",
"|=	c #598FB8",
"1=	c #297FD1",
"2=	c #0671DD",
"3=	c #0B7CED",
"4=	c #4E7AA9",
"5=	c #9A8B6A",
"6=	c #C7B59D",
"7=	c #C8B8B2",
"8=	c #C7BBB5",
"9=	c #B4BCB0",
"0=	c #548AB8",
"a=	c #2983DA",
"b=	c #0967C6",
"c=	c #2079D0",
"d=	c #3475B8",
"e=	c #3773B2",
"f=	c #3475B7",
"g=	c #2C78C3",
"h=	c #1378DC",
"i=	c #0866C6",
"j=	c #104E8E",
"k=	c #1B5B9B",
"l=	c #1D548D",
"m=	c #1D548C",
"n=	c #1A5794",
"o=	c #14599F",
"p=	c #0275F5",
"q=	c #1C90EB",
"r=	c #3287C9",
"s=	c #3485C5",
"t=	c #3387C8",
"u=	c #2A8BD7",
"v=	c #0C8EF8",
"w=	c #0868C8",
"x=	c #207AD2",
"y=	c #3774B4",
"z=	c #3A72AF",
"A=	c #2E77C0",
"B=	c #1078DE",
"C=	c #0667C9",
"D=	c #096FD7",
"E=	c #1E7FDF",
"F=	c #3575C0",
"G=	c #3674BD",
"H=	c #3576BF",
"I=	c #2C7DCE",
"J=	c #1280ED",
"K=	c #0954A0",
"L=	c #0E4173",
"M=	c #24496F",
"              . + @ @ + .                             # $ % % $ #                             & * = = * &                             - ; > > ; -                             , ' ) ) ' ,               ",
"          ! ~ { ] ^ / ( { ~ !                     _ : < [ } } [ < : _                     | 1 2 3 4 4 3 2 1 |                     5 6 7 8 9 9 8 7 6 5                     0 a b c d d c b a 0           ",
"        e f g h i j j k h g f e                 l m n o p q r s o n m l                 t u v w x y z A w v u t                 B C D E F G H I E D C B                 J K L M N O P Q M L K J         ",
"      R S T U V W X Y Z `  .T ..+.            @.} #.$.%.&.*.=.-.;.>.#.,.'.            ).!.~.{.].^./.(._.:.<.~.[.}.            |.1.2.3.4.5.6.7.8.9.0.2.a.b.            c.d.e.f.g.h.i.j.k.l.m.e.n.o.      ",
"    p.q.r.s.t.u.v.w.x.y.z.A.B.C.D.p.        E.F.G.H.I.J.K.L.K.M.N.O.P.Q.R.E.        S.T.U.V.W.X.X.Y.Z.Z.Z.`. +.+++S.        @+#+$+%+&+X.X.Y.Z.Z.Y.*+=+-+;+@+        >+g ,+'+)+!+~+{+]+]+]+^+/+(+_+>+    ",
"  :+<+[+}+|+1+2+w.x.3+w.3+4+5+6+7+<+:+    8+9+0+a+b+c+K.L.K.K.L.K.d+e+f+g+9+8+    h+).i+j+k+l+X.Z.Z.Z.Z.Z.m+n+o+p+).h+    q+r+s+t+u+v+X.Z.Z.Z.Z.Z.w+x+y+z+r+q+    A+B+C+D+E+F+G+]+]+]+]+]+H+I+J+K+L+A+  ",
"  M+N+O+P+Q+R+S+T+U+V+W+w.w.3+X+Y+N+M+    Z+`+ @.@N.+@@@#@$@%@&@L.L.K.*@=@`+Z+    -@;@>@,@'@)@!@~@{@{@]@Y.Y.Z.Z.^@;@-@    /@(@_@:@'@)@!@<@[@[@}@Y.Y.Z.Z.|@(@/@    1@2@3@4@5@6@!+7@8@8@9@~+{+]+]+0@2@1@  ",
"a@b@c@d@e@f@g@h@i@j@j@k@l@S+w.m@Y+c@b@a@n@o@p@q@r@s@t@u@v@w@x@y@z@L.K.A@=@p@o@n@B@C@D@E@F@G@H@I@J@K@K@L@M@!@Y.Z.^@N@O@B@P@Q@R@S@T@G@H@I@U@V@V@W@M@!@Y.Z.|@R@X@Y@Z@`@ #.#+#@###$#%#&#&#*#=#!+{+{+0@ #`@Z@",
"-#;#r.>#y.,#'#)#!#r.~#{#]#^#/#(#_#r.:#<#[#}#G.|#L.1#2#3#4#G.5#6#7#8#9#N.0#G.a#[#b#c#U.d#e#f#g#h#i#U.j#k#l#m#n#o#p#U.c#b#q#r#$+s#t#f#g#u#v#$+w#x#l#m#n#o#y#$+z#A#B#C#,+D#E#F#G#H#I#,+J#K#L#M#N#5@O#,+C#B#",
"P#Q#r.R#S#T#U#V#W#r.X#Y#Z#`# $.$+$r.Q#P#@$#$G.$$%$&$*$=$-$G.;$>$,$'$)$!$~$G.{$@$]$^$U./$($_$:$<$[$U.}$|$1$2$3$4$5$U.^$]$6$7$8$9$($_$0$a$b$$+c$d$1$2$3$e$f$$+7$6$g$h$,+i$j$k$l$m$n$,+o$p$q$r$s$t$u$,+h$g$",
"P#Q#r.v$w$`#x$y$r.z$A$B$B$B$B$C$D$r.Q#P#@$#$G.E$F$'$G$H$G.I$J$J$J$J$J$K$L$G.M$N$]$^$U.O$P$Q$R$S$U.T$U$V$V$V$V$V$W$U.^$]$6$7$$+X$P$Q$Y$Z$$+`$ %.%.%+%@%@%#%$%7$6$g$h$,+%%&%r$*%=%,+-%;%>%>%>%>%,%'%,+h$g$",
"-#;#r.)%!%~%{%]%^%r.r.r./%(%r.r.r.r.;#-#[#}#G._%9#:%<%[%}%G.G.G.|%1%G.G.G.G.}#2%b#c#U.3%4%5%6%7%8%U.U.U.9%0%U.U.U.U.c#b#q#r#$+a%4%5%b%c%d%$+$+$+e%f%$+$+$+$+z#A#B#C#,+g%h%i%j%k%l%,+,+m%n%o%p% #,+,+C#B#",
"a@X@q%r%s%t%u%v%w%x%y%z%A%B%C%W#W#c@X@a@n@o@p@D%E%F%F%G%H%I%J%K%L%M%N%1%1%p@o@n@B@C@O%P%Q%R%S%T%U%V%W%X%Y%Z%`%0% &O%C@B@Y@X@.&+&Q%R%S%@&#&$&%&&&*&=&-&b$$%R@X@Y@Z@`@ #;&>&,&'&)&!&~&{&]&^&/&(&_&m% #`@Z@",
"  M+:&<&[&}&|&1&2&3&4&5&m@6&7&8&W#N+M+    Z+`+9&0&a&b&c&d&e&f&g&h&i&j&k&-$`+Z+    -@;@l&m&n&o&p&q&r&s&t&Y.u&v&w& &;@-@    x&(@y&z&n&o&A&B&C&D&E&Y.F&G&H&$%(@x&    1@2@I&J&K&L&M&N&O&P&Q&]+R&S&T&m%2@1@  ",
"  :+<+U&V&W&X&1&Y&Z&`& *.*+*@*#*[+<+:+    8+9+$*%*&***=*-*;*>*M.,*'*)*!*0+9+8+    h+).~*{*]*^*/*(*_*:*!@Z.<*[*}*|*).h+    q+r+1*2*3*4*/*(*_*:*!@Z.5*6*7*s+r+q+    A+B+8*9*0*a*b*c*d*e*G+]+f*g*h*C+B+A+  ",
"    p.q.i*j*k*l*m*Z&g@n*o*p*q*r.q.p.        E.F.r*s*t*u@u*1#v*w*,*x*y*G.F.E.        S.T.z*A*B*C*D*E*G@Z.Y.F*G*U.T.S.        @+#+H*I*J*C*D*E*G@Z.Z.K*L*$+#+@+        >+g M*N*O*P*Q*R*S*]+]+T*U*,+g >+    ",
"      R S V*W*X*Y*Z*`* =.=+=@=S R             @.} #=$=%=&=*===-=H.;=#.} @.            ).!.>=,='=)=!=~={=]=^=~.!.).            |.1./=(=_=:=<=[=}=|=1=2=1.|.            c.d.3=4=5=6=7=8=9=0=a=e.d.c.      ",
"        e f b=c=d=e=f=g=h=i=f e                 l m j=k=l=m=m=n=o=n m l                 t u p=q=r=s=t=u=v=v u t                 B C w=x=y=z=y=A=B=C=C B                 J K D=E=F=G=H=I=J=L K J         ",
"          ! ~ { K=/ / ( { ~ !                     _ : < L=} } [ < : _                     | 1 2 3 4 4 3 2 1 |                     5 6 7 8 9 9 8 7 6 5                     0 a b c d d c b a 0           ",
"              . + @ @ + .                             # M=% % $ #                             & * = = * &                             - ; > > ; -                             , ' ) ) ' ,               "};
