/* XPM */
static char * EXTNAVSEARCHT_xpm[] = {
"100 20 767 2",
"  	c None",
". 	c #2A67A6",
"+ 	c #2A629B",
"@ 	c #285D92",
"# 	c #254E78",
"$ 	c #254A70",
"% 	c #24476B",
"& 	c #0C70EB",
"* 	c #1167D3",
"= 	c #125FC1",
"- 	c #2866A7",
"; 	c #27609B",
"> 	c #255B92",
", 	c #2C6FB4",
"' 	c #2C69A8",
") 	c #2B649E",
"! 	c #2564A5",
"~ 	c #164F89",
"{ 	c #0D4F92",
"] 	c #08539E",
"^ 	c #0859AA",
"/ 	c #345B92",
"( 	c #557AB0",
"_ 	c #6A84BB",
": 	c #4673B3",
"< 	c #214B77",
"[ 	c #173D64",
"} 	c #113D6B",
"| 	c #0E4275",
"1 	c #0E447B",
"2 	c #4D6379",
"3 	c #738190",
"4 	c #7B8998",
"5 	c #4C6A89",
"6 	c #046CE9",
"7 	c #0443B1",
"8 	c #0044C1",
"9 	c #0151CB",
"0 	c #0158C1",
"a 	c #1D45A1",
"b 	c #426FCF",
"c 	c #4E81DF",
"d 	c #237CEC",
"e 	c #2163A6",
"f 	c #154E89",
"g 	c #0B4D90",
"h 	c #06529F",
"i 	c #0558AC",
"j 	c #0A519E",
"k 	c #355BA6",
"l 	c #5A7CC7",
"m 	c #6179C6",
"n 	c #276DB4",
"o 	c #175594",
"p 	c #0D549D",
"q 	c #095CB0",
"r 	c #0860BA",
"s 	c #0D5BAC",
"t 	c #405D91",
"u 	c #5373AB",
"v 	c #596D9E",
"w 	c #195797",
"x 	c #064E97",
"y 	c #0767C8",
"z 	c #0A75E1",
"A 	c #2079D6",
"B 	c #95A7C0",
"C 	c #B0DFF1",
"D 	c #A6E5FE",
"E 	c #A5E2FC",
"F 	c #9DD1EC",
"G 	c #738FC3",
"H 	c #19436D",
"I 	c #0D3D6F",
"J 	c #0E4E8E",
"K 	c #0F579F",
"L 	c #2D669F",
"M 	c #B2B2B2",
"N 	c #DCDCDC",
"O 	c #DEDEDE",
"P 	c #D2D2D2",
"Q 	c #8B96A1",
"R 	c #0352CC",
"S 	c #0043BA",
"T 	c #0074F5",
"U 	c #008CFF",
"V 	c #008AFF",
"W 	c #1887EE",
"X 	c #8591C4",
"Y 	c #B7F0FA",
"Z 	c #AAFCFF",
"` 	c #A9FBFF",
" .	c #A3E7FC",
"..	c #5D8EDE",
"+.	c #165697",
"@.	c #054E98",
"#.	c #0667C9",
"$.	c #0674E4",
"%.	c #4374C4",
"&.	c #9FB7DE",
"*.	c #B5FEFF",
"=.	c #A8FBFF",
"-.	c #ABFCFF",
";.	c #91C1ED",
">.	c #195DA3",
",.	c #0655A5",
"'.	c #076FD8",
").	c #097EF5",
"!.	c #3D72BA",
"~.	c #879CB5",
"{.	c #90C8DE",
"].	c #85C1DE",
"^.	c #89C2DB",
"/.	c #7895BF",
"(.	c #14518E",
"_.	c #095AAC",
":.	c #0A71DA",
"<.	c #1D76DA",
"[.	c #96B0D8",
"}.	c #F6FBFB",
"|.	c #BCE3FA",
"1.	c #80BFF5",
"2.	c #7DBCF3",
"3.	c #93CEF9",
"4.	c #A7D9F4",
"5.	c #6A90BE",
"6.	c #153E67",
"7.	c #0F559B",
"8.	c #26629E",
"9.	c #AEB7C0",
"0.	c #FAFAFA",
"a.	c #E0E0E0",
"b.	c #C1C1C1",
"c.	c #C0C0C0",
"d.	c #CECECE",
"e.	c #D8D8D8",
"f.	c #83919F",
"g.	c #0046B9",
"h.	c #0058D1",
"i.	c #0085FD",
"j.	c #0E88F5",
"k.	c #97B1DF",
"l.	c #FFFFFF",
"m.	c #C5F4FF",
"n.	c #6DCEFF",
"o.	c #68CAFF",
"p.	c #8DE3FF",
"q.	c #ACEEF8",
"r.	c #4F8ED8",
"s.	c #104E8D",
"t.	c #0659AE",
"u.	c #0671DE",
"v.	c #2674D6",
"w.	c #E2E2EE",
"x.	c #F7FEFF",
"y.	c #9BE5FF",
"z.	c #65C9FF",
"A.	c #70D0FF",
"B.	c #A2F3FF",
"C.	c #A0D4EB",
"D.	c #145799",
"E.	c #0861BB",
"F.	c #087AEE",
"G.	c #2B74CC",
"H.	c #B4C0CE",
"I.	c #D0DBDF",
"J.	c #82B6DB",
"K.	c #609DD4",
"L.	c #69A6D7",
"M.	c #83BDDB",
"N.	c #81A9C8",
"O.	c #175492",
"P.	c #095FB6",
"Q.	c #7894C8",
"R.	c #BAEAF8",
"S.	c #C6E9FA",
"T.	c #92C7F4",
"U.	c #89C4F4",
"V.	c #A4D9F8",
"W.	c #B5EAF8",
"X.	c #C1F5FF",
"Y.	c #B5DAEA",
"Z.	c #4366A1",
"`.	c #19416A",
" +	c #0D4884",
".+	c #99A2AB",
"++	c #E4E4E4",
"@+	c #E7E7E7",
"#+	c #C9C9C9",
"$+	c #C6C6C6",
"%+	c #D7D7D7",
"&+	c #E3E3E3",
"*+	c #ECECEC",
"=+	c #DBDBDB",
"-+	c #53687E",
";+	c #004EBF",
">+	c #0066DF",
",+	c #6692D7",
"'+	c #C8FEFF",
")+	c #D4F7FF",
"!+	c #88DBFF",
"~+	c #77D8FF",
"{+	c #A7EEFF",
"]+	c #C2FFFF",
"^+	c #D5FFFF",
"/+	c #BEE3F2",
"(+	c #1A58BB",
"_+	c #135290",
":+	c #065EB8",
"<+	c #1D71DB",
"[+	c #8DC4E7",
"}+	c #DCFDFF",
"|+	c #C2EFFF",
"1+	c #72D6FF",
"2+	c #85DCFF",
"3+	c #B7F8FF",
"4+	c #C6FFFF",
"5+	c #DAFEFF",
"6+	c #809DC9",
"7+	c #195A9D",
"8+	c #0867C6",
"9+	c #1F77DF",
"0+	c #7C97BD",
"a+	c #AAD6E0",
"b+	c #98BED8",
"c+	c #66A2D6",
"d+	c #75AED7",
"e+	c #91C6DA",
"f+	c #9ACEDC",
"g+	c #A6D8DF",
"h+	c #6E84A6",
"i+	c #2463A4",
"j+	c #095097",
"k+	c #0A72DC",
"l+	c #3078D3",
"m+	c #91BBDF",
"n+	c #9BD6FA",
"o+	c #7BB9F2",
"p+	c #8DC5F6",
"q+	c #B4E8FC",
"r+	c #CBFBFF",
"s+	c #CAFFFF",
"t+	c #C6F3F7",
"u+	c #6E87B3",
"v+	c #316AAC",
"w+	c #0F3E6F",
"x+	c #0F559C",
"y+	c #3D6D9D",
"z+	c #BDC0C3",
"A+	c #D3D3D3",
"B+	c #BDBDBD",
"C+	c #C8C8C8",
"D+	c #F1F1F1",
"E+	c #F2F2F2",
"F+	c #91979E",
"G+	c #31577E",
"H+	c #0769E7",
"I+	c #0046BB",
"J+	c #0087FC",
"K+	c #217EEB",
"L+	c #8EC4F2",
"M+	c #98EDFF",
"N+	c #65C8FF",
"O+	c #82DBFF",
"P+	c #C1FAFF",
"Q+	c #E3FFFF",
"R+	c #E2FFFF",
"S+	c #DCF4F9",
"T+	c #6180C6",
"U+	c #1270EF",
"V+	c #2362A4",
"W+	c #074F99",
"X+	c #0671DF",
"Y+	c #4F7FDA",
"Z+	c #A5E6FA",
"`+	c #7AD8FF",
" @	c #6ACBFF",
".@	c #9AE9FF",
"+@	c #D2FEFF",
"@@	c #E4FFFF",
"#@	c #B6D5E8",
"$@	c #5C74C1",
"%@	c #266BB2",
"&@	c #0856A6",
"*@	c #097BF0",
"=@	c #4674BE",
"-@	c #84B4D3",
";@	c #639FD5",
">@	c #7EB4DA",
",@	c #A2D5DE",
"'@	c #AEDFE1",
")@	c #ACE1E1",
"!@	c #ADE1E1",
"~@	c #90AFC2",
"{@	c #5571A2",
"]@	c #144F8A",
"^@	c #096ACC",
"/@	c #4279CC",
"(@	c #A0CCE4",
"_@	c #83C2F4",
":@	c #7CB8F1",
"<@	c #B2E6FC",
"[@	c #CFFFFF",
"}@	c #D8FFFF",
"|@	c #DBFFFF",
"1@	c #D4FFFF",
"2@	c #CDF9FB",
"3@	c #90ACC5",
"4@	c #225589",
"5@	c #163E65",
"6@	c #0E5090",
"7@	c #54789C",
"8@	c #CACACA",
"9@	c #C4C4C4",
"0@	c #BCBCBC",
"a@	c #E2E2E2",
"b@	c #F4F4F4",
"c@	c #F6F6F6",
"d@	c #F7F7F7",
"e@	c #F5F5F5",
"f@	c #F0F0F0",
"g@	c #B6B6B6",
"h@	c #284868",
"i@	c #0444B2",
"j@	c #0078FB",
"k@	c #3278E1",
"l@	c #9DD8F8",
"m@	c #6FCEFF",
"n@	c #61C7FF",
"o@	c #BDF7FF",
"p@	c #E9FFFF",
"q@	c #F5FFFF",
"r@	c #F6FFFF",
"s@	c #F0FFFF",
"t@	c #E7FCFF",
"u@	c #84ACD8",
"v@	c #0F45A9",
"w@	c #124E8B",
"x@	c #066ACE",
"y@	c #6785D6",
"z@	c #A9F2FF",
"A@	c #4BB4FF",
"B@	c #7FDAFF",
"C@	c #D7FFFF",
"D@	c #ECFFFF",
"E@	c #D2F2FF",
"F@	c #5781BC",
"G@	c #155697",
"H@	c #0872DE",
"I@	c #5A74AE",
"J@	c #89BEDA",
"K@	c #5190D1",
"L@	c #6EA6D7",
"M@	c #A5D8E1",
"N@	c #B6E1E1",
"O@	c #BCE1E1",
"P@	c #B3E1E1",
"Q@	c #A2C8D5",
"R@	c #5874A5",
"S@	c #2C6AA9",
"T@	c #0C5197",
"U@	c #0A74E0",
"V@	c #4278CC",
"W@	c #9AC8E4",
"X@	c #88C6F7",
"Y@	c #92CAF7",
"Z@	c #C3F7FE",
"`@	c #E7FFFF",
" #	c #F1FFFF",
".#	c #E0FFFF",
"+#	c #CDF6F9",
"@#	c #8A9DC0",
"##	c #1A528F",
"$#	c #26507A",
"%#	c #113F6C",
"&#	c #0F569E",
"*#	c #C7C7C7",
"=#	c #CBCBCB",
"-#	c #EDEDED",
";#	c #F9F9F9",
">#	c #FBFBFB",
",#	c #F8F8F8",
"'#	c #EFEFEF",
")#	c #B0B0B0",
"!#	c #22476C",
"~#	c #0D76F0",
"{#	c #0047C3",
"]#	c #008BFF",
"^#	c #97D2F5",
"/#	c #73D5FF",
"(#	c #87DFFF",
"_#	c #D7FEFF",
":#	c #EAFFFF",
"<#	c #FDFFFF",
"[#	c #FAFFFF",
"}#	c #E7F9FC",
"|#	c #7F9DD4",
"1#	c #0C43BA",
"2#	c #2969AA",
"3#	c #0A4F95",
"4#	c #0674E3",
"5#	c #6582D5",
"6#	c #A6EFFE",
"7#	c #5AC3FF",
"8#	c #AAF1FF",
"9#	c #F3FFFF",
"0#	c #F4FFFF",
"a#	c #C8E8F5",
"b#	c #5573BC",
"c#	c #2E72B8",
"d#	c #0C57A3",
"e#	c #097DF4",
"f#	c #5672AD",
"g#	c #84BBD8",
"h#	c #5594D2",
"i#	c #88BBDC",
"j#	c #B9E1E1",
"k#	c #CEE1E1",
"l#	c #BBE1E1",
"m#	c #9ABBCB",
"n#	c #4F679E",
"o#	c #286098",
"p#	c #085BAD",
"q#	c #0975E1",
"r#	c #7D9CCF",
"s#	c #98D4F7",
"t#	c #A4D8FA",
"u#	c #C8FCFF",
"v#	c #F7FFFF",
"w#	c #CEEAF1",
"x#	c #3B79C2",
"y#	c #23496E",
"z#	c #A1AAB3",
"A#	c #D1D1D1",
"B#	c #FDFDFD",
"C#	c #FCFCFC",
"D#	c #E9E9E9",
"E#	c #53779B",
"F#	c #1063CF",
"G#	c #0055DA",
"H#	c #73A8E2",
"I#	c #93EBFF",
"J#	c #A7EDFF",
"K#	c #DEFFFF",
"L#	c #E1ECF4",
"M#	c #2A78D2",
"N#	c #265E98",
"O#	c #0759AD",
"P#	c #217ADF",
"Q#	c #97D2EE",
"R#	c #86E1FF",
"S#	c #C3F8FF",
"T#	c #A2B3D2",
"U#	c #0F57A5",
"V#	c #255E98",
"W#	c #2A67A4",
"X#	c #0861BA",
"Y#	c #227DE1",
"Z#	c #80A5C5",
"`#	c #72AED8",
" $	c #9ACAE0",
".$	c #DCE1E1",
"+$	c #D0E0E1",
"@$	c #8299B2",
"#$	c #125CAC",
"$$	c #265A8E",
"%$	c #095FB7",
"&$	c #798FBF",
"*$	c #9CCFEC",
"=$	c #AEE2FD",
"-$	c #CCFFFF",
";$	c #AFBDD7",
">$	c #1773D4",
",$	c #224568",
"'$	c #0E4883",
")$	c #97A0A9",
"!$	c #CFCFCF",
"~$	c #BCC2C8",
"{$	c #215D99",
"]$	c #1059BB",
"^$	c #0062D2",
"/$	c #698BCE",
"($	c #99DEF4",
"_$	c #B6F9FF",
":$	c #FCFFFF",
"<$	c #A8B9E0",
"[$	c #067CEA",
"}$	c #0063D2",
"|$	c #24588E",
"1$	c #055EB8",
"2$	c #2276DA",
"3$	c #789AD3",
"4$	c #AAFAFF",
"5$	c #C9FDFF",
"6$	c #F4F5FA",
"7$	c #5A84CD",
"8$	c #065BB4",
"9$	c #28609A",
"0$	c #0866C7",
"a$	c #227ADD",
"b$	c #717DA6",
"c$	c #88C5E0",
"d$	c #9DCFE1",
"e$	c #B2E1E1",
"f$	c #D5E1E1",
"g$	c #D6D7DA",
"h$	c #4F7CBA",
"i$	c #0A64C1",
"j$	c #477DB1",
"k$	c #5C89AF",
"l$	c #B9BFC8",
"m$	c #7984A8",
"n$	c #AED7E6",
"o$	c #C9F9FD",
"p$	c #CCF6FB",
"q$	c #9ABCE0",
"r$	c #406EBC",
"s$	c #396FA5",
"t$	c #4D7DAD",
"u$	c #C2C8CE",
"v$	c #9B9B9B",
"w$	c #F3F3F3",
"x$	c #B7C0C9",
"y$	c #577593",
"z$	c #408CBF",
"A$	c #559CB2",
"B$	c #C9CDD5",
"C$	c #5D6EA9",
"D$	c #B8D9E9",
"E$	c #E1FCFF",
"F$	c #E5FFFF",
"G$	c #E5FCFF",
"H$	c #9DC1EF",
"I$	c #2568C7",
"J$	c #1075DB",
"K$	c #598198",
"L$	c #81A6B7",
"M$	c #B2B1C3",
"N$	c #6A85BB",
"O$	c #C9EBF6",
"P$	c #E8FFFF",
"Q$	c #D7EDFA",
"R$	c #6D9CDE",
"S$	c #105CC4",
"T$	c #127DEB",
"U$	c #517EA9",
"V$	c #7297B8",
"W$	c #90909B",
"X$	c #67789B",
"Y$	c #9DC7D4",
"Z$	c #AEDEE1",
"`$	c #AEE1E1",
" %	c #B0E1E1",
".%	c #A3C8D4",
"+%	c #5F8CC1",
"@%	c #1968C8",
"#%	c #477CB0",
"$%	c #EA9B3C",
"%%	c #FEA23C",
"&%	c #BC7F4C",
"*%	c #3B6293",
"=%	c #4377B9",
"-%	c #8097BB",
";%	c #A3C0D9",
">%	c #9FB6D7",
",%	c #92A1CD",
"'%	c #247BDB",
")%	c #386EA4",
"!%	c #AFB5BB",
"~%	c #9E9E9E",
"{%	c #4A6785",
"]%	c #597795",
"^%	c #A8A8A8",
"/%	c #B3B3B3",
"(%	c #2E67A0",
"_%	c #408ABF",
":%	c #EA9E15",
"<%	c #FFA508",
"[%	c #BE6735",
"}%	c #164E8A",
"|%	c #2D6EC6",
"1%	c #7284C2",
"2%	c #A0B9E7",
"3%	c #A1B3E9",
"4%	c #8A98DB",
"5%	c #188AF6",
"6%	c #8D8068",
"7%	c #FFAA00",
"8%	c #F9931B",
"9%	c #794732",
"0%	c #115CBA",
"a%	c #4464B0",
"b%	c #8A9DD5",
"c%	c #A5BEEA",
"d%	c #9CAAE5",
"e%	c #6189DA",
"f%	c #0F75E3",
"g%	c #7E7975",
"h%	c #E18819",
"i%	c #D98020",
"j%	c #6B5335",
"k%	c #1A69C3",
"l%	c #4A689F",
"m%	c #7389AA",
"n%	c #88A1BD",
"o%	c #7D93BA",
"p%	c #527CB8",
"q%	c #117DEE",
"r%	c #0C5095",
"s%	c #3D7AB8",
"t%	c #FE9E2D",
"u%	c #FC9F36",
"v%	c #E4781A",
"w%	c #946541",
"x%	c #3574BE",
"y%	c #0873E0",
"z%	c #316AA3",
"A%	c #BFBFBF",
"B%	c #A0A0A0",
"C%	c #858585",
"D%	c #3F6C99",
"E%	c #358ACA",
"F%	c #FF9F00",
"G%	c #FFA100",
"H%	c #F05C00",
"I%	c #8D3B2B",
"J%	c #2577CB",
"K%	c #97835F",
"L%	c #FFA800",
"M%	c #FF8B00",
"N%	c #D04506",
"O%	c #734651",
"P%	c #877A6C",
"Q%	c #E18618",
"R%	c #DE750C",
"S%	c #A94B07",
"T%	c #664D4A",
"U%	c #097EF4",
"V%	c #097DF3",
"W%	c #3379C0",
"X%	c #E09740",
"Y%	c #FDA238",
"Z%	c #ED801E",
"`%	c #9E6330",
" &	c #6B78A4",
".&	c #1877DD",
"+&	c #2A66A2",
"@&	c #A6AFB8",
"#&	c #A7A7A7",
"$&	c #848585",
"%&	c #7E8A96",
"&&	c #21609F",
"*&	c #007AFB",
"=&	c #2A8BD4",
"-&	c #DF9820",
";&	c #FFA600",
">&	c #F76A00",
",&	c #9D3717",
"'&	c #5566A8",
")&	c #0C89FA",
"!&	c #6E7B85",
"~&	c #FF9500",
"{&	c #E04C00",
"]&	c #7C4446",
"^&	c #3C6EC8",
"/&	c #104D8C",
"(&	c #637991",
"_&	c #DF7B10",
":&	c #B74F01",
"<&	c #6C4B40",
"[&	c #3A6DBA",
"}&	c #E0953D",
"|&	c #FDA339",
"1&	c #E97B1B",
"2&	c #9E6432",
"3&	c #6A79A3",
"4&	c #1376DE",
"5&	c #A6ADB4",
"6&	c #C2C2C2",
"7&	c #A3A3A3",
"8&	c #858686",
"9&	c #1B5D9F",
"0&	c #DF921D",
"a&	c #F46200",
"b&	c #9C3917",
"c&	c #5268A4",
"d&	c #088AFB",
"e&	c #4478A6",
"f&	c #FFA500",
"g&	c #FF9100",
"h&	c #DE4D02",
"i&	c #77423C",
"j&	c #3870CD",
"k&	c #3F7AB5",
"l&	c #E18517",
"m&	c #E17911",
"n&	c #B75006",
"o&	c #694A40",
"p&	c #376FC1",
"q&	c #B98543",
"r&	c #F6861E",
"s&	c #A46325",
"t&	c #767591",
"u&	c #1D78DC",
"v&	c #999DA2",
"w&	c #ADADAD",
"x&	c #868D93",
"y&	c #27639F",
"z&	c #BA7315",
"A&	c #FF7600",
"B&	c #A6360C",
"C&	c #5F5E88",
"D&	c #1088F8",
"E&	c #0067DF",
"F&	c #355E7F",
"G&	c #E98701",
"H&	c #E85200",
"I&	c #873E28",
"J&	c #446CBE",
"K&	c #0A74E3",
"L&	c #336290",
"M&	c #D07411",
"N&	c #BE5301",
"O&	c #74472F",
"P&	c #4169AE",
"Q&	c #0D7DF1",
"R&	c #697781",
"S&	c #835426",
"T&	c #6E7697",
"U&	c #707D8B",
"V&	c #737271",
"W&	c #838C95",
"X&	c #526F8E",
"Y&	c #6C2101",
"Z&	c #566392",
"`&	c #0086FF",
" *	c #0059D1",
".*	c #0045B9",
"+*	c #275A8C",
"@*	c #5A4334",
"#*	c #703326",
"$*	c #446CBC",
"%*	c #265C92",
"&*	c #584839",
"**	c #643D28",
"=*	c #4269AB",
"-*	c #315984",
";*	c #1F5596",
">*	c #36516D",
",*	c #2B4E73",
"'*	c #0A4698",
")*	c #1545AF",
"!*	c #0045BC",
"~*	c #15477A",
"{*	c #173E6C",
"]*	c #0D67C7",
"^*	c #21568E",
"/*	c #194477",
"(*	c #0E6DD1",
"_*	c #0859AC",
":*	c #08539F",
"<*	c #0051CD",
"[*	c #0058C3",
"}*	c #046BE9",
"|*	c #144E89",
"1*	c #1167D4",
"2*	c #115FC3",
"              . + @ @ + .                             # $ % % $ #                             & * = = * &                             - ; > > ; -                             , ' ) ) ' ,               ",
"          ! ~ { ] ^ ^ / ( _ :                     < [ } | 1 1 2 3 4 5                     6 7 8 9 0 0 a b c d                     e f g h i i j k l m                     n o p q r r s t u v           ",
"        w x y z z A B C D E F G                 H I J K K L M N O N P Q                 R S T U V W X Y Z `  ...                +.@.#.$.$.$.%.&.*.=.-.;.                >.,.'.).).).!.~.{.].^./.        ",
"      (._.:.z z <.[.}.|.1.2.3.4.5.            6.1 7.K K 8.9.0.a.b.c.d.e.f.            g.h.i.U U j.k.l.m.n.o.p.q.r.            s.t.u.$.$.$.v.w.x.y.z.A.B.C.            D.E.F.).).).G.H.I.J.K.L.M.N.      ",
"    O.P.z z z z Q.R.S.T.U.V.W.X.Y.Z.        `. +K K K K .+++@+#+$+%+&+*+=+-+        ;+>+U U U U ,+'+)+!+~+{+]+^+/+(+        _+:+$.$.$.$.<+[+}+|+1+2+3+4+5+6+        7+8+).).).).9+0+a+b+c+d+e+f+g+h+    ",
"  i+j+k+z z z l+m+n+o+p+q+r+s+s+t+u+v+    < w+x+K K K y+z+A+B+C+&+D+E+E+*+F+G+    H+I+J+U U U K+L+M+N+O+P+Q+R+R+S+T+U+    V+W+X+$.$.$.$.Y+Z+`+ @.@+@@@R+Q+#@$@    %@&@*@).).).).=@-@L.;@>@,@'@)@!@~@{@  ",
"  ]@^@z z z z /@(@_@:@<@[@}@|@1@2@3@4@    5@6@K K K K 7@8@9@0@a@b@c@d@e@f@g@h@    i@j@U U U U k@l@m@n@o@p@q@r@s@t@u@v@    w@x@$.$.$.$.$.y@z@A@B@C@s@r@r@D@E@F@    G@H@).).).).).I@J@K@L@M@N@O@O@P@Q@R@  ",
"S@T@U@z z z z V@W@X@Y@Z@[@`@ #.#+#@###S@$#%#&#K K K K 7@*#*#=#-#b@;#>#,#'#)#!#$#~#{#]#U U U U k@^#/#(#_#:#<#l.[#}#|#1#~#2#3#4#$.$.$.$.$.5#6#7#8#R+9#l.l.0#a#b#2#c#d#e#).).).).).f#g#h#i#)@j#k#k#l#m#n#c#",
"o#p#z z z z z q#r#s#t#u#[@`@v#q@w#x#p#o#y#1 K K K K K K z#A#e.f@b@;#B#C#D#E#1 y#F#G#U U U U U U H#I#J#K#:#<#l.l.L#M#G#F#N#O#$.$.$.$.$.$.P#Q#R#S#R+9#l.l.<#T#U#V#W#X#).).).).).).Y#Z#`# $)@j#k#.$+$@$#$W#",
"$$%$z z z z z z &$*$=$u#-$}@R+l.;$>$%$$$,$'$K K K K K K )$!$O f@E+c@,#l.~${$'$,$]$^$U U U U U U /$($_$K#@@0#:$l.<$[$}$]$|$1$$.$.$.$.$.$.2$3$4$5$R+:#r@l.6$7$8$|$9$0$).).).).).).a$b$c$d$)@e$O@f$g$h$i$9$",
"$$%$z z z z j$k$l$m$n$o$-$-$p$q$r$q#%$$$,$'$K K K K s$t$u$v$%+'#E+w$'#x$y$K '$,$]$^$U U U U z$A$B$C$D$E$@@F$G$H$I$U ^$]$|$1$$.$.$.$.J$K$L$M$N$O$@@F$P$Q$R$S$1$|$9$0$).).).).T$U$V$W$X$Y$Z$`$ %.%+%@%0$9$",
"o#p#z z z #%$%%%&%*%=%-%;%>%,%'%z z p#o#y#1 K K K )%!%b.~%{%]%^%9@9@/%(%K K 1 y#F#G#U U U _%:%<%[%}%|%1%2%3%4%5%]#U G#F#N#O#$.$.$.$.6%7%8%9%0%a%b%c%d%e%f%$.O#N#W#X#).).).).g%h%i%j%k%l%m%n%o%p%q%).X#W#",
"S@r%U@z s%t%u%v%w%x%z z y%z z z z U@r%S@$#%#&#K z%B+A%B%C%D%K K K K K K K &#%#$#~#{#]#U E%F%G%H%I%J%U U U U U U U ]#{#~#2#3#4#$.$.K%L%M%N%O%$.$.$.$.$.$.$.4#3#2#c#d#e#).).P%Q%R%S%T%U%V%).).).).).e#d#c#",
"  ]@^@W%X%Y%Z%`% &.&z z z z z z z ^@]@    5@6@+&@&b.#&$&%&&&K K K K K K K 6@5@    i@*&=&-&;&>&,&'&)&U U U U U U U *&i@    w@x@$.!&L%~&{&]&^&$.$.$.$.$.$.$.x@/&    G@H@).(&Q%_&:&<&[&).).).).).).).H@G@  ",
"  i+j+}&|&1&2&3&4&z z z z z z z k+j+i+    < w+5&6&7&8&%&9&K K K K K K K x+w+<     H+I+0&L%a&b&c&d&U U U U U U U J+I+H+    V+W+e&f&g&h&i&j&$.$.$.$.$.$.$.X+W+V+    %@&@k&l&m&n&o&p&).).).).).).).*@&@%@  ",
"    O.q&r&s&t&u&z z z z z z z z P.O.        `.v&w&C%x&y&K K K K K K K K  +`.        ;+z&A&B&C&D&U U U U U U U U E&;+        _+F&G&H&I&J&K&$.$.$.$.$.$.$.:+_+        7+L&M&N&O&P&Q&).).).).).).).8+7+    ",
"      R&S&T&u&z z z z z z z :._.(.            U&V&W&y&K K K K K K K 7.1 6.            X&Y&Z&D&U U U U U U U `& *.*            +*@*#*$*$.$.$.$.$.$.$.u.t.s.            %*&***=*).).).).).).).F.E.D.      ",
"        -*;*y z z z z z z y x w                 >*,*J K K K K K K J I H                 '*)*T U U U U U U T !*R                 ~*{*]*$.$.$.$.$.$.#.@.+.                ^*/*(*).).).).).).'.,.>.        ",
"          ! ~ { ] ^ _*:*{ ~ !                     < [ } | 1 1 | } [ <                     6 7 8 <*[*0 9 8 7 }*                    e f g h i i h g |*e                     n o p q r r q p o n           ",
"              . + @ @ + .                             # $ % % $ #                             & 1*2*= * &                             - ; > > ; -                             , ' ) ) ' ,               "};
