/* XPM */
static char * EXTNAVFIRSTT_xpm[] = {
"100 20 206 2",
"  	c None",
". 	c #2A67A6",
"+ 	c #2A629B",
"@ 	c #285D92",
"# 	c #244E78",
"$ 	c #254A70",
"% 	c #23476A",
"& 	c #0C71EA",
"* 	c #1167D3",
"= 	c #115FC1",
"- 	c #2766A6",
"; 	c #27609B",
"> 	c #255B92",
", 	c #2C6FB4",
"' 	c #2C69A8",
") 	c #2A639E",
"! 	c #2565A6",
"~ 	c #174F89",
"{ 	c #0E4F92",
"] 	c #0A55A1",
"^ 	c #0859AB",
"/ 	c #214C78",
"( 	c #183E64",
"_ 	c #123D6A",
": 	c #0F4174",
"< 	c #0E447B",
"[ 	c #046DE9",
"} 	c #0444B1",
"| 	c #0043C3",
"1 	c #004FD0",
"2 	c #0058C1",
"3 	c #2263A6",
"4 	c #144E89",
"5 	c #0A4D91",
"6 	c #0653A1",
"7 	c #0457AC",
"8 	c #276DB4",
"9 	c #185594",
"0 	c #0D559E",
"a 	c #095BAF",
"b 	c #0760B9",
"c 	c #195796",
"d 	c #084F98",
"e 	c #0968C8",
"f 	c #0A75E1",
"g 	c #19436D",
"h 	c #0D3D6E",
"i 	c #0E4E8F",
"j 	c #0F579F",
"k 	c #0352C9",
"l 	c #0043BC",
"m 	c #0073F6",
"n 	c #008CFF",
"o 	c #165596",
"p 	c #044D98",
"q 	c #0567CB",
"r 	c #0674E4",
"s 	c #1A5EA2",
"t 	c #0755A4",
"u 	c #0870DA",
"v 	c #097EF5",
"w 	c #14508E",
"x 	c #095AAC",
"y 	c #0A71DA",
"z 	c #163E67",
"A 	c #0F457C",
"B 	c #0F549B",
"C 	c #0046BA",
"D 	c #0058D2",
"E 	c #0085FF",
"F 	c #104E8E",
"G 	c #0558AD",
"H 	c #0670DD",
"I 	c #145699",
"J 	c #0861BB",
"K 	c #097AEE",
"L 	c #185491",
"M 	c #1C69B6",
"N 	c #569ADC",
"O 	c #3A8CDE",
"P 	c #0960B7",
"Q 	c #18406A",
"R 	c #194F85",
"S 	c #3970A7",
"T 	c #2967A4",
"U 	c #0F4983",
"V 	c #014CC0",
"W 	c #0063E0",
"X 	c #35A4FE",
"Y 	c #145291",
"Z 	c #1A6ABA",
"` 	c #59A2ED",
" .	c #3A91E9",
"..	c #055EB8",
"+.	c #185A9D",
"@.	c #1C70C5",
"#.	c #57A2ED",
"$.	c #3A94F0",
"%.	c #0867C7",
"&.	c #2564A4",
"*.	c #095098",
"=.	c #438ED8",
"-.	c #EFE3D3",
";.	c #3087DF",
">.	c #D2D5D5",
",.	c #0A72DC",
"'.	c #214B77",
").	c #0E3E6E",
"!.	c #2E68A1",
"~.	c #8DA3B6",
"{.	c #2464A3",
"].	c #7D9AB3",
"^.	c #0F559C",
"/.	c #076BE6",
"(.	c #0046BC",
"_.	c #0087FC",
":.	c #9FD4FC",
"<.	c #6ABCFD",
"[.	c #2263A5",
"}.	c #054E98",
"|.	c #4494E5",
"1.	c #FEFEFE",
"2.	c #2F8BE8",
"3.	c #DFEDFB",
"4.	c #0671DF",
"5.	c #276CB2",
"6.	c #0856A5",
"7.	c #4396EA",
"8.	c #F2E9DE",
"9.	c #3090F1",
"0.	c #D5DCE1",
"a.	c #097BEF",
"b.	c #154F8B",
"c.	c #096ACC",
"d.	c #4390DE",
"e.	c #DCDAD4",
"f.	c #163E65",
"g.	c #0F5091",
"h.	c #2E6AA5",
"i.	c #829DB4",
"j.	c #0444B2",
"k.	c #0077F7",
"l.	c #75C1FD",
"m.	c #FFFFFA",
"n.	c #114D8B",
"o.	c #0569CE",
"p.	c #4496EB",
"q.	c #E9F3FC",
"r.	c #155596",
"s.	c #0872DE",
"t.	c #4399EF",
"u.	c #DFE0E0",
"v.	c #2C6AA9",
"w.	c #0D5196",
"x.	c #0A74E0",
"y.	c #1D7EE0",
"z.	c #C9D1D5",
"A.	c #26507A",
"B.	c #113F6D",
"C.	c #0F569E",
"D.	c #1A5DA1",
"E.	c #7896B2",
"F.	c #0D77EF",
"G.	c #0046C0",
"H.	c #008BFF",
"I.	c #55B2FD",
"J.	c #F4FAFA",
"K.	c #2969AA",
"L.	c #094F96",
"M.	c #0673E2",
"N.	c #1B7FE6",
"O.	c #D5E7FA",
"P.	c #2E72B8",
"Q.	c #0C56A2",
"R.	c #097DF4",
"S.	c #1C87F3",
"T.	c #CBD7E2",
"U.	c #286098",
"V.	c #095AAB",
"W.	c #2783DF",
"X.	c #23496F",
"Y.	c #0F457B",
"Z.	c #1F60A2",
"`.	c #1063CF",
" +	c #0058DE",
".+	c #255E98",
"++	c #0558AC",
"@+	c #2585E7",
"#+	c #2A67A5",
"$+	c #0861BA",
"%+	c #268BF2",
"&+	c #265A8E",
"*+	c #095FB7",
"=+	c #BFCCD6",
"-+	c #224568",
";+	c #0E4883",
">+	c #7393B1",
",+	c #1059BB",
"'+	c #0063D2",
")+	c #DFF1FB",
"!+	c #EAF5FA",
"~+	c #23588E",
"{+	c #CAE1F9",
"]+	c #28609A",
"^+	c #0866C6",
"/+	c #C1D3E3",
"              . + @ @ + .                             # $ % % $ #                             & * = = * &                             - ; > > ; -                             , ' ) ) ' ,               ",
"          ! ~ { ] ^ ^ ] { ~ !                     / ( _ : < < : _ ( /                     [ } | 1 2 2 1 | } [                     3 4 5 6 7 7 6 5 4 3                     8 9 0 a b b a 0 9 8           ",
"        c d e f f f f f f e d c                 g h i j j j j j j i h g                 k l m n n n n n n m l k                 o p q r r r r r r q p o                 s t u v v v v v v u t s         ",
"      w x y f f f f f f f f y x w             z A B j j j j j j j j B A z             C D E n n n n n n n n E D C             F G H r r r r r r r r H G F             I J K v v v v v v v v K J I       ",
"    L M N f f f f O f f f f O f P L         Q R S j j j j T j j j j T j U Q         V W X X n n n n X n n n n X W V         Y Z ` r r r r  .r r r r  .r ..Y         +.@.#.v v v v $.v v v v $.v %.+.    ",
"  &.*.=.-.f f f ;.>.f f f ;.>.f ,.*.&.    '.).!.~.j j j {.].j j j {.].j ^.).'.    /.(._.:.:.n n n <.:.n n n <.:._.(./.    [.}.|.1.r r r 2.3.r r r 2.3.r 4.}.[.    5.6.7.8.v v v 9.0.v v v 9.0.v a.6.5.  ",
"  b.c.d.-.f f ;.e.-.f f ;.e.-.f f c.b.    f.g.h.~.j j {.i.~.j j {.i.~.j j g.f.    j.k.n :.:.n n l.m.:.n n l.m.:.n k.j.    n.o.p.1.r r 2.q.1.r r 2.q.1.r r o.n.    r.s.t.8.v v 9.u.8.v v 9.u.8.v v s.r.  ",
"v.w.x.d.-.f y.z.-.-.f y.z.-.-.f f x.w.v.A.B.C.h.~.j D.E.~.~.j D.E.~.~.j j C.B.A.F.G.H.n :.:.n I.J.m.:.n I.J.m.:.n H.G.F.K.L.M.p.1.r N.O.1.1.r N.O.1.1.r r M.L.K.P.Q.R.t.8.v S.T.8.8.v S.T.8.8.v v R.Q.P.",
"U.V.f d.-.W.z.-.-.-.W.z.-.-.-.f f f V.U.X.Y.j h.~.Z.E.~.~.~.Z.E.~.~.~.j j j Y.X.`. +n n :.:.I.m.m.m.:.I.m.m.m.:.n n  +`..+++r p.1.@+O.1.1.1.@+O.1.1.1.r r r ++.+#+$+v t.8.%+T.8.8.8.%+T.8.8.8.v v v $+#+",
"&+*+f d.-.=+-.-.-.-.=+-.-.-.-.f f f *+&+-+;+j h.~.>+~.~.~.~.>+~.~.~.~.j j j ;+-+,+'+n n :.)+!+m.m.m.)+!+m.m.m.:.n n '+,+~+..r p.1.{+1.1.1.1.{+1.1.1.1.r r r ..~+]+^+v t.8./+8.8.8.8./+8.8.8.8.v v v ^+]+",
"&+*+f d.-.=+-.-.-.-.=+-.-.-.-.f f f *+&+-+;+j h.~.>+~.~.~.~.>+~.~.~.~.j j j ;+-+,+'+n n :.)+!+m.m.m.)+!+m.m.m.:.n n '+,+~+..r p.1.{+1.1.1.1.{+1.1.1.1.r r r ..~+]+^+v t.8./+8.8.8.8./+8.8.8.8.v v v ^+]+",
"U.V.f d.-.W.z.-.-.-.W.z.-.-.-.f f f V.U.X.Y.j h.~.Z.E.~.~.~.Z.E.~.~.~.j j j Y.X.`. +n n :.:.I.m.m.m.:.I.m.m.m.:.n n  +`..+++r p.1.@+O.1.1.1.@+O.1.1.1.r r r ++.+#+$+v t.8.%+T.8.8.8.%+T.8.8.8.v v v $+#+",
"v.w.x.d.-.f y.z.-.-.f y.z.-.-.f f x.w.v.A.B.C.h.~.j D.E.~.~.j D.E.~.~.j j C.B.A.F.G.H.n :.:.n I.J.m.:.n I.J.m.:.n H.G.F.K.L.M.p.1.r N.O.1.1.r N.O.1.1.r r M.L.K.P.Q.R.t.8.v S.T.8.8.v S.T.8.8.v v R.Q.P.",
"  b.c.d.-.f f ;.e.-.f f ;.e.-.f f c.b.    f.g.h.~.j j {.i.~.j j {.i.~.j j g.f.    j.k.n :.:.n n l.m.:.n n l.m.:.n k.j.    n.o.p.1.r r 2.q.1.r r 2.q.1.r r o.n.    r.s.t.8.v v 9.u.8.v v 9.u.8.v v s.r.  ",
"  &.*.=.-.f f f ;.>.f f f ;.>.f ,.*.&.    '.).!.~.j j j {.].j j j {.].j ^.).'.    /.(._.:.:.n n n <.:.n n n <.:._.(./.    [.}.|.1.r r r 2.3.r r r 2.3.r 4.}.[.    5.6.7.8.v v v 9.0.v v v 9.0.v a.6.5.  ",
"    L M N f f f f O f f f f O f P L         Q R S j j j j T j j j j T j U Q         V W X X n n n n X n n n n X W V         Y Z ` r r r r  .r r r r  .r ..Y         +.@.#.v v v v $.v v v v $.v %.+.    ",
"      w x y f f f f f f f f y x w             z A B j j j j j j j j B A z             C D E n n n n n n n n E D C             F G H r r r r r r r r H G F             I J K v v v v v v v v K J I       ",
"        c d e f f f f f f e d c                 g h i j j j j j j i h g                 k l m n n n n n n m l k                 o p q r r r r r r q p o                 s t u v v v v v v u t s         ",
"          ! ~ { ] ^ ^ ] { ~ !                     / ( _ : < < : _ ( /                     [ } | 1 2 2 1 | } [                     3 4 5 6 7 7 6 5 4 3                     8 9 0 a b b a 0 9 8           ",
"              . + @ @ + .                             # $ % % $ #                             & * = = * &                             - ; > > ; -                             , ' ) ) ' ,               "};
