/* XPM */
static char * EXTNAVPOSTT_xpm[] = {
"100 20 246 2",
"  	c None",
". 	c #2A67A6",
"+ 	c #2A629B",
"@ 	c #285D92",
"# 	c #244E78",
"$ 	c #254A70",
"% 	c #23476A",
"& 	c #0C71EA",
"* 	c #1167D3",
"= 	c #115FC1",
"- 	c #2766A6",
"; 	c #27609B",
"> 	c #255B92",
", 	c #2C6FB4",
"' 	c #2C69A8",
") 	c #2A639E",
"! 	c #2565A6",
"~ 	c #174F89",
"{ 	c #0E4F92",
"] 	c #0A55A1",
"^ 	c #0859AB",
"/ 	c #214C78",
"( 	c #183E64",
"_ 	c #123D6A",
": 	c #0F4174",
"< 	c #0E447B",
"[ 	c #046DE9",
"} 	c #0444B1",
"| 	c #0043C3",
"1 	c #004FD0",
"2 	c #0058C1",
"3 	c #2263A6",
"4 	c #144E89",
"5 	c #0A4D91",
"6 	c #0653A1",
"7 	c #0457AC",
"8 	c #276DB4",
"9 	c #185594",
"0 	c #0D559E",
"a 	c #095BAF",
"b 	c #0760B9",
"c 	c #195796",
"d 	c #084F98",
"e 	c #0968C8",
"f 	c #0A75E1",
"g 	c #19436D",
"h 	c #0D3D6E",
"i 	c #0E4E8F",
"j 	c #0F579F",
"k 	c #0352C9",
"l 	c #0043BC",
"m 	c #0073F6",
"n 	c #008CFF",
"o 	c #165596",
"p 	c #044D98",
"q 	c #0567CB",
"r 	c #0674E4",
"s 	c #1A5EA2",
"t 	c #0755A4",
"u 	c #0870DA",
"v 	c #097EF5",
"w 	c #14508E",
"x 	c #095AAC",
"y 	c #0A71DA",
"z 	c #163E67",
"A 	c #0F457C",
"B 	c #0F549B",
"C 	c #0046BA",
"D 	c #0058D2",
"E 	c #0085FF",
"F 	c #4087DE",
"G 	c #2C67C2",
"H 	c #104E8E",
"I 	c #0558AD",
"J 	c #0670DD",
"K 	c #145699",
"L 	c #0861BB",
"M 	c #097AEE",
"N 	c #185491",
"O 	c #0960B7",
"P 	c #1D7EE0",
"Q 	c #569ADC",
"R 	c #69A3DB",
"S 	c #18406A",
"T 	c #0F4983",
"U 	c #1A5DA1",
"V 	c #3970A7",
"W 	c #4477A9",
"X 	c #014CC0",
"Y 	c #0063E0",
"Z 	c #1596FF",
"` 	c #BFE2FB",
" .	c #6ABCFD",
"..	c #145291",
"+.	c #055EB8",
"@.	c #3A91E9",
"#.	c #78B4EE",
"$.	c #2F75BC",
"%.	c #185A9D",
"&.	c #0867C7",
"*.	c #3A94F0",
"=.	c #74AFEA",
"-.	c #2F79C3",
";.	c #2564A4",
">.	c #095098",
",.	c #0A72DC",
"'.	c #A3BED8",
").	c #90B5D9",
"!.	c #214B77",
"~.	c #0E3E6E",
"{.	c #0F559C",
"].	c #638AAE",
"^.	c #5883AC",
"/.	c #076BE6",
"(.	c #0046BC",
"_.	c #0087FC",
":.	c #AAD9FC",
"<.	c #95CFFC",
"[.	c #2263A5",
"}.	c #054E98",
"|.	c #0671DF",
"1.	c #308BE8",
"2.	c #E0EEF7",
"3.	c #276CB2",
"4.	c #0856A5",
"5.	c #097BEF",
"6.	c #3090F1",
"7.	c #D5DCE1",
"8.	c #154F8B",
"9.	c #096ACC",
"0.	c #147AE0",
"a.	c #86B1D9",
"b.	c #163E65",
"c.	c #0F5091",
"d.	c #145AA0",
"e.	c #5380AB",
"f.	c #0444B2",
"g.	c #0077F7",
"h.	c #40A9FE",
"i.	c #8ACAFC",
"j.	c #114D8B",
"k.	c #0569CE",
"l.	c #D6E8F6",
"m.	c #4497EA",
"n.	c #155596",
"o.	c #0872DE",
"p.	c #CBD7E2",
"q.	c #4399EF",
"r.	c #2C6AA9",
"s.	c #0D5196",
"t.	c #0A74E0",
"u.	c #4390DE",
"v.	c #ACC3D7",
"w.	c #26507A",
"x.	c #113F6D",
"y.	c #0F569E",
"z.	c #2E6AA5",
"A.	c #688DAF",
"B.	c #0D77EF",
"C.	c #0046C0",
"D.	c #008BFF",
"E.	c #0B91FF",
"F.	c #2969AA",
"G.	c #094F96",
"H.	c #0673E2",
"I.	c #82BAEF",
"J.	c #59A2EB",
"K.	c #2E72B8",
"L.	c #0C56A2",
"M.	c #097DF4",
"N.	c #7EB4EA",
"O.	c #57A2ED",
"P.	c #286098",
"Q.	c #095AAB",
"R.	c #23496F",
"S.	c #0F457B",
"T.	c #1063CF",
"U.	c #0058DE",
"V.	c #DFF1FB",
"W.	c #255E98",
"X.	c #0558AC",
"Y.	c #2585E7",
"Z.	c #CBE2F5",
"`.	c #2A67A5",
" +	c #0861BA",
".+	c #268BF2",
"++	c #C1D3E3",
"@+	c #265A8E",
"#+	c #095FB7",
"$+	c #EFE3D3",
"%+	c #224568",
"&+	c #0E4883",
"*+	c #8DA3B6",
"=+	c #1059BB",
"-+	c #0063D2",
";+	c #FFFFFA",
">+	c #75C1FD",
",+	c #23588E",
"'+	c #28609A",
")+	c #0866C6",
"!+	c #3A8CDE",
"~+	c #73A7DB",
"{+	c #2967A4",
"]+	c #497AAA",
"^+	c #1B80E6",
"/+	c #C1DCF4",
"(+	c #1C87F3",
"_+	c #B8CEE4",
":+	c #D2D5D5",
"<+	c #3087DF",
"[+	c #E5DED4",
"}+	c #7D9AB3",
"|+	c #2464A3",
"1+	c #88A0B5",
"2+	c #ACD1F3",
"3+	c #F2E9DE",
"4+	c #A4C5E6",
"5+	c #7CACDA",
"6+	c #DCDAD4",
"7+	c #4E7DAA",
"8+	c #829DB4",
"9+	c #CAE7FB",
"0+	c #60B7FD",
"a+	c #6EAEED",
"b+	c #EAF3F8",
"c+	c #6AABEB",
"d+	c #DFE0E0",
"e+	c #B6C8D6",
"f+	c #6E90B0",
"g+	c #D4ECFB",
"h+	c #209AFE",
"i+	c #97C5F1",
"j+	c #63A8EC",
"k+	c #91BCE8",
"l+	c #60A6EC",
"m+	c #BFCCD6",
"n+	c #2783DF",
"o+	c #7393B1",
"p+	c #1F60A2",
"q+	c #80C6FC",
"r+	c #609EDC",
"s+	c #3E74A8",
"t+	c #2A9FFE",
"u+	c #C1DCF5",
"v+	c #438DD7",
"w+	c #2E68A0",
"              . + @ @ + .                             # $ % % $ #                             & * = = * &                             - ; > > ; -                             , ' ) ) ' ,               ",
"          ! ~ { ] ^ ^ ] { ~ !                     / ( _ : < < : _ ( /                     [ } | 1 2 2 1 | } [                     3 4 5 6 7 7 6 5 4 3                     8 9 0 a b b a 0 9 8           ",
"        c d e f f f f f f e d c                 g h i j j j j j j i h g                 k l m n n n n n n m l k                 o p q r r r r r r q p o                 s t u v v v v v v u t s         ",
"      w x y f f f f f f f f y x w             z A B j j j j j j j j B A z             C D E n n n n n n n n E F G             H I J r r r r r r r r J I H             K L M v v v v v v v v M L K       ",
"    N O f f f f f f f f f P Q R O N         S T j j j j j j j j j U V W T S         X Y n n n n n n n n n Z `  .Y X         ..+.r r r r r r r r r r @.#.$...        %.&.v v v v v v v v v v *.=.-.%.    ",
"  ;.>.,.f f f f f f f f f '.).f ,.>.;.    !.~.{.j j j j j j j j j ].^.j {.~.!.    /.(._.n n n n n n n n n :.<.n _.(./.    [.}.|.r r r r r r r r r 1.2.@.|.}.[.    3.4.5.v v v v v v v v v 6.7.*.5.4.3.  ",
"  8.9.f f f f f f f f 0.'.a.f f f 9.8.    b.c.j j j j j j j j d.].e.j j j c.b.    f.g.n n n n n n n n h.:.i.n n n g.f.    j.k.r r r r r r r r r 1.l.m.r r k.j.    n.o.v v v v v v v v v 6.p.q.v v o.n.  ",
"r.s.t.f f f f f f f u.v.'.0.f f f t.s.r.w.x.y.j j j j j j j z.A.].d.j j j y.x.w.B.C.D.n n n n n n n n ` :.E.n n n D.C.B.F.G.H.r r r r r r r r I.l.J.r r r H.G.F.K.L.M.v v v v v v v v N.p.O.v v v M.L.K.",
"P.Q.f f f f f f f f ).'.f f f f f f Q.P.R.S.j j j j j j j j ^.].j j j j j j S.R.T.U.n n n n n n n n <.V.n n n n n n U.T.W.X.r r r r r r r r Y.Z.J.r r r r r X.W.`. +v v v v v v v v .+++O.v v v v v  +`.",
"@+#+f f f f f f f R $+u.f f f f f f #+@+%+&+j j j j j j j W *+z.j j j j j j &+%+=+-+n n n n n n n  .;+>+n n n n n n -+=+,++.r r r r r r r r Z.2.r r r r r r +.,+'+)+v v v v v v v v ++7.v v v v v v )+'+",
"@+#+f P Q !+f f ~+$+R f f f f f f f #+@+%+&+j U V {+j j ]+*+W j j j j j j j &+%+=+-+n Z ` ;+>+n >+;+ .n n n n n n n -+=+,++.r r @.J.^+r ^+/+2.1.r r r r r r +.,+'+)+v v *.O.(+v (+_+7.6.v v v v v v )+'+",
"P.Q.f '.$+:+<+Q [+).f f f f f f f f Q.P.R.S.j ].*+}+|+V 1+^.j j j j j j j j S.R.T.U.n Z ` ;+V.n V.;+n n n n n n n n U.T.W.X.r 1.2.;+2+r 2+;+@.r r r r r r r X.W.`. +v 6.7.3+4+v 4+3+*.v v v v v v v  +`.",
"r.s.t.<+:+$+5+'.6+u.f f f f f f f t.s.r.w.x.y.|+}+*+7+].8+z.j j j j j j j y.x.w.B.C.D.n n 9+;+;+;+0+n n n n n n n D.C.B.F.G.H.r a+;+b+J.b+Z.r r r r r r r H.G.F.K.L.M.v c+3+d+O.d+++v v v v v v v M.L.K.",
"  8.9.f !+$+$+$+e+f f f f f f f f 9.8.    b.c.j {+*+*+*+f+j j j j j j j j c.b.    f.g.n n 0+;+;+g+h+n n n n n n n g.f.    j.k.r r i+;+;+;+j+r r r r r r r k.j.    n.o.v v k+3+3+3+l+v v v v v v v o.n.  ",
"  ;.>.,.f m+$+$+n+f f f f f f f ,.>.;.    !.~.{.j o+*+*+p+j j j j j j j {.~.!.    /.(._.n n ` g+q+n n n n n n n _.(./.    [.}.|.r m.b+;+/+r r r r r r r |.}.[.    3.4.5.v q.d+3+_+v v v v v v v 5.4.3.  ",
"    N O f r+6+Q 0.f f f f f f f O N         S T j s+8+V d.j j j j j j j T S         X Y n n :.t+n n n n n n n n Y X         ..+.r r u+2+m.r r r r r r r +...        %.&.v v _+4+q.v v v v v v v &.%.    ",
"      w x v+<+f f f f f f f y x w             z A w+|+j j j j j j j B A z             C D E n n n n n n n n E D C             H I J a+r r r r r r r J I H             K L M c+v v v v v v v M L K       ",
"        c d e f f f f f f e d c                 g h i j j j j j j i h g                 k l m n n n n n n m l k                 o p q r r r r r r q p o                 s t u v v v v v v u t s         ",
"          ! ~ { ] ^ ^ ] { ~ !                     / ( _ : < < : _ ( /                     [ } | 1 2 2 1 | } [                     3 4 5 6 7 7 6 5 4 3                     8 9 0 a b b a 0 9 8           ",
"              . + @ @ + .                             # $ % % $ #                             & * = = * &                             - ; > > ; -                             , ' ) ) ' ,               "};
