/* XPM */
static char * EXTNAVDELETET_xpm[] = {
"100 20 236 2",
"  	c None",
". 	c #2A67A6",
"+ 	c #2A629B",
"@ 	c #285D92",
"# 	c #244E78",
"$ 	c #254A70",
"% 	c #23476A",
"& 	c #0C72EA",
"* 	c #1167D3",
"= 	c #115FC1",
"- 	c #2766A6",
"; 	c #27609B",
"> 	c #255B92",
", 	c #2C6FB4",
"' 	c #2C69A8",
") 	c #2A639E",
"! 	c #2565A6",
"~ 	c #175089",
"{ 	c #0E4F92",
"] 	c #0956A2",
"^ 	c #0859AB",
"/ 	c #214C78",
"( 	c #183E64",
"_ 	c #123D6A",
": 	c #0F4174",
"< 	c #0E447B",
"[ 	c #046DE8",
"} 	c #0444B1",
"| 	c #0043C2",
"1 	c #004FD0",
"2 	c #0058C1",
"3 	c #2263A6",
"4 	c #134E89",
"5 	c #0A4D91",
"6 	c #0653A1",
"7 	c #0457AC",
"8 	c #276DB4",
"9 	c #185594",
"0 	c #0E559E",
"a 	c #095CAF",
"b 	c #0760B9",
"c 	c #195796",
"d 	c #084F98",
"e 	c #0968C8",
"f 	c #0A75E1",
"g 	c #19436D",
"h 	c #0D3D6E",
"i 	c #0E4E8F",
"j 	c #0F579F",
"k 	c #0352CA",
"l 	c #0043BB",
"m 	c #0072F5",
"n 	c #008CFF",
"o 	c #165596",
"p 	c #044D99",
"q 	c #0566CA",
"r 	c #0674E4",
"s 	c #1A5EA2",
"t 	c #0755A5",
"u 	c #0870D9",
"v 	c #097EF5",
"w 	c #14508D",
"x 	c #095AAC",
"y 	c #0A72DB",
"z 	c #163E67",
"A 	c #0F457C",
"B 	c #0F549B",
"C 	c #0046BA",
"D 	c #0058D2",
"E 	c #0086FF",
"F 	c #104E8E",
"G 	c #0558AD",
"H 	c #0671DE",
"I 	c #155699",
"J 	c #0861BB",
"K 	c #097AEE",
"L 	c #185491",
"M 	c #0960B7",
"N 	c #18406A",
"O 	c #0F4983",
"P 	c #014CC0",
"Q 	c #0064E2",
"R 	c #145291",
"S 	c #055EB8",
"T 	c #185A9D",
"U 	c #0867C7",
"V 	c #2564A4",
"W 	c #095098",
"X 	c #0A72DC",
"Y 	c #214B77",
"Z 	c #0E3E6E",
"` 	c #0F559C",
" .	c #076AE6",
"..	c #0046BC",
"+.	c #0087FC",
"@.	c #2263A5",
"#.	c #064E99",
"$.	c #0671DF",
"%.	c #266BB2",
"&.	c #0856A5",
"*.	c #097BF0",
"=.	c #154F8B",
"-.	c #096ACC",
";.	c #163E65",
">.	c #0F5091",
",.	c #0444B2",
"'.	c #0077F7",
").	c #114D8B",
"!.	c #0669CE",
"~.	c #155596",
"{.	c #0872DD",
"].	c #2C6AA9",
"^.	c #0D5196",
"/.	c #0A74E0",
"(.	c #26507A",
"_.	c #113F6D",
":.	c #0F569E",
"<.	c #0D77EF",
"[.	c #0047C2",
"}.	c #008BFF",
"|.	c #2969AA",
"1.	c #094F96",
"2.	c #0673E2",
"3.	c #2E72B8",
"4.	c #0C56A2",
"5.	c #097DF4",
"6.	c #286098",
"7.	c #095AAB",
"8.	c #83B0DC",
"9.	c #E1DED7",
"0.	c #E3DFD7",
"a.	c #EEE4D4",
"b.	c #EEE3D4",
"c.	c #B8CAD9",
"d.	c #23496F",
"e.	c #0F457B",
"f.	c #5B86AF",
"g.	c #90A5B8",
"h.	c #8DA3B6",
"i.	c #859FB8",
"j.	c #1063CF",
"k.	c #0058DE",
"l.	c #85C6FB",
"m.	c #EEF6F8",
"n.	c #F0F7F8",
"o.	c #FEFEF9",
"p.	c #FDFEFA",
"q.	c #BFE1FA",
"r.	c #255E98",
"s.	c #0659AC",
"t.	c #87BCF0",
"u.	c #EEF5FA",
"v.	c #F0F6FA",
"w.	c #FEFEFE",
"x.	c #FDFDFE",
"y.	c #C1DBF5",
"z.	c #2A67A5",
"A.	c #0960B8",
"B.	c #61A6EA",
"C.	c #B1CBE4",
"D.	c #B4CDE5",
"E.	c #CFDAE2",
"F.	c #CCD8E2",
"G.	c #8EBBE8",
"H.	c #265A8E",
"I.	c #095FB7",
"J.	c #E2DED7",
"K.	c #EFE3D3",
"L.	c #224568",
"M.	c #0E4883",
"N.	c #8EA3B6",
"O.	c #1059BB",
"P.	c #0063D2",
"Q.	c #FFFFFA",
"R.	c #FCFEF9",
"S.	c #23588E",
"T.	c #EFF5FA",
"U.	c #FFFFFF",
"V.	c #FCFDFE",
"W.	c #28609A",
"X.	c #0866C6",
"Y.	c #B2CCE4",
"Z.	c #D3DBE1",
"`.	c #CBD7E2",
" +	c #94B9DC",
".+	c #D4D7D6",
"++	c #D9DAD6",
"@+	c #CDD4D8",
"#+	c #A3BED8",
"$+	c #7CAEDE",
"%+	c #7294B4",
"&+	c #8CA4B8",
"*+	c #8FA5B8",
"=+	c #88A1B7",
"-+	c #638AAE",
";+	c #628AB1",
">+	c #98CFFA",
",+	c #E0F0F9",
"'+	c #E6F3F9",
")+	c #D8EBF9",
"!+	c #AAD9FC",
"~+	c #7DC1F9",
"{+	c #9AC5F2",
"]+	c #E1EDFA",
"^+	c #E6F0FB",
"/+	c #D8EAFA",
"(+	c #ACD1F6",
"_+	c #ACD0F6",
":+	c #7FB9F0",
"<+	c #6DACEC",
"[+	c #AECAE5",
"}+	c #B2CCE5",
"|+	c #A9C8E5",
"1+	c #90BCE8",
"2+	c #5CA5ED",
"3+	c #167BE1",
"4+	c #3B8EE0",
"5+	c #4190E0",
"6+	c #348AE0",
"7+	c #1C5FA2",
"8+	c #3871A9",
"9+	c #3B72A9",
"0+	c #346EA8",
"a+	c #0E92FE",
"b+	c #36A3FD",
"c+	c #3CA6FC",
"d+	c #2E9FFC",
"e+	c #137BE5",
"f+	c #3B90E8",
"g+	c #4094E9",
"h+	c #328CE7",
"i+	c #0674E3",
"j+	c #1081F4",
"k+	c #278CF2",
"l+	c #2B8EF2",
"m+	c #228AF3",
"              . + @ @ + .                             # $ % % $ #                             & * = = * &                             - ; > > ; -                             , ' ) ) ' ,               ",
"          ! ~ { ] ^ ^ ] { ~ !                     / ( _ : < < : _ ( /                     [ } | 1 2 2 1 | } [                     3 4 5 6 7 7 6 5 4 3                     8 9 0 a b b a 0 9 8           ",
"        c d e f f f f f f e d c                 g h i j j j j j j i h g                 k l m n n n n n n m l k                 o p q r r r r r r q p o                 s t u v v v v v v u t s         ",
"      w x y f f f f f f f f y x w             z A B j j j j j j j j B A z             C D E n n n n n n n n E D C             F G H r r r r r r r r H G F             I J K v v v v v v v v K J I       ",
"    L M f f f f f f f f f f f f M L         N O j j j j j j j j j j j j O N         P Q n n n n n n n n n n n n Q P         R S r r r r r r r r r r r r S R         T U v v v v v v v v v v v v U T     ",
"  V W X f f f f f f f f f f f f X W V     Y Z ` j j j j j j j j j j j j ` Z Y      ...+.n n n n n n n n n n n n +... .    @.#.$.r r r r r r r r r r r r $.#.@.    %.&.*.v v v v v v v v v v v v *.&.%.  ",
"  =.-.f f f f f f f f f f f f f f -.=.    ;.>.j j j j j j j j j j j j j j >.;.    ,.'.n n n n n n n n n n n n n n '.,.    ).!.r r r r r r r r r r r r r r !.).    ~.{.v v v v v v v v v v v v v v {.~.  ",
"].^./.f f f f f f f f f f f f f f /.^.].(._.:.j j j j j j j j j j j j j j :._.(.<.[.}.n n n n n n n n n n n n n n }.[.<.|.1.2.r r r r r r r r r r r r r r 2.1.|.3.4.5.v v v v v v v v v v v v v v 5.4.3.",
"6.7.f f f 8.9.0.0.0.a.a.a.b.c.f f f 7.6.d.e.j j j f.g.g.g.g.h.h.h.h.i.j j j e.d.j.k.n n n l.m.n.n.n.o.o.o.p.q.n n n k.j.r.s.r r r t.u.v.v.v.w.w.w.x.y.r r r s.r.z.A.v v v B.C.D.D.D.E.E.E.F.G.v v v A.z.",
"H.I.f f f J.K.K.K.K.K.K.K.K.b.f f f I.H.L.M.j j j g.h.h.h.h.h.h.h.h.N.j j j M.L.O.P.n n n m.Q.Q.Q.Q.Q.Q.Q.Q.R.n n n P.O.S.S r r r T.U.U.U.U.U.U.U.U.V.r r r S S.W.X.v v v Y.Z.Z.Z.Z.Z.Z.Z.Z.`.v v v X.W.",
"H.I.f f f  +.+++++++++@+#+#+$+f f f I.H.L.M.j j j %+&+*+*+*+*+=+-+-+;+j j j M.L.O.P.n n n >+,+'+'+'+'+)+!+!+~+n n n P.O.S.S r r r {+]+^+^+^+^+/+(+_+:+r r r S S.W.X.v v v <+[+}+}+}+}+|+1+1+2+v v v X.W.",
"6.7.f f f 3+4+5+5+5+5+6+f f f f f f 7.6.d.e.j j j 7+8+9+9+9+9+0+j j j j j j e.d.j.k.n n n a+b+c+c+c+c+d+n n n n n n k.j.r.s.r r r e+f+g+g+g+g+h+r r i+r r r s.r.z.A.v v v j+k+l+l+l+l+m+v v v v v v A.z.",
"].^./.f f f f f f f f f f f f f f /.^.].(._.:.j j j j j j j j j j j j j j :._.(.<.[.}.n n n n n n n n n n n n n n }.[.<.|.1.2.r r r r r r r r r r r r r r 2.1.|.3.4.5.v v v v v v v v v v v v v v 5.4.3.",
"  =.-.f f f f f f f f f f f f f f -.=.    ;.>.j j j j j j j j j j j j j j >.;.    ,.'.n n n n n n n n n n n n n n '.,.    ).!.r r r r r r r r r r r r r r !.).    ~.{.v v v v v v v v v v v v v v {.~.  ",
"  V W X f f f f f f f f f f f f X W V     Y Z ` j j j j j j j j j j j j ` Z Y      ...+.n n n n n n n n n n n n +... .    @.#.$.r r r r r r r r r r r r $.#.@.    %.&.*.v v v v v v v v v v v v *.&.%.  ",
"    L M f f f f f f f f f f f f M L         N O j j j j j j j j j j j j O N         P Q n n n n n n n n n n n n Q P         R S r r r r r r r r r r r r S R         T U v v v v v v v v v v v v U T     ",
"      w x y f f f f f f f f y x w             z A B j j j j j j j j B A z             C D E n n n n n n n n E D C             F G H r r r r r r r r H G F             I J K v v v v v v v v K J I       ",
"        c d e f f f f f f e d c                 g h i j j j j j j i h g                 k l m n n n n n n m l k                 o p q r r r r r r q p o                 s t u v v v v v v u t s         ",
"          ! ~ { ] ^ ^ ] { ~ !                     / ( _ : < < : _ ( /                     [ } | 1 2 2 1 | } [                     3 4 5 6 7 7 6 5 4 3                     8 9 0 a b b a 0 9 8           ",
"              . + @ @ + .                             # $ % % $ #                             & * = = * &                             - ; > > ; -                             , ' ) ) ' ,               "};
