/* XPM */
static char * EXTNAVGOTOBOOKMARKT_xpm[] = {
"100 20 868 2",
"  	c None",
". 	c #2A67A6",
"+ 	c #2A629B",
"@ 	c #285D92",
"# 	c #254E78",
"$ 	c #254A70",
"% 	c #24476B",
"& 	c #0C71EB",
"* 	c #1167D3",
"= 	c #115FC2",
"- 	c #2866A7",
"; 	c #27609B",
"> 	c #265B91",
", 	c #2C6FB4",
"' 	c #2C69A8",
") 	c #2A649F",
"! 	c #2565A6",
"~ 	c #164F89",
"{ 	c #0D4F92",
"] 	c #0954A1",
"^ 	c #0859AA",
"/ 	c #214B77",
"( 	c #183E65",
"_ 	c #123E6A",
": 	c #0F4275",
"< 	c #0E447B",
"[ 	c #046CE8",
"} 	c #0444B1",
"| 	c #0044C1",
"1 	c #0051CD",
"2 	c #0058C2",
"3 	c #2263A6",
"4 	c #154E89",
"5 	c #0B4D91",
"6 	c #0653A2",
"7 	c #0558AC",
"8 	c #276DB4",
"9 	c #175594",
"0 	c #0D549C",
"a 	c #095CB0",
"b 	c #0760BA",
"c 	c #65A275",
"d 	c #166837",
"e 	c #185796",
"f 	c #064E97",
"g 	c #0868C8",
"h 	c #0A75E1",
"i 	c #1572CE",
"j 	c #7E734F",
"k 	c #796A44",
"l 	c #195796",
"m 	c #949698",
"n 	c #3F4C59",
"o 	c #19436D",
"p 	c #0E3D6E",
"q 	c #0F4E8E",
"r 	c #0F579F",
"s 	c #175A9C",
"t 	c #647C95",
"u 	c #637B93",
"v 	c #81C091",
"w 	c #218054",
"x 	c #0351CC",
"y 	c #0042B9",
"z 	c #0074F4",
"A 	c #008CFF",
"B 	c #0F8AEB",
"C 	c #929369",
"D 	c #8E8A61",
"E 	c #008BFF",
"F 	c #96CDA6",
"G 	c #3E885F",
"H 	c #165596",
"I 	c #064E98",
"J 	c #0667C9",
"K 	c #0674E4",
"L 	c #1575D6",
"M 	c #9B9479",
"N 	c #999072",
"O 	c #50985A",
"P 	c #0D5D62",
"Q 	c #0654A5",
"R 	c #076FD8",
"S 	c #097EF5",
"T 	c #2878C2",
"U 	c #B68425",
"V 	c #52788B",
"W 	c #195DA3",
"X 	c #006000",
"Y 	c #025423",
"Z 	c #0859AB",
"` 	c #0A71DA",
" .	c #2B6DA9",
"..	c #C8AB7B",
"+.	c #C59F51",
"@.	c #095AAB",
"#.	c #14508E",
"$.	c #3C3E40",
"%.	c #2F3D4A",
"&.	c #0F559B",
"*.	c #265F97",
"=.	c #B8BDC2",
"-.	c #B4B8BC",
";.	c #163E67",
">.	c #187E13",
",.	c #126A3E",
"'.	c #005AD4",
").	c #0085FE",
"!.	c #2C86C4",
"~.	c #DFC690",
"{.	c #DABD74",
"].	c #005CD4",
"^.	c #0048BB",
"/.	c #378B37",
"(.	c #2B764D",
"_.	c #0659AE",
":.	c #0671DE",
"<.	c #3378B9",
"[.	c #E4CCA1",
"}.	c #E2C686",
"|.	c #3478B9",
"1.	c #104E8D",
"2.	c #096911",
"3.	c #076882",
"4.	c #087AEE",
"5.	c #656D5C",
"6.	c #F3E7BA",
"7.	c #9F8644",
"8.	c #0861BC",
"9.	c #15579A",
"0.	c #126553",
"a.	c #19791D",
"b.	c #4997AE",
"c.	c #0872C5",
"d.	c #036900",
"e.	c #649558",
"f.	c #D3C88E",
"g.	c #CEAF55",
"h.	c #46667A",
"i.	c #0960B7",
"j.	c #175492",
"k.	c #32475D",
"l.	c #565B5F",
"m.	c #5F82A4",
"n.	c #145494",
"o.	c #41484F",
"p.	c #84898F",
"q.	c #CED1D3",
"r.	c #BDC0C4",
"s.	c #3A6591",
"t.	c #0F4984",
"u.	c #19416A",
"v.	c #0E787B",
"w.	c #359B33",
"x.	c #58B5CC",
"y.	c #038AE2",
"z.	c #1E8917",
"A.	c #83B772",
"B.	c #E2DAAA",
"C.	c #E1CB6A",
"D.	c #508293",
"E.	c #0065DF",
"F.	c #004CC0",
"G.	c #2C7A6E",
"H.	c #4FA853",
"I.	c #64B2CB",
"J.	c #0C77CE",
"K.	c #399535",
"L.	c #95C38A",
"M.	c #E7DEBB",
"N.	c #E4CE82",
"O.	c #597B95",
"P.	c #065EB8",
"Q.	c #135190",
"R.	c #195A9D",
"S.	c #087011",
"T.	c #499E4F",
"U.	c #2A90E9",
"V.	c #07747A",
"W.	c #278A23",
"X.	c #8E9A57",
"Y.	c #FDFBB2",
"Z.	c #A88B38",
"`.	c #227ACC",
" +	c #0867C7",
".+	c #2463A4",
"++	c #05523C",
"@+	c #006800",
"#+	c #1F7624",
"$+	c #4598CC",
"%+	c #0F7604",
"&+	c #1F8214",
"*+	c #85B681",
"=+	c #DABD3D",
"-+	c #87641E",
";+	c #0A72DC",
">+	c #095098",
",+	c #214B76",
"'+	c #293A4D",
")+	c #474748",
"!+	c #565C60",
"~+	c #5380AD",
"{+	c #4F5357",
"]+	c #606060",
"^+	c #AFAFAF",
"/+	c #C9CBCD",
"(+	c #6C7C8D",
"_+	c #0F559C",
":+	c #0F3E6E",
"<+	c #0768E8",
"[+	c #0E5551",
"}+	c #1C8A12",
"|+	c #3A943A",
"1+	c #4DB3EB",
"2+	c #2B991F",
"3+	c #3DA830",
"4+	c #9FD4A0",
"5+	c #F0DC5E",
"6+	c #A38437",
"7+	c #0087FC",
"8+	c #0046BC",
"9+	c #2363A4",
"0+	c #206957",
"a+	c #379437",
"b+	c #559F5A",
"c+	c #56AAE1",
"d+	c #42A534",
"e+	c #51B543",
"f+	c #ADDFB0",
"g+	c #F5E070",
"h+	c #AF8D4F",
"i+	c #0671DF",
"j+	c #074F99",
"k+	c #266BB2",
"l+	c #0856A6",
"m+	c #087219",
"n+	c #077A00",
"o+	c #4D9675",
"p+	c #238DEC",
"q+	c #269211",
"r+	c #33922D",
"s+	c #D8E79D",
"t+	c #CEA223",
"u+	c #52707A",
"v+	c #097BF0",
"w+	c #144F8B",
"x+	c #7C30D5",
"y+	c #1F571E",
"z+	c #027B00",
"A+	c #026B00",
"B+	c #066E01",
"C+	c #228E11",
"D+	c #50BE2E",
"E+	c #20880F",
"F+	c #93A94E",
"G+	c #926F1F",
"H+	c #096ACD",
"I+	c #163E65",
"J+	c #8624C0",
"K+	c #56385A",
"L+	c #545454",
"M+	c #44494E",
"N+	c #494E54",
"O+	c #686B6F",
"P+	c #9BA0A5",
"Q+	c #646464",
"R+	c #A6A8A9",
"S+	c #748495",
"T+	c #0E5090",
"U+	c #0444B2",
"V+	c #803DFB",
"W+	c #3A7932",
"X+	c #229914",
"Y+	c #1E8B14",
"Z+	c #229019",
"`+	c #40B029",
" @	c #76E34A",
".@	c #3FAD29",
"+@	c #B0CA6C",
"@@	c #AC8F37",
"#@	c #0079FB",
"$@	c #124E8B",
"%@	c #834BDC",
"&@	c #50884E",
"*@	c #36A632",
"=@	c #369733",
"-@	c #3A9B33",
";@	c #55BE3B",
">@	c #80EC51",
",@	c #52B93C",
"'@	c #BBD87D",
")@	c #B4984D",
"!@	c #066ACE",
"~@	c #155596",
"{@	c #0872DD",
"]@	c #A22ABE",
"^@	c #0C7D01",
"/@	c #0A8601",
"(@	c #097201",
"_@	c #128206",
":@	c #48BA2D",
"<@	c #57C332",
"[@	c #3C9A38",
"}@	c #C2AF32",
"|@	c #2B6AAA",
"1@	c #0C5197",
"2@	c #7E3AE8",
"3@	c #5D8267",
"4@	c #016500",
"5@	c #037E00",
"6@	c #118F03",
"7@	c #29A416",
"8@	c #4CBF2F",
"9@	c #4CBB2D",
"0@	c #5A7E00",
"a@	c #9A751C",
"b@	c #0A74E0",
"c@	c #26507A",
"d@	c #113F6D",
"e@	c #872BCE",
"f@	c #917191",
"g@	c #464646",
"h@	c #595959",
"i@	c #666666",
"j@	c #7C7C7D",
"k@	c #979BA0",
"l@	c #95989B",
"m@	c #747474",
"n@	c #7B8998",
"o@	c #0F569E",
"p@	c #0D75F0",
"q@	c #0045C0",
"r@	c #804EFF",
"s@	c #79A17F",
"t@	c #1E8914",
"u@	c #249E14",
"v@	c #34B026",
"w@	c #4EC031",
"x@	c #71DF45",
"y@	c #70DE46",
"z@	c #6FA118",
"A@	c #B09536",
"B@	c #2969AA",
"C@	c #0A4F95",
"D@	c #8255F0",
"E@	c #8BB195",
"F@	c #379534",
"G@	c #36AA30",
"H@	c #48BC30",
"I@	c #5ECE3A",
"J@	c #7FEC4F",
"K@	c #7BE84C",
"L@	c #82AF37",
"M@	c #BAA14D",
"N@	c #0674E3",
"O@	c #2E72B8",
"P@	c #0C57A3",
"Q@	c #097DF4",
"R@	c #BD3DDE",
"S@	c #2F8C2F",
"T@	c #0B8001",
"U@	c #129404",
"V@	c #28A614",
"W@	c #45B92B",
"X@	c #6AD941",
"Y@	c #33A121",
"Z@	c #B1A408",
"`@	c #56737C",
" #	c #286098",
".#	c #085AAC",
"+#	c #6D49C1",
"@#	c #B28558",
"##	c #7AB06E",
"$#	c #53963E",
"%#	c #488C2E",
"&#	c #0E7D05",
"*#	c #188C06",
"=#	c #2C872A",
"-#	c #CCC04A",
";#	c #D8A70F",
">#	c #B08115",
",#	c #AF8424",
"'#	c #B08224",
")#	c #B0831A",
"!#	c #4F717F",
"~#	c #23496E",
"{#	c #6F3FBA",
"]#	c #A693AA",
"^#	c #9F9F9F",
"/#	c #7E7E7E",
"(#	c #757575",
"_#	c #5A5A5A",
":#	c #686868",
"<#	c #6B6B6B",
"[#	c #CCCCCC",
"}#	c #B0B4B9",
"|#	c #93999F",
"1#	c #959BA2",
"2#	c #969CA2",
"3#	c #9198A0",
"4#	c #416C98",
"5#	c #1063CF",
"6#	c #0055DA",
"7#	c #7260D8",
"8#	c #CB9F70",
"9#	c #8EC789",
"0#	c #66AE51",
"a#	c #5CA845",
"b#	c #2D9E1F",
"c#	c #38AD26",
"d#	c #49AA43",
"e#	c #E0E169",
"f#	c #EDC72B",
"g#	c #CAA22D",
"h#	c #CAA43B",
"i#	c #CAA33B",
"j#	c #CAA332",
"k#	c #578D99",
"l#	c #265E99",
"m#	c #0659AC",
"n#	c #7762D0",
"o#	c #D5AF87",
"p#	c #9DD0A0",
"q#	c #7AB772",
"r#	c #71B265",
"s#	c #42A934",
"t#	c #49B930",
"u#	c #60B85B",
"v#	c #E7F07E",
"w#	c #F1D340",
"x#	c #D2AC4B",
"y#	c #D2AC58",
"z#	c #D2AC59",
"A#	c #D2AC4F",
"B#	c #5F8599",
"C#	c #255E98",
"D#	c #2A67A4",
"E#	c #0860BA",
"F#	c #B94592",
"G#	c #BDBE88",
"H#	c #5AA145",
"I#	c #5AA143",
"J#	c #318A1C",
"K#	c #219B10",
"L#	c #2A9E18",
"M#	c #6EAA57",
"N#	c #E8C92C",
"O#	c #D1A31A",
"P#	c #BD9020",
"Q#	c #BD922B",
"R#	c #BD9025",
"S#	c #AD8D2C",
"T#	c #265A8E",
"U#	c #095FB7",
"V#	c #1F6FBC",
"W#	c #A17E3E",
"X#	c #E2CA80",
"Y#	c #F7EDA8",
"Z#	c #D8D172",
"`#	c #0A7801",
" $	c #20821E",
".$	c #A9B550",
"+$	c #F3BE06",
"@$	c #F4D02D",
"#$	c #F2D854",
"$$	c #F2E16F",
"%$	c #F2DF67",
"&$	c #CFA531",
"*$	c #224568",
"=$	c #0E4884",
"-$	c #1F5C9A",
";$	c #8592A0",
">$	c #D7D9DC",
",$	c #F5F5F5",
"'$	c #D7D7D7",
")$	c #B9B9B9",
"!$	c #D1D1D1",
"~$	c #DADADA",
"{$	c #E1E1E1",
"]$	c #E7E7E7",
"^$	c #AEB5BB",
"/$	c #1059BB",
"($	c #0062D2",
"_$	c #1D88D8",
":$	c #B89B56",
"<$	c #F1E3A1",
"[$	c #FDFDD4",
"}$	c #E0ED90",
"|$	c #289D1F",
"1$	c #3DA036",
"2$	c #C1D66E",
"3$	c #FEE229",
"4$	c #FFF14C",
"5$	c #FFFA72",
"6$	c #FFFF8E",
"7$	c #FFFF85",
"8$	c #E8C548",
"9$	c #24588E",
"0$	c #055EB7",
"a$	c #2477C7",
"b$	c #C4A96C",
"c$	c #F5E9B2",
"d$	c #FEFEDC",
"e$	c #E5F0A2",
"f$	c #54B04F",
"g$	c #CBE483",
"h$	c #FFEF3D",
"i$	c #FFFB5C",
"j$	c #FFFF81",
"k$	c #FFFE9F",
"l$	c #FFFE95",
"m$	c #ECCF5D",
"n$	c #28609A",
"o$	c #0766C7",
"p$	c #537A8E",
"q$	c #C59E48",
"r$	c #F9F3B8",
"s$	c #FEFBAC",
"t$	c #84B142",
"u$	c #198F0B",
"v$	c #4CA151",
"w$	c #E6C92F",
"x$	c #FCD524",
"y$	c #FFE549",
"z$	c #FFE96D",
"A$	c #FFF07F",
"B$	c #FAE060",
"C$	c #BA9B35",
"D$	c #65664B",
"E$	c #C29032",
"F$	c #D7BD38",
"G$	c #508307",
"H$	c #B8B949",
"I$	c #F2BD05",
"J$	c #F5CF28",
"K$	c #F4DB4C",
"L$	c #F1E26B",
"M$	c #E3CA57",
"N$	c #9B9049",
"O$	c #416883",
"P$	c #516F8D",
"Q$	c #A7ABAF",
"R$	c #C5C6C6",
"S$	c #727272",
"T$	c #BDBDBD",
"U$	c #D0D0D0",
"V$	c #D9D9D9",
"W$	c #D1D5D8",
"X$	c #8197AC",
"Y$	c #366492",
"Z$	c #788165",
"`$	c #DEB94F",
" %	c #E5E156",
".%	c #67A61D",
"+%	c #CDDA68",
"@%	c #FEE227",
"#%	c #FFEF4A",
"$%	c #FFFD6C",
"%%	c #FFFF8D",
"&%	c #F9E77C",
"*%	c #B2B16B",
"=%	c #49839D",
"-%	c #2476C7",
";%	c #848472",
">%	c #E6C563",
",%	c #EAE86C",
"'%	c #7AB23A",
")%	c #D6E77D",
"!%	c #FFEC3A",
"~%	c #FFFA57",
"{%	c #FFFD79",
"]%	c #FFFE9E",
"^%	c #F8EC8B",
"/%	c #B5B06E",
"(%	c #527A9C",
"_%	c #46738F",
":%	c #917F49",
"<%	c #E0BA4A",
"[%	c #ACB82E",
"}%	c #72A026",
"|%	c #E2C936",
"1%	c #FBD122",
"2%	c #FFE440",
"3%	c #FFEC67",
"4%	c #FCEB7D",
"5%	c #E6CC55",
"6%	c #797C5C",
"7%	c #0975E1",
"8%	c #59635E",
"9%	c #AF780A",
"0%	c #E5B30B",
"a%	c #F2BD04",
"b%	c #F5C81B",
"c%	c #F4D746",
"d%	c #F1E166",
"e%	c #E0C455",
"f%	c #907738",
"g%	c #1C73C5",
"h%	c #466A8D",
"i%	c #8D939A",
"j%	c #C0C2C5",
"k%	c #CECECE",
"l%	c #D5D5D5",
"m%	c #DFDFDF",
"n%	c #E6E6E6",
"o%	c #CFD1D4",
"p%	c #76899C",
"q%	c #1D5D9D",
"r%	c #688076",
"s%	c #CB9924",
"t%	c #F6D428",
"u%	c #FEE226",
"v%	c #FFE740",
"w%	c #FFF966",
"x%	c #FFFF83",
"y%	c #F2E272",
"z%	c #AA9653",
"A%	c #188BE2",
"B%	c #717D7F",
"C%	c #D7AA40",
"D%	c #FDE139",
"E%	c #FFF74E",
"F%	c #FFFD75",
"G%	c #FFFF90",
"H%	c #F8EB84",
"I%	c #B19E64",
"J%	c #1E78CE",
"K%	c #1B7AD6",
"L%	c #8C7030",
"M%	c #D3A019",
"N%	c #F5C715",
"O%	c #F9CF16",
"P%	c #FADB3B",
"Q%	c #FFEA5E",
"R%	c #FFF07A",
"S%	c #D4AF40",
"T%	c #6A7C71",
"U%	c #386D98",
"V%	c #CD9C1A",
"W%	c #F5CA21",
"X%	c #F3D63C",
"Y%	c #F1E266",
"Z%	c #F2DF6D",
"`%	c #CCA830",
" &	c #396E97",
".&	c #316497",
"+&	c #ADB1B6",
"@&	c #DEDEDE",
"#&	c #B6BABE",
"$&	c #3D89B3",
"%&	c #E4BF36",
"&&	c #FFEA41",
"*&	c #FFF65D",
"=&	c #FFFF8C",
"-&	c #E3C84F",
";&	c #3D88B3",
">&	c #457DAD",
",&	c #E9CF4C",
"'&	c #FFF94C",
")&	c #FFFC6C",
"!&	c #FFFE90",
"~&	c #FFFE9D",
"{&	c #E8CF64",
"]&	c #457CAC",
"^&	c #0F7DEB",
"/&	c #787C5E",
"(&	c #F5CC27",
"_&	c #FADB33",
":&	c #FFEC5C",
"<&	c #FFEF79",
"[&	c #FFED73",
"}&	c #A08B42",
"|&	c #1B7BD6",
"1&	c #837846",
"2&	c #F0C82D",
"3&	c #F4D439",
"4&	c #EED551",
"5&	c #EDE285",
"6&	c #F2E174",
"7&	c #EFCC36",
"8&	c #7C713D",
"9&	c #6F859B",
"0&	c #D3D4D5",
"a&	c #DDDDDD",
"b&	c #E9E9E9",
"c&	c #EAEAEA",
"d&	c #D6D7D8",
"e&	c #687F97",
"f&	c #979667",
"g&	c #FEEB4E",
"h&	c #FFF459",
"i&	c #FFF571",
"j&	c #FFFFA0",
"k&	c #FEED5A",
"l&	c #939057",
"m&	c #A39D68",
"n&	c #FFF85C",
"o&	c #FFFC67",
"p&	c #FFF980",
"q&	c #FFFEAC",
"r&	c #FEF666",
"s&	c #9B9367",
"t&	c #114D8A",
"u&	c #1E7ED9",
"v&	c #D3AC30",
"w&	c #FDDA34",
"x&	c #FFE953",
"y&	c #FBE364",
"z&	c #FEF4AD",
"A&	c #FFEA60",
"B&	c #E3B92A",
"C&	c #43789B",
"D&	c #3B698D",
"E&	c #CDA02D",
"F&	c #F4DA3E",
"G&	c #E0BF40",
"H&	c #89773D",
"I&	c #908042",
"J&	c #E6D38E",
"K&	c #F8DC49",
"L&	c #C3910C",
"M&	c #3C698D",
"N&	c #326393",
"O&	c #AEB3B9",
"P&	c #E0E0E0",
"Q&	c #C8CCCF",
"R&	c #6E849A",
"S&	c #768CA1",
"T&	c #D9DDE1",
"U&	c #E4E4E4",
"V&	c #99A1A8",
"W&	c #4284A6",
"X&	c #E9C04C",
"Y&	c #FFFA59",
"Z&	c #F6E05C",
"`&	c #A19659",
" *	c #A6A15F",
".*	c #F9EDA5",
"+*	c #FFFA68",
"@*	c #DFB127",
"#*	c #4A7AA3",
"$*	c #EBCB5F",
"%*	c #FFFC68",
"&*	c #F8E76E",
"**	c #AB9F69",
"=*	c #ADA46C",
"-*	c #FAF2AF",
";*	c #FFFB75",
">*	c #E4BB3E",
",*	c #817547",
"'*	c #F4D346",
")*	c #FDE653",
"!*	c #DFBA3F",
"~*	c #727456",
"{*	c #C7AD57",
"]*	c #FEF0A6",
"^*	c #F3D633",
"/*	c #B17B07",
"(*	c #806D37",
"_*	c #E3BF3A",
":*	c #E5C53A",
"<*	c #907737",
"[*	c #1A71C5",
"}*	c #9B8542",
"|*	c #EED888",
"1*	c #DCB426",
"2*	c #796330",
"3*	c #667C92",
"4*	c #C8CACC",
"5*	c #CACDD0",
"6*	c #75889B",
"7*	c #1B5B9B",
"8*	c #7E91A4",
"9*	c #E0E2E5",
"0*	c #C1C4C7",
"a*	c #61768C",
"b*	c #978A52",
"c*	c #F3E15C",
"d*	c #F8E758",
"e*	c #A9964D",
"f*	c #1689E2",
"g*	c #178BE4",
"h*	c #B0A55D",
"i*	c #FCF1A1",
"j*	c #EED443",
"k*	c #908448",
"l*	c #A29064",
"m*	c #F6E76D",
"n*	c #FDEC69",
"o*	c #B29D60",
"p*	c #1D76CE",
"q*	c #1E77CD",
"r*	c #B9AD6B",
"s*	c #FFF6A7",
"t*	c #F1DB53",
"u*	c #9D895B",
"v*	c #2C78B8",
"w*	c #B49236",
"x*	c #FEE451",
"y*	c #DDB53A",
"z*	c #68796D",
"A*	c #417EAB",
"B*	c #DCB449",
"C*	c #FCEA89",
"D*	c #C99912",
"E*	c #B5821E",
"F*	c #D7B43C",
"G*	c #8A7131",
"H*	c #1472CE",
"I*	c #1573CE",
"J*	c #94782C",
"K*	c #DABD6B",
"L*	c #A87106",
"M*	c #999FA5",
"N*	c #C4C8CB",
"O*	c #6E8194",
"P*	c #175A9D",
"Q*	c #758799",
"R*	c #C7CBCF",
"S*	c #848D95",
"T*	c #D2A53F",
"U*	c #F2D95A",
"V*	c #A68F47",
"W*	c #0F8BEC",
"X*	c #AE9848",
"Y*	c #F4D783",
"Z*	c #CA951E",
"`*	c #0059D0",
" =	c #DAB453",
".=	c #F5E268",
"+=	c #AD975A",
"@=	c #1676D6",
"#=	c #B4A255",
"$=	c #F5DD8D",
"%=	c #D2A13A",
"&=	c #437495",
"*=	c #DBB346",
"==	c #D1A82E",
"-=	c #5E7573",
";=	c #3D78A5",
">=	c #C9A545",
",=	c #E8C253",
"'=	c #655C3A",
")=	c #605735",
"!=	c #92671A",
"~=	c #2070BC",
"{=	c #936B15",
"]=	c #5C512F",
"^=	c #516376",
"/=	c #73808D",
"(=	c #717E8B",
"_=	c #4B5D70",
":=	c #715E4D",
"<=	c #AF8934",
"[=	c #1D87D8",
"}=	c #B18C2C",
"|=	c #6E5B43",
"1=	c #034EC8",
"2=	c #797255",
"3=	c #BB914A",
"4=	c #BC9345",
"5=	c #786D4E",
"6=	c #1A5388",
"7=	c #95752D",
"8=	c #727356",
"9=	c #4F6E77",
"0=	c #B27904",
"a=	c #396385",
"              . + @ @ + .                             # $ % % $ #                             & * = = * &                             - ; > > ; -                             , ' ) ) ' ,               ",
"          ! ~ { ] ^ ^ ] { ~ !                     / ( _ : < < : _ ( /                     [ } | 1 2 2 1 | } [                     3 4 5 6 7 7 6 5 4 3                     8 9 0 a b b a 0 9 8           ",
"    c d e f g h i j k i h g f l             m n o p q r s t u s r q p o             v w x y z A B C D B E z y x             F G H I J K L M N L K J I H               O P Q R S S T U V S R Q W         ",
"    X Y Z ` h h  ...+. .h h ` @.#.          $.%.< &.r r *.=.-.*.r r &.< ;.          >.,.'.).A A !.~.{.!.A A ).].^.          /.(._.:.K K <.[.}.|.K K :._.1.            2.3.4.S S S 5.6.7.S S 4.8.9.      ",
"    0.a.b.h c.d.e.f.g.h.h h h h i.j.        k.l.m.r n.o.p.q.r.s.r r r r t.u.        v.w.x.A y.z.A.B.C.D.A A A E E.F.        G.H.I.K J.K.L.M.N.O.K K K K P.Q.        R.S.T.U.S V.W.X.Y.Z.`.S S S  +R.    ",
"  .+++@+#+$+c.%+&+*+=+-+h h h h ;+>+.+    ,+'+)+!+~+n.{+]+^+/+(+r r r r _+:+,+    <+[+}+|+1+y.2+3+4+5+6+A A A A 7+8+<+    9+0+a+b+c+J.d+e+f+g+h+K K K K i+j+9+    k+l+m+n+o+p+V.q+r+s+t+u+S S S v+l+k+  ",
"  w+x+y+z+A+B+C+D+E+F+G+h h h h h H+w+    I+J+K+L+M+N+O+P+Q+R+S+r r r r r T+I+    U+V+W+X+Y+Z+`+ @.@+@@@A A A A A #@U+    $@%@&@*@=@-@;@>@,@'@)@K K K K K !@$@    ~@{@]@^@/@(@_@:@<@[@}@u+S S S S {@~@  ",
"|@1@2@3@4@5@6@7@8@9@0@a@h h h h h b@1@|@c@d@e@f@g@h@i@j@k@l@m@n@r r r r r o@d@c@p@q@r@s@t@u@v@w@x@y@z@A@A A A A A E q@p@B@C@D@E@F@G@H@I@J@K@L@M@K K K K K N@C@B@O@P@Q@R@S@T@U@V@W@X@Y@Z@`@S S S S Q@P@O@",
" #.#+#@###$#%#&#*#=#-#;#>#,#'#)#!#h .# #~#< {#]#^#/#(#_#:#<#[#}#|#1#2#3#4#r < ~#5#6#7#8#9#0#a#b#c#d#e#f#g#h#i#j#k#A 6#5#l#m#n#o#p#q#r#s#t#u#v#w#x#y#z#A#B#K m#C#D#E#S F#G#H#I#J#K#L#M#N#O#P#Q#R#S#`.E#D#",
"T#U#V#W#X#Y#Z#`# $.$+$@$#$$$%$&$!#h U#T#*$=$-$;$>$,$'$L+Q+)$!$~${$]$]$^$4#r =$*$/$($_$:$<$[$}$|$1$2$3$4$5$6$7$8$k#A ($/$9$0$a$b$c$d$e$s#f$g$h$i$j$k$l$m$B#K 0$9$n$o$S p$q$r$s$t$u$v$w$x$y$z$A$B$C$`.o$n$",
"T#U#h V#D$E$F$G$H$I$J$K$L$M$N$O$h h U#T#*$=$r -$P$Q$R$S$T$U$V${$]$W$X$Y$r r =$*$/$($A _$Z$`$ %.%+%@%#%$%%%&%*%=%A A ($/$9$0$K -%;%>%,%'%)%!%~%{%]%^%/%(%K K 0$9$n$o$S S _%:%<%[%}%|%1%2%3%4%5%6%`.S o$n$",
" #.#h h 7%8%9%0%a%b%c%d%e%f%g%h h h .# #~#< r r r h%i%j%k%l%m%n%o%p%q%r r r < ~#5#6#A A A r%s%t%u%v%w%x%y%z%A%A A A 6#5#l#m#K K K B%C%D%!%E%F%G%H%I%J%K K K m#C#D#E#S S S K%L%M%N%O%P%Q%R%S%T%S S S E#D#",
"|@1@b@h h h U%V%W%X%Y%Z%`% &h h h b@1@|@c@d@o@r r r .&+&'$@&]$]$#&.&r r r o@d@c@p@q@E A A A $&%&&&*&x%=&-&;&A A A E q@p@B@C@N@K K K >&,&'&)&!&~&{&]&K K K N@C@B@O@P@Q@S S S ^&/&(&_&:&<&[&}&|&S S Q@P@O@",
"  w+H+h h h 1&2&3&4&5&6&7&8&h h h H+w+    I+T+r r r 9&0&a&m%b&c&d&e&r r r T+I+    U+#@A A A f&g&h&i&j&!&k&l&A A A #@U+    $@!@K K K m&n&o&p&q&~&r&s&K K K !@t&    ~@{@S S S u&v&w&x&y&z&A&B&C&S S {@~@  ",
"  .+>+;+h D&E&F&G&H&I&J&K&L&M&h ;+>+.+    ,+:+_+r N&O&P&Q&R&S&T&U&V&N&r _+:+,+    <+8+7+A W&X&Y&Z&`& *.*+*@*W&A 7+8+<+    9+j+i+K #*$*%*&***=*-*;*>*#*K i+j+9+    k+l+v+S S ,*'*)*!*~*{*]*^*/*S v+l+k+  ",
"    j.i.h (*_*:*<*[*g%}*|*1*2*h i.j.        u.t.r 3*4*5*6*7*q%8*9*0*a*r t.u.        F.E.A b*c*d*e*f*g*h*i*j*k*A E.F.        Q.P.K l*m*n*o*p*q*r*s*t*u*K P.Q.        R. +S v*w*x*y*z*S A*B*C*D*_% +R.    ",
"      #.@.E*F*G*H*h h I*J*K*L*@.#.            ;.< M*N*O*s r r P*Q*R*S*< ;.            ^.'.T*U*V*B A A W*X*Y*Z*`*^.            1._. =.=+=L K K @=#=$=%=_.1.            9.8.&=*===-=S S S ;=>=,='=9.      ",
"        l )=!=~=h h h h V#{=]=l                 o ^=/=-$r r r r -$(=_=o                 x :=<=[=A A A A _$}=|=1=                H 2=3=a$K K K K a$4=5=H                 W 6=7=8=^&S S S S 9=0=a=        ",
"          ! ~ { ] ^ ^ ] { ~ !                     / ( _ : < < : _ ( /                     [ } | 1 2 2 1 | } [                     3 4 5 6 7 7 6 5 4 3                     8 9 0 a b b a 0 9 8           ",
"              . + @ @ + .                             # $ % % $ #                             & * = = * &                             - ; > > ; -                             , ' ) ) ' ,               "};
