/* XPM */
static char * EXTNAVGOTOBOOKMARKL_xpm[] = {
"160 30 256 2",
"  	c None",
". 	c #FFFFFF",
"+ 	c #FFFF00",
"@ 	c #FF00FF",
"# 	c #FF0000",
"$ 	c #00FFFF",
"% 	c #00FF00",
"& 	c #0000FF",
"* 	c #000000",
"= 	c #0F579F",
"- 	c #0A75E1",
"; 	c #097EF5",
"> 	c #0674E4",
", 	c #008CFF",
"' 	c #F100F1",
") 	c #FF13FF",
"! 	c #FF37FF",
"~ 	c #00003E",
"{ 	c #000D62",
"] 	c #000A56",
"^ 	c #001676",
"/ 	c #001C80",
"( 	c #002A9B",
"_ 	c #00288D",
": 	c #003BC0",
"< 	c #0036AB",
"[ 	c #0057F3",
"} 	c #004BD0",
"| 	c #0042B7",
"1 	c #006BF8",
"2 	c #0073FF",
"3 	c #8D9196",
"4 	c #204C7B",
"5 	c #666F79",
"6 	c #6D7680",
"7 	c #9FA6AE",
"8 	c #007CFF",
"9 	c #0672E0",
"0 	c #0671DD",
"a 	c #0568CC",
"b 	c #02264B",
"c 	c #066BD2",
"d 	c #0665C5",
"e 	c #065CB1",
"f 	c #05509D",
"g 	c #054E99",
"h 	c #097CF1",
"i 	c #097BF0",
"j 	c #097AEC",
"k 	c #0874E1",
"l 	c #0760BA",
"m 	c #05498E",
"n 	c #054484",
"o 	c #0863C0",
"p 	c #0756A7",
"q 	c #064C92",
"r 	c #053E7A",
"s 	c #0B85FF",
"t 	c #0A72DC",
"u 	c #096ACC",
"v 	c #07529F",
"w 	c #05396F",
"x 	c #053769",
"y 	c #042C54",
"z 	c #08519A",
"A 	c #084F96",
"B 	c #063C73",
"C 	c #07427D",
"D 	c #06315C",
"E 	c #073563",
"F 	c #06294D",
"G 	c #0A3F76",
"H 	c #0F559D",
"I 	c #0F549A",
"J 	c #0E5092",
"K 	c #0C4680",
"L 	c #0C457E",
"M 	c #198CFF",
"N 	c #0E4A86",
"O 	c #0F4C8B",
"P 	c #0D4276",
"Q 	c #0D3C6D",
"R 	c #125192",
"S 	c #0E3F71",
"T 	c #135496",
"U 	c #0D3B68",
"V 	c #145597",
"W 	c #134E8A",
"X 	c #0D365E",
"Y 	c #185DA4",
"Z 	c #175797",
"` 	c #0D2E51",
" .	c #246DB9",
"..	c #2165AB",
"+.	c #103152",
"@.	c #113457",
"#.	c #0E2A46",
"$.	c #0C243C",
"%.	c #153C65",
"&.	c #276CB3",
"*.	c #18436E",
"=.	c #2B76C1",
"-.	c #2A6EB3",
";.	c #2E70B5",
">.	c #337AC3",
",.	c #3272B5",
"'.	c #245180",
").	c #3774B4",
"!.	c #3774B3",
"~.	c #3D7EC2",
"{.	c #3D7EC1",
"].	c #3975B2",
"^.	c #295481",
"/.	c #2F5780",
"(.	c #3C454E",
"_.	c #757E87",
":.	c #6D747B",
"<.	c #929BA4",
"[.	c #BDC6CF",
"}.	c #3F4245",
"|.	c #C4CDD6",
"1.	c #0185FF",
"2.	c #0088FF",
"3.	c #30363B",
"4.	c #42494F",
"5.	c #7D858C",
"6.	c #B2BAC1",
"7.	c #ADB1B4",
"8.	c #97C8AF",
"9.	c #A5D6BD",
"0.	c #B8E9D0",
"a.	c #C5F6DD",
"b.	c #007600",
"c.	c #006D00",
"d.	c #006500",
"e.	c #005600",
"f.	c #086B08",
"g.	c #136D13",
"h.	c #37A037",
"i.	c #379337",
"j.	c #378937",
"k.	c #377A37",
"l.	c #058500",
"m.	c #087B00",
"n.	c #087300",
"o.	c #086B00",
"p.	c #1B8E13",
"q.	c #1B8613",
"r.	c #1B7C15",
"s.	c #35B12B",
"t.	c #086300",
"u.	c #129502",
"v.	c #138B02",
"w.	c #209A0F",
"x.	c #2AA915",
"y.	c #238B0A",
"z.	c #43B62B",
"A.	c #339C17",
"B.	c #52C434",
"C.	c #64D33C",
"D.	c #74E347",
"E.	c #8FF95B",
"F.	c #FFFD68",
"G.	c #FFFE74",
"H.	c #FFFF7C",
"I.	c #FFFF8C",
"J.	c #FFFF95",
"K.	c #FFFEA7",
"L.	c #FAF9B9",
"M.	c #FDFDCE",
"N.	c #FFFFE8",
"O.	c #FFFFF6",
"P.	c #F0F0EF",
"Q.	c #FFF83C",
"R.	c #FFF949",
"S.	c #FFF953",
"T.	c #FFF95B",
"U.	c #FFFD84",
"V.	c #FFFD9B",
"W.	c #FFF672",
"X.	c #FFF784",
"Y.	c #FFF68B",
"Z.	c #F1E155",
"`.	c #E9D955",
" +	c #F1E15D",
".+	c #FFEE63",
"++	c #F7E763",
"@+	c #FFEF6B",
"#+	c #FFF17B",
"$+	c #FFE325",
"%+	c #FFE936",
"&+	c #FFE93C",
"*+	c #FFE847",
"=+	c #F1E272",
"-+	c #F5D839",
";+	c #FFE752",
">+	c #FFE75A",
",+	c #FFEE83",
"'+	c #FCD91D",
")+	c #F6D846",
"!+	c #FFE86C",
"~+	c #FFE773",
"{+	c #F6E694",
"]+	c #F6E8A6",
"^+	c #F7CA15",
"/+	c #FED62C",
"(+	c #F7C305",
"_+	c #F2C728",
":+	c #E9C64A",
"<+	c #FAD659",
"[+	c #F6D668",
"}+	c #F0B800",
"|+	c #E4B423",
"1+	c #C79609",
"2+	c #E7AD10",
"3+	c #D8A614",
"4+	c #C69A22",
"5+	c #FAC835",
"6+	c #EABB38",
"7+	c #F8C848",
"8+	c #EBC45C",
"9+	c #A77E1B",
"0+	c #F0D185",
"a+	c #D9A836",
"b+	c #DFB24C",
"c+	c #FAC85D",
"d+	c #E1BE6F",
"e+	c #976501",
"f+	c #A87406",
"g+	c #B77F0B",
"h+	c #A67411",
"i+	c #BE891A",
"j+	c #B78724",
"k+	c #9F6500",
"l+	c #9C6300",
"m+	c #A56B06",
"n+	c #AF7613",
"o+	c #B87E1A",
"p+	c #985D00",
"q+	c #C69239",
"r+	c #8E5500",
"s+	c #AF6D13",
"t+	c #BC8337",
"u+	c #8E4C00",
"v+	c #BC7A37",
"w+	c #F7F7F7",
"x+	c #E7E7E7",
"y+	c #DEDEDE",
"z+	c #D6D6D6",
"A+	c #CECECE",
"B+	c #C6C6C6",
"C+	c #787878",
"D+	c #666666",
"E+	c #575757",
"F+	c #4A4A4A",
"G+	c #424242",
"                        ].].].].].].].].                                                /./././././././.                                                M M M M M M M M                                                 !.!.!.!.!.!.!.!.                                                {.{.{.{.{.{.{.{.                        ",
"                  ].,...W Q D F F D Q W ..,.].                                    /.^.4 %.+.#.$.$.#.+.%.4 ^./.                                    M s 1 | / ] ~ ~ ] / | 1 s M                                     !.;...O w y b b y w O ..;.!.                                    {.>. .T G E y y E G T  .>.{.                  ",
"              ].-.W x C v l u t t u l v C x W -.].                            /.'.%.` X S N J H H J N S X ` %.'./.                            M 8 | ^ ( } 1 8 1.1.8 1 } ( ^ | 8 M                             !.&.O x r f l c 9 9 c l f r x O &.!.                            {.=.V B n p u k i i k u p n B V =.{.              ",
"        8.d.,.Z w q d - - - - r+r+- - - - d q w Z ,.                    B+}.^.*.` Q O = = = = 6 6 = = = = O Q ` *.^.                    0.q.s } / : 2 , , , , n+n+, , 2., 2 : / } s                     a.i.;.V w q d > > > > t+t+> > > > d q w V ;.                      9.n.Y r v c ; ; ; ; ; l+l+; ; ; c v r Y >.            ",
"        e.e.G n o - - - - - r+d+q+r+- - - - - o n P -.                  3.3.@.X O = = = = = 6 6.7.6 = = = = = O X @.'.                  g.g._ < 1 , , , , , n+{+d+n+, , , , , 1 < _ 8                   k.k.G n d > > > > > t+]+0+t+> > > > > d n G &.                    e.e.m c ; ; ; ; ; ; l+0+b+l+; ; ; ; c m K =.          ",
"        d.e.A t - - - - - - r+P.]+r+- - - - - - t A G -.                G+}.Q H = = = = = = 6 . w+6 = = = = = = H Q @.'.                q.r.} 1., , , , , , n+. M.n+, , , , , , 2.} _ 8                 i.j.g 9 > > > > > > t+. M.t+> > > > > > 9 g B &.                =.n.o.h ; ; ; ; ; ; ; l+w+L.l+; ; ; ; ; h p L =.        ",
"      ;.d.c.8.- - - - d.d.8.r+M.{+r+- - - - - - - - z G ;.            ^.G+4.6.= = = = (.(.6.6 w+P.6 = = = = = = = = S @.^.            1.q.p.0., , , , q.q.0.n+N.K.n+, , , , , , , 2.} _ 1.            -.i.h.a.> > > > i.i.a.t+O.L.t+> > > > > > > > g B -.            >.L n.m.9.; ; ; ; n.n.9.l+M.V.l+; ; ; ; ; ; ; p L >.      ",
"    ].W d.c.e.8.- - k e.v.d.8.]+=+r+r+- - - - - - - - m W ].        /.%.G+F+(.6.= = = 3.D+G+B+w+x+6 6 = = = = = = = = U %./.        M < q.p.r.0., , , g.s.q.0.M.I.n+n+, , , , , , , , : < M         !.N i.i.j.a.> > > k.z.i.a.M.V.t+t+> > > > > > > > m N !.        {.R g n.m.o.9.; ; ; e.w.n.9.L.#+l+l+; ; ; ; ; ; ; g R {.    ",
"    ..w d.d.b.e.8.- - d.y.y.d.8.Z.1+r+- - - - - - - - u w ..        4 ` G+G+E+3.6.= = (.D+D+G+B+x+7.6 = = = = = = = = J ` 4         1 / q.q.w.g.0., , q.z.z.q.0.G.6+n+, , , , , , , , 8 / 1         ..w i.i.h.k.a.> > i.B.B.i.a.U.7+t+> > > > > > > > c w ..         .r k n.n.l.e.9.; ; n.A.A.n.9..+3+l+; ; ; ; ; ; ; k r  .    ",
"  ].P p ' e.l.b.d.e.d.d.A.C.y.d.8.3+r+- - - - - - - - - p P ].    /.@.P @ 3.E+E+(.3.(.(.C+6.D+G+B+6.6 = = = = = = = = = P @./.    M _ [ ) r.x.p.q.g.q.q.B.E.z.q.0.5+n+, , , , , , , , , [ _ M     ).G p ! j.s.h.i.k.i.i.C.E.B.i.a.-+t+> > > > > > > > > p G ).    ~.K e ; @ t.u.l.n.e.n.n.z.D.A.n.9.|+l+; ; ; ; ; ; ; ; e K ~.  ",
"  &.x t ' d.d.l.l.m.v.w.z.B.C.A.d.}+r+- - - - - - - - - t x &.    '.` I @ G+G+E+E+D+D+C+3 7 7.C+G+B+6 = = = = = = = = = I ` '.    8 ^ 1.) q.q.x.x.x.s.z.C.D.E.B.q.'+n+, , , , , , , , , 1.^ 8     &.x 0 ! i.i.s.s.s.z.B.D.E.E.C.i.%+t+> > > > > > > > > 0 x &.    =.B j ; @ n.n.u.u.u.w.x.z.C.D.z.n.^+l+; ; ; ; ; ; ; ; j B =.  ",
"].Z q - ' 8.d.e.b.l.u.w.x.z.C.z.e.}+p+- - - - - - - - - - q Z ]./.*.U = @ B+G+G+E+E+D+C+C+3 7.3 G+B+_.= = = = = = = = = = U *./.M } : , ) 0.q.r.p.x.s.z.B.C.E.C.r.'+o+, , , , , , , , , , : } M !.V m > ! a.i.j.h.s.B.B.C.D.E.D.j.%+q+> > > > > > > > > > m V !.{.Y f ; ; @ 9.n.o.l.u.x.x.z.B.D.B.f.(+m+; ; ; ; ; ; ; ; ; f Y {.",
"].P e - ' r+8.d.d.d.d.d.w.v.A.d.8.}+1+r+r+r+r+r+r+r+- - - e P ]./.@.L = @ C+B+G+G+G+G+G+C+D+C+G+B+A+<.6 6 6 6 6 6 6 = = = L @./.M _ [ , ) n+0.q.q.q.q.q.z.s.B.q.0.'+|+n+n+n+n+n+n+n+, , , [ _ M !.G e > ! t+a.i.i.i.i.i.B.z.C.i.a.%+6+t+t+t+t+t+t+t+> > > e B !.{.L o ; ; @ l+9.n.n.n.n.n.x.w.z.n.9.(+3+l+l+l+l+l+l+l+; ; o L {.",
"].D u - r+d+L.M.L.L.{+d.v.v.d.8.}+(+_+-+)+=+=+[+ +-+r+- - u D ]./.#.J = 6 6.w+w+w+w+P.G+D+D+G+B+A+z+z+y+y+x+x+x+x+|.6 = = J #./.M { 2 , n+0+N.N.M.M.L.p.s.A.q.0.'+$+*+T.F.I.J.U.H.T.n+, , 2 { M !.D a > t+{+O.O.N.N.M.i.z.z.i.a.&+Q.S.F.H.V.K.J.I.F.t+> > a D !.{.E 0 ; ; l+d+M.M.M.M.K.n.w.w.n.9.(+'+/+*+>+#+,+~+@+*+l+; 0 E {.",
"].F t - k u+9+0+]+{+[+d.v.d.8.}+}+^+-+`.[+=+=+ +a+r+- - - t F ]./.$.H = = 6 <.x+w+P.x+G+D+G+B+A+A+z+y+y+x+x+x+x+6.6 = = = H $./.M ~ 1., , n+q+K.N.L.U.q.s.q.0.'+$+&+S.W.U.J.I.H.7+n+, , , 1.~ M !.b 0 > > t+b+L.N.L.J.i.B.i.a.%+%+R.F.H.J.K.V.I.<+t+> > > 0 b !.{.y i ; ; ; k+j+]+L.V.~+n.w.n.9.(+^+/+*+>+~+,+#+@+6+l+; ; i y {.",
"].F t - - k r+e+q+[+)+d.d.8.}+}+^+-+)+ +=+=+`.g+r+- - - - t F ]./.$.H = = = 6 _.7.x+y+G+G+B+A+A+z+y+y+x+x+P.|.<.6 = = = = H $./.M ~ 1., , , n+o+8+U.F.q.q.0.'+$+&+S.F.H.J.V.W.a+n+, , , , 1.~ M !.b 0 > > > t+q+[+J.H.i.i.a.%+%+R.T.G.I.K.K.U.a+t+> > > > 0 b !.{.y i ; ; ; ; l+m+b+~+>+n.n.9.(+^+/+&+;+@+,+X.++i+l+; ; ; i y {.",
"].D u - - - k k u+m+|+_+}+}+(+^+_+)+ +=+=+a+e+- - - - - - u D ]./.#.J = = = = = 5 5.B+z+A+B+A+z+z+y+x+x+x+6.5.= = = = = = J #./.M { 2 , , , , , s+i+)+&+$+'+$+%+*+F.H.J.J.c+i+2., , , , , 2 { M !.D a > > > > > v+q+>+R.%+&+%+R.T.G.I.K.K.[+q+k > > > > > a D !.{.E 0 ; ; ; ; ; ; p+n+5+/+^+(+^+/+/+;+@+,+,+b+f+; ; ; ; ; 0 E {.",
"].P e - - - - - k r+p+1+(+}+^+_+)+ +=+=+i+r+- - - - - - - e P ]./.@.L = = = = = = 6 _.7 A+A+z+z+y+x+x+x+7 6 = = = = = = = L @./.M _ [ , , , , , , n+o+|+$+$+%+;+F.H.I.I.a+n+, , , , , , , [ _ M !.G e > > > > > > t+q+5+%+%+R.T.G.I.J.V.:+t+> > > > > > > e B !.{.L o ; ; ; ; ; ; ; l+m+3+^+^+'+-+;+@+#+#+4+l+; ; ; ; ; ; o L {.",
"].Z q - - - - - - k k r+_+^+_+-+Z.=+=+ +r+- - - - - - - - q Z ]./.*.U = = = = = = = = 6 z+z+z+y+x+x+x+x+6 = = = = = = = = U *./.M } : , , , , , , , , n+*+%+*+T.G.I.J.H.n+, , , , , , , , : } M !.V m > > > > > > > > t+S.Q.T.F.H.V.K.I.t+> > > > > > > > m V !.{.Y f ; ; ; ; ; ; ; ; ; l+/+'+-+*+.+#+,+@+l+; ; ; ; ; ; ; f Y {.",
"  &.x t - - - - - - r+a+^+_+-+ +=+=+[+Z.3+r+- - - - - - t x &.    '.` I = = = = = = 6 6.z+z+y+x+x+x+x+x+6.6 = = = = = = I ` '.    8 ^ 1., , , , , , n+<+%+*+T.H.I.J.U.G.7+n+, , , , , , 1.^ 8     &.x 0 > > > > > > t+!+R.S.F.I.V.K.J.H.<+t+> > > > > > 0 x &.    =.B j ; ; ; ; ; ; ; l+:+/+/+*+@+#+,+~+.+6+l+; ; ; ; ; j B =.  ",
"  ].P p - - - - - - h+-+_+-+ +:+`.P.Z.)+_+e+- - - - - - p P ].    /.@.P = = = = = = 3 y+z+y+x+z+y+. x+y+z+5.= = = = = = P @./.    M _ [ , , , , , , q+T.*+T.H.!+G.. G.F.*+i+, , , , , , [ _ M     ).G p > > > > > > a+F.S.F.I.#+U.. U.G.S.q+> > > > > > p B ).    ~.K e ; ; ; ; ; ; ; j+*+/+*+@+<+++. .+;+/+f+; ; ; ; ; e K ~.  ",
"    ..w u - - - - r+a+-+-+Z.a+e+l+:+P.-+'+1+r+- - - - u w ..        4 ` J = = = = 6 6.y+y+x+6._.5.[.. y+y+<.6 = = = = J ` 4         1 / 8 , , , , n+c+R.T.G.<+o+i+!+. S.R.|+n+, , , , 8 / 1         ..w c > > > > t+[+T.F.U.!+q+q+#+. F.S.6+t+> > > > c w ..         .r k ; ; ; ; ; l+b+%+;+.+:+m+f+<+. *+%+1+k+; ; ; k r  .    ",
"    ].W m - - - - r+:+-+Z.a+r+- - e+:+P.'+3+r+- - - - m W ].        /.%.U = = = = 6 z+y+x+6.6 = = 5.[.. y+6.6 = = = = U %./.        M < : , , , , n+!+S.H.7+n+, , j+.+. Q.5+n+, , , , : < M         !.N m > > > > t+#+F.U.<+t+> k q+W.. R.)+t+> > > > m N !.        {.R g ; ; ; ; ; l+<+*+.+6+l+; ; h+<+. $+|+l+; ; ; g R {.    ",
"      ;.G z - - r+4+)+)+4+r+- - - - p+|+P.'+f+r+- - z G ;.            ^.@.S = = 6 7 y+y+7 6 = = = = _.6.. y+3 6 = = S @.^.            1._ } , , n+b+F.F.6+n+, , , , o+)+. Q.4+n+, , } _ 1.            -.B g > > t+8+G.H.7+t+> > > 9 q+;+. R.a+t+> > g B -.            >.L p ; ; ; e+a+;+;+a+l+; ; ; ; m+_+. $+g+l+; p L >.      ",
"        -.G A t p+8+`.4+r+k - - - - k p+3+P.3+r+t A G -.                '.@.Q H _.y+x+7 6 = = = = = = _.7.. 6.6 H Q @.'.                8 _ } 1.o+,+F.6+n+, , , , , , o+5+. 5+n+2.} _ 8                 &.B g 9 q+Y.H.:+t+> > > > > > q+-+. )+t+9 g B &.                =.L p h ; m+[+>+4+k+; ; ; ; ; ; m+|+. |+l+p L =.        ",
"          -.P n e+a+g+r+k - - - - - - k r+1+1+r+n P -.                    '.@.X 5.6.<.6 = = = = = = = = 6 <.7 :.X @.'.                    8 _ < j+c+a+s+, , , , , , , , n+|+_+n+( _ 8                     &.G n q+[+6+t+> > > > > > > > t+6+5+t+n G &.                    =.K m c h+b+i+k+; ; ; ; ; ; ; ; l+1+2+l+K =.          ",
"            ,.Z w r+r+- - - - - - - - - k r+r+w Z ,.                        ^.*.` :.:.= = = = = = = = = = :.:.` *.^.                        s } / n+n+, , , , , , , , , , n+n+/ } s                         ;.T w t+v+> > > > > > > > > > t+t+w V ;.                        >.Y r v k+k+; ; ; ; ; ; ; ; ; c k+l+Y >.            ",
"              ].-.W x C v l u t t u l v C x W -.].                            /.'.%.` X S N J H H J N S X ` %.'./.                            M 8 | ^ ( } 1 8 1.1.8 1 } ( ^ | 8 M                             !.&.O x r f l c 9 9 c l f r x O &.!.                            {.=.V B n p u k i i k u p n B V =.{.              ",
"                  ].,...W Q D F F D Q W ..,.].                                    /.^.4 %.+.#.$.$.#.+.%.4 ^./.                                    M s 1 | / ] ~ ~ ] / | 1 s M                                     !.;...O w y b b y w O ..;.!.                                    {.>. .T G E y y E G T  .>.{.                  ",
"                        ].].].].].].].].                                                /./././././././.                                                M M M M M M M M                                                 !.!.!.!.!.!.!.!.                                                {.{.{.{.{.{.{.{.                        "};
