/* XPM */
static char * EXTNAVNEXTL_xpm[] = {
"160 30 249 2",
"  	c None",
". 	c #FFFFFF",
"+ 	c #FFFF00",
"@ 	c #FF00FF",
"# 	c #FF0000",
"$ 	c #00FFFF",
"% 	c #00FF00",
"& 	c #0000FF",
"* 	c #000000",
"= 	c #FFFFFA",
"- 	c #0F579F",
"; 	c #0A75E1",
"> 	c #097EF5",
", 	c #0674E4",
"' 	c #008CFF",
") 	c #00003F",
"! 	c #00003D",
"~ 	c #000D62",
"{ 	c #000A56",
"] 	c #001577",
"^ 	c #001775",
"/ 	c #001B82",
"( 	c #001B80",
"_ 	c #001F7F",
": 	c #002A9B",
"< 	c #00268C",
"[ 	c #002EA7",
"} 	c #002A90",
"| 	c #002A8E",
"1 	c #00288C",
"2 	c #003FC7",
"3 	c #003BC0",
"4 	c #0039BA",
"5 	c #0049DB",
"6 	c #0047D3",
"7 	c #0043CB",
"8 	c #005CFD",
"9 	c #0052E8",
"0 	c #0043B8",
"a 	c #0041B6",
"b 	c #003DAE",
"c 	c #0066FF",
"d 	c #0052CD",
"e 	c #0052CB",
"f 	c #006FFF",
"g 	c #006BFF",
"h 	c #0075FF",
"i 	c #006FF3",
"j 	c #006BF2",
"k 	c #007BFF",
"l 	c #1F4B7A",
"m 	c #295482",
"n 	c #007DFF",
"o 	c #01264A",
"p 	c #0482FF",
"q 	c #02386F",
"r 	c #023569",
"s 	c #045AB1",
"t 	c #034B94",
"u 	c #034990",
"v 	c #03488D",
"w 	c #034283",
"x 	c #0672E0",
"y 	c #0671DF",
"z 	c #056AD1",
"A 	c #0568CC",
"B 	c #0565C7",
"C 	c #0563C3",
"D 	c #055FBA",
"E 	c #0455A6",
"F 	c #04509E",
"G 	c #044F9A",
"H 	c #044D97",
"I 	c #033F7C",
"J 	c #03386E",
"K 	c #02264B",
"L 	c #0670DB",
"M 	c #033668",
"N 	c #032E58",
"O 	c #097CF1",
"P 	c #097BF0",
"Q 	c #097BEF",
"R 	c #097AEC",
"S 	c #0874E1",
"T 	c #0871DC",
"U 	c #086ED6",
"V 	c #086CD2",
"W 	c #0763BF",
"X 	c #0653A0",
"Y 	c #06509C",
"Z 	c #0A84FF",
"` 	c #0868C9",
" .	c #075DB3",
"..	c #0758AB",
"+.	c #0757A7",
"@.	c #0755A3",
"#.	c #064F99",
"$.	c #06498E",
"%.	c #053E79",
"&.	c #0B86FF",
"*.	c #0A73DE",
"=.	c #0A72DD",
"-.	c #0A71D9",
";.	c #096CCF",
">.	c #0969CB",
",.	c #0966C5",
"'.	c #0964C1",
").	c #085CB0",
"!.	c #064687",
"~.	c #053B72",
"{.	c #04305D",
"].	c #0961B9",
"^.	c #0857A5",
"/.	c #08529E",
"(.	c #074D94",
"_.	c #074B90",
":.	c #074A8D",
"<.	c #063E78",
"[.	c #042B51",
"}.	c #08519A",
"|.	c #084F96",
"1.	c #074483",
"2.	c #063C71",
"3.	c #063A70",
"4.	c #07427D",
"5.	c #06376A",
"6.	c #073D74",
"7.	c #052B53",
"8.	c #073A6F",
"9.	c #073A6D",
"0.	c #05294C",
"a.	c #083D74",
"b.	c #073869",
"c.	c #073666",
"d.	c #093F76",
"e.	c #093E74",
"f.	c #06294D",
"g.	c #0A4077",
"h.	c #08335F",
"i.	c #0B447E",
"j.	c #0F559D",
"k.	c #0F559C",
"l.	c #0F549A",
"m.	c #0E5193",
"n.	c #0E4F90",
"o.	c #0C4680",
"p.	c #0C457E",
"q.	c #0B4075",
"r.	c #198CFF",
"s.	c #0E4D8C",
"t.	c #0E4B8A",
"u.	c #0D4781",
"v.	c #0B3C6E",
"w.	c #0E4A87",
"x.	c #0F4C8A",
"y.	c #0E4984",
"z.	c #0D4277",
"A.	c #0E467E",
"B.	c #0D4175",
"C.	c #104D8B",
"D.	c #0E4377",
"E.	c #0D3C6C",
"F.	c #125192",
"G.	c #0E3F72",
"H.	c #0D3B69",
"I.	c #135496",
"J.	c #0E3F70",
"K.	c #0E3D6D",
"L.	c #0D3A67",
"M.	c #145598",
"N.	c #145597",
"O.	c #134E8B",
"P.	c #124C87",
"Q.	c #0D3660",
"R.	c #144F8C",
"S.	c #0D355C",
"T.	c #185DA4",
"U.	c #185DA3",
"V.	c #175797",
"W.	c #0C2D4F",
"X.	c #0D2F53",
"Y.	c #0D2E4F",
"Z.	c #1E63AA",
"`.	c #2065AB",
" +	c #103357",
".+	c #236CB8",
"++	c #113558",
"@+	c #103152",
"#+	c #0E2B48",
"$+	c #256EB9",
"%+	c #2264AA",
"&+	c #143B63",
"*+	c #0C243C",
"=+	c #2366AB",
"-+	c #153D66",
";+	c #256BB2",
">+	c #276CB4",
",+	c #276CB3",
"'+	c #18436E",
")+	c #163D66",
"!+	c #2A75C0",
"~+	c #18436D",
"{+	c #286CB1",
"]+	c #2C76C2",
"^+	c #2C76C1",
"/+	c #2B6FB5",
"(+	c #2A6DB3",
"_+	c #2A6DB2",
":+	c #3179C3",
"<+	c #2E70B6",
"[+	c #2E70B4",
"}+	c #2F71B5",
"|+	c #204D7B",
"1+	c #347AC4",
"2+	c #357BC3",
"3+	c #3171B5",
"4+	c #23517F",
"5+	c #3272B4",
"6+	c #245180",
"7+	c #275381",
"8+	c #3774B4",
"9+	c #3774B3",
"0+	c #3D7EC2",
"a+	c #3D7EC1",
"b+	c #3975B3",
"c+	c #3975B2",
"d+	c #2A5581",
"e+	c #2F5780",
"f+	c #4175A8",
"g+	c #66A9EC",
"h+	c #6AACED",
"i+	c #95BEE7",
"j+	c #9CBFE1",
"k+	c #0084FF",
"l+	c #0086FF",
"m+	c #063460",
"n+	c #073159",
"o+	c #0D2944",
"p+	c #113557",
"q+	c #0C243B",
"r+	c #6BA7E1",
"s+	c #5B85AD",
"t+	c #9BC7F1",
"u+	c #0088FF",
"v+	c #8DA3B6",
"w+	c #66BAFD",
"x+	c #99D1FC",
"y+	c #FDF1E1",
"z+	c #F2E9DE",
"                        c+c+c+c+c+c+c+c+                                                e+e+e+e+e+e+e+e+                                                r.r.r.r.r.r.r.r.                                                9+9+9+9+9+9+9+9+                                                a+a+a+a+a+a+a+a+                        ",
"                  c+3+%+O.v.n+0.0.n+v.O.%+3+c+                                    e+m l -+@+o+q+q+o+@+-+l m e+                                    r.Z j a _ { ! ! { _ a j Z r.                                    9+<+Z.x.9.N o o N 9.x.Z.<+9+                                    a+1+.+I.g.m+[.[.m+g.I..+1+a+                  ",
"              c+_+R.b.4./.].;.=.=.;.]./.4.b.R._+c+                            e+6+)+Y.S.G.y.m.j.j.m.y.G.S.Y.)+6+e+                            r.n 0 ^ : 5 c k l+l+k c 5 : ^ 0 n r.                            9+,+C.M I F D z y y z D F I M C.,+9+                            a+^+N.2.!...` S P P S ` ..!.2.N.^+a+              ",
"            5+V.8.(.,.; ; ; ; ; ; ; ; ; ; ,.(.8.V.5+                        d+~+X.E.s.- - - - - - - - - - s.E.X.~+d+                        &.e ( 2 f ' ' ' ' ' ' ' ' ' ' f 2 ( e &.                        }+N.J t B , , , , , , , , , , B t J N.}+                        2+U.<.X U > > > > > > > > > > U X <.U.2+            ",
"          (+z.1.'.; ; ; ; ; ; ; ; ; ; ; ; ; ; '.1.z.(+                    6+++Q.t.- - - - - - - - - - - - - - t.Q.++6+                    n } [ g ' ' ' ' ' ' ' ' ' ' ' ' ' ' g [ } n                     >+g.w C , , , , , , , , , , , , , , C w g.>+                    ]+u.$.V > > > > > > > > > > > > > > V $.u.]+          ",
"        _+q.|.*.; ; ; ; ; ; ; ; ; ; ; ; ; ; ; ; *.|.q._+                6+ +K.j.- - - - - - - - - - - - - - - - j.K. +6+                n < 7 u+' ' ' ' ' ' ' ' ' ' ' ' ' ' ' ' u+7 < n                 ,+6.H x , , , , , , , , , , , , , , , , x H 6.,+                ^+i.@.O > > > > > > > > > > > > > > > > O @.i.^+        ",
"      [+q.}.; ; ; ; ; ; ; ; ; ; ; ; ; ; ; ; ; ; ; ; }.q.[+            7+ +J.- - - - - - - - - - - - - - - - - - - - J. +7+            p < 6 ' ' ' ' ' ' ' ' ' ' ' ' ' ' ' ' ' ' ' ' 6 < p             /+a.G , , , , , , , , , , , , , , , , , , , , G a./+            :+i.+.> > > > > > > > > > > > > > > > > > > > +.i.:+      ",
"    c+P.:.; ; ; ; ; ; ; ; ; ; ; ; ; ; ; ; ; ; ; ; ; ; :.P.c+        e+&+L.- - - - - - - - - - - - - - - - - - - - - - L.&+e+        r.b 4 ' ' ' ' ' ' ' ' ' ' ' ' ' ' ' ' ' ' ' ' ' ' 4 b r.        9+w.v , , , , , , , , , , , , , , , , , , , , , , v w.9+        a+F.#.> > > > > > > > > > > > > > > > > > > > > > #.F.a+    ",
"    =+3.;.; ; ; ; ; ; ; ; ; j+; ; ; ; ; ; ; ; ; ; ; ; ;.3.=+        |+X.m.- - - - - - - - - s+- - - - - - - - - - - - m.X.|+        i / k ' ' ' ' ' ' ' ' ' x+' ' ' ' ' ' ' ' ' ' ' ' k / i         `.q z , , , , , , , , , t+, , , , , , , , , , , , z q `.        $+%.S > > > > > > > > > i+> > > > > > > > > > > > S %.$+    ",
"  b+z.^.; ; ; ; ; ; ; ; ; ; y+j+; ; ; ; ; ; ; ; ; ; ; ; ^.z.b+    e+p+D.- - - - - - - - - - v+s+- - - - - - - - - - - - D.p+e+    r.| 9 ' ' ' ' ' ' ' ' ' ' = x+' ' ' ' ' ' ' ' ' ' ' ' 9 | r.    8+d.E , , , , , , , , , , = t+, , , , , , , , , , , , E d.8+    0+o. .> > > > > > > > > > z+i+> > > > > > > > > > > >  .o.0+  ",
"  {+5.-.; ; ; ; ; ; ; ; ; ; y+y+j+; ; ; ; ; ; ; ; ; ; ; -.5.{+    4+W.l.- - - - - - - - - - v+v+s+- - - - - - - - - - - l.W.4+    k ] k+' ' ' ' ' ' ' ' ' ' = = x+' ' ' ' ' ' ' ' ' ' ' k+] k     ;+r L , , , , , , , , , , = = t+, , , , , , , , , , , L r ;+    !+~.R > > > > > > > > > > z+z+i+> > > > > > > > > > > R ~.!+  ",
"c+V._.; ; ; ; ; ; ; ; ; ; ; y+y+y+j+; ; ; ; ; ; ; ; ; ; ; _.V.c+e+'+H.- - - - - - - - - - - v+v+v+s+- - - - - - - - - - - H.'+e+r.d 3 ' ' ' ' ' ' ' ' ' ' ' = = = x+' ' ' ' ' ' ' ' ' ' ' 3 d r.9+M.u , , , , , , , , , , , = = = t+, , , , , , , , , , , u M.9+a+T.Y > > > > > > > > > > > z+z+z+i+> > > > > > > > > > > Y T.a+",
"c+B.).; ; ; ; ; ; ; ; ; ; ; y+y+y+y+j+; ; ; ; ; ; ; ; ; ; ).B.c+e+p+A.- - - - - - - - - - - v+v+v+v+s+- - - - - - - - - - A.p+e+r.1 8 ' ' ' ' ' ' ' ' ' ' ' = = = = x+' ' ' ' ' ' ' ' ' ' 8 1 r.9+e.s , , , , , , , , , , , = = = = t+, , , , , , , , , , s e.9+a+p.W > > > > > > > > > > > z+z+z+z+i+> > > > > > > > > > W p.a+",
"c+h.>.; ; ; ; ; ; ; ; ; ; ; y+y+y+y+y+j+; ; ; ; ; ; ; ; ; >.h.c+e+#+n.- - - - - - - - - - - v+v+v+v+v+s+- - - - - - - - - n.#+e+r.~ h ' ' ' ' ' ' ' ' ' ' ' = = = = = x+' ' ' ' ' ' ' ' ' h ~ r.9+{.A , , , , , , , , , , , = = = = = t+, , , , , , , , , A {.9+a+c.T > > > > > > > > > > > z+z+z+z+z+i+> > > > > > > > > T c.a+",
"c+f.=.; ; ; ; ; ; ; ; ; ; ; y+y+y+y+y+y+j+; ; ; ; ; ; ; ; =.f.c+e+*+k.- - - - - - - - - - - v+v+v+v+v+v+s+- - - - - - - - k.*+e+r.) l+' ' ' ' ' ' ' ' ' ' ' = = = = = = x+' ' ' ' ' ' ' ' l+) r.9+K y , , , , , , , , , , , = = = = = = t+, , , , , , , , y K 9+a+7.Q > > > > > > > > > > > z+z+z+z+z+z+i+> > > > > > > > Q 7.a+",
"c+f.=.; ; ; ; ; ; ; ; ; ; ; y+y+y+y+y+y+y+r+; ; ; ; ; ; ; =.f.c+e+*+k.- - - - - - - - - - - v+v+v+v+v+v+v+f+- - - - - - - k.*+e+r.) l+' ' ' ' ' ' ' ' ' ' ' = = = = = = = w+' ' ' ' ' ' ' l+) r.9+K y , , , , , , , , , , , = = = = = = = h+, , , , , , , y K 9+a+7.Q > > > > > > > > > > > z+z+z+z+z+z+z+g+> > > > > > > Q 7.a+",
"c+h.>.; ; ; ; ; ; ; ; ; ; ; y+y+y+y+y+y+j+; ; ; ; ; ; ; ; >.h.c+e+#+n.- - - - - - - - - - - v+v+v+v+v+v+s+- - - - - - - - n.#+e+r.~ h ' ' ' ' ' ' ' ' ' ' ' = = = = = = x+' ' ' ' ' ' ' ' h ~ r.9+{.A , , , , , , , , , , , = = = = = = t+, , , , , , , , A {.9+a+c.T > > > > > > > > > > > z+z+z+z+z+z+i+> > > > > > > > T c.a+",
"c+B.).; ; ; ; ; ; ; ; ; ; ; y+y+y+y+y+j+; ; ; ; ; ; ; ; ; ).B.c+e+p+A.- - - - - - - - - - - v+v+v+v+v+s+- - - - - - - - - A.p+e+r.1 8 ' ' ' ' ' ' ' ' ' ' ' = = = = = x+' ' ' ' ' ' ' ' ' 8 1 r.9+e.s , , , , , , , , , , , = = = = = t+, , , , , , , , , s e.9+a+p.W > > > > > > > > > > > z+z+z+z+z+i+> > > > > > > > > W p.a+",
"c+V._.; ; ; ; ; ; ; ; ; ; ; y+y+y+y+j+; ; ; ; ; ; ; ; ; ; _.V.c+e+'+H.- - - - - - - - - - - v+v+v+v+s+- - - - - - - - - - H.'+e+r.d 3 ' ' ' ' ' ' ' ' ' ' ' = = = = x+' ' ' ' ' ' ' ' ' ' 3 d r.9+M.u , , , , , , , , , , , = = = = t+, , , , , , , , , , u M.9+a+T.Y > > > > > > > > > > > z+z+z+z+i+> > > > > > > > > > Y T.a+",
"  {+5.-.; ; ; ; ; ; ; ; ; ; y+y+y+j+; ; ; ; ; ; ; ; ; ; -.5.{+    4+W.l.- - - - - - - - - - v+v+v+s+- - - - - - - - - - l.W.4+    k ] k+' ' ' ' ' ' ' ' ' ' = = = x+' ' ' ' ' ' ' ' ' ' k+] k     ;+r L , , , , , , , , , , = = = t+, , , , , , , , , , L r ;+    !+~.R > > > > > > > > > > z+z+z+i+> > > > > > > > > > R ~.!+  ",
"  b+z.^.; ; ; ; ; ; ; ; ; ; y+y+j+; ; ; ; ; ; ; ; ; ; ; ^.z.b+    e+p+D.- - - - - - - - - - v+v+s+- - - - - - - - - - - D.p+e+    r.| 9 ' ' ' ' ' ' ' ' ' ' = = x+' ' ' ' ' ' ' ' ' ' ' 9 | r.    8+d.E , , , , , , , , , , = = t+, , , , , , , , , , , E d.8+    0+o. .> > > > > > > > > > z+z+i+> > > > > > > > > > >  .o.0+  ",
"    =+3.;.; ; ; ; ; ; ; ; ; y+j+; ; ; ; ; ; ; ; ; ; ; ;.3.=+        |+X.m.- - - - - - - - - v+s+- - - - - - - - - - - m.X.|+        i / k ' ' ' ' ' ' ' ' ' = x+' ' ' ' ' ' ' ' ' ' ' k / i         `.q z , , , , , , , , , = t+, , , , , , , , , , , z q `.        $+%.S > > > > > > > > > z+i+> > > > > > > > > > > S %.$+    ",
"    c+P.:.; ; ; ; ; ; ; ; ; j+; ; ; ; ; ; ; ; ; ; ; ; :.P.c+        e+&+L.- - - - - - - - - s+- - - - - - - - - - - - L.&+e+        r.b 4 ' ' ' ' ' ' ' ' ' x+' ' ' ' ' ' ' ' ' ' ' ' 4 b r.        9+w.v , , , , , , , , , t+, , , , , , , , , , , , v w.9+        a+F.#.> > > > > > > > > i+> > > > > > > > > > > > #.F.a+    ",
"      [+q.}.; ; ; ; ; ; ; ; ; ; ; ; ; ; ; ; ; ; ; ; }.q.[+            7+ +J.- - - - - - - - - - - - - - - - - - - - J. +7+            p < 6 ' ' ' ' ' ' ' ' ' ' ' ' ' ' ' ' ' ' ' ' 6 < p             /+a.G , , , , , , , , , , , , , , , , , , , , G a./+            :+i.+.> > > > > > > > > > > > > > > > > > > > +.i.:+      ",
"        _+q.|.*.; ; ; ; ; ; ; ; ; ; ; ; ; ; ; ; *.|.q._+                6+ +K.j.- - - - - - - - - - - - - - - - j.K. +6+                n < 7 u+' ' ' ' ' ' ' ' ' ' ' ' ' ' ' ' u+7 < n                 ,+6.H x , , , , , , , , , , , , , , , , x H 6.,+                ^+i.@.O > > > > > > > > > > > > > > > > O @.i.^+        ",
"          (+z.1.'.; ; ; ; ; ; ; ; ; ; ; ; ; ; '.1.z.(+                    6+++Q.t.- - - - - - - - - - - - - - t.Q.++6+                    n } [ g ' ' ' ' ' ' ' ' ' ' ' ' ' ' g [ } n                     >+g.w C , , , , , , , , , , , , , , C w g.>+                    ]+u.$.V > > > > > > > > > > > > > > V $.u.]+          ",
"            5+V.8.(.,.; ; ; ; ; ; ; ; ; ; ,.(.8.V.5+                        d+~+X.E.s.- - - - - - - - - - s.E.X.~+d+                        &.e ( 2 f ' ' ' ' ' ' ' ' ' ' f 2 ( e &.                        }+N.J t B , , , , , , , , , , B t J N.}+                        2+U.<.X U > > > > > > > > > > U X <.U.2+            ",
"              c+_+R.b.4./.].;.=.=.;.]./.4.b.R._+c+                            e+6+)+Y.S.G.y.m.j.j.m.y.G.S.Y.)+6+e+                            r.n 0 ^ : 5 c k l+l+k c 5 : ^ 0 n r.                            9+,+C.M I F D z y y z D F I M C.,+9+                            a+^+N.2.!...` S P P S ` ..!.2.N.^+a+              ",
"                  c+3+%+O.v.n+0.0.n+v.O.%+3+c+                                    e+m l -+@+o+q+q+o+@+-+l m e+                                    r.Z j a _ { ! ! { _ a j Z r.                                    9+<+Z.x.9.N o o N 9.x.Z.<+9+                                    a+1+.+I.g.m+[.[.m+g.I..+1+a+                  ",
"                        c+c+c+c+c+c+c+c+                                                e+e+e+e+e+e+e+e+                                                r.r.r.r.r.r.r.r.                                                9+9+9+9+9+9+9+9+                                                a+a+a+a+a+a+a+a+                        "};
