/* XPM */
static char * EXTNAVCANCELL_xpm[] = {
"160 30 256 2",
"  	c None",
". 	c #FFFFFF",
"+ 	c #FFFF00",
"@ 	c #FF00FF",
"# 	c #FF0000",
"$ 	c #00FFFF",
"% 	c #00FF00",
"& 	c #0000FF",
"* 	c #000000",
"= 	c #FFFFFA",
"- 	c #F2E9DE",
"; 	c #EFE3D3",
"> 	c #8DA3B6",
", 	c #0F579F",
"' 	c #0A75E1",
") 	c #097EF5",
"! 	c #0674E4",
"~ 	c #008CFF",
"{ 	c #00003E",
"] 	c #FDFDFE",
"^ 	c #000D62",
"/ 	c #000A56",
"( 	c #001676",
"_ 	c #334998",
": 	c #001D80",
"< 	c #002A9B",
"[ 	c #00268C",
"} 	c #F9FAFD",
"| 	c #00298D",
"1 	c #113897",
"2 	c #003CC2",
"3 	c #3355A5",
"4 	c #778DC1",
"5 	c #0048D7",
"6 	c #0043CB",
"7 	c #003BB4",
"8 	c #3367D3",
"9 	c #AABFE9",
"0 	c #005CFD",
"a 	c #0052E8",
"b 	c #0042B7",
"c 	c #1157CE",
"d 	c #0066FF",
"e 	c #0052CD",
"f 	c #006FFF",
"g 	c #1179FF",
"h 	c #88BAFC",
"i 	c #0075FF",
"j 	c #006DF3",
"k 	c #E2ECF8",
"l 	c #007BFF",
"m 	c #295482",
"n 	c #C7D9ED",
"o 	c #ECF2F9",
"p 	c #E2E8EF",
"q 	c #007DFF",
"r 	c #0482FF",
"s 	c #02386F",
"t 	c #0671DD",
"u 	c #056AD1",
"v 	c #0568CC",
"w 	c #0565C7",
"x 	c #02264B",
"y 	c #0555A5",
"z 	c #033669",
"A 	c #065CB2",
"B 	c #05509D",
"C 	c #054F9A",
"D 	c #054C95",
"E 	c #054A90",
"F 	c #043E7A",
"G 	c #032E58",
"H 	c #097BF0",
"I 	c #097AEC",
"J 	c #0874E1",
"K 	c #0761BB",
"L 	c #05498D",
"M 	c #0A85FF",
"N 	c #0972DC",
"O 	c #0970D8",
"P 	c #0758AB",
"Q 	c #096CCF",
"R 	c #0969CA",
"S 	c #0966C5",
"T 	c #085CB0",
"U 	c #07529F",
"V 	c #064687",
"W 	c #0857A6",
"X 	c #085199",
"Y 	c #063C71",
"Z 	c #063B71",
"` 	c #07427D",
" .	c #052B52",
"..	c #073A6D",
"+.	c #07386A",
"@.	c #06315B",
"#.	c #083D74",
"$.	c #073563",
"%.	c #093F75",
"&.	c #06294D",
"*.	c #0B447E",
"=.	c #0B4076",
"-.	c #0F559D",
";.	c #0F549A",
">.	c #0E5193",
",.	c #0E4F90",
"'.	c #0C4680",
").	c #198CFF",
"!.	c #1985F3",
"~.	c #0E4A86",
"{.	c #0D467E",
"].	c #0F4D8B",
"^.	c #197CE0",
"/.	c #1876D7",
"(.	c #0D4276",
"_.	c #0D4175",
":.	c #0C3C6D",
"<.	c #0B345E",
"[.	c #0E4377",
"}.	c #186EC6",
"|.	c #125192",
"1.	c #0E3F71",
"2.	c #208FFF",
"3.	c #135496",
"4.	c #0D3B68",
"5.	c #145597",
"6.	c #124C87",
"7.	c #144F8C",
"8.	c #185DA4",
"9.	c #0C2F53",
"0.	c #17599A",
"a.	c #175797",
"b.	c #288CF2",
"c.	c #2685E5",
"d.	c #0D2E4F",
"e.	c #2477CD",
"f.	c #103357",
"g.	c #246DB9",
"h.	c #2165AB",
"i.	c #103152",
"j.	c #0E2A46",
"k.	c #0C243C",
"l.	c #1C5287",
"m.	c #153C65",
"n.	c #266CB3",
"o.	c #276CB4",
"p.	c #18436E",
"q.	c #2A75C0",
"r.	c #2464A3",
"s.	c #286CB1",
"t.	c #2C76C1",
"u.	c #3893F0",
"v.	c #2766A7",
"w.	c #2B6FB5",
"x.	c #2A6DB2",
"y.	c #25609A",
"z.	c #235B92",
"A.	c #388BDE",
"B.	c #1F4C7B",
"C.	c #2E70B5",
"D.	c #337AC3",
"E.	c #3171B5",
"F.	c #245180",
"G.	c #4598EC",
"H.	c #285787",
"I.	c #275381",
"J.	c #3774B4",
"K.	c #3774B3",
"L.	c #3672AE",
"M.	c #3D7EC2",
"N.	c #3D7EC1",
"O.	c #3975B2",
"P.	c #4792DD",
"Q.	c #54AAFE",
"R.	c #366DA4",
"S.	c #285077",
"T.	c #2F5780",
"U.	c #4986C3",
"V.	c #5CA3EB",
"W.	c #569ADC",
"X.	c #355C83",
"Y.	c #3A638D",
"Z.	c #66A9EC",
"`.	c #4A7BAC",
" +	c #5A90C6",
".+	c #66A1DB",
"++	c #5A8ABA",
"@+	c #77B2EC",
"#+	c #76B0EA",
"$+	c #4B6C8D",
"%+	c #75A8DA",
"&+	c #709DCB",
"*+	c #5C81A5",
"=+	c #6A94BD",
"-+	c #89BBEC",
";+	c #7AA2CA",
">+	c #85AFD8",
",+	c #95BEE7",
"'+	c #84A8CB",
")+	c #A3C9F0",
"!+	c #A4C5E6",
"~+	c #B4CCE4",
"{+	c #C7DDF4",
"]+	c #D4E5F6",
"^+	c #0085FF",
"/+	c #113557",
"(+	c #264665",
"_+	c #678CAF",
":+	c #4A637B",
"<+	c #84B0DA",
"[+	c #7394B2",
"}+	c #93B7D9",
"|+	c #6E879F",
"1+	c #7893AC",
"2+	c #7E9AB3",
"3+	c #768DA2",
"4+	c #B5D4F2",
"5+	c #A3BCD3",
"6+	c #8DA2B5",
"7+	c #92A5B7",
"8+	c #94A7B8",
"9+	c #92A2B1",
"0+	c #1194FF",
"a+	c #229BFE",
"b+	c #33A1FE",
"c+	c #45A9FE",
"d+	c #55B2FD",
"e+	c #869EB3",
"f+	c #91A6B7",
"g+	c #92A6B7",
"h+	c #7F909F",
"i+	c #96A8B7",
"j+	c #B3C6D6",
"k+	c #A2B1BE",
"l+	c #C3D4E3",
"m+	c #66BAFD",
"n+	c #77C2FD",
"o+	c #88C9FC",
"p+	c #99D1FC",
"q+	c #AAD9FC",
"r+	c #95A8B7",
"s+	c #C1CDD6",
"t+	c #D3DBE1",
"u+	c #BBE0FB",
"v+	c #CCE8FB",
"w+	c #EEF1F3",
"x+	c #DDF0FB",
"y+	c #F3F8FB",
"z+	c #EEF7FA",
"A+	c #D0D4D5",
"B+	c #E2E2E0",
"C+	c #E0DCD4",
"D+	c #E3E0DA",
"E+	c #E0D9CE",
"F+	c #E2DED8",
"G+	c #FDFDFD",
"                        O.O.O.O.O.O.O.O.                                                T.T.T.T.T.T.T.T.                                                ).).).).).).).).                                                K.K.K.K.K.K.K.K.                                                N.N.N.N.N.N.N.N.                        ",
"                  O.E.h.7.:.@.&.&.@.:.7.h.E.O.                                    T.m B.m.i.j.k.k.j.i.m.B.m T.                                    ).M j b : / { { / : b j M ).                                    K.C.h.]...G x x G ..].h.C.K.                                    N.D.g.3.=.$. . .$.=.3.g.D.N.                  ",
"              `.++7.+.` U K Q N N Q K U ` +.7.`.++                            $+$+m.d.<.1.~.>.-.-.>.~.1.<.d.m.$+*+                            b+b+b ( < 5 d l ^+^+l d 5 < ( b 2.c+                            ++&+].z F B K u t t u K B F z ]. +;+                            U. +5.Y V P R J H H J R P V Y 5.U. +              ",
"            O.E+; k+}.' ' ' ' ' ' ' ' ' ' S R.E+; =+                        Y.g+f+9+z., , , , , , , , , , ].$+7+6+|+                        2.o G+9 g ~ ~ ~ ~ ~ ~ ~ ~ ~ ~ f 8 w+= Q.                        U.] . p e.! ! ! ! ! ! ! ! ! ! w ++G+. }+                        U.D+- 5+/.) ) ) ) ) ) ) ) ) ) O L.F+- &+            ",
"          x.Y.; ; ; j+' ' ' ' ' ' ' ' ' ' A.C+; ; 3+x.                    F.:+> > > r+, , , , , , , , , , `.f+6+6+h+F.                    q 3 = = = u+~ ~ ~ ~ ~ ~ ~ ~ ~ ~ b+z+= = 4 q                     o.*+. . . o ! ! ! ! ! ! ! ! ! ! V.] . . j+n.                    t.Y.- - - ~+) ) ) ) ) ) ) ) ) ) u.B+- - 1+t.          ",
"        x.=.D }+; ; ; %+' ' ' ' ' ' ' ' ^.s+; ; s+0.=.x.                F.f.:.6+> > > 2+, , , , , , , , r.i+> > i+S.f.F.                q [ 6 p+= = = n+~ ~ ~ ~ ~ ~ ~ ~ 0+v+= = v+c [ q                 n.#.D ]+. . . 4+! ! ! ! ! ! ! ! c.y+. . y+r.#.n.                t.*.y ,+- - - #+) ) ) ) ) ) ) ) !.l+- - l+8.*.t.        ",
"      C.=.X ' ' }+; ; ; P.' ' ' ' ' ' ' }+; ; C+A.' X =.C.            I.f.1., , > > > > *+, , , , , , , > > > f+`., 1.f.I.            r [ 5 ~ ~ p+= = = c+~ ~ ~ ~ ~ ~ ~ p+= = z+b+~ 5 [ r             w.#.C ! ! ]+. . . @+! ! ! ! ! ! ! ]+. . ] V.! C #.w.            D.*.W ) ) ,+- - - G.) ) ) ) ) ) ) ,+- - B+u.) W *.D.      ",
"    O.6.L ' ' ' ' j+; ; A+^.' ' ' ' ' .+; ; ; W.' ' ' L 6.O.        T.m.4., , , , r+> > 8+r., , , , , [+> > > _+, , , 4.m.T.        ).7 7 ~ ~ ~ ~ u+= = x+0+~ ~ ~ ~ ~ m+= = = d+~ ~ ~ 7 7 ).        K.~.L ! ! ! ! o . . } c.! ! ! ! ! )+. . . -+! ! ! L ~.K.        N.|.C ) ) ) ) ~+- - t+!.) ) ) ) ) Z.- - - V.) ) ) C |.N.    ",
"    h.Z Q ' ' ' ' ^.C+; ; j+' ' ' ' c.C+; ; <+' ' ' ' Q Z h.        B.9.>., , , , r.f+> > r+, , , , R.f+> > e+, , , , >.9.B.        j : l ~ ~ ~ ~ 0+z+= = u+~ ~ ~ ~ a+z+= = o+~ ~ ~ ~ l : j         h.s u ! ! ! ! c.] . . o ! ! ! ! G.G+. . {+! ! ! ! u s h.        g.F J ) ) ) ) !.B+- - ~+) ) ) ) b.B+- - -+) ) ) ) J F g.    ",
"  O.(.W ' ' ' ' ' ' P.; ; ; }+' ' ' s+; ; s+' ' ' ' ' ' W (.O.    T./+[., , , , , , *+> > > > , , , i+> > i+, , , , , , [./+T.    ).| a ~ ~ ~ ~ ~ ~ c+= = = p+~ ~ ~ v+= = v+~ ~ ~ ~ ~ ~ a | ).    J.%.y ! ! ! ! ! ! @+. . . ]+! ! ! y+. . y+! ! ! ! ! ! y %.J.    M.'.A ) ) ) ) ) ) G.- - - ,+) ) ) l+- - l+) ) ) ) ) ) A '.M.  ",
"  s.+.O ' ' ' ' ' ' ' %+; ; ; .+' %+; ; ; A.' ' ' ' ' ' O +.s.    F.d.;., , , , , , , 2+> > > [+, 2+> > > `., , , , , , ;.d.F.    l ( ^+~ ~ ~ ~ ~ ~ ~ n+= = = m+~ n+= = = b+~ ~ ~ ~ ~ ~ ^+( l     n.z t ! ! ! ! ! ! ! 4+. . . )+! 4+. . . V.! ! ! ! ! ! t z n.    q.Z I ) ) ) ) ) ) ) #+- - - Z.) #+- - - u.) ) ) ) ) ) I Z q.  ",
"O.a.E ' ' ' ' ' ' ' ' ' }+; ; C+%+; ; ; %+' ' ' ' ' ' ' ' E a.O.T.p.4., , , , , , , , , > > > f+2+> > > 2+, , , , , , , , 4.p.T.).e 2 ~ ~ ~ ~ ~ ~ ~ ~ ~ p+= = z+n+= = = n+~ ~ ~ ~ ~ ~ ~ ~ 2 e ).K.5.E ! ! ! ! ! ! ! ! ! ]+. . ] 4+. . . 4+! ! ! ! ! ! ! ! E 5.K.N.8.B ) ) ) ) ) ) ) ) ) ,+- - B+#+- - - #+) ) ) ) ) ) ) ) B 8.N.",
"O._.T ' ' ' ' ' ' ' ' ' ' s+; ; ; ; ; s+' ' ' ' ' ' ' ' ' T _.O.T./+{., , , , , , , , , , i+> > > > > i+, , , , , , , , , {./+T.).| 0 ~ ~ ~ ~ ~ ~ ~ ~ ~ ~ v+= = = = = v+~ ~ ~ ~ ~ ~ ~ ~ ~ 0 | ).K.#.A ! ! ! ! ! ! ! ! ! ! y+. . . . . y+! ! ! ! ! ! ! ! ! A #.K.N.*.K ) ) ) ) ) ) ) ) ) ) l+- - - - - l+) ) ) ) ) ) ) ) ) K *.N.",
"O.<.R ' ' ' ' ' ' ' ' ' ' ^.C+; ; ; C+c.' ' ' ' ' ' ' ' ' R <.O.T.j.,., , , , , , , , , , r.f+> > > f+R., , , , , , , , , ,.j.T.).^ i ~ ~ ~ ~ ~ ~ ~ ~ ~ ~ 0+z+= = = z+a+~ ~ ~ ~ ~ ~ ~ ~ ~ i ^ ).K.@.v ! ! ! ! ! ! ! ! ! ! c.] . . . ] G.! ! ! ! ! ! ! ! ! v @.K.N.$.N ) ) ) ) ) ) ) ) ) ) !.B+- - - B+b.) ) ) ) ) ) ) ) ) N $.N.",
"O.&.N ' ' ' ' ' ' ' ' ' ' ' s+; ; ; %+' ' ' ' ' ' ' ' ' ' N &.O.T.k.-., , , , , , , , , , , i+> > > 2+, , , , , , , , , , -.k.T.).{ ^+~ ~ ~ ~ ~ ~ ~ ~ ~ ~ ~ v+= = = n+~ ~ ~ ~ ~ ~ ~ ~ ~ ~ ^+{ ).K.x t ! ! ! ! ! ! ! ! ! ! ! y+. . . 4+! ! ! ! ! ! ! ! ! ! t x K.N. .H ) ) ) ) ) ) ) ) ) ) ) l+- - - #+) ) ) ) ) ) ) ) ) ) H  .N.",
"O.&.N ' ' ' ' ' ' ' ' ' ' }+; ; ; ; C+^.' ' ' ' ' ' ' ' ' N &.O.T.k.-., , , , , , , , , , > > > > > f+r., , , , , , , , , -.k.T.).{ ^+~ ~ ~ ~ ~ ~ ~ ~ ~ ~ p+= = = = z+0+~ ~ ~ ~ ~ ~ ~ ~ ~ ^+{ ).K.x t ! ! ! ! ! ! ! ! ! ! ]+. . . . ] c.! ! ! ! ! ! ! ! ! t x K.N. .H ) ) ) ) ) ) ) ) ) ) ,+- - - - B+!.) ) ) ) ) ) ) ) ) H  .N.",
"O.<.R ' ' ' ' ' ' ' ' ' %+; ; ; A+; ; 5+' ' ' ' ' ' ' ' ' R <.O.T.j.,., , , , , , , , , 2+> > > > > > 7+, , , , , , , , , ,.j.T.).^ i ~ ~ ~ ~ ~ ~ ~ ~ ~ n+= = = x+= = q+~ ~ ~ ~ ~ ~ ~ ~ ~ i ^ ).K.@.v ! ! ! ! ! ! ! ! ! 4+. . . . . . k ! ! ! ! ! ! ! ! ! v @.K.N.$.N ) ) ) ) ) ) ) ) ) #+- - - t+- - !+) ) ) ) ) ) ) ) ) N $.N.",
"O._.T ' ' ' ' ' ' ' ' .+; ; ; }+A.; ; ; W.' ' ' ' ' ' ' ' T _.O.T./+{., , , , , , , , [+> > > > `.> > > _+, , , , , , , , {./+T.).| 0 ~ ~ ~ ~ ~ ~ ~ ~ m+= = = p+b+= = = d+~ ~ ~ ~ ~ ~ ~ ~ 0 | ).K.#.A ! ! ! ! ! ! ! ! )+. . . ]+V.. . . -+! ! ! ! ! ! ! ! A #.K.N.*.K ) ) ) ) ) ) ) ) Z.- - - ,+u.- - - V.) ) ) ) ) ) ) ) K '.N.",
"O.a.E ' ' ' ' ' ' ' A.; ; ; }+' ' %+; ; C+^.' ' ' ' ' ' ' E a.O.T.p.4., , , , , , , `.> > > > , , 2+> > f+r., , , , , , , 4.p.T.).e 2 ~ ~ ~ ~ ~ ~ ~ b+= = = p+~ ~ n+= = z+0+~ ~ ~ ~ ~ ~ ~ 2 e ).K.5.E ! ! ! ! ! ! ! V.. . . ]+! ! 4+. . ] c.! ! ! ! ! ! ! E 5.K.N.8.B ) ) ) ) ) ) ) u.- - - ,+) ) #+- - B+!.) ) ) ) ) ) ) B 8.N.",
"  s.+.O ' ' ' ' ' A.C+; ; s+^.' ' ' s+; ; 5+' ' ' ' ' ' O +.s.    F.d.;., , , , , `.f+> > i+r., , , i+> > 7+, , , , , , ;.d.F.    l ( ^+~ ~ ~ ~ ~ b+z+= = v+0+~ ~ ~ v+= = q+~ ~ ~ ~ ~ ~ ^+( l     n.z t ! ! ! ! ! V.] . . y+c.! ! ! y+. . k ! ! ! ! ! ! t z n.    q.Z I ) ) ) ) ) u.B+- - l+!.) ) ) l+- - !+) ) ) ) ) ) I Z q.  ",
"  O.(.W ' ' ' ' ^.s+; ; A+^.' ' ' ' c.; ; ; %+' ' ' ' ' W (.O.    T./+[., , , , r.i+> > 8+r., , , , R.> > > 2+, , , , , [./+T.    ).| a ~ ~ ~ ~ 0+v+= = x+0+~ ~ ~ ~ a+= = = n+~ ~ ~ ~ ~ a | ).    J.%.y ! ! ! ! c.y+. . } c.! ! ! ! G.. . . 4+! ! ! ! ! y %.J.    M.'.A ) ) ) ) !.l+- - t+!.) ) ) ) b.- - - #+) ) ) ) ) A '.M.  ",
"    h.Z Q ' ' ^.s+; ; C+A.' ' ' ' ' ' %+; ; C+A.' ' ' Q Z h.        B.9.>., , r.i+> > f+`., , , , , , 2+> > f+`., , , >.9.B.        j : l ~ ~ 0+v+= = z+b+~ ~ ~ ~ ~ ~ n+= = z+b+~ ~ ~ l : j         h.s u ! ! c.y+. . ] V.! ! ! ! ! ! 4+. . ] V.! ! ! u s h.        g.F J ) ) !.l+- - B+u.) ) ) ) ) ) #+- - B+u.) ) ) J F g.    ",
"    O.6.L ' ' j+; ; ; P.' ' ' ' ' ' ' ' s+; ; s+^.' ' L 6.O.        T.m.4., , r+> > > *+, , , , , , , , i+> > i+r., , 4.m.T.        ).7 7 ~ ~ u+= = = c+~ ~ ~ ~ ~ ~ ~ ~ v+= = v+0+~ ~ 7 7 ).        K.~.L ! ! o . . . @+! ! ! ! ! ! ! ! y+. . y+c.! ! L ~.K.        N.|.C ) ) ~+- - - G.) ) ) ) ) ) ) ) l+- - l+!.) ) C |.N.    ",
"      C.=.X <+; ; ; .+' ' ' ' ' ' ' ' ' A.; ; ; }+' X =.C.            I.f.1.e+> > > [+, , , , , , , , , `.> > > > , 1.f.I.            r [ 5 o+= = = m+~ ~ ~ ~ ~ ~ ~ ~ ~ b+= = = p+~ 5 [ r             w.#.C {+. . . )+! ! ! ! ! ! ! ! ! V.. . . ]+! C #.w.            D.*.y -+- - - Z.) ) ) ) ) ) ) ) ) u.- - - ,+) W *.D.      ",
"        x.=.; ; ; %+' ' ' ' ' ' ' ' ' ' ' %+; ; ; R.=.x.                F.f.> > > 2+, , , , , , , , , , , 2+> > > $+f.F.                q [ = = = n+~ ~ ~ ~ ~ ~ ~ ~ ~ ~ ~ n+= = = 8 [ q                 n.#.. . . 4+! ! ! ! ! ! ! ! ! ! ! 4+. . . ++#.n.                t.*.- - - #+) ) ) ) ) ) ) ) ) ) ) #+- - - L.*.t.        ",
"          x.3+; '+' ' ' ' ' ' ' ' ' ' ' ' ' }+; E+B.x.                    F.h+> e+, , , , , , , , , , , , , > > f+(+F.                    q 4 = h ~ ~ ~ ~ ~ ~ ~ ~ ~ ~ ~ ~ ~ p+= w+1 q                     o.j+. n ! ! ! ! ! ! ! ! ! ! ! ! ! ]+. ] H.o.                    t.1+- >+) ) ) ) ) ) ) ) ) ) ) ) ) ,+- F+l.t.          ",
"            E.a...D S ' ' ' ' ' ' ' ' ' ' S D X.y.E.                        m p.9.:.]., , , , , , , , , , ].:.:+S.m                         M e : 6 f ~ ~ ~ ~ ~ ~ ~ ~ ~ ~ f 6 _ c M                         C.5.s D w ! ! ! ! ! ! ! ! ! ! w D *+R.C.                        D.8.F U O ) ) ) ) ) ) ) ) ) ) O U Y.v.D.            ",
"              O.x.7.+.` U K Q N N Q K U ` +.7.x.O.                            T.F.m.d.<.1.~.>.-.-.>.~.1.<.d.m.F.T.                            ).q b ( < 5 d l ^+^+l d 5 < ( b q ).                            K.n.].z F B K u t t u K B F z ].n.K.                            N.t.5.Y V P R J H H J R P V Y 5.q.N.              ",
"                  O.E.h.7.:.@.&.&.@.:.7.h.E.O.                                    T.m B.m.i.j.k.k.j.i.m.B.m T.                                    ).M j b : / { { / : b j M ).                                    K.C.h.]...G x x G ..].h.C.K.                                    N.D.g.3.=.$. . .$.=.3.g.D.N.                  ",
"                        O.O.O.O.O.O.O.O.                                                T.T.T.T.T.T.T.T.                                                ).).).).).).).).                                                K.K.K.K.K.K.K.K.                                                N.N.N.N.N.N.N.N.                        "};
