/* XPM */
static char * EXTNAVINSERTT_xpm[] = {
"100 20 264 2",
"  	c None",
". 	c #2A67A6",
"+ 	c #2A629B",
"@ 	c #285D92",
"# 	c #244E78",
"$ 	c #254A70",
"% 	c #23476A",
"& 	c #0C72EA",
"* 	c #1167D3",
"= 	c #115FC1",
"- 	c #2766A6",
"; 	c #27609B",
"> 	c #255B92",
", 	c #2C6FB4",
"' 	c #2C69A8",
") 	c #2A639E",
"! 	c #2565A6",
"~ 	c #175089",
"{ 	c #0E4F92",
"] 	c #0956A2",
"^ 	c #0859AB",
"/ 	c #214C78",
"( 	c #183E64",
"_ 	c #123D6A",
": 	c #0F4174",
"< 	c #0E447B",
"[ 	c #046DE8",
"} 	c #0444B1",
"| 	c #0044C4",
"1 	c #004FD0",
"2 	c #0058C1",
"3 	c #2263A6",
"4 	c #134E89",
"5 	c #0A4D91",
"6 	c #0653A1",
"7 	c #0457AC",
"8 	c #276DB4",
"9 	c #185594",
"0 	c #0E559E",
"a 	c #095CAF",
"b 	c #0760B9",
"c 	c #195796",
"d 	c #084F98",
"e 	c #0968C8",
"f 	c #0A75E1",
"g 	c #19436D",
"h 	c #0D3D6E",
"i 	c #0E4E8F",
"j 	c #0F579F",
"k 	c #0352CA",
"l 	c #0043BB",
"m 	c #0072F5",
"n 	c #008CFF",
"o 	c #165596",
"p 	c #044D99",
"q 	c #0566CA",
"r 	c #0674E4",
"s 	c #1A5EA2",
"t 	c #0755A5",
"u 	c #0870D9",
"v 	c #097EF5",
"w 	c #14508E",
"x 	c #095AAC",
"y 	c #0A72DB",
"z 	c #163E67",
"A 	c #0F457C",
"B 	c #0F549B",
"C 	c #0046BA",
"D 	c #0058D2",
"E 	c #0086FF",
"F 	c #104E8E",
"G 	c #0558AD",
"H 	c #0671DE",
"I 	c #155699",
"J 	c #0861BB",
"K 	c #097AEE",
"L 	c #185491",
"M 	c #0960B7",
"N 	c #18406A",
"O 	c #0F4983",
"P 	c #014CC0",
"Q 	c #0063E0",
"R 	c #145291",
"S 	c #055EB8",
"T 	c #185A9D",
"U 	c #0867C7",
"V 	c #2564A4",
"W 	c #095098",
"X 	c #0A72DC",
"Y 	c #157AE1",
"Z 	c #358BE1",
"` 	c #1C7EE1",
" .	c #214B77",
"..	c #0E3E6E",
"+.	c #0F559C",
"@.	c #155AA0",
"#.	c #2664A3",
"$.	c #185CA1",
"%.	c #076AE6",
"&.	c #0046BC",
"*.	c #0087FC",
"=.	c #0B91FF",
"-.	c #2DA1FE",
";.	c #1294FF",
">.	c #2263A5",
",.	c #064E99",
"'.	c #0671DF",
").	c #117AE5",
"!.	c #328DE9",
"~.	c #187EE6",
"{.	c #266BB2",
"].	c #0856A5",
"^.	c #097BF0",
"/.	c #1282F4",
"(.	c #2D8FF2",
"_.	c #1785F4",
":.	c #154F8B",
"<.	c #096ACC",
"[.	c #4794E1",
"}.	c #FDF1E1",
"|.	c #6FA9E1",
"1.	c #163E65",
"2.	c #0F5091",
"3.	c #2E6AA5",
"4.	c #8DA3B6",
"5.	c #4476A8",
"6.	c #0444B2",
"7.	c #0077F7",
"8.	c #40A9FE",
"9.	c #FFFFFA",
"0.	c #6ABCFD",
"a.	c #114D8B",
"b.	c #0669CE",
"c.	c #4496EA",
"d.	c #FEFEFD",
"e.	c #6DAEEF",
"f.	c #155596",
"g.	c #0872DD",
"h.	c #3C95F0",
"i.	c #D3DBE1",
"j.	c #5DA5ED",
"k.	c #2C6AA9",
"l.	c #0D5196",
"m.	c #0A74E0",
"n.	c #26507A",
"o.	c #113F6D",
"p.	c #0F569E",
"q.	c #0D77EF",
"r.	c #0047C2",
"s.	c #008BFF",
"t.	c #2969AA",
"u.	c #094F96",
"v.	c #0673E2",
"w.	c #2E72B8",
"x.	c #0C56A2",
"y.	c #097DF4",
"z.	c #286098",
"A.	c #095AAB",
"B.	c #1279E1",
"C.	c #2C86E1",
"D.	c #3088E1",
"E.	c #63A2E1",
"F.	c #85B4E1",
"G.	c #23496F",
"H.	c #0F457B",
"I.	c #135AA0",
"J.	c #2161A2",
"K.	c #2363A3",
"L.	c #3D73A8",
"M.	c #4F7DAB",
"N.	c #1063CF",
"O.	c #0058DE",
"P.	c #0890FF",
"Q.	c #239CFE",
"R.	c #289EFE",
"S.	c #5EB6FD",
"T.	c #81C6FD",
"U.	c #255E98",
"V.	c #0659AC",
"W.	c #0E79E5",
"X.	c #2887E8",
"Y.	c #2D89E8",
"Z.	c #61A6ED",
"`.	c #83BAF1",
" +	c #2A67A5",
".+	c #0960B8",
"++	c #1081F4",
"@+	c #258BF2",
"#+	c #288CF2",
"$+	c #53A0EE",
"%+	c #6FADEB",
"&+	c #265A8E",
"*+	c #095FB7",
"=+	c #2E88E1",
"-+	c #B8CEE1",
";+	c #D2DBE1",
">+	c #DCE0E1",
",+	c #E3E4E1",
"'+	c #224568",
")+	c #0E4883",
"!+	c #2262A2",
"~+	c #698DB0",
"{+	c #7795B2",
"]+	c #7C99B3",
"^+	c #809BB4",
"/+	c #1059BB",
"(+	c #0063D2",
"_+	c #269DFE",
":+	c #B7DFFC",
"<+	c #D2EBFB",
"[+	c #DDF0FB",
"}+	c #E4F3FB",
"|+	c #23588E",
"1+	c #2B89E8",
"2+	c #B8D7F6",
"3+	c #D2E5F9",
"4+	c #DDECFA",
"5+	c #E4EFFA",
"6+	c #28609A",
"7+	c #0866C6",
"8+	c #278CF2",
"9+	c #9AC0E7",
"0+	c #AFCAE5",
"a+	c #B8CEE4",
"b+	c #BED1E3",
"c+	c #348BE1",
"d+	c #DDE0E1",
"e+	c #2564A3",
"f+	c #2DA0FE",
"g+	c #318CE8",
"h+	c #DDEBFA",
"i+	c #328CE8",
"j+	c #2C8EF2",
"k+	c #3089E1",
"l+	c #B9CFE1",
"m+	c #6A8EB0",
"n+	c #7696B2",
"o+	c #809BB3",
"p+	c #B8DFFB",
"q+	c #D2EAFB",
"r+	c #DDF0FA",
"s+	c #E4F3FA",
"t+	c #2D8AE8",
"u+	c #B9D7F6",
"v+	c #D2E5F8",
"w+	c #B9D8F6",
"x+	c #298DF2",
"y+	c #9BC1E6",
"z+	c #AFCAE4",
"A+	c #328AE1",
"B+	c #ACC8E1",
"C+	c #4E97E1",
"D+	c #2464A3",
"E+	c #638AAE",
"F+	c #326CA5",
"G+	c #2A9FFE",
"H+	c #AAD9FC",
"I+	c #47ACFE",
"J+	c #2F8BE8",
"K+	c #ABD0F5",
"L+	c #4B9AEB",
"M+	c #2B8EF2",
"N+	c #90BCE8",
"O+	c #4198F0",
"              . + @ @ + .                             # $ % % $ #                             & * = = * &                             - ; > > ; -                             , ' ) ) ' ,               ",
"          ! ~ { ] ^ ^ ] { ~ !                     / ( _ : < < : _ ( /                     [ } | 1 2 2 1 | } [                     3 4 5 6 7 7 6 5 4 3                     8 9 0 a b b a 0 9 8           ",
"        c d e f f f f f f e d c                 g h i j j j j j j i h g                 k l m n n n n n n m l k                 o p q r r r r r r q p o                 s t u v v v v v v u t s         ",
"      w x y f f f f f f f f y x w             z A B j j j j j j j j B A z             C D E n n n n n n n n E D C             F G H r r r r r r r r H G F             I J K v v v v v v v v K J I       ",
"    L M f f f f f f f f f f f f M L         N O j j j j j j j j j j j j O N         P Q n n n n n n n n n n n n Q P         R S r r r r r r r r r r r r S R         T U v v v v v v v v v v v v U T     ",
"  V W X f f f f Y Z Z ` f f f f X W V      ...+.j j j j @.#.#.$.j j j j +... .    %.&.*.n n n n =.-.-.;.n n n n *.&.%.    >.,.'.r r r r ).!.!.~.r r r r '.,.>.    {.].^.v v v v /.(.(._.v v v v ^.].{.  ",
"  :.<.f f f f f [.}.}.|.f f f f f <.:.    1.2.j j j j j 3.4.4.5.j j j j j 2.1.    6.7.n n n n n 8.9.9.0.n n n n n 7.6.    a.b.r r r r r c.d.d.e.r r r r r b.a.    f.g.v v v v v h.i.i.j.v v v v v g.f.  ",
"k.l.m.f f f f f [.}.}.|.f f f f f m.l.k.n.o.p.j j j j j 3.4.4.5.j j j j j p.o.n.q.r.s.n n n n n 8.9.9.0.n n n n n s.r.q.t.u.v.r r r r r c.d.d.e.r r r r r v.u.t.w.x.y.v v v v v h.i.i.j.v v v v v y.x.w.",
"z.A.f f f B.C.D.E.}.}.F.D.C.B.f f f A.z.G.H.j j j I.J.K.L.4.4.M.K.J.I.j j j H.G.N.O.n n n P.Q.R.S.9.9.T.R.Q.P.n n n O.N.U.V.r r r W.X.Y.Z.d.d.`.Y.X.W.r r r V.U. +.+v v v ++@+#+$+i.i.%+#+@+++v v v .+ +",
"&+*+f f f =+-+;+>+}.}.,+;+-+=+f f f *+&+'+)+j j j !+~+{+]+4.4.^+{+~+!+j j j )+'+/+(+n n n _+:+<+[+9.9.}+<+:+_+n n n (+/+|+S r r r 1+2+3+4+d.d.5+3+2+1+r r r S |+6+7+v v v 8+9+0+a+i.i.b+0+9+8+v v v 7+6+",
"&+*+f f f c+d+}.}.}.}.}.}.>+c+f f f *+&+'+)+j j j e+]+4.4.4.4.4.4.]+e+j j j )+'+/+(+n n n f+[+9.9.9.9.9.9.[+f+n n n (+/+|+S r r r g+h+d.d.d.d.d.d.4+i+r r r S |+6+7+v v v j+a+i.i.i.i.i.i.a+j+v v v 7+6+",
"z.A.f f f k+l+;+>+}.}.,+;+l+k+f f f A.z.G.H.j j j K.m+n+]+4.4.o+n+m+K.j j j H.G.N.O.n n n R.p+q+r+9.9.s+q+p+R.n n n O.N.U.V.r r r t+u+v+4+d.d.5+v+w+t+r r r V.U. +.+v v v x+y+z+a+i.i.b+z+y+x+v v v .+ +",
"k.l.m.f f f f f [.}.}.|.f f f f f m.l.k.n.o.p.j j j j j 3.4.4.5.j j j j j p.o.n.q.r.s.n n n n n 8.9.9.0.n n n n n s.r.q.t.u.v.r r r r r c.d.d.e.r r r r r v.u.t.w.x.y.v v v v v h.i.i.j.v v v v v y.x.w.",
"  :.<.f f f f f [.}.}.|.f f f f f <.:.    1.2.j j j j j 3.4.4.5.j j j j j 2.1.    6.7.n n n n n 8.9.9.0.n n n n n 7.6.    a.b.r r r r r c.d.d.e.r r r r r b.a.    f.g.v v v v v h.i.i.j.v v v v v g.f.  ",
"  V W X f f f f A+B+B+C+f f f f X W V      ...+.j j j j D+E+E+F+j j j j +... .    %.&.*.n n n n G+H+H+I+n n n n *.&.%.    >.,.'.r r r r J+K+K+L+r r r r '.,.>.    {.].^.v v v v M+N+N+O+v v v v ^.].{.  ",
"    L M f f f f f f f f f f f f M L         N O j j j j j j j j j j j j O N         P Q n n n n n n n n n n n n Q P         R S r r r r r r r r r r r r S R         T U v v v v v v v v v v v v U T     ",
"      w x y f f f f f f f f y x w             z A B j j j j j j j j B A z             C D E n n n n n n n n E D C             F G H r r r r r r r r H G F             I J K v v v v v v v v K J I       ",
"        c d e f f f f f f e d c                 g h i j j j j j j i h g                 k l m n n n n n n m l k                 o p q r r r r r r q p o                 s t u v v v v v v u t s         ",
"          ! ~ { ] ^ ^ ] { ~ !                     / ( _ : < < : _ ( /                     [ } | 1 2 2 1 | } [                     3 4 5 6 7 7 6 5 4 3                     8 9 0 a b b a 0 9 8           ",
"              . + @ @ + .                             # $ % % $ #                             & * = = * &                             - ; > > ; -                             , ' ) ) ' ,               "};
