/* XPM */
static char * EXTNAVPOSTL_xpm[] = {
"160 30 251 2",
"  	c None",
". 	c #FFFFFF",
"+ 	c #FFFF00",
"@ 	c #FF00FF",
"# 	c #FF0000",
"$ 	c #00FFFF",
"% 	c #00FF00",
"& 	c #0000FF",
"* 	c #000000",
"= 	c #00003F",
"- 	c #00003D",
"; 	c #000D62",
"> 	c #000A56",
", 	c #001577",
"' 	c #001775",
") 	c #001B82",
"! 	c #001B80",
"~ 	c #001F7F",
"{ 	c #002A9B",
"] 	c #00268C",
"^ 	c #002EA7",
"/ 	c #002A90",
"( 	c #002A8E",
"_ 	c #00288C",
": 	c #003FC7",
"< 	c #003BC0",
"[ 	c #0039BA",
"} 	c #0049DB",
"| 	c #0047D3",
"1 	c #0043CB",
"2 	c #005CFD",
"3 	c #0052E8",
"4 	c #0043B8",
"5 	c #0041B6",
"6 	c #003DAE",
"7 	c #0066FF",
"8 	c #0052CD",
"9 	c #0052CB",
"0 	c #006BFF",
"a 	c #006FFF",
"b 	c #0075FF",
"c 	c #006FF3",
"d 	c #006BF2",
"e 	c #007BFF",
"f 	c #1F4B7A",
"g 	c #295482",
"h 	c #007DFF",
"i 	c #01264A",
"j 	c #0482FF",
"k 	c #02386F",
"l 	c #023569",
"m 	c #045AB1",
"n 	c #034B94",
"o 	c #034990",
"p 	c #03488D",
"q 	c #034283",
"r 	c #0674E4",
"s 	c #0672E0",
"t 	c #0671DF",
"u 	c #0671DE",
"v 	c #056AD1",
"w 	c #056AD0",
"x 	c #0568CC",
"y 	c #0565C7",
"z 	c #0563C3",
"A 	c #055FBA",
"B 	c #0455A6",
"C 	c #04509E",
"D 	c #044F9A",
"E 	c #044D97",
"F 	c #033F7C",
"G 	c #03386E",
"H 	c #02264B",
"I 	c #0670DB",
"J 	c #033668",
"K 	c #032E58",
"L 	c #097EF5",
"M 	c #097CF1",
"N 	c #097BF0",
"O 	c #097BEF",
"P 	c #097AEC",
"Q 	c #0874E1",
"R 	c #0874E0",
"S 	c #0871DC",
"T 	c #086ED6",
"U 	c #086CD2",
"V 	c #0763BF",
"W 	c #0653A0",
"X 	c #06509C",
"Y 	c #0A84FF",
"Z 	c #0868C9",
"` 	c #075DB3",
" .	c #0758AB",
"..	c #0757A7",
"+.	c #0755A3",
"@.	c #064F99",
"#.	c #06498E",
"$.	c #053E79",
"%.	c #0B86FF",
"&.	c #0A75E1",
"*.	c #0A73DE",
"=.	c #0A72DD",
"-.	c #0A72DC",
";.	c #0A71D9",
">.	c #096CCF",
",.	c #096CCE",
"'.	c #0969CB",
").	c #0966C5",
"!.	c #0964C1",
"~.	c #085CB0",
"{.	c #064687",
"].	c #053B72",
"^.	c #04305D",
"/.	c #0961B9",
"(.	c #0857A5",
"_.	c #08529E",
":.	c #074D94",
"<.	c #074B90",
"[.	c #074A8D",
"}.	c #063E78",
"|.	c #042B51",
"1.	c #08519A",
"2.	c #084F96",
"3.	c #074483",
"4.	c #063C71",
"5.	c #063A70",
"6.	c #07427D",
"7.	c #06376A",
"8.	c #073D74",
"9.	c #052B53",
"0.	c #073A6F",
"a.	c #073A6D",
"b.	c #05294C",
"c.	c #083D74",
"d.	c #073869",
"e.	c #073666",
"f.	c #093F76",
"g.	c #093E74",
"h.	c #06294D",
"i.	c #0A447E",
"j.	c #0A4077",
"k.	c #08335F",
"l.	c #0B447E",
"m.	c #0F579F",
"n.	c #0F559D",
"o.	c #0F559C",
"p.	c #0F549A",
"q.	c #0E5193",
"r.	c #0E5192",
"s.	c #0E4F90",
"t.	c #0C4680",
"u.	c #0C457E",
"v.	c #0B4075",
"w.	c #198CFF",
"x.	c #0E4D8C",
"y.	c #0E4B8A",
"z.	c #0D4781",
"A.	c #0B3C6E",
"B.	c #0E4A87",
"C.	c #0C4075",
"D.	c #0F4C8A",
"E.	c #0E4984",
"F.	c #0D4277",
"G.	c #0E467E",
"H.	c #0D4276",
"I.	c #0D4175",
"J.	c #104D8B",
"K.	c #0E4377",
"L.	c #0D3C6C",
"M.	c #125192",
"N.	c #0E3F72",
"O.	c #0D3B69",
"P.	c #135496",
"Q.	c #0E3F70",
"R.	c #0E3D6D",
"S.	c #0D3A67",
"T.	c #145598",
"U.	c #145597",
"V.	c #134E8B",
"W.	c #124C87",
"X.	c #0D3660",
"Y.	c #144F8C",
"Z.	c #0D355C",
"`.	c #185DA4",
" +	c #185DA3",
".+	c #0C2F53",
"++	c #175797",
"@+	c #0C2D4F",
"#+	c #175796",
"$+	c #0D2F53",
"%+	c #0D2E4F",
"&+	c #1E63AA",
"*+	c #2065AB",
"=+	c #103357",
"-+	c #236CB8",
";+	c #113558",
">+	c #103152",
",+	c #0E2B48",
"'+	c #113457",
")+	c #256EB9",
"!+	c #2264AA",
"~+	c #143B63",
"{+	c #0C243C",
"]+	c #2366AB",
"^+	c #153D66",
"/+	c #256BB2",
"(+	c #276CB4",
"_+	c #276CB3",
":+	c #18436E",
"<+	c #163D66",
"[+	c #2A75C0",
"}+	c #18436D",
"|+	c #286CB1",
"1+	c #2C76C2",
"2+	c #2C76C1",
"3+	c #2B6FB5",
"4+	c #2A6DB3",
"5+	c #2A6DB2",
"6+	c #3179C3",
"7+	c #2E70B6",
"8+	c #2E70B4",
"9+	c #2F71B5",
"0+	c #204D7B",
"a+	c #347AC4",
"b+	c #357BC3",
"c+	c #3171B5",
"d+	c #23517F",
"e+	c #3272B4",
"f+	c #245180",
"g+	c #275381",
"h+	c #3774B4",
"i+	c #3774B3",
"j+	c #3D7EC2",
"k+	c #3D7EC1",
"l+	c #3975B3",
"m+	c #3975B2",
"n+	c #2A5581",
"o+	c #2F5780",
"p+	c #0084FF",
"q+	c #0086FF",
"r+	c #063460",
"s+	c #073159",
"t+	c #0D2944",
"u+	c #113557",
"v+	c #0C243B",
"w+	c #0088FF",
"x+	c #008CFF",
"y+	c #8DA3B6",
"z+	c #FFFFFA",
"A+	c #EFE3D3",
"B+	c #F2E9DE",
"                        m+m+m+m+m+m+m+m+                                                o+o+o+o+o+o+o+o+                                                w.w.w.w.w.w.w.w.                                                i+i+i+i+i+i+i+i+                                                k+k+k+k+k+k+k+k+                        ",
"                  m+c+!+V.A.s+b.b.s+A.V.!+c+m+                                    o+g f ^+>+t+v+v+t+>+^+f g o+                                    w.Y d 5 ~ > - - > ~ 5 d Y w.                                    i+7+&+D.a.K i i K a.D.&+7+i+                                    k+a+-+P.j.r+|.|.r+j.P.-+a+k+                  ",
"              m+5+Y.d.6._./.>.=.=.>./._.6.d.Y.5+m+                            o+f+<+%+Z.N.E.q.n.n.q.E.N.Z.%+<+f+o+                            w.h 4 ' { } 7 e q+q+e 7 } { ' 4 h w.                            i+_+J.J F C A v t t v A C F J J._+i+                            k+2+U.4.{. .Z Q N N Q Z  .{.4.U.2+k+              ",
"            e+#+0.:.).&.&.&.&.&.&.&.&.&.&.).:.0.#+e+                        n+}+$+L.x.m.m.m.m.m.m.m.m.m.m.x.L.$+}+n+                        %.9 ! : a x+x+x+x+x+x+x+x+x+x+a : ! 9 %.                        9+U.G n y r r r r r r r r r r y n G U.9+                        b+ +}.W T L L L L L L L L L L T W }. +b+            ",
"          4+F.3.!.&.&.&.&.&.&.&.&.&.&.&.&.&.&.!.3.F.4+                    f+;+X.y.m.m.m.m.m.m.m.m.m.m.m.m.m.m.y.X.;+f+                    h / ^ 0 x+x+x+x+x+x+x+x+x+x+x+x+x+x+0 ^ / h                     (+j.q z r r r r r r r r r r r r r r z q j.(+                    1+z.#.U L L L L L L L L L L L L L L U #.z.1+          ",
"        5+v.2.*.&.&.&.&.&.&.&.&.&.&.&.&.&.&.&.&.*.2.v.5+                f+=+R.n.m.m.m.m.m.m.m.m.m.m.m.m.m.m.m.m.n.R.=+f+                h ] 1 w+x+x+x+x+x+x+x+x+x+x+x+x+x+x+x+x+w+z+] h                 _+8.E s r r r r r r r r r r r r r r r r s E 8._+                2+i.+.M L L L L L L L L L L L L L L L L M +.i.2+        ",
"      8+C.1.&.&.&.&.&.&.&.&.&.&.&.&.&.&.&.&.&.&.A+&.1.C.8+            g+=+Q.m.m.m.m.m.m.m.m.m.m.m.m.m.m.m.m.m.m.y+m.Q.=+g+            j ] | x+x+x+x+x+x+x+x+x+x+x+x+x+x+x+x+x+z+z+x+| ] j             3+c.D r r r r r r r r r r r r r r r r r r r z+D c.3+            6+l...L L L L L L L L L L L L L L L L L L L B+..l.6+      ",
"    m+W.[.&.&.&.&.&.&.&.&.&.&.&.&.&.&.&.&.&.A+A+&.&.&.[.W.m+        o+~+S.m.m.m.m.m.m.m.m.m.m.m.m.m.m.m.m.m.y+y+m.m.m.S.~+o+        w.6 [ x+x+x+x+x+x+x+x+x+x+x+x+x+x+x+x+x+z+z+x+x+x+[ 6 w.        i+B.p r r r r r r r r r r r r r r r r r r z+z+r r p B.i+        k+M.@.L L L L L L L L L L L L L L L L L L B+B+L L @.M.k+    ",
"    ]+5.,.&.&.&.&.&.&.&.&.&.&.&.&.&.&.&.&.A+A+&.&.&.&.,.5.]+        0+.+r.m.m.m.m.m.m.m.m.m.m.m.m.m.m.m.m.y+y+m.m.m.m.r..+0+        c ) e x+x+x+x+x+x+x+x+x+x+x+x+x+x+x+x+z+z+x+x+x+x+e ) c         *+k w r r r r r r r r r r r r r r r r r z+z+r r r w k *+        )+$.R L L L L L L L L L L L L L L L L L B+B+L L L R $.)+    ",
"  l+H.(.&.&.&.&.&.&.&.&.&.&.&.&.&.&.&.&.A+A+&.&.&.&.&.&.(.H.l+    o+u+K.m.m.m.m.m.m.m.m.m.m.m.m.m.m.m.m.y+y+m.m.m.m.m.m.K.u+o+    w.( 3 x+x+x+x+x+x+x+x+x+x+x+x+x+x+x+x+z+z+x+x+x+x+x+x+3 ( w.    h+f.B r r r r r r r r r r r r r r r r r z+z+r r r r r B f.h+    j+t.` L L L L L L L L L L L L L L L L L B+B+L L L L L ` t.j+  ",
"  |+7.;.&.&.&.&.&.&.&.&.&.&.&.&.&.&.&.A+A+&.&.&.&.&.&.&.;.7.|+    d+@+p.m.m.m.m.m.m.m.m.m.m.m.m.m.m.m.y+y+m.m.m.m.m.m.m.p.@+d+    e , p+x+x+x+x+x+x+x+x+x+x+x+x+x+x+z+z+z+x+x+x+x+x+x+x+p+, e     /+l I r r r r r r r r r r r r r r r r z+z+r r r r r r I l /+    [+].P L L L L L L L L L L L L L L L L B+B+L L L L L L P ].[+  ",
"m+++<.&.&.&.&.&.&.&.&.&.&.&.&.&.&.A+A+A+&.&.&.&.&.&.&.&.&.<.++m+o+:+O.m.m.m.m.m.m.m.m.m.m.m.m.m.m.y+y+y+m.m.m.m.m.m.m.m.m.O.:+o+w.8 < x+x+x+x+x+x+x+x+x+x+x+x+x+x+x+z+z+x+x+x+x+x+x+x+x+x+< 8 w.i+T.o r r r r r r r r r r r r r r r z+z+z+r r r r r r r r o T.i+k+`.X L L L L L L L L L L L L L L L B+B+B+L L L L L L L L X `.k+",
"m+I.~.&.&.&.&.&.&.&.&.&.&.&.&.&.&.A+A+&.&.&.&.&.&.&.&.&.&.~.I.m+o+'+G.m.m.m.m.m.m.m.m.m.m.m.m.m.m.y+y+m.m.m.m.m.m.m.m.m.m.G.'+o+w._ 2 x+x+x+x+x+x+x+x+x+x+x+x+x+x+z+z+x+x+x+x+x+x+x+x+x+x+2 _ w.i+g.m r r r r r r r r r r r r r r r z+z+r r r r r r r r r m g.i+k+u.V L L L L L L L L L L L L L L L B+B+L L L L L L L L L V u.k+",
"m+k.'.&.&.&.&.&.&.&.&.&.&.&.&.&.A+A+&.&.&.&.&.&.&.&.&.&.&.'.k.m+o+,+s.m.m.m.m.m.m.m.m.m.m.m.m.m.y+y+m.m.m.m.m.m.m.m.m.m.m.s.,+o+w.; b x+x+x+x+x+x+x+x+x+x+x+x+x+z+z+z+x+x+x+x+x+x+x+x+x+x+b ; w.i+^.x r r r r r r r r r r r r r r z+z+r r r r r r r r r r x ^.i+k+e.S L L L L L L L L L L L L L L B+B+L L L L L L L L L L S e.k+",
"m+h.-.&.&.&.&.&.&.&.&.&.&.&.&.A+A+A+&.&.&.&.&.&.&.&.&.&.&.-.h.m+o+{+o.m.m.m.m.m.m.m.m.m.m.m.m.y+y+y+m.m.m.m.m.m.m.m.m.m.m.o.{+o+w.= q+x+x+x+x+x+x+x+x+x+x+x+x+z+z+z+x+x+x+x+x+x+x+x+x+x+x+q+= w.i+H u r r r r r r r r r r r r r z+z+z+r r r r r r r r r r u H i+k+9.O L L L L L L L L L L L L L B+B+B+L L L L L L L L L L O 9.k+",
"m+h.-.&.&.&.&.&.&.&.&.&.&.&.A+A+A+&.&.&.&.&.&.&.&.&.&.&.&.-.h.m+o+{+o.m.m.m.m.m.m.m.m.m.m.m.y+y+y+m.m.m.m.m.m.m.m.m.m.m.m.o.{+o+w.= q+x+x+x+x+z+z+z+x+x+x+x+z+z+z+x+x+x+x+x+x+x+x+x+x+x+x+q+= w.i+H u r r r r r r r r r r r r z+z+z+r r r r r r r r r r r u H i+k+9.O L L L L L L L L L L L L B+B+B+L L L L L L L L L L L O 9.k+",
"m+k.'.&.&.&.A+A+A+&.&.&.&.A+A+A+&.&.&.&.&.&.&.&.&.&.&.&.&.'.k.m+o+,+s.m.m.m.y+y+y+m.m.m.m.y+y+y+m.m.m.m.m.m.m.m.m.m.m.m.m.s.,+o+w.; b x+x+x+z+z+z+z+z+x+x+z+z+z+x+x+x+x+x+x+x+x+x+x+x+x+x+b ; w.i+^.x r r r r z+z+z+r r r r z+z+z+r r r r r r r r r r r r x ^.i+k+e.S L L L L B+B+B+L L L L B+B+B+L L L L L L L L L L L L S e.k+",
"m+I.~.&.&.A+A+A+A+A+&.&.A+A+A+&.&.&.&.&.&.&.&.&.&.&.&.&.&.~.I.m+o+'+G.m.m.y+y+y+y+y+m.m.y+y+y+m.m.m.m.m.m.m.m.m.m.m.m.m.m.G.'+o+w._ 2 x+x+x+x+z+z+z+z+x+x+z+z+z+x+x+x+x+x+x+x+x+x+x+x+x+x+2 _ w.i+g.m r r r z+z+z+z+z+r r z+z+z+r r r r r r r r r r r r r m g.i+k+u.V L L L B+B+B+B+B+L L B+B+B+L L L L L L L L L L L L L V u.k+",
"m+++<.&.&.&.A+A+A+A+&.&.A+A+A+&.&.&.&.&.&.&.&.&.&.&.&.&.&.<.++m+o+:+O.m.m.m.y+y+y+y+m.m.y+y+y+m.m.m.m.m.m.m.m.m.m.m.m.m.m.O.:+o+w.8 < x+x+x+x+x+z+z+z+z+z+z+z+x+x+x+x+x+x+x+x+x+x+x+x+x+x+< 8 w.i+T.o r r r r z+z+z+z+r r z+z+z+r r r r r r r r r r r r r o T.i+k+`.X L L L L B+B+B+B+L L B+B+B+L L L L L L L L L L L L L X `.k+",
"  |+7.;.&.&.&.A+A+A+A+A+A+A+&.&.&.&.&.&.&.&.&.&.&.&.&.&.;.7.|+    d+@+p.m.m.m.y+y+y+y+y+y+y+m.m.m.m.m.m.m.m.m.m.m.m.m.m.p.@+d+    e , p+x+x+x+x+x+z+z+z+z+z+z+x+x+x+x+x+x+x+x+x+x+x+x+x+p+, e     /+l I r r r r z+z+z+z+z+z+z+r r r r r r r r r r r r r I l /+    [+].P L L L L B+B+B+B+B+B+B+L L L L L L L L L L L L L P ].[+  ",
"  l+H.(.&.&.&.&.A+A+A+A+A+A+&.&.&.&.&.&.&.&.&.&.&.&.&.&.(.H.l+    o+u+K.m.m.m.m.y+y+y+y+y+y+m.m.m.m.m.m.m.m.m.m.m.m.m.m.K.u+o+    w.( 3 x+x+x+x+x+z+z+z+z+z+x+x+x+x+x+x+x+x+x+x+x+x+x+x+3 ( w.    h+f.B r r r r r z+z+z+z+z+z+r r r r r r r r r r r r r B f.h+    j+t.` L L L L L B+B+B+B+B+B+L L L L L L L L L L L L L ` t.j+  ",
"    ]+5.,.&.&.&.A+A+A+A+A+&.&.&.&.&.&.&.&.&.&.&.&.&.&.,.5.]+        0+.+r.m.m.m.y+y+y+y+y+m.m.m.m.m.m.m.m.m.m.m.m.m.m.r..+0+        c ) e x+x+x+x+x+z+z+z+z+x+x+x+x+x+x+x+x+x+x+x+x+x+e ) c         *+k w r r r r z+z+z+z+z+r r r r r r r r r r r r r w k *+        )+$.R L L L L B+B+B+B+B+L L L L L L L L L L L L L R $.)+    ",
"    m+W.[.&.&.&.&.A+A+A+A+&.&.&.&.&.&.&.&.&.&.&.&.&.&.[.W.m+        o+~+S.m.m.m.m.y+y+y+y+m.m.m.m.m.m.m.m.m.m.m.m.m.m.S.~+o+        w.6 [ x+x+x+x+x+z+z+x+x+x+x+x+x+x+x+x+x+x+x+x+x+x+[ 6 w.        i+B.p r r r r r z+z+z+z+r r r r r r r r r r r r r p B.i+        k+M.@.L L L L L B+B+B+B+L L L L L L L L L L L L L @.M.k+    ",
"      8+C.1.&.&.&.A+A+&.&.&.&.&.&.&.&.&.&.&.&.&.&.&.1.C.8+            g+=+Q.m.m.m.y+y+m.m.m.m.m.m.m.m.m.m.m.m.m.m.m.Q.=+g+            j ] | x+x+x+x+z+x+x+x+x+x+x+x+x+x+x+x+x+x+x+x+| ] j             3+c.D r r r r z+z+r r r r r r r r r r r r r r D c.3+            6+l...L L L L B+B+L L L L L L L L L L L L L L ..l.6+      ",
"        5+v.2.*.&.A+&.&.&.&.&.&.&.&.&.&.&.&.&.&.*.2.v.5+                f+=+R.n.m.y+m.m.m.m.m.m.m.m.m.m.m.m.m.m.n.R.=+f+                h ] 1 w+x+x+x+x+x+x+x+x+x+x+x+x+x+x+x+x+w+1 ] h                 _+8.E s r r z+r r r r r r r r r r r r r s E 8._+                2+i.+.M L L B+L L L L L L L L L L L L L M +.i.2+        ",
"          4+F.3.!.&.&.&.&.&.&.&.&.&.&.&.&.&.&.!.3.F.4+                    f+;+X.y.m.m.m.m.m.m.m.m.m.m.m.m.m.m.y.X.;+f+                    h / ^ 0 x+x+x+x+x+x+x+x+x+x+x+x+x+x+0 ^ / h                     (+j.q z r r r r r r r r r r r r r r z q j.(+                    1+z.#.U L L L L L L L L L L L L L L U #.z.1+          ",
"            e+#+0.:.).&.&.&.&.&.&.&.&.&.&.).:.0.#+e+                        n+}+$+L.x.m.m.m.m.m.m.m.m.m.m.x.L.$+}+n+                        %.9 ! : a x+x+x+x+x+x+x+x+x+x+a : ! 9 %.                        9+U.G n y r r r r r r r r r r y n G U.9+                        b+ +}.W T L L L L L L L L L L T W }. +b+            ",
"              m+5+Y.d.6._./.>.=.=.>./._.6.d.Y.5+m+                            o+f+<+%+Z.N.E.q.n.n.q.E.N.Z.%+<+f+o+                            w.h 4 ' { } 7 e q+q+e 7 } { ' 4 h w.                            i+_+J.J F C A v t t v A C F J J._+i+                            k+2+U.4.{. .Z Q N N Q Z  .{.4.U.2+k+              ",
"                  m+c+!+V.A.s+b.b.s+A.V.!+c+m+                                    o+g f ^+>+t+v+v+t+>+^+f g o+                                    w.Y d 5 ~ > - - > ~ 5 d Y w.                                    i+7+&+D.a.K i i K a.D.&+7+i+                                    k+a+-+P.j.r+|.|.r+j.P.-+a+k+                  ",
"                        m+m+m+m+m+m+m+m+                                                o+o+o+o+o+o+o+o+                                                w.w.w.w.w.w.w.w.                                                i+i+i+i+i+i+i+i+                                                k+k+k+k+k+k+k+k+                        "};
