/* XPM */
static char * EXTNAVNEXTT_xpm[] = {
"100 20 248 2",
"  	c None",
". 	c #2A67A6",
"+ 	c #2A629B",
"@ 	c #285D92",
"# 	c #244E78",
"$ 	c #254A70",
"% 	c #23476A",
"& 	c #0C71EA",
"* 	c #1167D3",
"= 	c #115FC1",
"- 	c #2766A6",
"; 	c #27609B",
"> 	c #255B92",
", 	c #2C6FB4",
"' 	c #2C69A8",
") 	c #2A639E",
"! 	c #2565A6",
"~ 	c #174F89",
"{ 	c #0E4F92",
"] 	c #0A55A1",
"^ 	c #0859AB",
"/ 	c #214C78",
"( 	c #183E64",
"_ 	c #123D6A",
": 	c #0F4174",
"< 	c #0E447B",
"[ 	c #046DE9",
"} 	c #0444B1",
"| 	c #0043C3",
"1 	c #004FD0",
"2 	c #0058C1",
"3 	c #2263A6",
"4 	c #144E89",
"5 	c #0A4D91",
"6 	c #0653A1",
"7 	c #0457AC",
"8 	c #276DB4",
"9 	c #185594",
"0 	c #0D559E",
"a 	c #095BAF",
"b 	c #0760B9",
"c 	c #195796",
"d 	c #084F98",
"e 	c #0968C8",
"f 	c #0A75E1",
"g 	c #19436D",
"h 	c #0D3D6E",
"i 	c #0E4E8F",
"j 	c #0F579F",
"k 	c #0352C9",
"l 	c #0043BC",
"m 	c #0073F6",
"n 	c #008CFF",
"o 	c #165596",
"p 	c #044D98",
"q 	c #0567CB",
"r 	c #0674E4",
"s 	c #1A5EA2",
"t 	c #0755A4",
"u 	c #0870DA",
"v 	c #097EF5",
"w 	c #14508E",
"x 	c #095AAC",
"y 	c #0A71DA",
"z 	c #163E67",
"A 	c #0F457C",
"B 	c #0F549B",
"C 	c #0046BA",
"D 	c #0058D2",
"E 	c #0085FF",
"F 	c #104E8E",
"G 	c #0558AD",
"H 	c #0670DD",
"I 	c #155699",
"J 	c #0861BB",
"K 	c #097AEE",
"L 	c #175491",
"M 	c #0960B7",
"N 	c #18406A",
"O 	c #0F4983",
"P 	c #014CC0",
"Q 	c #0063E0",
"R 	c #145291",
"S 	c #055EB8",
"T 	c #185A9D",
"U 	c #0867C7",
"V 	c #2564A4",
"W 	c #095098",
"X 	c #0A72DC",
"Y 	c #2281E1",
"Z 	c #2E88E1",
"` 	c #214B77",
" .	c #0E3E6E",
"..	c #0F559C",
"+.	c #1C5FA1",
"@.	c #2262A2",
"#.	c #076BE6",
"$.	c #0046BC",
"%.	c #0087FC",
"&.	c #1A98FE",
"*.	c #269DFE",
"=.	c #2263A5",
"-.	c #054E99",
";.	c #0671DF",
">.	c #1F82E6",
",.	c #2B89E7",
"'.	c #276CB2",
").	c #0856A5",
"!.	c #097BF0",
"~.	c #2089F3",
"{.	c #2C8EF2",
"].	c #154F8B",
"^.	c #096ACC",
"/.	c #4794E1",
"(.	c #D5DCE1",
"_.	c #2884E1",
":.	c #163E65",
"<.	c #0F5091",
"[.	c #2E6AA5",
"}.	c #7896B2",
"|.	c #1F61A2",
"1.	c #0444B2",
"2.	c #0077F7",
"3.	c #40A9FE",
"4.	c #D4ECFB",
"5.	c #209AFE",
"6.	c #114D8B",
"7.	c #0569CE",
"8.	c #4497EA",
"9.	c #D5E8F6",
"0.	c #2585E7",
"a.	c #155596",
"b.	c #0872DE",
"c.	c #4399EF",
"d.	c #CBD7E2",
"e.	c #268BF2",
"f.	c #2C6AA9",
"g.	c #0D5196",
"h.	c #0A74E0",
"i.	c #FDF1E1",
"j.	c #B2CBE1",
"k.	c #26507A",
"l.	c #113F6D",
"m.	c #0F569E",
"n.	c #8DA3B6",
"o.	c #668CAF",
"p.	c #0D77EF",
"q.	c #0046C0",
"r.	c #008BFF",
"s.	c #FFFFFA",
"t.	c #B0DCFC",
"u.	c #2969AA",
"v.	c #094F96",
"w.	c #0673E2",
"x.	c #B2D4F3",
"y.	c #2E72B8",
"z.	c #0C56A2",
"A.	c #097DF4",
"B.	c #F2E9DE",
"C.	c #AAC8E5",
"D.	c #286098",
"E.	c #095AAB",
"F.	c #BCD0E1",
"G.	c #23496F",
"H.	c #0F457B",
"I.	c #6C8FB0",
"J.	c #1063CF",
"K.	c #0058DE",
"L.	c #BBE0FB",
"M.	c #255E98",
"N.	c #0558AC",
"O.	c #BCDAF4",
"P.	c #2A67A5",
"Q.	c #0861BA",
"R.	c #B4CCE4",
"S.	c #265A8E",
"T.	c #095FB7",
"U.	c #F9EFE1",
"V.	c #A4C3E1",
"W.	c #167BE1",
"X.	c #224568",
"Y.	c #0E4883",
"Z.	c #8BA2B6",
"`.	c #5F87AE",
" +	c #155BA0",
".+	c #1059BB",
"++	c #0063D2",
"@+	c #FBFDFA",
"#+	c #A2D5FC",
"$+	c #0D92FF",
"%+	c #23588E",
"&+	c #A4CCF2",
"*+	c #127BE5",
"=+	c #28609A",
"-+	c #0866C6",
";+	c #EEE7DE",
">+	c #9DC2E6",
",+	c #1583F4",
"'+	c #EDE9E1",
")+	c #4D97E1",
"!+	c #859EB4",
"~+	c #326CA5",
"{+	c #EEF7FA",
"]+	c #46ACFE",
"^+	c #EEF6F8",
"/+	c #4B9AEA",
"(+	c #E2E2E0",
"_+	c #499CEF",
":+	c #F5EDE1",
"<+	c #7CAFE1",
"[+	c #1078E1",
"}+	c #89A0B5",
"|+	c #4A7BAA",
"1+	c #1259A0",
"2+	c #F6FBFA",
"3+	c #77C2FD",
"4+	c #068FFF",
"5+	c #F7FAF9",
"6+	c #7AB5EE",
"7+	c #0C77E5",
"8+	c #EAE5DF",
"9+	c #76B0EA",
"0+	c #0F81F4",
"a+	c #F1EBE1",
"b+	c #879FB5",
"c+	c #F2F9FA",
"d+	c #F2F8F9",
"e+	c #E6E4DF",
"f+	c #8CB7E1",
"g+	c #5280AB",
"h+	c #88C9FC",
"i+	c #8BBEF0",
"j+	c #85B7E9",
"k+	c #3F90E1",
"l+	c #96BCE1",
"m+	c #2A67A4",
"n+	c #5883AC",
"o+	c #37A5FE",
"p+	c #93CEFC",
"q+	c #3C92E9",
"r+	c #95C4F1",
"s+	c #3C95F0",
"t+	c #8FBBE8",
"u+	c #1C7EE1",
"v+	c #185DA1",
"w+	c #1395FF",
"x+	c #197EE6",
"y+	c #1A86F3",
"              . + @ @ + .                             # $ % % $ #                             & * = = * &                             - ; > > ; -                             , ' ) ) ' ,               ",
"          ! ~ { ] ^ ^ ] { ~ !                     / ( _ : < < : _ ( /                     [ } | 1 2 2 1 | } [                     3 4 5 6 7 7 6 5 4 3                     8 9 0 a b b a 0 9 8           ",
"        c d e f f f f f f e d c                 g h i j j j j j j i h g                 k l m n n n n n n m l k                 o p q r r r r r r q p o                 s t u v v v v v v u t s         ",
"      w x y f f f f f f f f y x w             z A B j j j j j j j j B A z             C D E n n n n n n n n E D C             F G H r r r r r r r r H G F             I J K v v v v v v v v K J I       ",
"    L M f f f f f f f f f f f f M L         N O j j j j j j j j j j j j O N         P Q n n n n n n n n n n n n Q P         R S r r r r r r r r r r r r S R         T U v v v v v v v v v v v v U T     ",
"  V W X f f f f Y Z f f f f f f X W V     `  ...j j j j +.@.j j j j j j .. .`     #.$.%.n n n n &.*.n n n n n n %.$.#.    =.-.;.r r r r >.,.r r r r r r ;.-.=.    '.).!.v v v v ~.{.v v v v v v !.).'.  ",
"  ].^.f f f f f /.(._.f f f f f f ^.].    :.<.j j j j j [.}.|.j j j j j j <.:.    1.2.n n n n n 3.4.5.n n n n n n 2.1.    6.7.r r r r r 8.9.0.r r r r r r 7.6.    a.b.v v v v v c.d.e.v v v v v v b.a.  ",
"f.g.h.f f f f f /.i.j.Y f f f f f h.g.f.k.l.m.j j j j j [.n.o.+.j j j j j m.l.k.p.q.r.n n n n n 3.s.t.&.n n n n n r.q.p.u.v.w.r r r r r 8.s.x.>.r r r r r w.v.u.y.z.A.v v v v v c.B.C.~.v v v v v A.z.y.",
"D.E.f f f f f f /.i.i.F.Y f f f f f E.D.G.H.j j j j j j [.n.n.I.+.j j j j j H.G.J.K.n n n n n n 3.s.s.L.&.n n n n n K.J.M.N.r r r r r r 8.s.s.O.>.r r r r r N.M.P.Q.v v v v v v c.B.B.R.~.v v v v v Q.P.",
"S.T.f f f f f f /.i.i.U.V.W.f f f f T.S.X.Y.j j j j j j [.n.n.Z.`. +j j j j Y.X..+++n n n n n n 3.s.s.@+#+$+n n n n ++.+%+S r r r r r r 8.s.s.@+&+*+r r r r S %+=+-+v v v v v v c.B.B.;+>+,+v v v v -+=+",
"S.T.f f f f f f /.i.i.i.'+)+f f f f T.S.X.Y.j j j j j j [.n.n.n.!+~+j j j j Y.X..+++n n n n n n 3.s.s.s.{+]+n n n n ++.+%+S r r r r r r 8.s.s.s.^+/+r r r r S %+=+-+v v v v v v c.B.B.B.(+_+v v v v -+=+",
"D.E.f f f f f f /.i.i.:+<+[+f f f f E.D.G.H.j j j j j j [.n.n.}+|+1+j j j j H.G.J.K.n n n n n n 3.s.s.2+3+4+n n n n K.J.M.N.r r r r r r 8.s.s.5+6+7+r r r r N.M.P.Q.v v v v v v c.B.B.8+9+0+v v v v Q.P.",
"f.g.h.f f f f f /.i.a+<+f f f f f h.g.f.k.l.m.j j j j j [.n.b+|+j j j j j m.l.k.p.q.r.n n n n n 3.s.c+3+n n n n n r.q.p.u.v.w.r r r r r 8.s.d+6+r r r r r w.v.u.y.z.A.v v v v v c.B.e+9+v v v v v A.z.y.",
"  ].^.f f f f f /.i.f+W.f f f f f ^.].    :.<.j j j j j [.n.g+ +j j j j j <.:.    1.2.n n n n n 3.s.h+$+n n n n n 2.1.    6.7.r r r r r 8.s.i+*+r r r r r 7.6.    a.b.v v v v v c.B.j+,+v v v v v b.a.  ",
"  V W X f f f f k+l+f f f f f f X W V     `  ...j j j j m+n+j j j j j j .. .`     #.$.%.n n n n o+p+n n n n n n %.$.#.    =.-.;.r r r r q+r+r r r r r r ;.-.=.    '.).!.v v v v s+t+v v v v v v !.).'.  ",
"    L M f f f f W.u+f f f f f f M L         N O j j j j  +v+j j j j j j O N         P Q n n n n $+w+n n n n n n Q P         R S r r r r *+x+r r r r r r S R         T U v v v v ,+y+v v v v v v U T     ",
"      w x y f f f f f f f f y x w             z A B j j j j j j j j B A z             C D E n n n n n n n n E D C             F G H r r r r r r r r H G F             I J K v v v v v v v v K J I       ",
"        c d e f f f f f f e d c                 g h i j j j j j j i h g                 k l m n n n n n n m l k                 o p q r r r r r r q p o                 s t u v v v v v v u t s         ",
"          ! ~ { ] ^ ^ ] { ~ !                     / ( _ : < < : _ ( /                     [ } | 1 2 2 1 | } [                     3 4 5 6 7 7 6 5 4 3                     8 9 0 a b b a 0 9 8           ",
"              . + @ @ + .                             # $ % % $ #                             & * = = * &                             - ; > > ; -                             , ' ) ) ' ,               "};
