/* XPM */
static char * EXTNAVSETBOOKMARKL_xpm[] = {
"160 30 256 2",
"  	c None",
". 	c #FFFFFF",
"+ 	c #FFFF00",
"@ 	c #FF00FF",
"# 	c #FF0000",
"$ 	c #00FFFF",
"% 	c #00FF00",
"& 	c #0000FF",
"* 	c #000000",
"= 	c #AD7B08",
"- 	c #0F579F",
"; 	c #0A75E1",
"> 	c #097EF5",
", 	c #0674E4",
"' 	c #008CFF",
") 	c #00003E",
"! 	c #000D62",
"~ 	c #000A56",
"{ 	c #001676",
"] 	c #001C80",
"^ 	c #002A9B",
"/ 	c #00288D",
"( 	c #003BBF",
"_ 	c #0036AB",
": 	c #0057F3",
"< 	c #004BD0",
"[ 	c #0042B7",
"} 	c #006BF8",
"| 	c #0073FF",
"1 	c #007BFF",
"2 	c #204C7B",
"3 	c #6D7680",
"4 	c #676F78",
"5 	c #007DFF",
"6 	c #0672E0",
"7 	c #0671DD",
"8 	c #0568CC",
"9 	c #02264B",
"0 	c #066BD2",
"a 	c #0665C5",
"b 	c #065CB1",
"c 	c #05509D",
"d 	c #054E99",
"e 	c #032E58",
"f 	c #097CF1",
"g 	c #097BF0",
"h 	c #097AEC",
"i 	c #0874E1",
"j 	c #0760BA",
"k 	c #05498E",
"l 	c #054484",
"m 	c #0863C0",
"n 	c #0758AB",
"o 	c #0756A5",
"p 	c #064C92",
"q 	c #053E7A",
"r 	c #0B85FF",
"s 	c #0A72DC",
"t 	c #096ACC",
"u 	c #07529F",
"v 	c #05396F",
"w 	c #053769",
"x 	c #08519A",
"y 	c #084F96",
"z 	c #07427D",
"A 	c #073C73",
"B 	c #052B52",
"C 	c #06315C",
"D 	c #073563",
"E 	c #06294D",
"F 	c #0A4076",
"G 	c #0F559D",
"H 	c #0F549A",
"I 	c #0E5092",
"J 	c #0C457E",
"K 	c #198CFF",
"L 	c #0D4781",
"M 	c #0E4A86",
"N 	c #0F4C8B",
"O 	c #0D4276",
"P 	c #0D3C6D",
"Q 	c #125192",
"R 	c #0E3F71",
"S 	c #0D3B68",
"T 	c #145597",
"U 	c #134E8A",
"V 	c #0D365E",
"W 	c #185DA4",
"X 	c #175797",
"Y 	c #0E3053",
"Z 	c #0D2D4D",
"` 	c #103357",
" .	c #246DB9",
"..	c #2165AB",
"+.	c #113558",
"@.	c #153C65",
"#.	c #276CB3",
"$.	c #18436E",
"%.	c #2C76C1",
"&.	c #2A6EB3",
"*.	c #2E70B5",
"=.	c #337AC3",
"-.	c #3272B5",
";.	c #245180",
">.	c #3774B4",
",.	c #3774B3",
"'.	c #3D7EC2",
").	c #3D7EC1",
"!.	c #3975B2",
"~.	c #295481",
"{.	c #2F5780",
"].	c #627384",
"^.	c #697A8B",
"/.	c #8A98A6",
"(.	c #9CA9B6",
"_.	c #6E7780",
":.	c #757E87",
"<.	c #7B848D",
"[.	c #AFBAC5",
"}.	c #A8B1BA",
"|.	c #BBC4CD",
"1.	c #0185FF",
"2.	c #0C263E",
"3.	c #627383",
"4.	c #617282",
"5.	c #6F8090",
"6.	c #838F9A",
"7.	c #0088FF",
"8.	c #CCCCA9",
"9.	c #FFFFDC",
"0.	c #CCCCC4",
"a.	c #FFFFF7",
"b.	c #F3F3EB",
"c.	c #FAF8CB",
"d.	c #F3EB90",
"e.	c #FFF79C",
"f.	c #CCC47D",
"g.	c #CCB40F",
"h.	c #F3DB36",
"i.	c #F3DB3E",
"j.	c #F3E367",
"k.	c #FFEF73",
"l.	c #F3E36F",
"m.	c #FFEF7B",
"n.	c #F4E479",
"o.	c #FFEF84",
"p.	c #FAF1B0",
"q.	c #CCB41B",
"r.	c #CCB427",
"s.	c #F3DB46",
"t.	c #FFE74E",
"u.	c #F3DB4E",
"v.	c #CBB845",
"w.	c #F3DB57",
"x.	c #FFE760",
"y.	c #CCBA54",
"z.	c #FFEF8C",
"A.	c #F3E388",
"B.	c #FFEF94",
"C.	c #FEEF9D",
"D.	c #CCAB04",
"E.	c #CCAB0F",
"F.	c #F3D225",
"G.	c #F3D22D",
"H.	c #FFDE31",
"I.	c #F3D236",
"J.	c #FFDE39",
"K.	c #CCB433",
"L.	c #FFE042",
"M.	c #F3DB5F",
"N.	c #EBD25F",
"O.	c #FFE76B",
"P.	c #F4DC68",
"Q.	c #FFE773",
"R.	c #EBD66A",
"S.	c #CCBC66",
"T.	c #F3E290",
"U.	c #D1C795",
"V.	c #F3C80C",
"W.	c #FFD418",
"X.	c #F3CA19",
"Y.	c #EBC21D",
"Z.	c #FFD621",
"`.	c #FFD629",
" +	c #F7CE29",
".+	c #DBBA2D",
"++	c #EAC636",
"@+	c #F3D23E",
"#+	c #FFDE4A",
"$+	c #F2D147",
"%+	c #FFDE52",
"&+	c #DBC257",
"*+	c #F7DE73",
"=+	c #F4DE81",
"-+	c #CCA200",
";+	c #C49B00",
">+	c #B89205",
",+	c #D2A915",
"'+	c #CBA71A",
")+	c #DDB420",
"!+	c #D6AD21",
"~+	c #B7961C",
"{+	c #E5BC27",
"]+	c #DAB943",
"^+	c #E6C549",
"/+	c #C8AA42",
"(+	c #EAC952",
"_+	c #C4AB51",
":+	c #EBD278",
"<+	c #FFE78C",
"[+	c #C4B47A",
"}+	c #A98309",
"|+	c #97760F",
"1+	c #DEB539",
"2+	c #E7C963",
"3+	c #B4A369",
"4+	c #FFE79C",
"5+	c #A37A00",
"6+	c #B48507",
"7+	c #A78118",
"8+	c #CAA434",
"9+	c #B39234",
"0+	c #D8B755",
"a+	c #E8D49D",
"b+	c #A97803",
"c+	c #B68714",
"d+	c #B68B20",
"e+	c #C49727",
"f+	c #D8B765",
"g+	c #B49B59",
"h+	c #C4AB69",
"i+	c #DBC280",
"j+	c #E8CF8D",
"k+	c #F7DE9C",
"l+	c #A16F00",
"m+	c #936602",
"n+	c #A16F04",
"o+	c #A9780C",
"p+	c #AD7B10",
"q+	c #DEBD73",
"r+	c #AD7300",
"s+	c #B49B69",
"t+	c #A16700",
"u+	c #835400",
"v+	c #7A4800",
"w+	c #7A4000",
"x+	c #F6F6F6",
"y+	c #EFEFEF",
"z+	c #E7E7E7",
"A+	c #DEDEDE",
"B+	c #DDDDDD",
"C+	c #D6D6D6",
"D+	c #D5D5D5",
"E+	c #CECECE",
"F+	c #C6C6C6",
"G+	c #BCBCBC",
"                        !.!.!.!.!.!.!.!.                                                {.{.{.{.{.{.{.{.                                                K K K K K K K K                                                 ,.,.,.,.,.,.,.,.                                                ).).).).).).).).                        ",
"                  !.-...U P C E E C P U ..-.!.                                    {.~.2 @.Y 2.2.2.2.Y @.2 ~.{.                                    K r } [ ] ~ ) ) ~ ] [ } r K                                     ,.*...N v e 9 9 e v N ..*.,.                                    ).=. .T F D B B D F T  .=.).                  ",
"              !.&.U w z u j t s s t j u z w U &.!.                            {.;.@.Z V R M I G G I M R V Z @.;.{.                            K 5 [ { ^ < } 1 1.1.1 } < ^ { [ 5 K                             ,.#.N w q c j 0 6 6 0 j c q w N #.,.                            ).%.T A l n t i g g i t n l A T %.).              ",
"            -.X v p a ; ; ; ; l+l+; ; ; ; a p v X -.                        ~.$.Y P N - - - - 3 3.- - - - N P Y $.~.                        r < ] ( | ' ' ' ' = = ' ' 7.' | ( ] < r                         *.T v p a , , , , = = , , , , a p v T *.                        =.W q u 0 > > > > v+v+> > > > 0 u q W =.            ",
"          &.O l m ; ; ; ; ; l+U.f+l+; ; ; ; ; m l O &.                    ;.+.V N - - - - - 3 |.(.4.- - - - - N V +.;.                    5 / _ } ' ' ' ' ' = a+q+= ' ' ' ' ' } _ / 5                     #.F l a , , , , , = a+q+= , , , , , a l F #.                    %.L k 0 > > > > > v+s+9+v+> > > > > 0 k L %.          ",
"        &.F y s ; ; ; ; ; ; l+b.p.n+; ; ; ; ; ; s y F &.                ;.` P G - - - - - - 3 . x+3.- - - - - - G P ` ;.                5 / < 1.' ' ' ' ' ' = a.c.= ' ' ' ' ' ' 7.< / 1                 #.A d 6 , , , , , , = a.c.= , , , , , , 6 d A #.                %.J o f > > > > > > v+0.U.v+> > > > > > f o J %.        ",
"      *.F x ; ; ; ; ; ; ; ; l+c.k+l+; ; ; ; ; ; ; ; x F *.            ~.` R - - - - - - - - 3 x+y+3.- - - - - - - - R ` ~.            1./ < ' ' ' ' ' ' ' ' = 9.p.= ' ' ' ' ' ' ' 7.< / 1.            &.A d , , , , , , , , = 9.p.= , , , , , , , , d A &.            =.J o > > > > > > > > v+8.f.v+> > > > > > > > o J =.      ",
"    !.U k ; ; ; ; ; ; ; ; l+n+p.A.l+l+; ; ; ; ; ; ; ; k U !.        {.@.S - - - - - - - - _.3 x+z+3.3.- - - - - - - - S @.{.        K _ ( 7.' ' ' ' ' ' ' = = c.B.= = ' ' ' ' ' ' ' ' ( _ K         ,.M k , , , , , , , , = = c.B.= = , , , , , , , , k M ,.        ).Q d > > > > > > > > v+v+U.S.v+v+> > > > > > > > d Q ).    ",
"    ..v t ; ; ; ; ; ; ; ; l+U.T.l.8+l+; ; ; ; ; ; ; ; t v ..        2 Y I - - - - - - - - 3 C+z+z+}.3.- - - - - - - - I Y 2         } ] 1 ' ' ' ' ' ' ' ' = a+C.m.1+= ' ' ' ' ' ' ' ' 1 ] }         ..v 0 , , , , , , , , = a+C.m.1+= , , , , , , , , 0 v ..         .q i > > > > > > > > v+3+S.v.}+v+> > > > > > > > i q  .    ",
"  !.O o ; ; ; ; ; ; ; ; ; l+j+n.w..+l+; ; ; ; ; ; ; ; ; o O !.    {.+.O - - - - - - - - - 3 A+z+A+G+3.- - - - - - - - - O +.{.    K / : ' ' ' ' ' ' ' ' ' = k+o.x.++= ' ' ' ' ' ' ' ' ' : / K     >.F o , , , , , , , , , = k+o.x.++= , , , , , , , , , o F >.    '.L b > > > > > > > > > v+h+y.K.>+v+> > > > > > > > > b L '.  ",
"  #.w s ; ; ; ; ; ; ; ; ; l+T.w.@+Y.l+; ; ; ; ; ; ; ; ; s w #.    ;.Z H - - - - - - - - - 3 z+A+C+F+3.- - - - - - - - - H Z ;.    1 { 1.' ' ' ' ' ' ' ' ' = 4+x.#+ += ' ' ' ' ' ' ' ' ' 1.{ 1     #.w 7 , , , , , , , , , = 4+x.#+ += , , , , , , , , , 7 w #.    %.A h > > > > > > > > > v+S.K.'+;+v+> > > > > > > > > h A %.  ",
"!.X p ; ; ; ; ; ; ; ; ; ; l+=+@+F.V.b+; ; ; ; ; ; ; ; ; ; p X !.{.$.S - - - - - - - - - - 3 z+C+C+F+^.- - - - - - - - - - S $.{.K < ( ' ' ' ' ' ' ' ' ' ' = <+#+H.W.6+' ' ' ' ' ' ' ' ' ' ( < K ,.H k , , , , , , , , , , = <+#+H.W.6+, , , , , , , , , , k T ,.).W c > > > > > > > > > > v+y.E.D.-+u+> > > > > > > > > > c W ).",
"!.O b ; ; l+l+l+l+l+l+l+l+f+P.X.V.V.'+l+l+l+l+l+l+l+; ; ; b O !.{.` J - - 3 3 3 3 3 3 3 3 }.A+E+E+E+/.4.3.3.3.4.3.4.- - - J ` {.K / : ' ' = = = = = = = = q+Q.`.W.W.!+= = = = = = = ' ' ' : / K ,.A b , , = = = = = = = = q+Q.`.W.W.!+= = = = = = = , , , b A ,.).J m > > v+v+v+v+v+v+v+v+9+/+-+-+-+5+v+v+v+v+v+v+v+> > > m J ).",
"!.C t ; n+i+c.c.c.c.p.T.n.w.G.V.V.F.@+w.P.A.T.=+n.w.l+; ; t C !.{.Z I - 3.}.x+x+x+x+y+z+z+A+C+E+E+D+C+A+A+z+z+z+z+[.].- - I Z {.K ! | ' p+j+9.9.9.c.p.C.o.x.J.W.W.H.#+x.Q.B.C.z.o.x.= ' ' | ! K ,.C 8 , p+j+9.9.9.c.p.C.o.x.J.W.W.H.#+x.Q.B.C.z.o.x.= , , 8 C ,.).D 7 > v+g+8.8.8.U.f.S.y.K.D.-+-+D.'+K.v.S.S.y.y.K.v+> > 7 D ).",
"!.E s ; ; l+9+a+c.d.=+M.$+G.X.V.X.I.u.P.=+T.A.n.]+l+; ; ; s E !.{.2.G - - 3 /.z+x+y+z+A+C+C+E+E+E+D+B+A+z+z+z+z+(.].- - - H 2.{.K ) 1.' ' = /+p.c.p.<+O.%+J.Z.W.`.L.x.Q.<+C.B.o.(+= ' ' ' 1.) K ,.9 7 , , = /+p.c.p.<+O.%+J.Z.W.`.L.x.Q.<+C.B.o.(+= , , , 7 9 ,.).B g > > v+|+[+U.f.y.K.'+D.-+-+-+E.r./+y.S.S.y.~+v+> > > g B ).",
"!.E s ; ; ; l+o+y.:+P.$+G.X.V.X.I.u.M.n.T.d.R.e+l+; ; ; ; s E !.{.2.G - - - _.:.}.z+A+C+C+E+E+E+C+B+B+z+z+y+[./.].- - - - H 2.{.K ) 1.' ' 7.= c+f+z.Q.%+J.Z.W.`.L.x.O.o.C.e.n.8+= ' ' ' ' 1.) K ,.9 7 , , , = c+f+z.Q.%+J.Z.W.`.L.x.O.o.C.e.n.8+= , , , , 7 9 ,.).B g > > > v+v+9+y.v.'+D.-+-+-+E.r.K.y.S.S.v.l+v+> > > > g B ).",
"!.C t ; ; ; ; ; t+d+^+I.X.V.X.I.$+M.n.T.T.0+}+; ; ; ; ; ; t C !.{.Z N - - - - - 4 6.F+C+E+F+E+C+C+A+z+z+z+(.5.- - - - - - I Z {.K ! | ' ' ' ' ' r+e+(+L.Z.W.`.L.%+O.o.C.C.2+c+' ' ' ' ' ' | ! K ,.C 8 , , , , , r+e+(+L.Z.W.`.L.%+O.o.C.C.2+c+, , , , , , 8 C ,.).D 7 > > > > > w+m+~+E.-+-+-+E.'+K.y.S.S.9+u+> > > > > > 7 D ).",
"!.O b ; ; ; ; ; ; l+b+,+V.X.I.$+M.n.A.A.8+l+; ; ; ; ; ; ; b O !.{.` J - - - - - - 3 :.(.0.E+C+D+A+z+z+z+/.].- - - - - - - J ` {.K / : ' ' ' ' ' ' = c+)+Z.`.L.%+O.o.B.B./+= ' ' ' ' ' ' ' : / K ,.A b , , , , , , = c+)+Z.`.L.%+O.o.B.B./+= , , , , , , , b A ,.).J m > > > > > > v+u+}+-+-+E.'+K.y.S.S.|+v+> > > > > > > m J ).",
"!.X p ; ; ; ; ; ; ; ; l+@+G.$+w.l.A.T.n.l+; ; ; ; ; ; ; ; p X !.{.$.S - - - - - - - G 3 C+C+C+A+z+z+z+z+3.- - - - - - - - S $.{.K < ( ' ' ' ' ' ' ' ' = #+J.%+x.m.B.C.o.= ' ' ' ' ' ' ' ' ( < K ,.T k , , , , , , , , = #+J.%+x.m.B.C.o.= , , , , , , , , k T ,.).W c > > > > > > > > v+'+D.'+K.v.S.S.y.v+> > > > > > > > c W ).",
"  #.w s ; ; ; ; ; ; n+&+I.@+w.n.A.T.=+l.]+l+; ; ; ; ; ; s w #.    ;.Z H - - - - - - 3 [.C+C+A+z+z+z+z+z+(.].- - - - - - H Z ;.    5 { 1.' ' ' ' ' ' p+2+L.#+x.o.B.C.z.m.^+= ' ' ' ' ' ' 1.{ 5     #.w 7 , , , , , , p+2+L.#+x.o.B.C.z.m.^+= , , , , , , 7 w #.    %.A h > > > > > > v+9+E.'+K.y.S.S.y.v.~+v+> > > > > > h A %.  ",
"  !.O o ; ; ; ; ; ; 9+w.@+w.n.R.R.x+l.M.$+}+; ; ; ; ; ; o O !.    {.+.O - - - - - - 6.A+C+A+z+D+A+. z+A+C+5.- - - - - - O +.{.    K / : ' ' ' ' ' ' 8+x.#+x.o.*+n.. m.O.%+c+' ' ' ' ' ' : / K     >.F o , , , , , , 8+x.#+x.o.*+n.. m.O.%+c+, , , , , , o A >.    '.J b > > > > > > m+K.E.K.y./+v.E+v.K.'+u+> > > > > > b L '.  ",
"    ..v t ; ; ; ; l+0+s.w.l.&+b+= R.x+u.i.'+l+; ; ; ; t v ..        2 Y I - - - - 3 [.A+A+z+[.:.<.|.. A+A+/.4.- - - - I Y 2         } ] 1 ' ' ' ' = 2+t.x.m.2+c+c+*+. x.t.!+= ' ' ' ' 1 ] }         ..v 0 , , , , = 2+t.x.m.2+c+c+*+. x.t.!+= , , , , 0 v ..         .q i > > > > v+9+q.K.v.9+u+u+/+E+r.q.5+v+> > > > i q  .    ",
"    !.U k ; ; ; ; l+R.u.l.]+l+; ; p+N.x+h.{+n+; ; ; ; k U !.        {.@.S - - - - 3 D+A+z+[.3 - - <.|.. B+G+3.- - - - S @.{.        K _ ( ' ' ' ' = *+x.m.(+= ' ' d+P.. L.++p+' ' ' ' ( _ K         ,.M k , , , , = *+x.m.(+= , , d+P.. L.++p+, , , , k M ,.        ).Q d > > > > v+/+r.v.~+v+> > u+8+E+g.>+v+> > > > d Q ).    ",
"      *.F x ; ; l+/+M.P.K.l+; ; ; i o+++y+h.>+l+; ; x F *.            ~.` R - - _.(.A+A+(.3 - - - - :.[.. B+6.3.- - R ` ~.            1./ < ' ' = 0+O.Q.]+= ' ' ' ' c+$+. L.'+= ' ' < / 1.            &.A d , , = 0+O.Q.]+= , , , , c+$+. L.'+= , , d A &.            =.J o > > v+7+K.v.}+v+> > > > u+~+E+g.m+v+> > o J =.      ",
"        &.F y s o+:+j.8+l+; ; ; ; ; ; b+.+x+{+l+s y F &.                ;.` P G :.A+z+(._.- - - - - - :.}.. G+4.G P ` ;.                1 / < 1.c+=+k.]+= ' ' ' ' ' ' c+++. ++= 7.< / 1                 #.A d 6 c+=+k.]+= , , , , , , c+++. ++= 6 d A #.                %.J o f u+_+v.}+v+> > > > > > u+>+E+>+v+f o J %.        ",
"          &.O l 7+0+e+l+; ; ; ; ; ; ; ; n+'+!+n+l O &.                    ;.+.V <.[./._.- - - - - - - - 3 /./.4.V +.;.                    1 / _ d+2+8+= ' ' ' ' ' ' ' ' p+!+{+p+_ / 1                     #.F l d+2+8+= , , , , , , , , p+!+{+p+l F #.                    %.L k u+9+l+v+> > > > > > > > v+5+6+v+k L %.          ",
"            -.X v l+l+; ; ; ; ; ; ; ; ; ; l+l+v X -.                        ~.$.Y 4 _.- - - - - - - - - - 3 4 Y $.~.                        r < ] = = ' ' ' ' ' ' ' ' ' ' = = ] < r                         *.T v = = , , , , , , , , , , = = v T *.                        =.W q v+v+> > > > > > > > > > v+v+q W =.            ",
"              !.&.U w z u j t s s t j u z w U &.!.                            {.;.@.Z V R M I G G I M R V Z @.;.{.                            K 5 [ { ^ < } 1 1.1.1 } < ^ { [ 5 K                             ,.#.N w q c j 0 6 6 0 j c q w N #.,.                            ).%.T A l n t i g g i t n l A T %.).              ",
"                  !.-...U P C E E C P U ..-.!.                                    {.~.2 @.Y 2.2.2.2.Y @.2 ~.{.                                    K r } [ ] ~ ) ) ~ ] [ } r K                                     ,.*...N v e 9 9 e v N ..*.,.                                    ).=. .T F D B B D F T  .=.).                  ",
"                        !.!.!.!.!.!.!.!.                                                {.{.{.{.{.{.{.{.                                                K K K K K K K K                                                 ,.,.,.,.,.,.,.,.                                                ).).).).).).).).                        "};
