/* XPM */
static char * EXTNAVCANCELT_xpm[] = {
"100 20 627 2",
"  	c None",
". 	c #2A68A7",
"+ 	c #2A629B",
"@ 	c #285D92",
"# 	c #244E78",
"$ 	c #254A70",
"% 	c #24476B",
"& 	c #0C72EA",
"* 	c #1167D3",
"= 	c #115FC2",
"- 	c #2866A7",
"; 	c #27609B",
"> 	c #255B92",
", 	c #2C6FB4",
"' 	c #2C69A8",
") 	c #2B649E",
"! 	c #3F74AA",
"~ 	c #174F8A",
"{ 	c #0E4F92",
"] 	c #0955A2",
"^ 	c #0859AB",
"/ 	c #366CA3",
"( 	c #365A7E",
"_ 	c #183D64",
": 	c #113D6A",
"< 	c #0F4275",
"[ 	c #0E447B",
"} 	c #1F80E8",
"| 	c #0444B1",
"1 	c #0043C2",
"2 	c #004FD0",
"3 	c #0057C2",
"4 	c #1576E8",
"5 	c #487DB3",
"6 	c #144E89",
"7 	c #0B4D91",
"8 	c #0654A2",
"9 	c #0557AB",
"0 	c #3D76B0",
"a 	c #3F7BB6",
"b 	c #185594",
"c 	c #0E559E",
"d 	c #095CAF",
"e 	c #0860BA",
"f 	c #3675B5",
"g 	c #A5B3C0",
"h 	c #DCD6CE",
"i 	c #5F96CC",
"j 	c #0A75E1",
"k 	c #2C7BC9",
"l 	c #B9C0C5",
"m 	c #BFC4C7",
"n 	c #728CA5",
"o 	c #90A4B5",
"p 	c #547CA4",
"q 	c #0F579F",
"r 	c #306498",
"s 	c #7F96AC",
"t 	c #8499AD",
"u 	c #A6C8F0",
"v 	c #E9EEF7",
"w 	c #60A8FA",
"x 	c #008CFF",
"y 	c #2787F7",
"z 	c #C3D2ED",
"A 	c #C3DCF4",
"B 	c #BCD0E4",
"C 	c #F8F9FB",
"D 	c #7CAEE3",
"E 	c #0674E4",
"F 	c #3A87D5",
"G 	c #D5E1ED",
"H 	c #DAE6F0",
"I 	c #AABCCB",
"J 	c #DEDEDB",
"K 	c #609EDD",
"L 	c #097EF5",
"M 	c #2C83DA",
"N 	c #BAC6D0",
"O 	c #C2CBD3",
"P 	c #175390",
"Q 	c #789BBD",
"R 	c #EFE3D3",
"S 	c #CFD3D5",
"T 	c #2E86DF",
"U 	c #0F77E1",
"V 	c #99BAD8",
"W 	c #EDE2D3",
"X 	c #97ADC0",
"Y 	c #205992",
"Z 	c #1A426A",
"` 	c #64819C",
" .	c #8DA3B6",
"..	c #88A0B5",
"+.	c #346DA6",
"@.	c #165BA0",
"#.	c #7595B2",
"$.	c #8EA3B6",
"%.	c #768EA4",
"&.	c #24496F",
"*.	c #044ABC",
"=.	c #7BA8E4",
"-.	c #FFFFFA",
";.	c #DBEFFB",
">.	c #289EFE",
",.	c #068FFF",
"'.	c #9FD3FC",
").	c #FDFEFA",
"!.	c #9DBDE8",
"~.	c #0D52BF",
"{.	c #185491",
"].	c #9AB8D6",
"^.	c #FFFFFF",
"/.	c #EAF3FC",
"(.	c #4094E9",
"_.	c #117AE4",
":.	c #BBD9F6",
"<.	c #BACEE1",
"[.	c #255E98",
"}.	c #18599A",
"|.	c #79A1C9",
"1.	c #F2E9DE",
"2.	c #D1DAE1",
"3.	c #2D8FF1",
"4.	c #0E80F4",
"5.	c #9BC1E7",
"6.	c #F0E8DE",
"7.	c #99B2CB",
"8.	c #215E9D",
"9.	c #175492",
"0.	c #0960B7",
"a.	c #91B6D9",
"b.	c #EAE1D3",
"c.	c #B2C6D7",
"d.	c #1A7DE0",
"e.	c #0E77E1",
"f.	c #6DA5DB",
"g.	c #E7DFD3",
"h.	c #C9D1D5",
"i.	c #1D7EE0",
"j.	c #175392",
"k.	c #18406A",
"l.	c #0F4984",
"m.	c #7494B1",
"n.	c #7E98B1",
"o.	c #1F61A1",
"p.	c #135AA0",
"q.	c #5F87AE",
"r.	c #879FB5",
"s.	c #2866A4",
"t.	c #014CC0",
"u.	c #0064E2",
"v.	c #97D0FC",
"w.	c #F9FCFA",
"x.	c #BBE0FC",
"y.	c #1294FF",
"z.	c #048EFF",
"A.	c #6EBEFD",
"B.	c #F6FBFA",
"C.	c #D4ECFB",
"D.	c #1595FF",
"E.	c #145291",
"F.	c #065EB8",
"G.	c #B7D6F5",
"H.	c #FDFEFE",
"I.	c #D1E4F8",
"J.	c #2082E6",
"K.	c #0D78E5",
"L.	c #8EBFF0",
"M.	c #FBFDFE",
"N.	c #E6F0FB",
"O.	c #2A88E7",
"P.	c #185A9D",
"Q.	c #0967C6",
"R.	c #93BDE7",
"S.	c #EDE7DE",
"T.	c #B3CCE3",
"U.	c #1A85F3",
"V.	c #0D80F5",
"W.	c #6EACEB",
"X.	c #EAE5DF",
"Y.	c #CCD8E2",
"Z.	c #1D87F3",
"`.	c #2463A4",
" +	c #095099",
".+	c #0A72DC",
"++	c #2381DF",
"@+	c #C0CCD6",
"#+	c #6FA5DB",
"$+	c #2B86E1",
"%+	c #D3D6D5",
"&+	c #DDDAD4",
"*+	c #5599DC",
"=+	c #214B77",
"-+	c #0E3E6F",
";+	c #0F559C",
">+	c #2564A3",
",+	c #7E9AB3",
"'+	c #8EA4B6",
")+	c #5B85AD",
"!+	c #2E69A4",
"~+	c #8AA2B6",
"{+	c #8CA2B6",
"]+	c #4F7DAA",
"^+	c #076AE6",
"/+	c #0046BC",
"(+	c #0087FC",
"_+	c #1C98FE",
":+	c #CBE7FB",
"<+	c #70BEFD",
"[+	c #269DFE",
"}+	c #E0F1FA",
"|+	c #EBF6FA",
"1+	c #54B2FD",
"2+	c #2363A4",
"3+	c #064E98",
"4+	c #0671DF",
"5+	c #2B88E7",
"6+	c #D8E9FA",
"7+	c #FEFEFF",
"8+	c #8BBDF0",
"9+	c #3B92EA",
"0+	c #EFF5FC",
"a+	c #F6F9FD",
"b+	c #71AEED",
"c+	c #266BB2",
"d+	c #0856A6",
"e+	c #097BF0",
"f+	c #228AF2",
"g+	c #C2D3E3",
"h+	c #6FADEB",
"i+	c #2C8EF2",
"j+	c #D5DCE1",
"k+	c #E0E1E0",
"l+	c #57A2EE",
"m+	c #15508A",
"n+	c #096ACC",
"o+	c #3B8CDE",
"p+	c #DBD9D4",
"q+	c #E0DCD4",
"r+	c #5C9CDC",
"s+	c #177BE0",
"t+	c #ACC3D7",
"u+	c #7CACDA",
"v+	c #163E65",
"w+	c #0F5091",
"x+	c #3E72A4",
"y+	c #8AA1B6",
"z+	c #5380AC",
"A+	c #1D5FA2",
"B+	c #7A98B2",
"C+	c #638AAF",
"D+	c #0078F7",
"E+	c #37A4FE",
"F+	c #E8F5FA",
"G+	c #EEF7FA",
"H+	c #5BB5FD",
"I+	c #0F93FF",
"J+	c #B4DDFC",
"K+	c #80C5FC",
"L+	c #114E8A",
"M+	c #0669CE",
"N+	c #519DEA",
"O+	c #F3F8FD",
"P+	c #F8FBFE",
"Q+	c #79B3EE",
"R+	c #1C80E6",
"S+	c #CAE1F8",
"T+	c #9AC6F2",
"U+	c #155596",
"V+	c #0872DD",
"W+	c #3A94EF",
"X+	c #DDE0E0",
"Y+	c #E2E2E0",
"Z+	c #5CA4ED",
"`+	c #1784F4",
" @	c #ADCAE5",
".@	c #7DB4EA",
"+@	c #2C6AA9",
"@@	c #0C5096",
"#@	c #0A74E0",
"$@	c #70A6DB",
"%@	c #CCD2D5",
"&@	c #7DACDA",
"*@	c #E5DED4",
"=@	c #C6CFD5",
"-@	c #2682DF",
";@	c #26507A",
">@	c #113F6C",
",@	c #0F569E",
"'@	c #145AA0",
")@	c #6088AE",
"!@	c #89A1B6",
"~@	c #6B8EB0",
"{@	c #2A67A4",
"]@	c #0D77EF",
"^@	c #0047C1",
"/@	c #008BFF",
"(@	c #058EFF",
"_@	c #71BFFD",
":@	c #D8EDFB",
"<@	c #80C6FD",
"[@	c #F4FAFA",
"}@	c #D2EBFB",
"|@	c #1F9AFE",
"1@	c #2969AA",
"2@	c #0A5096",
"3@	c #0674E3",
"4@	c #91C1F1",
"5@	c #EBF3FB",
"6@	c #A3CBF2",
"7@	c #F9FBFE",
"8@	c #E6F1FB",
"9@	c #318CE8",
"0@	c #2E72B8",
"a@	c #0C56A3",
"b@	c #097DF4",
"c@	c #0E80F5",
"d@	c #71AEEB",
"e@	c #CED9E2",
"f@	c #7EB4E9",
"g@	c #E8E4DF",
"h@	c #C9D6E2",
"i@	c #268BF2",
"j@	c #286098",
"k@	c #0A5AAB",
"l@	c #4C95DE",
"m@	c #23496E",
"n@	c #0E457B",
"o@	c #6B8FB0",
"p@	c #8BA2B6",
"q@	c #4276A8",
"r@	c #1063CF",
"s@	c #0058DE",
"t@	c #4AADFE",
"u@	c #0659AC",
"v@	c #AED1F4",
"w@	c #F6FAFE",
"x@	c #60A6ED",
"y@	c #2A66A4",
"z@	c #0860B8",
"A@	c #93BDE8",
"B@	c #4C9DEE",
"C@	c #265A8E",
"D@	c #095FB7",
"E@	c #3D8EDE",
"F@	c #E2DDD4",
"G@	c #9EBCD8",
"H@	c #0F78E2",
"I@	c #224568",
"J@	c #0E4883",
"K@	c #356EA6",
"L@	c #90A5B6",
"M@	c #7997B2",
"N@	c #1059BB",
"O@	c #0062D2",
"P@	c #39A6FE",
"Q@	c #F0F8FA",
"R@	c #A4D6FC",
"S@	c #068EFF",
"T@	c #24588E",
"U@	c #055EB7",
"V@	c #4999EA",
"W@	c #FCFDFE",
"X@	c #C3DDF6",
"Y@	c #107AE5",
"Z@	c #28609A",
"`@	c #0866C6",
" #	c #3D96F0",
".#	c #E4E3E0",
"+#	c #9FC3E6",
"@#	c #1C7EE0",
"##	c #B0C5D7",
"$#	c #E9E0D3",
"%#	c #D4D6D4",
"&#	c #2883DE",
"*#	c #2262A2",
"=#	c #829CB4",
"-#	c #869FB5",
";#	c #2C68A4",
">#	c #1495FF",
",#	c #BAE0FB",
"'#	c #F8FCFA",
")#	c #E1F1FA",
"!#	c #229CFE",
"~#	c #2384E6",
"{#	c #D5E7F8",
"]#	c #EBF3FC",
"^#	c #358EE8",
"/#	c #1B86F3",
"(#	c #B3CCE4",
"_#	c #ECE6DF",
":#	c #D6DCE1",
"<#	c #288CF2",
"[#	c #1279E0",
"}#	c #87B1D9",
"|#	c #C9D1D6",
"1#	c #9CBBD8",
"2#	c #ECE1D3",
"3#	c #89B2D8",
"4#	c #1078E1",
"5#	c #175CA1",
"6#	c #6D90B0",
"7#	c #8CA3B6",
"8#	c #7192B2",
"9#	c #6C8FB0",
"0#	c #0890FF",
"a#	c #8BCBFC",
"b#	c #A3D5FC",
"c#	c #FBFDFA",
"d#	c #8ECCFC",
"e#	c #078FFF",
"f#	c #137BE5",
"g#	c #AACFF3",
"h#	c #EDF4FB",
"i#	c #BBD9F7",
"j#	c #A9CEF3",
"k#	c #117AE5",
"l#	c #1182F4",
"m#	c #88B8E8",
"n#	c #CBD7E2",
"o#	c #9EC2E6",
"p#	c #EFE8DE",
"q#	c #8CBAE8",
"r#	c #1081F4",
"s#	c #2A67A5",
"t#	c #6AA3DB",
"u#	c #C4CED6",
"v#	c #2582DF",
"w#	c #BECBD6",
"x#	c #4C94DC",
"y#	c #165CA1",
"z#	c #5783AD",
"A#	c #316CA5",
"B#	c #2B68A4",
"C#	c #4376A9",
"D#	c #6BBBFD",
"E#	c #D0EAFB",
"F#	c #1E9AFE",
"G#	c #C8E6FB",
"H#	c #49ADFE",
"I#	c #84B9F0",
"J#	c #E3EFFA",
"K#	c #3E92E9",
"L#	c #328CE8",
"M#	c #DBEBFA",
"N#	c #60A5EC",
"O#	c #0F81F4",
"P#	c #6BABEB",
"Q#	c #C7D5E2",
"R#	c #2E8FF1",
"S#	c #248AF2",
"T#	c #C0D2E3",
"U#	c #EDE7DF",
"V#	c #4C9CEE",
"W#	c #4491DD",
"X#	c #D5D7D5",
"Y#	c #5297DD",
"Z#	c #0C76E1",
"`#	c #589CDF",
" $	c #B8C8D5",
".$	c #4175A8",
"+$	c #8FA4B7",
"@$	c #4678A9",
"#$	c #1259A0",
"$$	c #4B7BA9",
"%$	c #819CB4",
"&$	c #40A9FE",
"*$	c #E2F2FA",
"=$	c #50B0FE",
"-$	c #028DFF",
";$	c #59B4FD",
">$	c #C1E3FB",
",$	c #59A2EB",
"'$	c #EFF6FC",
")$	c #FDFDFE",
"!$	c #66A9EC",
"~$	c #0A76E4",
"{$	c #71B0F0",
"]$	c #D8E8F9",
"^$	c #4499EF",
"/$	c #D7DDE1",
"($	c #52A0EE",
"_$	c #0B7FF5",
":$	c #5AA3ED",
"<$	c #BACFE4",
"[$	c #3389DE",
"}$	c #DCDAD4",
"|$	c #6BA4DB",
"1$	c #1379E0",
"2$	c #98B9D8",
"3$	c #EBE1D3",
"4$	c #95B8D8",
"5$	c #0D76E1",
"6$	c #91A5B6",
"7$	c #8BA2B5",
"8$	c #5B84AC",
"9$	c #185DA1",
"0$	c #7494B2",
"a$	c #2EA1FE",
"b$	c #EAF5FA",
"c$	c #6CBCFD",
"d$	c #0A90FF",
"e$	c #9FD4FC",
"f$	c #FAFDFA",
"g$	c #9BD1FC",
"h$	c #4395E9",
"i$	c #FAFCFD",
"j$	c #F9FCFE",
"k$	c #88BCF0",
"l$	c #157CE5",
"m$	c #BBD8F6",
"n$	c #B8D7F6",
"o$	c #0D78E4",
"p$	c #3391F1",
"q$	c #DEE0E0",
"r$	c #E9E5DF",
"s$	c #1282F4",
"t$	c #9AC1E7",
"u$	c #97BFE7",
"v$	c #0C7FF5",
"w$	c #1D6AB5",
"x$	c #ABC2D7",
"y$	c #147AE0",
"z$	c #388BDE",
"A$	c #DEDBD4",
"B$	c #4692DD",
"C$	c #225587",
"D$	c #7D99B3",
"E$	c #7695B2",
"F$	c #1C5EA0",
"G$	c #3971A7",
"H$	c #8FA4B6",
"I$	c #4879A9",
"J$	c #176EE1",
"K$	c #B3DDFB",
"L$	c #A2D5FC",
"M$	c #0C91FF",
"N$	c #33A2FE",
"O$	c #ECF6FA",
"P$	c #43AAFE",
"Q$	c #2670BB",
"R$	c #CEE2F8",
"S$	c #BEDAF6",
"T$	c #197EE5",
"U$	c #4A9AEA",
"V$	c #F1F7FD",
"W$	c #FCFEFE",
"X$	c #62A7EC",
"Y$	c #1D70C4",
"Z$	c #AECAE6",
"`$	c #9DC2E6",
" %	c #1382F4",
".%	c #3893F0",
"+%	c #E1E1E0",
"@%	c #E8E5DF",
"#%	c #479AEF",
"$%	c #45719C",
"%%	c #E0D8CD",
"&%	c #9EBAD5",
"*%	c #1C7DE0",
"=%	c #68A2DB",
"-%	c #E4DED4",
";%	c #A4B1BB",
">%	c #1E5791",
",%	c #35587A",
"'%	c #8BA1B3",
")%	c #7896B2",
"!%	c #5D86AD",
"~%	c #708AA2",
"{%	c #22486E",
"]%	c #376FC7",
"^%	c #EEF1F3",
"/%	c #A4D3FC",
"(%	c #69BBFD",
"_%	c #F2F9FA",
":%	c #ABBDE2",
"<%	c #0A4DBC",
"[%	c #4B79A8",
"}%	c #F6F8FA",
"|%	c #C2DBF5",
"1%	c #8ABDF0",
"2%	c #FAFCFE",
"3%	c #BACCDF",
"4%	c #225B95",
"5%	c #4777A7",
"6%	c #E3DED8",
"7%	c #9FC1E3",
"8%	c #69AAEB",
"9%	c #E6E4DF",
"0%	c #A5B6C6",
"a%	c #1E5C9C",
"b%	c #5681AC",
"c%	c #215D99",
"d%	c #0968C9",
"e%	c #146DC8",
"f%	c #5C80A3",
"g%	c #4E7BA8",
"h%	c #426588",
"i%	c #264E77",
"j%	c #0E4E8E",
"k%	c #195590",
"l%	c #516F8B",
"m%	c #3E6285",
"n%	c #468AE1",
"o%	c #1C55BC",
"p%	c #0074F6",
"q%	c #0D7AF6",
"r%	c #5E7EC6",
"s%	c #3D7FDB",
"t%	c #5F8DBC",
"u%	c #2C66A1",
"v%	c #0567CB",
"w%	c #1770CC",
"x%	c #779ABE",
"y%	c #5C89B7",
"z%	c #5888B9",
"A%	c #2063A6",
"B%	c #0971DB",
"C%	c #1476D9",
"D%	c #5F86AE",
"E%	c #5082B4",
"F%	c #2565A6",
"G%	c #046DE8",
"H%	c #2163A6",
"I%	c #276DB4",
"J%	c #266CB3",
"              . + @ @ + .                             # $ % % $ #                             & * = = * &                             - ; > > ; -                             , ' ) ) ' ,               ",
"          ! ~ { ] ^ ^ ] { ~ /                     ( _ : < [ [ < : _ (                     } | 1 2 3 3 2 1 | 4                     5 6 7 8 9 9 8 7 6 0                     a b c d e e d c b f           ",
"        g h i j j j j j j k l m                 n o p q q q q q q r s t                 u v w x x x x x x y z A                 B C D E E E E E E F G H                 I J K L L L L L L M N O         ",
"      P Q R S T j j j j U V W X Y             Z `  ...+.q q q q @.#.$.%.&.            *.=.-.;.>.x x x x ,.'.).!.~.            {.].^./.(.E E E E _.:.^.<.[.            }.|.1.2.3.L L L L 4.5.6.7.8.      ",
"    9.0.j a.b.c.d.j j e.f.g.h.i.0.j.        k.l.q m.$.n.o.q q p.q. .r.s.l.k.        t.u.x v.w.x.y.x x z.A.B.C.D.u.t.        E.F.E G.H.I.J.E E K.L.M.N.O.F.E.        P.Q.L R.S.T.U.L L V.W.X.Y.Z.Q.P.    ",
"  `. +.+j ++@+b.#+j j $+%+&+*+j .+ +`.    =+-+;+q >+,+'+)+q q !+~+{+]+q ;+-+=+    ^+/+(+x _+:+w.<+x x [+}+|+1+x (+/+^+    2+3+4+E 5+6+7+8+E E 9+0+a+b+E 4+3+2+    c+d+e+L f+g+S.h+L L i+j+k+l+L e+d+c+  ",
"  m+n+j j j o+p+q+r+s+t+R u+j j j n+m+    v+w+q q q x+y+ .z+A+B+ .C+q q q w+v+    | D+x x x E+F+G+H+I+J+-.K+x x x D+|     L+M+E E E N+O+P+Q+R+S+^.T+E E E M+L+    U+V+L L L W+X+Y+Z+`+ @1..@L L L V+U+  ",
"+@@@#@j j j e.$@g.%@&@*@=@-@j j j #@@@+@;@>@,@q q q '@)@ .!@~@{+..{@q q q ,@>@;@]@^@/@x x x (@_@B.:@<@[@}@|@x x x /@^@]@1@2@3@E E E K.4@M.5@6@7@8@9@E E E 3@2@1@0@a@b@L L L c@d@X.e@f@g@h@i@L L L b@a@0@",
"j@k@j j j j j j a.W R q+l@j j j j j k@j@m@n@q q q q q q o@$. .p@q@q q q q q n@m@r@s@x x x x x x v.).-.G+t@x x x x x s@r@[.u@E E E E E E v@^.^.w@x@E E E E E u@[.y@z@L L L L L L A@6.1.Y+B@L L L L L z@y@",
"C@D@j j j j j j E@F@R G@H@j j j j j D@C@I@J@q q q q q q K@L@ .M@@.q q q q q J@I@N@O@x x x x x x P@Q@-.R@S@x x x x x O@N@T@U@E E E E E E V@W@^.X@Y@E E E E E U@T@Z@`@L L L L L L  #.#1.+#4.L L L L L `@Z@",
"C@D@j j j j j @###R $#%#&#j j j j j D@C@I@J@q q q q q *#=# . .-#;#q q q q q J@I@N@O@x x x x x >#,#-.'#)#!#x x x x x O@N@T@U@E E E E E ~#{#^.^.]#^#E E E E E U@T@Z@`@L L L L L /#(#1._#:#<#L L L L L `@Z@",
"j@k@j j j j [#}#b.|#1#2#3#4#j j j j k@j@m@n@q q q q 5#6#7# .8# .9#@.q q q q n@m@r@s@x x x x 0#a#w.C.b#c#d#e#x x x x s@r@[.u@E E E E f#g#W@h#i#7+j#k#E E E E u@[.y@z@L L L L l#m#S.n#o#p#q#r#L L L L z@s#",
"+@@@#@j j 4#t#R u#T v#w#b.x#j j j #@@@+@;@>@,@q q y#z# .-#A#B#=#'+C#q q q ,@>@;@]@^@/@x x ,.D#-.E#>.F#G#w.H#x x x /@^@]@1@2@3@E E k#I#^.J#K#L#M#7+N#E E E 3@2@1@0@a@b@L L O#P#1.Q#R#S#T#U#V#L L L b@a@0@",
"  m+n+j j W#X#*@Y#Z#j `#R  $v#j j n+m+    v+w+q q .$y++$@$#$q $$ .%$B#q q w+v+    | D+x x &$*$[@=$-$x ;$-.>$F#x x D+|     L+M+E E ,$'$)$!$~$E {$^.]$L#E E M+L+    U+V+L L ^$/$g@($_$L :$1.<$S#L L V+U+  ",
"  `. +.+[$}$g.|$e.j j 1$2$3$4$5$.+ +`.    =+-+;++.6$7$8$'@q q 9$m.'+0$p.;+-+=+    ^+/+(+a$b$B.c$z.x x d$e$f$g$z.(+/+^+    2+3+4+h$i$j$k$K.E E l$m$7+n$o$4+3+2+    c+d+e+p$q$r$P#V.L L s$t$U#u$v$e+d+c+  ",
"    9.w$x$R 1#y$j j j j z$A$*@B$0.j.        k.C$D$ .E$F$q q q q G$..H$I$l.k.        t.J$K$-.L$M$x x x x N$O$[@P$u.t.        E.Q$R$^.S$T$E E E E U$V$W$X$F.E.        P.Y$Z$1.`$ %L L L L .%+%@%#%Q.P.    ",
"      $%%%&%*%j j j j j j =%-%;%>%            ,%'%)%*#q q q q q q !% .~%{%            ]%^%/%>#x x x x x x (%_%:%<%            [%}%|%~#E E E E E E 1%2%3%4%            5%6%7%/#L L L L L L 8%9%0%a%      ",
"        b%c%d%j j j j j j e%f%g%                h%i%j%q q q q q q k%l%m%                n%o%p%x x x x x x q%r%s%                t%u%v%E E E E E E w%x%y%                z%A%B%L L L L L L C%D%E%        ",
"          F%~ { ] ^ ^ ] { ~ F%                    =+_ : < [ [ < : _ =+                    G%| 1 2 3 3 2 1 | G%                    H%6 7 8 9 9 8 7 6 H%                    I%b c d e e d c b J%          ",
"              . + @ @ + .                             # $ % % $ #                             & * = = * &                             - ; > > ; -                             , ' ) ) ' ,               "};
