/* XPM */
static char * EXTNAVREFRESHL_xpm[] = {
"160 30 256 2",
"  	c None",
". 	c #FFFFFF",
"+ 	c #FFFF00",
"@ 	c #FF00FF",
"# 	c #FF0000",
"$ 	c #00FFFF",
"% 	c #00FF00",
"& 	c #0000FF",
"* 	c #000000",
"= 	c #CCCCCC",
"- 	c #E4E4E4",
"; 	c #0F579F",
"> 	c #0A75E1",
", 	c #097EF5",
"' 	c #0674E4",
") 	c #008CFF",
"! 	c #00003E",
"~ 	c #000D62",
"{ 	c #000A56",
"] 	c #001676",
"^ 	c #001C80",
"/ 	c #002890",
"( 	c #003FC6",
"_ 	c #0036AB",
": 	c #003FB8",
"< 	c #0057F3",
"[ 	c #004DD1",
"} 	c #006BF9",
"| 	c #0072FF",
"1 	c #204C7B",
"2 	c #007CFF",
"3 	c #0672E0",
"4 	c #0671DD",
"5 	c #0568CC",
"6 	c #0564C5",
"7 	c #02264B",
"8 	c #0875E4",
"9 	c #076CD2",
"0 	c #05509D",
"a 	c #097CF1",
"b 	c #097BF0",
"c 	c #097AEC",
"d 	c #0874E1",
"e 	c #075DB5",
"f 	c #05498E",
"g 	c #054484",
"h 	c #0864C2",
"i 	c #0756A7",
"j 	c #064F98",
"k 	c #064C93",
"l 	c #053E7A",
"m 	c #0B85FF",
"n 	c #0B7FF5",
"o 	c #0A72DC",
"p 	c #096ACC",
"q 	c #07539F",
"r 	c #05396F",
"s 	c #053769",
"t 	c #042C54",
"u 	c #0C77E5",
"v 	c #0C76E1",
"w 	c #08519A",
"x 	c #063C73",
"y 	c #0E80F5",
"z 	c #07427D",
"A 	c #06315C",
"B 	c #1079E4",
"C 	c #073563",
"D 	c #06294D",
"E 	c #1383F3",
"F 	c #0A3F76",
"G 	c #147BE2",
"H 	c #0F559D",
"I 	c #0F549A",
"J 	c #0C457E",
"K 	c #198CFF",
"L 	c #0D4781",
"M 	c #0F5192",
"N 	c #0E4A86",
"O 	c #187BDE",
"P 	c #0F4C8B",
"Q 	c #0D4276",
"R 	c #1D87F3",
"S 	c #0D3C6D",
"T 	c #0E3F71",
"U 	c #0D3B68",
"V 	c #2085E8",
"W 	c #155697",
"X 	c #134E8A",
"Y 	c #0D365E",
"Z 	c #185DA2",
"` 	c #2282E0",
" .	c #268CF2",
"..	c #0D2E4F",
"+.	c #246DB9",
"@.	c #2164A8",
"#.	c #113456",
"$.	c #153C65",
"%.	c #276CB3",
"&.	c #18436E",
"*.	c #2B76C1",
"=.	c #2A6EB3",
"-.	c #2E70B5",
";.	c #337AC3",
">.	c #3272B5",
",.	c #2C659D",
"'.	c #245180",
").	c #3774B4",
"!.	c #3774B3",
"~.	c #4B9DF0",
"{.	c #3D7EC2",
"].	c #3D7EC1",
"^.	c #3975B2",
"/.	c #295481",
"(.	c #386DA1",
"_.	c #539EEB",
":.	c #2F5780",
"<.	c #4576A7",
"[.	c #3B6188",
"}.	c #4C749D",
"|.	c #395169",
"1.	c #526E8A",
"2.	c #465B70",
"3.	c #5D7389",
"4.	c #56697D",
"5.	c #64788C",
"6.	c #0185FF",
"7.	c #0C263E",
"8.	c #2A83D7",
"9.	c #348FE3",
"0.	c #388BD6",
"a.	c #456482",
"b.	c #587693",
"c.	c #0088FF",
"d.	c #028DFF",
"e.	c #068FFF",
"f.	c #0C91FE",
"g.	c #4289C6",
"h.	c #1C99FB",
"i.	c #80B5DC",
"j.	c #34A0ED",
"k.	c #4DAEF1",
"l.	c #4599D6",
"m.	c #5C96C0",
"n.	c #6D95B1",
"o.	c #748C9C",
"p.	c #59A2D0",
"q.	c #8CC5E9",
"r.	c #8EB6CF",
"s.	c #698699",
"t.	c #73A3B7",
"u.	c #708188",
"v.	c #71B2C7",
"w.	c #97CAD2",
"x.	c #8CB2B8",
"y.	c #76969B",
"z.	c #819CA0",
"A.	c #9CBABA",
"B.	c #7E8988",
"C.	c #A5D4CE",
"D.	c #8CA7A2",
"E.	c #A7CCC5",
"F.	c #8F9C96",
"G.	c #99B19F",
"H.	c #8D9788",
"I.	c #9BA990",
"J.	c #C2CFA3",
"K.	c #C3C99D",
"L.	c #999C85",
"M.	c #ABAE89",
"N.	c #B7B98A",
"O.	c #8F907C",
"P.	c #E4E4A6",
"Q.	c #FFFFC3",
"R.	c #FFFFD4",
"S.	c #E4E4BD",
"T.	c #FFFFDA",
"U.	c #FFFFE5",
"V.	c #E4E4CC",
"W.	c #818176",
"X.	c #FFFFED",
"Y.	c #E4E4D5",
"Z.	c #FEFEFA",
"`.	c #E4E4E1",
" +	c #FFFFFD",
".+	c #888887",
"++	c #989778",
"@+	c #BAB998",
"#+	c #E4E199",
"$+	c #FFFCB5",
"%+	c #E4DE93",
"&+	c #A3A186",
"*+	c #FFFEF2",
"=+	c #AAA67F",
"-+	c #FFF3A3",
";+	c #B7B07E",
">+	c #E4D787",
",+	c #FFF09C",
"'+	c #A79F71",
")+	c #E4D27C",
"!+	c #FFED96",
"~+	c #B7AA76",
"{+	c #8D876F",
"]+	c #918C77",
"^+	c #E4CA6D",
"/+	c #FFE78B",
"(+	c #FFE384",
"_+	c #A69665",
":+	c #A59B7B",
"<+	c #E4BF59",
"[+	c #FFDA75",
"}+	c #FFDE7B",
"|+	c #B8A46E",
"1+	c #A1946F",
"2+	c #FFD56C",
"3+	c #FFD771",
"4+	c #FCF6E7",
"5+	c #E4B345",
"6+	c #FFCD60",
"7+	c #FAEDD0",
"8+	c #FBF2DD",
"9+	c #FDF8ED",
"0+	c #F5DDAC",
"a+	c #F8E5BE",
"b+	c #F9E8C6",
"c+	c #FCF3E1",
"d+	c #E4A734",
"e+	c #FFBC46",
"f+	c #FFC351",
"g+	c #A98951",
"h+	c #B7985F",
"i+	c #EFC882",
"j+	c #F0CB88",
"k+	c #F2D296",
"l+	c #EBBB6C",
"m+	c #EDC278",
"n+	c #B69D72",
"o+	c #A38D68",
"p+	c #E7AF5B",
"q+	c #9F8764",
"r+	c #9A7D59",
"s+	c #AB7D48",
"t+	c #967254",
"u+	c #897564",
"v+	c #A16D46",
"w+	c #90604E",
"x+	c #FFFEFE",
"y+	c #C9C9C9",
"z+	c #C6C6C6",
"A+	c #C3C3C3",
"B+	c #C1C1C1",
"C+	c #BCBCBC",
"D+	c #B2B2B2",
"E+	c #A6A6A6",
"F+	c #9D9D9D",
"G+	c #949494",
"                        ^.^.^.^.^.^.^.^.                                                :.:.:.:.:.:.:.:.                                                K K K K K K K K                                                 !.!.!.!.!.!.!.!.                                                ].].].].].].].].                        ",
"                  ^.>.@.X S A D D A S X @.>.^.                                    :./.1 $.#.7.7.7.7.#.$.1 /.:.                                    K m } : ^ { ! ! { ^ : } m K                                     !.-.@.P r t 7 7 t r P @.-.!.                                    ].;.+.W F C t t C F W +.;.].                  ",
"              ^.=.X s z q e p o o 9 e q z s X =.^.                            :.'.$...Y T N M H H M N T Y ..$.'.:.                            K 2 : ] / [ } 2 6.6.2 } [ / ] : 2 K                             !.%.P s l 0 e 9 3 3 9 e 0 l s P %.!.                            ].*.W x g i p d b b d p i g x W *.].              ",
"            >.W r k h > > > > > > > > > > h k r W >.                        /.&...S P ; ; ; ; ; ; ; ; ; ; P S ..&./.                        m [ ^ ( | ) ) ) ) ) ) ) c.) ) | ( ^ [ m                         -.W r k 6 ' ' ' ' ' ' ' ' ' ' 6 k r W -.                        ;.Z l q 9 , , , , , , , , , , 9 q l Z ;.            ",
"          =.Q g h > > > 0.z.L.:+:+L.t.0.> > > h g Q L.                    '.#.Y P ; ; ; (.b.3.3.3.b.}.(.; ; ; P Y #.5.                    2 / _ } ) ) ) j.x.M.;+;+I.v.j.) ) ) } _ / G.                    %.F g 6 ' ' ' 9.D.=+~+~+M.t.9.' ' ' 6 g F M.                    *.L f 9 , , , 9.z.1+_+_+L.t.9., , , 9 f L ++          ",
"        =.F j o > > m.&+r. +x+x+. 7+0+@+&+l.> > o O._+=.                '.#.S H ; ; <.3.n.= = = = C+D+o.5.(.; ; H 4.4.'.                2 / ( c.) ) k.;+w..  +x+. *+Q.J.M.k.) ) 6.G+h+2                 %.x j 3 ' ' p.~+w..  +x+x+*+Q.K.M.l.' ' 3 ++h+%.                *.J i a , , p._+r.`.- - - Y.P.M.:+l., , a {+g+*.        ",
"      -.F w > > > L.r.Z.Z.8+8+8+8+c+c+9+c+M.F.> F.A.o+F -.            /.#.T ; ; ; 1.n.= y+B+B+B+B+A+A+z+A+s.b.; b.o.4.#./.            6./ [ ) ) ) M.q.. . Z..  +. . . . . @+G.) G.C.n+/ 6.            =.x j ' ' ' :+q.. . Z..  +. . .  +. N.I.' I.E.h+x =.            ;.J i , , , ++i.- `.`.- `.- - - - - =+H., H.A.g+J ;.      ",
"    ^.X f > > > L._.. 7+c+8+c+8+c+c+8+c+c+9+x.:+@+x+:+f X ^.        :.$.U ; ; ; 3.<.= C+A+B+A+B+A+A+B+A+A+z+s.3.o.= 3.U $.:.        K _ : ) ) ) M.k.. *+. . . . . . . . .  +w.~+J.. ~+: _ K         !.N f ' ' ' =+_. +*+. . . . . . . . .  +w.|+K.. |+f N !.        ].M j , , , ++~.- Y.- - - - - - - - - - x._+N.`._+j M ].    ",
"    @.r p > > L._.x+7+c+c+8+8+c+c+8+8+8+c+c+9+0+x+x+:+p r @.        1 ..M ; ; 3.<.= C+A+A+B+B+A+A+B+B+B+A+A+z+D+= = 3.M ..1         } ^ 2 c.) =+k.. *+. . . . . . . . . . . . Q.. . ~+2 ^ }         @.r 9 ' ' =+_.. *+. . . . . . . . . . . x+Q.. . |+9 r @.        +.l d , , 1+~.- Y.- - - - - - - - - - - - P.- - _+3 l +.    ",
"  ^.Q i > > n.r.x+7+8+8+8+c+4+7+7+9+c+8+8+8+c+c+Z.x+:+> i Q ^.    :.#.Q ; ; }.n.= C+B+B+B+A+z+C+C+z+A+B+B+B+A+B+= = 3.; Q #.:.    K / < ) ) v.q.. X. + +. . . X.X.. .  + +. . . . . ~+) < / K     ).F i ' ' t.q.x+X. + +. . . X.X.. .  + +. x+. . . |+' i F ).    {.L e , , m.i.- V.`.`.- - - V.V.- - `.`.- - - - - _+, e L {.  ",
"  %.s o > > &+x+c+7+7+7+c+j+&+:+:+&+k+c+8+8+8+8+Z.x+:+> o s %.    '...I ; ; 5.= A+C+C+C+A+F+5.5.3.5.E+A+B+B+B+B+y+= 3.; I ..'.    2 ] 6.) ) N.. . X.X.*+. /+N.;+;+N.-+. .  +. . . . ~+) 6.] 2     %.s 4 ' ' ;+x+. X.X.*+. /+;+~+~+;+-+. .  +. . . . |+' 4 s %.    *.x c , , '+- - Y.Y.Y.- ^+'+_+_+'+>+- - `.- - - `._+, c x *.  ",
"^.W k > > m.r. +b+b+b+7+l+H.0.> > 0.L.m+b+8+c+8+9+x+:+> > k W ^.:.&.U ; ; }.n.= D+C+C+C+G+1.,.; ; ,.3.G+C+B+A+B+y+= 3.; ; U &.:.K [ ( ) d.p.q.. T.U.U.*+2+I.j.) ) j.M.[+T.. .  +. . ~+) c.: [ K !.I f ' ' m.q.. T.U.U.*+2+&+0.' ' 0.=+[+T.. .  +. . |+' ' f W !.].Z 0 , , p.i.- S.V.V.Y.<+++9., , 9.++<+S.- - `.- `._+, , 0 Z ].",
"^.Q e > > H.x+c+0+0+a+m+H.v > > > > H.p+l+m+k+7+9+x+1+> > e T ^.:.#.J ; ; 1.y+B+D+D+D+G+1.; ; ; ; ; 1.W.G+G+E+C+z+= 4.; ; J #.:.K / < ) ) I.. . Q.Q.R.}+&+d.) ) ) ) I.e+2+[+-+X.. . |+) ) < / K !.F e ' ' L. +x+Q.Q.R.}+:+' ' ' ' ' L.e+2+[+-+X.. . h+' ' e x !.].J h , , ]+`.- P.P.S.<+]+, , , , , O.d+<+<+>+Y.- - g+, , h J ].",
"^.A p > > q+x+0+0+0+0+1+8.> > > > H.:+i+i+j+j+j+a+x+o+> > p A ^.:...P ; ; 4.= D+E+E+D+4.@.; ; ; ; 1.3.F+F+F+F+F+D+= 4.; ; M ..:.K ~ | ) ) h+. $+$+$+Q.h+h.) ) ) ) I.;+(+/+/+/+/+R.. h+) ) | ~ K !.A 5 ' ' h+x+$+$+$+Q.h+` ' ' ' ' L.~+(+/+/+/+/+R.. h+' ' 5 A !.].C 4 , , s+- P.%+%+P.g+V , , , , O._+^+^+^+)+^+S.- s+, , 4 C ].",
"^.D o > > :+x+j+j+k+i+{+> > > > .+1+l+l+m+m+i+i+k+c+q+> > o D ^.:.7.H ; ; 3.y+F+E+E+F+a.H ; ; ; 1.4.G+G+G+G+F+F+E+A+2.; ; I 7.:.K ! 6.) ) ;+. !+,+,+(+1+) ) ) ) L.h+2+2+3+}+(+(+!+x+h+) ) 6.! K !.7 4 ' 3 ~+. !+,+,+(+o+' ' ' ' ++h+2+2+3+}+(+(+!+. g+' ' 4 7 !.].t b , , _+`.)+)+>+^+r+, , , , ]+g+5+<+<+<+^+^+)+- s+, , b t ].",
"^.D o > > 1+. m+i+j+p+{+> > > m..+B.B.B.B.B.B.B.W.B..+> > o D ^.:.7.H ; ; 4.= G+F+F+.+a.; ; ; (.a.a.a.a.a.a.a.a.a.a.a.; ; I 7.:.K ! 6.) ) |+. }+(+/+f+1+) ) ) p.L.H.H.H.H.H.H.H.H.H.L.) ) 6.! K !.7 4 ' ' h+. }+(+/+f+o+' ' ' m.++O.O.O.O.]+]+]+]+]+++8 ' 4 7 !.].t b , , g+- <+^+^+d+r+, , , m.{+W.W.W.W.W.W.W.W.W.{+, , b t ].",
"^.A p > > r+*+m+m+l+p+r+> > > > > > > > > > > > > > > > > p A ^.:...P ; ; |.y+G+G+.+.+2.H ; ; ; ; ; ; ; ; ; ; ; H ; ; ; ; M 7.:.K ~ | ) ) s+. }+[+6+f+g+d.) ) ) ) ) ) ) ) ) ) ) ) ) ) ) ) | ~ K !.A 5 ' ' s+. }+[+6+f+s+8 ' ' ' ' ' ' ' ' ' ' ' ' ' ' ' ' 5 A !.].C 4 , , v+- <+<+5+d+v+, , , , , , , n , a , a a a , , , 4 C ].",
"^.Q e > > u+b+k+l+p+p+o+o.> > > > > > B G v > > > > > > > e Q ^.:.#.J ; ; |.C+E+G+.+.+4.[.; ; ; ; ; ; ; Z ; ; ; ; ; ; ; ; J #.:.K / < ) ) r+U.!+2+f+f+h+y.) ) ) ) ) ) e.f.d.) ) ) ) ) ) ) < / K !.F e ' ' r+U.!+2+f+f+h+B.' ' ' ' ' ' u B 8 ' ' ' ' ' ' ' e x !.].J h , , t+V.)+<+d+d+g+u., , , , , , y E n , , , , , , , h J ].",
"^.W f > > s.m+a+p+p+p+l+r+s.> > > d 0.g.x+` G > > > > > > f W ^.:.&.U ; ; [.G+D+.+.+.+.+2.[.; ; ; ; ,.(.= @.Z ; ; ; ; ; ; U &.:.K [ ( ) ) y.[+R.6+f+f+6+g+n.) ) ) ) j.j.. h.e.) ) ) ) ) ) ( [ K !.W f ' 3 B.[+R.6+f+f+6+s+o.' ' ' ' 0.l.. V B ' ' ' ' ' ' f W !.].Z 0 , , u.<+S.5+d+d+5+v+s., , , , 9.l.- R E , , , , , , 0 Z ].",
"  %.s o o ` r+Z.l+p+p+l+m+]+u+s.s.u.n.*+Z.. ` G > G > > o s %.    '...I ; Z 2.y+.+B..+.+G+4.|.[.[.[.}.z+y+= @.Z ; Z ; ; I ..'.    2 ] 6.) h.s+. 6+e+6+6+2+'+r+y.y.B.v. + +x+h.f.) f.) ) 6.] 2     %.s 4 ' ` s+. 6+e+6+6+3+_+r+B.B.W.t.Z.x+x+V G ' B ' ' 4 s %.    *.x c , V v+- 5+d+5+5+<+r+t+u.u.W.n.- - - R E , E , , c x *.  ",
"  ^.Q i > > W.l+x+p+l+l+m+j+k+m+j+7+8+9+x+x+x+G ` > > > i Q ^.    :.#.Q ; ; |.G+= W..+G+G+F+E+G+F+C+B+z+= = = Z @.H ; ; Q #.:.    K / < ) ) {+[+. e+6+2+[+/+-+}+/+X.. . . . . f.h.) ) ) < / K     ).x i ' ' u+[+. e+6+6+[+/+-+}+/+*+. . . . x+B V ' ' ' i x ).    {.L e , , u+<+- d+5+5+<+^+%+<+^+Y.- - - - - E R , , , e L {.  ",
"    @.r p > B t+*+7+p+l+m+i+k+0+a+7+8+Z.x+x+x+` 8.> > p r @.        1 ..M ; Z |.z+C+.+G+G+F+E+E+D+C+B+= = = = @.Z ; ; M ..1         } ^ 2 ) e.t+. *+f+2+}+/+,+$+R.X.. . . . . h.h.) ) 2 ^ }         @.r 9 ' B v+. *+f+2+}+/+,+$+R.X.. . . . . V ` ' ' 9 r @.        +.l d , y w+`.Y.d+<+<+^+)+#+S.Y.- - - - - R V , , d l +.    ",
"    ^.X f > > {.t+4+8+l+m+j+k+0+a+8+*+x+x+x+9.g.d > > f X ^.        :.$.U ; H ,.|.A+C+G+G+F+E+D+D+B+y+= = = ,.,.; ; ; U $.:.        K _ : ) ) l.s+ + +2+}+/+-+$+T.Z.. . . . h.j.) ) ) : _ K         !.N f ' ' g.v+. . 2+}+/+-+$+T.Z.. . .  + .g.' ' ' f N !.        ].M j , , g.w+`.- 5+^+^+>+P.S.`.- - - -  .0., , , j M ].    ",
"      -.F w > > g.t+m+x+0+j+k+0+a+8+Z.x+x+l.].d > > w F -.            /.#.T ; I ,.|.G+y+D+F+E+D+D+A+= = = (.,.; ; ; T #./.            6./ [ ) ) l.t+}+ +Q./+-+Q.T.. . .  +k.l.d.) ) [ / 6.            =.x j ' ' g.v+}+ +Q./+-+Q.T.. . . x+p.g.' ' ' j x =.            ;.J i , , g.w+<+- P.^+>+P.S.- - - - l.g., , , i J ;.      ",
"        =.F j o > O W.r+l+b+9+4+4+Z.b+n.s.g.v > o j F =.                '.#.S H H Z |.|..+C+z+A+A+= C+}.[.,.; ; H S #.'.                2 / ( c.) f.{+s+6+U.. . . . T.v.y.l.) ) c.( / 2                 %.x j 3 ' G u+s+6+U.. . . . T.t.o.g.d ' 3 j x %.                *.J i a , E u+v+5+V.- - - - S.n.s.g.n , a i J *.        ",
"          =.Q g h d 3 8.u.u+t+t+u+u+u.g.> o > h g Q =.                    '.#.Y P ; ; ,.[.|.|.|.|.|.:.,.; ; ; P Y #.'.                    2 / _ } ) ) j.y.r+v+r+r+r+B.l.d.) ) } _ / 2                     %.F g 6 ' > 8.B.t+v+v+t+t+W.g.d ' ' 6 g F %.                    *.L f 9 , , ` u.w+w+w+w+u+u.g., , , 9 f L *.          ",
"            >.W r k h > > > d d > > > > > h k r W >.                        /.&...S P ; ; H H H H ; ; ; ; P S ..&./.                        m [ ^ ( | c.) ) ) ) ) ) ) ) ) | ( ^ [ m                         -.W r k 6 ' ' d ' ' 8 ' ' ' ' 6 k r W -.                        ;.Z l q 9 , , , , , , b a , , 9 q l Z ;.            ",
"              ^.=.X s z q e 9 o o 9 e q z s X =.^.                            :.'.$...Y T N M H H M N T Y ..$.'.:.                            K 2 : ] / [ } 2 6.6.2 } [ / ] : 2 K                             !.%.P s l 0 e 9 3 3 9 e 0 l s P %.!.                            ].*.W x g i p d b b d p i g x W *.].              ",
"                  ^.>.@.X S A D D A S X @.>.^.                                    :./.1 $...7.7.7.7.#.$.1 /.:.                                    K m } : ^ { ! ! { ^ : } m K                                     !.-.@.P r t 7 7 t r P @.-.!.                                    ].;.+.W F C t t C F W +.;.].                  ",
"                        ^.^.^.^.^.^.^.^.                                                :.:.:.:.:.:.:.:.                                                K K K K K K K K                                                 !.!.!.!.!.!.!.!.                                                ].].].].].].].].                        "};
