/* XPM */
static char * EXTNAVLASTT_xpm[] = {
"100 20 209 2",
"  	c None",
". 	c #2A67A6",
"+ 	c #2A629B",
"@ 	c #285D92",
"# 	c #244E78",
"$ 	c #254A70",
"% 	c #23476A",
"& 	c #0C71EA",
"* 	c #1167D3",
"= 	c #115FC1",
"- 	c #2766A6",
"; 	c #27609B",
"> 	c #255B92",
", 	c #2C6FB4",
"' 	c #2C69A8",
") 	c #2A639E",
"! 	c #2565A6",
"~ 	c #174F89",
"{ 	c #0E4F92",
"] 	c #0A55A1",
"^ 	c #0859AB",
"/ 	c #214C78",
"( 	c #183E64",
"_ 	c #123D6A",
": 	c #0F4174",
"< 	c #0E447B",
"[ 	c #046DE9",
"} 	c #0444B1",
"| 	c #0043C3",
"1 	c #004FD0",
"2 	c #0058C1",
"3 	c #2263A6",
"4 	c #144E89",
"5 	c #0A4D91",
"6 	c #0653A1",
"7 	c #0457AC",
"8 	c #276DB4",
"9 	c #185594",
"0 	c #0D559E",
"a 	c #095BAF",
"b 	c #0760B9",
"c 	c #195796",
"d 	c #084F98",
"e 	c #0968C8",
"f 	c #0A75E1",
"g 	c #19436D",
"h 	c #0D3D6E",
"i 	c #0E4E8F",
"j 	c #0F579F",
"k 	c #0352C9",
"l 	c #0043BC",
"m 	c #0073F6",
"n 	c #008CFF",
"o 	c #165596",
"p 	c #044D98",
"q 	c #0567CB",
"r 	c #0674E4",
"s 	c #1A5EA2",
"t 	c #0755A4",
"u 	c #0870DA",
"v 	c #097EF5",
"w 	c #14508E",
"x 	c #095AAC",
"y 	c #0A71DA",
"z 	c #163E67",
"A 	c #0F457C",
"B 	c #0F549B",
"C 	c #0046BA",
"D 	c #0058D2",
"E 	c #0085FF",
"F 	c #104E8E",
"G 	c #0558AD",
"H 	c #0670DD",
"I 	c #145699",
"J 	c #0861BB",
"K 	c #097AEE",
"L 	c #185491",
"M 	c #0960B7",
"N 	c #3A8CDE",
"O 	c #569ADC",
"P 	c #1C69B6",
"Q 	c #18406A",
"R 	c #0F4983",
"S 	c #1F60A2",
"T 	c #1A5DA1",
"U 	c #335F8A",
"V 	c #014CC0",
"W 	c #0063E0",
"X 	c #35A4FE",
"Y 	c #55B2FD",
"Z 	c #156DE0",
"` 	c #145291",
" .	c #055EB8",
"..	c #3A91EA",
"+.	c #59A2ED",
"@.	c #1A6ABA",
"#.	c #185A9D",
"$.	c #0867C7",
"%.	c #3391F1",
"&.	c #4C9DEE",
"*.	c #196FC5",
"=.	c #2564A4",
"-.	c #095098",
";.	c #0A72DC",
">.	c #D2D5D5",
",.	c #3087DF",
"'.	c #EFE3D3",
").	c #438ED8",
"!.	c #214B77",
"~.	c #0E3E6E",
"{.	c #0F559C",
"].	c #3E74A8",
"^.	c #638AAE",
"/.	c #7D98B0",
"(.	c #076BE6",
"_.	c #0046BC",
":.	c #0087FC",
"<.	c #DFF1FB",
"[.	c #2A9FFE",
"}.	c #FFFFFA",
"|.	c #40A4FB",
"1.	c #2263A5",
"2.	c #054E98",
"3.	c #0671DF",
"4.	c #E0EEFC",
"5.	c #308BE8",
"6.	c #FFFFFF",
"7.	c #4494E5",
"8.	c #276CB2",
"9.	c #0856A5",
"0.	c #097BEF",
"a.	c #BACFE4",
"b.	c #2B8EF2",
"c.	c #D3DBE1",
"d.	c #3B92EA",
"e.	c #154F8B",
"f.	c #096ACC",
"g.	c #DCDAD4",
"h.	c #4390DE",
"i.	c #163E65",
"j.	c #0F5091",
"k.	c #8DA3B6",
"l.	c #145AA0",
"m.	c #7D99B3",
"n.	c #0444B2",
"o.	c #0077F7",
"p.	c #EAF5FA",
"q.	c #40A9FE",
"r.	c #114D8B",
"s.	c #0569CE",
"t.	c #EAF3FD",
"u.	c #4497EB",
"v.	c #155596",
"w.	c #0872DE",
"x.	c #C2D3E3",
"y.	c #3C95F0",
"z.	c #2C6AA9",
"A.	c #0D5196",
"B.	c #0A74E0",
"C.	c #C9D1D5",
"D.	c #1D7EE0",
"E.	c #26507A",
"F.	c #113F6D",
"G.	c #0F569E",
"H.	c #5380AB",
"I.	c #0D77EF",
"J.	c #0046C0",
"K.	c #008BFF",
"L.	c #D4ECFB",
"M.	c #1596FF",
"N.	c #2969AA",
"O.	c #094F96",
"P.	c #0673E2",
"Q.	c #D6E8FA",
"R.	c #1B80E6",
"S.	c #2E72B8",
"T.	c #0C56A2",
"U.	c #097DF4",
"V.	c #B1CCE4",
"W.	c #1A86F3",
"X.	c #286098",
"Y.	c #095AAB",
"Z.	c #2783DF",
"`.	c #23496F",
" +	c #0F457B",
".+	c #5883AC",
"++	c #1063CF",
"@+	c #0058DE",
"#+	c #209AFE",
"$+	c #255E98",
"%+	c #0558AC",
"&+	c #2585E7",
"*+	c #2A67A5",
"=+	c #0861BA",
"-+	c #228AF2",
";+	c #265A8E",
">+	c #095FB7",
",+	c #BFCCD6",
"'+	c #224568",
")+	c #0E4883",
"!+	c #7393B1",
"~+	c #1059BB",
"{+	c #0063D2",
"]+	c #CAE7FB",
"^+	c #23588E",
"/+	c #CBE2F9",
"(+	c #28609A",
"_+	c #0866C6",
":+	c #A9C8E5",
"              . + @ @ + .                             # $ % % $ #                             & * = = * &                             - ; > > ; -                             , ' ) ) ' ,               ",
"          ! ~ { ] ^ ^ ] { ~ !                     / ( _ : < < : _ ( /                     [ } | 1 2 2 1 | } [                     3 4 5 6 7 7 6 5 4 3                     8 9 0 a b b a 0 9 8           ",
"        c d e f f f f f f e d c                 g h i j j j j j j i h g                 k l m n n n n n n m l k                 o p q r r r r r r q p o                 s t u v v v v v v u t s         ",
"      w x y f f f f f f f f y x w             z A B j j j j j j j j B A z             C D E n n n n n n n n E D C             F G H r r r r r r r r H G F             I J K v v v v v v v v K J I       ",
"    L M f N f f f f N f f f f O P L         Q R j S T j j j S T j j j S U Q         V W n X n n n n X n n n n Y Z V         `  .r ..r r r r ..r r r r +.@.`         #.$.v %.v v v v %.v v v v &.*.#.    ",
"  =.-.;.f >.,.f f f >.,.f f f '.).-.=.    !.~.{.j ].^.j j j ].^.j j j ]./.~.!.    (._.:.n <.[.n n n <.[.n n n }.|._.(.    1.2.3.r 4.5.r r r 4.5.r r r 6.7.2.1.    8.9.0.v a.b.v v v a.b.v v v c.d.9.8.  ",
"  e.f.f f '.g.,.f f '.g.,.f f '.h.f.e.    i.j.j j ].k.^.l.j ].k.^.l.j ].m.j.i.    n.o.n n }.p.[.n n }.p.[.n n }.q.o.n.    r.s.r r 6.t.5.r r 6.t.5.r r 6.u.s.r.    v.w.v v c.x.b.v v c.x.b.v v c.y.w.v.  ",
"z.A.B.f f '.'.C.D.f '.'.C.D.f '.h.B.A.z.E.F.G.j j ].k.k.H.j ].k.k.H.j ].m.G.F.E.I.J.K.n n }.}.L.M.n }.}.L.M.n }.q.K.J.I.N.O.P.r r 6.6.Q.R.r 6.6.Q.R.r 6.u.P.O.N.S.T.U.v v c.c.V.W.v c.c.V.W.v c.y.U.T.S.",
"X.Y.f f f '.'.'.C.Z.'.'.'.C.Z.'.h.f Y.X.`. +j j j ].k.k.k..+].k.k.k..+].m.j  +`.++@+n n n }.}.}.L.#+}.}.}.L.#+}.q.n @+++$+%+r r r 6.6.6.Q.&+6.6.6.Q.&+6.u.r %+$+*+=+v v v c.c.c.V.-+c.c.c.V.-+c.y.v =+*+",
";+>+f f f '.'.'.'.,+'.'.'.'.,+'.h.f >+;+'+)+j j j ].k.k.k.k.!+k.k.k.k.!+m.j )+'+~+{+n n n }.}.}.}.]+}.}.}.}.]+}.q.n {+~+^+ .r r r 6.6.6.6./+6.6.6.6./+6.u.r  .^+(+_+v v v c.c.c.c.:+c.c.c.c.:+c.y.v _+(+",
";+>+f f f '.'.'.'.,+'.'.'.'.,+'.h.f >+;+'+)+j j j ].k.k.k.k.!+k.k.k.k.!+m.j )+'+~+{+n n n }.}.}.}.]+}.}.}.}.]+}.q.n {+~+^+ .r r r 6.6.6.6./+6.6.6.6./+6.u.r  .^+(+_+v v v c.c.c.c.:+c.c.c.c.:+c.y.v _+(+",
"X.Y.f f f '.'.'.C.Z.'.'.'.C.Z.'.h.f Y.X.`. +j j j ].k.k.k..+].k.k.k..+].m.j  +`.++@+n n n }.}.}.L.#+}.}.}.L.#+}.q.n @+++$+%+r r r 6.6.6.Q.&+6.6.6.Q.&+6.u.r %+$+*+=+v v v c.c.c.V.-+c.c.c.V.-+c.y.v =+*+",
"z.A.B.f f '.'.C.D.f '.'.C.D.f '.h.B.A.z.E.F.G.j j ].k.k.H.j ].k.k.H.j ].m.G.F.E.I.J.K.n n }.}.L.M.n }.}.L.M.n }.q.K.J.I.N.O.P.r r 6.6.Q.R.r 6.6.Q.R.r 6.u.P.O.N.S.T.U.v v c.c.V.W.v c.c.V.W.v c.y.U.T.S.",
"  e.f.f f '.g.,.f f '.g.,.f f '.h.f.e.    i.j.j j ].k.^.l.j ].k.^.l.j ].m.j.i.    n.o.n n }.p.[.n n }.p.[.n n }.q.o.n.    r.s.r r 6.t.5.r r 6.t.5.r r 6.u.s.r.    v.w.v v c.x.b.v v c.x.b.v v c.y.w.v.  ",
"  =.-.;.f >.,.f f f >.,.f f f '.).-.=.    !.~.{.j ].^.j j j ].^.j j j ]./.~.!.    (._.:.n <.[.n n n <.[.n n n }.|._.(.    1.2.3.r 4.5.r r r 4.5.r r r 6.7.2.1.    8.9.0.v a.b.v v v a.b.v v v c.d.9.8.  ",
"    L M f N f f f f N f f f f O P L         Q R j S T j j j S T j j j S U Q         V W n X n n n n X n n n n Y Z V         `  .r ..r r r r ..r r r r +.@.`         #.$.v %.v v v v %.v v v v &.*.#.    ",
"      w x y f f f f f f f f y x w             z A B j j j j j j j j B A z             C D E n n n n n n n n E D C             F G H r r r r r r r r H G F             I J K v v v v v v v v K J I       ",
"        c d e f f f f f f e d c                 g h i j j j j j j i h g                 k l m n n n n n n m l k                 o p q r r r r r r q p o                 s t u v v v v v v u t s         ",
"          ! ~ { ] ^ ^ ] { ~ !                     / ( _ : < < : _ ( /                     [ } | 1 2 2 1 | } [                     3 4 5 6 7 7 6 5 4 3                     8 9 0 a b b a 0 9 8           ",
"              . + @ @ + .                             # $ % % $ #                             & * = = * &                             - ; > > ; -                             , ' ) ) ' ,               "};
