/* XPM */
static char * EXTNAVPREVIOUST_xpm[] = {
"100 20 191 2",
"  	c None",
". 	c #2A67A6",
"+ 	c #2A629B",
"@ 	c #285D92",
"# 	c #244E78",
"$ 	c #254A70",
"% 	c #23476A",
"& 	c #0C71EA",
"* 	c #1167D3",
"= 	c #115FC1",
"- 	c #2766A6",
"; 	c #27609B",
"> 	c #255B92",
", 	c #2C6FB4",
"' 	c #2C69A8",
") 	c #2A639E",
"! 	c #2565A6",
"~ 	c #174F89",
"{ 	c #0E4F92",
"] 	c #0A55A1",
"^ 	c #0859AB",
"/ 	c #214C78",
"( 	c #183E64",
"_ 	c #123D6A",
": 	c #0F4174",
"< 	c #0E447B",
"[ 	c #046DE9",
"} 	c #0444B1",
"| 	c #0043C3",
"1 	c #004FD0",
"2 	c #0058C1",
"3 	c #2263A6",
"4 	c #144E89",
"5 	c #0A4D91",
"6 	c #0653A1",
"7 	c #0457AC",
"8 	c #276DB4",
"9 	c #185594",
"0 	c #0D559E",
"a 	c #095BAF",
"b 	c #0760B9",
"c 	c #195796",
"d 	c #084F98",
"e 	c #0968C8",
"f 	c #0A75E1",
"g 	c #19436D",
"h 	c #0D3D6E",
"i 	c #0E4E8F",
"j 	c #0F579F",
"k 	c #0352C9",
"l 	c #0043BC",
"m 	c #0073F6",
"n 	c #008CFF",
"o 	c #165596",
"p 	c #044D98",
"q 	c #0567CB",
"r 	c #0674E4",
"s 	c #1A5EA2",
"t 	c #0755A4",
"u 	c #0870DA",
"v 	c #097EF5",
"w 	c #14508E",
"x 	c #095AAC",
"y 	c #0A71DA",
"z 	c #163E67",
"A 	c #0F457C",
"B 	c #0F549B",
"C 	c #0046BA",
"D 	c #0058D2",
"E 	c #0085FF",
"F 	c #104E8E",
"G 	c #0558AD",
"H 	c #0670DD",
"I 	c #145699",
"J 	c #0861BB",
"K 	c #097AEE",
"L 	c #185491",
"M 	c #0960B7",
"N 	c #3D8FE1",
"O 	c #18406A",
"P 	c #0F4983",
"Q 	c #2967A4",
"R 	c #014CC0",
"S 	c #0063E0",
"T 	c #35A4FE",
"U 	c #145291",
"V 	c #055EB8",
"W 	c #3A91E9",
"X 	c #185A9D",
"Y 	c #0867C7",
"Z 	c #3A94F0",
"` 	c #2564A4",
" .	c #095098",
"..	c #0A72DC",
"+.	c #4794E1",
"@.	c #CAD7E1",
"#.	c #214B77",
"$.	c #0E3E6E",
"%.	c #0F559C",
"&.	c #2E6AA5",
"*.	c #7393B1",
"=.	c #076BE6",
"-.	c #0046BC",
";.	c #0087FC",
">.	c #40A9FE",
",.	c #CAE7FB",
"'.	c #2263A5",
").	c #054E98",
"!.	c #0671DF",
"~.	c #4497EA",
"{.	c #CBE2F5",
"].	c #276CB2",
"^.	c #0856A5",
"/.	c #097BEF",
"(.	c #4399EF",
"_.	c #C1D3E3",
":.	c #154F8B",
"<.	c #096ACC",
"[.	c #FDF1E1",
"}.	c #DFE1E1",
"|.	c #163E65",
"1.	c #0F5091",
"2.	c #8DA3B6",
"3.	c #7D99B3",
"4.	c #0444B2",
"5.	c #0077F7",
"6.	c #FFFFFA",
"7.	c #DFF1FB",
"8.	c #114D8B",
"9.	c #0569CE",
"0.	c #E0EEF7",
"a.	c #155596",
"b.	c #0872DE",
"c.	c #F2E9DE",
"d.	c #D5DCE1",
"e.	c #2C6AA9",
"f.	c #0D5196",
"g.	c #0A74E0",
"h.	c #328AE1",
"i.	c #DFE2E1",
"j.	c #26507A",
"k.	c #113F6D",
"l.	c #0F569E",
"m.	c #2464A3",
"n.	c #7D9AB3",
"o.	c #0D77EF",
"p.	c #0046C0",
"q.	c #008BFF",
"r.	c #2A9FFE",
"s.	c #2969AA",
"t.	c #094F96",
"u.	c #0673E2",
"v.	c #308BE8",
"w.	c #2E72B8",
"x.	c #0C56A2",
"y.	c #097DF4",
"z.	c #3090F1",
"A.	c #286098",
"B.	c #095AAB",
"C.	c #E9E7E1",
"D.	c #23496F",
"E.	c #0F457B",
"F.	c #829DB4",
"G.	c #1063CF",
"H.	c #0058DE",
"I.	c #EAF5FA",
"J.	c #255E98",
"K.	c #0558AC",
"L.	c #EAF3F8",
"M.	c #2A67A5",
"N.	c #0861BA",
"O.	c #DFE0E0",
"P.	c #265A8E",
"Q.	c #095FB7",
"R.	c #1E7FE1",
"S.	c #D4DCE1",
"T.	c #224568",
"U.	c #0E4883",
"V.	c #1A5DA1",
"W.	c #7896B2",
"X.	c #1059BB",
"Y.	c #0063D2",
"Z.	c #1596FF",
"`.	c #D4ECFB",
" +	c #23588E",
".+	c #1B80E6",
"++	c #D6E8F6",
"@+	c #28609A",
"#+	c #0866C6",
"$+	c #1C87F3",
"%+	c #CBD7E2",
"              . + @ @ + .                             # $ % % $ #                             & * = = * &                             - ; > > ; -                             , ' ) ) ' ,               ",
"          ! ~ { ] ^ ^ ] { ~ !                     / ( _ : < < : _ ( /                     [ } | 1 2 2 1 | } [                     3 4 5 6 7 7 6 5 4 3                     8 9 0 a b b a 0 9 8           ",
"        c d e f f f f f f e d c                 g h i j j j j j j i h g                 k l m n n n n n n m l k                 o p q r r r r r r q p o                 s t u v v v v v v u t s         ",
"      w x y f f f f f f f f y x w             z A B j j j j j j j j B A z             C D E n n n n n n n n E D C             F G H r r r r r r r r H G F             I J K v v v v v v v v K J I       ",
"    L M f f f f f f f N f f f f M L         O P j j j j j j j Q j j j j P O         R S n n n n n n n T n n n n S R         U V r r r r r r r W r r r r V U         X Y v v v v v v v Z v v v v Y X     ",
"  `  ...f f f f f f +.@.f f f f .. .`     #.$.%.j j j j j j &.*.j j j j %.$.#.    =.-.;.n n n n n n >.,.n n n n ;.-.=.    '.).!.r r r r r r ~.{.r r r r !.).'.    ].^./.v v v v v v (._.v v v v /.^.].  ",
"  :.<.f f f f f f N [.}.f f f f f <.:.    |.1.j j j j j j Q 2.3.j j j j j 1.|.    4.5.n n n n n n T 6.7.n n n n n 5.4.    8.9.r r r r r r W 6.0.r r r r r 9.8.    a.b.v v v v v v Z c.d.v v v v v b.a.  ",
"e.f.g.f f f f f h.i.[.}.f f f f f g.f.e.j.k.l.j j j j j m.n.2.3.j j j j j l.k.j.o.p.q.n n n n n r.7.6.7.n n n n n q.p.o.s.t.u.r r r r r v.0.6.0.r r r r r u.t.s.w.x.y.v v v v v z.d.c.d.v v v v v y.x.w.",
"A.B.f f f f f h.C.[.[.}.f f f f f f B.A.D.E.j j j j j m.F.2.2.3.j j j j j j E.D.G.H.n n n n n r.I.6.6.7.n n n n n n H.G.J.K.r r r r r v.L.6.6.0.r r r r r r K.J.M.N.v v v v v z.O.c.c.d.v v v v v v N.M.",
"P.Q.f f f f R.S.[.[.[.}.f f f f f f Q.P.T.U.j j j j V.W.2.2.2.3.j j j j j j U.T.X.Y.n n n n Z.`.6.6.6.7.n n n n n n Y.X. +V r r r r .+++6.6.6.0.r r r r r r V  +@+#+v v v v $+%+c.c.c.d.v v v v v v #+@+",
"P.Q.f f f f R.S.[.[.[.}.f f f f f f Q.P.T.U.j j j j V.W.2.2.2.3.j j j j j j U.T.X.Y.n n n n Z.`.6.6.6.7.n n n n n n Y.X. +V r r r r .+++6.6.6.0.r r r r r r V  +@+#+v v v v $+%+c.c.c.d.v v v v v v #+@+",
"A.B.f f f f f h.C.[.[.}.f f f f f f B.A.D.E.j j j j j m.F.2.2.3.j j j j j j E.D.G.H.n n n n n r.I.6.6.7.n n n n n n H.G.J.K.r r r r r v.L.6.6.0.r r r r r r K.J.M.N.v v v v v z.O.c.c.d.v v v v v v N.M.",
"e.f.g.f f f f f h.i.[.}.f f f f f g.f.e.j.k.l.j j j j j m.n.2.3.j j j j j l.k.j.o.p.q.n n n n n r.7.6.7.n n n n n q.p.o.s.t.u.r r r r r v.0.6.0.r r r r r u.t.s.w.x.y.v v v v v z.d.c.d.v v v v v y.x.w.",
"  :.<.f f f f f f N [.}.f f f f f <.:.    |.1.j j j j j j Q 2.3.j j j j j 1.|.    4.5.n n n n n n T 6.7.n n n n n 5.4.    8.9.r r r r r r W 6.0.r r r r r 9.8.    a.b.v v v v v v Z c.d.v v v v v b.a.  ",
"  `  ...f f f f f f +.@.f f f f .. .`     #.$.%.j j j j j j &.*.j j j j %.$.#.    =.-.;.n n n n n n >.,.n n n n ;.-.=.    '.).!.r r r r r r ~.{.r r r r !.).'.    ].^./.v v v v v v (._.v v v v /.^.].  ",
"    L M f f f f f f f N f f f f M L         O P j j j j j j j Q j j j j P O         R S n n n n n n n T n n n n S R         U V r r r r r r r W r r r r V U         X Y v v v v v v v Z v v v v Y X     ",
"      w x y f f f f f f f f y x w             z A B j j j j j j j j B A z             C D E n n n n n n n n E D C             F G H r r r r r r r r H G F             I J K v v v v v v v v K J I       ",
"        c d e f f f f f f e d c                 g h i j j j j j j i h g                 k l m n n n n n n m l k                 o p q r r r r r r q p o                 s t u v v v v v v u t s         ",
"          ! ~ { ] ^ ^ ] { ~ !                     / ( _ : < < : _ ( /                     [ } | 1 2 2 1 | } [                     3 4 5 6 7 7 6 5 4 3                     8 9 0 a b b a 0 9 8           ",
"              . + @ @ + .                             # $ % % $ #                             & * = = * &                             - ; > > ; -                             , ' ) ) ' ,               "};
