/* XPM */
static char * EXTNAVSETBOOKMARKT_xpm[] = {
"100 20 648 2",
"  	c None",
". 	c #2A67A6",
"+ 	c #2A629B",
"@ 	c #285D92",
"# 	c #254E78",
"$ 	c #244A70",
"% 	c #23476A",
"& 	c #0C71EB",
"* 	c #1167D3",
"= 	c #115FC2",
"- 	c #2866A7",
"; 	c #27609C",
"> 	c #255B92",
", 	c #2C70B4",
"' 	c #2C69A8",
") 	c #2B649E",
"! 	c #2565A6",
"~ 	c #164F89",
"{ 	c #0D4F92",
"] 	c #0954A1",
"^ 	c #0859AA",
"/ 	c #214B77",
"( 	c #183D63",
"_ 	c #123E6A",
": 	c #0E4174",
"< 	c #0E447B",
"[ 	c #046DE8",
"} 	c #0444B1",
"| 	c #0044C1",
"1 	c #0051CD",
"2 	c #0057C2",
"3 	c #2263A6",
"4 	c #154E89",
"5 	c #0B4D91",
"6 	c #0653A2",
"7 	c #0558AC",
"8 	c #276DB4",
"9 	c #185594",
"0 	c #0D549D",
"a 	c #095CB0",
"b 	c #0860BA",
"c 	c #195796",
"d 	c #064E97",
"e 	c #0868C8",
"f 	c #0A75E1",
"g 	c #1774CE",
"h 	c #858357",
"i 	c #87804D",
"j 	c #19436D",
"k 	c #0E3E6F",
"l 	c #0F4E8E",
"m 	c #0F579F",
"n 	c #175A9C",
"o 	c #667E98",
"p 	c #597794",
"q 	c #16599D",
"r 	c #0351CC",
"s 	c #0042B9",
"t 	c #0074F4",
"u 	c #008CFF",
"v 	c #0E8BEA",
"w 	c #8E9265",
"x 	c #8C8D5C",
"y 	c #0E8AEA",
"z 	c #008BFF",
"A 	c #165696",
"B 	c #064E98",
"C 	c #0667C9",
"D 	c #0674E4",
"E 	c #1475D2",
"F 	c #908C5E",
"G 	c #8D8755",
"H 	c #195DA3",
"I 	c #0654A5",
"J 	c #076FD8",
"K 	c #097EF5",
"L 	c #1279E1",
"M 	c #6A6753",
"N 	c #6A6548",
"O 	c #14518E",
"P 	c #095AAB",
"Q 	c #0A71DA",
"R 	c #3074A9",
"S 	c #CDB881",
"T 	c #D2B45F",
"U 	c #3073A9",
"V 	c #163E67",
"W 	c #0F559B",
"X 	c #265F97",
"Y 	c #BABFC5",
"Z 	c #ACB5BD",
"` 	c #245E98",
" .	c #0048BB",
"..	c #005AD4",
"+.	c #0085FE",
"@.	c #2B88C1",
"#.	c #DBC58B",
"$.	c #D7BD70",
"%.	c #005CD4",
"&.	c #114E8D",
"*.	c #0659AE",
"=.	c #0671DE",
"-.	c #3076AD",
";.	c #155799",
">.	c #0861BB",
",.	c #087AEE",
"'.	c #2570B8",
").	c #A89068",
"!.	c #AA8C49",
"~.	c #175492",
"{.	c #0960B7",
"].	c #4F727A",
"^.	c #D9C37A",
"/.	c #D6B55D",
"(.	c #19416A",
"_.	c #0F4984",
":.	c #3A6591",
"<.	c #C3C6CA",
"[.	c #B8BFC5",
"}.	c #356492",
"|.	c #004CC0",
"1.	c #0064DF",
"2.	c #4F848E",
"3.	c #DFCC89",
"4.	c #DEC46B",
"5.	c #0065DF",
"6.	c #145190",
"7.	c #065EB8",
"8.	c #53777F",
"9.	c #195A9D",
"0.	c #0867C6",
"a.	c #3D6585",
"b.	c #AE9965",
"c.	c #AD9449",
"d.	c #2463A4",
"e.	c #095098",
"f.	c #0A72DC",
"g.	c #967E35",
"h.	c #E2D086",
"i.	c #DEC558",
"j.	c #957925",
"k.	c #224B77",
"l.	c #0F3E6E",
"m.	c #0F559C",
"n.	c #738292",
"o.	c #D7D8D9",
"p.	c #C7CBCF",
"q.	c #637A90",
"r.	c #0768E8",
"s.	c #0045BC",
"t.	c #0086FC",
"u.	c #A18C40",
"v.	c #EEDC94",
"w.	c #ECD261",
"x.	c #A0872F",
"y.	c #0087FC",
"z.	c #2363A4",
"A.	c #074F99",
"B.	c #0671DF",
"C.	c #A2893C",
"D.	c #A0842C",
"E.	c #266BB2",
"F.	c #0856A6",
"G.	c #097BF0",
"H.	c #765E30",
"I.	c #BDAA64",
"J.	c #B99E34",
"K.	c #745920",
"L.	c #144F8B",
"M.	c #096ACC",
"N.	c #A18940",
"O.	c #F1DD7A",
"P.	c #ECCE40",
"Q.	c #9E8326",
"R.	c #163E65",
"S.	c #0E5090",
"T.	c #7E8D9C",
"U.	c #E3E3E3",
"V.	c #D1D1D1",
"W.	c #6F8396",
"X.	c #0444B2",
"Y.	c #0079FB",
"Z.	c #AB974C",
"`.	c #FDE886",
" +	c #F9DA4A",
".+	c #A89131",
"++	c #124E8B",
"@+	c #066ACE",
"#+	c #AB9448",
"$+	c #A88E2E",
"%+	c #165697",
"&+	c #0872DD",
"*+	c #7F6939",
"=+	c #CAB555",
"-+	c #C6A61C",
";+	c #7C621F",
">+	c #2B6AAA",
",+	c #0C5197",
"'+	c #0A74E0",
")+	c #A38C3E",
"!+	c #F3D95E",
"~+	c #F2CE23",
"{+	c #A58922",
"]+	c #26507A",
"^+	c #113F6C",
"/+	c #0F569E",
"(+	c #808E9E",
"_+	c #DEDEDE",
":+	c #D0D0D0",
"<+	c #74879B",
"[+	c #0D75F0",
"}+	c #0045C0",
"|+	c #AC9849",
"1+	c #FFE369",
"2+	c #FEDA2F",
"3+	c #AE972C",
"4+	c #2869AB",
"5+	c #0A4F96",
"6+	c #0674E3",
"7+	c #AD9546",
"8+	c #AF9428",
"9+	c #0A4F95",
"0+	c #2969AA",
"a+	c #2F72B8",
"b+	c #0C57A3",
"c+	c #097DF4",
"d+	c #806B35",
"e+	c #CCB333",
"f+	c #CBA607",
"g+	c #836A1F",
"h+	c #286098",
"i+	c #085AAC",
"j+	c #2374BC",
"k+	c #A88C3E",
"l+	c #BF9D44",
"m+	c #BE9A3C",
"n+	c #BC962C",
"o+	c #E1C356",
"p+	c #F3CF2D",
"q+	c #F3C90F",
"r+	c #DCB720",
"s+	c #BC9320",
"t+	c #BC952D",
"u+	c #BD942D",
"v+	c #BD9524",
"w+	c #567B81",
"x+	c #23496F",
"y+	c #0E457C",
"z+	c #1D5C9A",
"A+	c #7C8A99",
"B+	c #9BA1A7",
"C+	c #999FA5",
"D+	c #969CA2",
"E+	c #BEC2C7",
"F+	c #D3D3D3",
"G+	c #CFCFCF",
"H+	c #ACB3BA",
"I+	c #8B96A1",
"J+	c #8E99A4",
"K+	c #8794A0",
"L+	c #3B6A98",
"M+	c #1063CF",
"N+	c #0055DA",
"O+	c #1D89D7",
"P+	c #B2994A",
"Q+	c #C8A74F",
"R+	c #C8A64D",
"S+	c #C7A341",
"T+	c #C8A236",
"U+	c #EACC62",
"V+	c #FFDB3A",
"W+	c #FFD51B",
"X+	c #E7C02A",
"Y+	c #C89F28",
"Z+	c #C8A136",
"`+	c #C8A12D",
" @	c #568D95",
".@	c #255E98",
"+@	c #0659AC",
"@@	c #2275C1",
"#@	c #B29748",
"$@	c #598086",
"%@	c #2A67A4",
"&@	c #1C75CC",
"*@	c #846935",
"=@	c #957438",
"-@	c #967336",
";@	c #96712B",
">@	c #956E1F",
",@	c #BA9B2F",
"'@	c #CBA511",
")@	c #CCA300",
"!@	c #B48C08",
"~@	c #956D14",
"{@	c #956E21",
"]@	c #956E1E",
"^@	c #956D18",
"/@	c #446E89",
"(@	c #265A8E",
"_@	c #095FB7",
":@	c #AB9247",
"<@	c #E1D092",
"[@	c #F8F5BC",
"}@	c #F5E691",
"|@	c #F3DA64",
"1@	c #F3D338",
"2@	c #F3CA13",
"3@	c #F3CD1F",
"4@	c #F3D746",
"5@	c #F4DC6E",
"6@	c #F3E28A",
"7@	c #F4E281",
"8@	c #D4B440",
"9@	c #224669",
"0@	c #0E4984",
"a@	c #81909F",
"b@	c #D5D8DC",
"c@	c #F4F4F4",
"d@	c #EAEAEA",
"e@	c #D7D7D7",
"f@	c #DADADA",
"g@	c #E1E1E1",
"h@	c #E7E7E7",
"i@	c #A0ABB6",
"j@	c #0E4983",
"k@	c #1059BB",
"l@	c #0062D2",
"m@	c #B6A154",
"n@	c #EFE4A3",
"o@	c #FBF8C8",
"p@	c #FDEC9D",
"q@	c #FFE76F",
"r@	c #FFDF42",
"s@	c #FFD61E",
"t@	c #FFD92D",
"u@	c #FFE354",
"v@	c #FFE778",
"w@	c #FEEE96",
"x@	c #FFEF8D",
"y@	c #E2C14C",
"z@	c #24588E",
"A@	c #055EB7",
"B@	c #B79F52",
"C@	c #28609A",
"D@	c #0866C7",
"E@	c #887038",
"F@	c #BBAC6F",
"G@	c #CFC793",
"H@	c #CCBE67",
"I@	c #CCB239",
"J@	c #CCAC12",
"K@	c #CCA504",
"L@	c #CBAE20",
"M@	c #CAB346",
"N@	c #CCBC63",
"O@	c #CCBB5B",
"P@	c #AF8E24",
"Q@	c #727550",
"R@	c #C8A945",
"S@	c #EACD59",
"T@	c #F3D034",
"U@	c #F3CA16",
"V@	c #F3CB1C",
"W@	c #F3D545",
"X@	c #F3DE66",
"Y@	c #F3E388",
"Z@	c #E6D372",
"`@	c #A49D5B",
" #	c #497283",
".#	c #0E4883",
"+#	c #1F5C9A",
"@#	c #516F8D",
"##	c #A6ACB4",
"$#	c #D2D3D4",
"%#	c #D5D5D5",
"&#	c #CDCDCD",
"*#	c #D9D9D9",
"=#	c #E0E0E0",
"-#	c #C7CDD3",
";#	c #7690AA",
">#	c #326394",
",#	c #1D88D6",
"'#	c #77865F",
")#	c #D6B352",
"!#	c #F6DA65",
"~#	c #FFDD3F",
"{#	c #FFD620",
"]#	c #FFD82A",
"^#	c #FFE252",
"/#	c #FFEA73",
"(#	c #FEEF95",
"_#	c #F2E07F",
":#	c #A8AB6C",
"<#	c #488598",
"[#	c #2275BF",
"}#	c #797E56",
"|#	c #A9A666",
"1#	c #4C7788",
"2#	c #545A52",
"3#	c #A9852B",
"4#	c #C2A834",
"5#	c #CCA80C",
"6#	c #CCA403",
"7#	c #CCAE1C",
"8#	c #CCB63D",
"9#	c #CCBB60",
"0#	c #C1AA4E",
"a#	c #888144",
"b#	c #38688F",
"c#	c #657362",
"d#	c #BC9017",
"e#	c #E8C018",
"f#	c #F3CB1A",
"g#	c #F3D139",
"h#	c #F3DB60",
"i#	c #F3E37F",
"j#	c #E5CE6F",
"k#	c #9B8A42",
"l#	c #1E77C6",
"m#	c #0E447A",
"n#	c #476B8E",
"o#	c #8D949C",
"p#	c #BEC2C4",
"q#	c #CECECD",
"r#	c #DFDFDF",
"s#	c #E6E6E6",
"t#	c #C8CDD1",
"u#	c #6A839B",
"v#	c #1B5C9D",
"w#	c #688471",
"x#	c #C79C23",
"y#	c #F4CC26",
"z#	c #FFD729",
"A#	c #FFDE46",
"B#	c #FFE76C",
"C#	c #FFEE8B",
"D#	c #ECD87C",
"E#	c #A39850",
"F#	c #178BE2",
"G#	c #6A7A66",
"H#	c #A4944C",
"I#	c #1C76CA",
"J#	c #4E6166",
"K#	c #946907",
"L#	c #C09906",
"M#	c #CCA302",
"N#	c #CCA812",
"O#	c #CCB336",
"P#	c #BAA549",
"Q#	c #7A6A39",
"R#	c #1879D6",
"S#	c #3F769A",
"T#	c #D4AE2C",
"U#	c #F3D33A",
"V#	c #F3DA5A",
"W#	c #F3E288",
"X#	c #D4B646",
"Y#	c #3F7699",
"Z#	c #316397",
"`#	c #ACB1B6",
" $	c #AEB6BE",
".$	c #2D6398",
"+$	c #3C8AB2",
"@$	c #E0BA37",
"#$	c #FFDF46",
"$$	c #FFE664",
"%$	c #FFEF8B",
"&$	c #FEEF94",
"*$	c #E0C14F",
"=$	c #3C89AF",
"-$	c #407AA0",
";$	c #40799D",
">$	c #316FA6",
",$	c #AC8414",
"'$	c #CCAA12",
")$	c #CCB234",
"!$	c #CCBA58",
"~$	c #CCBB5F",
"{$	c #AD8E2C",
"]$	c #316FA4",
"^$	c #8C8C5A",
"/$	c #EFD249",
"($	c #F3DA54",
"_$	c #F0DD6E",
":$	c #F0E298",
"<$	c #F4E48B",
"[$	c #EED355",
"}$	c #888445",
"|$	c #6B849D",
"1$	c #D2D4D6",
"2$	c #DDDDDD",
"3$	c #E9E9E9",
"4$	c #5F7C99",
"5$	c #979D65",
"6$	c #FBDE54",
"7$	c #FFE55E",
"8$	c #FCE778",
"9$	c #FAEEA5",
"0$	c #FFF196",
"a$	c #FBE060",
"b$	c #8F9054",
"c$	c #99975E",
"d$	c #908A4D",
"e$	c #114D8A",
"f$	c #155595",
"g$	c #716E44",
"h$	c #C8AA21",
"i$	c #CCB12F",
"j$	c #CAB348",
"k$	c #CCBF72",
"l$	c #CCBC60",
"m$	c #C8AB2A",
"n$	c #6B6641",
"o$	c #43738D",
"p$	c #D2B043",
"q$	c #F3DC54",
"r$	c #E3CA57",
"s$	c #938946",
"t$	c #9B904F",
"u$	c #ECDD9E",
"v$	c #F4E061",
"w$	c #CBA41B",
"x$	c #326393",
"y$	c #C7CCD1",
"z$	c #6D849B",
"A$	c #748BA1",
"B$	c #D8DCE0",
"C$	c #959FA9",
"D$	c #2E6194",
"E$	c #4186A2",
"F$	c #DFBE4E",
"G$	c #FFE85F",
"H$	c #F0D663",
"I$	c #9B9757",
"J$	c #A09E5E",
"K$	c #F5E7A8",
"L$	c #FFEA70",
"M$	c #D5AD25",
"N$	c #4186A3",
"O$	c #457792",
"P$	c #9C9252",
"Q$	c #A29959",
"R$	c #336A99",
"S$	c #AC8927",
"T$	c #CCB52C",
"U$	c #BCA132",
"V$	c #746B40",
"W$	c #7B7244",
"X$	c #C6B378",
"Y$	c #CCB83B",
"Z$	c #A27A04",
"`$	c #8B7F3F",
" %	c #E3C955",
".%	c #E6D053",
"+%	c #9B8A3C",
"@%	c #1D74C5",
"#%	c #1E76C7",
"$%	c #A5964E",
"%%	c #EFDF94",
"&%	c #DFC136",
"*%	c #877931",
"=%	c #667D94",
"-%	c #C8CBCE",
";%	c #CACED2",
">%	c #74889C",
",%	c #1B5B9B",
"'%	c #1C5D9D",
")%	c #7E91A4",
"!%	c #DFE2E6",
"~%	c #C0C3C6",
"{%	c #59748F",
"]%	c #948E4F",
"^%	c #F0D461",
"/%	c #F3D961",
"(%	c #A4984A",
"_%	c #168AE0",
":%	c #178CE3",
"<%	c #ADA55C",
"[%	c #FBEAA2",
"}%	c #EBCB44",
"|%	c #908A41",
"1%	c #958949",
"2%	c #A59446",
"3%	c #1B75C8",
"4%	c #1C77CC",
"5%	c #AEA157",
"6%	c #92853B",
"7%	c #6E6239",
"8%	c #BEA12E",
"9%	c #C0A62C",
"0%	c #7B6B32",
"a%	c #1777D6",
"b%	c #85763F",
"c%	c #C6B773",
"d%	c #B89919",
"e%	c #695B34",
"f%	c #BF9833",
"g%	c #DFC352",
"h%	c #968237",
"i%	c #1775CE",
"j%	c #9E8C36",
"k%	c #E2CB79",
"l%	c #B98A0F",
"m%	c #989FA6",
"n%	c #C2C7CD",
"o%	c #6E8297",
"p%	c #175A9D",
"q%	c #C4CACF",
"r%	c #7D8995",
"s%	c #0047BB",
"t%	c #CCA63C",
"u%	c #EAD05E",
"v%	c #9F9245",
"w%	c #0F8CEB",
"x%	c #A89B46",
"y%	c #ECD583",
"z%	c #C39619",
"A%	c #A08E40",
"B%	c #1576D3",
"C%	c #A89741",
"D%	c #99721B",
"E%	c #B99A2F",
"F%	c #77652C",
"G%	c #137AE1",
"H%	c #7F6E2A",
"I%	c #BAA258",
"J%	c #916202",
"K%	c #68653E",
"L%	c #A07E22",
"M%	c #A2801B",
"N%	c #676033",
"O%	c #4F6277",
"P%	c #707F8F",
"Q%	c #6D7C8C",
"R%	c #455A70",
"S%	c #6E604A",
"T%	c #A98B2D",
"U%	c #1D89D6",
"V%	c #AC8C25",
"W%	c #6C5C40",
"X%	c #706D43",
"Y%	c #AA892B",
"Z%	c #AC8A22",
"`%	c #6E6838",
" &	c #525039",
".&	c #7D5B19",
"+&	c #7E5C15",
"@&	c #504B34",
"              . + @ @ + .                             # $ % % $ #                             & * = = * &                             - ; > > ; -                             , ' ) ) ' ,               ",
"          ! ~ { ] ^ ^ ] { ~ !                     / ( _ : < < : _ ( /                     [ } | 1 2 2 1 | } [                     3 4 5 6 7 7 6 5 4 3                     8 9 0 a b b a 0 9 8           ",
"        c d e f g h i g f e d c                 j k l m n o p q m l k j                 r s t u v w x y z t s r                 A B C D E F G E D C B A                 H I J K L M N L K J I H         ",
"      O P Q f f R S T U f f Q P O             V < W m m X Y Z ` m m W < V              ...+.u u @.#.$.@.u u +.%. .            &.*.=.D D -.#.$.-.D D =.*.&.            ;.>.,.K K '.).!.'.K K ,.>.;.      ",
"    ~.{.f f f f ].^./.].f f f f {.~.        (._.m m m m :.<.[.}.m m m m _.(.        |.1.u u u u 2.3.4.2.u u u z 5.|.        6.7.D D D D 8.3.4.8.D D D D 7.6.        9.0.K K K K a.b.c.a.K K K K 0.9.    ",
"  d.e.f.f f f f g.h.i.j.f f f f f.e.d.    k.l.m.m m m m n.o.p.q.m m m m m.l.k.    r.s.t.u u u u u.v.w.x.u u u u y.s.r.    z.A.B.D D D D C.v.w.D.D D D D B.A.z.    E.F.G.K K K K H.I.J.K.K K K K G.F.E.  ",
"  L.M.f f f f f N.O.P.Q.f f f f f M.L.    R.S.m m m m m T.U.V.W.m m m m m S.R.    X.Y.u u u u u Z.`. +.+u u u u u Y.X.    ++@+D D D D D #+`. +$+D D D D D @+++    %+&+K K K K K *+=+-+;+K K K K K &+%+  ",
">+,+'+f f f f f )+!+~+{+f f f f f '+,+>+]+^+/+m m m m m (+_+:+<+m m m m m /+^+]+[+}+z u u u u u |+1+2+3+u u u u u z }+[+4+5+6+D D D D D 7+1+2+8+D D D D D 6+9+0+a+b+c+K K K K K d+e+f+g+K K K K K c+b+a+",
"h+i+j+k+l+l+m+n+o+p+q+r+s+t+u+v+w+f i+h+x+y+z+A+B+B+C+D+E+F+G+H+I+J+J+K+L+m y+x+M+N+O+P+Q+R+S+T+U+V+W+X+Y+Z+T+`+ @u N+M+.@+@@@#@Q+R+S+T+U+V+W+X+Y+Z+T+`+$@D +@.@%@b &@*@=@-@;@>@,@'@)@!@~@{@]@^@/@K b %@",
"(@_@j+:@<@[@}@|@1@2@3@4@5@6@7@8@w+f _@(@9@0@z+a@b@c@d@_+e@G+V.f@g@h@h@i@L+m j@9@k@l@O+m@n@o@p@q@r@s@t@u@v@w@x@y@ @u l@k@z@A@@@B@n@o@p@q@r@s@t@u@v@w@x@y@$@D A@z@C@D@&@E@F@G@H@I@J@)@K@L@M@N@O@P@/@K D@C@",
"(@_@f j+Q@R@S@T@U@V@W@X@Y@Z@`@ #f f _@(@9@.#m +#@###$#%#&#:+*#=#h@-#;#>#m m j@9@k@l@u ,#'#)#!#~#{#]#^#/#(#_#:#<#u u l@k@z@A@D [#}#)#!#~#{#]#^#/#(#_#|#1#D D A@z@C@D@K &@2#3#4#5#)@6#7#8#9#0#a#b#K K D@C@",
"h+i+f f f c#d#e#f#g#h#i#j#k#l#f f f i+h+x+m#m m m n#o#p#q#%#r#s#t#u#v#m m m y+x+M+N+u u u w#x#y#z#A#B#C#D#E#F#u u u N+M+.@+@D D D G#x#y#z#A#B#C#D#H#I#D D D +@.@%@b K K K J#K#L#M#N#O#O@P#Q#R#K K K b %@",
">+,+'+f f f S#T#U#V#i#W#X#Y#f f f '+,+>+]+^+/+m m m Z#`#e@_+h@h@ $.$m m m /+^+]+[+}+z u u u +$@$#$$$%$&$*$=$u u u z }+[+0+9+6+D D D -$@$#$$$%$&$*$;$D D D 6+9+0+a+b+c+K K K >$,$'$)$!$~${$]$K K K c+b+a+",
"  L.M.f f f ^$/$($_$:$<$[$}$f f f M.L.    R.S.m m m |$1$2$_+3$d@1$4$m m m S.R.    X.Y.u u u 5$6$7$8$9$0$a$b$u u u Y.X.    ++@+D D D c$6$7$8$9$0$a$d$D D D @+e$    f$&+K K K g$h$i$j$k$l$m$n$K K K &+%+  ",
"  d.e.f.f o$p$q$r$s$t$u$v$w$o$f f.e.d.    k.l.m.m x$H+=#y$z$A$B$U.C$D$m m.l.k.    r.s.y.u E$F$G$H$I$J$K$L$M$N$u y.s.r.    z.A.B.D O$F$G$H$P$Q$K$L$M$O$D B.A.z.    E.F.G.K R$S$T$U$V$W$X$Y$Z$R$K G.F.E.  ",
"    ~.{.f `$ %.%+%@%#%$%%%&%*%f {.~.        (._.m =%-%;%>%,%'%)%!%~%{%m _.(.        |.5.u ]%^%/%(%_%:%<%[%}%|%u 5.|.        6.7.D 1%^%/%2%3%4%5%[%}%6%D 7.6.        9.0.K 7%8%9%0%a%R#b%c%d%e%K 0.9.    ",
"      O P f%g%h%g f f i%j%k%l%P O             V < m%n%o%n m m p%<+q%r%< V             s%..t%u%v%v u u w%x%y%z%%.s%            &.*.t%u%A%E D D B%C%y%z%*.&.            ;.>.D%E%F%L K K G%H%I%J%>.;.      ",
"        c K%L%j+f f f f j+M%N%c                 j O%P%+#m m m m +#Q%R%j                 r S%T%U%u u u u O+V%W%r                 A X%Y%[#D D D D @@Z%`%A                 H  &.&&@K K K K &@+&@&H         ",
"          ! ~ { ] ^ ^ ] { ~ !                     / ( _ : < < : _ ( /                     [ } | 1 2 2 1 | } [                     3 4 5 6 7 7 6 5 4 3                     8 9 0 a b b a 0 9 8           ",
"              . + @ @ + .                             # $ % % $ #                             & * = = * &                             - ; > > ; -                             , ' ) ) ' ,               "};
