/* XPM */
static char * EXTNAVEDITT_xpm[] = {
"100 20 295 2",
"  	c None",
". 	c #2A67A6",
"+ 	c #2A629B",
"@ 	c #285D92",
"# 	c #244E78",
"$ 	c #254A70",
"% 	c #23476A",
"& 	c #0C72EA",
"* 	c #1167D3",
"= 	c #115FC1",
"- 	c #2766A6",
"; 	c #27609B",
"> 	c #255B92",
", 	c #2C6FB4",
"' 	c #2C69A8",
") 	c #2A639E",
"! 	c #2565A6",
"~ 	c #175089",
"{ 	c #0E4F92",
"] 	c #0956A2",
"^ 	c #0859AB",
"/ 	c #214C78",
"( 	c #183E64",
"_ 	c #123D6A",
": 	c #0F4174",
"< 	c #0E447B",
"[ 	c #046DE8",
"} 	c #0444B1",
"| 	c #0043C2",
"1 	c #004FD0",
"2 	c #0058C1",
"3 	c #2263A6",
"4 	c #134E89",
"5 	c #0A4D91",
"6 	c #0653A1",
"7 	c #0457AC",
"8 	c #276DB4",
"9 	c #185594",
"0 	c #0E559E",
"a 	c #095CAF",
"b 	c #0760B9",
"c 	c #195796",
"d 	c #084F98",
"e 	c #0968C8",
"f 	c #0A75E1",
"g 	c #19436D",
"h 	c #0D3D6E",
"i 	c #0E4E8F",
"j 	c #0F579F",
"k 	c #0352CA",
"l 	c #0043BB",
"m 	c #0072F5",
"n 	c #008CFF",
"o 	c #165596",
"p 	c #044D99",
"q 	c #0566CA",
"r 	c #0674E4",
"s 	c #1A5EA3",
"t 	c #0755A5",
"u 	c #0870D9",
"v 	c #097EF5",
"w 	c #14508D",
"x 	c #095AAC",
"y 	c #0A72DB",
"z 	c #163E67",
"A 	c #0F457C",
"B 	c #0F549B",
"C 	c #0046BA",
"D 	c #0058D2",
"E 	c #0086FF",
"F 	c #104E8E",
"G 	c #0558AD",
"H 	c #0671DE",
"I 	c #155699",
"J 	c #0861BB",
"K 	c #097AEE",
"L 	c #185491",
"M 	c #0960B7",
"N 	c #18406A",
"O 	c #0F4983",
"P 	c #014CC0",
"Q 	c #0064E2",
"R 	c #145291",
"S 	c #055EB8",
"T 	c #185A9D",
"U 	c #0867C7",
"V 	c #2564A4",
"W 	c #095098",
"X 	c #0A72DC",
"Y 	c #214B77",
"Z 	c #0E3E6E",
"` 	c #0F559C",
" .	c #076AE6",
"..	c #0046BC",
"+.	c #0087FC",
"@.	c #2263A5",
"#.	c #064E99",
"$.	c #0671DF",
"%.	c #266BB2",
"&.	c #0856A5",
"*.	c #097BF0",
"=.	c #154F8B",
"-.	c #096ACC",
";.	c #2F87E0",
">.	c #4E96DE",
",.	c #3B8DDF",
"'.	c #0E77E1",
").	c #163E65",
"!.	c #0F5091",
"~.	c #2967A5",
"{.	c #3B72A9",
"].	c #306BA6",
"^.	c #1259A0",
"/.	c #0444B2",
"(.	c #0077F7",
"_.	c #2A9DFC",
":.	c #4CADFC",
"<.	c #34A3FC",
"[.	c #058EFF",
"}.	c #114D8B",
"|.	c #0669CE",
"1.	c #3C91E9",
"2.	c #57A1EC",
"3.	c #4496EA",
"4.	c #0E78E5",
"5.	c #155596",
"6.	c #0872DD",
"7.	c #238AF3",
"8.	c #4198F0",
"9.	c #2C8EF2",
"0.	c #0C7FF5",
"a.	c #2C6AA9",
"b.	c #0D5196",
"c.	c #0A74E0",
"d.	c #C6D0D7",
"e.	c #E6DFD4",
"f.	c #D4D6D5",
"g.	c #6BA5DE",
"h.	c #26507A",
"i.	c #113F6D",
"j.	c #0F569E",
"k.	c #7D9AB5",
"l.	c #8FA5B8",
"m.	c #849EB6",
"n.	c #4E7FAD",
"o.	c #0D77EF",
"p.	c #0047C2",
"q.	c #008BFF",
"r.	c #48ABFC",
"s.	c #D0E8F8",
"t.	c #F6FAF9",
"u.	c #DEEFF9",
"v.	c #6BBBFA",
"w.	c #2969AA",
"x.	c #094F96",
"y.	c #0673E2",
"z.	c #56A1EC",
"A.	c #E1EEFA",
"B.	c #FDFEFE",
"C.	c #EAF3FC",
"D.	c #8ABCF0",
"E.	c #2E72B8",
"F.	c #0C56A2",
"G.	c #097DF4",
"H.	c #3B95F0",
"I.	c #B8CEE4",
"J.	c #DDE0E0",
"K.	c #C8D6E2",
"L.	c #56A2EE",
"M.	c #286098",
"N.	c #095AAB",
"O.	c #2280E0",
"P.	c #DCDAD5",
"Q.	c #EFE3D3",
"R.	c #E3DED4",
"S.	c #23496F",
"T.	c #0F457B",
"U.	c #1F61A2",
"V.	c #8CA4B8",
"W.	c #8DA3B6",
"X.	c #89A1B6",
"Y.	c #3D74AA",
"Z.	c #1063CF",
"`.	c #0058DE",
" +	c #1B98FE",
".+	c #EDF4F8",
"++	c #FFFFFA",
"@+	c #F2F9FA",
"#+	c #4CACFA",
"$+	c #255E98",
"%+	c #0659AC",
"&+	c #2485E7",
"*+	c #FAFCFD",
"=+	c #FFFFFF",
"-+	c #F7FBFE",
";+	c #64A8EC",
">+	c #2A67A5",
",+	c #0960B8",
"'+	c #1D87F2",
")+	c #CFD8DE",
"!+	c #F2E9DE",
"~+	c #E2E1E0",
"{+	c #3C95F0",
"]+	c #265A8E",
"^+	c #095FB7",
"/+	c #2783DF",
"(+	c #EEE3D3",
"_+	c #7AABDB",
":+	c #224568",
"<+	c #0E4883",
"[+	c #8EA3B6",
"}+	c #8EA4B6",
"|+	c #507FAC",
"1+	c #1059BB",
"2+	c #0063D2",
"3+	c #209AFE",
"4+	c #FEFFFA",
"5+	c #FEFEFA",
"6+	c #7CC3FC",
"7+	c #23588E",
"8+	c #2585E7",
"9+	c #82B9F1",
"0+	c #28609A",
"a+	c #0866C7",
"b+	c #268BF2",
"c+	c #F1E8DE",
"d+	c #EFE8DE",
"e+	c #70AEEC",
"f+	c #2683DF",
"g+	c #78AADB",
"h+	c #8EA4B7",
"i+	c #7AC2FB",
"j+	c #258BF2",
"k+	c #EEE7DE",
"l+	c #EEE7DF",
"m+	c #6EADEC",
"n+	c #1E7FE0",
"o+	c #CED4D7",
"p+	c #DEDCD5",
"q+	c #3E8EDF",
"r+	c #1C5FA2",
"s+	c #839FB7",
"t+	c #88A0B6",
"u+	c #326DA7",
"v+	c #1696FE",
"w+	c #D9ECF8",
"x+	c #EDF6FA",
"y+	c #39A4FC",
"z+	c #2183E7",
"A+	c #EEF5FC",
"B+	c #F2F8FD",
"C+	c #4F9CEA",
"D+	c #1985F4",
"E+	c #BDD1E4",
"F+	c #DCDFE0",
"G+	c #2F90F1",
"H+	c #368BE0",
"I+	c #A5C0D8",
"J+	c #D7D8D6",
"K+	c #B6C8D7",
"L+	c #4692DE",
"M+	c #2E6BA7",
"N+	c #698EB1",
"O+	c #86A0B7",
"P+	c #7394B3",
"Q+	c #356FA8",
"R+	c #30A0FC",
"S+	c #ACD9FA",
"T+	c #E0F0F8",
"U+	c #C0E1F9",
"V+	c #42A9FC",
"W+	c #4898EA",
"X+	c #B8D7F7",
"Y+	c #F3F8FC",
"Z+	c #CDE3F8",
"`+	c #58A1EB",
" @	c #9DC3E6",
".@	c #C4D6E5",
"+@	c #ADC9E5",
"@@	c #3A95F0",
"#@	c #157AE1",
"$@	c #3D8EDF",
"%@	c #1D7FE0",
"&@	c #175CA1",
"*@	c #326DA8",
"=@	c #1E60A3",
"-@	c #0C91FE",
";@	c #36A3FC",
">@	c #1795FD",
",@	c #167DE5",
"'@	c #4D9BEA",
")@	c #2786E6",
"!@	c #1081F4",
"~@	c #288EF2",
"{@	c #1584F4",
"              . + @ @ + .                             # $ % % $ #                             & * = = * &                             - ; > > ; -                             , ' ) ) ' ,               ",
"          ! ~ { ] ^ ^ ] { ~ !                     / ( _ : < < : _ ( /                     [ } | 1 2 2 1 | } [                     3 4 5 6 7 7 6 5 4 3                     8 9 0 a b b a 0 9 8           ",
"        c d e f f f f f f e d c                 g h i j j j j j j i h g                 k l m n n n n n n m l k                 o p q r r r r r r q p o                 s t u v v v v v v u t s         ",
"      w x y f f f f f f f f y x w             z A B j j j j j j j j B A z             C D E n n n n n n n n E D C             F G H r r r r r r r r H G F             I J K v v v v v v v v K J I       ",
"    L M f f f f f f f f f f f f M L         N O j j j j j j j j j j j j O N         P Q n n n n n n n n n n n n Q P         R S r r r r r r r r r r r r S R         T U v v v v v v v v v v v v U T     ",
"  V W X f f f f f f f f f f f f X W V     Y Z ` j j j j j j j j j j j j ` Z Y      ...+.n n n n n n n n n n n n +... .    @.#.$.r r r r r r r r r r r r $.#.@.    %.&.*.v v v v v v v v v v v v *.&.%.  ",
"  =.-.f f f f f ;.>.,.'.f f f f f -.=.    ).!.j j j j j ~.{.].^.j j j j j !.).    /.(.n n n n n _.:.<.[.n n n n n (./.    }.|.r r r r r 1.2.3.4.r r r r r |.}.    5.6.v v v v v 7.8.9.0.v v v v v 6.5.  ",
"a.b.c.f f f f >.d.e.f.g.f f f f f c.b.a.h.i.j.j j j j {.k.l.m.n.j j j j j j.i.h.o.p.q.n n n n r.s.t.u.v.n n n n n q.p.o.w.x.y.r r r r z.A.B.C.D.r r r r r y.x.w.E.F.G.v v v v H.I.J.K.L.v v v v v G.F.E.",
"M.N.f f f f O.P.Q.Q.Q.R.>.f f f f f N.M.S.T.j j j j U.V.W.W.W.X.Y.j j j j j T.S.Z.`.n n n n  +.+++++++@+#+n n n n n `.Z.$+%+r r r r &+*+=+=+=+-+;+r r r r r %+$+>+,+v v v v '+)+!+!+!+~+{+v v v v v ,+>+",
"]+^+f f f f /+Q.Q.Q.Q.(+_+f f f f f ^+]+:+<+j j j j U.[+W.W.W.}+|+j j j j j <+:+1+2+n n n n 3+4+++++++5+6+n n n n n 2+1+7+S r r r r 8+=+=+=+=+=+9+r r r r r S 7+0+a+v v v v b+c+!+!+!+d+e+v v v v v a+0+",
"]+^+f f f f f+(+Q.Q.Q.(+g+f f f f f ^+]+:+<+j j j j U.h+W.W.W.}+|+j j j j j <+:+1+2+n n n n 3+5+++++++5+i+n n n n n 2+1+7+S r r r r 8+=+=+=+=+=+9+r r r r r S 7+0+a+v v v v j+k+!+!+!+l+m+v v v v v a+0+",
"M.N.f f f f n+o+Q.Q.Q.p+q+f f f f f N.M.S.T.j j j j r+s+W.W.W.t+u+j j j j j T.S.Z.`.n n n n v+w+++++++x+y+n n n n n `.Z.$+%+r r r r z+A+=+=+=+B+C+r r r r r %+$+>+,+v v v v D+E+!+!+!+F+G+v v v v v ,+>+",
"a.b.c.f f f f H+I+J+K+L+f f f f f c.b.a.h.i.j.j j j j M+N+O+P+Q+j j j j j j.i.h.o.p.q.n n n n R+S+T+U+V+n n n n n q.p.o.w.x.y.r r r r W+X+Y+Z+`+r r r r r y.x.w.E.F.G.v v v v j+ @.@+@@@v v v v v G.F.E.",
"  =.-.f f f f f #@$@%@f f f f f f -.=.    ).!.j j j j j &@*@=@j j j j j j !.).    /.(.n n n n n -@;@>@n n n n n n (./.    }.|.r r r r r ,@'@)@r r r r r r |.}.    5.6.v v v v v !@~@{@v v v v v v 6.5.  ",
"  V W X f f f f f f f f f f f f X W V     Y Z ` j j j j j j j j j j j j ` Z Y      ...+.n n n n n n n n n n n n +... .    @.#.$.r r r r r r r r r r r r $.#.@.    %.&.*.v v v v v v v v v v v v *.&.%.  ",
"    L M f f f f f f f f f f f f M L         N O j j j j j j j j j j j j O N         P Q n n n n n n n n n n n n Q P         R S r r r r r r r r r r r r S R         T U v v v v v v v v v v v v U T     ",
"      w x y f f f f f f f f y x w             z A B j j j j j j j j B A z             C D E n n n n n n n n E D C             F G H r r r r r r r r H G F             I J K v v v v v v v v K J I       ",
"        c d e f f f f f f e d c                 g h i j j j j j j i h g                 k l m n n n n n n m l k                 o p q r r r r r r q p o                 s t u v v v v v v u t s         ",
"          ! ~ { ] ^ ^ ] { ~ !                     / ( _ : < < : _ ( /                     [ } | 1 2 2 1 | } [                     3 4 5 6 7 7 6 5 4 3                     8 9 0 a b b a 0 9 8           ",
"              . + @ @ + .                             # $ % % $ #                             & * = = * &                             - ; > > ; -                             , ' ) ) ' ,               "};
