/* XPM */
static char * EXTNAVSEARCHL_xpm[] = {
"160 30 256 2",
"  	c None",
". 	c #FFFFFF",
"+ 	c #FFFF00",
"@ 	c #FF00FF",
"# 	c #FF0000",
"$ 	c #00FFFF",
"% 	c #00FF00",
"& 	c #0000FF",
"* 	c #000000",
"= 	c #0F579F",
"- 	c #0A75E1",
"; 	c #097EF5",
"> 	c #0674E4",
", 	c #008CFF",
"' 	c #00003E",
") 	c #151573",
"! 	c #6363C3",
"~ 	c #7373D3",
"{ 	c #32324C",
"] 	c #7A7A98",
"^ 	c #9595B6",
"/ 	c #585A94",
"( 	c #7B7DB6",
"_ 	c #4F54AD",
": 	c #7275AE",
"< 	c #242C84",
"[ 	c #383C6F",
"} 	c #070E50",
"| 	c #4C517B",
"1 	c #7E84C1",
"2 	c #8C92C3",
"3 	c #6E7298",
"4 	c #000D62",
"5 	c #5E66A2",
"6 	c #6373D3",
"7 	c #6373C3",
"8 	c #7384D3",
"9 	c #8493E2",
"0 	c #001676",
"a 	c #334593",
"b 	c #5A6692",
"c 	c #6471A2",
"d 	c #001D80",
"e 	c #002A9B",
"f 	c #00288D",
"g 	c #5473C3",
"h 	c #6384D3",
"i 	c #003EC5",
"j 	c #003FB8",
"k 	c #0038AC",
"l 	c #5473B2",
"m 	c #6B84B4",
"n 	c #7B92C1",
"o 	c #0058F4",
"p 	c #7689AC",
"q 	c #004ED1",
"r 	c #84A7E2",
"s 	c #006BF6",
"t 	c #0071FF",
"u 	c #007BFF",
"v 	c #204C7B",
"w 	c #007DFF",
"x 	c #0671DF",
"y 	c #0671DD",
"z 	c #0568CC",
"A 	c #0564C5",
"B 	c #02264B",
"C 	c #066BD2",
"D 	c #065DB4",
"E 	c #05509D",
"F 	c #054F99",
"G 	c #032E58",
"H 	c #097CF1",
"I 	c #097BF0",
"J 	c #097AEC",
"K 	c #0874E1",
"L 	c #0656A5",
"M 	c #05498E",
"N 	c #054485",
"O 	c #0864C1",
"P 	c #0758AB",
"Q 	c #064C92",
"R 	c #053E7A",
"S 	c #0B85FF",
"T 	c #0A72DC",
"U 	c #096ACC",
"V 	c #07539F",
"W 	c #05396E",
"X 	c #053769",
"Y 	c #085098",
"Z 	c #063C72",
"` 	c #07427D",
" .	c #052B52",
"..	c #06315C",
"+.	c #073563",
"@.	c #06294D",
"#.	c #0A4076",
"$.	c #0F559D",
"%.	c #0F549A",
"&.	c #0E5193",
"*.	c #0E4F90",
"=.	c #0C457E",
"-.	c #0B3E73",
";.	c #198CFF",
">.	c #0D4781",
",.	c #0E4A86",
"'.	c #0F4C8B",
").	c #0D4276",
"!.	c #0C3C6D",
"~.	c #125192",
"{.	c #135496",
"].	c #0D3B68",
"^.	c #145597",
"/.	c #134E8A",
"(.	c #0D355E",
"_.	c #185DA4",
":.	c #175797",
"<.	c #0C2D4F",
"[.	c #0D2F53",
"}.	c #103357",
"|.	c #2164AA",
"1.	c #103152",
"2.	c #246DB8",
"3.	c #0E2A46",
"4.	c #0C243C",
"5.	c #153C65",
"6.	c #266CB3",
"7.	c #18436E",
"8.	c #2B76C1",
"9.	c #2B6FB5",
"0.	c #2A6DB2",
"a.	c #2E70B5",
"b.	c #337AC3",
"c.	c #3272B5",
"d.	c #245180",
"e.	c #3774B4",
"f.	c #3774B3",
"g.	c #3D7EC2",
"h.	c #3D7EC1",
"i.	c #3975B2",
"j.	c #295481",
"k.	c #2F5780",
"l.	c #5190D1",
"m.	c #6DABED",
"n.	c #79B7F4",
"o.	c #0185FF",
"p.	c #113557",
"q.	c #629FD6",
"r.	c #93C8F7",
"s.	c #0088FF",
"t.	c #84C0F4",
"u.	c #8DB6D9",
"v.	c #8EAEC9",
"w.	c #4AB2FF",
"x.	c #7AA2C2",
"y.	c #B6D4EA",
"z.	c #77AFD6",
"A.	c #A6D4F4",
"B.	c #63C3FF",
"C.	c #95D3FA",
"D.	c #ABE0FF",
"E.	c #C2D6E1",
"F.	c #E0F4FF",
"G.	c #54C3FF",
"H.	c #96C7E1",
"I.	c #B4E6FF",
"J.	c #73D3FF",
"K.	c #A2E1FF",
"L.	c #B6CCD6",
"M.	c #D4EAF4",
"N.	c #63D3FF",
"O.	c #8BC8E1",
"P.	c #A4D1E3",
"Q.	c #8DC2D6",
"R.	c #ABE0F4",
"S.	c #8CE2FF",
"T.	c #ABEAFF",
"U.	c #C1F3FF",
"V.	c #B2F1FF",
"W.	c #93F1FF",
"X.	c #A3F9FF",
"Y.	c #B2FFFF",
"Z.	c #C3FFFF",
"`.	c #ACE1E1",
" +	c #CAFFFF",
".+	c #B6E1E1",
"++	c #D3FFFF",
"@+	c #D4FFFF",
"#+	c #E0FFFF",
"$+	c #E2FFFF",
"%+	c #C9E1E1",
"&+	c #889595",
"*+	c #EAFFFF",
"=+	c #F1FFFF",
"-+	c #D6E1E1",
";+	c #C2CCCC",
">+	c #F4FFFF",
",+	c #E0EAEA",
"'+	c #7A7B7B",
")+	c #FFC333",
"!+	c #FFB200",
"~+	c #322A1A",
"{+	c #FFA300",
"]+	c #E18C1D",
"^+	c #FFAA37",
"/+	c #A17B48",
"(+	c #A65B03",
"_+	c #FBA840",
":+	c #FFB660",
"<+	c #FF8400",
"[+	c #241505",
"}+	c #FF8F1C",
"|+	c #9C5916",
"1+	c #7B6A58",
"2+	c #2E2A26",
"3+	c #E17105",
"4+	c #713A05",
"5+	c #FF8F28",
"6+	c #EA7311",
"7+	c #CA6A1C",
"8+	c #614631",
"9+	c #CC5500",
"0+	c #833500",
"a+	c #FF5400",
"b+	c #F1D3C3",
"c+	c #B6A298",
"d+	c #D4C0B6",
"e+	c #E24500",
"f+	c #150500",
"g+	c #A32400",
"h+	c #5C4E4A",
"i+	c #7B6A65",
"j+	c #634545",
"k+	c #FCFCFC",
"l+	c #FAFAFA",
"m+	c #F7F7F7",
"n+	c #F5F5F5",
"o+	c #F2F2F2",
"p+	c #EBEBEB",
"q+	c #E4E4E4",
"r+	c #E1E1E1",
"s+	c #DBDBDB",
"t+	c #D2D2D2",
"u+	c #CCCCCC",
"v+	c #C5C5C5",
"w+	c #C2C2C2",
"x+	c #BBBBBB",
"y+	c #B5B5B5",
"z+	c #B2B2B2",
"A+	c #A6A6A6",
"B+	c #9E9E9E",
"C+	c #999999",
"D+	c #909090",
"E+	c #878787",
"F+	c #6A6A6A",
"G+	c #404040",
"                        i.i.i.i.i.i.i.i.                                                k.k.k.k.k.k.k.k.                                                ;.;.;.;.;.;.;.;.                                                f.f.f.f.f.f.f.f.                                                h.h.h.h.h.h.h.h.                        ",
"                  i.c.|./.!...@.@...!./.|.c.i.                                    k.j.v 5.1.3.4.4.3.1.5.v j.k.                                    ;.S s j d } ' ' } d j s S ;.                                    f.a.|.'.W G B B G W '.|.a.f.                                    h.b.2.{.#.+. . .+.#.{.2.b.h.                  ",
"              i.0./.X ` V D U T T U b m n 2 ( 0.i.                            k.d.5.<.(.-.,.&.$.$.&.E+C+A+A+B+d.k.                            ;.w j 0 e q s u o.o.u a g 8 8 7 w ;.                            f.6.'.X R E D C x x C D a g 8 8 7 f.                            h.8.^.Z N P U K I I K z | b c c b h.              ",
"            c.:.W Q A - - - - - b v.R.T.T.T.R.u.( c.                        j.7.[.!.'.= = = = = '+x+s+r+r+r+s+w+C+j.                        S q d i t , , s., , < r Y.Y.Y.Y.Y.r.! S                         a.^.W Q A > > > > > > < r Y.Y.Y.Y.Y.r.!                         b._.R V C ; ; ; ; ; ; [ p Q.O.O.O.Q.n /             ",
"          0.).N O - - - - - - p ,+*+U.K.C.C.K.T.R.( 9.                    d.p.(.'.= = = = = = B+p+l+p+s+t+t+s+r+s+B+d.                    w f k s , , , , , , : . . ++X.W.W.X.Y.Y.7 w                     6.#.N A > > > > > > > : . . ++X.W.W.X.Y.Y.7                     8.>.M C ; ; ; ; ; ; ; b ;+%+P.O.z.z.O.O.Q.b           ",
"        0.#.Y T - - - - - - ( F.. . A.n.m.m.n.r.T.I.p 0.                d.}.!.$.= = = = = = C+o+. . t+x+z+y+x+u+r+q+C+d.                w f i o., , , , , , g . . . V.B.w.w.B.S.Y.Z.l w                 6.Z F x > > > > > > > g . . . V.B.w.w.B.S.Y.Z.l                 8.=.L H ; ; ; ; ; ; ; b E.r+r+u.q.l.l.q.z.O.H.b         ",
"      a.#.Y - - - - - - - : P.@+*+M.t.t.n.r.R.R.I. +y./ a.            j.}.-.= = = = = = = D+t+n+l+p+w+w+x+u+s+s+q+o+s+'+j.            o.f q , , , , , , , _ X.=+. =+J.N.B.S.Y.Y.Z.$+U.< o.            9.Z F > > > > > > > > _ X.=+. =+J.N.B.S.Y.Y.Z.$+U.<             b.=.L ; ; ; ; ; ; ; ; / v..+%+L.q.q.q.z.Q.Q.H.`.v.[       ",
"    i./.M - - - - - - - - 2 T.D.C.t.t.r.R.U. + + + + +p ,.i.        k.5.].= = = = = = = = z+r+s+t+w+w+u+s+p+o+o+o+o+o+C+5.k.        ;.k j s., , , , , , , 9 Y.Y.W.J.J.S.Y.@+$+$+$+$+$+l k ;.        f.,.M > > > > > > > > > 9 Y.Y.W.J.J.S.Y.@+$+$+$+$+$+l f.        h.~.F ; ; ; ; ; ; ; ; ; : O.O.z.q.q.z.Q.P.`.`.`.`.`.b h.    ",
"    |.W U - - - - - - - ( H.T.t.m.n.r.I. +@+ + + + +@+v.( |.        v [.&.= = = = = = = C+v+r+w+z+x+u+q+o+n+o+o+o+o+n+w+C+v         s d u , , , , , , , ! C.Y.J.w.B.S.Z.#+=+$+$+$+$+=+H.! s         |.W C > > > > > > > > ! C.Y.J.w.B.S.Z.#+=+$+$+$+$+=+H.!         2.R K ; ; ; ; ; ; ; ; / x.O.q.l.q.z.H.`..+`.`.`.`..+p b     ",
"  i.).L - - - - - - - - ( P.T.m.m.t.I. +@+@+@+@+@+ +@+P.p ).i.    k.p.).= = = = = = = = C+u+r+y+z+w+q+o+n+n+n+n+n+o+n+t+C+p.k.    ;.f o s., , , , , , , ! K.Y.w.w.J.Z.#+=+=+=+=+=+$+=+I.l f ;.    e.#.L > > > > > > > > > ! K.Y.w.w.J.Z.#+=+=+=+=+=+$+=+I.l e.    g.>.D ; ; ; ; ; ; ; ; ; / v.O.l.l.q.H.`..+.+.+.+.+`..+v.b h.  ",
"  0.X T - - - - - - - K ( P.K.m.n.A. + +@+#+*+*+#+@+@+L.p X 0.    d.<.%.= = = = = = = = C+u+s+z+x+t+o+o+n+m+l+l+m+n+n+t+C+<.d.    u 0 o., , , , , , , , ! K.X.w.G.X.#+$+=+. . . . =+=+I.l 0 u     6.X y > > > > > > > > > ! K.X.w.G.X.#+$+=+. . . . =+=+I.l 6.    8.Z J ; ; ; ; ; ; ; ; ; / z.O.l.l.u.`.`..+%+%+%+%+.+.+v.b 8.  ",
"i.:.Q - - - - - - - - K ( H.T.n.t.I. + +@+*+>+>+*+@+@+v.( M :.i.k.7.].= = = = = = = = = C+v+r+x+w+q+o+o+n+l+k+k+l+n+n+w+C+].7.k.;.q i , , , , , , , , , ! C.Y.G.J.Z.$+$+=+. . . . =+=+H.! i q ;.f.^.M > > > > > > > > > > ! C.Y.G.J.Z.$+$+=+. . . . =+=+H.! ^.f.h._.E ; ; ; ; ; ; ; ; ; ; / x.O.l.q.H.`.`..+%+-+-+%+.+.+p / _.h.",
"i.).D - - - - - - - - - K 2 T.t.r.U. + +@+*+>+. >+*+@+p - D ).i.k.p.=.= = = = = = = = = = z+r+w+u+p+o+o+n+l+k+. k+l+n+A+$.=.p.k.;.f o , , , , , , , , , , r Y.J.S.++$+$+=+. . . . . =+m s.o f ;.f.-.D > > > > > > > > > > > r Y.J.S.++$+$+=+. . . . . =+m D Z f.h.=.O ; ; ; ; ; ; ; ; ; ; ; p O.q.z.P.`.`..+%+-+r+-+%+.+b O =.h.",
"i...U - - - - - - - - - - : P.K.r.U. + +@+#+*+>+. . M.b - U ..i.k.3.*.= = = = = = = = = = D+t+s+u+p+o+o+n+m+l+k+. . p+'+= *.3.k.;.4 t , , , , , , , , , , _ X.X.S.++$+$+=+. . . . . =+< , t 4 ;.f...z > > > > > > > > > > > _ X.X.S.++$+$+=+. . . . . =+< z ..f.h.+.y ; ; ; ; ; ; ; ; ; ; ; / v.O.z.P.`.`..+%+%+-+r+r+L.[ T +.h.",
"i.@.T - - - - - - - - - - ^ n T.D.U. + + +@+@+#+. . ^ - - T @.i.k.4.$.= = = = = = = = = = z+A+r+s+p+o+o+o+n+n+m+. . A+= = $.4.k.;.' o., , , , , , , , , , 2 h Y.Y.++$+$+$+=+=+. . . 1 , , s.' ;.f.B x > > > > > > > > > > > 2 h Y.Y.++$+$+$+=+=+. . . 1 > x B f.h. .I ; ; ; ; ; ; ; ; ; ; ; ] c O.O.P.`.`.`..+.+%+r+r+3 ; I  .h.",
"i.@.T - - - - - - - - - - ,+^ n U. +@+ + + +@+@+@+2 / K - T @.i.k.4.$.= = = = = = = = = = p+z+A+p+o+n+o+o+o+n+n+n+z+'+= = $.4.k.;.' o., , , , , , , , , , . 2 h ++$+=+$+$+$+=+=+=+r < , , o.' ;.f.B x > > > > > > > > > > > . 2 h ++$+=+$+$+$+=+=+=+r < > x B f.h. .I ; ; ; ; ; ; ; ; ; ; ; ;+] c P.`..+`.`.`..+.+.+p [ ; I  .h.",
"i...U - - - - - - - }+^+:+d+E+| 3 P.U. +@+ + +y.2 - - - - U ..i.k.3.*.= = = = = = = z+v+u+t+C+F+D+t+p+o+n+o+o+s+A+= = = = *.3.k.;.4 t , , , , , , , <+!+)+b+'+} / D.++$+=+$+$+U.8 , s., , t 4 ;.f...z > > > > > > > > <+!+)+b+'+} / D.++$+=+$+$+U.8 > > > z ..f.h.+.y ; ; ; ; ; ; ; ; 3+]+_+c+F+{ | v.P.`..+`.`.v.c ; ; ; y +.h.",
"i.).D - - - - - - }+^+_+5+7+8+y - | c 2 v.2 1 ( K - - - - D ).i.k.p.=.= = = = = = z+v+v+y+D+F+$.= F+D+A+z+z+B+C+= = = = = =.p.k.;.f o , , , , , , <+!+!+<+e+f+, , ) _ 8 r 9 ~ ! , , , , , o f ;.f.-.D > > > > > > > <+!+!+<+e+f+K > ) _ 8 r 9 ~ ! > > > > D -.f.h.=.O ; ; ; ; ; ; ; 3+]+]+3+(+~+; ; [ | c p : 5 b ; ; ; ; O =.h.",
"i.:.M - - - - - }+^+_+5+6+|+i+- - - - x K - - - - - - - - M :.i.k.7.].= = = = = z+v+v+y+B+'+E+= = = = = = = = = = = = = = ].7.k.;.q i , , , , , <+!+!+<+a+g+j+, , , , , , , , , , , , , , i q ;.f.^.M > > > > > > <+!+!+<+a+g+j+> > > > > > > > > > > > > M ^.f.h._.E ; ; ; ; ; ; 3+]+]+3+9+0+h+; H H ; ; ; ; ; ; ; ; ; ; E _.h.",
"  0.X T - - - }+^+_+5+6+|+i+1 - - - - - - - - - - - - - T X 0.    d.<.%.= = = z+v+v+y+B+'+E+B+= = = = = = = = = = = = = %.<.d.    u 0 o., , , <+!+!+<+a+g+j+6 , , , , , , , , , , , , , o.0 u     6.X y > > > > <+!+!+<+a+g+j+6 > > > > > > > > > > > > y X 6.    8.Z J ; ; ; ; 3+]+]+3+9+0+h+5 ; ; ; ; ; ; ; ; ; ; ; ; J Z 8.  ",
"  i.).L - - }+^+_+5+6+|+i+1 K - - - - - - - - - - - - - L ).i.    k.p.).= = z+v+v+y+B+'+E+B+= = = = = = = = = = = = = = ).p.k.    ;.f o , , <+!+!+<+a+g+j+6 , , , , , , , , , , , , , , o f ;.    e.#.L > > > <+!+!+<+a+g+j+6 > > > > > > > > > > > > > L R f.    g.>.D ; ; ; 3+]+]+3+9+0+h+5 ; ; ; ; ; ; ; ; ; ; ; ; ; D >.g.  ",
"    |.W U }+^+_+5+6+|+1+1 K - - - - - - - - - - - - - U W |.        v [.&.z+v+v+y+B+'+E+B+= = = = = = = = = = = = = = &.[.v         s d u <+!+!+<+a+g+8+6 , , , , , , , , , , , , , , u d s         |.W C > <+!+!+<+a+g+8+6 > > > > > > > > > > > > > C W |.        2.R K ; 3+]+]+6+9+0+h+5 ; ; ; ; ; ; ; ; ; ; ; ; ; K R 2.    ",
"    i./.M ^+_+5+6+|+i+1 - - - - - - - - - - - - - - - M /.i.        k.5.].w+v+y+B+'+E+B+= = = = = = = = = = = = = = = ].5.k.        ;.k j {+!+<+a+g+8+6 , , , , , , , , , , , , , , , j k ;.        f.,.M > {+!+<+a+g+8+6 > > > > > > > > > > > > > > M ,.f.        h.~.F H ]+]+3+9+0+h+5 ; ; ; ; ; ; ; ; ; ; ; ; ; ; F ~.h.    ",
"      a.#./+}+6+|+1+1 - - - - - - - - - - - - - - - Y #.a.            j.}.C+y+B+'+E+B+= = = = = = = = = = = = = = = -.}.j.            o.f (+<+a+g+8+6 , , , , , , , , , , , , , , , q f o.            9.Z F (+<+a+g+8+6 > > > > > > > > > > > > > > F Z 9.            b.=.P |+3+9+0+h+5 H ; ; ; ; ; ; ; ; ; ; ; ; ; L =.b.      ",
"        0.&+|+|+1+1 - - - - - - - - - - - - - - T Y #.0.                d.A+'+'+E+B+= = = = = = = = = = = = = = $.!.}.d.                u &+0+g+8+6 , , , , , , , , , , , , , , s.i f u                 6.Z &+0+g+8+6 > > > > > > > > > > > > > x F Z 6.                8.` '+4+0+8+5 ; ; ; ; ; ; ; ; ; ; ; ; ; H L =.8.        ",
"          9.G+h+( - - - - - - - - - - - - - - O N ).0.                    d.h+F+B+= = = = = = = = = = = = = = '.(.p.d.                    u * [+7 , , , , , , , , , , , , , , t k f u                     6.#.* [+7 > > > > > > > > > > > > > A N #.6.                    8.N 2+2+5 ; ; ; ; ; ; ; ; ; ; ; ; ; C M >.8.          ",
"            c.:.Z Q A - - - - - - - - - - A Q W :.c.                        j.7.[.!.'.= = = = = = = = = = '.!.[.7.j.                        S q d i t , , , , , , , , , , t i d q S                         a.{.W Q A > > > > > > > > > > A Q W ^.a.                        b._.R V C ; ; ; ; ; ; ; ; ; ; C V R _.b.            ",
"              i.0./.X ` V D U T T C D V ` X /.0.i.                            k.d.5.<.(.-.,.&.$.$.&.,.-.(.<.5.d.k.                            ;.w j 0 e q s u o.o.u s q e 0 j u ;.                            f.6.'.X R E D C x x C D E R X '.6.f.                            h.8.^.Z N P U K I I K U P N Z ^.8.h.              ",
"                  i.c.|./.!...@.@...!./.|.c.i.                                    k.j.v 5.1.3.4.4.3.1.5.v j.k.                                    ;.S s j d 4 ' ' } d j s S ;.                                    f.a.|.'.W G B B G W '.|.9.f.                                    h.b.2.{.#.+. . .+.#.{.2.b.h.                  ",
"                        i.i.i.i.i.i.i.i.                                                k.k.k.k.k.k.k.k.                                                ;.;.;.;.;.;.;.;.                                                f.f.f.f.f.f.f.f.                                                h.h.h.h.h.h.h.h.                        "};
