/* XPM */
static char * EXTNAVMOVEPREVIOUST_xpm[] = {
"100 20 236 2",
"  	c None",
". 	c #2A67A6",
"+ 	c #2A629B",
"@ 	c #285D92",
"# 	c #244E78",
"$ 	c #254A70",
"% 	c #23476A",
"& 	c #0C71EA",
"* 	c #1167D3",
"= 	c #115FC1",
"- 	c #2766A6",
"; 	c #27609B",
"> 	c #255B92",
", 	c #2C6FB4",
"' 	c #2C69A8",
") 	c #2A639E",
"! 	c #2565A6",
"~ 	c #174F89",
"{ 	c #0E4F92",
"] 	c #0A55A1",
"^ 	c #0859AB",
"/ 	c #214C78",
"( 	c #183E64",
"_ 	c #123D6A",
": 	c #0F4174",
"< 	c #0E447B",
"[ 	c #046DE9",
"} 	c #0444B1",
"| 	c #0043C3",
"1 	c #004FD0",
"2 	c #0058C1",
"3 	c #2263A6",
"4 	c #144E89",
"5 	c #0A4D91",
"6 	c #0653A1",
"7 	c #0457AC",
"8 	c #276DB4",
"9 	c #185594",
"0 	c #0D559E",
"a 	c #095BAF",
"b 	c #0760B9",
"c 	c #195796",
"d 	c #084F98",
"e 	c #0968C8",
"f 	c #0A75E1",
"g 	c #3D8FE1",
"h 	c #19436D",
"i 	c #0D3D6E",
"j 	c #0E4E8F",
"k 	c #0F579F",
"l 	c #2967A4",
"m 	c #0352C9",
"n 	c #0043BC",
"o 	c #0073F6",
"p 	c #008CFF",
"q 	c #35A4FE",
"r 	c #165596",
"s 	c #044D98",
"t 	c #0567CB",
"u 	c #0674E4",
"v 	c #3A91E9",
"w 	c #1A5EA2",
"x 	c #0755A4",
"y 	c #0870DA",
"z 	c #097EF5",
"A 	c #3A94F0",
"B 	c #14508E",
"C 	c #095AAC",
"D 	c #0A71DA",
"E 	c #328AE1",
"F 	c #DFE2E1",
"G 	c #6FA9E1",
"H 	c #163E67",
"I 	c #0F457C",
"J 	c #0F549B",
"K 	c #4477A9",
"L 	c #7D9AB3",
"M 	c #2464A3",
"N 	c #0046BA",
"O 	c #0058D2",
"P 	c #0085FF",
"Q 	c #6ABCFD",
"R 	c #DFF1FB",
"S 	c #2A9FFE",
"T 	c #104E8E",
"U 	c #0558AD",
"V 	c #0670DD",
"W 	c #6EAEED",
"X 	c #E0EEF7",
"Y 	c #308BE8",
"Z 	c #145699",
"` 	c #0861BB",
" .	c #097AEE",
"..	c #6AABEB",
"+.	c #D5DCE1",
"@.	c #3090F1",
"#.	c #185491",
"$.	c #0960B7",
"%.	c #E9E7E1",
"&.	c #FDF1E1",
"*.	c #79AEE1",
"=.	c #18406A",
"-.	c #0F4983",
";.	c #497AAA",
">.	c #8DA3B6",
",.	c #829DB4",
"'.	c #014CC0",
").	c #0063E0",
"!.	c #75C1FD",
"~.	c #FFFFFA",
"{.	c #EAF5FA",
"].	c #145291",
"^.	c #055EB8",
"/.	c #78B4EE",
"(.	c #EAF3F8",
"_.	c #185A9D",
":.	c #0867C7",
"<.	c #74AFEA",
"[.	c #F2E9DE",
"}.	c #DFE0E0",
"|.	c #2564A4",
"1.	c #095098",
"2.	c #0A72DC",
"3.	c #1E7FE1",
"4.	c #D4DCE1",
"5.	c #F3ECE1",
"6.	c #5B9EE1",
"7.	c #214B77",
"8.	c #0E3E6E",
"9.	c #0F559C",
"0.	c #3970A7",
"a.	c #88A0B5",
"b.	c #7896B2",
"c.	c #1A5DA1",
"d.	c #076BE6",
"e.	c #0046BC",
"f.	c #0087FC",
"g.	c #55B2FD",
"h.	c #F4FAFA",
"i.	c #D4ECFB",
"j.	c #1596FF",
"k.	c #2263A5",
"l.	c #054E98",
"m.	c #0671DF",
"n.	c #59A2EB",
"o.	c #F5F9F9",
"p.	c #D6E8F6",
"q.	c #1B80E6",
"r.	c #276CB2",
"s.	c #0856A5",
"t.	c #097BEF",
"u.	c #57A2ED",
"v.	c #E8E5DF",
"w.	c #CBD7E2",
"x.	c #1C87F3",
"y.	c #154F8B",
"z.	c #096ACC",
"A.	c #2884E1",
"B.	c #163E65",
"C.	c #0F5091",
"D.	c #1F60A2",
"E.	c #0444B2",
"F.	c #0077F7",
"G.	c #209AFE",
"H.	c #114D8B",
"I.	c #0569CE",
"J.	c #2585E7",
"K.	c #155596",
"L.	c #0872DE",
"M.	c #268BF2",
"N.	c #2C6AA9",
"O.	c #0D5196",
"P.	c #0A74E0",
"Q.	c #CAD7E1",
"R.	c #4794E1",
"S.	c #26507A",
"T.	c #113F6D",
"U.	c #0F569E",
"V.	c #2E6AA5",
"W.	c #7393B1",
"X.	c #0D77EF",
"Y.	c #0046C0",
"Z.	c #008BFF",
"`.	c #40A9FE",
" +	c #CAE7FB",
".+	c #2969AA",
"++	c #094F96",
"@+	c #0673E2",
"#+	c #4497EA",
"$+	c #CBE2F5",
"%+	c #2E72B8",
"&+	c #0C56A2",
"*+	c #097DF4",
"=+	c #4399EF",
"-+	c #C1D3E3",
";+	c #286098",
">+	c #095AAB",
",+	c #A2C2E1",
"'+	c #23496F",
")+	c #0F457B",
"!+	c #5E86AD",
"~+	c #1063CF",
"{+	c #0058DE",
"]+	c #9FD4FC",
"^+	c #255E98",
"/+	c #0558AC",
"(+	c #A2CBF2",
"_+	c #2A67A5",
":+	c #0861BA",
"<+	c #9BC1E7",
"[+	c #265A8E",
"}+	c #095FB7",
"|+	c #ACC8E1",
"1+	c #98BDE1",
"2+	c #224568",
"3+	c #0E4883",
"4+	c #5883AC",
"5+	c #638AAE",
"6+	c #1059BB",
"7+	c #0063D2",
"8+	c #95CFFC",
"9+	c #AAD9FC",
"0+	c #23588E",
"a+	c #97C5F1",
"b+	c #ACD1F3",
"c+	c #28609A",
"d+	c #0866C6",
"e+	c #91BCE8",
"f+	c #A4C5E6",
"g+	c #DFE1E1",
"h+	c #7D99B3",
"i+	c #C0D2E1",
"j+	c #6E90B0",
"k+	c #BFE2FB",
"l+	c #C1DCF4",
"m+	c #B8CEE4",
"              . + @ @ + .                             # $ % % $ #                             & * = = * &                             - ; > > ; -                             , ' ) ) ' ,               ",
"          ! ~ { ] ^ ^ ] { ~ !                     / ( _ : < < : _ ( /                     [ } | 1 2 2 1 | } [                     3 4 5 6 7 7 6 5 4 3                     8 9 0 a b b a 0 9 8           ",
"        c d e f f g f f f e d c                 h i j k k k l k k j i h                 m n o p p p q p p o n m                 r s t u u u v u u t s r                 w x y z z z A z z y x w         ",
"      B C D f f E F G f f f D C B             H I J k k k K L M k k J I H             N O P p p p Q R S p p P O N             T U V u u u W X Y u u V U T             Z `  .z z z ..+.@.z z  .` Z       ",
"    #.$.f f f E %.&.&.*.f f f f $.#.        =.-.k k k k ;.>.>.,.M k k k -.=.        '.).p p p p !.~.~.{.S p p p ).'.        ].^.u u u u /.~.~.(.Y u u u ^.].        _.:.z z z z <.[.[.}.@.z z z :._.    ",
"  |.1.2.f f 3.4.&.&.&.5.6.f f f 2.1.|.    7.8.9.k k k 0.a.>.>.>.b.c.k k 9.8.7.    d.e.f.p p p g.h.~.~.~.i.j.p p f.e.d.    k.l.m.u u u n.o.~.~.~.p.q.u u m.l.k.    r.s.t.z z z u.v.[.[.[.w.x.z z t.s.r.  ",
"  y.z.f f A.4.&.&.&.&.&.&.6.f f f z.y.    B.C.k k k 0.>.>.>.>.>.>.b.D.k k C.B.    E.F.p p p g.~.~.~.~.~.~.i.G.p p F.E.    H.I.u u u n.~.~.~.~.~.~.p.J.u u I.H.    K.L.z z z u.[.[.[.[.[.[.w.M.z z L.K.  ",
"N.O.P.f f Q.&.&.&.&.&.&.&.%.R.f f P.O.N.S.T.U.k k V.,.>.>.>.>.>.>.>.W.k k U.T.S.X.Y.Z.p p `.{.~.~.~.~.~.~.~. +p p Z.Y.X..+++@+u u #+(.~.~.~.~.~.~.~.$+u u @+++.+%+&+*+z z =+}.[.[.[.[.[.[.[.-+z z *+&+%+",
";+>+f f ,+&.&.&.&.&.&.&.&.&.&.f f f >+;+'+)+k k k >.>.>.>.>.>.>.>.>.>.!+k k )+'+~+{+p p p ~.~.~.~.~.~.~.~.~.~.]+p p {+~+^+/+u u u ~.~.~.~.~.~.~.~.~.~.(+u u /+^+_+:+z z z [.[.[.[.[.[.[.[.[.[.<+z z :+_+",
"[+}+f f ,+&.&.|+%.&.&.1+&.&.&.f f f }+[+2+3+k k k >.>.>.4+>.>.,.5+>.>.!+k k 3+2+6+7+p p p ~.~.~.8+~.~.{.9+~.~.]+p p 7+6+0+^.u u u ~.~.~.a+~.~.(.b+~.~.(+u u ^.0+c+d+z z z [.[.[.e+[.[.}.f+[.[.<+z z d+c+",
"[+}+f f ,+&.|+f g+&.&.R.6.5.&.f f f }+[+2+3+k k k >.a.0.V.>.>.h+k 5+>.!+k k 3+2+6+7+p p p ~.h.g.`.~.~.R p 9+~.]+p p 7+6+0+^.u u u ~.o.n.#+~.~.X u b+~.(+u u ^.0+c+d+z z z [.v.u.=+[.[.+.z f+[.<+z z d+c+",
";+>+f f ,+i+3.f g+&.&.R.f *.&.f f f >+;+'+)+k k k >.;.k V.>.>.h+k c.j+!+k k )+'+~+{+p p p ~.!.p `.~.~.R p j.k+]+p p {+~+^+/+u u u ~./.u #+~.~.X u q.l+(+u u /+^+_+:+z z z [.<.z =+[.[.+.z x.m+<+z z :+_+",
"N.O.P.f G f f f g+&.&.R.f f G f f P.O.N.S.T.U.k k K k k V.>.>.h+k k k K k U.T.S.X.Y.Z.p p Q p p `.~.~.R p p p Q p Z.Y.X..+++@+u u W u u #+~.~.X u u u W u @+++.+%+&+*+z z ..z z =+[.[.+.z z z ..z *+&+%+",
"  y.z.f f f f f g+&.&.R.f f f f f z.y.    B.C.k k k k k V.>.>.h+k k k k k C.B.    E.F.p p p p p `.~.~.R p p p p p F.E.    H.I.u u u u u #+~.~.X u u u u u I.H.    K.L.z z z z z =+[.[.+.z z z z z L.K.  ",
"  |.1.2.f f f f g+&.&.R.f f f f 2.1.|.    7.8.9.k k k k V.>.>.h+k k k k 9.8.7.    d.e.f.p p p p `.~.~.R p p p p f.e.d.    k.l.m.u u u u #+~.~.X u u u u m.l.k.    r.s.t.z z z z =+[.[.+.z z z z t.s.r.  ",
"    #.$.f f f f g+&.&.R.f f f f $.#.        =.-.k k k k V.>.>.h+k k k k -.=.        '.).p p p p `.~.~.R p p p p ).'.        ].^.u u u u #+~.~.X u u u u ^.].        _.:.z z z z =+[.[.+.z z z z :._.    ",
"      B C D f f 1+|+|+E f f D C B             H I J k k M 5+5+4+k k J I H             N O P p p S 9+9+8+p p P O N             T U V u u Y b+b+a+u u V U T             Z `  .z z @.f+f+e+z z  .` Z       ",
"        c d e f f f f f f e d c                 h i j k k k k k k j i h                 m n o p p p p p p o n m                 r s t u u u u u u t s r                 w x y z z z z z z y x w         ",
"          ! ~ { ] ^ ^ ] { ~ !                     / ( _ : < < : _ ( /                     [ } | 1 2 2 1 | } [                     3 4 5 6 7 7 6 5 4 3                     8 9 0 a b b a 0 9 8           ",
"              . + @ @ + .                             # $ % % $ #                             & * = = * &                             - ; > > ; -                             , ' ) ) ' ,               "};
