/* XPM */
static char * EXTNAVDELETEL_xpm[] = {
"160 30 256 2",
"  	c None",
". 	c #FFFFFF",
"+ 	c #FFFF00",
"@ 	c #FF00FF",
"# 	c #FF0000",
"$ 	c #00FFFF",
"% 	c #00FF00",
"& 	c #0000FF",
"* 	c #000000",
"= 	c #0F579F",
"- 	c #0A75E1",
"; 	c #097EF5",
"> 	c #0674E4",
", 	c #008CFF",
"' 	c #00003F",
") 	c #00003D",
"! 	c #FDFDFE",
"~ 	c #000D62",
"{ 	c #000A56",
"] 	c #001577",
"^ 	c #001775",
"/ 	c #001B82",
"( 	c #001B80",
"_ 	c #001F7F",
": 	c #002A9B",
"< 	c #00268C",
"[ 	c #002EA7",
"} 	c #002A90",
"| 	c #002A8E",
"1 	c #00288C",
"2 	c #003DC4",
"3 	c #0039BA",
"4 	c #0048D7",
"5 	c #0043CB",
"6 	c #005CFD",
"7 	c #0052E8",
"8 	c #0042B7",
"9 	c #003DAE",
"0 	c #0066FF",
"a 	c #0052CC",
"b 	c #006DFF",
"c 	c #0075FF",
"d 	c #006DF3",
"e 	c #007BFF",
"f 	c #1F4B7A",
"g 	c #295482",
"h 	c #007DFF",
"i 	c #01264A",
"j 	c #0482FF",
"k 	c #023569",
"l 	c #034B94",
"m 	c #034990",
"n 	c #03488D",
"o 	c #034283",
"p 	c #0672E0",
"q 	c #0671DF",
"r 	c #056AD1",
"s 	c #0568CC",
"t 	c #0564C5",
"u 	c #055FBA",
"v 	c #04509E",
"w 	c #044F9A",
"x 	c #044D97",
"y 	c #033F7C",
"z 	c #03386F",
"A 	c #02264B",
"B 	c #0670DB",
"C 	c #033668",
"D 	c #065CB2",
"E 	c #032E58",
"F 	c #097CF1",
"G 	c #097BF0",
"H 	c #097BEF",
"I 	c #097AEC",
"J 	c #0874E1",
"K 	c #0871DC",
"L 	c #086DD4",
"M 	c #0656A7",
"N 	c #0653A0",
"O 	c #06509C",
"P 	c #0862BC",
"Q 	c #0758AB",
"R 	c #0755A3",
"S 	c #064F99",
"T 	c #06498E",
"U 	c #053E79",
"V 	c #0B85FF",
"W 	c #0A73DE",
"X 	c #0A72DD",
"Y 	c #0A71D9",
"Z 	c #096CCF",
"` 	c #0969CA",
" .	c #0965C3",
"..	c #085CB0",
"+.	c #064687",
"@.	c #053B72",
"#.	c #04305D",
"$.	c #0857A5",
"%.	c #08529E",
"&.	c #074D94",
"*.	c #074B90",
"=.	c #074A8D",
"-.	c #063E78",
";.	c #042B51",
">.	c #08519A",
",.	c #084F96",
"'.	c #074483",
").	c #063C71",
"!.	c #063A70",
"~.	c #07427D",
"{.	c #06376A",
"].	c #073D74",
"^.	c #052B53",
"/.	c #073A6F",
"(.	c #073A6D",
"_.	c #05294C",
":.	c #083D74",
"<.	c #073869",
"[.	c #073666",
"}.	c #093F76",
"|.	c #093E74",
"1.	c #06294D",
"2.	c #0A4077",
"3.	c #08335F",
"4.	c #0B447E",
"5.	c #0F559D",
"6.	c #0F549A",
"7.	c #0E5193",
"8.	c #0E4F90",
"9.	c #0C457E",
"0.	c #0B4075",
"a.	c #198CFF",
"b.	c #0E4D8C",
"c.	c #0E4B8A",
"d.	c #0D4781",
"e.	c #0B3C6E",
"f.	c #0E4A87",
"g.	c #0F4C8A",
"h.	c #0E4984",
"i.	c #0D4277",
"j.	c #0E467E",
"k.	c #0D4175",
"l.	c #0E4377",
"m.	c #0D3C6C",
"n.	c #125192",
"o.	c #0E3F72",
"p.	c #0D3B69",
"q.	c #135496",
"r.	c #0E3F70",
"s.	c #0E3D6D",
"t.	c #0D3A67",
"u.	c #145598",
"v.	c #145597",
"w.	c #124E8B",
"x.	c #124C87",
"y.	c #0D3660",
"z.	c #144F8C",
"A.	c #0D355C",
"B.	c #185DA4",
"C.	c #185DA3",
"D.	c #175797",
"E.	c #0C2D4F",
"F.	c #0D2F53",
"G.	c #0D2E4F",
"H.	c #1E63AA",
"I.	c #2065AB",
"J.	c #103357",
"K.	c #246DB9",
"L.	c #113558",
"M.	c #103152",
"N.	c #0E2B48",
"O.	c #2264AA",
"P.	c #143B63",
"Q.	c #0C243C",
"R.	c #2366AB",
"S.	c #153D66",
"T.	c #256BB2",
"U.	c #276CB4",
"V.	c #276CB3",
"W.	c #18436E",
"X.	c #163D66",
"Y.	c #2A75C0",
"Z.	c #18436D",
"`.	c #286CB1",
" +	c #2C76C2",
".+	c #2C76C1",
"++	c #2B6FB5",
"@+	c #2A6DB2",
"#+	c #3179C3",
"$+	c #2E70B6",
"%+	c #2F71B5",
"&+	c #204D7B",
"*+	c #347AC4",
"=+	c #4097F0",
"-+	c #357BC3",
";+	c #3272B5",
">+	c #23517F",
",+	c #245180",
"'+	c #275381",
")+	c #3774B4",
"!+	c #3774B3",
"~+	c #3D7EC2",
"{+	c #3D7EC1",
"]+	c #3975B3",
"^+	c #3975B2",
"/+	c #2A5581",
"(+	c #58A3EE",
"_+	c #2F5780",
":+	c #6FADEC",
"<+	c #70ADEC",
"[+	c #6EA7DF",
"}+	c #A4C6E7",
"|+	c #B5D3F2",
"1+	c #FBFCFD",
"2+	c #0084FF",
"3+	c #0086FF",
"4+	c #063460",
"5+	c #073159",
"6+	c #0D2944",
"7+	c #113557",
"8+	c #0C243B",
"9+	c #7799B9",
"0+	c #93BCE3",
"a+	c #8AA5BD",
"b+	c #8EA3B6",
"c+	c #91A6B9",
"d+	c #8FA4B7",
"e+	c #93A8BB",
"f+	c #BDD1E4",
"g+	c #C6D5E3",
"h+	c #0088FF",
"i+	c #94C7F4",
"j+	c #92A9BD",
"k+	c #8DA3B6",
"l+	c #AEC7DD",
"m+	c #E9F1F8",
"n+	c #6CBBFA",
"o+	c #B3DAF7",
"p+	c #CDD9E2",
"q+	c #D2DBE2",
"r+	c #D3DBE1",
"s+	c #D3D7DA",
"t+	c #DCECF7",
"u+	c #E8F3F7",
"v+	c #F8FAFA",
"w+	c #FBFDF8",
"x+	c #FDFEF9",
"y+	c #FFFFFA",
"z+	c #DDDDD9",
"A+	c #FFFEF9",
"B+	c #EFE4D4",
"C+	c #EEE4D5",
"D+	c #EFE3D3",
"E+	c #EDE3D5",
"F+	c #EBE2D6",
"G+	c #FFFEFE",
"                        ^+^+^+^+^+^+^+^+                                                _+_+_+_+_+_+_+_+                                                a.a.a.a.a.a.a.a.                                                !+!+!+!+!+!+!+!+                                                {+{+{+{+{+{+{+{+                        ",
"                  ^+;+O.w.e.5+_._.5+e.w.O.;+^+                                    _+g f S.M.6+8+8+6+M.S.f g _+                                    a.V d 8 _ { ) ) { _ 8 d V a.                                    !+$+H.g.(.E i i E (.g.H.$+!+                                    {+*+K.q.2.4+;.;.4+2.q.K.*+{+                  ",
"              ^+@+z.<.~.%.P Z X X Z P %.~.<.z.@+^+                            _+,+X.G.A.o.h.7.5.5.7.h.o.A.G.X.,+_+                            a.h 8 ^ : 4 0 e 3+3+e 0 4 : ^ 8 h a.                            !+V.g.C y v u r q q r u v y C g.V.!+                            {+.+v.).+.Q ` J G G J ` Q +.).v..+{+              ",
"            ;+D./.&. .- - - - - - - - - -  .&./.D.;+                        /+Z.F.m.b.= = = = = = = = = = b.m.F.Z./+                        V a ( 2 b , , , , , , , , , , b 2 ( a V                         %+v.z l t > > > > > > > > > > t l z v.%+                        -+C.-.N L ; ; ; ; ; ; ; ; ; ; L N -.C.-+            ",
"          @+i.'. .- - - - - - - - - - - - - -  .'.i.@+                    ,+L.y.c.= = = = = = = = = = = = = = c.y.L.,+                    h } [ b , , , , , , , , , , , , , , b [ } h                     U.2.o t > > > > > > > > > > > > > > t o 2.U.                     +d.T L ; ; ; ; ; ; ; ; ; ; ; ; ; ; L T d. +          ",
"        @+0.,.W - - - - - - - - - - - - - - - - W ,.0.@+                ,+J.s.5.= = = = = = = = = = = = = = = = 5.s.J.,+                h < 5 h+, , , , , , , , , , , , , , , , h+5 < h                 V.].x p > > > > > > > > > > > > > > > > p x ].V.                .+4.R F ; ; ; ; ; ; ; ; ; ; ; ; ; ; ; ; F R 4..+        ",
"      %+0.>.- - - - - - - - - - - - - - - - - - - - >.0.%+            '+J.r.= = = = = = = = = = = = = = = = = = = = r.J.'+            j < 4 , , , , , , , , , , , , , , , , , , , , 4 < j             ++:.w > > > > > > > > > > > > > > > > > > > > w :.++            #+4.M ; ; ; ; ; ; ; ; ; ; ; ; ; ; ; ; ; ; ; ; M 4.#+      ",
"    ^+x.=.- - - - - - - - - - - - - - - - - - - - - - =.x.^+        _+P.t.= = = = = = = = = = = = = = = = = = = = = = t.P._+        a.9 3 , , , , , , , , , , , , , , , , , , , , , , 3 9 a.        !+f.n > > > > > > > > > > > > > > > > > > > > > > n f.!+        {+n.S ; ; ; ; ; ; ; ; ; ; ; ; ; ; ; ; ; ; ; ; ; ; S n.{+    ",
"    R.!.Z - - - - - - - - - - - - - - - - - - - - - - Z !.R.        &+F.7.= = = = = = = = = = = = = = = = = = = = = = 7.F.&+        d / e , , , , , , , , , , , , , , , , , , , , , , e / d         I.z r > > > > > > > > > > > > > > > > > > > > > > r z I.        K.U J ; ; ; ; ; ; ; ; ; ; ; ; ; ; ; ; ; ; ; ; ; ; J U K.    ",
"  ]+i.$.- - - - - - - - - - - - - - - - - - - - - - - - $.i.]+    _+7+l.= = = = = = = = = = = = = = = = = = = = = = = = l.7+_+    a.| 7 , , , , , , , , , , , , , , , , , , , , , , , , 7 | a.    )+}.M > > > > > > > > > > > > > > > > > > > > > > > > M }.)+    ~+d.D ; ; ; ; ; ; ; ; ; ; ; ; ; ; ; ; ; ; ; ; ; ; ; ; D d.~+  ",
"  `.{.Y - - - - - - - - - - - - - - - - - - - - - - - - Y {.`.    >+E.6.= = = = = = = = = = = = = = = = = = = = = = = = 6.E.>+    e ] 2+, , , , , , , , , , , , , , , , , , , , , , , , 2+] e     T.k B > > > > > > > > > > > > > > > > > > > > > > > > B k T.    Y.@.I ; ; ; ; ; ; ; ; ; ; ; ; ; ; ; ; ; ; ; ; ; ; ; ; I @.Y.  ",
"^+D.*.- - - - - - - - - - - - - - - - - - - - - - - - - - *.D.^+_+W.p.= = = = = = = = = = = = = = = = = = = = = = = = = = p.W._+a.a 2 , , , , , , , , , , , , , , , , , , , , , , , , , , 2 a a.!+u.m > > > > > > > > > > > > > > > > > > > > > > > > > > m u.!+{+B.O ; ; ; ; ; ; ; ; ; ; ; ; ; ; ; ; ; ; ; ; ; ; ; ; ; ; O B.{+",
"^+k...- - - - - - s+z+z+z+z+z+z+C+C+C+C+C+C+F+[+- - - - - ..k.^+_+7+j.= = = = = = e+c+c+c+c+c+c+k+k+k+k+k+k+d+9+= = = = = j.7+_+a.1 6 , , , , , , t+u+u+u+u+u+u+x+x+x+x+x+x+v+n+, , , , , 6 1 a.!+|.D > > > > > > t+m+m+m+m+m+m+! ! ! ! ! ! v+<+> > > > > D |.!+{+9.P ; ; ; ; ; ; 0+}+}+}+}+}+}+p+p+p+p+p+p+f+=+; ; ; ; ; P 9.{+",
"^+3.` - - - - - s+D+D+D+D+D+D+D+D+D+D+D+D+D+D+E+- - - - - ` 3.^+_+N.8.= = = = = e+k+k+k+k+k+k+k+k+k+k+k+k+k+k+b+= = = = = 8.N._+a.~ c , , , , , t+y+y+y+y+y+y+y+y+y+y+y+y+y+y+w+, , , , , c ~ a.!+#.s > > > > > t+. . . . . . . . . . . . . . 1+> > > > > s #.!+{+[.K ; ; ; ; ; 0+q+r+r+r+r+r+r+r+r+r+r+r+r+r+g+; ; ; ; ; K [.{+",
"^+1.X - - - - - z+D+D+D+D+D+D+D+D+D+D+D+D+D+D+E+- - - - - X 1.^+_+Q.5.= = = = = c+k+k+k+k+k+k+k+k+k+k+k+k+k+k+b+= = = = = 5.Q._+a.' 3+, , , , , u+y+y+y+y+y+y+y+y+y+y+y+y+y+y+w+, , , , , 3+' a.!+A q > > > > > m+. . . . . . . . . . . . . . 1+> > > > > q A !+{+^.H ; ; ; ; ; }+r+r+r+r+r+r+r+r+r+r+r+r+r+r+g+; ; ; ; ; H ^.{+",
"^+1.X - - - - - l+D+D+D+D+D+D+D+D+D+D+D+D+D+D+0+- - - - - X 1.^+_+Q.5.= = = = = j+k+k+k+k+k+k+k+k+k+k+k+k+k+k+a+= = = = = 5.Q._+a.' 3+, , , , , o+y+y+y+y+y+y+y+y+y+y+y+y+y+y+i+, , , , , 3+' a.!+A q > > > > > |+. . . . . . . . . . . . . G+i+> > > > > q A !+{+^.H ; ; ; ; ; :+r+r+r+r+r+r+r+r+r+r+r+r+r+q+(+; ; ; ; ; H ^.{+",
"^+3.` - - - - - - [+l+l+l+l+l+l+l+l+0+- - - - - - - - - - ` 3.^+_+N.8.= = = = = = 9+j+j+j+j+j+j+j+j+a+= = = = = = = = = = 8.N._+a.~ c , , , , , , n+o+o+o+o+o+o+o+o+i+, , , , , , , , , , c ~ a.!+#.s > > > > > > <+|+|+|+|+|+|+|+|+i+> > > > p > > > > > s #.!+{+[.K ; ; ; ; ; ; =+:+:+:+:+:+:+:+:+(+; ; ; ; ; ; ; ; ; ; K [.{+",
"^+k...- - - - - - - - - - - - - - - W - - - - - - - - - - ..k.^+_+7+j.= = = = = = = = = = = = = = = = = = = = = = = = = = j.7+_+a.1 6 , , , , , , , , , , , , , , , , , , , , , , , , , , 6 1 a.!+|.D > > > > > > > > > > > > > > > p > > > > > > > > > > D |.!+{+9.P ; ; ; ; ; ; ; ; ; ; ; ; ; ; ; ; ; ; ; ; ; ; ; ; ; ; P 9.{+",
"^+D.*.- - - - - - - - - - - - - - - - - - - - - - - - - - *.D.^+_+W.p.= = = = = = = = = = = = = = = = = = = = = = = = = = p.W._+a.a 2 , , , , , , , , , , , , , , , , , , , , , , , , , , 2 a a.!+u.m > > > > > > > > > > > > > > > > > > > > > > > > > > m u.!+{+B.O ; ; ; ; ; ; ; ; ; ; ; ; ; ; ; ; ; ; ; ; ; ; ; ; ; ; O B.{+",
"  `.{.Y - - - - - - - - - - - - - - - - - - - - - - - - Y {.`.    >+E.6.= = = = = = = = = = = = = = = = = = = = = = = = 6.E.>+    e ] 2+, , , , , , , , , , , , , , , , , , , , , , , , 2+] e     T.k B > > > > > > > > > > > > > > > > > > > > > > > > B k T.    Y.@.I ; ; ; ; ; ; ; ; ; ; ; ; ; ; ; ; ; ; ; ; ; ; ; ; I @.Y.  ",
"  ]+i.$.- - - - - - - - - - - - - - - - - - - - - - - - $.i.]+    _+7+l.= = = = = = = = = = = = = = = = = = = = = = = = l.7+_+    a.| 7 , , , , , , , , , , , , , , , , , , , , , , , , 7 | a.    )+}.M > > > > > > > > > > > > > > > > > > > > > > > > M }.)+    ~+d.D ; ; ; ; ; ; ; ; ; ; ; ; ; ; ; ; ; ; ; ; ; ; ; ; D d.~+  ",
"    R.!.Z - - - - - - - - - - - - - - - - - - - - - - Z !.R.        &+F.7.= = = = = = = = = = = = = = = = = = = = = = 7.F.&+        d / e , , , , , , , , , , , , , , , , , , , , , , e / d         I.z r > > > > > > > > > > > > > > > > > > > > > > r z I.        K.U J ; ; ; ; ; ; ; ; ; ; ; ; ; ; ; ; ; ; ; ; ; ; J U K.    ",
"    ^+x.=.- - - - - - - - - - - - - - - - - - - - - - =.x.^+        _+P.t.= = = = = = = = = = = = = = = = = = = = = = t.P._+        a.9 3 , , , , , , , , , , , , , , , , , , , , , , 3 9 a.        !+f.n > > > > > > > > > > > > > > > > > > > > > > n f.!+        {+n.S ; ; ; ; ; ; ; ; ; ; ; ; ; ; ; ; ; ; ; ; ; ; S n.{+    ",
"      %+0.>.- - - - - - - - - - - - - - - - - - - - >.0.%+            '+J.r.= = = = = = = = = = = = = = = = = = = = r.J.'+            j < 4 , , , , , , , , , , , , , , , , , , , , 4 < j             ++:.w > > > > > > > > > > > > > > > > > > > > w :.++            #+4.M ; ; ; ; ; ; ; ; ; ; ; ; ; ; ; ; ; ; ; ; M 4.#+      ",
"        @+0.,.W - - - - - - - - - - - - - - - - W ,.0.@+                ,+J.s.5.= = = = = = = = = = = = = = = = 5.s.J.,+                h < 5 h+, , , , , , , , , , , , , , , , h+5 < h                 V.].x p > > > > > > > > > > > > > > > > p x ].V.                .+4.R F ; ; ; ; ; ; ; ; ; ; ; ; ; ; ; ; F R 4..+        ",
"          @+i.'. .- - - - - - - - - - - - - -  .'.i.@+                    ,+L.y.c.= = = = = = = = = = = = = = c.y.L.,+                    h } [ b , , , , , , , , , , , , , , b [ } h                     U.2.o t > > > > > > > > > > > > > > t o 2.U.                     +d.T L ; ; ; ; ; ; ; ; ; ; ; ; ; ; L T d. +          ",
"            ;+D./.&. .- - - - - - - - - -  .&./.D.;+                        /+Z.F.m.b.= = = = = = = = = = b.m.F.Z./+                        V a ( 2 b , , , , , , , , , , b 2 ( a V                         %+v.z l t > > > > > > > > > > t l z v.%+                        -+C.-.N L ; ; ; ; ; ; ; ; ; ; L N -.C.-+            ",
"              ^+@+z.<.~.%.P Z X X Z P %.~.<.z.@+^+                            _+,+X.G.A.o.h.7.5.5.7.h.o.A.G.X.,+_+                            a.h 8 ^ : 4 0 e 3+3+e 0 4 : ^ 8 h a.                            !+V.g.C y v u r q q r u v y C g.V.!+                            {+.+v.).+.Q ` J G G J ` Q +.).v..+{+              ",
"                  ^+;+O.w.e.5+_._.5+e.w.O.;+^+                                    _+g f S.M.6+8+8+6+M.S.f g _+                                    a.V d 8 _ { ) ) { _ 8 d V a.                                    !+$+H.g.(.E i i E (.g.H.$+!+                                    {+*+K.q.2.4+;.;.4+2.q.K.*+{+                  ",
"                        ^+^+^+^+^+^+^+^+                                                _+_+_+_+_+_+_+_+                                                a.a.a.a.a.a.a.a.                                                !+!+!+!+!+!+!+!+                                                {+{+{+{+{+{+{+{+                        "};
