/* XPM */
static char * EXTNAVMOVENEXTT_xpm[] = {
"100 20 237 2",
"  	c None",
". 	c #2A67A6",
"+ 	c #2A629B",
"@ 	c #285D92",
"# 	c #244E78",
"$ 	c #254A70",
"% 	c #23476A",
"& 	c #0C71EA",
"* 	c #1167D3",
"= 	c #115FC1",
"- 	c #2766A6",
"; 	c #27609B",
"> 	c #255B92",
", 	c #2C6FB4",
"' 	c #2C69A8",
") 	c #2A639E",
"! 	c #2565A6",
"~ 	c #174F89",
"{ 	c #0E4F92",
"] 	c #0A55A1",
"^ 	c #0859AB",
"/ 	c #214C78",
"( 	c #183E64",
"_ 	c #123D6A",
": 	c #0F4174",
"< 	c #0E447B",
"[ 	c #046DE9",
"} 	c #0444B1",
"| 	c #0043C3",
"1 	c #004FD0",
"2 	c #0058C1",
"3 	c #2263A6",
"4 	c #144E89",
"5 	c #0A4D91",
"6 	c #0653A1",
"7 	c #0457AC",
"8 	c #276DB4",
"9 	c #185594",
"0 	c #0D559E",
"a 	c #095BAF",
"b 	c #0760B9",
"c 	c #195796",
"d 	c #084F98",
"e 	c #0968C8",
"f 	c #0A75E1",
"g 	c #19436D",
"h 	c #0D3D6E",
"i 	c #0E4E8F",
"j 	c #0F579F",
"k 	c #0352C9",
"l 	c #0043BC",
"m 	c #0073F6",
"n 	c #008CFF",
"o 	c #165596",
"p 	c #044D98",
"q 	c #0567CB",
"r 	c #0674E4",
"s 	c #1A5EA2",
"t 	c #0755A4",
"u 	c #0870DA",
"v 	c #097EF5",
"w 	c #14508E",
"x 	c #095AAC",
"y 	c #0A71DA",
"z 	c #98BDE1",
"A 	c #ACC8E1",
"B 	c #328AE1",
"C 	c #163E67",
"D 	c #0F457C",
"E 	c #0F549B",
"F 	c #2464A3",
"G 	c #638AAE",
"H 	c #5883AC",
"I 	c #0046BA",
"J 	c #0058D2",
"K 	c #0085FF",
"L 	c #2A9FFE",
"M 	c #AAD9FC",
"N 	c #95CFFC",
"O 	c #104E8E",
"P 	c #0558AD",
"Q 	c #0670DD",
"R 	c #145699",
"S 	c #0861BB",
"T 	c #097AEE",
"U 	c #3090F1",
"V 	c #A4C5E6",
"W 	c #91BCE8",
"X 	c #185491",
"Y 	c #0960B7",
"Z 	c #DFE1E1",
"` 	c #FDF1E1",
" .	c #4794E1",
"..	c #18406A",
"+.	c #0F4983",
"@.	c #2E6AA5",
"#.	c #8DA3B6",
"$.	c #7D99B3",
"%.	c #014CC0",
"&.	c #0063E0",
"*.	c #40A9FE",
"=.	c #FFFFFA",
"-.	c #DFF1FB",
";.	c #145291",
">.	c #055EB8",
",.	c #4497EA",
"'.	c #E0EEF7",
").	c #185A9D",
"!.	c #0867C7",
"~.	c #4399EF",
"{.	c #F2E9DE",
"].	c #D5DCE1",
"^.	c #2564A4",
"/.	c #095098",
"(.	c #0A72DC",
"_.	c #214B77",
":.	c #0E3E6E",
"<.	c #0F559C",
"[.	c #076BE6",
"}.	c #0046BC",
"|.	c #0087FC",
"1.	c #2263A5",
"2.	c #054E98",
"3.	c #0671DF",
"4.	c #276CB2",
"5.	c #0856A5",
"6.	c #097BEF",
"7.	c #154F8B",
"8.	c #096ACC",
"9.	c #163E65",
"0.	c #0F5091",
"a.	c #0444B2",
"b.	c #0077F7",
"c.	c #114D8B",
"d.	c #0569CE",
"e.	c #155596",
"f.	c #0872DE",
"g.	c #2C6AA9",
"h.	c #0D5196",
"i.	c #0A74E0",
"j.	c #6FA9E1",
"k.	c #26507A",
"l.	c #113F6D",
"m.	c #0F569E",
"n.	c #4477A9",
"o.	c #0D77EF",
"p.	c #0046C0",
"q.	c #008BFF",
"r.	c #6ABCFD",
"s.	c #2969AA",
"t.	c #094F96",
"u.	c #0673E2",
"v.	c #2E72B8",
"w.	c #0C56A2",
"x.	c #097DF4",
"y.	c #6AABEB",
"z.	c #286098",
"A.	c #095AAB",
"B.	c #A2C2E1",
"C.	c #C0D2E1",
"D.	c #1E7FE1",
"E.	c #79AEE1",
"F.	c #23496F",
"G.	c #0F457B",
"H.	c #497AAA",
"I.	c #1A5DA1",
"J.	c #6E90B0",
"K.	c #5E86AD",
"L.	c #1063CF",
"M.	c #0058DE",
"N.	c #75C1FD",
"O.	c #1596FF",
"P.	c #BFE2FB",
"Q.	c #9FD4FC",
"R.	c #255E98",
"S.	c #0558AC",
"T.	c #C1DCF4",
"U.	c #1B80E6",
"V.	c #3A91E9",
"W.	c #A2CBF2",
"X.	c #2A67A5",
"Y.	c #0861BA",
"Z.	c #74AFEA",
"`.	c #1C87F3",
" +	c #B8CEE4",
".+	c #9BC1E7",
"++	c #265A8E",
"@+	c #095FB7",
"#+	c #5B9EE1",
"$+	c #F3ECE1",
"%+	c #224568",
"&+	c #0E4883",
"*+	c #88A0B5",
"=+	c #3970A7",
"-+	c #1059BB",
";+	c #0063D2",
">+	c #F4FAFA",
",+	c #55B2FD",
"'+	c #23588E",
")+	c #ACD1F3",
"!+	c #308BE8",
"~+	c #28609A",
"{+	c #0866C6",
"]+	c #E8E5DF",
"^+	c #57A2ED",
"/+	c #E9E7E1",
"(+	c #829DB4",
"_+	c #EAF5FA",
":+	c #4F9DEA",
"<+	c #EAF3F8",
"[+	c #DFE0E0",
"}+	c #CBE2F5",
"|+	c #F5F9F9",
"1+	c #D6E8F6",
"2+	c #CAD7E1",
"3+	c #7393B1",
"4+	c #CAE7FB",
"5+	c #6EAEED",
"6+	c #C1D3E3",
"7+	c #2884E1",
"8+	c #D4DCE1",
"9+	c #7896B2",
"0+	c #1F60A2",
"a+	c #D4ECFB",
"b+	c #209AFE",
"c+	c #2585E7",
"d+	c #97C5F1",
"e+	c #CBD7E2",
"f+	c #268BF2",
"g+	c #8DBFF0",
"h+	c #107AE5",
"i+	c #DFE2E1",
"j+	c #7D9AB3",
"k+	c #3D8FE1",
"l+	c #2967A4",
"m+	c #35A4FE",
"n+	c #3A94F0",
"              . + @ @ + .                             # $ % % $ #                             & * = = * &                             - ; > > ; -                             , ' ) ) ' ,               ",
"          ! ~ { ] ^ ^ ] { ~ !                     / ( _ : < < : _ ( /                     [ } | 1 2 2 1 | } [                     3 4 5 6 7 7 6 5 4 3                     8 9 0 a b b a 0 9 8           ",
"        c d e f f f f f f e d c                 g h i j j j j j j i h g                 k l m n n n n n n m l k                 o p q r r r r r r q p o                 s t u v v v v v v u t s         ",
"      w x y f f z A A B f f y x w             C D E j j F G G H j j E D C             I J K n n L M M N n n K J I             O P Q r r r r r r r r Q P O             R S T v v U V V W v v T S R       ",
"    X Y f f f f Z ` `  .f f f f Y X         ..+.j j j j @.#.#.$.j j j j +...        %.&.n n n n *.=.=.-.n n n n &.%.        ;.>.r r r r ,.=.=.'.r r r r >.;.        ).!.v v v v ~.{.{.].v v v v !.).    ",
"  ^./.(.f f f f Z ` `  .f f f f (./.^.    _.:.<.j j j j @.#.#.$.j j j j <.:._.    [.}.|.n n n n *.=.=.-.n n n n |.}.[.    1.2.3.r r r r ,.=.=.'.r r r r 3.2.1.    4.5.6.v v v v ~.{.{.].v v v v 6.5.4.  ",
"  7.8.f f f f f Z ` `  .f f f f f 8.7.    9.0.j j j j j @.#.#.$.j j j j j 0.9.    a.b.n n n n n *.=.=.-.n n n n n b.a.    c.d.r r r r r ,.=.=.'.r r r r r d.c.    e.f.v v v v v ~.{.{.].v v v v v f.e.  ",
"g.h.i.f j.f f f Z ` `  .f f j.f f i.h.g.k.l.m.j j n.j j @.#.#.$.j j j n.j m.l.k.o.p.q.n n r.n n *.=.=.-.n n n r.n q.p.o.s.t.u.r r r r r ,.=.=.'.r r r r r u.t.s.v.w.x.v v y.v v ~.{.{.].v v v y.v x.w.v.",
"z.A.f f B.C.D.f Z ` `  .f E.` f f f A.z.F.G.j j j #.H.j @.#.#.$.j I.J.K.j j G.F.L.M.n n n =.N.n *.=.=.-.n O.P.Q.n n M.L.R.S.r r r T.U.r ,.=.=.'.r r V.W.r r S.R.X.Y.v v v {.Z.v ~.{.{.].v `. +.+v v Y.X.",
"++@+f f B.` A f Z ` `  .#+$+` f f f @+++%+&+j j j #.*+=+@.#.#.$.j G #.K.j j &+%+-+;+n n n =.>+,+*.=.=.-.n M =.Q.n n ;+-+'+>.r r r =.)+r ,.=.=.'.r !+'.W.r r >.'+~+{+v v v {.]+^+~.{.{.].v V {..+v v {+~+",
"++@+f f B.` ` A /+` ` z ` ` ` f f f @+++%+&+j j j #.#.#.H #.#.(+G #.#.K.j j &+%+-+;+n n n =.=.=.N =.=._+M =.=.Q.n n ;+-+'+>.r r r =.=.)+:+=.=.'.!+<+=.W.r r >.'+~+{+v v v {.{.{.W {.{.[+V {.{..+v v {+~+",
"z.A.f f B.` ` ` ` ` ` ` ` ` ` f f f A.z.F.G.j j j #.#.#.#.#.#.#.#.#.#.K.j j G.F.L.M.n n n =.=.=.=.=.=.=.=.=.=.Q.n n M.L.R.S.r r r =.=.=.}+=.=.|+1+=.=.W.r r S.R.X.Y.v v v {.{.{.{.{.{.{.{.{.{..+v v Y.X.",
"g.h.i.f f 2+` ` ` ` ` ` ` /+ .f f i.h.g.k.l.m.j j @.(+#.#.#.#.#.#.#.3+j j m.l.k.o.p.q.n n *._+=.=.=.=.=.=.=.4+n n q.p.o.s.t.u.r r }+=.=.=.=.=.=.=.=.=.5+r u.t.s.v.w.x.v v ~.[+{.{.{.{.{.{.{.6+v v x.w.v.",
"  7.8.f f 7+8+` ` ` ` ` ` #+f f f 8.7.    9.0.j j j =+#.#.#.#.#.#.9+0+j j 0.9.    a.b.n n n ,+=.=.=.=.=.=.a+b+n n b.a.    c.d.r r c+1+=.=.=.=.=.=.=.d+r r d.c.    e.f.v v v ^+{.{.{.{.{.{.e+f+v v f.e.  ",
"  ^./.(.f f D.8+` ` ` $+#+f f f (./.^.    _.:.<.j j j =+*+#.#.#.9+I.j j <.:._.    [.}.|.n n n ,+>+=.=.=.a+O.n n |.}.[.    1.2.3.r r U.1+=.=.=.=.=.g+r r 3.2.1.    4.5.6.v v v ^+]+{.{.{.e+`.v v 6.5.4.  ",
"    X Y f f f B /+` ` E.f f f f Y X         ..+.j j j j H.#.#.(+F j j j +...        %.&.n n n n N.=.=._+L n n n &.%.        ;.>.r r r !+<+=.=.=.)+h+r r >.;.        ).!.v v v v Z.{.{.[+U v v v !.).    ",
"      w x y f f B i+j.f f f y x w             C D E j j j n.j+F j j E D C             I J K n n n r.-.L n n K J I             O P Q r r !+'.=.)+r r Q P O             R S T v v v y.].U v v T S R       ",
"        c d e f f k+f f f e d c                 g h i j j j l+j j i h g                 k l m n n n m+n n m l k                 o p q r r V.T.U.r q p o                 s t u v v v n+v v u t s         ",
"          ! ~ { ] ^ ^ ] { ~ !                     / ( _ : < < : _ ( /                     [ } | 1 2 2 1 | } [                     3 4 5 6 7 7 6 5 4 3                     8 9 0 a b b a 0 9 8           ",
"              . + @ @ + .                             # $ % % $ #                             & * = = * &                             - ; > > ; -                             , ' ) ) ' ,               "};
