/* XPM */
static char * EXTNAVINSERTT_xpm[] = {
"80 20 212 2",
"  	c None",
". 	c #2A67A6",
"+ 	c #2A629B",
"@ 	c #285D92",
"# 	c #244E78",
"$ 	c #254A70",
"% 	c #23476A",
"& 	c #0C72EA",
"* 	c #1167D3",
"= 	c #115FC1",
"- 	c #2766A6",
"; 	c #27609B",
"> 	c #255B92",
", 	c #2565A6",
"' 	c #175089",
") 	c #0E4F92",
"! 	c #0956A2",
"~ 	c #0859AB",
"{ 	c #214C78",
"] 	c #183E64",
"^ 	c #123D6A",
"/ 	c #0F4174",
"( 	c #0E447B",
"_ 	c #046DE8",
": 	c #0444B1",
"< 	c #0044C4",
"[ 	c #004FD0",
"} 	c #0058C1",
"| 	c #2263A6",
"1 	c #134E89",
"2 	c #0A4D91",
"3 	c #0653A1",
"4 	c #0457AC",
"5 	c #195796",
"6 	c #084F98",
"7 	c #0968C8",
"8 	c #0A75E1",
"9 	c #19436D",
"0 	c #0D3D6E",
"a 	c #0E4E8F",
"b 	c #0F579F",
"c 	c #0352CA",
"d 	c #0043BB",
"e 	c #0072F5",
"f 	c #008CFF",
"g 	c #165596",
"h 	c #044D99",
"i 	c #0566CA",
"j 	c #0674E4",
"k 	c #14508E",
"l 	c #095AAC",
"m 	c #0A72DB",
"n 	c #163E67",
"o 	c #0F457C",
"p 	c #0F549B",
"q 	c #0046BA",
"r 	c #0058D2",
"s 	c #0086FF",
"t 	c #104E8E",
"u 	c #0558AD",
"v 	c #0671DE",
"w 	c #185491",
"x 	c #0960B7",
"y 	c #18406A",
"z 	c #0F4983",
"A 	c #014CC0",
"B 	c #0063E0",
"C 	c #145291",
"D 	c #055EB8",
"E 	c #2564A4",
"F 	c #095098",
"G 	c #0A72DC",
"H 	c #157AE1",
"I 	c #358BE1",
"J 	c #1C7EE1",
"K 	c #214B77",
"L 	c #0E3E6E",
"M 	c #0F559C",
"N 	c #155AA0",
"O 	c #2664A3",
"P 	c #185CA1",
"Q 	c #076AE6",
"R 	c #0046BC",
"S 	c #0087FC",
"T 	c #0B91FF",
"U 	c #2DA1FE",
"V 	c #1294FF",
"W 	c #2263A5",
"X 	c #064E99",
"Y 	c #0671DF",
"Z 	c #117AE5",
"` 	c #328DE9",
" .	c #187EE6",
"..	c #154F8B",
"+.	c #096ACC",
"@.	c #4794E1",
"#.	c #FDF1E1",
"$.	c #6FA9E1",
"%.	c #163E65",
"&.	c #0F5091",
"*.	c #2E6AA5",
"=.	c #8DA3B6",
"-.	c #4476A8",
";.	c #0444B2",
">.	c #0077F7",
",.	c #40A9FE",
"'.	c #FFFFFA",
").	c #6ABCFD",
"!.	c #114D8B",
"~.	c #0669CE",
"{.	c #4496EA",
"].	c #FEFEFD",
"^.	c #6DAEEF",
"/.	c #2C6AA9",
"(.	c #0D5196",
"_.	c #0A74E0",
":.	c #26507A",
"<.	c #113F6D",
"[.	c #0F569E",
"}.	c #0D77EF",
"|.	c #0047C2",
"1.	c #008BFF",
"2.	c #2969AA",
"3.	c #094F96",
"4.	c #0673E2",
"5.	c #286098",
"6.	c #095AAB",
"7.	c #1279E1",
"8.	c #2C86E1",
"9.	c #3088E1",
"0.	c #63A2E1",
"a.	c #85B4E1",
"b.	c #23496F",
"c.	c #0F457B",
"d.	c #135AA0",
"e.	c #2161A2",
"f.	c #2363A3",
"g.	c #3D73A8",
"h.	c #4F7DAB",
"i.	c #1063CF",
"j.	c #0058DE",
"k.	c #0890FF",
"l.	c #239CFE",
"m.	c #289EFE",
"n.	c #5EB6FD",
"o.	c #81C6FD",
"p.	c #255E98",
"q.	c #0659AC",
"r.	c #0E79E5",
"s.	c #2887E8",
"t.	c #2D89E8",
"u.	c #61A6ED",
"v.	c #83BAF1",
"w.	c #265A8E",
"x.	c #095FB7",
"y.	c #2E88E1",
"z.	c #B8CEE1",
"A.	c #D2DBE1",
"B.	c #DCE0E1",
"C.	c #E3E4E1",
"D.	c #224568",
"E.	c #0E4883",
"F.	c #2262A2",
"G.	c #698DB0",
"H.	c #7795B2",
"I.	c #7C99B3",
"J.	c #809BB4",
"K.	c #1059BB",
"L.	c #0063D2",
"M.	c #269DFE",
"N.	c #B7DFFC",
"O.	c #D2EBFB",
"P.	c #DDF0FB",
"Q.	c #E4F3FB",
"R.	c #23588E",
"S.	c #2B89E8",
"T.	c #B8D7F6",
"U.	c #D2E5F9",
"V.	c #DDECFA",
"W.	c #E4EFFA",
"X.	c #348BE1",
"Y.	c #DDE0E1",
"Z.	c #2564A3",
"`.	c #2DA0FE",
" +	c #318CE8",
".+	c #DDEBFA",
"++	c #328CE8",
"@+	c #3089E1",
"#+	c #B9CFE1",
"$+	c #6A8EB0",
"%+	c #7696B2",
"&+	c #809BB3",
"*+	c #B8DFFB",
"=+	c #D2EAFB",
"-+	c #DDF0FA",
";+	c #E4F3FA",
">+	c #2D8AE8",
",+	c #B9D7F6",
"'+	c #D2E5F8",
")+	c #B9D8F6",
"!+	c #328AE1",
"~+	c #ACC8E1",
"{+	c #4E97E1",
"]+	c #2464A3",
"^+	c #638AAE",
"/+	c #326CA5",
"(+	c #2A9FFE",
"_+	c #AAD9FC",
":+	c #47ACFE",
"<+	c #2F8BE8",
"[+	c #ABD0F5",
"}+	c #4B9AEB",
"              . + @ @ + .                             # $ % % $ #                             & * = = * &                             - ; > > ; -               ",
"          , ' ) ! ~ ~ ! ) ' ,                     { ] ^ / ( ( / ^ ] {                     _ : < [ } } [ < : _                     | 1 2 3 4 4 3 2 1 |           ",
"        5 6 7 8 8 8 8 8 8 7 6 5                 9 0 a b b b b b b a 0 9                 c d e f f f f f f e d c                 g h i j j j j j j i h g         ",
"      k l m 8 8 8 8 8 8 8 8 m l k             n o p b b b b b b b b p o n             q r s f f f f f f f f s r q             t u v j j j j j j j j v u t       ",
"    w x 8 8 8 8 8 8 8 8 8 8 8 8 x w         y z b b b b b b b b b b b b z y         A B f f f f f f f f f f f f B A         C D j j j j j j j j j j j j D C     ",
"  E F G 8 8 8 8 H I I J 8 8 8 8 G F E     K L M b b b b N O O P b b b b M L K     Q R S f f f f T U U V f f f f S R Q     W X Y j j j j Z ` `  .j j j j Y X W   ",
"  ..+.8 8 8 8 8 @.#.#.$.8 8 8 8 8 +...    %.&.b b b b b *.=.=.-.b b b b b &.%.    ;.>.f f f f f ,.'.'.).f f f f f >.;.    !.~.j j j j j {.].].^.j j j j j ~.!.  ",
"/.(._.8 8 8 8 8 @.#.#.$.8 8 8 8 8 _.(./.:.<.[.b b b b b *.=.=.-.b b b b b [.<.:.}.|.1.f f f f f ,.'.'.).f f f f f 1.|.}.2.3.4.j j j j j {.].].^.j j j j j 4.3.2.",
"5.6.8 8 8 7.8.9.0.#.#.a.9.8.7.8 8 8 6.5.b.c.b b b d.e.f.g.=.=.h.f.e.d.b b b c.b.i.j.f f f k.l.m.n.'.'.o.m.l.k.f f f j.i.p.q.j j j r.s.t.u.].].v.t.s.r.j j j q.p.",
"w.x.8 8 8 y.z.A.B.#.#.C.A.z.y.8 8 8 x.w.D.E.b b b F.G.H.I.=.=.J.H.G.F.b b b E.D.K.L.f f f M.N.O.P.'.'.Q.O.N.M.f f f L.K.R.D j j j S.T.U.V.].].W.U.T.S.j j j D R.",
"w.x.8 8 8 X.Y.#.#.#.#.#.#.B.X.8 8 8 x.w.D.E.b b b Z.I.=.=.=.=.=.=.I.Z.b b b E.D.K.L.f f f `.P.'.'.'.'.'.'.P.`.f f f L.K.R.D j j j  +.+].].].].].].V.++j j j D R.",
"5.6.8 8 8 @+#+A.B.#.#.C.A.#+@+8 8 8 6.5.b.c.b b b f.$+%+I.=.=.&+%+$+f.b b b c.b.i.j.f f f m.*+=+-+'.'.;+=+*+m.f f f j.i.p.q.j j j >+,+'+V.].].W.'+)+>+j j j q.p.",
"/.(._.8 8 8 8 8 @.#.#.$.8 8 8 8 8 _.(./.:.<.[.b b b b b *.=.=.-.b b b b b [.<.:.}.|.1.f f f f f ,.'.'.).f f f f f 1.|.}.2.3.4.j j j j j {.].].^.j j j j j 4.3.2.",
"  ..+.8 8 8 8 8 @.#.#.$.8 8 8 8 8 +...    %.&.b b b b b *.=.=.-.b b b b b &.%.    ;.>.f f f f f ,.'.'.).f f f f f >.;.    !.~.j j j j j {.].].^.j j j j j ~.!.  ",
"  E F G 8 8 8 8 !+~+~+{+8 8 8 8 G F E     K L M b b b b ]+^+^+/+b b b b M L K     Q R S f f f f (+_+_+:+f f f f S R Q     W X Y j j j j <+[+[+}+j j j j Y X W   ",
"    w x 8 8 8 8 8 8 8 8 8 8 8 8 x w         y z b b b b b b b b b b b b z y         A B f f f f f f f f f f f f B A         C D j j j j j j j j j j j j D C     ",
"      k l m 8 8 8 8 8 8 8 8 m l k             n o p b b b b b b b b p o n             q r s f f f f f f f f s r q             t u v j j j j j j j j v u t       ",
"        5 6 7 8 8 8 8 8 8 7 6 5                 9 0 a b b b b b b a 0 9                 c d e f f f f f f e d c                 g h i j j j j j j i h g         ",
"          , ' ) ! ~ ~ ! ) ' ,                     { ] ^ / ( ( / ^ ] {                     _ : < [ } } [ < : _                     | 1 2 3 4 4 3 2 1 |           ",
"              . + @ @ + .                             # $ % % $ #                             & * = = * &                             - ; > > ; -               "};
