/* XPM */
static char * EXTNAVMOVEPREVIOUST_xpm[] = {
"80 20 189 2",
"  	c None",
". 	c #2A67A6",
"+ 	c #2A629B",
"@ 	c #285D92",
"# 	c #244E78",
"$ 	c #254A70",
"% 	c #23476A",
"& 	c #0C71EA",
"* 	c #1167D3",
"= 	c #115FC1",
"- 	c #2766A6",
"; 	c #27609B",
"> 	c #255B92",
", 	c #2565A6",
"' 	c #174F89",
") 	c #0E4F92",
"! 	c #0A55A1",
"~ 	c #0859AB",
"{ 	c #214C78",
"] 	c #183E64",
"^ 	c #123D6A",
"/ 	c #0F4174",
"( 	c #0E447B",
"_ 	c #046DE9",
": 	c #0444B1",
"< 	c #0043C3",
"[ 	c #004FD0",
"} 	c #0058C1",
"| 	c #2263A6",
"1 	c #144E89",
"2 	c #0A4D91",
"3 	c #0653A1",
"4 	c #0457AC",
"5 	c #195796",
"6 	c #084F98",
"7 	c #0968C8",
"8 	c #0A75E1",
"9 	c #3D8FE1",
"0 	c #19436D",
"a 	c #0D3D6E",
"b 	c #0E4E8F",
"c 	c #0F579F",
"d 	c #2967A4",
"e 	c #0352C9",
"f 	c #0043BC",
"g 	c #0073F6",
"h 	c #008CFF",
"i 	c #35A4FE",
"j 	c #165596",
"k 	c #044D98",
"l 	c #0567CB",
"m 	c #0674E4",
"n 	c #3A91E9",
"o 	c #14508E",
"p 	c #095AAC",
"q 	c #0A71DA",
"r 	c #328AE1",
"s 	c #DFE2E1",
"t 	c #6FA9E1",
"u 	c #163E67",
"v 	c #0F457C",
"w 	c #0F549B",
"x 	c #4477A9",
"y 	c #7D9AB3",
"z 	c #2464A3",
"A 	c #0046BA",
"B 	c #0058D2",
"C 	c #0085FF",
"D 	c #6ABCFD",
"E 	c #DFF1FB",
"F 	c #2A9FFE",
"G 	c #104E8E",
"H 	c #0558AD",
"I 	c #0670DD",
"J 	c #6EAEED",
"K 	c #E0EEF7",
"L 	c #308BE8",
"M 	c #185491",
"N 	c #0960B7",
"O 	c #E9E7E1",
"P 	c #FDF1E1",
"Q 	c #79AEE1",
"R 	c #18406A",
"S 	c #0F4983",
"T 	c #497AAA",
"U 	c #8DA3B6",
"V 	c #829DB4",
"W 	c #014CC0",
"X 	c #0063E0",
"Y 	c #75C1FD",
"Z 	c #FFFFFA",
"` 	c #EAF5FA",
" .	c #145291",
"..	c #055EB8",
"+.	c #78B4EE",
"@.	c #EAF3F8",
"#.	c #2564A4",
"$.	c #095098",
"%.	c #0A72DC",
"&.	c #1E7FE1",
"*.	c #D4DCE1",
"=.	c #F3ECE1",
"-.	c #5B9EE1",
";.	c #214B77",
">.	c #0E3E6E",
",.	c #0F559C",
"'.	c #3970A7",
").	c #88A0B5",
"!.	c #7896B2",
"~.	c #1A5DA1",
"{.	c #076BE6",
"].	c #0046BC",
"^.	c #0087FC",
"/.	c #55B2FD",
"(.	c #F4FAFA",
"_.	c #D4ECFB",
":.	c #1596FF",
"<.	c #2263A5",
"[.	c #054E98",
"}.	c #0671DF",
"|.	c #59A2EB",
"1.	c #F5F9F9",
"2.	c #D6E8F6",
"3.	c #1B80E6",
"4.	c #154F8B",
"5.	c #096ACC",
"6.	c #2884E1",
"7.	c #163E65",
"8.	c #0F5091",
"9.	c #1F60A2",
"0.	c #0444B2",
"a.	c #0077F7",
"b.	c #209AFE",
"c.	c #114D8B",
"d.	c #0569CE",
"e.	c #2585E7",
"f.	c #2C6AA9",
"g.	c #0D5196",
"h.	c #0A74E0",
"i.	c #CAD7E1",
"j.	c #4794E1",
"k.	c #26507A",
"l.	c #113F6D",
"m.	c #0F569E",
"n.	c #2E6AA5",
"o.	c #7393B1",
"p.	c #0D77EF",
"q.	c #0046C0",
"r.	c #008BFF",
"s.	c #40A9FE",
"t.	c #CAE7FB",
"u.	c #2969AA",
"v.	c #094F96",
"w.	c #0673E2",
"x.	c #4497EA",
"y.	c #CBE2F5",
"z.	c #286098",
"A.	c #095AAB",
"B.	c #A2C2E1",
"C.	c #23496F",
"D.	c #0F457B",
"E.	c #5E86AD",
"F.	c #1063CF",
"G.	c #0058DE",
"H.	c #9FD4FC",
"I.	c #255E98",
"J.	c #0558AC",
"K.	c #A2CBF2",
"L.	c #265A8E",
"M.	c #095FB7",
"N.	c #ACC8E1",
"O.	c #98BDE1",
"P.	c #224568",
"Q.	c #0E4883",
"R.	c #5883AC",
"S.	c #638AAE",
"T.	c #1059BB",
"U.	c #0063D2",
"V.	c #95CFFC",
"W.	c #AAD9FC",
"X.	c #23588E",
"Y.	c #97C5F1",
"Z.	c #ACD1F3",
"`.	c #DFE1E1",
" +	c #7D99B3",
".+	c #C0D2E1",
"++	c #6E90B0",
"@+	c #BFE2FB",
"#+	c #C1DCF4",
"              . + @ @ + .                             # $ % % $ #                             & * = = * &                             - ; > > ; -               ",
"          , ' ) ! ~ ~ ! ) ' ,                     { ] ^ / ( ( / ^ ] {                     _ : < [ } } [ < : _                     | 1 2 3 4 4 3 2 1 |           ",
"        5 6 7 8 8 9 8 8 8 7 6 5                 0 a b c c c d c c b a 0                 e f g h h h i h h g f e                 j k l m m m n m m l k j         ",
"      o p q 8 8 r s t 8 8 8 q p o             u v w c c c x y z c c w v u             A B C h h h D E F h h C B A             G H I m m m J K L m m I H G       ",
"    M N 8 8 8 r O P P Q 8 8 8 8 N M         R S c c c c T U U V z c c c S R         W X h h h h Y Z Z ` F h h h X W          ...m m m m +.Z Z @.L m m m .. .    ",
"  #.$.%.8 8 &.*.P P P =.-.8 8 8 %.$.#.    ;.>.,.c c c '.).U U U !.~.c c ,.>.;.    {.].^.h h h /.(.Z Z Z _.:.h h ^.].{.    <.[.}.m m m |.1.Z Z Z 2.3.m m }.[.<.  ",
"  4.5.8 8 6.*.P P P P P P -.8 8 8 5.4.    7.8.c c c '.U U U U U U !.9.c c 8.7.    0.a.h h h /.Z Z Z Z Z Z _.b.h h a.0.    c.d.m m m |.Z Z Z Z Z Z 2.e.m m d.c.  ",
"f.g.h.8 8 i.P P P P P P P O j.8 8 h.g.f.k.l.m.c c n.V U U U U U U U o.c c m.l.k.p.q.r.h h s.` Z Z Z Z Z Z Z t.h h r.q.p.u.v.w.m m x.@.Z Z Z Z Z Z Z y.m m w.v.u.",
"z.A.8 8 B.P P P P P P P P P P 8 8 8 A.z.C.D.c c c U U U U U U U U U U E.c c D.C.F.G.h h h Z Z Z Z Z Z Z Z Z Z H.h h G.F.I.J.m m m Z Z Z Z Z Z Z Z Z Z K.m m J.I.",
"L.M.8 8 B.P P N.O P P O.P P P 8 8 8 M.L.P.Q.c c c U U U R.U U V S.U U E.c c Q.P.T.U.h h h Z Z Z V.Z Z ` W.Z Z H.h h U.T.X...m m m Z Z Z Y.Z Z @.Z.Z Z K.m m ..X.",
"L.M.8 8 B.P N.8 `.P P j.-.=.P 8 8 8 M.L.P.Q.c c c U ).'.n.U U  +c S.U E.c c Q.P.T.U.h h h Z (./.s.Z Z E h W.Z H.h h U.T.X...m m m Z 1.|.x.Z Z K m Z.Z K.m m ..X.",
"z.A.8 8 B..+&.8 `.P P j.8 Q P 8 8 8 A.z.C.D.c c c U T c n.U U  +c ~.++E.c c D.C.F.G.h h h Z Y h s.Z Z E h :.@+H.h h G.F.I.J.m m m Z +.m x.Z Z K m 3.#+K.m m J.I.",
"f.g.h.8 t 8 8 8 `.P P j.8 8 t 8 8 h.g.f.k.l.m.c c x c c n.U U  +c c c x c m.l.k.p.q.r.h h D h h s.Z Z E h h h D h r.q.p.u.v.w.m m J m m x.Z Z K m m m J m w.v.u.",
"  4.5.8 8 8 8 8 `.P P j.8 8 8 8 8 5.4.    7.8.c c c c c n.U U  +c c c c c 8.7.    0.a.h h h h h s.Z Z E h h h h h a.0.    c.d.m m m m m x.Z Z K m m m m m d.c.  ",
"  #.$.%.8 8 8 8 `.P P j.8 8 8 8 %.$.#.    ;.>.,.c c c c n.U U  +c c c c ,.>.;.    {.].^.h h h h s.Z Z E h h h h ^.].{.    <.[.}.m m m m x.Z Z K m m m m }.[.<.  ",
"    M N 8 8 8 8 `.P P j.8 8 8 8 N M         R S c c c c n.U U  +c c c c S R         W X h h h h s.Z Z E h h h h X W          ...m m m m x.Z Z K m m m m .. .    ",
"      o p q 8 8 O.N.N.r 8 8 q p o             u v w c c z S.S.R.c c w v u             A B C h h F W.W.V.h h C B A             G H I m m L Z.Z.Y.m m I H G       ",
"        5 6 7 8 8 8 8 8 8 7 6 5                 0 a b c c c c c c b a 0                 e f g h h h h h h g f e                 j k l m m m m m m l k j         ",
"          , ' ) ! ~ ~ ! ) ' ,                     { ] ^ / ( ( / ^ ] {                     _ : < [ } } [ < : _                     | 1 2 3 4 4 3 2 1 |           ",
"              . + @ @ + .                             # $ % % $ #                             & * = = * &                             - ; > > ; -               "};
