/* XPM */
static char * EXTNAVEDITT_xpm[] = {
"80 20 233 2",
"  	c None",
". 	c #2A67A6",
"+ 	c #2A629B",
"@ 	c #285D92",
"# 	c #244E78",
"$ 	c #254A70",
"% 	c #23476A",
"& 	c #0C72EA",
"* 	c #1167D3",
"= 	c #115FC1",
"- 	c #2766A6",
"; 	c #27609B",
"> 	c #255B92",
", 	c #2565A6",
"' 	c #175089",
") 	c #0E4F92",
"! 	c #0956A2",
"~ 	c #0859AB",
"{ 	c #214C78",
"] 	c #183E64",
"^ 	c #123D6A",
"/ 	c #0F4174",
"( 	c #0E447B",
"_ 	c #046DE8",
": 	c #0444B1",
"< 	c #0043C2",
"[ 	c #004FD0",
"} 	c #0058C1",
"| 	c #2263A6",
"1 	c #134E89",
"2 	c #0A4D91",
"3 	c #0653A1",
"4 	c #0457AC",
"5 	c #195796",
"6 	c #084F98",
"7 	c #0968C8",
"8 	c #0A75E1",
"9 	c #19436D",
"0 	c #0D3D6E",
"a 	c #0E4E8F",
"b 	c #0F579F",
"c 	c #0352CA",
"d 	c #0043BB",
"e 	c #0072F5",
"f 	c #008CFF",
"g 	c #165596",
"h 	c #044D99",
"i 	c #0566CA",
"j 	c #0674E4",
"k 	c #14508D",
"l 	c #095AAC",
"m 	c #0A72DB",
"n 	c #163E67",
"o 	c #0F457C",
"p 	c #0F549B",
"q 	c #0046BA",
"r 	c #0058D2",
"s 	c #0086FF",
"t 	c #104E8E",
"u 	c #0558AD",
"v 	c #0671DE",
"w 	c #185491",
"x 	c #0960B7",
"y 	c #18406A",
"z 	c #0F4983",
"A 	c #014CC0",
"B 	c #0064E2",
"C 	c #145291",
"D 	c #055EB8",
"E 	c #2564A4",
"F 	c #095098",
"G 	c #0A72DC",
"H 	c #214B77",
"I 	c #0E3E6E",
"J 	c #0F559C",
"K 	c #076AE6",
"L 	c #0046BC",
"M 	c #0087FC",
"N 	c #2263A5",
"O 	c #064E99",
"P 	c #0671DF",
"Q 	c #154F8B",
"R 	c #096ACC",
"S 	c #2F87E0",
"T 	c #4E96DE",
"U 	c #3B8DDF",
"V 	c #0E77E1",
"W 	c #163E65",
"X 	c #0F5091",
"Y 	c #2967A5",
"Z 	c #3B72A9",
"` 	c #306BA6",
" .	c #1259A0",
"..	c #0444B2",
"+.	c #0077F7",
"@.	c #2A9DFC",
"#.	c #4CADFC",
"$.	c #34A3FC",
"%.	c #058EFF",
"&.	c #114D8B",
"*.	c #0669CE",
"=.	c #3C91E9",
"-.	c #57A1EC",
";.	c #4496EA",
">.	c #0E78E5",
",.	c #2C6AA9",
"'.	c #0D5196",
").	c #0A74E0",
"!.	c #C6D0D7",
"~.	c #E6DFD4",
"{.	c #D4D6D5",
"].	c #6BA5DE",
"^.	c #26507A",
"/.	c #113F6D",
"(.	c #0F569E",
"_.	c #7D9AB5",
":.	c #8FA5B8",
"<.	c #849EB6",
"[.	c #4E7FAD",
"}.	c #0D77EF",
"|.	c #0047C2",
"1.	c #008BFF",
"2.	c #48ABFC",
"3.	c #D0E8F8",
"4.	c #F6FAF9",
"5.	c #DEEFF9",
"6.	c #6BBBFA",
"7.	c #2969AA",
"8.	c #094F96",
"9.	c #0673E2",
"0.	c #56A1EC",
"a.	c #E1EEFA",
"b.	c #FDFEFE",
"c.	c #EAF3FC",
"d.	c #8ABCF0",
"e.	c #286098",
"f.	c #095AAB",
"g.	c #2280E0",
"h.	c #DCDAD5",
"i.	c #EFE3D3",
"j.	c #E3DED4",
"k.	c #23496F",
"l.	c #0F457B",
"m.	c #1F61A2",
"n.	c #8CA4B8",
"o.	c #8DA3B6",
"p.	c #89A1B6",
"q.	c #3D74AA",
"r.	c #1063CF",
"s.	c #0058DE",
"t.	c #1B98FE",
"u.	c #EDF4F8",
"v.	c #FFFFFA",
"w.	c #F2F9FA",
"x.	c #4CACFA",
"y.	c #255E98",
"z.	c #0659AC",
"A.	c #2485E7",
"B.	c #FAFCFD",
"C.	c #FFFFFF",
"D.	c #F7FBFE",
"E.	c #64A8EC",
"F.	c #265A8E",
"G.	c #095FB7",
"H.	c #2783DF",
"I.	c #EEE3D3",
"J.	c #7AABDB",
"K.	c #224568",
"L.	c #0E4883",
"M.	c #8EA3B6",
"N.	c #8EA4B6",
"O.	c #507FAC",
"P.	c #1059BB",
"Q.	c #0063D2",
"R.	c #209AFE",
"S.	c #FEFFFA",
"T.	c #FEFEFA",
"U.	c #7CC3FC",
"V.	c #23588E",
"W.	c #2585E7",
"X.	c #82B9F1",
"Y.	c #2683DF",
"Z.	c #78AADB",
"`.	c #8EA4B7",
" +	c #7AC2FB",
".+	c #1E7FE0",
"++	c #CED4D7",
"@+	c #DEDCD5",
"#+	c #3E8EDF",
"$+	c #1C5FA2",
"%+	c #839FB7",
"&+	c #88A0B6",
"*+	c #326DA7",
"=+	c #1696FE",
"-+	c #D9ECF8",
";+	c #EDF6FA",
">+	c #39A4FC",
",+	c #2183E7",
"'+	c #EEF5FC",
")+	c #F2F8FD",
"!+	c #4F9CEA",
"~+	c #368BE0",
"{+	c #A5C0D8",
"]+	c #D7D8D6",
"^+	c #B6C8D7",
"/+	c #4692DE",
"(+	c #2E6BA7",
"_+	c #698EB1",
":+	c #86A0B7",
"<+	c #7394B3",
"[+	c #356FA8",
"}+	c #30A0FC",
"|+	c #ACD9FA",
"1+	c #E0F0F8",
"2+	c #C0E1F9",
"3+	c #42A9FC",
"4+	c #4898EA",
"5+	c #B8D7F7",
"6+	c #F3F8FC",
"7+	c #CDE3F8",
"8+	c #58A1EB",
"9+	c #157AE1",
"0+	c #3D8EDF",
"a+	c #1D7FE0",
"b+	c #175CA1",
"c+	c #326DA8",
"d+	c #1E60A3",
"e+	c #0C91FE",
"f+	c #36A3FC",
"g+	c #1795FD",
"h+	c #167DE5",
"i+	c #4D9BEA",
"j+	c #2786E6",
"              . + @ @ + .                             # $ % % $ #                             & * = = * &                             - ; > > ; -               ",
"          , ' ) ! ~ ~ ! ) ' ,                     { ] ^ / ( ( / ^ ] {                     _ : < [ } } [ < : _                     | 1 2 3 4 4 3 2 1 |           ",
"        5 6 7 8 8 8 8 8 8 7 6 5                 9 0 a b b b b b b a 0 9                 c d e f f f f f f e d c                 g h i j j j j j j i h g         ",
"      k l m 8 8 8 8 8 8 8 8 m l k             n o p b b b b b b b b p o n             q r s f f f f f f f f s r q             t u v j j j j j j j j v u t       ",
"    w x 8 8 8 8 8 8 8 8 8 8 8 8 x w         y z b b b b b b b b b b b b z y         A B f f f f f f f f f f f f B A         C D j j j j j j j j j j j j D C     ",
"  E F G 8 8 8 8 8 8 8 8 8 8 8 8 G F E     H I J b b b b b b b b b b b b J I H     K L M f f f f f f f f f f f f M L K     N O P j j j j j j j j j j j j P O N   ",
"  Q R 8 8 8 8 8 S T U V 8 8 8 8 8 R Q     W X b b b b b Y Z `  .b b b b b X W     ..+.f f f f f @.#.$.%.f f f f f +...    &.*.j j j j j =.-.;.>.j j j j j *.&.  ",
",.'.).8 8 8 8 T !.~.{.].8 8 8 8 8 ).'.,.^./.(.b b b b Z _.:.<.[.b b b b b (./.^.}.|.1.f f f f 2.3.4.5.6.f f f f f 1.|.}.7.8.9.j j j j 0.a.b.c.d.j j j j j 9.8.7.",
"e.f.8 8 8 8 g.h.i.i.i.j.T 8 8 8 8 8 f.e.k.l.b b b b m.n.o.o.o.p.q.b b b b b l.k.r.s.f f f f t.u.v.v.v.w.x.f f f f f s.r.y.z.j j j j A.B.C.C.C.D.E.j j j j j z.y.",
"F.G.8 8 8 8 H.i.i.i.i.I.J.8 8 8 8 8 G.F.K.L.b b b b m.M.o.o.o.N.O.b b b b b L.K.P.Q.f f f f R.S.v.v.v.T.U.f f f f f Q.P.V.D j j j j W.C.C.C.C.C.X.j j j j j D V.",
"F.G.8 8 8 8 Y.I.i.i.i.I.Z.8 8 8 8 8 G.F.K.L.b b b b m.`.o.o.o.N.O.b b b b b L.K.P.Q.f f f f R.T.v.v.v.T. +f f f f f Q.P.V.D j j j j W.C.C.C.C.C.X.j j j j j D V.",
"e.f.8 8 8 8 .+++i.i.i.@+#+8 8 8 8 8 f.e.k.l.b b b b $+%+o.o.o.&+*+b b b b b l.k.r.s.f f f f =+-+v.v.v.;+>+f f f f f s.r.y.z.j j j j ,+'+C.C.C.)+!+j j j j j z.y.",
",.'.).8 8 8 8 ~+{+]+^+/+8 8 8 8 8 ).'.,.^./.(.b b b b (+_+:+<+[+b b b b b (./.^.}.|.1.f f f f }+|+1+2+3+f f f f f 1.|.}.7.8.9.j j j j 4+5+6+7+8+j j j j j 9.8.7.",
"  Q R 8 8 8 8 8 9+0+a+8 8 8 8 8 8 R Q     W X b b b b b b+c+d+b b b b b b X W     ..+.f f f f f e+f+g+f f f f f f +...    &.*.j j j j j h+i+j+j j j j j j *.&.  ",
"  E F G 8 8 8 8 8 8 8 8 8 8 8 8 G F E     H I J b b b b b b b b b b b b J I H     K L M f f f f f f f f f f f f M L K     N O P j j j j j j j j j j j j P O N   ",
"    w x 8 8 8 8 8 8 8 8 8 8 8 8 x w         y z b b b b b b b b b b b b z y         A B f f f f f f f f f f f f B A         C D j j j j j j j j j j j j D C     ",
"      k l m 8 8 8 8 8 8 8 8 m l k             n o p b b b b b b b b p o n             q r s f f f f f f f f s r q             t u v j j j j j j j j v u t       ",
"        5 6 7 8 8 8 8 8 8 7 6 5                 9 0 a b b b b b b a 0 9                 c d e f f f f f f e d c                 g h i j j j j j j i h g         ",
"          , ' ) ! ~ ~ ! ) ' ,                     { ] ^ / ( ( / ^ ] {                     _ : < [ } } [ < : _                     | 1 2 3 4 4 3 2 1 |           ",
"              . + @ @ + .                             # $ % % $ #                             & * = = * &                             - ; > > ; -               "};
