/* XPM */
static char * EXTNAVSEARCHL_xpm[] = {
"128 30 212 2",
"  	c None",
". 	c #3975B2",
"+ 	c #2F5780",
"@ 	c #198CFF",
"# 	c #3774B3",
"$ 	c #3272B5",
"% 	c #2164AA",
"& 	c #134E8A",
"* 	c #0C3C6D",
"= 	c #06315C",
"- 	c #06294D",
"; 	c #295481",
"> 	c #204C7B",
", 	c #153C65",
"' 	c #103152",
") 	c #0E2A46",
"! 	c #0C243C",
"~ 	c #0B85FF",
"{ 	c #006BF6",
"] 	c #003FB8",
"^ 	c #001D80",
"/ 	c #070E50",
"( 	c #00003E",
"_ 	c #2E70B5",
": 	c #0F4C8B",
"< 	c #05396E",
"[ 	c #032E58",
"} 	c #02264B",
"| 	c #2A6DB2",
"1 	c #053769",
"2 	c #07427D",
"3 	c #07539F",
"4 	c #065DB4",
"5 	c #096ACC",
"6 	c #0A72DC",
"7 	c #5A6692",
"8 	c #6B84B4",
"9 	c #7B92C1",
"0 	c #8C92C3",
"a 	c #7B7DB6",
"b 	c #245180",
"c 	c #0C2D4F",
"d 	c #0D355E",
"e 	c #0B3E73",
"f 	c #0E4A86",
"g 	c #0E5193",
"h 	c #0F559D",
"i 	c #878787",
"j 	c #999999",
"k 	c #A6A6A6",
"l 	c #9E9E9E",
"m 	c #007DFF",
"n 	c #001676",
"o 	c #002A9B",
"p 	c #004ED1",
"q 	c #007BFF",
"r 	c #0185FF",
"s 	c #334593",
"t 	c #5473C3",
"u 	c #7384D3",
"v 	c #6373C3",
"w 	c #266CB3",
"x 	c #053E7A",
"y 	c #05509D",
"z 	c #066BD2",
"A 	c #0671DF",
"B 	c #175797",
"C 	c #064C92",
"D 	c #0564C5",
"E 	c #0A75E1",
"F 	c #8EAEC9",
"G 	c #ABE0F4",
"H 	c #ABEAFF",
"I 	c #8DB6D9",
"J 	c #18436E",
"K 	c #0D2F53",
"L 	c #0F579F",
"M 	c #7A7B7B",
"N 	c #BBBBBB",
"O 	c #DBDBDB",
"P 	c #E1E1E1",
"Q 	c #C2C2C2",
"R 	c #003EC5",
"S 	c #0071FF",
"T 	c #008CFF",
"U 	c #0088FF",
"V 	c #242C84",
"W 	c #84A7E2",
"X 	c #B2FFFF",
"Y 	c #93C8F7",
"Z 	c #6363C3",
"` 	c #145597",
" .	c #0674E4",
"..	c #0D4276",
"+.	c #054485",
"@.	c #0864C1",
"#.	c #7689AC",
"$.	c #E0EAEA",
"%.	c #EAFFFF",
"&.	c #C1F3FF",
"*.	c #A2E1FF",
"=.	c #95D3FA",
"-.	c #2B6FB5",
";.	c #113557",
">.	c #EBEBEB",
",.	c #FAFAFA",
"'.	c #D2D2D2",
").	c #00288D",
"!.	c #0038AC",
"~.	c #7275AE",
"{.	c #FFFFFF",
"].	c #D3FFFF",
"^.	c #A3F9FF",
"/.	c #93F1FF",
"(.	c #0A4076",
"_.	c #085098",
":.	c #E0F4FF",
"<.	c #A6D4F4",
"[.	c #79B7F4",
"}.	c #6DABED",
"|.	c #B4E6FF",
"1.	c #103357",
"2.	c #F2F2F2",
"3.	c #B2B2B2",
"4.	c #B5B5B5",
"5.	c #CCCCCC",
"6.	c #E4E4E4",
"7.	c #B2F1FF",
"8.	c #63C3FF",
"9.	c #4AB2FF",
"0.	c #8CE2FF",
"a.	c #C3FFFF",
"b.	c #5473B2",
"c.	c #063C72",
"d.	c #054F99",
"e.	c #A4D1E3",
"f.	c #D4FFFF",
"g.	c #D4EAF4",
"h.	c #84C0F4",
"i.	c #CAFFFF",
"j.	c #B6D4EA",
"k.	c #585A94",
"l.	c #909090",
"m.	c #F5F5F5",
"n.	c #4F54AD",
"o.	c #F1FFFF",
"p.	c #73D3FF",
"q.	c #63D3FF",
"r.	c #E2FFFF",
"s.	c #05498E",
"t.	c #ABE0FF",
"u.	c #0D3B68",
"v.	c #8493E2",
"w.	c #96C7E1",
"x.	c #C5C5C5",
"y.	c #E0FFFF",
"z.	c #0656A5",
"A.	c #0058F4",
"B.	c #3774B4",
"C.	c #0874E1",
"D.	c #B6CCD6",
"E.	c #0F549A",
"F.	c #F7F7F7",
"G.	c #54C3FF",
"H.	c #0671DD",
"I.	c #F4FFFF",
"J.	c #FCFCFC",
"K.	c #0C457E",
"L.	c #0E4F90",
"M.	c #000D62",
"N.	c #0568CC",
"O.	c #9595B6",
"P.	c #6384D3",
"Q.	c #7E84C1",
"R.	c #FF8F1C",
"S.	c #FFAA37",
"T.	c #FFB660",
"U.	c #D4C0B6",
"V.	c #4C517B",
"W.	c #6E7298",
"X.	c #6A6A6A",
"Y.	c #FF8400",
"Z.	c #FFB200",
"`.	c #FFC333",
" +	c #F1D3C3",
".+	c #FBA840",
"++	c #FF8F28",
"@+	c #CA6A1C",
"#+	c #614631",
"$+	c #6471A2",
"%+	c #E24500",
"&+	c #150500",
"*+	c #151573",
"=+	c #7373D3",
"-+	c #EA7311",
";+	c #9C5916",
">+	c #7B6A65",
",+	c #FF5400",
"'+	c #A32400",
")+	c #634545",
"!+	c #6373D3",
"~+	c #7B6A58",
"{+	c #FFA300",
"]+	c #A17B48",
"^+	c #A65B03",
"/+	c #889595",
"(+	c #833500",
"_+	c #404040",
":+	c #5C4E4A",
"<+	c #000000",
"[+	c #241505",
"}+	c #135496",
"                        . . . . . . . .                                                 + + + + + + + +                                                 @ @ @ @ @ @ @ @                                                 # # # # # # # #                         ",
"                  . $ % & * = - - = * & % $ .                                     + ; > , ' ) ! ! ) ' , > ; +                                     @ ~ { ] ^ / ( ( / ^ ] { ~ @                                     # _ % : < [ } } [ < : % _ #                   ",
"              . | & 1 2 3 4 5 6 6 5 7 8 9 0 a | .                             + b , c d e f g h h g i j k k l b +                             @ m ] n o p { q r r q s t u u v m @                             # w : 1 x y 4 z A A z 4 s t u u v #               ",
"            $ B < C D E E E E E 7 F G H H H G I a $                         ; J K * : L L L L L M N O P P P O Q j ;                         ~ p ^ R S T T U T T V W X X X X X Y Z ~                         _ ` < C D  . . . . . .V W X X X X X Y Z             ",
"          | ..+.@.E E E E E E #.$.%.&.*.=.=.*.H G a -.                    b ;.d : L L L L L L l >.,.>.O '.'.O P O l b                     m ).!.{ T T T T T T ~.{.{.].^././.^.X X v m                     w (.+.D  . . . . . . .~.{.{.].^././.^.X X v           ",
"        | (._.6 E E E E E E a :.{.{.<.[.}.}.[.Y H |.#.|                 b 1.* h L L L L L L j 2.{.{.'.N 3.4.N 5.P 6.j b                 m ).R r T T T T T T t {.{.{.7.8.9.9.8.0.X a.b.m                 w c.d.A  . . . . . . .t {.{.{.7.8.9.9.8.0.X a.b.        ",
"      _ (._.E E E E E E E ~.e.f.%.g.h.h.[.Y G G |.i.j.k._             ; 1.e L L L L L L L l.'.m.,.>.Q Q N 5.O O 6.2.O M ;             r ).p T T T T T T T n.^.o.{.o.p.q.8.0.X X a.r.&.V r             -.c.d. . . . . . . . .n.^.o.{.o.p.q.8.0.X X a.r.&.V       ",
"    . & s.E E E E E E E E 0 H t.=.h.h.Y G &.i.i.i.i.i.#.f .         + , u.L L L L L L L L 3.P O '.Q Q 5.O >.2.2.2.2.2.j , +         @ !.] U T T T T T T T v.X X /.p.p.0.X f.r.r.r.r.r.b.!.@         # f s. . . . . . . . . .v.X X /.p.p.0.X f.r.r.r.r.r.b.#     ",
"    % < 5 E E E E E E E a w.H h.}.[.Y |.i.f.i.i.i.i.f.F a %         > K g L L L L L L L j x.P Q 3.N 5.6.2.m.2.2.2.2.m.Q j >         { ^ q T T T T T T T Z =.X p.9.8.0.a.y.o.r.r.r.r.o.w.Z {         % < z  . . . . . . . .Z =.X p.9.8.0.a.y.o.r.r.r.r.o.w.Z     ",
"  . ..z.E E E E E E E E a e.H }.}.h.|.i.f.f.f.f.f.i.f.e.#....     + ;...L L L L L L L L j 5.P 4.3.Q 6.2.m.m.m.m.m.2.m.'.j ;.+     @ ).A.U T T T T T T T Z *.X 9.9.p.a.y.o.o.o.o.o.r.o.|.b.).@     B.(.z. . . . . . . . . .Z *.X 9.9.p.a.y.o.o.o.o.o.r.o.|.b.B.  ",
"  | 1 6 E E E E E E E C.a e.*.}.[.<.i.i.f.y.%.%.y.f.f.D.#.1 |     b c E.L L L L L L L L j 5.O 3.N '.2.2.m.F.,.,.F.m.m.'.j c b     q n r T T T T T T T T Z *.^.9.G.^.y.r.o.{.{.{.{.o.o.|.b.n q     w 1 H. . . . . . . . . .Z *.^.9.G.^.y.r.o.{.{.{.{.o.o.|.b.w   ",
". B C E E E E E E E E C.a w.H [.h.|.i.i.f.%.I.I.%.f.f.F a s.B . + J u.L L L L L L L L L j x.P N Q 6.2.2.m.,.J.J.,.m.m.Q j u.J + @ p R T T T T T T T T T Z =.X G.p.a.r.r.o.{.{.{.{.o.o.w.Z R p @ # ` s. . . . . . . . . . .Z =.X G.p.a.r.r.o.{.{.{.{.o.o.w.Z ` # ",
". ..4 E E E E E E E E E C.0 H h.Y &.i.i.f.%.I.{.I.%.f.#.E 4 ... + ;.K.L L L L L L L L L L 3.P Q 5.>.2.2.m.,.J.{.J.,.m.k h K.;.+ @ ).A.T T T T T T T T T T W X p.0.].r.r.o.{.{.{.{.{.o.8 U A.).@ # e 4  . . . . . . . . . . .W X p.0.].r.r.o.{.{.{.{.{.o.8 4 c.# ",
". = 5 E E E E E E E E E E ~.e.*.Y &.i.i.f.y.%.I.{.{.g.7 E 5 = . + ) L.L L L L L L L L L L l.'.O 5.>.2.2.m.F.,.J.{.{.>.M L L.) + @ M.S T T T T T T T T T T n.^.^.0.].r.r.o.{.{.{.{.{.o.V T S M.@ # = N. . . . . . . . . . . .n.^.^.0.].r.r.o.{.{.{.{.{.o.V N.= # ",
". - 6 E E E E E E E E E E O.9 H t.&.i.i.i.f.f.y.{.{.O.E E 6 - . + ! h L L L L L L L L L L 3.k P O >.2.2.2.m.m.F.{.{.k L L h ! + @ ( r T T T T T T T T T T 0 P.X X ].r.r.r.o.o.{.{.{.Q.T T U ( @ # } A  . . . . . . . . . . .0 P.X X ].r.r.r.o.o.{.{.{.Q. .A } # ",
". - 6 E E E E E E E E E E $.O.9 &.i.f.i.i.i.f.f.f.0 k.C.E 6 - . + ! h L L L L L L L L L L >.3.k >.2.m.2.2.2.m.m.m.3.M L L h ! + @ ( r T T T T T T T T T T {.0 P.].r.o.r.r.r.o.o.o.W V T T r ( @ # } A  . . . . . . . . . . .{.0 P.].r.o.r.r.r.o.o.o.W V  .A } # ",
". = 5 E E E E E E E R.S.T.U.i V.W.e.&.i.f.i.i.j.0 E E E E 5 = . + ) L.L L L L L L L 3.x.5.'.j X.l.'.>.2.m.2.2.O k L L L L L.) + @ M.S T T T T T T T Y.Z.`. +M / k.t.].r.o.r.r.&.u T U T T S M.@ # = N. . . . . . . . .Y.Z.`. +M / k.t.].r.o.r.r.&.u  . . .N.= # ",
". ..4 E E E E E E R.S..+++@+#+H.E V.$+0 F 0 Q.a C.E E E E 4 ... + ;.K.L L L L L L 3.x.x.4.l.X.h L X.l.k 3.3.l j L L L L L K.;.+ @ ).A.T T T T T T Y.Z.Z.Y.%+&+T T *+n.u W v.=+Z T T T T T A.).@ # e 4  . . . . . . .Y.Z.Z.Y.%+&+C. .*+n.u W v.=+Z  . . . .4 e # ",
". B s.E E E E E R.S..+++-+;+>+E E E E A C.E E E E E E E E s.B . + J u.L L L L L 3.x.x.4.l M i L L L L L L L L L L L L L L u.J + @ p R T T T T T Y.Z.Z.Y.,+'+)+T T T T T T T T T T T T T T R p @ # ` s. . . . . . .Y.Z.Z.Y.,+'+)+ . . . . . . . . . . . . .s.` # ",
"  | 1 6 E E E R.S..+++-+;+>+Q.E E E E E E E E E E E E E 6 1 |     b c E.L L L 3.x.x.4.l M i l L L L L L L L L L L L L L E.c b     q n r T T T Y.Z.Z.Y.,+'+)+!+T T T T T T T T T T T T T r n q     w 1 H. . . . .Y.Z.Z.Y.,+'+)+!+ . . . . . . . . . . . .H.1 w   ",
"  . ..z.E E R.S..+++-+;+>+Q.C.E E E E E E E E E E E E E z....     + ;...L L 3.x.x.4.l M i l L L L L L L L L L L L L L L ..;.+     @ ).A.T T Y.Z.Z.Y.,+'+)+!+T T T T T T T T T T T T T T A.).@     B.(.z. . . .Y.Z.Z.Y.,+'+)+!+ . . . . . . . . . . . . .z.x #   ",
"    % < 5 R.S..+++-+;+~+Q.C.E E E E E E E E E E E E E 5 < %         > K g 3.x.x.4.l M i l L L L L L L L L L L L L L L g K >         { ^ q Y.Z.Z.Y.,+'+#+!+T T T T T T T T T T T T T T q ^ {         % < z  .Y.Z.Z.Y.,+'+#+!+ . . . . . . . . . . . . .z < %     ",
"    . & s.S..+++-+;+>+Q.E E E E E E E E E E E E E E E s.& .         + , u.Q x.4.l M i l L L L L L L L L L L L L L L L u., +         @ !.] {+Z.Y.,+'+#+!+T T T T T T T T T T T T T T T ] !.@         # f s. .{+Z.Y.,+'+#+!+ . . . . . . . . . . . . . .s.f #     ",
"      _ (.]+R.-+;+~+Q.E E E E E E E E E E E E E E E _.(._             ; 1.j 4.l M i l L L L L L L L L L L L L L L L e 1.;             r ).^+Y.,+'+#+!+T T T T T T T T T T T T T T T p ).r             -.c.d.^+Y.,+'+#+!+ . . . . . . . . . . . . . .d.c.-.      ",
"        | /+;+;+~+Q.E E E E E E E E E E E E E E 6 _.(.|                 b k M M i l L L L L L L L L L L L L L L h * 1.b                 q /+(+'+#+!+T T T T T T T T T T T T T T U R ).q                 w c./+(+'+#+!+ . . . . . . . . . . . . .A d.c.w         ",
"          -._+:+a E E E E E E E E E E E E E E @.+...|                     b :+X.l L L L L L L L L L L L L L L : d ;.b                     q <+[+v T T T T T T T T T T T T T T S !.).q                     w (.<+[+v  . . . . . . . . . . . . .D +.(.w           ",
"            $ B c.C D E E E E E E E E E E D C < B $                         ; J K * : L L L L L L L L L L : * K J ;                         ~ p ^ R S T T T T T T T T T T S R ^ p ~                         _ }+< C D  . . . . . . . . . .D C < ` _             ",
"              . | & 1 2 3 4 5 6 6 z 4 3 2 1 & | .                             + b , c d e f g h h g f e d c , b +                             @ m ] n o p { q r r q { p o n ] q @                             # w : 1 x y 4 z A A z 4 y x 1 : w #               ",
"                  . $ % & * = - - = * & % $ .                                     + ; > , ' ) ! ! ) ' , > ; +                                     @ ~ { ] ^ M.( ( / ^ ] { ~ @                                     # _ % : < [ } } [ < : % -.#                   ",
"                        . . . . . . . .                                                 + + + + + + + +                                                 @ @ @ @ @ @ @ @                                                 # # # # # # # #                         "};
