/* XPM */
static char * EXTNAVNEXTL_xpm[] = {
"128 30 192 2",
"  	c None",
". 	c #3975B2",
"+ 	c #2F5780",
"@ 	c #198CFF",
"# 	c #3774B3",
"$ 	c #3171B5",
"% 	c #2264AA",
"& 	c #134E8B",
"* 	c #0B3C6E",
"= 	c #073159",
"- 	c #05294C",
"; 	c #295482",
"> 	c #1F4B7A",
", 	c #153D66",
"' 	c #103152",
") 	c #0D2944",
"! 	c #0C243B",
"~ 	c #0A84FF",
"{ 	c #006BF2",
"] 	c #0041B6",
"^ 	c #001F7F",
"/ 	c #000A56",
"( 	c #00003D",
"_ 	c #2E70B6",
": 	c #1E63AA",
"< 	c #0F4C8A",
"[ 	c #073A6D",
"} 	c #032E58",
"| 	c #01264A",
"1 	c #2A6DB2",
"2 	c #144F8C",
"3 	c #073869",
"4 	c #07427D",
"5 	c #08529E",
"6 	c #0961B9",
"7 	c #096CCF",
"8 	c #0A72DD",
"9 	c #245180",
"0 	c #163D66",
"a 	c #0D2E4F",
"b 	c #0D355C",
"c 	c #0E3F72",
"d 	c #0E4984",
"e 	c #0E5193",
"f 	c #0F559D",
"g 	c #007DFF",
"h 	c #0043B8",
"i 	c #001775",
"j 	c #002A9B",
"k 	c #0049DB",
"l 	c #0066FF",
"m 	c #007BFF",
"n 	c #0086FF",
"o 	c #276CB3",
"p 	c #104D8B",
"q 	c #033668",
"r 	c #033F7C",
"s 	c #04509E",
"t 	c #055FBA",
"u 	c #056AD1",
"v 	c #0671DF",
"w 	c #3272B4",
"x 	c #175797",
"y 	c #073A6F",
"z 	c #074D94",
"A 	c #0966C5",
"B 	c #0A75E1",
"C 	c #2A5581",
"D 	c #18436D",
"E 	c #0D2F53",
"F 	c #0D3C6C",
"G 	c #0E4D8C",
"H 	c #0F579F",
"I 	c #0B86FF",
"J 	c #0052CB",
"K 	c #001B80",
"L 	c #003FC7",
"M 	c #006FFF",
"N 	c #008CFF",
"O 	c #2F71B5",
"P 	c #145597",
"Q 	c #03386E",
"R 	c #034B94",
"S 	c #0565C7",
"T 	c #0674E4",
"U 	c #2A6DB3",
"V 	c #0D4277",
"W 	c #074483",
"X 	c #0964C1",
"Y 	c #113558",
"Z 	c #0D3660",
"` 	c #0E4B8A",
" .	c #002A90",
"..	c #002EA7",
"+.	c #006BFF",
"@.	c #276CB4",
"#.	c #0A4077",
"$.	c #034283",
"%.	c #0563C3",
"&.	c #0B4075",
"*.	c #084F96",
"=.	c #0A73DE",
"-.	c #103357",
";.	c #0E3D6D",
">.	c #00268C",
",.	c #0043CB",
"'.	c #0088FF",
").	c #073D74",
"!.	c #044D97",
"~.	c #0672E0",
"{.	c #2E70B4",
"].	c #08519A",
"^.	c #275381",
"/.	c #0E3F70",
"(.	c #0482FF",
"_.	c #0047D3",
":.	c #2B6FB5",
"<.	c #083D74",
"[.	c #044F9A",
"}.	c #124C87",
"|.	c #074A8D",
"1.	c #143B63",
"2.	c #0D3A67",
"3.	c #003DAE",
"4.	c #0039BA",
"5.	c #0E4A87",
"6.	c #03488D",
"7.	c #2366AB",
"8.	c #063A70",
"9.	c #9CBFE1",
"0.	c #204D7B",
"a.	c #5B85AD",
"b.	c #006FF3",
"c.	c #001B82",
"d.	c #99D1FC",
"e.	c #2065AB",
"f.	c #02386F",
"g.	c #9BC7F1",
"h.	c #3975B3",
"i.	c #0857A5",
"j.	c #FDF1E1",
"k.	c #113557",
"l.	c #0E4377",
"m.	c #8DA3B6",
"n.	c #002A8E",
"o.	c #0052E8",
"p.	c #FFFFFA",
"q.	c #3774B4",
"r.	c #093F76",
"s.	c #0455A6",
"t.	c #286CB1",
"u.	c #06376A",
"v.	c #0A71D9",
"w.	c #23517F",
"x.	c #0C2D4F",
"y.	c #0F549A",
"z.	c #001577",
"A.	c #0084FF",
"B.	c #256BB2",
"C.	c #023569",
"D.	c #0670DB",
"E.	c #074B90",
"F.	c #18436E",
"G.	c #0D3B69",
"H.	c #0052CD",
"I.	c #003BC0",
"J.	c #145598",
"K.	c #034990",
"L.	c #0D4175",
"M.	c #085CB0",
"N.	c #0E467E",
"O.	c #00288C",
"P.	c #005CFD",
"Q.	c #093E74",
"R.	c #045AB1",
"S.	c #08335F",
"T.	c #0969CB",
"U.	c #0E2B48",
"V.	c #0E4F90",
"W.	c #000D62",
"X.	c #0075FF",
"Y.	c #04305D",
"Z.	c #0568CC",
"`.	c #06294D",
" +	c #0C243C",
".+	c #0F559C",
"++	c #00003F",
"@+	c #02264B",
"#+	c #6BA7E1",
"$+	c #4175A8",
"%+	c #66BAFD",
"&+	c #6AACED",
"                        . . . . . . . .                                                 + + + + + + + +                                                 @ @ @ @ @ @ @ @                                                 # # # # # # # #                         ",
"                  . $ % & * = - - = * & % $ .                                     + ; > , ' ) ! ! ) ' , > ; +                                     @ ~ { ] ^ / ( ( / ^ ] { ~ @                                     # _ : < [ } | | } [ < : _ #                   ",
"              . 1 2 3 4 5 6 7 8 8 7 6 5 4 3 2 1 .                             + 9 0 a b c d e f f e d c b a 0 9 +                             @ g h i j k l m n n m l k j i h g @                             # o p q r s t u v v u t s r q p o #               ",
"            w x y z A B B B B B B B B B B A z y x w                         C D E F G H H H H H H H H H H G F E D C                         I J K L M N N N N N N N N N N M L K J I                         O P Q R S T T T T T T T T T T S R Q P O             ",
"          U V W X B B B B B B B B B B B B B B X W V U                     9 Y Z ` H H H H H H H H H H H H H H ` Z Y 9                     g  ...+.N N N N N N N N N N N N N N +... .g                     @.#.$.%.T T T T T T T T T T T T T T %.$.#.@.          ",
"        1 &.*.=.B B B B B B B B B B B B B B B B =.*.&.1                 9 -.;.f H H H H H H H H H H H H H H H H f ;.-.9                 g >.,.'.N N N N N N N N N N N N N N N N '.,.>.g                 o ).!.~.T T T T T T T T T T T T T T T T ~.!.).o         ",
"      {.&.].B B B B B B B B B B B B B B B B B B B B ].&.{.            ^.-./.H H H H H H H H H H H H H H H H H H H H /.-.^.            (.>._.N N N N N N N N N N N N N N N N N N N N _.>.(.            :.<.[.T T T T T T T T T T T T T T T T T T T T [.<.:.      ",
"    . }.|.B B B B B B B B B B B B B B B B B B B B B B |.}..         + 1.2.H H H H H H H H H H H H H H H H H H H H H H 2.1.+         @ 3.4.N N N N N N N N N N N N N N N N N N N N N N 4.3.@         # 5.6.T T T T T T T T T T T T T T T T T T T T T T 6.5.#     ",
"    7.8.7 B B B B B B B B B 9.B B B B B B B B B B B B 7 8.7.        0.E e H H H H H H H H H a.H H H H H H H H H H H H e E 0.        b.c.m N N N N N N N N N d.N N N N N N N N N N N N m c.b.        e.f.u T T T T T T T T T g.T T T T T T T T T T T T u f.e.    ",
"  h.V i.B B B B B B B B B B j.9.B B B B B B B B B B B B i.V h.    + k.l.H H H H H H H H H H m.a.H H H H H H H H H H H H l.k.+     @ n.o.N N N N N N N N N N p.d.N N N N N N N N N N N N o.n.@     q.r.s.T T T T T T T T T T p.g.T T T T T T T T T T T T s.r.q.  ",
"  t.u.v.B B B B B B B B B B j.j.9.B B B B B B B B B B B v.u.t.    w.x.y.H H H H H H H H H H m.m.a.H H H H H H H H H H H y.x.w.    m z.A.N N N N N N N N N N p.p.d.N N N N N N N N N N N A.z.m     B.C.D.T T T T T T T T T T p.p.g.T T T T T T T T T T T D.C.B.  ",
". x E.B B B B B B B B B B B j.j.j.9.B B B B B B B B B B B E.x . + F.G.H H H H H H H H H H H m.m.m.a.H H H H H H H H H H H G.F.+ @ H.I.N N N N N N N N N N N p.p.p.d.N N N N N N N N N N N I.H.@ # J.K.T T T T T T T T T T T p.p.p.g.T T T T T T T T T T T K.J.# ",
". L.M.B B B B B B B B B B B j.j.j.j.9.B B B B B B B B B B M.L.. + k.N.H H H H H H H H H H H m.m.m.m.a.H H H H H H H H H H N.k.+ @ O.P.N N N N N N N N N N N p.p.p.p.d.N N N N N N N N N N P.O.@ # Q.R.T T T T T T T T T T T p.p.p.p.g.T T T T T T T T T T R.Q.# ",
". S.T.B B B B B B B B B B B j.j.j.j.j.9.B B B B B B B B B T.S.. + U.V.H H H H H H H H H H H m.m.m.m.m.a.H H H H H H H H H V.U.+ @ W.X.N N N N N N N N N N N p.p.p.p.p.d.N N N N N N N N N X.W.@ # Y.Z.T T T T T T T T T T T p.p.p.p.p.g.T T T T T T T T T Z.Y.# ",
". `.8 B B B B B B B B B B B j.j.j.j.j.j.9.B B B B B B B B 8 `.. +  +.+H H H H H H H H H H H m.m.m.m.m.m.a.H H H H H H H H .+ ++ @ ++n N N N N N N N N N N N p.p.p.p.p.p.d.N N N N N N N N n ++@ # @+v T T T T T T T T T T T p.p.p.p.p.p.g.T T T T T T T T v @+# ",
". `.8 B B B B B B B B B B B j.j.j.j.j.j.j.#+B B B B B B B 8 `.. +  +.+H H H H H H H H H H H m.m.m.m.m.m.m.$+H H H H H H H .+ ++ @ ++n N N N N N N N N N N N p.p.p.p.p.p.p.%+N N N N N N N n ++@ # @+v T T T T T T T T T T T p.p.p.p.p.p.p.&+T T T T T T T v @+# ",
". S.T.B B B B B B B B B B B j.j.j.j.j.j.9.B B B B B B B B T.S.. + U.V.H H H H H H H H H H H m.m.m.m.m.m.a.H H H H H H H H V.U.+ @ W.X.N N N N N N N N N N N p.p.p.p.p.p.d.N N N N N N N N X.W.@ # Y.Z.T T T T T T T T T T T p.p.p.p.p.p.g.T T T T T T T T Z.Y.# ",
". L.M.B B B B B B B B B B B j.j.j.j.j.9.B B B B B B B B B M.L.. + k.N.H H H H H H H H H H H m.m.m.m.m.a.H H H H H H H H H N.k.+ @ O.P.N N N N N N N N N N N p.p.p.p.p.d.N N N N N N N N N P.O.@ # Q.R.T T T T T T T T T T T p.p.p.p.p.g.T T T T T T T T T R.Q.# ",
". x E.B B B B B B B B B B B j.j.j.j.9.B B B B B B B B B B E.x . + F.G.H H H H H H H H H H H m.m.m.m.a.H H H H H H H H H H G.F.+ @ H.I.N N N N N N N N N N N p.p.p.p.d.N N N N N N N N N N I.H.@ # J.K.T T T T T T T T T T T p.p.p.p.g.T T T T T T T T T T K.J.# ",
"  t.u.v.B B B B B B B B B B j.j.j.9.B B B B B B B B B B v.u.t.    w.x.y.H H H H H H H H H H m.m.m.a.H H H H H H H H H H y.x.w.    m z.A.N N N N N N N N N N p.p.p.d.N N N N N N N N N N A.z.m     B.C.D.T T T T T T T T T T p.p.p.g.T T T T T T T T T T D.C.B.  ",
"  h.V i.B B B B B B B B B B j.j.9.B B B B B B B B B B B i.V h.    + k.l.H H H H H H H H H H m.m.a.H H H H H H H H H H H l.k.+     @ n.o.N N N N N N N N N N p.p.d.N N N N N N N N N N N o.n.@     q.r.s.T T T T T T T T T T p.p.g.T T T T T T T T T T T s.r.q.  ",
"    7.8.7 B B B B B B B B B j.9.B B B B B B B B B B B 7 8.7.        0.E e H H H H H H H H H m.a.H H H H H H H H H H H e E 0.        b.c.m N N N N N N N N N p.d.N N N N N N N N N N N m c.b.        e.f.u T T T T T T T T T p.g.T T T T T T T T T T T u f.e.    ",
"    . }.|.B B B B B B B B B 9.B B B B B B B B B B B B |.}..         + 1.2.H H H H H H H H H a.H H H H H H H H H H H H 2.1.+         @ 3.4.N N N N N N N N N d.N N N N N N N N N N N N 4.3.@         # 5.6.T T T T T T T T T g.T T T T T T T T T T T T 6.5.#     ",
"      {.&.].B B B B B B B B B B B B B B B B B B B B ].&.{.            ^.-./.H H H H H H H H H H H H H H H H H H H H /.-.^.            (.>._.N N N N N N N N N N N N N N N N N N N N _.>.(.            :.<.[.T T T T T T T T T T T T T T T T T T T T [.<.:.      ",
"        1 &.*.=.B B B B B B B B B B B B B B B B =.*.&.1                 9 -.;.f H H H H H H H H H H H H H H H H f ;.-.9                 g >.,.'.N N N N N N N N N N N N N N N N '.,.>.g                 o ).!.~.T T T T T T T T T T T T T T T T ~.!.).o         ",
"          U V W X B B B B B B B B B B B B B B X W V U                     9 Y Z ` H H H H H H H H H H H H H H ` Z Y 9                     g  ...+.N N N N N N N N N N N N N N +... .g                     @.#.$.%.T T T T T T T T T T T T T T %.$.#.@.          ",
"            w x y z A B B B B B B B B B B A z y x w                         C D E F G H H H H H H H H H H G F E D C                         I J K L M N N N N N N N N N N M L K J I                         O P Q R S T T T T T T T T T T S R Q P O             ",
"              . 1 2 3 4 5 6 7 8 8 7 6 5 4 3 2 1 .                             + 9 0 a b c d e f f e d c b a 0 9 +                             @ g h i j k l m n n m l k j i h g @                             # o p q r s t u v v u t s r q p o #               ",
"                  . $ % & * = - - = * & % $ .                                     + ; > , ' ) ! ! ) ' , > ; +                                     @ ~ { ] ^ / ( ( / ^ ] { ~ @                                     # _ : < [ } | | } [ < : _ #                   ",
"                        . . . . . . . .                                                 + + + + + + + +                                                 @ @ @ @ @ @ @ @                                                 # # # # # # # #                         "};
