/* XPM */
static char * EXTNAVNEXTT_xpm[] = {
"80 20 198 2",
"  	c None",
". 	c #2A67A6",
"+ 	c #2A629B",
"@ 	c #285D92",
"# 	c #244E78",
"$ 	c #254A70",
"% 	c #23476A",
"& 	c #0C71EA",
"* 	c #1167D3",
"= 	c #115FC1",
"- 	c #2766A6",
"; 	c #27609B",
"> 	c #255B92",
", 	c #2565A6",
"' 	c #174F89",
") 	c #0E4F92",
"! 	c #0A55A1",
"~ 	c #0859AB",
"{ 	c #214C78",
"] 	c #183E64",
"^ 	c #123D6A",
"/ 	c #0F4174",
"( 	c #0E447B",
"_ 	c #046DE9",
": 	c #0444B1",
"< 	c #0043C3",
"[ 	c #004FD0",
"} 	c #0058C1",
"| 	c #2263A6",
"1 	c #144E89",
"2 	c #0A4D91",
"3 	c #0653A1",
"4 	c #0457AC",
"5 	c #195796",
"6 	c #084F98",
"7 	c #0968C8",
"8 	c #0A75E1",
"9 	c #19436D",
"0 	c #0D3D6E",
"a 	c #0E4E8F",
"b 	c #0F579F",
"c 	c #0352C9",
"d 	c #0043BC",
"e 	c #0073F6",
"f 	c #008CFF",
"g 	c #165596",
"h 	c #044D98",
"i 	c #0567CB",
"j 	c #0674E4",
"k 	c #14508E",
"l 	c #095AAC",
"m 	c #0A71DA",
"n 	c #163E67",
"o 	c #0F457C",
"p 	c #0F549B",
"q 	c #0046BA",
"r 	c #0058D2",
"s 	c #0085FF",
"t 	c #104E8E",
"u 	c #0558AD",
"v 	c #0670DD",
"w 	c #175491",
"x 	c #0960B7",
"y 	c #18406A",
"z 	c #0F4983",
"A 	c #014CC0",
"B 	c #0063E0",
"C 	c #145291",
"D 	c #055EB8",
"E 	c #2564A4",
"F 	c #095098",
"G 	c #0A72DC",
"H 	c #2281E1",
"I 	c #2E88E1",
"J 	c #214B77",
"K 	c #0E3E6E",
"L 	c #0F559C",
"M 	c #1C5FA1",
"N 	c #2262A2",
"O 	c #076BE6",
"P 	c #0046BC",
"Q 	c #0087FC",
"R 	c #1A98FE",
"S 	c #269DFE",
"T 	c #2263A5",
"U 	c #054E99",
"V 	c #0671DF",
"W 	c #1F82E6",
"X 	c #2B89E7",
"Y 	c #154F8B",
"Z 	c #096ACC",
"` 	c #4794E1",
" .	c #D5DCE1",
"..	c #2884E1",
"+.	c #163E65",
"@.	c #0F5091",
"#.	c #2E6AA5",
"$.	c #7896B2",
"%.	c #1F61A2",
"&.	c #0444B2",
"*.	c #0077F7",
"=.	c #40A9FE",
"-.	c #D4ECFB",
";.	c #209AFE",
">.	c #114D8B",
",.	c #0569CE",
"'.	c #4497EA",
").	c #D5E8F6",
"!.	c #2585E7",
"~.	c #2C6AA9",
"{.	c #0D5196",
"].	c #0A74E0",
"^.	c #FDF1E1",
"/.	c #B2CBE1",
"(.	c #26507A",
"_.	c #113F6D",
":.	c #0F569E",
"<.	c #8DA3B6",
"[.	c #668CAF",
"}.	c #0D77EF",
"|.	c #0046C0",
"1.	c #008BFF",
"2.	c #FFFFFA",
"3.	c #B0DCFC",
"4.	c #2969AA",
"5.	c #094F96",
"6.	c #0673E2",
"7.	c #B2D4F3",
"8.	c #286098",
"9.	c #095AAB",
"0.	c #BCD0E1",
"a.	c #23496F",
"b.	c #0F457B",
"c.	c #6C8FB0",
"d.	c #1063CF",
"e.	c #0058DE",
"f.	c #BBE0FB",
"g.	c #255E98",
"h.	c #0558AC",
"i.	c #BCDAF4",
"j.	c #265A8E",
"k.	c #095FB7",
"l.	c #F9EFE1",
"m.	c #A4C3E1",
"n.	c #167BE1",
"o.	c #224568",
"p.	c #0E4883",
"q.	c #8BA2B6",
"r.	c #5F87AE",
"s.	c #155BA0",
"t.	c #1059BB",
"u.	c #0063D2",
"v.	c #FBFDFA",
"w.	c #A2D5FC",
"x.	c #0D92FF",
"y.	c #23588E",
"z.	c #A4CCF2",
"A.	c #127BE5",
"B.	c #EDE9E1",
"C.	c #4D97E1",
"D.	c #859EB4",
"E.	c #326CA5",
"F.	c #EEF7FA",
"G.	c #46ACFE",
"H.	c #EEF6F8",
"I.	c #4B9AEA",
"J.	c #F5EDE1",
"K.	c #7CAFE1",
"L.	c #1078E1",
"M.	c #89A0B5",
"N.	c #4A7BAA",
"O.	c #1259A0",
"P.	c #F6FBFA",
"Q.	c #77C2FD",
"R.	c #068FFF",
"S.	c #F7FAF9",
"T.	c #7AB5EE",
"U.	c #0C77E5",
"V.	c #F1EBE1",
"W.	c #879FB5",
"X.	c #F2F9FA",
"Y.	c #F2F8F9",
"Z.	c #8CB7E1",
"`.	c #5280AB",
" +	c #88C9FC",
".+	c #8BBEF0",
"++	c #3F90E1",
"@+	c #96BCE1",
"#+	c #2A67A4",
"$+	c #5883AC",
"%+	c #37A5FE",
"&+	c #93CEFC",
"*+	c #3C92E9",
"=+	c #95C4F1",
"-+	c #1C7EE1",
";+	c #185DA1",
">+	c #1395FF",
",+	c #197EE6",
"              . + @ @ + .                             # $ % % $ #                             & * = = * &                             - ; > > ; -               ",
"          , ' ) ! ~ ~ ! ) ' ,                     { ] ^ / ( ( / ^ ] {                     _ : < [ } } [ < : _                     | 1 2 3 4 4 3 2 1 |           ",
"        5 6 7 8 8 8 8 8 8 7 6 5                 9 0 a b b b b b b a 0 9                 c d e f f f f f f e d c                 g h i j j j j j j i h g         ",
"      k l m 8 8 8 8 8 8 8 8 m l k             n o p b b b b b b b b p o n             q r s f f f f f f f f s r q             t u v j j j j j j j j v u t       ",
"    w x 8 8 8 8 8 8 8 8 8 8 8 8 x w         y z b b b b b b b b b b b b z y         A B f f f f f f f f f f f f B A         C D j j j j j j j j j j j j D C     ",
"  E F G 8 8 8 8 H I 8 8 8 8 8 8 G F E     J K L b b b b M N b b b b b b L K J     O P Q f f f f R S f f f f f f Q P O     T U V j j j j W X j j j j j j V U T   ",
"  Y Z 8 8 8 8 8 `  ...8 8 8 8 8 8 Z Y     +.@.b b b b b #.$.%.b b b b b b @.+.    &.*.f f f f f =.-.;.f f f f f f *.&.    >.,.j j j j j '.).!.j j j j j j ,.>.  ",
"~.{.].8 8 8 8 8 ` ^./.H 8 8 8 8 8 ].{.~.(._.:.b b b b b #.<.[.M b b b b b :._.(.}.|.1.f f f f f =.2.3.R f f f f f 1.|.}.4.5.6.j j j j j '.2.7.W j j j j j 6.5.4.",
"8.9.8 8 8 8 8 8 ` ^.^.0.H 8 8 8 8 8 9.8.a.b.b b b b b b #.<.<.c.M b b b b b b.a.d.e.f f f f f f =.2.2.f.R f f f f f e.d.g.h.j j j j j j '.2.2.i.W j j j j j h.g.",
"j.k.8 8 8 8 8 8 ` ^.^.l.m.n.8 8 8 8 k.j.o.p.b b b b b b #.<.<.q.r.s.b b b b p.o.t.u.f f f f f f =.2.2.v.w.x.f f f f u.t.y.D j j j j j j '.2.2.v.z.A.j j j j D y.",
"j.k.8 8 8 8 8 8 ` ^.^.^.B.C.8 8 8 8 k.j.o.p.b b b b b b #.<.<.<.D.E.b b b b p.o.t.u.f f f f f f =.2.2.2.F.G.f f f f u.t.y.D j j j j j j '.2.2.2.H.I.j j j j D y.",
"8.9.8 8 8 8 8 8 ` ^.^.J.K.L.8 8 8 8 9.8.a.b.b b b b b b #.<.<.M.N.O.b b b b b.a.d.e.f f f f f f =.2.2.P.Q.R.f f f f e.d.g.h.j j j j j j '.2.2.S.T.U.j j j j h.g.",
"~.{.].8 8 8 8 8 ` ^.V.K.8 8 8 8 8 ].{.~.(._.:.b b b b b #.<.W.N.b b b b b :._.(.}.|.1.f f f f f =.2.X.Q.f f f f f 1.|.}.4.5.6.j j j j j '.2.Y.T.j j j j j 6.5.4.",
"  Y Z 8 8 8 8 8 ` ^.Z.n.8 8 8 8 8 Z Y     +.@.b b b b b #.<.`.s.b b b b b @.+.    &.*.f f f f f =.2. +x.f f f f f *.&.    >.,.j j j j j '.2..+A.j j j j j ,.>.  ",
"  E F G 8 8 8 8 ++@+8 8 8 8 8 8 G F E     J K L b b b b #+$+b b b b b b L K J     O P Q f f f f %+&+f f f f f f Q P O     T U V j j j j *+=+j j j j j j V U T   ",
"    w x 8 8 8 8 n.-+8 8 8 8 8 8 x w         y z b b b b s.;+b b b b b b z y         A B f f f f x.>+f f f f f f B A         C D j j j j A.,+j j j j j j D C     ",
"      k l m 8 8 8 8 8 8 8 8 m l k             n o p b b b b b b b b p o n             q r s f f f f f f f f s r q             t u v j j j j j j j j v u t       ",
"        5 6 7 8 8 8 8 8 8 7 6 5                 9 0 a b b b b b b a 0 9                 c d e f f f f f f e d c                 g h i j j j j j j i h g         ",
"          , ' ) ! ~ ~ ! ) ' ,                     { ] ^ / ( ( / ^ ] {                     _ : < [ } } [ < : _                     | 1 2 3 4 4 3 2 1 |           ",
"              . + @ @ + .                             # $ % % $ #                             & * = = * &                             - ; > > ; -               "};
