/* XPM */
static char * EXTNAVGOTOBOOKMARKL_xpm[] = {
"128 30 225 2",
"  	c None",
". 	c #3975B2",
"+ 	c #2F5780",
"@ 	c #198CFF",
"# 	c #3774B3",
"$ 	c #3272B5",
"% 	c #2165AB",
"& 	c #134E8A",
"* 	c #0D3C6D",
"= 	c #06315C",
"- 	c #06294D",
"; 	c #295481",
"> 	c #204C7B",
", 	c #153C65",
"' 	c #103152",
") 	c #0E2A46",
"! 	c #0C243C",
"~ 	c #0B85FF",
"{ 	c #006BF8",
"] 	c #0042B7",
"^ 	c #001C80",
"/ 	c #000A56",
"( 	c #00003E",
"_ 	c #2E70B5",
": 	c #0F4C8B",
"< 	c #05396F",
"[ 	c #042C54",
"} 	c #02264B",
"| 	c #2A6EB3",
"1 	c #053769",
"2 	c #07427D",
"3 	c #07529F",
"4 	c #0760BA",
"5 	c #096ACC",
"6 	c #0A72DC",
"7 	c #245180",
"8 	c #0D2E51",
"9 	c #0D365E",
"0 	c #0E3F71",
"a 	c #0E4A86",
"b 	c #0E5092",
"c 	c #0F559D",
"d 	c #007CFF",
"e 	c #001676",
"f 	c #002A9B",
"g 	c #004BD0",
"h 	c #0185FF",
"i 	c #276CB3",
"j 	c #053E7A",
"k 	c #05509D",
"l 	c #066BD2",
"m 	c #0672E0",
"n 	c #97C8AF",
"o 	c #006500",
"p 	c #175797",
"q 	c #064C92",
"r 	c #0665C5",
"s 	c #0A75E1",
"t 	c #8E5500",
"u 	c #C6C6C6",
"v 	c #3F4245",
"w 	c #18436E",
"x 	c #0F579F",
"y 	c #6D7680",
"z 	c #B8E9D0",
"A 	c #1B8613",
"B 	c #003BC0",
"C 	c #0073FF",
"D 	c #008CFF",
"E 	c #AF7613",
"F 	c #0088FF",
"G 	c #C5F6DD",
"H 	c #379337",
"I 	c #145597",
"J 	c #0674E4",
"K 	c #BC8337",
"L 	c #005600",
"M 	c #0A3F76",
"N 	c #054484",
"O 	c #0863C0",
"P 	c #E1BE6F",
"Q 	c #C69239",
"R 	c #0D4276",
"S 	c #30363B",
"T 	c #113457",
"U 	c #B2BAC1",
"V 	c #ADB1B4",
"W 	c #136D13",
"X 	c #00288D",
"Y 	c #0036AB",
"Z 	c #F6E694",
"` 	c #377A37",
" .	c #F6E8A6",
"..	c #F0D185",
"+.	c #084F96",
"@.	c #F0F0EF",
"#.	c #424242",
"$.	c #FFFFFF",
"%.	c #F7F7F7",
"&.	c #1B7C15",
"*.	c #FDFDCE",
"=.	c #378937",
"-.	c #054E99",
";.	c #063C73",
">.	c #006D00",
",.	c #08519A",
"'.	c #42494F",
").	c #3C454E",
"!.	c #1B8E13",
"~.	c #FFFFE8",
"{.	c #FFFEA7",
"].	c #37A037",
"^.	c #FFFFF6",
"/.	c #FAF9B9",
"(.	c #0874E1",
"_.	c #138B02",
":.	c #F1E272",
"<.	c #05498E",
"[.	c #4A4A4A",
"}.	c #666666",
"|.	c #E7E7E7",
"1.	c #0D3B68",
"2.	c #35B12B",
"3.	c #FFFF8C",
"4.	c #43B62B",
"5.	c #FFFD9B",
"6.	c #007600",
"7.	c #238B0A",
"8.	c #F1E155",
"9.	c #C79609",
"0.	c #575757",
"a.	c #209A0F",
"b.	c #FFFE74",
"c.	c #EABB38",
"d.	c #52C434",
"e.	c #FFFD84",
"f.	c #F8C848",
"g.	c #0756A7",
"h.	c #F100F1",
"i.	c #058500",
"j.	c #339C17",
"k.	c #64D33C",
"l.	c #D8A614",
"m.	c #FF00FF",
"n.	c #787878",
"o.	c #0057F3",
"p.	c #FF13FF",
"q.	c #2AA915",
"r.	c #8FF95B",
"s.	c #FAC835",
"t.	c #3774B4",
"u.	c #FF37FF",
"v.	c #F5D839",
"w.	c #087B00",
"x.	c #F0B800",
"y.	c #0F549A",
"z.	c #8D9196",
"A.	c #9FA6AE",
"B.	c #74E347",
"C.	c #FCD91D",
"D.	c #0671DD",
"E.	c #FFE936",
"F.	c #129502",
"G.	c #985D00",
"H.	c #757E87",
"I.	c #B87E1A",
"J.	c #065CB1",
"K.	c #0C457E",
"L.	c #CECECE",
"M.	c #929BA4",
"N.	c #E4B423",
"O.	c #F7C305",
"P.	c #F2C728",
"Q.	c #F6D846",
"R.	c #F6D668",
"S.	c #F1E15D",
"T.	c #D6D6D6",
"U.	c #DEDEDE",
"V.	c #C4CDD6",
"W.	c #000D62",
"X.	c #FFE325",
"Y.	c #FFE847",
"Z.	c #FFF95B",
"`.	c #FFFD68",
" +	c #FFFF95",
".+	c #FFFF7C",
"++	c #0568CC",
"@+	c #FFE93C",
"#+	c #FFF83C",
"$+	c #FFF953",
"%+	c #8E4C00",
"&+	c #A77E1B",
"*+	c #F7CA15",
"=+	c #E9D955",
"-+	c #D9A836",
";+	c #FFF672",
">+	c #DFB24C",
",+	c #FFF949",
"'+	c #FAD659",
")+	c #976501",
"!+	c #B77F0B",
"~+	c #EBC45C",
"{+	c #A56B06",
"]+	c #666F79",
"^+	c #7D858C",
"/+	c #AF6D13",
"(+	c #BE891A",
"_+	c #FAC85D",
":+	c #BC7A37",
"<+	c #FFE75A",
"[+	c #FFE752",
"}+	c #E9C64A",
"|+	c #FFE86C",
"1+	c #A67411",
"2+	c #FFF17B",
"3+	c #9C6300",
"4+	c #BDC6CF",
"5+	c #B78724",
"6+	c #FFEE63",
"7+	c #C69A22",
"8+	c #A87406",
"9+	c #FFEE83",
"0+	c #FFF68B",
"a+	c #6D747B",
"b+	c #135496",
"                        . . . . . . . .                                                 + + + + + + + +                                                 @ @ @ @ @ @ @ @                                                 # # # # # # # #                         ",
"                  . $ % & * = - - = * & % $ .                                     + ; > , ' ) ! ! ) ' , > ; +                                     @ ~ { ] ^ / ( ( / ^ ] { ~ @                                     # _ % : < [ } } [ < : % _ #                   ",
"              . | & 1 2 3 4 5 6 6 5 4 3 2 1 & | .                             + 7 , 8 9 0 a b c c b a 0 9 8 , 7 +                             @ d ] e f g { d h h d { g f e ] d @                             # i : 1 j k 4 l m m l 4 k j 1 : i #               ",
"        n o $ p < q r s s s s t t s s s s r q < p $                     u v ; w 8 * : x x x x y y x x x x : * 8 w ;                     z A ~ g ^ B C D D D D E E D D F D C B ^ g ~                     G H _ I < q r J J J J K K J J J J r q < I _             ",
"        L L M N O s s s s s t P Q t s s s s s O N R |                   S S T 9 : x x x x x y U V y x x x x x : 9 T 7                   W W X Y { D D D D D E Z P E D D D D D { Y X d                   ` ` M N r J J J J J K  ...K J J J J J r N M i           ",
"        o L +.6 s s s s s s t @. .t s s s s s s 6 +.M |                 #.v * c x x x x x x y $.%.y x x x x x x c * T 7                 A &.g h D D D D D D E $.*.E D D D D D D F g X d                 H =.-.m J J J J J J K $.*.K J J J J J J m -.;.i         ",
"      _ o >.n s s s s o o n t *.Z t s s s s s s s s ,.M _             ; #.'.U x x x x ).).U y %.@.y x x x x x x x x 0 T ;             h A !.z D D D D A A z E ~.{.E D D D D D D D F g X h             | H ].G J J J J H H G K ^./.K J J J J J J J J -.;.|       ",
"    . & o >.L n s s (.L _.o n  .:.t t s s s s s s s s <.& .         + , #.[.).U x x x S }.#.u %.|.y y x x x x x x x x 1., +         @ Y A !.&.z D D D W 2.A z *.3.E E D D D D D D D D B Y @         # a H H =.G J J J ` 4.H G *.5.K K J J J J J J J J <.a #     ",
"    % < o o 6.L n s s o 7.7.o n 8.9.t s s s s s s s s 5 < %         > 8 #.#.0.S U x x ).}.}.#.u |.V y x x x x x x x x b 8 >         { ^ A A a.W z D D A 4.4.A z b.c.E D D D D D D D D d ^ {         % < H H ].` G J J H d.d.H G e.f.K J J J J J J J J l < %     ",
"  . R g.h.L i.6.o L o o j.k.7.o n l.t s s s s s s s s s g.R .     + T R m.S 0.0.).S ).).n.U }.#.u U y x x x x x x x x x R T +     @ X o.p.&.q.!.A W A A d.r.4.A z s.E D D D D D D D D D o.X @     t.M g.u.=.2.].H ` H H k.r.d.H G v.K J J J J J J J J J g.M t.  ",
"  i 1 6 h.o o i.i.w._.a.4.d.k.j.o x.t s s s s s s s s s 6 1 i     7 8 y.m.#.#.0.0.}.}.n.z.A.V n.#.u y x x x x x x x x x y.8 7     d e h p.A A q.q.q.2.4.k.B.r.d.A C.E D D D D D D D D D h e d     i 1 D.u.H H 2.2.2.4.d.B.r.r.k.H E.K J J J J J J J J J D.1 i   ",
". p q s h.n o L 6.i.F.a.q.4.k.4.L x.G.s s s s s s s s s s q p . + w 1.x m.u #.#.0.0.}.n.n.z.V z.#.u H.x x x x x x x x x x 1.w + @ g B D p.z A &.!.q.2.4.d.k.r.k.&.C.I.D D D D D D D D D D B g @ # I <.J u.G H =.].2.d.d.k.B.r.B.=.E.Q J J J J J J J J J J <.I # ",
". R J.s h.t n o o o o o a._.j.o n x.9.t t t t t t t s s s J.R . + T K.x m.n.u #.#.#.#.#.n.}.n.#.u L.M.y y y y y y y x x x K.T + @ X o.D p.E z A A A A A 4.2.d.A z C.N.E E E E E E E D D D o.X @ # M J.J u.K G H H H H H d.4.k.H G E.c.K K K K K K K J J J J.;.# ",
". = 5 s t P /.*././.Z o _._.o n x.O.P.v.Q.:.:.R.S.v.t s s 5 = . + ) b x y U %.%.%.%.@.#.}.}.#.u L.T.T.U.U.|.|.|.|.V.y x x b ) + @ W.C D E ..~.~.*.*./.!.2.j.A z C.X.Y.Z.`.3. +e..+Z.E D D C W.@ # = ++J K Z ^.^.~.~.*.H 4.4.H G @+#+$+`..+5.{. +3.`.K J J ++= # ",
". - 6 s (.%+&+.. .Z R.o _.o n x.x.*+v.=+R.:.:.S.-+t s s s 6 - . + ! c x x y M.|.%.@.|.#.}.#.u L.L.T.U.U.|.|.|.|.U y x x x c ! + @ ( h D D E Q {.~./.e.A 2.A z C.X.@+$+;+e. +3..+f.E D D D h ( @ # } D.J J K >+/.~./. +H d.H G E.E.,+`..+ +{.5.3.'+K J J J D.} # ",
". - 6 s s (.t )+Q R.Q.o o n x.x.*+v.Q.S.:.:.=+!+t s s s s 6 - . + ! c x x x y H.V |.U.#.#.u L.L.T.U.U.|.|.@.V.M.y x x x x c ! + @ ( h D D D E I.~+e.`.A A z C.X.@+$+`..+ +5.;+-+E D D D D h ( @ # } D.J J J K Q R. +.+H H G E.E.,+Z.b.3.{.{.e.-+K J J J J D.} # ",
". = 5 s s s (.(.%+{+N.P.x.x.O.*+P.Q.S.:.:.-+)+s s s s s s 5 = . + ) b x x x x x ]+^+u T.L.u L.T.T.U.|.|.|.U ^+x x x x x x b ) + @ W.C D D D D D /+(+Q.@+X.C.X.E.Y.`..+ + +_+(+F D D D D D C W.@ # = ++J J J J J :+Q <+,+E.@+E.,+Z.b.3.{.{.R.Q (.J J J J J ++= # ",
". R J.s s s s s (.t G.9.O.x.*+P.Q.S.:.:.(+t s s s s s s s J.R . + T K.x x x x x x y H.A.L.L.T.T.U.|.|.|.A.y x x x x x x x K.T + @ X o.D D D D D D E I.N.X.X.E.[+`..+3.3.-+E D D D D D D D o.X @ # M J.J J J J J J K Q s.E.E.,+Z.b.3. +5.}+K J J J J J J J J.;.# ",
". p q s s s s s s (.(.t P.*+P.v.8.:.:.S.t s s s s s s s s q p . + w 1.x x x x x x x x y T.T.T.U.|.|.|.|.y x x x x x x x x 1.w + @ g B D D D D D D D D E Y.E.Y.Z.b.3. +.+E D D D D D D D D B g @ # I <.J J J J J J J J K $+#+Z.`..+5.{.3.K J J J J J J J J <.I # ",
"  i 1 6 s s s s s s t -+*+P.v.S.:.:.R.8.l.t s s s s s s 6 1 i     7 8 y.x x x x x x y U T.T.U.|.|.|.|.|.U y x x x x x x y.8 7     d e h D D D D D D E '+E.Y.Z..+3. +e.b.f.E D D D D D D h e d     i 1 D.J J J J J J K |+,+$+`.3.5.{. +.+'+K J J J J J J D.1 i   ",
"  . R g.s s s s s s 1+v.P.v.S.}+=+@.8.Q.P.)+s s s s s s g.R .     + T R x x x x x x z.U.T.U.|.T.U.$.|.U.T.^+x x x x x x R T +     @ X o.D D D D D D Q Z.Y.Z..+|+b.$.b.`.Y.(+D D D D D D o.X @     t.M g.J J J J J J -+`.$+`.3.2+e.$.e.b.$+Q J J J J J J g.;.t.  ",
"    % < 5 s s s s t -+v.v.8.-+)+3+}+@.v.C.9.t s s s s 5 < %         > 8 b x x x x y U U.U.|.U H.^+4+$.U.U.M.y x x x x b 8 >         { ^ d D D D D E _+,+Z.b.'+I.(+|+$.$+,+N.E D D D D d ^ {         % < l J J J J K R.Z.`.e.|+Q Q 2+$.`.$+c.K J J J J l < %     ",
"    . & <.s s s s t }+v.8.-+t s s )+}+@.C.l.t s s s s <.& .         + , 1.x x x x y T.U.|.U y x x ^+4+$.U.U y x x x x 1., +         @ Y B D D D D E |+$+.+f.E D D 5+6+$.#+s.E D D D D B Y @         # a <.J J J J K 2+`.e.'+K J (.Q ;+$.,+Q.K J J J J <.a #     ",
"      _ M ,.s s t 7+Q.Q.7+t s s s s G.N.@.C.8+t s s ,.M _             ; T 0 x x y A.U.U.A.y x x x x H.U $.U.z.y x x 0 T ;             h X g D D E >+`.`.c.E D D D D I.Q.$.#+7+E D D g X h             | ;.-.J J K ~+b..+f.K J J J m Q [+$.,+-+K J J -.;.|       ",
"        | M +.6 G.~+=+7+t (.s s s s (.G.l.@.l.t 6 +.M |                 7 T * c H.U.|.A.y x x x x x x H.V $.U y c * T 7                 d X g h I.9+`.c.E D D D D D D I.s.$.s.E F g X d                 i ;.-.m Q 0+.+}+K J J J J J J Q v.$.Q.K m -.;.i         ",
"          | R N )+-+!+t (.s s s s s s (.t 9.9.t N R |                     7 T 9 ^+U M.y x x x x x x x x y M.A.a+9 T 7                     d X Y 5+_+-+/+D D D D D D D D E N.P.E f X d                     i M N Q R.c.K J J J J J J J J K c.s.K N M i           ",
"            $ p < t t s s s s s s s s s (.t t < p $                         ; w 8 a+a+x x x x x x x x x x a+a+8 w ;                         ~ g ^ E E D D D D D D D D D D E E ^ g ~                         _ b+< K :+J J J J J J J J J J K K < I _             ",
"              . | & 1 2 3 4 5 6 6 5 4 3 2 1 & | .                             + 7 , 8 9 0 a b c c b a 0 9 8 , 7 +                             @ d ] e f g { d h h d { g f e ] d @                             # i : 1 j k 4 l m m l 4 k j 1 : i #               ",
"                  . $ % & * = - - = * & % $ .                                     + ; > , ' ) ! ! ) ' , > ; +                                     @ ~ { ] ^ / ( ( / ^ ] { ~ @                                     # _ % : < [ } } [ < : % _ #                   ",
"                        . . . . . . . .                                                 + + + + + + + +                                                 @ @ @ @ @ @ @ @                                                 # # # # # # # #                         "};
