/* XPM */
static char * EXTNAVGOTOBOOKMARKT_xpm[] = {
"80 20 692 2",
"  	c None",
". 	c #2A67A6",
"+ 	c #2A629B",
"@ 	c #285D92",
"# 	c #254E78",
"$ 	c #254A70",
"% 	c #24476B",
"& 	c #0C71EB",
"* 	c #1167D3",
"= 	c #115FC2",
"- 	c #2866A7",
"; 	c #27609B",
"> 	c #265B91",
", 	c #2565A6",
"' 	c #164F89",
") 	c #0D4F92",
"! 	c #0954A1",
"~ 	c #0859AA",
"{ 	c #214B77",
"] 	c #183E65",
"^ 	c #123E6A",
"/ 	c #0F4275",
"( 	c #0E447B",
"_ 	c #046CE8",
": 	c #0444B1",
"< 	c #0044C1",
"[ 	c #0051CD",
"} 	c #0058C2",
"| 	c #2263A6",
"1 	c #154E89",
"2 	c #0B4D91",
"3 	c #0653A2",
"4 	c #0558AC",
"5 	c #65A275",
"6 	c #166837",
"7 	c #185796",
"8 	c #064E97",
"9 	c #0868C8",
"0 	c #0A75E1",
"a 	c #1572CE",
"b 	c #7E734F",
"c 	c #796A44",
"d 	c #195796",
"e 	c #949698",
"f 	c #3F4C59",
"g 	c #19436D",
"h 	c #0E3D6E",
"i 	c #0F4E8E",
"j 	c #0F579F",
"k 	c #175A9C",
"l 	c #647C95",
"m 	c #637B93",
"n 	c #81C091",
"o 	c #218054",
"p 	c #0351CC",
"q 	c #0042B9",
"r 	c #0074F4",
"s 	c #008CFF",
"t 	c #0F8AEB",
"u 	c #929369",
"v 	c #8E8A61",
"w 	c #008BFF",
"x 	c #96CDA6",
"y 	c #3E885F",
"z 	c #165596",
"A 	c #064E98",
"B 	c #0667C9",
"C 	c #0674E4",
"D 	c #1575D6",
"E 	c #9B9479",
"F 	c #999072",
"G 	c #006000",
"H 	c #025423",
"I 	c #0859AB",
"J 	c #0A71DA",
"K 	c #2B6DA9",
"L 	c #C8AB7B",
"M 	c #C59F51",
"N 	c #095AAB",
"O 	c #14508E",
"P 	c #3C3E40",
"Q 	c #2F3D4A",
"R 	c #0F559B",
"S 	c #265F97",
"T 	c #B8BDC2",
"U 	c #B4B8BC",
"V 	c #163E67",
"W 	c #187E13",
"X 	c #126A3E",
"Y 	c #005AD4",
"Z 	c #0085FE",
"` 	c #2C86C4",
" .	c #DFC690",
"..	c #DABD74",
"+.	c #005CD4",
"@.	c #0048BB",
"#.	c #378B37",
"$.	c #2B764D",
"%.	c #0659AE",
"&.	c #0671DE",
"*.	c #3378B9",
"=.	c #E4CCA1",
"-.	c #E2C686",
";.	c #3478B9",
">.	c #104E8D",
",.	c #126553",
"'.	c #19791D",
").	c #4997AE",
"!.	c #0872C5",
"~.	c #036900",
"{.	c #649558",
"].	c #D3C88E",
"^.	c #CEAF55",
"/.	c #46667A",
"(.	c #0960B7",
"_.	c #175492",
":.	c #32475D",
"<.	c #565B5F",
"[.	c #5F82A4",
"}.	c #145494",
"|.	c #41484F",
"1.	c #84898F",
"2.	c #CED1D3",
"3.	c #BDC0C4",
"4.	c #3A6591",
"5.	c #0F4984",
"6.	c #19416A",
"7.	c #0E787B",
"8.	c #359B33",
"9.	c #58B5CC",
"0.	c #038AE2",
"a.	c #1E8917",
"b.	c #83B772",
"c.	c #E2DAAA",
"d.	c #E1CB6A",
"e.	c #508293",
"f.	c #0065DF",
"g.	c #004CC0",
"h.	c #2C7A6E",
"i.	c #4FA853",
"j.	c #64B2CB",
"k.	c #0C77CE",
"l.	c #399535",
"m.	c #95C38A",
"n.	c #E7DEBB",
"o.	c #E4CE82",
"p.	c #597B95",
"q.	c #065EB8",
"r.	c #135190",
"s.	c #2463A4",
"t.	c #05523C",
"u.	c #006800",
"v.	c #1F7624",
"w.	c #4598CC",
"x.	c #0F7604",
"y.	c #1F8214",
"z.	c #85B681",
"A.	c #DABD3D",
"B.	c #87641E",
"C.	c #0A72DC",
"D.	c #095098",
"E.	c #214B76",
"F.	c #293A4D",
"G.	c #474748",
"H.	c #565C60",
"I.	c #5380AD",
"J.	c #4F5357",
"K.	c #606060",
"L.	c #AFAFAF",
"M.	c #C9CBCD",
"N.	c #6C7C8D",
"O.	c #0F559C",
"P.	c #0F3E6E",
"Q.	c #0768E8",
"R.	c #0E5551",
"S.	c #1C8A12",
"T.	c #3A943A",
"U.	c #4DB3EB",
"V.	c #2B991F",
"W.	c #3DA830",
"X.	c #9FD4A0",
"Y.	c #F0DC5E",
"Z.	c #A38437",
"`.	c #0087FC",
" +	c #0046BC",
".+	c #2363A4",
"++	c #206957",
"@+	c #379437",
"#+	c #559F5A",
"$+	c #56AAE1",
"%+	c #42A534",
"&+	c #51B543",
"*+	c #ADDFB0",
"=+	c #F5E070",
"-+	c #AF8D4F",
";+	c #0671DF",
">+	c #074F99",
",+	c #144F8B",
"'+	c #7C30D5",
")+	c #1F571E",
"!+	c #027B00",
"~+	c #026B00",
"{+	c #066E01",
"]+	c #228E11",
"^+	c #50BE2E",
"/+	c #20880F",
"(+	c #93A94E",
"_+	c #926F1F",
":+	c #096ACD",
"<+	c #163E65",
"[+	c #8624C0",
"}+	c #56385A",
"|+	c #545454",
"1+	c #44494E",
"2+	c #494E54",
"3+	c #686B6F",
"4+	c #9BA0A5",
"5+	c #646464",
"6+	c #A6A8A9",
"7+	c #748495",
"8+	c #0E5090",
"9+	c #0444B2",
"0+	c #803DFB",
"a+	c #3A7932",
"b+	c #229914",
"c+	c #1E8B14",
"d+	c #229019",
"e+	c #40B029",
"f+	c #76E34A",
"g+	c #3FAD29",
"h+	c #B0CA6C",
"i+	c #AC8F37",
"j+	c #0079FB",
"k+	c #124E8B",
"l+	c #834BDC",
"m+	c #50884E",
"n+	c #36A632",
"o+	c #369733",
"p+	c #3A9B33",
"q+	c #55BE3B",
"r+	c #80EC51",
"s+	c #52B93C",
"t+	c #BBD87D",
"u+	c #B4984D",
"v+	c #066ACE",
"w+	c #2B6AAA",
"x+	c #0C5197",
"y+	c #7E3AE8",
"z+	c #5D8267",
"A+	c #016500",
"B+	c #037E00",
"C+	c #118F03",
"D+	c #29A416",
"E+	c #4CBF2F",
"F+	c #4CBB2D",
"G+	c #5A7E00",
"H+	c #9A751C",
"I+	c #0A74E0",
"J+	c #26507A",
"K+	c #113F6D",
"L+	c #872BCE",
"M+	c #917191",
"N+	c #464646",
"O+	c #595959",
"P+	c #666666",
"Q+	c #7C7C7D",
"R+	c #979BA0",
"S+	c #95989B",
"T+	c #747474",
"U+	c #7B8998",
"V+	c #0F569E",
"W+	c #0D75F0",
"X+	c #0045C0",
"Y+	c #804EFF",
"Z+	c #79A17F",
"`+	c #1E8914",
" @	c #249E14",
".@	c #34B026",
"+@	c #4EC031",
"@@	c #71DF45",
"#@	c #70DE46",
"$@	c #6FA118",
"%@	c #B09536",
"&@	c #2969AA",
"*@	c #0A4F95",
"=@	c #8255F0",
"-@	c #8BB195",
";@	c #379534",
">@	c #36AA30",
",@	c #48BC30",
"'@	c #5ECE3A",
")@	c #7FEC4F",
"!@	c #7BE84C",
"~@	c #82AF37",
"{@	c #BAA14D",
"]@	c #0674E3",
"^@	c #286098",
"/@	c #085AAC",
"(@	c #6D49C1",
"_@	c #B28558",
":@	c #7AB06E",
"<@	c #53963E",
"[@	c #488C2E",
"}@	c #0E7D05",
"|@	c #188C06",
"1@	c #2C872A",
"2@	c #CCC04A",
"3@	c #D8A70F",
"4@	c #B08115",
"5@	c #AF8424",
"6@	c #B08224",
"7@	c #B0831A",
"8@	c #4F717F",
"9@	c #23496E",
"0@	c #6F3FBA",
"a@	c #A693AA",
"b@	c #9F9F9F",
"c@	c #7E7E7E",
"d@	c #757575",
"e@	c #5A5A5A",
"f@	c #686868",
"g@	c #6B6B6B",
"h@	c #CCCCCC",
"i@	c #B0B4B9",
"j@	c #93999F",
"k@	c #959BA2",
"l@	c #969CA2",
"m@	c #9198A0",
"n@	c #416C98",
"o@	c #1063CF",
"p@	c #0055DA",
"q@	c #7260D8",
"r@	c #CB9F70",
"s@	c #8EC789",
"t@	c #66AE51",
"u@	c #5CA845",
"v@	c #2D9E1F",
"w@	c #38AD26",
"x@	c #49AA43",
"y@	c #E0E169",
"z@	c #EDC72B",
"A@	c #CAA22D",
"B@	c #CAA43B",
"C@	c #CAA33B",
"D@	c #CAA332",
"E@	c #578D99",
"F@	c #265E99",
"G@	c #0659AC",
"H@	c #7762D0",
"I@	c #D5AF87",
"J@	c #9DD0A0",
"K@	c #7AB772",
"L@	c #71B265",
"M@	c #42A934",
"N@	c #49B930",
"O@	c #60B85B",
"P@	c #E7F07E",
"Q@	c #F1D340",
"R@	c #D2AC4B",
"S@	c #D2AC58",
"T@	c #D2AC59",
"U@	c #D2AC4F",
"V@	c #5F8599",
"W@	c #255E98",
"X@	c #265A8E",
"Y@	c #095FB7",
"Z@	c #1F6FBC",
"`@	c #A17E3E",
" #	c #E2CA80",
".#	c #F7EDA8",
"+#	c #D8D172",
"@#	c #0A7801",
"##	c #20821E",
"$#	c #A9B550",
"%#	c #F3BE06",
"&#	c #F4D02D",
"*#	c #F2D854",
"=#	c #F2E16F",
"-#	c #F2DF67",
";#	c #CFA531",
">#	c #224568",
",#	c #0E4884",
"'#	c #1F5C9A",
")#	c #8592A0",
"!#	c #D7D9DC",
"~#	c #F5F5F5",
"{#	c #D7D7D7",
"]#	c #B9B9B9",
"^#	c #D1D1D1",
"/#	c #DADADA",
"(#	c #E1E1E1",
"_#	c #E7E7E7",
":#	c #AEB5BB",
"<#	c #1059BB",
"[#	c #0062D2",
"}#	c #1D88D8",
"|#	c #B89B56",
"1#	c #F1E3A1",
"2#	c #FDFDD4",
"3#	c #E0ED90",
"4#	c #289D1F",
"5#	c #3DA036",
"6#	c #C1D66E",
"7#	c #FEE229",
"8#	c #FFF14C",
"9#	c #FFFA72",
"0#	c #FFFF8E",
"a#	c #FFFF85",
"b#	c #E8C548",
"c#	c #24588E",
"d#	c #055EB7",
"e#	c #2477C7",
"f#	c #C4A96C",
"g#	c #F5E9B2",
"h#	c #FEFEDC",
"i#	c #E5F0A2",
"j#	c #54B04F",
"k#	c #CBE483",
"l#	c #FFEF3D",
"m#	c #FFFB5C",
"n#	c #FFFF81",
"o#	c #FFFE9F",
"p#	c #FFFE95",
"q#	c #ECCF5D",
"r#	c #65664B",
"s#	c #C29032",
"t#	c #D7BD38",
"u#	c #508307",
"v#	c #B8B949",
"w#	c #F2BD05",
"x#	c #F5CF28",
"y#	c #F4DB4C",
"z#	c #F1E26B",
"A#	c #E3CA57",
"B#	c #9B9049",
"C#	c #416883",
"D#	c #516F8D",
"E#	c #A7ABAF",
"F#	c #C5C6C6",
"G#	c #727272",
"H#	c #BDBDBD",
"I#	c #D0D0D0",
"J#	c #D9D9D9",
"K#	c #D1D5D8",
"L#	c #8197AC",
"M#	c #366492",
"N#	c #788165",
"O#	c #DEB94F",
"P#	c #E5E156",
"Q#	c #67A61D",
"R#	c #CDDA68",
"S#	c #FEE227",
"T#	c #FFEF4A",
"U#	c #FFFD6C",
"V#	c #FFFF8D",
"W#	c #F9E77C",
"X#	c #B2B16B",
"Y#	c #49839D",
"Z#	c #2476C7",
"`#	c #848472",
" $	c #E6C563",
".$	c #EAE86C",
"+$	c #7AB23A",
"@$	c #D6E77D",
"#$	c #FFEC3A",
"$$	c #FFFA57",
"%$	c #FFFD79",
"&$	c #FFFE9E",
"*$	c #F8EC8B",
"=$	c #B5B06E",
"-$	c #527A9C",
";$	c #0975E1",
">$	c #59635E",
",$	c #AF780A",
"'$	c #E5B30B",
")$	c #F2BD04",
"!$	c #F5C81B",
"~$	c #F4D746",
"{$	c #F1E166",
"]$	c #E0C455",
"^$	c #907738",
"/$	c #1C73C5",
"($	c #466A8D",
"_$	c #8D939A",
":$	c #C0C2C5",
"<$	c #CECECE",
"[$	c #D5D5D5",
"}$	c #DFDFDF",
"|$	c #E6E6E6",
"1$	c #CFD1D4",
"2$	c #76899C",
"3$	c #1D5D9D",
"4$	c #688076",
"5$	c #CB9924",
"6$	c #F6D428",
"7$	c #FEE226",
"8$	c #FFE740",
"9$	c #FFF966",
"0$	c #FFFF83",
"a$	c #F2E272",
"b$	c #AA9653",
"c$	c #188BE2",
"d$	c #717D7F",
"e$	c #D7AA40",
"f$	c #FDE139",
"g$	c #FFF74E",
"h$	c #FFFD75",
"i$	c #FFFF90",
"j$	c #F8EB84",
"k$	c #B19E64",
"l$	c #1E78CE",
"m$	c #386D98",
"n$	c #CD9C1A",
"o$	c #F5CA21",
"p$	c #F3D63C",
"q$	c #F1E266",
"r$	c #F2DF6D",
"s$	c #CCA830",
"t$	c #396E97",
"u$	c #316497",
"v$	c #ADB1B6",
"w$	c #DEDEDE",
"x$	c #B6BABE",
"y$	c #3D89B3",
"z$	c #E4BF36",
"A$	c #FFEA41",
"B$	c #FFF65D",
"C$	c #FFFF8C",
"D$	c #E3C84F",
"E$	c #3D88B3",
"F$	c #457DAD",
"G$	c #E9CF4C",
"H$	c #FFF94C",
"I$	c #FFFC6C",
"J$	c #FFFE90",
"K$	c #FFFE9D",
"L$	c #E8CF64",
"M$	c #457CAC",
"N$	c #837846",
"O$	c #F0C82D",
"P$	c #F4D439",
"Q$	c #EED551",
"R$	c #EDE285",
"S$	c #F2E174",
"T$	c #EFCC36",
"U$	c #7C713D",
"V$	c #6F859B",
"W$	c #D3D4D5",
"X$	c #DDDDDD",
"Y$	c #E9E9E9",
"Z$	c #EAEAEA",
"`$	c #D6D7D8",
" %	c #687F97",
".%	c #979667",
"+%	c #FEEB4E",
"@%	c #FFF459",
"#%	c #FFF571",
"$%	c #FFFFA0",
"%%	c #FEED5A",
"&%	c #939057",
"*%	c #A39D68",
"=%	c #FFF85C",
"-%	c #FFFC67",
";%	c #FFF980",
">%	c #FFFEAC",
",%	c #FEF666",
"'%	c #9B9367",
")%	c #114D8A",
"!%	c #3B698D",
"~%	c #CDA02D",
"{%	c #F4DA3E",
"]%	c #E0BF40",
"^%	c #89773D",
"/%	c #908042",
"(%	c #E6D38E",
"_%	c #F8DC49",
":%	c #C3910C",
"<%	c #3C698D",
"[%	c #326393",
"}%	c #AEB3B9",
"|%	c #E0E0E0",
"1%	c #C8CCCF",
"2%	c #6E849A",
"3%	c #768CA1",
"4%	c #D9DDE1",
"5%	c #E4E4E4",
"6%	c #99A1A8",
"7%	c #4284A6",
"8%	c #E9C04C",
"9%	c #FFFA59",
"0%	c #F6E05C",
"a%	c #A19659",
"b%	c #A6A15F",
"c%	c #F9EDA5",
"d%	c #FFFA68",
"e%	c #DFB127",
"f%	c #4A7AA3",
"g%	c #EBCB5F",
"h%	c #FFFC68",
"i%	c #F8E76E",
"j%	c #AB9F69",
"k%	c #ADA46C",
"l%	c #FAF2AF",
"m%	c #FFFB75",
"n%	c #E4BB3E",
"o%	c #806D37",
"p%	c #E3BF3A",
"q%	c #E5C53A",
"r%	c #907737",
"s%	c #1A71C5",
"t%	c #9B8542",
"u%	c #EED888",
"v%	c #DCB426",
"w%	c #796330",
"x%	c #667C92",
"y%	c #C8CACC",
"z%	c #CACDD0",
"A%	c #75889B",
"B%	c #1B5B9B",
"C%	c #7E91A4",
"D%	c #E0E2E5",
"E%	c #C1C4C7",
"F%	c #61768C",
"G%	c #978A52",
"H%	c #F3E15C",
"I%	c #F8E758",
"J%	c #A9964D",
"K%	c #1689E2",
"L%	c #178BE4",
"M%	c #B0A55D",
"N%	c #FCF1A1",
"O%	c #EED443",
"P%	c #908448",
"Q%	c #A29064",
"R%	c #F6E76D",
"S%	c #FDEC69",
"T%	c #B29D60",
"U%	c #1D76CE",
"V%	c #1E77CD",
"W%	c #B9AD6B",
"X%	c #FFF6A7",
"Y%	c #F1DB53",
"Z%	c #9D895B",
"`%	c #B5821E",
" &	c #D7B43C",
".&	c #8A7131",
"+&	c #1472CE",
"@&	c #1573CE",
"#&	c #94782C",
"$&	c #DABD6B",
"%&	c #A87106",
"&&	c #999FA5",
"*&	c #C4C8CB",
"=&	c #6E8194",
"-&	c #175A9D",
";&	c #758799",
">&	c #C7CBCF",
",&	c #848D95",
"'&	c #D2A53F",
")&	c #F2D95A",
"!&	c #A68F47",
"~&	c #0F8BEC",
"{&	c #AE9848",
"]&	c #F4D783",
"^&	c #CA951E",
"/&	c #0059D0",
"(&	c #DAB453",
"_&	c #F5E268",
":&	c #AD975A",
"<&	c #1676D6",
"[&	c #B4A255",
"}&	c #F5DD8D",
"|&	c #D2A13A",
"1&	c #605735",
"2&	c #92671A",
"3&	c #2070BC",
"4&	c #936B15",
"5&	c #5C512F",
"6&	c #516376",
"7&	c #73808D",
"8&	c #717E8B",
"9&	c #4B5D70",
"0&	c #715E4D",
"a&	c #AF8934",
"b&	c #1D87D8",
"c&	c #B18C2C",
"d&	c #6E5B43",
"e&	c #034EC8",
"f&	c #797255",
"g&	c #BB914A",
"h&	c #BC9345",
"i&	c #786D4E",
"              . + @ @ + .                             # $ % % $ #                             & * = = * &                             - ; > > ; -               ",
"          , ' ) ! ~ ~ ! ) ' ,                     { ] ^ / ( ( / ^ ] {                     _ : < [ } } [ < : _                     | 1 2 3 4 4 3 2 1 |           ",
"    5 6 7 8 9 0 a b c a 0 9 8 d             e f g h i j k l m k j i h g             n o p q r s t u v t w r q p             x y z A B C D E F D C B A z         ",
"    G H I J 0 0 K L M K 0 0 J N O           P Q ( R j j S T U S j j R ( V           W X Y Z s s `  ...` s s Z +.@.          #.$.%.&.C C *.=.-.;.C C &.%.>.      ",
"    ,.'.).0 !.~.{.].^./.0 0 0 0 (._.        :.<.[.j }.|.1.2.3.4.j j j j 5.6.        7.8.9.s 0.a.b.c.d.e.s s s w f.g.        h.i.j.C k.l.m.n.o.p.C C C C q.r.    ",
"  s.t.u.v.w.!.x.y.z.A.B.0 0 0 0 C.D.s.    E.F.G.H.I.}.J.K.L.M.N.j j j j O.P.E.    Q.R.S.T.U.0.V.W.X.Y.Z.s s s s `. +Q.    .+++@+#+$+k.%+&+*+=+-+C C C C ;+>+.+  ",
"  ,+'+)+!+~+{+]+^+/+(+_+0 0 0 0 0 :+,+    <+[+}+|+1+2+3+4+5+6+7+j j j j j 8+<+    9+0+a+b+c+d+e+f+g+h+i+s s s s s j+9+    k+l+m+n+o+p+q+r+s+t+u+C C C C C v+k+  ",
"w+x+y+z+A+B+C+D+E+F+G+H+0 0 0 0 0 I+x+w+J+K+L+M+N+O+P+Q+R+S+T+U+j j j j j V+K+J+W+X+Y+Z+`+ @.@+@@@#@$@%@s s s s s w X+W+&@*@=@-@;@>@,@'@)@!@~@{@C C C C C ]@*@&@",
"^@/@(@_@:@<@[@}@|@1@2@3@4@5@6@7@8@0 /@^@9@( 0@a@b@c@d@e@f@g@h@i@j@k@l@m@n@j ( 9@o@p@q@r@s@t@u@v@w@x@y@z@A@B@C@D@E@s p@o@F@G@H@I@J@K@L@M@N@O@P@Q@R@S@T@U@V@C G@W@",
"X@Y@Z@`@ #.#+#@###$#%#&#*#=#-#;#8@0 Y@X@>#,#'#)#!#~#{#|+5+]#^#/#(#_#_#:#n@j ,#>#<#[#}#|#1#2#3#4#5#6#7#8#9#0#a#b#E@s [#<#c#d#e#f#g#h#i#M@j#k#l#m#n#o#p#q#V@C d#c#",
"X@Y@0 Z@r#s#t#u#v#w#x#y#z#A#B#C#0 0 Y@X@>#,#j '#D#E#F#G#H#I#J#(#_#K#L#M#j j ,#>#<#[#s }#N#O#P#Q#R#S#T#U#V#W#X#Y#s s [#<#c#d#C Z#`# $.$+$@$#$$$%$&$*$=$-$C C d#c#",
"^@/@0 0 ;$>$,$'$)$!$~${$]$^$/$0 0 0 /@^@9@( j j j ($_$:$<$[$}$|$1$2$3$j j j ( 9@o@p@s s s 4$5$6$7$8$9$0$a$b$c$s s s p@o@F@G@C C C d$e$f$#$g$h$i$j$k$l$C C C G@W@",
"w+x+I+0 0 0 m$n$o$p$q$r$s$t$0 0 0 I+x+w+J+K+V+j j j u$v${#w$_#_#x$u$j j j V+K+J+W+X+w s s s y$z$A$B$0$C$D$E$s s s w X+W+&@*@]@C C C F$G$H$I$J$K$L$M$C C C ]@*@&@",
"  ,+:+0 0 0 N$O$P$Q$R$S$T$U$0 0 0 :+,+    <+8+j j j V$W$X$}$Y$Z$`$ %j j j 8+<+    9+j+s s s .%+%@%#%$%J$%%&%s s s j+9+    k+v+C C C *%=%-%;%>%K$,%'%C C C v+)%  ",
"  s.D.C.0 !%~%{%]%^%/%(%_%:%<%0 C.D.s.    E.P.O.j [%}%|%1%2%3%4%5%6%[%j O.P.E.    Q. +`.s 7%8%9%0%a%b%c%d%e%7%s `. +Q.    .+>+;+C f%g%h%i%j%k%l%m%n%f%C ;+>+.+  ",
"    _.(.0 o%p%q%r%s%/$t%u%v%w%0 (._.        6.5.j x%y%z%A%B%3$C%D%E%F%j 5.6.        g.f.s G%H%I%J%K%L%M%N%O%P%s f.g.        r.q.C Q%R%S%T%U%V%W%X%Y%Z%C q.r.    ",
"      O N `% &.&+&0 0 @&#&$&%&N O             V ( &&*&=&k j j -&;&>&,&( V             @.Y '&)&!&t s s ~&{&]&^&/&@.            >.%.(&_&:&D C C <&[&}&|&%.>.      ",
"        d 1&2&3&0 0 0 0 Z@4&5&d                 g 6&7&'#j j j j '#8&9&g                 p 0&a&b&s s s s }#c&d&e&                z f&g&e#C C C C e#h&i&z         ",
"          , ' ) ! ~ ~ ! ) ' ,                     { ] ^ / ( ( / ^ ] {                     _ : < [ } } [ < : _                     | 1 2 3 4 4 3 2 1 |           ",
"              . + @ @ + .                             # $ % % $ #                             & * = = * &                             - ; > > ; -               "};
