/* XPM */
static char * EXTNAVSETBOOKMARKL_xpm[] = {
"128 30 210 2",
"  	c None",
". 	c #3975B2",
"+ 	c #2F5780",
"@ 	c #198CFF",
"# 	c #3774B3",
"$ 	c #3272B5",
"% 	c #2165AB",
"& 	c #134E8A",
"* 	c #0D3C6D",
"= 	c #06315C",
"- 	c #06294D",
"; 	c #295481",
"> 	c #204C7B",
", 	c #153C65",
"' 	c #0E3053",
") 	c #0C263E",
"! 	c #0B85FF",
"~ 	c #006BF8",
"{ 	c #0042B7",
"] 	c #001C80",
"^ 	c #000A56",
"/ 	c #00003E",
"( 	c #2E70B5",
"_ 	c #0F4C8B",
": 	c #05396F",
"< 	c #032E58",
"[ 	c #02264B",
"} 	c #2A6EB3",
"| 	c #053769",
"1 	c #07427D",
"2 	c #07529F",
"3 	c #0760BA",
"4 	c #096ACC",
"5 	c #0A72DC",
"6 	c #245180",
"7 	c #0D2D4D",
"8 	c #0D365E",
"9 	c #0E3F71",
"0 	c #0E4A86",
"a 	c #0E5092",
"b 	c #0F559D",
"c 	c #007DFF",
"d 	c #001676",
"e 	c #002A9B",
"f 	c #004BD0",
"g 	c #007BFF",
"h 	c #0185FF",
"i 	c #276CB3",
"j 	c #053E7A",
"k 	c #05509D",
"l 	c #066BD2",
"m 	c #0672E0",
"n 	c #175797",
"o 	c #064C92",
"p 	c #0665C5",
"q 	c #0A75E1",
"r 	c #A16F00",
"s 	c #18436E",
"t 	c #0F579F",
"u 	c #6D7680",
"v 	c #627383",
"w 	c #003BBF",
"x 	c #0073FF",
"y 	c #008CFF",
"z 	c #AD7B08",
"A 	c #0088FF",
"B 	c #145597",
"C 	c #0674E4",
"D 	c #0D4276",
"E 	c #054484",
"F 	c #0863C0",
"G 	c #D1C795",
"H 	c #D8B765",
"I 	c #113558",
"J 	c #BBC4CD",
"K 	c #9CA9B6",
"L 	c #617282",
"M 	c #00288D",
"N 	c #0036AB",
"O 	c #E8D49D",
"P 	c #DEBD73",
"Q 	c #0A4076",
"R 	c #084F96",
"S 	c #F3F3EB",
"T 	c #FAF1B0",
"U 	c #A16F04",
"V 	c #103357",
"W 	c #FFFFFF",
"X 	c #F6F6F6",
"Y 	c #FFFFF7",
"Z 	c #FAF8CB",
"` 	c #073C73",
" .	c #054E99",
"..	c #08519A",
"+.	c #F7DE9C",
"@.	c #EFEFEF",
"#.	c #FFFFDC",
"$.	c #05498E",
"%.	c #F3E388",
"&.	c #0D3B68",
"*.	c #6E7780",
"=.	c #E7E7E7",
"-.	c #FFEF94",
";.	c #F3E290",
">.	c #F3E36F",
",.	c #CAA434",
"'.	c #D6D6D6",
").	c #A8B1BA",
"!.	c #FEEF9D",
"~.	c #FFEF7B",
"{.	c #DEB539",
"].	c #0756A5",
"^.	c #E8CF8D",
"/.	c #F4E479",
"(.	c #F3DB57",
"_.	c #DBBA2D",
":.	c #DEDEDE",
"<.	c #BCBCBC",
"[.	c #0057F3",
"}.	c #FFEF84",
"|.	c #FFE760",
"1.	c #EAC636",
"2.	c #3774B4",
"3.	c #F3D23E",
"4.	c #EBC21D",
"5.	c #0F549A",
"6.	c #C6C6C6",
"7.	c #FFE79C",
"8.	c #FFDE4A",
"9.	c #F7CE29",
"0.	c #0671DD",
"a.	c #F4DE81",
"b.	c #F3D225",
"c.	c #F3C80C",
"d.	c #A97803",
"e.	c #697A8B",
"f.	c #FFE78C",
"g.	c #FFDE31",
"h.	c #FFD418",
"i.	c #B48507",
"j.	c #065CB1",
"k.	c #F4DC68",
"l.	c #F3CA19",
"m.	c #CBA71A",
"n.	c #0C457E",
"o.	c #CECECE",
"p.	c #8A98A6",
"q.	c #FFE773",
"r.	c #FFD629",
"s.	c #D6AD21",
"t.	c #DBC280",
"u.	c #F3D22D",
"v.	c #D5D5D5",
"w.	c #AFBAC5",
"x.	c #627384",
"y.	c #000D62",
"z.	c #AD7B10",
"A.	c #FFDE39",
"B.	c #FFEF8C",
"C.	c #0568CC",
"D.	c #B39234",
"E.	c #F3EB90",
"F.	c #F3DB5F",
"G.	c #F2D147",
"H.	c #F3D236",
"I.	c #F3DB4E",
"J.	c #DAB943",
"K.	c #DDDDDD",
"L.	c #C8AA42",
"M.	c #FFE76B",
"N.	c #FFDE52",
"O.	c #FFD621",
"P.	c #FFE042",
"Q.	c #EAC952",
"R.	c #A9780C",
"S.	c #CCBA54",
"T.	c #EBD278",
"U.	c #EBD66A",
"V.	c #C49727",
"W.	c #757E87",
"X.	c #B68714",
"Y.	c #FFF79C",
"Z.	c #A16700",
"`.	c #B68B20",
" +	c #E6C549",
".+	c #D8B755",
"++	c #A98309",
"@+	c #676F78",
"#+	c #838F9A",
"$+	c #6F8090",
"%+	c #AD7300",
"&+	c #E7C963",
"*+	c #D2A915",
"=+	c #CCCCC4",
"-+	c #DDB420",
";+	c #DBC257",
">+	c #F7DE73",
",+	c #F3DB46",
"'+	c #F3DB3E",
")+	c #7B848D",
"!+	c #FFE74E",
"~+	c #EBD25F",
"{+	c #F3DB36",
"]+	c #E5BC27",
"^+	c #CCB433",
"/+	c #0874E1",
"(+	c #B89205",
"_+	c #F3E367",
":+	c #FFEF73",
"<+	c #A78118",
"                        . . . . . . . .                                                 + + + + + + + +                                                 @ @ @ @ @ @ @ @                                                 # # # # # # # #                         ",
"                  . $ % & * = - - = * & % $ .                                     + ; > , ' ) ) ) ) ' , > ; +                                     @ ! ~ { ] ^ / / ^ ] { ~ ! @                                     # ( % _ : < [ [ < : _ % ( #                   ",
"              . } & | 1 2 3 4 5 5 4 3 2 1 | & } .                             + 6 , 7 8 9 0 a b b a 0 9 8 7 , 6 +                             @ c { d e f ~ g h h g ~ f e d { c @                             # i _ | j k 3 l m m l 3 k j | _ i #               ",
"            $ n : o p q q q q r r q q q q p o : n $                         ; s ' * _ t t t t u v t t t t _ * ' s ;                         ! f ] w x y y y y z z y y A y x w ] f !                         ( B : o p C C C C z z C C C C p o : B (             ",
"          } D E F q q q q q r G H r q q q q q F E D }                     6 I 8 _ t t t t t u J K L t t t t t _ 8 I 6                     c M N ~ y y y y y z O P z y y y y y ~ N M c                     i Q E p C C C C C z O P z C C C C C p E Q i           ",
"        } Q R 5 q q q q q q r S T U q q q q q q 5 R Q }                 6 V * b t t t t t t u W X v t t t t t t b * V 6                 c M f h y y y y y y z Y Z z y y y y y y A f M g                 i `  .m C C C C C C z Y Z z C C C C C C m  .` i         ",
"      ( Q ..q q q q q q q q r Z +.r q q q q q q q q ..Q (             ; V 9 t t t t t t t t u X @.v t t t t t t t t 9 V ;             h M f y y y y y y y y z #.T z y y y y y y y A f M h             } `  .C C C C C C C C z #.T z C C C C C C C C  .` }       ",
"    . & $.q q q q q q q q r U T %.r r q q q q q q q q $.& .         + , &.t t t t t t t t *.u X =.v v t t t t t t t t &., +         @ N w A y y y y y y y z z Z -.z z y y y y y y y y w N @         # 0 $.C C C C C C C C z z Z -.z z C C C C C C C C $.0 #     ",
"    % : 4 q q q q q q q q r G ;.>.,.r q q q q q q q q 4 : %         > ' a t t t t t t t t u '.=.=.).v t t t t t t t t a ' >         ~ ] g y y y y y y y y z O !.~.{.z y y y y y y y y g ] ~         % : l C C C C C C C C z O !.~.{.z C C C C C C C C l : %     ",
"  . D ].q q q q q q q q q r ^./.(._.r q q q q q q q q q ].D .     + I D t t t t t t t t t u :.=.:.<.v t t t t t t t t t D I +     @ M [.y y y y y y y y y z +.}.|.1.z y y y y y y y y y [.M @     2.Q ].C C C C C C C C C z +.}.|.1.z C C C C C C C C C ].Q 2.  ",
"  i | 5 q q q q q q q q q r ;.(.3.4.r q q q q q q q q q 5 | i     6 7 5.t t t t t t t t t u =.:.'.6.v t t t t t t t t t 5.7 6     g d h y y y y y y y y y z 7.|.8.9.z y y y y y y y y y h d g     i | 0.C C C C C C C C C z 7.|.8.9.z C C C C C C C C C 0.| i   ",
". n o q q q q q q q q q q r a.3.b.c.d.q q q q q q q q q q o n . + s &.t t t t t t t t t t u =.'.'.6.e.t t t t t t t t t t &.s + @ f w y y y y y y y y y y z f.8.g.h.i.y y y y y y y y y y w f @ # 5.$.C C C C C C C C C C z f.8.g.h.i.C C C C C C C C C C $.B # ",
". D j.q q r r r r r r r r H k.l.c.c.m.r r r r r r r q q q j.D . + V n.t t u u u u u u u u ).:.o.o.o.p.L v v v L v L t t t n.V + @ M [.y y z z z z z z z z P q.r.h.h.s.z z z z z z z y y y [.M @ # ` j.C C z z z z z z z z P q.r.h.h.s.z z z z z z z C C C j.` # ",
". = 4 q U t.Z Z Z Z T ;./.(.u.c.c.b.3.(.k.%.;.a./.(.r q q 4 = . + 7 a t v ).X X X X @.=.=.:.'.o.o.v.'.:.:.=.=.=.=.w.x.t t a 7 + @ y.x y z.^.#.#.#.Z T !.}.|.A.h.h.g.8.|.q.-.!.B.}.|.z y y x y.@ # = C.C z.^.#.#.#.Z T !.}.|.A.h.h.g.8.|.q.-.!.B.}.|.z C C C.= # ",
". - 5 q q r D.O Z E.a.F.G.u.l.c.l.H.I.k.a.;.%./.J.r q q q 5 - . + ) b t t u p.=.X @.=.:.'.'.o.o.o.v.K.:.=.=.=.=.K x.t t t 5.) + @ / h y y z L.T Z T f.M.N.A.O.h.r.P.|.q.f.!.-.}.Q.z y y y h / @ # [ 0.C C z L.T Z T f.M.N.A.O.h.r.P.|.q.f.!.-.}.Q.z C C C 0.[ # ",
". - 5 q q q r R.S.T.k.G.u.l.c.l.H.I.F./.;.E.U.V.r q q q q 5 - . + ) b t t t *.W.).=.:.'.'.o.o.o.'.K.K.=.=.@.w.p.x.t t t t 5.) + @ / h y y A z X.H B.q.N.A.O.h.r.P.|.M.}.!.Y./.,.z y y y y h / @ # [ 0.C C C z X.H B.q.N.A.O.h.r.P.|.M.}.!.Y./.,.z C C C C 0.[ # ",
". = 4 q q q q q Z.`. +H.l.c.l.H.G.F./.;.;..+++q q q q q q 4 = . + 7 _ t t t t t @+#+6.'.o.6.o.'.'.:.=.=.=.K $+t t t t t t a 7 + @ y.x y y y y y %+V.Q.P.O.h.r.P.N.M.}.!.!.&+X.y y y y y y x y.@ # = C.C C C C C %+V.Q.P.O.h.r.P.N.M.}.!.!.&+X.C C C C C C C.= # ",
". D j.q q q q q q r d.*+c.l.H.G.F./.%.%.,.r q q q q q q q j.D . + V n.t t t t t t u W.K =+o.'.v.:.=.=.=.p.x.t t t t t t t n.V + @ M [.y y y y y y z X.-+O.r.P.N.M.}.-.-.L.z y y y y y y y [.M @ # ` j.C C C C C C z X.-+O.r.P.N.M.}.-.-.L.z C C C C C C C j.` # ",
". n o q q q q q q q q r 3.u.G.(.>.%.;./.r q q q q q q q q o n . + s &.t t t t t t t b u '.'.'.:.=.=.=.=.v t t t t t t t t &.s + @ f w y y y y y y y y z 8.A.N.|.~.-.!.}.z y y y y y y y y w f @ # B $.C C C C C C C C z 8.A.N.|.~.-.!.}.z C C C C C C C C $.B # ",
"  i | 5 q q q q q q U ;+H.3.(./.%.;.a.>.J.r q q q q q q 5 | i     6 7 5.t t t t t t u w.'.'.:.=.=.=.=.=.K x.t t t t t t 5.7 6     c d h y y y y y y z.&+P.8.|.}.-.!.B.~. +z y y y y y y h d c     i | 0.C C C C C C z.&+P.8.|.}.-.!.B.~. +z C C C C C C 0.| i   ",
"  . D ].q q q q q q D.(.3.(./.U.U.X >.F.G.++q q q q q q ].D .     + I D t t t t t t #+:.'.:.=.v.:.W =.:.'.$+t t t t t t D I +     @ M [.y y y y y y ,.|.8.|.}.>+/.W ~.M.N.X.y y y y y y [.M @     2.Q ].C C C C C C ,.|.8.|.}.>+/.W ~.M.N.X.C C C C C C ].` 2.  ",
"    % : 4 q q q q r .+,+(.>.;+d.z U.X I.'+m.r q q q q 4 : %         > ' a t t t t u w.:.:.=.w.W.)+J W :.:.p.L t t t t a ' >         ~ ] g y y y y z &+!+|.~.&+X.X.>+W |.!+s.z y y y y g ] ~         % : l C C C C z &+!+|.~.&+X.X.>+W |.!+s.z C C C C l : %     ",
"    . & $.q q q q r U.I.>.J.r q q z.~+X {+]+U q q q q $.& .         + , &.t t t t u v.:.=.w.u t t )+J W K.<.v t t t t &., +         @ N w y y y y z >+|.~.Q.z y y `.k.W P.1.z.y y y y w N @         # 0 $.C C C C z >+|.~.Q.z C C `.k.W P.1.z.C C C C $.0 #     ",
"      ( Q ..q q r L.F.k.^+r q q q /+R.1.@.{+(+r q q ..Q (             ; V 9 t t *.K :.:.K u t t t t W.w.W K.#+v t t 9 V ;             h M f y y z .+M.q.J.z y y y y X.G.W P.m.z y y f M h             } `  .C C z .+M.q.J.z C C C C X.G.W P.m.z C C  .` }       ",
"        } Q R 5 R.T._+,.r q q q q q q d._.X ]+r 5 R Q }                 6 V * b W.:.=.K *.t t t t t t W.).W <.L b * V 6                 g M f h X.a.:+J.z y y y y y y X.1.W 1.z A f M g                 i `  .m X.a.:+J.z C C C C C C X.1.W 1.z m  .` i         ",
"          } D E <+.+V.r q q q q q q q q U m.s.U E D }                     6 I 8 )+w.p.*.t t t t t t t t u p.p.L 8 I 6                     g M N `.&+,.z y y y y y y y y z.s.]+z.N M g                     i Q E `.&+,.z C C C C C C C C z.s.]+z.E Q i           ",
"            $ n : r r q q q q q q q q q q r r : n $                         ; s ' @+*.t t t t t t t t t t u @+' s ;                         ! f ] z z y y y y y y y y y y z z ] f !                         ( B : z z C C C C C C C C C C z z : B (             ",
"              . } & | 1 2 3 4 5 5 4 3 2 1 | & } .                             + 6 , 7 8 9 0 a b b a 0 9 8 7 , 6 +                             @ c { d e f ~ g h h g ~ f e d { c @                             # i _ | j k 3 l m m l 3 k j | _ i #               ",
"                  . $ % & * = - - = * & % $ .                                     + ; > , ' ) ) ) ) ' , > ; +                                     @ ! ~ { ] ^ / / ^ ] { ~ ! @                                     # ( % _ : < [ [ < : _ % ( #                   ",
"                        . . . . . . . .                                                 + + + + + + + +                                                 @ @ @ @ @ @ @ @                                                 # # # # # # # #                         "};
