/* XPM */
static char * EXTNAVINSERTL_xpm[] = {
"128 30 201 2",
"  	c None",
". 	c #3975B2",
"+ 	c #2F5780",
"@ 	c #198CFF",
"# 	c #3774B3",
"$ 	c #3272B5",
"% 	c #2264AA",
"& 	c #124E8B",
"* 	c #0B3C6E",
"= 	c #073159",
"- 	c #05294C",
"; 	c #295482",
"> 	c #1F4B7A",
", 	c #153D66",
"' 	c #103152",
") 	c #0D2944",
"! 	c #0C243B",
"~ 	c #0B85FF",
"{ 	c #006DF3",
"] 	c #0042B7",
"^ 	c #001F7F",
"/ 	c #000A56",
"( 	c #00003D",
"_ 	c #2E70B6",
": 	c #1E63AA",
"< 	c #0F4C8A",
"[ 	c #073A6D",
"} 	c #032E58",
"| 	c #01264A",
"1 	c #2A6DB2",
"2 	c #144F8C",
"3 	c #073869",
"4 	c #07427D",
"5 	c #08529E",
"6 	c #0862BC",
"7 	c #096CCF",
"8 	c #0A72DD",
"9 	c #245180",
"0 	c #163D66",
"a 	c #0D2E4F",
"b 	c #0D355C",
"c 	c #0E3F72",
"d 	c #0E4984",
"e 	c #0E5193",
"f 	c #0F559D",
"g 	c #007DFF",
"h 	c #001775",
"i 	c #002A9B",
"j 	c #0049DB",
"k 	c #0066FF",
"l 	c #007BFF",
"m 	c #0086FF",
"n 	c #276CB3",
"o 	c #033668",
"p 	c #033F7C",
"q 	c #04509E",
"r 	c #055FBA",
"s 	c #056AD1",
"t 	c #0671DF",
"u 	c #175797",
"v 	c #073A6F",
"w 	c #074D94",
"x 	c #0965C3",
"y 	c #0A75E1",
"z 	c #2A5581",
"A 	c #18436D",
"B 	c #0D2F53",
"C 	c #0D3C6C",
"D 	c #0E4D8C",
"E 	c #0F579F",
"F 	c #0052CC",
"G 	c #001B80",
"H 	c #003DC4",
"I 	c #006DFF",
"J 	c #008CFF",
"K 	c #2F71B5",
"L 	c #145597",
"M 	c #03386F",
"N 	c #034B94",
"O 	c #0564C5",
"P 	c #0674E4",
"Q 	c #2A6DB3",
"R 	c #0D4277",
"S 	c #074483",
"T 	c #113558",
"U 	c #0D3660",
"V 	c #0E4B8A",
"W 	c #002A90",
"X 	c #002EA7",
"Y 	c #276CB4",
"Z 	c #0A4077",
"` 	c #034283",
" .	c #0B4075",
"..	c #084F96",
"+.	c #0A73DE",
"@.	c #103357",
"#.	c #0E3D6D",
"$.	c #00268C",
"%.	c #0043CB",
"&.	c #0088FF",
"*.	c #073D74",
"=.	c #044D97",
"-.	c #0672E0",
";.	c #08519A",
">.	c #275381",
",.	c #0E3F70",
"'.	c #0482FF",
").	c #0047D3",
"!.	c #2B6FB5",
"~.	c #083D74",
"{.	c #044F9A",
"].	c #124C87",
"^.	c #074A8D",
"/.	c #143B63",
"(.	c #0D3A67",
"_.	c #003DAE",
":.	c #0039BA",
"<.	c #0E4A87",
"[.	c #03488D",
"}.	c #2366AB",
"|.	c #063A70",
"1.	c #4B96E1",
"2.	c #1A7DE1",
"3.	c #204D7B",
"4.	c #316BA5",
"5.	c #175CA1",
"6.	c #001B82",
"7.	c #44ABFE",
"8.	c #1194FF",
"9.	c #2065AB",
"0.	c #4899EB",
"a.	c #177DE6",
"b.	c #3975B3",
"c.	c #0857A5",
"d.	c #FDF1E1",
"e.	c #113557",
"f.	c #0E4377",
"g.	c #8DA3B6",
"h.	c #002A8E",
"i.	c #0052E8",
"j.	c #FFFFFA",
"k.	c #3774B4",
"l.	c #093F76",
"m.	c #0656A7",
"n.	c #FEFEFD",
"o.	c #286CB1",
"p.	c #06376A",
"q.	c #0A71D9",
"r.	c #23517F",
"s.	c #0C2D4F",
"t.	c #0F549A",
"u.	c #001577",
"v.	c #0084FF",
"w.	c #256BB2",
"x.	c #023569",
"y.	c #0670DB",
"z.	c #074B90",
"A.	c #18436E",
"B.	c #0D3B69",
"C.	c #145598",
"D.	c #034990",
"E.	c #0D4175",
"F.	c #085CB0",
"G.	c #0E467E",
"H.	c #00288C",
"I.	c #005CFD",
"J.	c #093E74",
"K.	c #065CB2",
"L.	c #08335F",
"M.	c #0969CA",
"N.	c #7BAFE1",
"O.	c #9CBFE1",
"P.	c #0E2B48",
"Q.	c #0E4F90",
"R.	c #4A7AAA",
"S.	c #5B85AD",
"T.	c #000D62",
"U.	c #0075FF",
"V.	c #77C2FD",
"W.	c #99D1FC",
"X.	c #04305D",
"Y.	c #0568CC",
"Z.	c #7AB4F0",
"`.	c #9BC7F3",
" +	c #06294D",
".+	c #0C243C",
"++	c #0F559C",
"@+	c #00003F",
"#+	c #02264B",
"$+	c #6BA7E1",
"%+	c #BCD0E1",
"&+	c #CCD8E1",
"*+	c #4175A8",
"=+	c #6B8FB0",
"-+	c #7494B1",
";+	c #66BAFD",
">+	c #BBE0FB",
",+	c #CCE8FB",
"'+	c #69ABEE",
")+	c #BCD9F6",
"!+	c #CCE2F8",
"                        . . . . . . . .                                                 + + + + + + + +                                                 @ @ @ @ @ @ @ @                                                 # # # # # # # #                         ",
"                  . $ % & * = - - = * & % $ .                                     + ; > , ' ) ! ! ) ' , > ; +                                     @ ~ { ] ^ / ( ( / ^ ] { ~ @                                     # _ : < [ } | | } [ < : _ #                   ",
"              . 1 2 3 4 5 6 7 8 8 7 6 5 4 3 2 1 .                             + 9 0 a b c d e f f e d c b a 0 9 +                             @ g ] h i j k l m m l k j i h ] g @                             # n < o p q r s t t s r q p o < n #               ",
"            $ u v w x y y y y y y y y y y x w v u $                         z A B C D E E E E E E E E E E D C B A z                         ~ F G H I J J J J J J J J J J I H G F ~                         K L M N O P P P P P P P P P P O N M L K             ",
"          Q R S x y y y y y y y y y y y y y y x S R Q                     9 T U V E E E E E E E E E E E E E E V U T 9                     g W X I J J J J J J J J J J J J J J I X W g                     Y Z ` O P P P P P P P P P P P P P P O ` Z Y           ",
"        1  ...+.y y y y y y y y y y y y y y y y +... .1                 9 @.#.f E E E E E E E E E E E E E E E E f #.@.9                 g $.%.&.J J J J J J J J J J J J J J J J &.%.$.g                 n *.=.-.P P P P P P P P P P P P P P P P -.=.*.n         ",
"      K  .;.y y y y y y y y y y y y y y y y y y y y ;. .K             >.@.,.E E E E E E E E E E E E E E E E E E E E ,.@.>.            '.$.).J J J J J J J J J J J J J J J J J J J J ).$.'.            !.~.{.P P P P P P P P P P P P P P P P P P P P {.~.!.      ",
"    . ].^.y y y y y y y y y y y y y y y y y y y y y y ^.]..         + /.(.E E E E E E E E E E E E E E E E E E E E E E (./.+         @ _.:.J J J J J J J J J J J J J J J J J J J J J J :._.@         # <.[.P P P P P P P P P P P P P P P P P P P P P P [.<.#     ",
"    }.|.7 y y y y y y y y y 1.1.1.1.2.y y y y y y y y 7 |.}.        3.B e E E E E E E E E E 4.4.4.4.5.E E E E E E E E e B 3.        { 6.l J J J J J J J J J 7.7.7.7.8.J J J J J J J J l 6.{         9.M s P P P P P P P P P 0.0.0.0.a.P P P P P P P P s M 9.    ",
"  b.R c.y y y y y y y y y y d.d.d.d.1.y y y y y y y y y c.R b.    + e.f.E E E E E E E E E E g.g.g.g.4.E E E E E E E E E f.e.+     @ h.i.J J J J J J J J J J j.j.j.j.7.J J J J J J J J J i.h.@     k.l.m.P P P P P P P P P P n.n.n.n.0.P P P P P P P P P m.l.k.  ",
"  o.p.q.y y y y y y y y y y d.d.d.d.1.y y y y y y y y y q.p.o.    r.s.t.E E E E E E E E E E g.g.g.g.4.E E E E E E E E E t.s.r.    l u.v.J J J J J J J J J J j.j.j.j.7.J J J J J J J J J v.u.l     w.x.y.P P P P P P P P P P n.n.n.n.0.P P P P P P P P P y.x.w.  ",
". u z.y y y y y y y y y y y d.d.d.d.1.y y y y y y y y y y z.u . + A.B.E E E E E E E E E E E g.g.g.g.4.E E E E E E E E E E B.A.+ @ F H J J J J J J J J J J J j.j.j.j.7.J J J J J J J J J J H F @ # C.D.P P P P P P P P P P P n.n.n.n.0.P P P P P P P P P P D.C.# ",
". E.F.y y y y y y y y y y y d.d.d.d.1.y y y y y y y y y y F.E.. + e.G.E E E E E E E E E E E g.g.g.g.4.E E E E E E E E E E G.e.+ @ H.I.J J J J J J J J J J J j.j.j.j.7.J J J J J J J J J J I.H.@ # J.K.P P P P P P P P P P P n.n.n.n.0.P P P P P P P P P P K.J.# ",
". L.M.y y y y y y 1.N.N.N.N.d.d.d.d.O.N.N.N.1.y y y y y y M.L.. + P.Q.E E E E E E 4.R.R.R.R.g.g.g.g.S.R.R.R.4.E E E E E E Q.P.+ @ T.U.J J J J J J 7.V.V.V.V.j.j.j.j.W.V.V.V.7.J J J J J J U.T.@ # X.Y.P P P P P P 0.Z.Z.Z.Z.n.n.n.n.`.Z.Z.Z.0.P P P P P P Y.X.# ",
".  +8 y y y y y y N.d.d.d.d.d.d.d.d.d.d.d.d.N.y y y y y y 8  +. + .+++E E E E E E R.g.g.g.g.g.g.g.g.g.g.g.g.R.E E E E E E ++.++ @ @+m J J J J J J V.j.j.j.j.j.j.j.j.j.j.j.j.V.J J J J J J m @+@ # #+t P P P P P P Z.n.n.n.n.n.n.n.n.n.n.n.n.Z.P P P P P P t #+# ",
".  +8 y y y y y y N.d.d.d.d.d.d.d.d.d.d.d.d.N.y y y y y y 8  +. + .+++E E E E E E R.g.g.g.g.g.g.g.g.g.g.g.g.R.E E E E E E ++.++ @ @+m J J J J J J V.j.j.j.j.j.j.j.j.j.j.j.j.V.J J J J J J m @+@ # #+t P P P P P P Z.n.n.n.n.n.n.n.n.n.n.n.n.Z.P P P P P P t #+# ",
". L.M.y y y y y y N.d.d.d.d.d.d.d.d.d.d.d.d.N.y y y y y y M.L.. + P.Q.E E E E E E R.g.g.g.g.g.g.g.g.g.g.g.g.R.E E E E E E Q.P.+ @ T.U.J J J J J J V.j.j.j.j.j.j.j.j.j.j.j.j.V.J J J J J J U.T.@ # X.Y.P P P P P P Z.n.n.n.n.n.n.n.n.n.n.n.n.Z.P P P P P P Y.X.# ",
". E.F.y y y y y y $+%+%+%+%+d.d.d.d.&+%+%+%+$+y y y y y y F.E.. + e.G.E E E E E E *+=+=+=+=+g.g.g.g.-+=+=+=+*+E E E E E E G.e.+ @ H.I.J J J J J J ;+>+>+>+>+j.j.j.j.,+>+>+>+;+J J J J J J I.H.@ # J.K.P P P P P P '+)+)+)+)+n.n.n.n.!+)+)+)+'+P P P P P P K.J.# ",
". u z.y y y y y y y y y y y d.d.d.d.1.y y y y y y y y y y z.u . + A.B.E E E E E E E E E E E g.g.g.g.4.E E E E E E E E E E B.A.+ @ F H J J J J J J J J J J J j.j.j.j.7.J J J J J J J J J J H F @ # C.D.P P P P P P P P P P P n.n.n.n.0.P P P P P P P P P P D.C.# ",
"  o.p.q.y y y y y y y y y y d.d.d.d.1.y y y y y y y y y q.p.o.    r.s.t.E E E E E E E E E E g.g.g.g.4.E E E E E E E E E t.s.r.    l u.v.J J J J J J J J J J j.j.j.j.7.J J J J J J J J J v.u.l     w.x.y.P P P P P P P P P P n.n.n.n.0.P P P P P P P P P y.x.w.  ",
"  b.R c.y y y y y y y y y y d.d.d.d.1.y y y y y y y y y c.R b.    + e.f.E E E E E E E E E E g.g.g.g.4.E E E E E E E E E f.e.+     @ h.i.J J J J J J J J J J j.j.j.j.7.J J J J J J J J J i.h.@     k.l.m.P P P P P P P P P P n.n.n.n.0.P P P P P P P P P m.l.k.  ",
"    }.|.7 y y y y y y y y y d.d.d.d.1.y y y y y y y y 7 |.}.        3.B e E E E E E E E E E g.g.g.g.4.E E E E E E E E e B 3.        { 6.l J J J J J J J J J j.j.j.j.7.J J J J J J J J l 6.{         9.M s P P P P P P P P P n.n.n.n.0.P P P P P P P P s M 9.    ",
"    . ].^.y y y y y y y y y y y y y y y y y y y y y y ^.]..         + /.(.E E E E E E E E E E E E E E E E E E E E E E (./.+         @ _.:.J J J J J J J J J J J J J J J J J J J J J J :._.@         # <.[.P P P P P P P P P P P P P P P P P P P P P P [.<.#     ",
"      K  .;.y y y y y y y y y y y y y y y y y y y y ;. .K             >.@.,.E E E E E E E E E E E E E E E E E E E E ,.@.>.            '.$.).J J J J J J J J J J J J J J J J J J J J ).$.'.            !.~.{.P P P P P P P P P P P P P P P P P P P P {.~.!.      ",
"        1  ...+.y y y y y y y y y y y y y y y y +... .1                 9 @.#.f E E E E E E E E E E E E E E E E f #.@.9                 g $.%.&.J J J J J J J J J J J J J J J J &.%.$.g                 n *.=.-.P P P P P P P P P P P P P P P P -.=.*.n         ",
"          Q R S x y y y y y y y y y y y y y y x S R Q                     9 T U V E E E E E E E E E E E E E E V U T 9                     g W X I J J J J J J J J J J J J J J I X W g                     Y Z ` O P P P P P P P P P P P P P P O ` Z Y           ",
"            $ u v w x y y y y y y y y y y x w v u $                         z A B C D E E E E E E E E E E D C B A z                         ~ F G H I J J J J J J J J J J I H G F ~                         K L M N O P P P P P P P P P P O N M L K             ",
"              . 1 2 3 4 5 6 7 8 8 7 6 5 4 3 2 1 .                             + 9 0 a b c d e f f e d c b a 0 9 +                             @ g ] h i j k l m m l k j i h ] g @                             # n < o p q r s t t s r q p o < n #               ",
"                  . $ % & * = - - = * & % $ .                                     + ; > , ' ) ! ! ) ' , > ; +                                     @ ~ { ] ^ / ( ( / ^ ] { ~ @                                     # _ : < [ } | | } [ < : _ #                   ",
"                        . . . . . . . .                                                 + + + + + + + +                                                 @ @ @ @ @ @ @ @                                                 # # # # # # # #                         "};
