/* XPM */
static char * EXTNAVMOVENEXTT_xpm[] = {
"80 20 190 2",
"  	c None",
". 	c #2A67A6",
"+ 	c #2A629B",
"@ 	c #285D92",
"# 	c #244E78",
"$ 	c #254A70",
"% 	c #23476A",
"& 	c #0C71EA",
"* 	c #1167D3",
"= 	c #115FC1",
"- 	c #2766A6",
"; 	c #27609B",
"> 	c #255B92",
", 	c #2565A6",
"' 	c #174F89",
") 	c #0E4F92",
"! 	c #0A55A1",
"~ 	c #0859AB",
"{ 	c #214C78",
"] 	c #183E64",
"^ 	c #123D6A",
"/ 	c #0F4174",
"( 	c #0E447B",
"_ 	c #046DE9",
": 	c #0444B1",
"< 	c #0043C3",
"[ 	c #004FD0",
"} 	c #0058C1",
"| 	c #2263A6",
"1 	c #144E89",
"2 	c #0A4D91",
"3 	c #0653A1",
"4 	c #0457AC",
"5 	c #195796",
"6 	c #084F98",
"7 	c #0968C8",
"8 	c #0A75E1",
"9 	c #19436D",
"0 	c #0D3D6E",
"a 	c #0E4E8F",
"b 	c #0F579F",
"c 	c #0352C9",
"d 	c #0043BC",
"e 	c #0073F6",
"f 	c #008CFF",
"g 	c #165596",
"h 	c #044D98",
"i 	c #0567CB",
"j 	c #0674E4",
"k 	c #14508E",
"l 	c #095AAC",
"m 	c #0A71DA",
"n 	c #98BDE1",
"o 	c #ACC8E1",
"p 	c #328AE1",
"q 	c #163E67",
"r 	c #0F457C",
"s 	c #0F549B",
"t 	c #2464A3",
"u 	c #638AAE",
"v 	c #5883AC",
"w 	c #0046BA",
"x 	c #0058D2",
"y 	c #0085FF",
"z 	c #2A9FFE",
"A 	c #AAD9FC",
"B 	c #95CFFC",
"C 	c #104E8E",
"D 	c #0558AD",
"E 	c #0670DD",
"F 	c #185491",
"G 	c #0960B7",
"H 	c #DFE1E1",
"I 	c #FDF1E1",
"J 	c #4794E1",
"K 	c #18406A",
"L 	c #0F4983",
"M 	c #2E6AA5",
"N 	c #8DA3B6",
"O 	c #7D99B3",
"P 	c #014CC0",
"Q 	c #0063E0",
"R 	c #40A9FE",
"S 	c #FFFFFA",
"T 	c #DFF1FB",
"U 	c #145291",
"V 	c #055EB8",
"W 	c #4497EA",
"X 	c #E0EEF7",
"Y 	c #2564A4",
"Z 	c #095098",
"` 	c #0A72DC",
" .	c #214B77",
"..	c #0E3E6E",
"+.	c #0F559C",
"@.	c #076BE6",
"#.	c #0046BC",
"$.	c #0087FC",
"%.	c #2263A5",
"&.	c #054E98",
"*.	c #0671DF",
"=.	c #154F8B",
"-.	c #096ACC",
";.	c #163E65",
">.	c #0F5091",
",.	c #0444B2",
"'.	c #0077F7",
").	c #114D8B",
"!.	c #0569CE",
"~.	c #2C6AA9",
"{.	c #0D5196",
"].	c #0A74E0",
"^.	c #6FA9E1",
"/.	c #26507A",
"(.	c #113F6D",
"_.	c #0F569E",
":.	c #4477A9",
"<.	c #0D77EF",
"[.	c #0046C0",
"}.	c #008BFF",
"|.	c #6ABCFD",
"1.	c #2969AA",
"2.	c #094F96",
"3.	c #0673E2",
"4.	c #286098",
"5.	c #095AAB",
"6.	c #A2C2E1",
"7.	c #C0D2E1",
"8.	c #1E7FE1",
"9.	c #79AEE1",
"0.	c #23496F",
"a.	c #0F457B",
"b.	c #497AAA",
"c.	c #1A5DA1",
"d.	c #6E90B0",
"e.	c #5E86AD",
"f.	c #1063CF",
"g.	c #0058DE",
"h.	c #75C1FD",
"i.	c #1596FF",
"j.	c #BFE2FB",
"k.	c #9FD4FC",
"l.	c #255E98",
"m.	c #0558AC",
"n.	c #C1DCF4",
"o.	c #1B80E6",
"p.	c #3A91E9",
"q.	c #A2CBF2",
"r.	c #265A8E",
"s.	c #095FB7",
"t.	c #5B9EE1",
"u.	c #F3ECE1",
"v.	c #224568",
"w.	c #0E4883",
"x.	c #88A0B5",
"y.	c #3970A7",
"z.	c #1059BB",
"A.	c #0063D2",
"B.	c #F4FAFA",
"C.	c #55B2FD",
"D.	c #23588E",
"E.	c #ACD1F3",
"F.	c #308BE8",
"G.	c #E9E7E1",
"H.	c #829DB4",
"I.	c #EAF5FA",
"J.	c #4F9DEA",
"K.	c #EAF3F8",
"L.	c #CBE2F5",
"M.	c #F5F9F9",
"N.	c #D6E8F6",
"O.	c #CAD7E1",
"P.	c #7393B1",
"Q.	c #CAE7FB",
"R.	c #6EAEED",
"S.	c #2884E1",
"T.	c #D4DCE1",
"U.	c #7896B2",
"V.	c #1F60A2",
"W.	c #D4ECFB",
"X.	c #209AFE",
"Y.	c #2585E7",
"Z.	c #97C5F1",
"`.	c #8DBFF0",
" +	c #107AE5",
".+	c #DFE2E1",
"++	c #7D9AB3",
"@+	c #3D8FE1",
"#+	c #2967A4",
"$+	c #35A4FE",
"              . + @ @ + .                             # $ % % $ #                             & * = = * &                             - ; > > ; -               ",
"          , ' ) ! ~ ~ ! ) ' ,                     { ] ^ / ( ( / ^ ] {                     _ : < [ } } [ < : _                     | 1 2 3 4 4 3 2 1 |           ",
"        5 6 7 8 8 8 8 8 8 7 6 5                 9 0 a b b b b b b a 0 9                 c d e f f f f f f e d c                 g h i j j j j j j i h g         ",
"      k l m 8 8 n o o p 8 8 m l k             q r s b b t u u v b b s r q             w x y f f z A A B f f y x w             C D E j j j j j j j j E D C       ",
"    F G 8 8 8 8 H I I J 8 8 8 8 G F         K L b b b b M N N O b b b b L K         P Q f f f f R S S T f f f f Q P         U V j j j j W S S X j j j j V U     ",
"  Y Z ` 8 8 8 8 H I I J 8 8 8 8 ` Z Y      ...+.b b b b M N N O b b b b +... .    @.#.$.f f f f R S S T f f f f $.#.@.    %.&.*.j j j j W S S X j j j j *.&.%.  ",
"  =.-.8 8 8 8 8 H I I J 8 8 8 8 8 -.=.    ;.>.b b b b b M N N O b b b b b >.;.    ,.'.f f f f f R S S T f f f f f '.,.    ).!.j j j j j W S S X j j j j j !.).  ",
"~.{.].8 ^.8 8 8 H I I J 8 8 ^.8 8 ].{.~./.(._.b b :.b b M N N O b b b :.b _.(./.<.[.}.f f |.f f R S S T f f f |.f }.[.<.1.2.3.j j j j j W S S X j j j j j 3.2.1.",
"4.5.8 8 6.7.8.8 H I I J 8 9.I 8 8 8 5.4.0.a.b b b N b.b M N N O b c.d.e.b b a.0.f.g.f f f S h.f R S S T f i.j.k.f f g.f.l.m.j j j n.o.j W S S X j j p.q.j j m.l.",
"r.s.8 8 6.I o 8 H I I J t.u.I 8 8 8 s.r.v.w.b b b N x.y.M N N O b u N e.b b w.v.z.A.f f f S B.C.R S S T f A S k.f f A.z.D.V j j j S E.j W S S X j F.X q.j j V D.",
"r.s.8 8 6.I I o G.I I n I I I 8 8 8 s.r.v.w.b b b N N N v N N H.u N N e.b b w.v.z.A.f f f S S S B S S I.A S S k.f f A.z.D.V j j j S S E.J.S S X F.K.S q.j j V D.",
"4.5.8 8 6.I I I I I I I I I I 8 8 8 5.4.0.a.b b b N N N N N N N N N N e.b b a.0.f.g.f f f S S S S S S S S S S k.f f g.f.l.m.j j j S S S L.S S M.N.S S q.j j m.l.",
"~.{.].8 8 O.I I I I I I I G.J 8 8 ].{.~./.(._.b b M H.N N N N N N N P.b b _.(./.<.[.}.f f R I.S S S S S S S Q.f f }.[.<.1.2.3.j j L.S S S S S S S S S R.j 3.2.1.",
"  =.-.8 8 S.T.I I I I I I t.8 8 8 -.=.    ;.>.b b b y.N N N N N N U.V.b b >.;.    ,.'.f f f C.S S S S S S W.X.f f '.,.    ).!.j j Y.N.S S S S S S S Z.j j !.).  ",
"  Y Z ` 8 8 8.T.I I I u.t.8 8 8 ` Z Y      ...+.b b b y.x.N N N U.c.b b +... .    @.#.$.f f f C.B.S S S W.i.f f $.#.@.    %.&.*.j j o.N.S S S S S `.j j *.&.%.  ",
"    F G 8 8 8 p G.I I 9.8 8 8 8 G F         K L b b b b b.N N H.t b b b L K         P Q f f f f h.S S I.z f f f Q P         U V j j j F.K.S S S E. +j j V U     ",
"      k l m 8 8 p .+^.8 8 8 m l k             q r s b b b :.++t b b s r q             w x y f f f |.T z f f y x w             C D E j j F.X S E.j j E D C       ",
"        5 6 7 8 8 @+8 8 8 7 6 5                 9 0 a b b b #+b b a 0 9                 c d e f f f $+f f e d c                 g h i j j p.n.o.j i h g         ",
"          , ' ) ! ~ ~ ! ) ' ,                     { ] ^ / ( ( / ^ ] {                     _ : < [ } } [ < : _                     | 1 2 3 4 4 3 2 1 |           ",
"              . + @ @ + .                             # $ % % $ #                             & * = = * &                             - ; > > ; -               "};
