/* XPM */
static char * EXTNAVPREVIOUST_xpm[] = {
"80 20 153 2",
"  	c None",
". 	c #2A67A6",
"+ 	c #2A629B",
"@ 	c #285D92",
"# 	c #244E78",
"$ 	c #254A70",
"% 	c #23476A",
"& 	c #0C71EA",
"* 	c #1167D3",
"= 	c #115FC1",
"- 	c #2766A6",
"; 	c #27609B",
"> 	c #255B92",
", 	c #2565A6",
"' 	c #174F89",
") 	c #0E4F92",
"! 	c #0A55A1",
"~ 	c #0859AB",
"{ 	c #214C78",
"] 	c #183E64",
"^ 	c #123D6A",
"/ 	c #0F4174",
"( 	c #0E447B",
"_ 	c #046DE9",
": 	c #0444B1",
"< 	c #0043C3",
"[ 	c #004FD0",
"} 	c #0058C1",
"| 	c #2263A6",
"1 	c #144E89",
"2 	c #0A4D91",
"3 	c #0653A1",
"4 	c #0457AC",
"5 	c #195796",
"6 	c #084F98",
"7 	c #0968C8",
"8 	c #0A75E1",
"9 	c #19436D",
"0 	c #0D3D6E",
"a 	c #0E4E8F",
"b 	c #0F579F",
"c 	c #0352C9",
"d 	c #0043BC",
"e 	c #0073F6",
"f 	c #008CFF",
"g 	c #165596",
"h 	c #044D98",
"i 	c #0567CB",
"j 	c #0674E4",
"k 	c #14508E",
"l 	c #095AAC",
"m 	c #0A71DA",
"n 	c #163E67",
"o 	c #0F457C",
"p 	c #0F549B",
"q 	c #0046BA",
"r 	c #0058D2",
"s 	c #0085FF",
"t 	c #104E8E",
"u 	c #0558AD",
"v 	c #0670DD",
"w 	c #185491",
"x 	c #0960B7",
"y 	c #3D8FE1",
"z 	c #18406A",
"A 	c #0F4983",
"B 	c #2967A4",
"C 	c #014CC0",
"D 	c #0063E0",
"E 	c #35A4FE",
"F 	c #145291",
"G 	c #055EB8",
"H 	c #3A91E9",
"I 	c #2564A4",
"J 	c #095098",
"K 	c #0A72DC",
"L 	c #4794E1",
"M 	c #CAD7E1",
"N 	c #214B77",
"O 	c #0E3E6E",
"P 	c #0F559C",
"Q 	c #2E6AA5",
"R 	c #7393B1",
"S 	c #076BE6",
"T 	c #0046BC",
"U 	c #0087FC",
"V 	c #40A9FE",
"W 	c #CAE7FB",
"X 	c #2263A5",
"Y 	c #054E98",
"Z 	c #0671DF",
"` 	c #4497EA",
" .	c #CBE2F5",
"..	c #154F8B",
"+.	c #096ACC",
"@.	c #FDF1E1",
"#.	c #DFE1E1",
"$.	c #163E65",
"%.	c #0F5091",
"&.	c #8DA3B6",
"*.	c #7D99B3",
"=.	c #0444B2",
"-.	c #0077F7",
";.	c #FFFFFA",
">.	c #DFF1FB",
",.	c #114D8B",
"'.	c #0569CE",
").	c #E0EEF7",
"!.	c #2C6AA9",
"~.	c #0D5196",
"{.	c #0A74E0",
"].	c #328AE1",
"^.	c #DFE2E1",
"/.	c #26507A",
"(.	c #113F6D",
"_.	c #0F569E",
":.	c #2464A3",
"<.	c #7D9AB3",
"[.	c #0D77EF",
"}.	c #0046C0",
"|.	c #008BFF",
"1.	c #2A9FFE",
"2.	c #2969AA",
"3.	c #094F96",
"4.	c #0673E2",
"5.	c #308BE8",
"6.	c #286098",
"7.	c #095AAB",
"8.	c #E9E7E1",
"9.	c #23496F",
"0.	c #0F457B",
"a.	c #829DB4",
"b.	c #1063CF",
"c.	c #0058DE",
"d.	c #EAF5FA",
"e.	c #255E98",
"f.	c #0558AC",
"g.	c #EAF3F8",
"h.	c #265A8E",
"i.	c #095FB7",
"j.	c #1E7FE1",
"k.	c #D4DCE1",
"l.	c #224568",
"m.	c #0E4883",
"n.	c #1A5DA1",
"o.	c #7896B2",
"p.	c #1059BB",
"q.	c #0063D2",
"r.	c #1596FF",
"s.	c #D4ECFB",
"t.	c #23588E",
"u.	c #1B80E6",
"v.	c #D6E8F6",
"              . + @ @ + .                             # $ % % $ #                             & * = = * &                             - ; > > ; -               ",
"          , ' ) ! ~ ~ ! ) ' ,                     { ] ^ / ( ( / ^ ] {                     _ : < [ } } [ < : _                     | 1 2 3 4 4 3 2 1 |           ",
"        5 6 7 8 8 8 8 8 8 7 6 5                 9 0 a b b b b b b a 0 9                 c d e f f f f f f e d c                 g h i j j j j j j i h g         ",
"      k l m 8 8 8 8 8 8 8 8 m l k             n o p b b b b b b b b p o n             q r s f f f f f f f f s r q             t u v j j j j j j j j v u t       ",
"    w x 8 8 8 8 8 8 8 y 8 8 8 8 x w         z A b b b b b b b B b b b b A z         C D f f f f f f f E f f f f D C         F G j j j j j j j H j j j j G F     ",
"  I J K 8 8 8 8 8 8 L M 8 8 8 8 K J I     N O P b b b b b b Q R b b b b P O N     S T U f f f f f f V W f f f f U T S     X Y Z j j j j j j `  .j j j j Z Y X   ",
"  ..+.8 8 8 8 8 8 y @.#.8 8 8 8 8 +...    $.%.b b b b b b B &.*.b b b b b %.$.    =.-.f f f f f f E ;.>.f f f f f -.=.    ,.'.j j j j j j H ;.).j j j j j '.,.  ",
"!.~.{.8 8 8 8 8 ].^.@.#.8 8 8 8 8 {.~.!./.(._.b b b b b :.<.&.*.b b b b b _.(./.[.}.|.f f f f f 1.>.;.>.f f f f f |.}.[.2.3.4.j j j j j 5.).;.).j j j j j 4.3.2.",
"6.7.8 8 8 8 8 ].8.@.@.#.8 8 8 8 8 8 7.6.9.0.b b b b b :.a.&.&.*.b b b b b b 0.9.b.c.f f f f f 1.d.;.;.>.f f f f f f c.b.e.f.j j j j j 5.g.;.;.).j j j j j j f.e.",
"h.i.8 8 8 8 j.k.@.@.@.#.8 8 8 8 8 8 i.h.l.m.b b b b n.o.&.&.&.*.b b b b b b m.l.p.q.f f f f r.s.;.;.;.>.f f f f f f q.p.t.G j j j j u.v.;.;.;.).j j j j j j G t.",
"h.i.8 8 8 8 j.k.@.@.@.#.8 8 8 8 8 8 i.h.l.m.b b b b n.o.&.&.&.*.b b b b b b m.l.p.q.f f f f r.s.;.;.;.>.f f f f f f q.p.t.G j j j j u.v.;.;.;.).j j j j j j G t.",
"6.7.8 8 8 8 8 ].8.@.@.#.8 8 8 8 8 8 7.6.9.0.b b b b b :.a.&.&.*.b b b b b b 0.9.b.c.f f f f f 1.d.;.;.>.f f f f f f c.b.e.f.j j j j j 5.g.;.;.).j j j j j j f.e.",
"!.~.{.8 8 8 8 8 ].^.@.#.8 8 8 8 8 {.~.!./.(._.b b b b b :.<.&.*.b b b b b _.(./.[.}.|.f f f f f 1.>.;.>.f f f f f |.}.[.2.3.4.j j j j j 5.).;.).j j j j j 4.3.2.",
"  ..+.8 8 8 8 8 8 y @.#.8 8 8 8 8 +...    $.%.b b b b b b B &.*.b b b b b %.$.    =.-.f f f f f f E ;.>.f f f f f -.=.    ,.'.j j j j j j H ;.).j j j j j '.,.  ",
"  I J K 8 8 8 8 8 8 L M 8 8 8 8 K J I     N O P b b b b b b Q R b b b b P O N     S T U f f f f f f V W f f f f U T S     X Y Z j j j j j j `  .j j j j Z Y X   ",
"    w x 8 8 8 8 8 8 8 y 8 8 8 8 x w         z A b b b b b b b B b b b b A z         C D f f f f f f f E f f f f D C         F G j j j j j j j H j j j j G F     ",
"      k l m 8 8 8 8 8 8 8 8 m l k             n o p b b b b b b b b p o n             q r s f f f f f f f f s r q             t u v j j j j j j j j v u t       ",
"        5 6 7 8 8 8 8 8 8 7 6 5                 9 0 a b b b b b b a 0 9                 c d e f f f f f f e d c                 g h i j j j j j j i h g         ",
"          , ' ) ! ~ ~ ! ) ' ,                     { ] ^ / ( ( / ^ ] {                     _ : < [ } } [ < : _                     | 1 2 3 4 4 3 2 1 |           ",
"              . + @ @ + .                             # $ % % $ #                             & * = = * &                             - ; > > ; -               "};
