/* XPM */
static char * EXTNAVSETBOOKMARKT_xpm[] = {
"80 20 506 2",
"  	c None",
". 	c #2A67A6",
"+ 	c #2A629B",
"@ 	c #285D92",
"# 	c #254E78",
"$ 	c #244A70",
"% 	c #23476A",
"& 	c #0C71EB",
"* 	c #1167D3",
"= 	c #115FC2",
"- 	c #2866A7",
"; 	c #27609C",
"> 	c #255B92",
", 	c #2565A6",
"' 	c #164F89",
") 	c #0D4F92",
"! 	c #0954A1",
"~ 	c #0859AA",
"{ 	c #214B77",
"] 	c #183D63",
"^ 	c #123E6A",
"/ 	c #0E4174",
"( 	c #0E447B",
"_ 	c #046DE8",
": 	c #0444B1",
"< 	c #0044C1",
"[ 	c #0051CD",
"} 	c #0057C2",
"| 	c #2263A6",
"1 	c #154E89",
"2 	c #0B4D91",
"3 	c #0653A2",
"4 	c #0558AC",
"5 	c #195796",
"6 	c #064E97",
"7 	c #0868C8",
"8 	c #0A75E1",
"9 	c #1774CE",
"0 	c #858357",
"a 	c #87804D",
"b 	c #19436D",
"c 	c #0E3E6F",
"d 	c #0F4E8E",
"e 	c #0F579F",
"f 	c #175A9C",
"g 	c #667E98",
"h 	c #597794",
"i 	c #16599D",
"j 	c #0351CC",
"k 	c #0042B9",
"l 	c #0074F4",
"m 	c #008CFF",
"n 	c #0E8BEA",
"o 	c #8E9265",
"p 	c #8C8D5C",
"q 	c #0E8AEA",
"r 	c #008BFF",
"s 	c #165696",
"t 	c #064E98",
"u 	c #0667C9",
"v 	c #0674E4",
"w 	c #1475D2",
"x 	c #908C5E",
"y 	c #8D8755",
"z 	c #14518E",
"A 	c #095AAB",
"B 	c #0A71DA",
"C 	c #3074A9",
"D 	c #CDB881",
"E 	c #D2B45F",
"F 	c #3073A9",
"G 	c #163E67",
"H 	c #0F559B",
"I 	c #265F97",
"J 	c #BABFC5",
"K 	c #ACB5BD",
"L 	c #245E98",
"M 	c #0048BB",
"N 	c #005AD4",
"O 	c #0085FE",
"P 	c #2B88C1",
"Q 	c #DBC58B",
"R 	c #D7BD70",
"S 	c #005CD4",
"T 	c #114E8D",
"U 	c #0659AE",
"V 	c #0671DE",
"W 	c #3076AD",
"X 	c #175492",
"Y 	c #0960B7",
"Z 	c #4F727A",
"` 	c #D9C37A",
" .	c #D6B55D",
"..	c #19416A",
"+.	c #0F4984",
"@.	c #3A6591",
"#.	c #C3C6CA",
"$.	c #B8BFC5",
"%.	c #356492",
"&.	c #004CC0",
"*.	c #0064DF",
"=.	c #4F848E",
"-.	c #DFCC89",
";.	c #DEC46B",
">.	c #0065DF",
",.	c #145190",
"'.	c #065EB8",
").	c #53777F",
"!.	c #2463A4",
"~.	c #095098",
"{.	c #0A72DC",
"].	c #967E35",
"^.	c #E2D086",
"/.	c #DEC558",
"(.	c #957925",
"_.	c #224B77",
":.	c #0F3E6E",
"<.	c #0F559C",
"[.	c #738292",
"}.	c #D7D8D9",
"|.	c #C7CBCF",
"1.	c #637A90",
"2.	c #0768E8",
"3.	c #0045BC",
"4.	c #0086FC",
"5.	c #A18C40",
"6.	c #EEDC94",
"7.	c #ECD261",
"8.	c #A0872F",
"9.	c #0087FC",
"0.	c #2363A4",
"a.	c #074F99",
"b.	c #0671DF",
"c.	c #A2893C",
"d.	c #A0842C",
"e.	c #144F8B",
"f.	c #096ACC",
"g.	c #A18940",
"h.	c #F1DD7A",
"i.	c #ECCE40",
"j.	c #9E8326",
"k.	c #163E65",
"l.	c #0E5090",
"m.	c #7E8D9C",
"n.	c #E3E3E3",
"o.	c #D1D1D1",
"p.	c #6F8396",
"q.	c #0444B2",
"r.	c #0079FB",
"s.	c #AB974C",
"t.	c #FDE886",
"u.	c #F9DA4A",
"v.	c #A89131",
"w.	c #124E8B",
"x.	c #066ACE",
"y.	c #AB9448",
"z.	c #A88E2E",
"A.	c #2B6AAA",
"B.	c #0C5197",
"C.	c #0A74E0",
"D.	c #A38C3E",
"E.	c #F3D95E",
"F.	c #F2CE23",
"G.	c #A58922",
"H.	c #26507A",
"I.	c #113F6C",
"J.	c #0F569E",
"K.	c #808E9E",
"L.	c #DEDEDE",
"M.	c #D0D0D0",
"N.	c #74879B",
"O.	c #0D75F0",
"P.	c #0045C0",
"Q.	c #AC9849",
"R.	c #FFE369",
"S.	c #FEDA2F",
"T.	c #AE972C",
"U.	c #2869AB",
"V.	c #0A4F96",
"W.	c #0674E3",
"X.	c #AD9546",
"Y.	c #AF9428",
"Z.	c #0A4F95",
"`.	c #2969AA",
" +	c #286098",
".+	c #085AAC",
"++	c #2374BC",
"@+	c #A88C3E",
"#+	c #BF9D44",
"$+	c #BE9A3C",
"%+	c #BC962C",
"&+	c #E1C356",
"*+	c #F3CF2D",
"=+	c #F3C90F",
"-+	c #DCB720",
";+	c #BC9320",
">+	c #BC952D",
",+	c #BD942D",
"'+	c #BD9524",
")+	c #567B81",
"!+	c #23496F",
"~+	c #0E457C",
"{+	c #1D5C9A",
"]+	c #7C8A99",
"^+	c #9BA1A7",
"/+	c #999FA5",
"(+	c #969CA2",
"_+	c #BEC2C7",
":+	c #D3D3D3",
"<+	c #CFCFCF",
"[+	c #ACB3BA",
"}+	c #8B96A1",
"|+	c #8E99A4",
"1+	c #8794A0",
"2+	c #3B6A98",
"3+	c #1063CF",
"4+	c #0055DA",
"5+	c #1D89D7",
"6+	c #B2994A",
"7+	c #C8A74F",
"8+	c #C8A64D",
"9+	c #C7A341",
"0+	c #C8A236",
"a+	c #EACC62",
"b+	c #FFDB3A",
"c+	c #FFD51B",
"d+	c #E7C02A",
"e+	c #C89F28",
"f+	c #C8A136",
"g+	c #C8A12D",
"h+	c #568D95",
"i+	c #255E98",
"j+	c #0659AC",
"k+	c #2275C1",
"l+	c #B29748",
"m+	c #598086",
"n+	c #265A8E",
"o+	c #095FB7",
"p+	c #AB9247",
"q+	c #E1D092",
"r+	c #F8F5BC",
"s+	c #F5E691",
"t+	c #F3DA64",
"u+	c #F3D338",
"v+	c #F3CA13",
"w+	c #F3CD1F",
"x+	c #F3D746",
"y+	c #F4DC6E",
"z+	c #F3E28A",
"A+	c #F4E281",
"B+	c #D4B440",
"C+	c #224669",
"D+	c #0E4984",
"E+	c #81909F",
"F+	c #D5D8DC",
"G+	c #F4F4F4",
"H+	c #EAEAEA",
"I+	c #D7D7D7",
"J+	c #DADADA",
"K+	c #E1E1E1",
"L+	c #E7E7E7",
"M+	c #A0ABB6",
"N+	c #0E4983",
"O+	c #1059BB",
"P+	c #0062D2",
"Q+	c #B6A154",
"R+	c #EFE4A3",
"S+	c #FBF8C8",
"T+	c #FDEC9D",
"U+	c #FFE76F",
"V+	c #FFDF42",
"W+	c #FFD61E",
"X+	c #FFD92D",
"Y+	c #FFE354",
"Z+	c #FFE778",
"`+	c #FEEE96",
" @	c #FFEF8D",
".@	c #E2C14C",
"+@	c #24588E",
"@@	c #055EB7",
"#@	c #B79F52",
"$@	c #727550",
"%@	c #C8A945",
"&@	c #EACD59",
"*@	c #F3D034",
"=@	c #F3CA16",
"-@	c #F3CB1C",
";@	c #F3D545",
">@	c #F3DE66",
",@	c #F3E388",
"'@	c #E6D372",
")@	c #A49D5B",
"!@	c #497283",
"~@	c #0E4883",
"{@	c #1F5C9A",
"]@	c #516F8D",
"^@	c #A6ACB4",
"/@	c #D2D3D4",
"(@	c #D5D5D5",
"_@	c #CDCDCD",
":@	c #D9D9D9",
"<@	c #E0E0E0",
"[@	c #C7CDD3",
"}@	c #7690AA",
"|@	c #326394",
"1@	c #1D88D6",
"2@	c #77865F",
"3@	c #D6B352",
"4@	c #F6DA65",
"5@	c #FFDD3F",
"6@	c #FFD620",
"7@	c #FFD82A",
"8@	c #FFE252",
"9@	c #FFEA73",
"0@	c #FEEF95",
"a@	c #F2E07F",
"b@	c #A8AB6C",
"c@	c #488598",
"d@	c #2275BF",
"e@	c #797E56",
"f@	c #A9A666",
"g@	c #4C7788",
"h@	c #657362",
"i@	c #BC9017",
"j@	c #E8C018",
"k@	c #F3CB1A",
"l@	c #F3D139",
"m@	c #F3DB60",
"n@	c #F3E37F",
"o@	c #E5CE6F",
"p@	c #9B8A42",
"q@	c #1E77C6",
"r@	c #0E447A",
"s@	c #476B8E",
"t@	c #8D949C",
"u@	c #BEC2C4",
"v@	c #CECECD",
"w@	c #DFDFDF",
"x@	c #E6E6E6",
"y@	c #C8CDD1",
"z@	c #6A839B",
"A@	c #1B5C9D",
"B@	c #688471",
"C@	c #C79C23",
"D@	c #F4CC26",
"E@	c #FFD729",
"F@	c #FFDE46",
"G@	c #FFE76C",
"H@	c #FFEE8B",
"I@	c #ECD87C",
"J@	c #A39850",
"K@	c #178BE2",
"L@	c #6A7A66",
"M@	c #A4944C",
"N@	c #1C76CA",
"O@	c #3F769A",
"P@	c #D4AE2C",
"Q@	c #F3D33A",
"R@	c #F3DA5A",
"S@	c #F3E288",
"T@	c #D4B646",
"U@	c #3F7699",
"V@	c #316397",
"W@	c #ACB1B6",
"X@	c #AEB6BE",
"Y@	c #2D6398",
"Z@	c #3C8AB2",
"`@	c #E0BA37",
" #	c #FFDF46",
".#	c #FFE664",
"+#	c #FFEF8B",
"@#	c #FEEF94",
"##	c #E0C14F",
"$#	c #3C89AF",
"%#	c #407AA0",
"&#	c #40799D",
"*#	c #8C8C5A",
"=#	c #EFD249",
"-#	c #F3DA54",
";#	c #F0DD6E",
">#	c #F0E298",
",#	c #F4E48B",
"'#	c #EED355",
")#	c #888445",
"!#	c #6B849D",
"~#	c #D2D4D6",
"{#	c #DDDDDD",
"]#	c #E9E9E9",
"^#	c #5F7C99",
"/#	c #979D65",
"(#	c #FBDE54",
"_#	c #FFE55E",
":#	c #FCE778",
"<#	c #FAEEA5",
"[#	c #FFF196",
"}#	c #FBE060",
"|#	c #8F9054",
"1#	c #99975E",
"2#	c #908A4D",
"3#	c #114D8A",
"4#	c #43738D",
"5#	c #D2B043",
"6#	c #F3DC54",
"7#	c #E3CA57",
"8#	c #938946",
"9#	c #9B904F",
"0#	c #ECDD9E",
"a#	c #F4E061",
"b#	c #CBA41B",
"c#	c #326393",
"d#	c #C7CCD1",
"e#	c #6D849B",
"f#	c #748BA1",
"g#	c #D8DCE0",
"h#	c #959FA9",
"i#	c #2E6194",
"j#	c #4186A2",
"k#	c #DFBE4E",
"l#	c #FFE85F",
"m#	c #F0D663",
"n#	c #9B9757",
"o#	c #A09E5E",
"p#	c #F5E7A8",
"q#	c #FFEA70",
"r#	c #D5AD25",
"s#	c #4186A3",
"t#	c #457792",
"u#	c #9C9252",
"v#	c #A29959",
"w#	c #8B7F3F",
"x#	c #E3C955",
"y#	c #E6D053",
"z#	c #9B8A3C",
"A#	c #1D74C5",
"B#	c #1E76C7",
"C#	c #A5964E",
"D#	c #EFDF94",
"E#	c #DFC136",
"F#	c #877931",
"G#	c #667D94",
"H#	c #C8CBCE",
"I#	c #CACED2",
"J#	c #74889C",
"K#	c #1B5B9B",
"L#	c #1C5D9D",
"M#	c #7E91A4",
"N#	c #DFE2E6",
"O#	c #C0C3C6",
"P#	c #59748F",
"Q#	c #948E4F",
"R#	c #F0D461",
"S#	c #F3D961",
"T#	c #A4984A",
"U#	c #168AE0",
"V#	c #178CE3",
"W#	c #ADA55C",
"X#	c #FBEAA2",
"Y#	c #EBCB44",
"Z#	c #908A41",
"`#	c #958949",
" $	c #A59446",
".$	c #1B75C8",
"+$	c #1C77CC",
"@$	c #AEA157",
"#$	c #92853B",
"$$	c #BF9833",
"%$	c #DFC352",
"&$	c #968237",
"*$	c #1775CE",
"=$	c #9E8C36",
"-$	c #E2CB79",
";$	c #B98A0F",
">$	c #989FA6",
",$	c #C2C7CD",
"'$	c #6E8297",
")$	c #175A9D",
"!$	c #C4CACF",
"~$	c #7D8995",
"{$	c #0047BB",
"]$	c #CCA63C",
"^$	c #EAD05E",
"/$	c #9F9245",
"($	c #0F8CEB",
"_$	c #A89B46",
":$	c #ECD583",
"<$	c #C39619",
"[$	c #A08E40",
"}$	c #1576D3",
"|$	c #A89741",
"1$	c #68653E",
"2$	c #A07E22",
"3$	c #A2801B",
"4$	c #676033",
"5$	c #4F6277",
"6$	c #707F8F",
"7$	c #6D7C8C",
"8$	c #455A70",
"9$	c #6E604A",
"0$	c #A98B2D",
"a$	c #1D89D6",
"b$	c #AC8C25",
"c$	c #6C5C40",
"d$	c #706D43",
"e$	c #AA892B",
"f$	c #AC8A22",
"g$	c #6E6838",
"              . + @ @ + .                             # $ % % $ #                             & * = = * &                             - ; > > ; -               ",
"          , ' ) ! ~ ~ ! ) ' ,                     { ] ^ / ( ( / ^ ] {                     _ : < [ } } [ < : _                     | 1 2 3 4 4 3 2 1 |           ",
"        5 6 7 8 9 0 a 9 8 7 6 5                 b c d e f g h i e d c b                 j k l m n o p q r l k j                 s t u v w x y w v u t s         ",
"      z A B 8 8 C D E F 8 8 B A z             G ( H e e I J K L e e H ( G             M N O m m P Q R P m m O S M             T U V v v W Q R W v v V U T       ",
"    X Y 8 8 8 8 Z `  .Z 8 8 8 8 Y X         ..+.e e e e @.#.$.%.e e e e +...        &.*.m m m m =.-.;.=.m m m r >.&.        ,.'.v v v v ).-.;.).v v v v '.,.    ",
"  !.~.{.8 8 8 8 ].^./.(.8 8 8 8 {.~.!.    _.:.<.e e e e [.}.|.1.e e e e <.:._.    2.3.4.m m m m 5.6.7.8.m m m m 9.3.2.    0.a.b.v v v v c.6.7.d.v v v v b.a.0.  ",
"  e.f.8 8 8 8 8 g.h.i.j.8 8 8 8 8 f.e.    k.l.e e e e e m.n.o.p.e e e e e l.k.    q.r.m m m m m s.t.u.v.m m m m m r.q.    w.x.v v v v v y.t.u.z.v v v v v x.w.  ",
"A.B.C.8 8 8 8 8 D.E.F.G.8 8 8 8 8 C.B.A.H.I.J.e e e e e K.L.M.N.e e e e e J.I.H.O.P.r m m m m m Q.R.S.T.m m m m m r P.O.U.V.W.v v v v v X.R.S.Y.v v v v v W.Z.`.",
" +.+++@+#+#+$+%+&+*+=+-+;+>+,+'+)+8 .+ +!+~+{+]+^+^+/+(+_+:+<+[+}+|+|+1+2+e ~+!+3+4+5+6+7+8+9+0+a+b+c+d+e+f+0+g+h+m 4+3+i+j+k+l+7+8+9+0+a+b+c+d+e+f+0+g+m+v j+i+",
"n+o+++p+q+r+s+t+u+v+w+x+y+z+A+B+)+8 o+n+C+D+{+E+F+G+H+L.I+<+o.J+K+L+L+M+2+e N+C+O+P+5+Q+R+S+T+U+V+W+X+Y+Z+`+ @.@h+m P+O++@@@k+#@R+S+T+U+V+W+X+Y+Z+`+ @.@m+v @@+@",
"n+o+8 ++$@%@&@*@=@-@;@>@,@'@)@!@8 8 o+n+C+~@e {@]@^@/@(@_@M.:@<@L+[@}@|@e e N+C+O+P+m 1@2@3@4@5@6@7@8@9@0@a@b@c@m m P+O++@@@v d@e@3@4@5@6@7@8@9@0@a@f@g@v v @@+@",
" +.+8 8 8 h@i@j@k@l@m@n@o@p@q@8 8 8 .+ +!+r@e e e s@t@u@v@(@w@x@y@z@A@e e e ~+!+3+4+m m m B@C@D@E@F@G@H@I@J@K@m m m 4+3+i+j+v v v L@C@D@E@F@G@H@I@M@N@v v v j+i+",
"A.B.C.8 8 8 O@P@Q@R@n@S@T@U@8 8 8 C.B.A.H.I.J.e e e V@W@I+L.L+L+X@Y@e e e J.I.H.O.P.r m m m Z@`@ #.#+#@###$#m m m r P.O.`.Z.W.v v v %#`@ #.#+#@###&#v v v W.Z.`.",
"  e.f.8 8 8 *#=#-#;#>#,#'#)#8 8 8 f.e.    k.l.e e e !#~#{#L.]#H+~#^#e e e l.k.    q.r.m m m /#(#_#:#<#[#}#|#m m m r.q.    w.x.v v v 1#(#_#:#<#[#}#2#v v v x.3#  ",
"  !.~.{.8 4#5#6#7#8#9#0#a#b#4#8 {.~.!.    _.:.<.e c#[+<@d#e#f#g#n.h#i#e <.:._.    2.3.9.m j#k#l#m#n#o#p#q#r#s#m 9.3.2.    0.a.b.v t#k#l#m#u#v#p#q#r#t#v b.a.0.  ",
"    X Y 8 w#x#y#z#A#B#C#D#E#F#8 Y X         ..+.e G#H#I#J#K#L#M#N#O#P#e +...        &.>.m Q#R#S#T#U#V#W#X#Y#Z#m >.&.        ,.'.v `#R#S# $.$+$@$X#Y##$v '.,.    ",
"      z A $$%$&$9 8 8 *$=$-$;$A z             G ( >$,$'$f e e )$N.!$~$( G             {$N ]$^$/$n m m ($_$:$<$S {$            T U ]$^$[$w v v }$|$:$<$U T       ",
"        5 1$2$++8 8 8 8 ++3$4$5                 b 5$6${@e e e e {@7$8$b                 j 9$0$a$m m m m 5+b$c$j                 s d$e$d@v v v v k+f$g$s         ",
"          , ' ) ! ~ ~ ! ) ' ,                     { ] ^ / ( ( / ^ ] {                     _ : < [ } } [ < : _                     | 1 2 3 4 4 3 2 1 |           ",
"              . + @ @ + .                             # $ % % $ #                             & * = = * &                             - ; > > ; -               "};
