/* XPM */
static char * EXTNAVREFRESHT_xpm[] = {
"80 20 722 2",
"  	c None",
". 	c #2A67A6",
"+ 	c #2A629B",
"@ 	c #285D92",
"# 	c #254E78",
"$ 	c #254A71",
"% 	c #23476A",
"& 	c #0C70EC",
"* 	c #1167D4",
"= 	c #115FC2",
"- 	c #2866A6",
"; 	c #27609B",
"> 	c #265B91",
", 	c #2565A6",
"' 	c #164F89",
") 	c #0D4F92",
"! 	c #09539F",
"~ 	c #0859AA",
"{ 	c #0859AC",
"] 	c #0953A0",
"^ 	c #214B77",
"/ 	c #183E64",
"( 	c #123E6A",
"_ 	c #0F4275",
": 	c #0E447B",
"< 	c #046BE9",
"[ 	c #0443B1",
"} 	c #0043BE",
"| 	c #0051CD",
"1 	c #0058C2",
"2 	c #2263A6",
"3 	c #154E89",
"4 	c #0B4D90",
"5 	c #06529F",
"6 	c #0558AC",
"7 	c #185796",
"8 	c #064E98",
"9 	c #0867C7",
"0 	c #1279DF",
"a 	c #3181CB",
"b 	c #3C82C0",
"c 	c #2E83D0",
"d 	c #19436C",
"e 	c #0E3D6D",
"f 	c #0F4E8E",
"g 	c #165B9F",
"h 	c #26619B",
"i 	c #296098",
"j 	c #286199",
"k 	c #23619E",
"l 	c #0352CC",
"m 	c #0043BB",
"n 	c #0074F6",
"o 	c #098FFC",
"p 	c #2E98E6",
"q 	c #3C98D5",
"r 	c #3A97D6",
"s 	c #2796E9",
"t 	c #175696",
"u 	c #054E99",
"v 	c #0667CA",
"w 	c #0E78E4",
"x 	c #3284CE",
"y 	c #3F86C0",
"z 	c #4086C2",
"A 	c #2C84D3",
"B 	c #13508E",
"C 	c #085AAC",
"D 	c #0A71DB",
"E 	c #3986CC",
"F 	c #719DBB",
"G 	c #CBD7DA",
"H 	c #E0DDD4",
"I 	c #DED9C8",
"J 	c #C6C8B1",
"K 	c #7F9EA8",
"L 	c #2F88D5",
"M 	c #2B6AA5",
"N 	c #878B78",
"O 	c #163E67",
"P 	c #0F559B",
"Q 	c #2C66A0",
"R 	c #4F799E",
"S 	c #9CAAB6",
"T 	c #A7AEB6",
"U 	c #A2ABB3",
"V 	c #8D9CAA",
"W 	c #547798",
"X 	c #27639E",
"Y 	c #214F7F",
"Z 	c #4F667D",
"` 	c #0046BB",
" .	c #0059D1",
"..	c #0085FE",
"+.	c #2F9DEE",
"@.	c #78B0C2",
"#.	c #CFE0E2",
"$.	c #E6E4D4",
"%.	c #E4E4D3",
"&.	c #CCE0C6",
"*.	c #82B1B6",
"=.	c #2E9DEF",
"-.	c #256DC5",
";.	c #8B9188",
">.	c #104E8D",
",.	c #0659AE",
"'.	c #0671DE",
").	c #378CD2",
"!.	c #79A7B9",
"~.	c #CFDCDC",
"{.	c #E5E2D2",
"].	c #E6E2D0",
"^.	c #CDDCC2",
"/.	c #84A8AE",
"(.	c #2E88D7",
"_.	c #2B6BA6",
":.	c #939176",
"<.	c #175492",
"[.	c #0960B7",
"}.	c #0A75E1",
"|.	c #558CB8",
"1.	c #B0C7D3",
"2.	c #FDF9EF",
"3.	c #FBF3E0",
"4.	c #FBF2DE",
"5.	c #FCF3DF",
"6.	c #FCF3E1",
"7.	c #FCF5E5",
"8.	c #BFC3AF",
"9.	c #5C8EB4",
"0.	c #A9B6AC",
"a.	c #979889",
"b.	c #19416A",
"c.	c #0F4983",
"d.	c #0F579F",
"e.	c #376696",
"f.	c #849EB2",
"g.	c #C7C7C7",
"h.	c #C2C2C2",
"i.	c #C1C1C1",
"j.	c #C3C3C3",
"k.	c #C4C4C4",
"l.	c #8598A7",
"m.	c #3D6A97",
"n.	c #738B9E",
"o.	c #5E7387",
"p.	c #004DC0",
"q.	c #0066E0",
"r.	c #008CFF",
"s.	c #58A0C7",
"t.	c #B2D3E0",
"u.	c #FFFFFD",
"v.	c #FFFFFE",
"w.	c #FFFFFF",
"x.	c #C9D0C0",
"y.	c #5FA3C5",
"z.	c #B1CAB8",
"A.	c #A3A393",
"B.	c #135190",
"C.	c #065EB7",
"D.	c #0674E4",
"E.	c #5A8DB6",
"F.	c #B2CEDD",
"G.	c #C8CFB8",
"H.	c #6296B4",
"I.	c #B3C3AE",
"J.	c #A4A184",
"K.	c #2463A3",
"L.	c #095098",
"M.	c #0A72DC",
"N.	c #4685BB",
"O.	c #8DB6DA",
"P.	c #EEEEE5",
"Q.	c #FCF2DE",
"R.	c #FCF3E0",
"S.	c #F3EFE2",
"T.	c #D9D1B4",
"U.	c #F1F0E9",
"V.	c #A8ACA3",
"W.	c #214B76",
"X.	c #0F3E6D",
"Y.	c #0F559C",
"Z.	c #306396",
"`.	c #6C8BAA",
" +	c #B9BDC1",
".+	c #BDBFC1",
"++	c #9CA4AB",
"@+	c #BABFC2",
"#+	c #6F8499",
"$+	c #0768E9",
"%+	c #0086FC",
"&+	c #4797CA",
"*+	c #8DC2DF",
"=+	c #F0F8F8",
"-+	c #F6FBFB",
";+	c #E3E7C4",
">+	c #F2F5EC",
",+	c #B2B7A6",
"'+	c #2362A3",
")+	c #075099",
"!+	c #0672DF",
"~+	c #4A89BA",
"{+	c #90B8DA",
"]+	c #F1F6F7",
"^+	c #F6FAFB",
"/+	c #E3E5C2",
"(+	c #F2F4EB",
"_+	c #B4B29C",
":+	c #144F8B",
"<+	c #096ACD",
"[+	c #277ED1",
"}+	c #A0BAC8",
"|+	c #FCF5E7",
"1+	c #FAEFD6",
"2+	c #FBF1DC",
"3+	c #F2E4C8",
"4+	c #DED5BB",
"5+	c #DED5BC",
"6+	c #F3E6CB",
"7+	c #FEFEFC",
"8+	c #A8AFA8",
"9+	c #163E65",
"0+	c #0E5090",
"a+	c #205F9D",
"b+	c #7795AD",
"c+	c #BEBEBE",
"d+	c #C0C0C0",
"e+	c #B4B5B7",
"f+	c #A1A8AE",
"g+	c #A0A7AE",
"h+	c #B5B7B9",
"i+	c #CBCBCB",
"j+	c #6F869D",
"k+	c #0444B3",
"l+	c #0079FB",
"m+	c #2296EC",
"n+	c #A3CBD9",
"o+	c #FFFFF8",
"p+	c #FFFFF5",
"q+	c #FFFFFC",
"r+	c #F9F4DD",
"s+	c #E7E6CE",
"t+	c #F9F7E2",
"u+	c #B2BCA9",
"v+	c #124E8B",
"w+	c #066ACE",
"x+	c #2781D4",
"y+	c #A3C6D4",
"z+	c #F9F3DC",
"A+	c #E7E3CB",
"B+	c #F9F6E1",
"C+	c #B4B5A1",
"D+	c #2B6AAA",
"E+	c #0C5197",
"F+	c #0A74E0",
"G+	c #4F91C9",
"H+	c #D7E1E3",
"I+	c #FAEBCD",
"J+	c #F9EACA",
"K+	c #F5DDB2",
"L+	c #A2A796",
"M+	c #4988BE",
"N+	c #A7AC99",
"O+	c #F6DFB4",
"P+	c #FEFCF6",
"Q+	c #26507A",
"R+	c #113F6C",
"S+	c #0F569E",
"T+	c #3F70A0",
"U+	c #A7B4BD",
"V+	c #B9B9B9",
"W+	c #BCBCBC",
"X+	c #B0B0B0",
"Y+	c #677E94",
"Z+	c #336698",
"`+	c #316498",
" @	c #6D8296",
".@	c #B1B1B1",
"+@	c #CACACA",
"@@	c #0D76F0",
"#@	c #0047C3",
"$@	c #018BFF",
"%@	c #4CA2DE",
"&@	c #D9E8EB",
"*@	c #FFFFE7",
"=@	c #FFFFE9",
"-@	c #FFF0C8",
";@	c #AEBDA0",
">@	c #4A9ED1",
",@	c #B4C2A2",
"'@	c #FFF3C5",
")@	c #008AFF",
"!@	c #0047BD",
"~@	c #2869AB",
"{@	c #0A4F96",
"]@	c #0674E3",
"^@	c #4F95CD",
"/@	c #D9E6E9",
"(@	c #B2B597",
"_@	c #4E8CBD",
":@	c #B4BA99",
"<@	c #0B5095",
"[@	c #2A69AA",
"}@	c #286098",
"|@	c #095BAD",
"1@	c #9DA9A9",
"2@	c #F5DDAC",
"3@	c #F2DBAD",
"4@	c #A0A28C",
"5@	c #1779D9",
"6@	c #1A79D6",
"7@	c #889690",
"8@	c #EBBB6E",
"9@	c #EFC781",
"0@	c #F5DBAA",
"a@	c #FDF6EA",
"b@	c #A6A9A0",
"c@	c #095AAD",
"d@	c #285F97",
"e@	c #23496F",
"f@	c #0E447A",
"g@	c #68819A",
"h@	c #AEAEAE",
"i@	c #ABABAC",
"j@	c #607890",
"k@	c #15599E",
"l@	c #175A9C",
"m@	c #506F8C",
"n@	c #91918D",
"o@	c #9A9A9A",
"p@	c #ACACAC",
"q@	c #6B8095",
"r@	c #0E457C",
"s@	c #1063D0",
"t@	c #0055DA",
"u@	c #A6B7AF",
"v@	c #FFFEF0",
"w@	c #FFFEBE",
"x@	c #FCF8BF",
"y@	c #AEB38F",
"z@	c #108FF5",
"A@	c #1390F1",
"B@	c #94AA98",
"C@	c #FFD268",
"D@	c #FFE283",
"E@	c #FFF4BA",
"F@	c #FFFFF6",
"G@	c #B3B5A1",
"H@	c #265E99",
"I@	c #075AAE",
"J@	c #A6AFA7",
"K@	c #FFFEEF",
"L@	c #B0AD87",
"M@	c #1478DB",
"N@	c #1879D8",
"O@	c #949E8C",
"P@	c #B3AD98",
"Q@	c #0659AD",
"R@	c #255E98",
"S@	c #265A8E",
"T@	c #095FB7",
"U@	c #A7ABA4",
"V@	c #F7E2BC",
"W@	c #F2D398",
"X@	c #E6C88F",
"Y@	c #5482A6",
"Z@	c #0B76E1",
"`@	c #758994",
" #	c #C8AB73",
".#	c #EDC277",
"+#	c #EEC67F",
"@#	c #EFC984",
"##	c #F7E4BE",
"$#	c #A5A296",
"%#	c #224669",
"&#	c #0E4883",
"*#	c #6D839A",
"=#	c #B2B2B2",
"-#	c #A6A6A6",
";#	c #999DA0",
">#	c #306090",
",#	c #10579F",
"'#	c #45688B",
")#	c #79838D",
"!#	c #979797",
"~#	c #989898",
"{#	c #9D9D9D",
"]#	c #B4B4B4",
"^#	c #62788E",
"/#	c #0E4983",
"(#	c #1059BB",
"_#	c #0062D2",
":#	c #B2BAA8",
"<#	c #FFF7C4",
"[#	c #FFF4A4",
"}#	c #F4E396",
"|#	c #5993B4",
"1#	c #018DFF",
"2#	c #819996",
"3#	c #DCC072",
"4#	c #FFDB77",
"5#	c #FFE181",
"6#	c #FFE486",
"7#	c #FFF7CA",
"8#	c #B2B09B",
"9#	c #24588E",
"0#	c #055EB7",
"a#	c #0673E3",
"b#	c #B3B4A1",
"c#	c #F4E395",
"d#	c #5C85A4",
"e#	c #0775E4",
"f#	c #81918A",
"g#	c #DCBE6F",
"h#	c #FFF8CA",
"i#	c #ADA792",
"j#	c #A4A69C",
"k#	c #F4D9A9",
"l#	c #DEAF65",
"m#	c #4E7CA4",
"n#	c #2C83D3",
"o#	c #5C82A5",
"p#	c #5782A6",
"q#	c #597F9E",
"r#	c #5280AD",
"s#	c #647A91",
"t#	c #A9A9A9",
"u#	c #838789",
"v#	c #2A5C8D",
"w#	c #2060A0",
"x#	c #33608C",
"y#	c #335F8B",
"z#	c #2E5F8E",
"A#	c #0E4882",
"B#	c #224567",
"C#	c #B0B09C",
"D#	c #FFEAAC",
"E#	c #FFDF7E",
"F#	c #F4C45E",
"G#	c #528EB2",
"H#	c #2595EB",
"I#	c #6395AE",
"J#	c #5E93B0",
"K#	c #5794B8",
"L#	c #B0A893",
"M#	c #F4C25D",
"N#	c #567EA1",
"O#	c #2A82D5",
"P#	c #658A9D",
"Q#	c #61879F",
"R#	c #62849C",
"S#	c #63849B",
"T#	c #5A87A5",
"U#	c #0774E4",
"V#	c #99958E",
"W#	c #F4DAA7",
"X#	c #EAB96A",
"Y#	c #DEAB5D",
"Z#	c #78868B",
"`#	c #1377DB",
" $	c #0F78E2",
".$	c #0C76E1",
"+$	c #566E86",
"@$	c #90908F",
"#$	c #818485",
"$$	c #3E6184",
"%$	c #13589D",
"&$	c #1259A0",
"*$	c #10589F",
"=$	c #23486D",
"-$	c #A49F8F",
";$	c #FFF1B1",
">$	c #FFD166",
",$	c #F5BE53",
"'$	c #81938B",
")$	c #0A8DF7",
"!$	c #068FFF",
"~$	c #028DFF",
"{$	c #A49C8C",
"]$	c #F6BD53",
"^$	c #85897F",
"/$	c #1076DC",
"($	c #0B77E4",
"_$	c #0875E4",
":$	c #0A74DF",
"<$	c #688CA6",
"[$	c #EBD4AC",
"}$	c #E8B25F",
"|$	c #E8B05D",
"1$	c #D0A868",
"2$	c #6E8593",
"3$	c #2E79C2",
"4$	c #2A7AC7",
"5$	c #498DC9",
"6$	c #C0D7E9",
"7$	c #69AAEA",
"8$	c #1279E1",
"9$	c #3E6790",
"0$	c #A2A4A7",
"a$	c #878887",
"b$	c #747B82",
"c$	c #3E6185",
"d$	c #1D5893",
"e$	c #1E5A97",
"f$	c #366A9E",
"g$	c #99ABBC",
"h$	c #5885B3",
"i$	c #155BA2",
"j$	c #008BFF",
"k$	c #709FAE",
"l$	c #F4E6B4",
"m$	c #FFC859",
"n$	c #FFC655",
"o$	c #E2B85D",
"p$	c #76959E",
"q$	c #2C8CD5",
"r$	c #288EDB",
"s$	c #47A2E0",
"t$	c #BBDFF8",
"u$	c #64B9FD",
"v$	c #088FFE",
"w$	c #018CFF",
"x$	c #0673E2",
"y$	c #75919D",
"z$	c #E3B45B",
"A$	c #7A8B8E",
"B$	c #327ABF",
"C$	c #2E7AC3",
"D$	c #4B91CB",
"E$	c #C1DDF0",
"F$	c #68ABEF",
"G$	c #0F79E4",
"H$	c #096ACC",
"I$	c #2F7AC3",
"J$	c #CAB38A",
"K$	c #F2D2A2",
"L$	c #E9B664",
"M$	c #ECBE72",
"N$	c #D4B782",
"O$	c #C6B084",
"P$	c #C6BC9E",
"Q$	c #D2D5CD",
"R$	c #EDF4FC",
"S$	c #509DE9",
"T$	c #157BE1",
"U$	c #1C5893",
"V$	c #7F8790",
"W$	c #A1A3A0",
"X$	c #878885",
"Y$	c #929292",
"Z$	c #868C92",
"`$	c #7B8691",
" %	c #84919E",
".%	c #9DA9B5",
"+%	c #C8C8C8",
"@%	c #BEC3C9",
"#%	c #467AAD",
"$%	c #185DA3",
"%%	c #2C8DD7",
"&%	c #D8C18B",
"*%	c #FFDB98",
"=%	c #FFC95A",
"-%	c #FFD56D",
";%	c #E4CF82",
">%	c #D6C887",
",%	c #D2D0A6",
"'%	c #D7E5E6",
")%	c #ECF6FE",
"!%	c #4BAEFE",
"~%	c #0D92FD",
"{%	c #114D8A",
"]%	c #2F78C1",
"^%	c #D7BD88",
"/%	c #FFD36A",
"(%	c #E4CE80",
"_%	c #D8C583",
":%	c #D4CCA2",
"<%	c #D7E1E2",
"[%	c #ECF4FD",
"}%	c #4F9CEB",
"|%	c #127CE6",
"1%	c #0B73DC",
"2%	c #5077A1",
"3%	c #E8DCC7",
"4%	c #F1CF97",
"5%	c #F0CA87",
"6%	c #F4D9A4",
"7%	c #F9E9C6",
"8%	c #FCF5E3",
"9%	c #FFFEFD",
"0%	c #EEF5FC",
"a%	c #62A4E2",
"b%	c #177BDD",
"c%	c #10569C",
"d%	c #295989",
"e%	c #A6ABB0",
"f%	c #A2A2A2",
"g%	c #949494",
"h%	c #9E9E9E",
"i%	c #A8A8A8",
"j%	c #B6B6B6",
"k%	c #CCCCCC",
"l%	c #BFC3C8",
"m%	c #4F7EAD",
"n%	c #135AA0",
"o%	c #0188FC",
"p%	c #4E85AF",
"q%	c #EEE4D5",
"r%	c #FFE1A1",
"s%	c #FFDA74",
"t%	c #FFE88E",
"u%	c #FFF8AC",
"v%	c #FFFFE0",
"w%	c #ECF6FF",
"x%	c #5AB4F9",
"y%	c #0C91FD",
"z%	c #0087FC",
"A%	c #0872DF",
"B%	c #56779C",
"C%	c #EBE0D5",
"D%	c #FFE1A2",
"E%	c #EDF5FE",
"F%	c #60A5E8",
"G%	c #127AE2",
"H%	c #1577DB",
"I%	c #808C96",
"J%	c #E4C89B",
"K%	c #F5DEB4",
"L%	c #F1CE8E",
"M%	c #FEFBF2",
"N%	c #FFFEFE",
"O%	c #80B5E1",
"P%	c #277ED4",
"Q%	c #15589C",
"R%	c #45688A",
"S%	c #96999E",
"T%	c #A1A1A1",
"U%	c #B8B8B8",
"V%	c #C9C9C9",
"W%	c #668BAE",
"X%	c #205F9E",
"Y%	c #0E8FF6",
"Z%	c #86969D",
"`%	c #EED8A5",
" &	c #FFF2BC",
".&	c #FFEC95",
"+&	c #FFFAB4",
"@&	c #83C4F2",
"#&	c #2095F0",
"$&	c #1278DE",
"%&	c #858B92",
"&&	c #EFD7A3",
"*&	c #88BBE0",
"=&	c #2681D8",
"-&	c #0D73DA",
";&	c #4A7CA8",
">&	c #9B937C",
",&	c #D3C1A4",
"'&	c #DACAB8",
")&	c #D6CDC0",
"!&	c #C1C2B8",
"~&	c #5489B4",
"{&	c #2A7ECF",
"]&	c #0A72DB",
"^&	c #11559B",
"/&	c #275684",
"(&	c #526981",
"_&	c #8E969F",
":&	c #969EA6",
"<&	c #979FA7",
"[&	c #8797A7",
"}&	c #1F5E9C",
"|&	c #0386FE",
"1&	c #4D8AB3",
"2&	c #AAA279",
"3&	c #DCCFB1",
"4&	c #DED2C5",
"5&	c #DDD4C8",
"6&	c #C8D1C3",
"7&	c #599EC4",
"8&	c #2792E6",
"9&	c #0972DD",
"0&	c #4F77A0",
"a&	c #AA9B72",
"b&	c #DCCCAF",
"c&	c #E0CEC1",
"d&	c #DCD0C6",
"e&	c #C8CCBC",
"f&	c #598FB8",
"g&	c #297FD1",
"h&	c #0671DD",
"i&	c #0967C6",
"j&	c #2079D0",
"k&	c #3475B8",
"l&	c #3773B2",
"m&	c #3475B7",
"n&	c #2C78C3",
"o&	c #1378DC",
"p&	c #0866C6",
"q&	c #104E8E",
"r&	c #1B5B9B",
"s&	c #1D548D",
"t&	c #1D548C",
"u&	c #1A5794",
"v&	c #14599F",
"w&	c #0275F5",
"x&	c #1C90EB",
"y&	c #3287C9",
"z&	c #3485C5",
"A&	c #3387C8",
"B&	c #2A8BD7",
"C&	c #0C8EF8",
"D&	c #0868C8",
"E&	c #207AD2",
"F&	c #3774B4",
"G&	c #3A72AF",
"H&	c #2E77C0",
"I&	c #1078DE",
"J&	c #0667C9",
"K&	c #0954A0",
"L&	c #0E4173",
"M&	c #24496F",
"              . + @ @ + .                             # $ % % $ #                             & * = = * &                             - ; > > ; -               ",
"          , ' ) ! ~ { ] ) ' ,                     ^ / ( _ : : _ ( / ^                     < [ } | 1 1 | } [ <                     2 3 4 5 6 6 5 4 3 2           ",
"        7 8 9 0 a b b c 0 9 8 7                 d e f g h i j k g f e d                 l m n o p q r s o n m l                 t u v w x y z A w v u t         ",
"      B C D E F G H I J K L D M N             O : P Q R S T U V W X P Y Z             `  ...+.@.#.$.%.&.*.=...-.;.            >.,.'.).!.~.{.].^./.(.'._.:.      ",
"    <.[.}.|.1.2.3.4.5.6.7.8.9.0.a.<.        b.c.d.e.f.g.h.i.h.j.k.l.m.n.o.b.        p.q.r.s.t.u.u.v.w.w.w.x.y.z.A.p.        B.C.D.E.F.u.u.v.w.w.v.G.H.I.J.B.    ",
"  K.L.M.N.O.P.Q.4.5.R.4.R.S.T.U.V.L.K.    W.X.Y.Z.`. +h.i.h.h.i.h..+++@+#+X.W.    $+` %+&+*+=+u.w.w.w.w.w.-+;+>+,+` $+    '+)+!+~+{+]+u.w.w.w.w.w.^+/+(+_+)+'+  ",
"  :+<+[+}+|+1+2+3+4+5+6+4.4.R.7+8+<+:+    9+0+a+b+k.c+d+e+f+g+h+i.i.h.i+j+0+9+    k+l+m+n+o+p+q+r+s+s+t+v.v.w.w.u+l+k+    v+w+x+y+o+p+q+z+A+A+B+v.v.w.w.C+w+v+  ",
"D+E+F+G+H+I+J+K+L+M+M+N+O+2+4.P+8+F+E+D+Q+R+S+T+U+V+W+X+Y+Z+`+ @.@i.h.+@j+S+R+Q+@@#@$@%@&@*@=@-@;@>@>@,@'@q+v.w.u+)@!@@@~@{@]@^@/@*@=@-@(@_@_@:@'@q+v.w.C+]@<@[@",
"}@|@}.1@6.2@3@4@5@}.6@7@8@9@0@a@b@}.c@d@e@f@d.g@i.h@i@j@k@d.l@m@n@o@p@k.q@d.r@e@s@t@r.u@v@w@x@y@z@r.A@B@C@D@E@F@G@r.t@s@H@I@D.J@K@w@x@L@M@D.N@O@C@D@E@F@P@D.Q@R@",
"S@T@}.U@V@W@X@Y@Z@}.`@ #.#+#@###$#}.T@S@%#&#d.*#=#-#;#>#,#d.'#)#!#~#{#]#^#d./#%#(#_#r.:#<#[#}#|#1#r.2#3#4#5#6#7#8#r._#(#9#0#a#b#<#[#c#d#e#D.f#g#4#5#6#h#i#D.0#9#",
"S@T@}.j#k#+#l#m#}.n#o#p#p#p#p#q#r#}.T@S@%#&#d.s#t#~#u#v#d.w#x#x#x#x#x#y#z#d.A#B#(#_#r.C#D#E#F#G#r.H#I#J#J#J#J#J#K#r._#(#9#0#D.L#D#E#M#N#D.O#P#Q#Q#R#S#S#T#U#0#9#",
"}@|@}.V#W#X#Y#Z#`#}.}.}. $.$}.}.}.}.|@}@e@f@d.+$p@@$#$$$%$d.d.d.&$*$d.d.d.d.f@=$s@t@r.-$;$>$,$'$)$r.r.r.!$~$r.r.r.r.t@s@H@I@D.{$;$>$]$^$/$D.D.D.($_$D.D.D.D.Q@R@",
"D+<@:$<$[$}$|$1$2$3$4$5$6$7$8$Z@Z@F+<@D+Q+R+S+9$0$a$a$b$c$d$e$f$g$h$i$*$*$S+R+Q+@@#@j$k$l$m$n$o$p$q$r$s$t$u$v$~$w$j$#@@@[@<@x$y$l$m$n$z$A$B$C$D$E$F$G$e#U#]@<@[@",
"  :+H$I$J$K$L$M$N$O$P$Q$P+R$S$T$Z@<+:+    9+0+U$V$W$X$Y$Z$`$ %.%+%@%#%$%,#0+9+    k+l+%%&%*%=%-%;%>%,%'%v.)%!%~%w$l+k+    {%w+]%^%*%=%/%(%_%:%<%v.[%}%|%U#w+{%  ",
"  K.L.1%2%3%4%M$5%6%7%8%9%0%a%b%M.L.K.    W.X.c%d%e%f%g%h%i%j%j.k%l%m%n%Y.X.W.    $+` o%p%q%r%s%t%u%v%q+w.w%x%y%z%` $+    '+)+A%B%C%D%s%t%u%v%q+w.E%F%G%!+)+'+  ",
"    <.[.H%I%J%K%L%6%J+M%N%O%P%}.[.<.        b.c.Q%R%S%X+T%h@U%V%k%W%X%d.c.b.        p.q.Y%Z%`% &.&+&*@w.v.@&#&r.q.p.        B.C.$&%&&& &.&+&*@w.w.*&=&D.C.B.    ",
"      B C -&;&>&,&'&)&!&~&{&]&C B             O : ^&/&(&_&:&<&[&e.}&P : O             `  .|&1&2&3&4&5&6&7&8&.. .`             >.,.9&0&a&b&c&d&e&f&g&h&,.>.      ",
"        7 8 i&j&k&l&m&n&o&p&8 7                 d e q&r&s&t&t&u&v&f e d                 l m w&x&y&z&A&B&C&n m l                 t u D&E&F&G&F&H&I&J&u t         ",
"          , ' ) K&{ { ] ) ' ,                     ^ / ( L&: : _ ( / ^                     < [ } | 1 1 | } [ <                     2 3 4 5 6 6 5 4 3 2           ",
"              . + @ @ + .                             # M&% % $ #                             & * = = * &                             - ; > > ; -               "};
