/* XPM */
static char * EXTNAVLASTT_xpm[] = {
"80 20 167 2",
"  	c None",
". 	c #2A67A6",
"+ 	c #2A629B",
"@ 	c #285D92",
"# 	c #244E78",
"$ 	c #254A70",
"% 	c #23476A",
"& 	c #0C71EA",
"* 	c #1167D3",
"= 	c #115FC1",
"- 	c #2766A6",
"; 	c #27609B",
"> 	c #255B92",
", 	c #2565A6",
"' 	c #174F89",
") 	c #0E4F92",
"! 	c #0A55A1",
"~ 	c #0859AB",
"{ 	c #214C78",
"] 	c #183E64",
"^ 	c #123D6A",
"/ 	c #0F4174",
"( 	c #0E447B",
"_ 	c #046DE9",
": 	c #0444B1",
"< 	c #0043C3",
"[ 	c #004FD0",
"} 	c #0058C1",
"| 	c #2263A6",
"1 	c #144E89",
"2 	c #0A4D91",
"3 	c #0653A1",
"4 	c #0457AC",
"5 	c #195796",
"6 	c #084F98",
"7 	c #0968C8",
"8 	c #0A75E1",
"9 	c #19436D",
"0 	c #0D3D6E",
"a 	c #0E4E8F",
"b 	c #0F579F",
"c 	c #0352C9",
"d 	c #0043BC",
"e 	c #0073F6",
"f 	c #008CFF",
"g 	c #165596",
"h 	c #044D98",
"i 	c #0567CB",
"j 	c #0674E4",
"k 	c #14508E",
"l 	c #095AAC",
"m 	c #0A71DA",
"n 	c #163E67",
"o 	c #0F457C",
"p 	c #0F549B",
"q 	c #0046BA",
"r 	c #0058D2",
"s 	c #0085FF",
"t 	c #104E8E",
"u 	c #0558AD",
"v 	c #0670DD",
"w 	c #185491",
"x 	c #0960B7",
"y 	c #3A8CDE",
"z 	c #569ADC",
"A 	c #1C69B6",
"B 	c #18406A",
"C 	c #0F4983",
"D 	c #1F60A2",
"E 	c #1A5DA1",
"F 	c #335F8A",
"G 	c #014CC0",
"H 	c #0063E0",
"I 	c #35A4FE",
"J 	c #55B2FD",
"K 	c #156DE0",
"L 	c #145291",
"M 	c #055EB8",
"N 	c #3A91EA",
"O 	c #59A2ED",
"P 	c #1A6ABA",
"Q 	c #2564A4",
"R 	c #095098",
"S 	c #0A72DC",
"T 	c #D2D5D5",
"U 	c #3087DF",
"V 	c #EFE3D3",
"W 	c #438ED8",
"X 	c #214B77",
"Y 	c #0E3E6E",
"Z 	c #0F559C",
"` 	c #3E74A8",
" .	c #638AAE",
"..	c #7D98B0",
"+.	c #076BE6",
"@.	c #0046BC",
"#.	c #0087FC",
"$.	c #DFF1FB",
"%.	c #2A9FFE",
"&.	c #FFFFFA",
"*.	c #40A4FB",
"=.	c #2263A5",
"-.	c #054E98",
";.	c #0671DF",
">.	c #E0EEFC",
",.	c #308BE8",
"'.	c #FFFFFF",
").	c #4494E5",
"!.	c #154F8B",
"~.	c #096ACC",
"{.	c #DCDAD4",
"].	c #4390DE",
"^.	c #163E65",
"/.	c #0F5091",
"(.	c #8DA3B6",
"_.	c #145AA0",
":.	c #7D99B3",
"<.	c #0444B2",
"[.	c #0077F7",
"}.	c #EAF5FA",
"|.	c #40A9FE",
"1.	c #114D8B",
"2.	c #0569CE",
"3.	c #EAF3FD",
"4.	c #4497EB",
"5.	c #2C6AA9",
"6.	c #0D5196",
"7.	c #0A74E0",
"8.	c #C9D1D5",
"9.	c #1D7EE0",
"0.	c #26507A",
"a.	c #113F6D",
"b.	c #0F569E",
"c.	c #5380AB",
"d.	c #0D77EF",
"e.	c #0046C0",
"f.	c #008BFF",
"g.	c #D4ECFB",
"h.	c #1596FF",
"i.	c #2969AA",
"j.	c #094F96",
"k.	c #0673E2",
"l.	c #D6E8FA",
"m.	c #1B80E6",
"n.	c #286098",
"o.	c #095AAB",
"p.	c #2783DF",
"q.	c #23496F",
"r.	c #0F457B",
"s.	c #5883AC",
"t.	c #1063CF",
"u.	c #0058DE",
"v.	c #209AFE",
"w.	c #255E98",
"x.	c #0558AC",
"y.	c #2585E7",
"z.	c #265A8E",
"A.	c #095FB7",
"B.	c #BFCCD6",
"C.	c #224568",
"D.	c #0E4883",
"E.	c #7393B1",
"F.	c #1059BB",
"G.	c #0063D2",
"H.	c #CAE7FB",
"I.	c #23588E",
"J.	c #CBE2F9",
"              . + @ @ + .                             # $ % % $ #                             & * = = * &                             - ; > > ; -               ",
"          , ' ) ! ~ ~ ! ) ' ,                     { ] ^ / ( ( / ^ ] {                     _ : < [ } } [ < : _                     | 1 2 3 4 4 3 2 1 |           ",
"        5 6 7 8 8 8 8 8 8 7 6 5                 9 0 a b b b b b b a 0 9                 c d e f f f f f f e d c                 g h i j j j j j j i h g         ",
"      k l m 8 8 8 8 8 8 8 8 m l k             n o p b b b b b b b b p o n             q r s f f f f f f f f s r q             t u v j j j j j j j j v u t       ",
"    w x 8 y 8 8 8 8 y 8 8 8 8 z A w         B C b D E b b b D E b b b D F B         G H f I f f f f I f f f f J K G         L M j N j j j j N j j j j O P L     ",
"  Q R S 8 T U 8 8 8 T U 8 8 8 V W R Q     X Y Z b `  .b b b `  .b b b ` ..Y X     +.@.#.f $.%.f f f $.%.f f f &.*.@.+.    =.-.;.j >.,.j j j >.,.j j j '.).-.=.  ",
"  !.~.8 8 V {.U 8 8 V {.U 8 8 V ].~.!.    ^./.b b ` (. ._.b ` (. ._.b ` :./.^.    <.[.f f &.}.%.f f &.}.%.f f &.|.[.<.    1.2.j j '.3.,.j j '.3.,.j j '.4.2.1.  ",
"5.6.7.8 8 V V 8.9.8 V V 8.9.8 V ].7.6.5.0.a.b.b b ` (.(.c.b ` (.(.c.b ` :.b.a.0.d.e.f.f f &.&.g.h.f &.&.g.h.f &.|.f.e.d.i.j.k.j j '.'.l.m.j '.'.l.m.j '.4.k.j.i.",
"n.o.8 8 8 V V V 8.p.V V V 8.p.V ].8 o.n.q.r.b b b ` (.(.(.s.` (.(.(.s.` :.b r.q.t.u.f f f &.&.&.g.v.&.&.&.g.v.&.|.f u.t.w.x.j j j '.'.'.l.y.'.'.'.l.y.'.4.j x.w.",
"z.A.8 8 8 V V V V B.V V V V B.V ].8 A.z.C.D.b b b ` (.(.(.(.E.(.(.(.(.E.:.b D.C.F.G.f f f &.&.&.&.H.&.&.&.&.H.&.|.f G.F.I.M j j j '.'.'.'.J.'.'.'.'.J.'.4.j M I.",
"z.A.8 8 8 V V V V B.V V V V B.V ].8 A.z.C.D.b b b ` (.(.(.(.E.(.(.(.(.E.:.b D.C.F.G.f f f &.&.&.&.H.&.&.&.&.H.&.|.f G.F.I.M j j j '.'.'.'.J.'.'.'.'.J.'.4.j M I.",
"n.o.8 8 8 V V V 8.p.V V V 8.p.V ].8 o.n.q.r.b b b ` (.(.(.s.` (.(.(.s.` :.b r.q.t.u.f f f &.&.&.g.v.&.&.&.g.v.&.|.f u.t.w.x.j j j '.'.'.l.y.'.'.'.l.y.'.4.j x.w.",
"5.6.7.8 8 V V 8.9.8 V V 8.9.8 V ].7.6.5.0.a.b.b b ` (.(.c.b ` (.(.c.b ` :.b.a.0.d.e.f.f f &.&.g.h.f &.&.g.h.f &.|.f.e.d.i.j.k.j j '.'.l.m.j '.'.l.m.j '.4.k.j.i.",
"  !.~.8 8 V {.U 8 8 V {.U 8 8 V ].~.!.    ^./.b b ` (. ._.b ` (. ._.b ` :./.^.    <.[.f f &.}.%.f f &.}.%.f f &.|.[.<.    1.2.j j '.3.,.j j '.3.,.j j '.4.2.1.  ",
"  Q R S 8 T U 8 8 8 T U 8 8 8 V W R Q     X Y Z b `  .b b b `  .b b b ` ..Y X     +.@.#.f $.%.f f f $.%.f f f &.*.@.+.    =.-.;.j >.,.j j j >.,.j j j '.).-.=.  ",
"    w x 8 y 8 8 8 8 y 8 8 8 8 z A w         B C b D E b b b D E b b b D F B         G H f I f f f f I f f f f J K G         L M j N j j j j N j j j j O P L     ",
"      k l m 8 8 8 8 8 8 8 8 m l k             n o p b b b b b b b b p o n             q r s f f f f f f f f s r q             t u v j j j j j j j j v u t       ",
"        5 6 7 8 8 8 8 8 8 7 6 5                 9 0 a b b b b b b a 0 9                 c d e f f f f f f e d c                 g h i j j j j j j i h g         ",
"          , ' ) ! ~ ~ ! ) ' ,                     { ] ^ / ( ( / ^ ] {                     _ : < [ } } [ < : _                     | 1 2 3 4 4 3 2 1 |           ",
"              . + @ @ + .                             # $ % % $ #                             & * = = * &                             - ; > > ; -               "};
