/* XPM */
static char * EXTNAVCANCELL_xpm[] = {
"128 30 209 2",
"  	c None",
". 	c #3975B2",
"+ 	c #2F5780",
"@ 	c #198CFF",
"# 	c #3774B3",
"$ 	c #3171B5",
"% 	c #2165AB",
"& 	c #144F8C",
"* 	c #0C3C6D",
"= 	c #06315B",
"- 	c #06294D",
"; 	c #295482",
"> 	c #1F4C7B",
", 	c #153C65",
"' 	c #103152",
") 	c #0E2A46",
"! 	c #0C243C",
"~ 	c #0A85FF",
"{ 	c #006DF3",
"] 	c #0042B7",
"^ 	c #001D80",
"/ 	c #000A56",
"( 	c #00003E",
"_ 	c #2E70B5",
": 	c #0F4D8B",
"< 	c #073A6D",
"[ 	c #032E58",
"} 	c #02264B",
"| 	c #4A7BAC",
"1 	c #5A8ABA",
"2 	c #07386A",
"3 	c #07427D",
"4 	c #07529F",
"5 	c #0761BB",
"6 	c #096CCF",
"7 	c #0972DC",
"8 	c #4B6C8D",
"9 	c #0D2E4F",
"0 	c #0B345E",
"a 	c #0E3F71",
"b 	c #0E4A86",
"c 	c #0E5193",
"d 	c #0F559D",
"e 	c #5C81A5",
"f 	c #33A1FE",
"g 	c #001676",
"h 	c #002A9B",
"i 	c #0048D7",
"j 	c #0066FF",
"k 	c #007BFF",
"l 	c #0085FF",
"m 	c #208FFF",
"n 	c #45A9FE",
"o 	c #709DCB",
"p 	c #033669",
"q 	c #043E7A",
"r 	c #05509D",
"s 	c #056AD1",
"t 	c #0671DD",
"u 	c #5A90C6",
"v 	c #7AA2CA",
"w 	c #E0D9CE",
"x 	c #EFE3D3",
"y 	c #A2B1BE",
"z 	c #186EC6",
"A 	c #0A75E1",
"B 	c #0966C5",
"C 	c #366DA4",
"D 	c #6A94BD",
"E 	c #3A638D",
"F 	c #92A6B7",
"G 	c #91A6B7",
"H 	c #92A2B1",
"I 	c #235B92",
"J 	c #0F579F",
"K 	c #92A5B7",
"L 	c #8DA2B5",
"M 	c #6E879F",
"N 	c #ECF2F9",
"O 	c #FDFDFD",
"P 	c #AABFE9",
"Q 	c #1179FF",
"R 	c #008CFF",
"S 	c #006FFF",
"T 	c #3367D3",
"U 	c #EEF1F3",
"V 	c #FFFFFA",
"W 	c #54AAFE",
"X 	c #4986C3",
"Y 	c #FDFDFE",
"Z 	c #FFFFFF",
"` 	c #E2E8EF",
" .	c #2477CD",
"..	c #0674E4",
"+.	c #0565C7",
"@.	c #93B7D9",
"#.	c #2A6DB2",
"$.	c #B3C6D6",
"%.	c #388BDE",
"&.	c #E0DCD4",
"*.	c #768DA2",
"=.	c #245180",
"-.	c #4A637B",
";.	c #8DA3B6",
">.	c #95A8B7",
",.	c #7F909F",
"'.	c #007DFF",
").	c #3355A5",
"!.	c #BBE0FB",
"~.	c #EEF7FA",
"{.	c #778DC1",
"].	c #276CB4",
"^.	c #5CA3EB",
"/.	c #266CB3",
"(.	c #0B4076",
"_.	c #054C95",
":.	c #75A8DA",
"<.	c #197CE0",
"[.	c #C1CDD6",
"}.	c #17599A",
"|.	c #103357",
"1.	c #7E9AB3",
"2.	c #2464A3",
"3.	c #96A8B7",
"4.	c #285077",
"5.	c #00268C",
"6.	c #0043CB",
"7.	c #99D1FC",
"8.	c #77C2FD",
"9.	c #1194FF",
"0.	c #CCE8FB",
"a.	c #1157CE",
"b.	c #083D74",
"c.	c #D4E5F6",
"d.	c #B5D4F2",
"e.	c #2685E5",
"f.	c #F3F8FB",
"g.	c #085199",
"h.	c #4792DD",
"i.	c #275381",
"j.	c #0482FF",
"k.	c #2B6FB5",
"l.	c #054F9A",
"m.	c #77B2EC",
"n.	c #124C87",
"o.	c #05498D",
"p.	c #D0D4D5",
"q.	c #66A1DB",
"r.	c #569ADC",
"s.	c #0D3B68",
"t.	c #94A7B8",
"u.	c #7394B2",
"v.	c #678CAF",
"w.	c #003BB4",
"x.	c #DDF0FB",
"y.	c #66BAFD",
"z.	c #55B2FD",
"A.	c #F9FAFD",
"B.	c #A3C9F0",
"C.	c #89BBEC",
"D.	c #063B71",
"E.	c #84B0DA",
"F.	c #0C2F53",
"G.	c #869EB3",
"H.	c #229BFE",
"I.	c #88C9FC",
"J.	c #02386F",
"K.	c #4598EC",
"L.	c #C7DDF4",
"M.	c #0D4276",
"N.	c #0857A6",
"O.	c #113557",
"P.	c #0E4377",
"Q.	c #00298D",
"R.	c #0052E8",
"S.	c #3774B4",
"T.	c #093F75",
"U.	c #0555A5",
"V.	c #286CB1",
"W.	c #0970D8",
"X.	c #0F549A",
"Y.	c #175797",
"Z.	c #054A90",
"`.	c #18436E",
" +	c #0052CD",
".+	c #003CC2",
"++	c #145597",
"@+	c #0D4175",
"#+	c #085CB0",
"$+	c #0D467E",
"%+	c #005CFD",
"&+	c #065CB2",
"*+	c #0969CA",
"=+	c #0E4F90",
"-+	c #000D62",
";+	c #0075FF",
">+	c #0568CC",
",+	c #A3BCD3",
"'+	c #AAD9FC",
")+	c #E2ECF8",
"!+	c #84A8CB",
"~+	c #264665",
"{+	c #88BAFC",
"]+	c #113897",
"^+	c #C7D9ED",
"/+	c #285787",
"(+	c #355C83",
"_+	c #25609A",
":+	c #334998",
"                        . . . . . . . .                                                 + + + + + + + +                                                 @ @ @ @ @ @ @ @                                                 # # # # # # # #                         ",
"                  . $ % & * = - - = * & % $ .                                     + ; > , ' ) ! ! ) ' , > ; +                                     @ ~ { ] ^ / ( ( / ^ ] { ~ @                                     # _ % : < [ } } [ < : % _ #                   ",
"              | 1 & 2 3 4 5 6 7 7 6 5 4 3 2 & | 1                             8 8 , 9 0 a b c d d c b a 0 9 , 8 e                             f f ] g h i j k l l k j i h g ] m n                             1 o : p q r 5 s t t s 5 r q p : u v               ",
"            . w x y z A A A A A A A A A A B C w x D                         E F G H I J J J J J J J J J J : 8 K L M                         m N O P Q R R R R R R R R R R S T U V W                         X Y Z `  .....................+.1 O Z @.            ",
"          #.E x x x $.A A A A A A A A A A %.&.x x *.#.                    =.-.;.;.;.>.J J J J J J J J J J | G L L ,.=.                    '.).V V V !.R R R R R R R R R R f ~.V V {.'.                    ].e Z Z Z N ....................^.Y Z Z $./.          ",
"        #.(._.@.x x x :.A A A A A A A A <.[.x x [.}.(.#.                =.|.* L ;.;.;.1.J J J J J J J J 2.3.;.;.3.4.|.=.                '.5.6.7.V V V 8.R R R R R R R R 9.0.V V 0.a.5.'.                /.b._.c.Z Z Z d.................e.f.Z Z f.2.b./.        ",
"      _ (.g.A A @.x x x h.A A A A A A A @.x x &.%.A g.(._             i.|.a J J ;.;.;.;.e J J J J J J J ;.;.;.G | J a |.i.            j.5.i R R 7.V V V n R R R R R R R 7.V V ~.f R i 5.j.            k.b.l.....c.Z Z Z m...............c.Z Z Y ^...l.b.k.      ",
"    . n.o.A A A A $.x x p.<.A A A A A q.x x x r.A A A o.n..         + , s.J J J J >.;.;.t.2.J J J J J u.;.;.;.v.J J J s., +         @ w.w.R R R R !.V V x.9.R R R R R y.V V V z.R R R w.w.@         # b o.........N Z Z A.e...........B.Z Z Z C.......o.b #     ",
"    % D.6 A A A A <.&.x x $.A A A A e.&.x x E.A A A A 6 D.%         > F.c J J J J 2.G ;.;.>.J J J J C G ;.;.G.J J J J c F.>         { ^ k R R R R 9.~.V V !.R R R R H.~.V V I.R R R R k ^ {         % J.s ........e.Y Z Z N ........K.O Z Z L.........s J.%     ",
"  . M.N.A A A A A A h.x x x @.A A A [.x x [.A A A A A A N.M..     + O.P.J J J J J J e ;.;.;.;.J J J 3.;.;.3.J J J J J J P.O.+     @ Q.R.R R R R R R n V V V 7.R R R 0.V V 0.R R R R R R R.Q.@     S.T.U.............m.Z Z Z c.......f.Z Z f.............U.T.S.  ",
"  V.2 W.A A A A A A A :.x x x q.A :.x x x %.A A A A A A W.2 V.    =.9 X.J J J J J J J 1.;.;.;.u.J 1.;.;.;.| J J J J J J X.9 =.    k g l R R R R R R R 8.V V V y.R 8.V V V f R R R R R R l g k     /.p t ..............d.Z Z Z B...d.Z Z Z ^.............t p /.  ",
". Y.Z.A A A A A A A A A @.x x &.:.x x x :.A A A A A A A A Z.Y.. + `.s.J J J J J J J J J ;.;.;.G 1.;.;.;.1.J J J J J J J J s.`.+ @  +.+R R R R R R R R R 7.V V ~.8.V V V 8.R R R R R R R R .+ +@ # ++Z...................c.Z Z Y d.Z Z Z d.................Z.++# ",
". @+#+A A A A A A A A A A [.x x x x x [.A A A A A A A A A #+@+. + O.$+J J J J J J J J J J 3.;.;.;.;.;.3.J J J J J J J J J $+O.+ @ Q.%+R R R R R R R R R R 0.V V V V V 0.R R R R R R R R R %+Q.@ # b.&+....................f.Z Z Z Z Z f...................&+b.# ",
". 0 *+A A A A A A A A A A <.&.x x x &.e.A A A A A A A A A *+0 . + ) =+J J J J J J J J J J 2.G ;.;.;.G C J J J J J J J J J =+) + @ -+;+R R R R R R R R R R 9.~.V V V ~.H.R R R R R R R R R ;+-+@ # = >+....................e.Y Z Z Z Y K...................>+= # ",
". - 7 A A A A A A A A A A A [.x x x :.A A A A A A A A A A 7 - . + ! d J J J J J J J J J J J 3.;.;.;.1.J J J J J J J J J J d ! + @ ( l R R R R R R R R R R R 0.V V V 8.R R R R R R R R R R l ( @ # } t ......................f.Z Z Z d.....................t } # ",
". - 7 A A A A A A A A A A @.x x x x &.<.A A A A A A A A A 7 - . + ! d J J J J J J J J J J ;.;.;.;.;.G 2.J J J J J J J J J d ! + @ ( l R R R R R R R R R R 7.V V V V ~.9.R R R R R R R R R l ( @ # } t ....................c.Z Z Z Z Y e...................t } # ",
". 0 *+A A A A A A A A A :.x x x p.x x ,+A A A A A A A A A *+0 . + ) =+J J J J J J J J J 1.;.;.;.;.;.;.K J J J J J J J J J =+) + @ -+;+R R R R R R R R R 8.V V V x.V V '+R R R R R R R R R ;+-+@ # = >+..................d.Z Z Z Z Z Z )+..................>+= # ",
". @+#+A A A A A A A A q.x x x @.%.x x x r.A A A A A A A A #+@+. + O.$+J J J J J J J J u.;.;.;.;.| ;.;.;.v.J J J J J J J J $+O.+ @ Q.%+R R R R R R R R y.V V V 7.f V V V z.R R R R R R R R %+Q.@ # b.&+................B.Z Z Z c.^.Z Z Z C.................&+b.# ",
". Y.Z.A A A A A A A %.x x x @.A A :.x x &.<.A A A A A A A Z.Y.. + `.s.J J J J J J J | ;.;.;.;.J J 1.;.;.G 2.J J J J J J J s.`.+ @  +.+R R R R R R R f V V V 7.R R 8.V V ~.9.R R R R R R R .+ +@ # ++Z...............^.Z Z Z c.....d.Z Z Y e...............Z.++# ",
"  V.2 W.A A A A A %.&.x x [.<.A A A [.x x ,+A A A A A A W.2 V.    =.9 X.J J J J J | G ;.;.3.2.J J J 3.;.;.K J J J J J J X.9 =.    k g l R R R R R f ~.V V 0.9.R R R 0.V V '+R R R R R R l g k     /.p t ..........^.Y Z Z f.e.......f.Z Z )+............t p /.  ",
"  . M.N.A A A A <.[.x x p.<.A A A A e.x x x :.A A A A A N.M..     + O.P.J J J J 2.3.;.;.t.2.J J J J C ;.;.;.1.J J J J J P.O.+     @ Q.R.R R R R 9.0.V V x.9.R R R R H.V V V 8.R R R R R R.Q.@     S.T.U.........e.f.Z Z A.e.........K.Z Z Z d...........U.T.S.  ",
"    % D.6 A A <.[.x x &.%.A A A A A A :.x x &.%.A A A 6 D.%         > F.c J J 2.3.;.;.G | J J J J J J 1.;.;.G | J J J c F.>         { ^ k R R 9.0.V V ~.f R R R R R R 8.V V ~.f R R R k ^ {         % J.s ....e.f.Z Z Y ^.............d.Z Z Y ^.......s J.%     ",
"    . n.o.A A $.x x x h.A A A A A A A A [.x x [.<.A A o.n..         + , s.J J >.;.;.;.e J J J J J J J J 3.;.;.3.2.J J s., +         @ w.w.R R !.V V V n R R R R R R R R 0.V V 0.9.R R w.w.@         # b o.....N Z Z Z m.................f.Z Z f.e.....o.b #     ",
"      _ (.g.E.x x x q.A A A A A A A A A %.x x x @.A g.(._             i.|.a G.;.;.;.u.J J J J J J J J J | ;.;.;.;.J a |.i.            j.5.i I.V V V y.R R R R R R R R R f V V V 7.R i 5.j.            k.b.l.L.Z Z Z B...................^.Z Z Z c...l.b.k.      ",
"        #.(.x x x :.A A A A A A A A A A A :.x x x C (.#.                =.|.;.;.;.1.J J J J J J J J J J J 1.;.;.;.8 |.=.                '.5.V V V 8.R R R R R R R R R R R 8.V V V T 5.'.                /.b.Z Z Z d.......................d.Z Z Z 1 b./.        ",
"          #.*.x !+A A A A A A A A A A A A A @.x w > #.                    =.,.;.G.J J J J J J J J J J J J J ;.;.G ~+=.                    '.{.V {+R R R R R R R R R R R R R 7.V U ]+'.                    ].$.Z ^+..........................c.Z Y /+].          ",
"            $ Y.< _.B A A A A A A A A A A B _.(+_+$                         ; `.F.* : J J J J J J J J J J : * -.4.;                         ~  +^ 6.S R R R R R R R R R R S 6.:+a.~                         _ ++J._.+.....................+._.e C _             ",
"              . #.& 2 3 4 5 6 7 7 6 5 4 3 2 & #..                             + =., 9 0 a b c d d c b a 0 9 , =.+                             @ '.] g h i j k l l k j i h g ] '.@                             # /.: p q r 5 s t t s 5 r q p : /.#               ",
"                  . $ % & * = - - = * & % $ .                                     + ; > , ' ) ! ! ) ' , > ; +                                     @ ~ { ] ^ / ( ( / ^ ] { ~ @                                     # _ % : < [ } } [ < : % _ #                   ",
"                        . . . . . . . .                                                 + + + + + + + +                                                 @ @ @ @ @ @ @ @                                                 # # # # # # # #                         "};
