/* XPM */
static char * EXTNAVSEARCHT_xpm[] = {
"80 20 610 2",
"  	c None",
". 	c #2A67A6",
"+ 	c #2A629B",
"@ 	c #285D92",
"# 	c #254E78",
"$ 	c #254A70",
"% 	c #24476B",
"& 	c #0C70EB",
"* 	c #1167D3",
"= 	c #125FC1",
"- 	c #2866A7",
"; 	c #27609B",
"> 	c #255B92",
", 	c #2564A5",
"' 	c #164F89",
") 	c #0D4F92",
"! 	c #08539E",
"~ 	c #0859AA",
"{ 	c #345B92",
"] 	c #557AB0",
"^ 	c #6A84BB",
"/ 	c #4673B3",
"( 	c #214B77",
"_ 	c #173D64",
": 	c #113D6B",
"< 	c #0E4275",
"[ 	c #0E447B",
"} 	c #4D6379",
"| 	c #738190",
"1 	c #7B8998",
"2 	c #4C6A89",
"3 	c #046CE9",
"4 	c #0443B1",
"5 	c #0044C1",
"6 	c #0151CB",
"7 	c #0158C1",
"8 	c #1D45A1",
"9 	c #426FCF",
"0 	c #4E81DF",
"a 	c #237CEC",
"b 	c #2163A6",
"c 	c #154E89",
"d 	c #0B4D90",
"e 	c #06529F",
"f 	c #0558AC",
"g 	c #0A519E",
"h 	c #355BA6",
"i 	c #5A7CC7",
"j 	c #6179C6",
"k 	c #195797",
"l 	c #064E97",
"m 	c #0767C8",
"n 	c #0A75E1",
"o 	c #2079D6",
"p 	c #95A7C0",
"q 	c #B0DFF1",
"r 	c #A6E5FE",
"s 	c #A5E2FC",
"t 	c #9DD1EC",
"u 	c #738FC3",
"v 	c #19436D",
"w 	c #0D3D6F",
"x 	c #0E4E8E",
"y 	c #0F579F",
"z 	c #2D669F",
"A 	c #B2B2B2",
"B 	c #DCDCDC",
"C 	c #DEDEDE",
"D 	c #D2D2D2",
"E 	c #8B96A1",
"F 	c #0352CC",
"G 	c #0043BA",
"H 	c #0074F5",
"I 	c #008CFF",
"J 	c #008AFF",
"K 	c #1887EE",
"L 	c #8591C4",
"M 	c #B7F0FA",
"N 	c #AAFCFF",
"O 	c #A9FBFF",
"P 	c #A3E7FC",
"Q 	c #5D8EDE",
"R 	c #165697",
"S 	c #054E98",
"T 	c #0667C9",
"U 	c #0674E4",
"V 	c #4374C4",
"W 	c #9FB7DE",
"X 	c #B5FEFF",
"Y 	c #A8FBFF",
"Z 	c #ABFCFF",
"` 	c #91C1ED",
" .	c #14518E",
"..	c #095AAC",
"+.	c #0A71DA",
"@.	c #1D76DA",
"#.	c #96B0D8",
"$.	c #F6FBFB",
"%.	c #BCE3FA",
"&.	c #80BFF5",
"*.	c #7DBCF3",
"=.	c #93CEF9",
"-.	c #A7D9F4",
";.	c #6A90BE",
">.	c #153E67",
",.	c #0F559B",
"'.	c #26629E",
").	c #AEB7C0",
"!.	c #FAFAFA",
"~.	c #E0E0E0",
"{.	c #C1C1C1",
"].	c #C0C0C0",
"^.	c #CECECE",
"/.	c #D8D8D8",
"(.	c #83919F",
"_.	c #0046B9",
":.	c #0058D1",
"<.	c #0085FD",
"[.	c #0E88F5",
"}.	c #97B1DF",
"|.	c #FFFFFF",
"1.	c #C5F4FF",
"2.	c #6DCEFF",
"3.	c #68CAFF",
"4.	c #8DE3FF",
"5.	c #ACEEF8",
"6.	c #4F8ED8",
"7.	c #104E8D",
"8.	c #0659AE",
"9.	c #0671DE",
"0.	c #2674D6",
"a.	c #E2E2EE",
"b.	c #F7FEFF",
"c.	c #9BE5FF",
"d.	c #65C9FF",
"e.	c #70D0FF",
"f.	c #A2F3FF",
"g.	c #A0D4EB",
"h.	c #175492",
"i.	c #095FB6",
"j.	c #7894C8",
"k.	c #BAEAF8",
"l.	c #C6E9FA",
"m.	c #92C7F4",
"n.	c #89C4F4",
"o.	c #A4D9F8",
"p.	c #B5EAF8",
"q.	c #C1F5FF",
"r.	c #B5DAEA",
"s.	c #4366A1",
"t.	c #19416A",
"u.	c #0D4884",
"v.	c #99A2AB",
"w.	c #E4E4E4",
"x.	c #E7E7E7",
"y.	c #C9C9C9",
"z.	c #C6C6C6",
"A.	c #D7D7D7",
"B.	c #E3E3E3",
"C.	c #ECECEC",
"D.	c #DBDBDB",
"E.	c #53687E",
"F.	c #004EBF",
"G.	c #0066DF",
"H.	c #6692D7",
"I.	c #C8FEFF",
"J.	c #D4F7FF",
"K.	c #88DBFF",
"L.	c #77D8FF",
"M.	c #A7EEFF",
"N.	c #C2FFFF",
"O.	c #D5FFFF",
"P.	c #BEE3F2",
"Q.	c #1A58BB",
"R.	c #135290",
"S.	c #065EB8",
"T.	c #1D71DB",
"U.	c #8DC4E7",
"V.	c #DCFDFF",
"W.	c #C2EFFF",
"X.	c #72D6FF",
"Y.	c #85DCFF",
"Z.	c #B7F8FF",
"`.	c #C6FFFF",
" +	c #DAFEFF",
".+	c #809DC9",
"++	c #2463A4",
"@+	c #095097",
"#+	c #0A72DC",
"$+	c #3078D3",
"%+	c #91BBDF",
"&+	c #9BD6FA",
"*+	c #7BB9F2",
"=+	c #8DC5F6",
"-+	c #B4E8FC",
";+	c #CBFBFF",
">+	c #CAFFFF",
",+	c #C6F3F7",
"'+	c #6E87B3",
")+	c #316AAC",
"!+	c #0F3E6F",
"~+	c #0F559C",
"{+	c #3D6D9D",
"]+	c #BDC0C3",
"^+	c #D3D3D3",
"/+	c #BDBDBD",
"(+	c #C8C8C8",
"_+	c #F1F1F1",
":+	c #F2F2F2",
"<+	c #91979E",
"[+	c #31577E",
"}+	c #0769E7",
"|+	c #0046BB",
"1+	c #0087FC",
"2+	c #217EEB",
"3+	c #8EC4F2",
"4+	c #98EDFF",
"5+	c #65C8FF",
"6+	c #82DBFF",
"7+	c #C1FAFF",
"8+	c #E3FFFF",
"9+	c #E2FFFF",
"0+	c #DCF4F9",
"a+	c #6180C6",
"b+	c #1270EF",
"c+	c #2362A4",
"d+	c #074F99",
"e+	c #0671DF",
"f+	c #4F7FDA",
"g+	c #A5E6FA",
"h+	c #7AD8FF",
"i+	c #6ACBFF",
"j+	c #9AE9FF",
"k+	c #D2FEFF",
"l+	c #E4FFFF",
"m+	c #B6D5E8",
"n+	c #5C74C1",
"o+	c #144F8A",
"p+	c #096ACC",
"q+	c #4279CC",
"r+	c #A0CCE4",
"s+	c #83C2F4",
"t+	c #7CB8F1",
"u+	c #B2E6FC",
"v+	c #CFFFFF",
"w+	c #D8FFFF",
"x+	c #DBFFFF",
"y+	c #D4FFFF",
"z+	c #CDF9FB",
"A+	c #90ACC5",
"B+	c #225589",
"C+	c #163E65",
"D+	c #0E5090",
"E+	c #54789C",
"F+	c #CACACA",
"G+	c #C4C4C4",
"H+	c #BCBCBC",
"I+	c #E2E2E2",
"J+	c #F4F4F4",
"K+	c #F6F6F6",
"L+	c #F7F7F7",
"M+	c #F5F5F5",
"N+	c #F0F0F0",
"O+	c #B6B6B6",
"P+	c #284868",
"Q+	c #0444B2",
"R+	c #0078FB",
"S+	c #3278E1",
"T+	c #9DD8F8",
"U+	c #6FCEFF",
"V+	c #61C7FF",
"W+	c #BDF7FF",
"X+	c #E9FFFF",
"Y+	c #F5FFFF",
"Z+	c #F6FFFF",
"`+	c #F0FFFF",
" @	c #E7FCFF",
".@	c #84ACD8",
"+@	c #0F45A9",
"@@	c #124E8B",
"#@	c #066ACE",
"$@	c #6785D6",
"%@	c #A9F2FF",
"&@	c #4BB4FF",
"*@	c #7FDAFF",
"=@	c #D7FFFF",
"-@	c #ECFFFF",
";@	c #D2F2FF",
">@	c #5781BC",
",@	c #2C6AA9",
"'@	c #0C5197",
")@	c #0A74E0",
"!@	c #4278CC",
"~@	c #9AC8E4",
"{@	c #88C6F7",
"]@	c #92CAF7",
"^@	c #C3F7FE",
"/@	c #E7FFFF",
"(@	c #F1FFFF",
"_@	c #E0FFFF",
":@	c #CDF6F9",
"<@	c #8A9DC0",
"[@	c #1A528F",
"}@	c #26507A",
"|@	c #113F6C",
"1@	c #0F569E",
"2@	c #C7C7C7",
"3@	c #CBCBCB",
"4@	c #EDEDED",
"5@	c #F9F9F9",
"6@	c #FBFBFB",
"7@	c #F8F8F8",
"8@	c #EFEFEF",
"9@	c #B0B0B0",
"0@	c #22476C",
"a@	c #0D76F0",
"b@	c #0047C3",
"c@	c #008BFF",
"d@	c #97D2F5",
"e@	c #73D5FF",
"f@	c #87DFFF",
"g@	c #D7FEFF",
"h@	c #EAFFFF",
"i@	c #FDFFFF",
"j@	c #FAFFFF",
"k@	c #E7F9FC",
"l@	c #7F9DD4",
"m@	c #0C43BA",
"n@	c #2969AA",
"o@	c #0A4F95",
"p@	c #0674E3",
"q@	c #6582D5",
"r@	c #A6EFFE",
"s@	c #5AC3FF",
"t@	c #AAF1FF",
"u@	c #F3FFFF",
"v@	c #F4FFFF",
"w@	c #C8E8F5",
"x@	c #5573BC",
"y@	c #286098",
"z@	c #085BAD",
"A@	c #0975E1",
"B@	c #7D9CCF",
"C@	c #98D4F7",
"D@	c #A4D8FA",
"E@	c #C8FCFF",
"F@	c #F7FFFF",
"G@	c #CEEAF1",
"H@	c #3B79C2",
"I@	c #23496E",
"J@	c #A1AAB3",
"K@	c #D1D1D1",
"L@	c #FDFDFD",
"M@	c #FCFCFC",
"N@	c #E9E9E9",
"O@	c #53779B",
"P@	c #1063CF",
"Q@	c #0055DA",
"R@	c #73A8E2",
"S@	c #93EBFF",
"T@	c #A7EDFF",
"U@	c #DEFFFF",
"V@	c #E1ECF4",
"W@	c #2A78D2",
"X@	c #265E98",
"Y@	c #0759AD",
"Z@	c #217ADF",
"`@	c #97D2EE",
" #	c #86E1FF",
".#	c #C3F8FF",
"+#	c #A2B3D2",
"@#	c #0F57A5",
"##	c #255E98",
"$#	c #265A8E",
"%#	c #095FB7",
"&#	c #798FBF",
"*#	c #9CCFEC",
"=#	c #AEE2FD",
"-#	c #CCFFFF",
";#	c #AFBDD7",
">#	c #1773D4",
",#	c #224568",
"'#	c #0E4883",
")#	c #97A0A9",
"!#	c #CFCFCF",
"~#	c #BCC2C8",
"{#	c #215D99",
"]#	c #1059BB",
"^#	c #0062D2",
"/#	c #698BCE",
"(#	c #99DEF4",
"_#	c #B6F9FF",
":#	c #FCFFFF",
"<#	c #A8B9E0",
"[#	c #067CEA",
"}#	c #0063D2",
"|#	c #24588E",
"1#	c #055EB8",
"2#	c #2276DA",
"3#	c #789AD3",
"4#	c #AAFAFF",
"5#	c #C9FDFF",
"6#	c #F4F5FA",
"7#	c #5A84CD",
"8#	c #065BB4",
"9#	c #477DB1",
"0#	c #5C89AF",
"a#	c #B9BFC8",
"b#	c #7984A8",
"c#	c #AED7E6",
"d#	c #C9F9FD",
"e#	c #CCF6FB",
"f#	c #9ABCE0",
"g#	c #406EBC",
"h#	c #396FA5",
"i#	c #4D7DAD",
"j#	c #C2C8CE",
"k#	c #9B9B9B",
"l#	c #F3F3F3",
"m#	c #B7C0C9",
"n#	c #577593",
"o#	c #408CBF",
"p#	c #559CB2",
"q#	c #C9CDD5",
"r#	c #5D6EA9",
"s#	c #B8D9E9",
"t#	c #E1FCFF",
"u#	c #E5FFFF",
"v#	c #E5FCFF",
"w#	c #9DC1EF",
"x#	c #2568C7",
"y#	c #1075DB",
"z#	c #598198",
"A#	c #81A6B7",
"B#	c #B2B1C3",
"C#	c #6A85BB",
"D#	c #C9EBF6",
"E#	c #E8FFFF",
"F#	c #D7EDFA",
"G#	c #6D9CDE",
"H#	c #105CC4",
"I#	c #477CB0",
"J#	c #EA9B3C",
"K#	c #FEA23C",
"L#	c #BC7F4C",
"M#	c #3B6293",
"N#	c #4377B9",
"O#	c #8097BB",
"P#	c #A3C0D9",
"Q#	c #9FB6D7",
"R#	c #92A1CD",
"S#	c #247BDB",
"T#	c #386EA4",
"U#	c #AFB5BB",
"V#	c #9E9E9E",
"W#	c #4A6785",
"X#	c #597795",
"Y#	c #A8A8A8",
"Z#	c #B3B3B3",
"`#	c #2E67A0",
" $	c #408ABF",
".$	c #EA9E15",
"+$	c #FFA508",
"@$	c #BE6735",
"#$	c #164E8A",
"$$	c #2D6EC6",
"%$	c #7284C2",
"&$	c #A0B9E7",
"*$	c #A1B3E9",
"=$	c #8A98DB",
"-$	c #188AF6",
";$	c #8D8068",
">$	c #FFAA00",
",$	c #F9931B",
"'$	c #794732",
")$	c #115CBA",
"!$	c #4464B0",
"~$	c #8A9DD5",
"{$	c #A5BEEA",
"]$	c #9CAAE5",
"^$	c #6189DA",
"/$	c #0F75E3",
"($	c #0C5095",
"_$	c #3D7AB8",
":$	c #FE9E2D",
"<$	c #FC9F36",
"[$	c #E4781A",
"}$	c #946541",
"|$	c #3574BE",
"1$	c #0873E0",
"2$	c #316AA3",
"3$	c #BFBFBF",
"4$	c #A0A0A0",
"5$	c #858585",
"6$	c #3F6C99",
"7$	c #358ACA",
"8$	c #FF9F00",
"9$	c #FFA100",
"0$	c #F05C00",
"a$	c #8D3B2B",
"b$	c #2577CB",
"c$	c #97835F",
"d$	c #FFA800",
"e$	c #FF8B00",
"f$	c #D04506",
"g$	c #734651",
"h$	c #3379C0",
"i$	c #E09740",
"j$	c #FDA238",
"k$	c #ED801E",
"l$	c #9E6330",
"m$	c #6B78A4",
"n$	c #1877DD",
"o$	c #2A66A2",
"p$	c #A6AFB8",
"q$	c #A7A7A7",
"r$	c #848585",
"s$	c #7E8A96",
"t$	c #21609F",
"u$	c #007AFB",
"v$	c #2A8BD4",
"w$	c #DF9820",
"x$	c #FFA600",
"y$	c #F76A00",
"z$	c #9D3717",
"A$	c #5566A8",
"B$	c #0C89FA",
"C$	c #6E7B85",
"D$	c #FF9500",
"E$	c #E04C00",
"F$	c #7C4446",
"G$	c #3C6EC8",
"H$	c #104D8C",
"I$	c #E0953D",
"J$	c #FDA339",
"K$	c #E97B1B",
"L$	c #9E6432",
"M$	c #6A79A3",
"N$	c #1376DE",
"O$	c #A6ADB4",
"P$	c #C2C2C2",
"Q$	c #A3A3A3",
"R$	c #858686",
"S$	c #1B5D9F",
"T$	c #DF921D",
"U$	c #F46200",
"V$	c #9C3917",
"W$	c #5268A4",
"X$	c #088AFB",
"Y$	c #4478A6",
"Z$	c #FFA500",
"`$	c #FF9100",
" %	c #DE4D02",
".%	c #77423C",
"+%	c #3870CD",
"@%	c #B98543",
"#%	c #F6861E",
"$%	c #A46325",
"%%	c #767591",
"&%	c #1D78DC",
"*%	c #999DA2",
"=%	c #ADADAD",
"-%	c #868D93",
";%	c #27639F",
">%	c #BA7315",
",%	c #FF7600",
"'%	c #A6360C",
")%	c #5F5E88",
"!%	c #1088F8",
"~%	c #0067DF",
"{%	c #355E7F",
"]%	c #E98701",
"^%	c #E85200",
"/%	c #873E28",
"(%	c #446CBE",
"_%	c #0A74E3",
":%	c #697781",
"<%	c #835426",
"[%	c #6E7697",
"}%	c #707D8B",
"|%	c #737271",
"1%	c #838C95",
"2%	c #526F8E",
"3%	c #6C2101",
"4%	c #566392",
"5%	c #0086FF",
"6%	c #0059D1",
"7%	c #0045B9",
"8%	c #275A8C",
"9%	c #5A4334",
"0%	c #703326",
"a%	c #446CBC",
"b%	c #315984",
"c%	c #1F5596",
"d%	c #36516D",
"e%	c #2B4E73",
"f%	c #0A4698",
"g%	c #1545AF",
"h%	c #0045BC",
"i%	c #15477A",
"j%	c #173E6C",
"k%	c #0D67C7",
"l%	c #0859AC",
"m%	c #08539F",
"n%	c #0051CD",
"o%	c #0058C3",
"p%	c #046BE9",
"q%	c #144E89",
"r%	c #1167D4",
"s%	c #115FC3",
"              . + @ @ + .                             # $ % % $ #                             & * = = * &                             - ; > > ; -               ",
"          , ' ) ! ~ ~ { ] ^ /                     ( _ : < [ [ } | 1 2                     3 4 5 6 7 7 8 9 0 a                     b c d e f f g h i j           ",
"        k l m n n o p q r s t u                 v w x y y z A B C B D E                 F G H I J K L M N O P Q                 R S T U U U V W X Y Z `         ",
"       ...+.n n @.#.$.%.&.*.=.-.;.            >.[ ,.y y '.).!.~.{.].^./.(.            _.:.<.I I [.}.|.1.2.3.4.5.6.            7.8.9.U U U 0.a.b.c.d.e.f.g.      ",
"    h.i.n n n n j.k.l.m.n.o.p.q.r.s.        t.u.y y y y v.w.x.y.z.A.B.C.D.E.        F.G.I I I I H.I.J.K.L.M.N.O.P.Q.        R.S.U U U U T.U.V.W.X.Y.Z.`. +.+    ",
"  ++@+#+n n n $+%+&+*+=+-+;+>+>+,+'+)+    ( !+~+y y y {+]+^+/+(+B._+:+:+C.<+[+    }+|+1+I I I 2+3+4+5+6+7+8+9+9+0+a+b+    c+d+e+U U U U f+g+h+i+j+k+l+9+8+m+n+  ",
"  o+p+n n n n q+r+s+t+u+v+w+x+y+z+A+B+    C+D+y y y y E+F+G+H+I+J+K+L+M+N+O+P+    Q+R+I I I I S+T+U+V+W+X+Y+Z+`+ @.@+@    @@#@U U U U U $@%@&@*@=@`+Z+Z+-@;@>@  ",
",@'@)@n n n n !@~@{@]@^@v+/@(@_@:@<@[@,@}@|@1@y y y y E+2@2@3@4@J+5@6@7@8@9@0@}@a@b@c@I I I I S+d@e@f@g@h@i@|.j@k@l@m@a@n@o@p@U U U U U q@r@s@t@9+u@|.|.v@w@x@n@",
"y@z@n n n n n A@B@C@D@E@v+/@F@Y+G@H@z@y@I@[ y y y y y y J@K@/.N+J+5@L@M@N@O@[ I@P@Q@I I I I I I R@S@T@U@h@i@|.|.V@W@Q@P@X@Y@U U U U U U Z@`@ #.#9+u@|.|.i@+#@###",
"$#%#n n n n n n &#*#=#E@-#w+9+|.;#>#%#$#,#'#y y y y y y )#!#C N+:+K+7@|.~#{#'#,#]#^#I I I I I I /#(#_#U@l+v@:#|.<#[#}#]#|#1#U U U U U U 2#3#4#5#9+h@Z+|.6#7#8#|#",
"$#%#n n n n 9#0#a#b#c#d#-#-#e#f#g#A@%#$#,#'#y y y y h#i#j#k#A.8@:+l#8@m#n#y '#,#]#^#I I I I o#p#q#r#s#t#l+u#v#w#x#I ^#]#|#1#U U U U y#z#A#B#C#D#l+u#E#F#G#H#1#|#",
"y@z@n n n I#J#K#L#M#N#O#P#Q#R#S#n n z@y@I@[ y y y T#U#{.V#W#X#Y#G+G+Z#`#y y [ I@P@Q@I I I  $.$+$@$#$$$%$&$*$=$-$c@I Q@P@X@Y@U U U U ;$>$,$'$)$!$~${$]$^$/$U Y@X@",
",@($)@n _$:$<$[$}$|$n n 1$n n n n )@($,@}@|@1@y 2$/+3$4$5$6$y y y y y y y 1@|@}@a@b@c@I 7$8$9$0$a$b$I I I I I I I c@b@a@n@o@p@U U c$d$e$f$g$U U U U U U U p@o@n@",
"  o+p+h$i$j$k$l$m$n$n n n n n n n p+o+    C+D+o$p${.q$r$s$t$y y y y y y y D+C+    Q+u$v$w$x$y$z$A$B$I I I I I I I u$Q+    @@#@U C$d$D$E$F$G$U U U U U U U #@H$  ",
"  ++@+I$J$K$L$M$N$n n n n n n n #+@+++    ( !+O$P$Q$R$s$S$y y y y y y y ~+!+(     }+|+T$d$U$V$W$X$I I I I I I I 1+|+}+    c+d+Y$Z$`$ %.%+%U U U U U U U e+d+c+  ",
"    h.@%#%$%%%&%n n n n n n n n i.h.        t.*%=%5$-%;%y y y y y y y y u.t.        F.>%,%'%)%!%I I I I I I I I ~%F.        R.{%]%^%/%(%_%U U U U U U U S.R.    ",
"      :%<%[%&%n n n n n n n +... .            }%|%1%;%y y y y y y y ,.[ >.            2%3%4%!%I I I I I I I 5%6%7%            8%9%0%a%U U U U U U U 9.8.7.      ",
"        b%c%m n n n n n n m l k                 d%e%x y y y y y y x w v                 f%g%H I I I I I I H h%F                 i%j%k%U U U U U U T S R         ",
"          , ' ) ! ~ l%m%) ' ,                     ( _ : < [ [ < : _ (                     3 4 5 n%o%7 6 5 4 p%                    b c d e f f e d q%b           ",
"              . + @ @ + .                             # $ % % $ #                             & r%s%= * &                             - ; > > ; -               "};
