/* XPM */
static char * EXTNAVPOSTT_xpm[] = {
"80 20 198 2",
"  	c None",
". 	c #2A67A6",
"+ 	c #2A629B",
"@ 	c #285D92",
"# 	c #244E78",
"$ 	c #254A70",
"% 	c #23476A",
"& 	c #0C71EA",
"* 	c #1167D3",
"= 	c #115FC1",
"- 	c #2766A6",
"; 	c #27609B",
"> 	c #255B92",
", 	c #2565A6",
"' 	c #174F89",
") 	c #0E4F92",
"! 	c #0A55A1",
"~ 	c #0859AB",
"{ 	c #214C78",
"] 	c #183E64",
"^ 	c #123D6A",
"/ 	c #0F4174",
"( 	c #0E447B",
"_ 	c #046DE9",
": 	c #0444B1",
"< 	c #0043C3",
"[ 	c #004FD0",
"} 	c #0058C1",
"| 	c #2263A6",
"1 	c #144E89",
"2 	c #0A4D91",
"3 	c #0653A1",
"4 	c #0457AC",
"5 	c #195796",
"6 	c #084F98",
"7 	c #0968C8",
"8 	c #0A75E1",
"9 	c #19436D",
"0 	c #0D3D6E",
"a 	c #0E4E8F",
"b 	c #0F579F",
"c 	c #0352C9",
"d 	c #0043BC",
"e 	c #0073F6",
"f 	c #008CFF",
"g 	c #165596",
"h 	c #044D98",
"i 	c #0567CB",
"j 	c #0674E4",
"k 	c #14508E",
"l 	c #095AAC",
"m 	c #0A71DA",
"n 	c #163E67",
"o 	c #0F457C",
"p 	c #0F549B",
"q 	c #0046BA",
"r 	c #0058D2",
"s 	c #0085FF",
"t 	c #4087DE",
"u 	c #2C67C2",
"v 	c #104E8E",
"w 	c #0558AD",
"x 	c #0670DD",
"y 	c #185491",
"z 	c #0960B7",
"A 	c #1D7EE0",
"B 	c #569ADC",
"C 	c #69A3DB",
"D 	c #18406A",
"E 	c #0F4983",
"F 	c #1A5DA1",
"G 	c #3970A7",
"H 	c #4477A9",
"I 	c #014CC0",
"J 	c #0063E0",
"K 	c #1596FF",
"L 	c #BFE2FB",
"M 	c #6ABCFD",
"N 	c #145291",
"O 	c #055EB8",
"P 	c #3A91E9",
"Q 	c #78B4EE",
"R 	c #2F75BC",
"S 	c #2564A4",
"T 	c #095098",
"U 	c #0A72DC",
"V 	c #A3BED8",
"W 	c #90B5D9",
"X 	c #214B77",
"Y 	c #0E3E6E",
"Z 	c #0F559C",
"` 	c #638AAE",
" .	c #5883AC",
"..	c #076BE6",
"+.	c #0046BC",
"@.	c #0087FC",
"#.	c #AAD9FC",
"$.	c #95CFFC",
"%.	c #2263A5",
"&.	c #054E98",
"*.	c #0671DF",
"=.	c #308BE8",
"-.	c #E0EEF7",
";.	c #154F8B",
">.	c #096ACC",
",.	c #147AE0",
"'.	c #86B1D9",
").	c #163E65",
"!.	c #0F5091",
"~.	c #145AA0",
"{.	c #5380AB",
"].	c #0444B2",
"^.	c #0077F7",
"/.	c #40A9FE",
"(.	c #8ACAFC",
"_.	c #114D8B",
":.	c #0569CE",
"<.	c #D6E8F6",
"[.	c #4497EA",
"}.	c #2C6AA9",
"|.	c #0D5196",
"1.	c #0A74E0",
"2.	c #4390DE",
"3.	c #ACC3D7",
"4.	c #26507A",
"5.	c #113F6D",
"6.	c #0F569E",
"7.	c #2E6AA5",
"8.	c #688DAF",
"9.	c #0D77EF",
"0.	c #0046C0",
"a.	c #008BFF",
"b.	c #0B91FF",
"c.	c #2969AA",
"d.	c #094F96",
"e.	c #0673E2",
"f.	c #82BAEF",
"g.	c #59A2EB",
"h.	c #286098",
"i.	c #095AAB",
"j.	c #23496F",
"k.	c #0F457B",
"l.	c #1063CF",
"m.	c #0058DE",
"n.	c #DFF1FB",
"o.	c #255E98",
"p.	c #0558AC",
"q.	c #2585E7",
"r.	c #CBE2F5",
"s.	c #265A8E",
"t.	c #095FB7",
"u.	c #EFE3D3",
"v.	c #224568",
"w.	c #0E4883",
"x.	c #8DA3B6",
"y.	c #1059BB",
"z.	c #0063D2",
"A.	c #FFFFFA",
"B.	c #75C1FD",
"C.	c #23588E",
"D.	c #3A8CDE",
"E.	c #73A7DB",
"F.	c #2967A4",
"G.	c #497AAA",
"H.	c #1B80E6",
"I.	c #C1DCF4",
"J.	c #D2D5D5",
"K.	c #3087DF",
"L.	c #E5DED4",
"M.	c #7D9AB3",
"N.	c #2464A3",
"O.	c #88A0B5",
"P.	c #ACD1F3",
"Q.	c #7CACDA",
"R.	c #DCDAD4",
"S.	c #4E7DAA",
"T.	c #829DB4",
"U.	c #CAE7FB",
"V.	c #60B7FD",
"W.	c #6EAEED",
"X.	c #EAF3F8",
"Y.	c #B6C8D6",
"Z.	c #6E90B0",
"`.	c #D4ECFB",
" +	c #209AFE",
".+	c #97C5F1",
"++	c #63A8EC",
"@+	c #BFCCD6",
"#+	c #2783DF",
"$+	c #7393B1",
"%+	c #1F60A2",
"&+	c #80C6FC",
"*+	c #609EDC",
"=+	c #3E74A8",
"-+	c #2A9FFE",
";+	c #C1DCF5",
">+	c #438DD7",
",+	c #2E68A0",
"              . + @ @ + .                             # $ % % $ #                             & * = = * &                             - ; > > ; -               ",
"          , ' ) ! ~ ~ ! ) ' ,                     { ] ^ / ( ( / ^ ] {                     _ : < [ } } [ < : _                     | 1 2 3 4 4 3 2 1 |           ",
"        5 6 7 8 8 8 8 8 8 7 6 5                 9 0 a b b b b b b a 0 9                 c d e f f f f f f e d c                 g h i j j j j j j i h g         ",
"      k l m 8 8 8 8 8 8 8 8 m l k             n o p b b b b b b b b p o n             q r s f f f f f f f f s t u             v w x j j j j j j j j x w v       ",
"    y z 8 8 8 8 8 8 8 8 8 A B C z y         D E b b b b b b b b b F G H E D         I J f f f f f f f f f K L M J I         N O j j j j j j j j j j P Q R N     ",
"  S T U 8 8 8 8 8 8 8 8 8 V W 8 U T S     X Y Z b b b b b b b b b `  .b Z Y X     ..+.@.f f f f f f f f f #.$.f @.+...    %.&.*.j j j j j j j j j =.-.P *.&.%.  ",
"  ;.>.8 8 8 8 8 8 8 8 ,.V '.8 8 8 >.;.    ).!.b b b b b b b b ~.` {.b b b !.).    ].^.f f f f f f f f /.#.(.f f f ^.].    _.:.j j j j j j j j j =.<.[.j j :._.  ",
"}.|.1.8 8 8 8 8 8 8 2.3.V ,.8 8 8 1.|.}.4.5.6.b b b b b b b 7.8.` ~.b b b 6.5.4.9.0.a.f f f f f f f f L #.b.f f f a.0.9.c.d.e.j j j j j j j j f.<.g.j j j e.d.c.",
"h.i.8 8 8 8 8 8 8 8 W V 8 8 8 8 8 8 i.h.j.k.b b b b b b b b  .` b b b b b b k.j.l.m.f f f f f f f f $.n.f f f f f f m.l.o.p.j j j j j j j j q.r.g.j j j j j p.o.",
"s.t.8 8 8 8 8 8 8 C u.2.8 8 8 8 8 8 t.s.v.w.b b b b b b b H x.7.b b b b b b w.v.y.z.f f f f f f f M A.B.f f f f f f z.y.C.O j j j j j j j j r.-.j j j j j j O C.",
"s.t.8 A B D.8 8 E.u.C 8 8 8 8 8 8 8 t.s.v.w.b F G F.b b G.x.H b b b b b b b w.v.y.z.f K L A.B.f B.A.M f f f f f f f z.y.C.O j j P g.H.j H.I.-.=.j j j j j j O C.",
"h.i.8 V u.J.K.B L.W 8 8 8 8 8 8 8 8 i.h.j.k.b ` x.M.N.G O. .b b b b b b b b k.j.l.m.f K L A.n.f n.A.f f f f f f f f m.l.o.p.j =.-.A.P.j P.A.P j j j j j j j p.o.",
"}.|.1.K.J.u.Q.V R.2.8 8 8 8 8 8 8 1.|.}.4.5.6.N.M.x.S.` T.7.b b b b b b b 6.5.4.9.0.a.f f U.A.A.A.V.f f f f f f f a.0.9.c.d.e.j W.A.X.g.X.r.j j j j j j j e.d.c.",
"  ;.>.8 D.u.u.u.Y.8 8 8 8 8 8 8 8 >.;.    ).!.b F.x.x.x.Z.b b b b b b b b !.).    ].^.f f V.A.A.`. +f f f f f f f ^.].    _.:.j j .+A.A.A.++j j j j j j j :._.  ",
"  S T U 8 @+u.u.#+8 8 8 8 8 8 8 U T S     X Y Z b $+x.x.%+b b b b b b b Z Y X     ..+.@.f f L `.&+f f f f f f f @.+...    %.&.*.j [.X.A.I.j j j j j j j *.&.%.  ",
"    y z 8 *+R.B ,.8 8 8 8 8 8 8 z y         D E b =+T.G ~.b b b b b b b E D         I J f f #.-+f f f f f f f f J I         N O j j ;+P.[.j j j j j j j O N     ",
"      k l >+K.8 8 8 8 8 8 8 m l k             n o ,+N.b b b b b b b p o n             q r s f f f f f f f f s r q             v w x W.j j j j j j j x w v       ",
"        5 6 7 8 8 8 8 8 8 7 6 5                 9 0 a b b b b b b a 0 9                 c d e f f f f f f e d c                 g h i j j j j j j i h g         ",
"          , ' ) ! ~ ~ ! ) ' ,                     { ] ^ / ( ( / ^ ] {                     _ : < [ } } [ < : _                     | 1 2 3 4 4 3 2 1 |           ",
"              . + @ @ + .                             # $ % % $ #                             & * = = * &                             - ; > > ; -               "};
