/* XPM */
static char * EXTNAVREFRESHL_xpm[] = {
"128 30 219 2",
"  	c None",
". 	c #3975B2",
"+ 	c #2F5780",
"@ 	c #198CFF",
"# 	c #3774B3",
"$ 	c #3272B5",
"% 	c #2164A8",
"& 	c #134E8A",
"* 	c #0D3C6D",
"= 	c #06315C",
"- 	c #06294D",
"; 	c #295481",
"> 	c #204C7B",
", 	c #153C65",
"' 	c #113456",
") 	c #0C263E",
"! 	c #0B85FF",
"~ 	c #006BF9",
"{ 	c #003FB8",
"] 	c #001C80",
"^ 	c #000A56",
"/ 	c #00003E",
"( 	c #2E70B5",
"_ 	c #0F4C8B",
": 	c #05396F",
"< 	c #042C54",
"[ 	c #02264B",
"} 	c #2A6EB3",
"| 	c #053769",
"1 	c #07427D",
"2 	c #07539F",
"3 	c #075DB5",
"4 	c #096ACC",
"5 	c #0A72DC",
"6 	c #076CD2",
"7 	c #245180",
"8 	c #0D2E4F",
"9 	c #0D365E",
"0 	c #0E3F71",
"a 	c #0E4A86",
"b 	c #0F5192",
"c 	c #0F559D",
"d 	c #007CFF",
"e 	c #001676",
"f 	c #002890",
"g 	c #004DD1",
"h 	c #0185FF",
"i 	c #276CB3",
"j 	c #053E7A",
"k 	c #05509D",
"l 	c #0672E0",
"m 	c #155697",
"n 	c #064C93",
"o 	c #0864C2",
"p 	c #0A75E1",
"q 	c #18436E",
"r 	c #0F579F",
"s 	c #003FC6",
"t 	c #0072FF",
"u 	c #008CFF",
"v 	c #0088FF",
"w 	c #0564C5",
"x 	c #0674E4",
"y 	c #0D4276",
"z 	c #054484",
"A 	c #388BD6",
"B 	c #819CA0",
"C 	c #999C85",
"D 	c #A59B7B",
"E 	c #73A3B7",
"F 	c #386DA1",
"G 	c #587693",
"H 	c #5D7389",
"I 	c #4C749D",
"J 	c #64788C",
"K 	c #0036AB",
"L 	c #34A0ED",
"M 	c #8CB2B8",
"N 	c #ABAE89",
"O 	c #B7B07E",
"P 	c #9BA990",
"Q 	c #71B2C7",
"R 	c #99B19F",
"S 	c #0A3F76",
"T 	c #348FE3",
"U 	c #8CA7A2",
"V 	c #AAA67F",
"W 	c #B7AA76",
"X 	c #064F98",
"Y 	c #5C96C0",
"Z 	c #A3A186",
"` 	c #8EB6CF",
" .	c #FFFFFD",
"..	c #FFFEFE",
"+.	c #FFFFFF",
"@.	c #FAEDD0",
"#.	c #F5DDAC",
"$.	c #BAB998",
"%.	c #4599D6",
"&.	c #8F907C",
"*.	c #A69665",
"=.	c #4576A7",
"-.	c #6D95B1",
";.	c #CCCCCC",
">.	c #BCBCBC",
",.	c #B2B2B2",
"'.	c #748C9C",
").	c #56697D",
"!.	c #4DAEF1",
"~.	c #97CAD2",
"{.	c #FFFEF2",
"].	c #FFFFC3",
"^.	c #C2CFA3",
"/.	c #949494",
"(.	c #B7985F",
"_.	c #063C73",
":.	c #59A2D0",
"<.	c #C3C99D",
"[.	c #989778",
"}.	c #08519A",
"|.	c #FEFEFA",
"1.	c #FBF2DD",
"2.	c #FCF3E1",
"3.	c #FDF8ED",
"4.	c #8F9C96",
"5.	c #9CBABA",
"6.	c #A38D68",
"7.	c #526E8A",
"8.	c #C9C9C9",
"9.	c #C1C1C1",
"0.	c #C3C3C3",
"a.	c #C6C6C6",
"b.	c #698699",
"c.	c #8CC5E9",
"d.	c #A5D4CE",
"e.	c #B69D72",
"f.	c #B7B98A",
"g.	c #A7CCC5",
"h.	c #05498E",
"i.	c #539EEB",
"j.	c #0D3B68",
"k.	c #B8A46E",
"l.	c #0756A7",
"m.	c #FCF6E7",
"n.	c #0057F3",
"o.	c #FFFFED",
"p.	c #3774B4",
"q.	c #F0CB88",
"r.	c #F2D296",
"s.	c #0F549A",
"t.	c #9D9D9D",
"u.	c #A6A6A6",
"v.	c #FFE78B",
"w.	c #FFF3A3",
"x.	c #0671DD",
"y.	c #F9E8C6",
"z.	c #EBBB6C",
"A.	c #8D9788",
"B.	c #EDC278",
"C.	c #2C659D",
"D.	c #028DFF",
"E.	c #FFFFDA",
"F.	c #FFFFE5",
"G.	c #FFD56C",
"H.	c #FFDA75",
"I.	c #F8E5BE",
"J.	c #0C76E1",
"K.	c #E7AF5B",
"L.	c #A1946F",
"M.	c #0C457E",
"N.	c #818176",
"O.	c #FFFFD4",
"P.	c #FFDE7B",
"Q.	c #FFBC46",
"R.	c #9F8764",
"S.	c #2A83D7",
"T.	c #EFC882",
"U.	c #000D62",
"V.	c #FFFCB5",
"W.	c #1C99FB",
"X.	c #FFE384",
"Y.	c #0568CC",
"Z.	c #2282E0",
"`.	c #8D876F",
" +	c #888887",
".+	c #456482",
"++	c #465B70",
"@+	c #FFED96",
"#+	c #FFF09C",
"$+	c #FFD771",
"%+	c #A98951",
"&+	c #7E8988",
"*+	c #FFC351",
"=+	c #918C77",
"-+	c #0875E4",
";+	c #9A7D59",
">+	c #395169",
",+	c #AB7D48",
"'+	c #FFCD60",
")+	c #897564",
"!+	c #1079E4",
"~+	c #147BE2",
"{+	c #3B6188",
"]+	c #185DA2",
"^+	c #76969B",
"/+	c #068FFF",
"(+	c #0C91FE",
"_+	c #0C77E5",
":+	c #0874E1",
"<+	c #4289C6",
"[+	c #2085E8",
"}+	c #708188",
"|+	c #A79F71",
"1+	c #967254",
"2+	c #A16D46",
"3+	c #3D7EC2",
"4+	c #268CF2",
"5+	c #3D7EC1",
"6+	c #187BDE",
"                        . . . . . . . .                                                 + + + + + + + +                                                 @ @ @ @ @ @ @ @                                                 # # # # # # # #                         ",
"                  . $ % & * = - - = * & % $ .                                     + ; > , ' ) ) ) ) ' , > ; +                                     @ ! ~ { ] ^ / / ^ ] { ~ ! @                                     # ( % _ : < [ [ < : _ % ( #                   ",
"              . } & | 1 2 3 4 5 5 6 3 2 1 | & } .                             + 7 , 8 9 0 a b c c b a 0 9 8 , 7 +                             @ d { e f g ~ d h h d ~ g f e { d @                             # i _ | j k 3 6 l l 6 3 k j | _ i #               ",
"            $ m : n o p p p p p p p p p p o n : m $                         ; q 8 * _ r r r r r r r r r r _ * 8 q ;                         ! g ] s t u u u u u u u v u u t s ] g !                         ( m : n w x x x x x x x x x x w n : m (             ",
"          } y z o p p p A B C D D C E A p p p o z y C                     7 ' 9 _ r r r F G H H H G I F r r r _ 9 ' J                     d f K ~ u u u L M N O O P Q L u u u ~ K f R                     i S z w x x x T U V W W N E T x x x w z S N           ",
"        } S X 5 p p Y Z `  .....+.@.#.$.Z %.p p 5 &.*.}                 7 ' * c r r =.H -.;.;.;.;.>.,.'.J F r r c ).).7                 d f s v u u !.O ~.+. ...+.{.].^.N !.u u h /.(.d                 i _.X l x x :.W ~.+. .....{.].<.N %.x x l [.(.i         ",
"      ( S }.p p p C ` |.|.1.1.1.1.2.2.3.2.N 4.p 4.5.6.S (             ; ' 0 r r r 7.-.;.8.9.9.9.9.0.0.a.0.b.G r G '.).' ;             h f g u u u N c.+.+.|.+. .+.+.+.+.+.$.R u R d.e.f h             } _.X x x x D c.+.+.|.+. .+.+.+. .+.f.P x P g.(._.}       ",
"    . & h.p p p C i.+.@.2.1.2.1.2.2.1.2.2.3.M D $...D h.& .         + , j.r r r H =.;.>.0.9.0.9.0.0.9.0.0.a.b.H '.;.H j., +         @ K { u u u N !.+.{.+.+.+.+.+.+.+.+.+. .~.W ^.+.W { K @         # a h.x x x V i. .{.+.+.+.+.+.+.+.+.+. .~.k.<.+.k.h.a #     ",
"    % : 4 p p C i...@.2.2.1.1.2.2.1.1.1.2.2.3.#.....D 4 : %         > 8 b r r H =.;.>.0.0.9.9.0.0.9.9.9.0.0.a.,.;.;.H b 8 >         ~ ] d v u V !.+.{.+.+.+.+.+.+.+.+.+.+.+.+.].+.+.W d ] ~         % : 6 x x V i.+.{.+.+.+.+.+.+.+.+.+.+.+...].+.+.k.6 : %     ",
"  . y l.p p -.` ..@.1.1.1.2.m.@.@.3.2.1.1.1.2.2.|...D p l.y .     + ' y r r I -.;.>.9.9.9.0.a.>.>.a.0.9.9.9.0.9.;.;.H r y ' +     @ f n.u u Q c.+.o. . .+.+.+.o.o.+.+. . .+.+.+.+.+.W u n.f @     p.S l.x x E c...o. . .+.+.+.o.o.+.+. . .+...+.+.+.k.x l.S p.  ",
"  i | 5 p p Z ..2.@.@.@.2.q.Z D D Z r.2.1.1.1.1.|...D p 5 | i     7 8 s.r r J ;.0.>.>.>.0.t.J J H J u.0.9.9.9.9.8.;.H r s.8 7     d e h u u f.+.+.o.o.{.+.v.f.O O f.w.+.+. .+.+.+.+.W u h e d     i | x.x x O ..+.o.o.{.+.v.O W W O w.+.+. .+.+.+.+.k.x x.| i   ",
". m n p p Y `  .y.y.y.@.z.A.A p p A C B.y.1.2.1.3...D p p n m . + q j.r r I -.;.,.>.>.>./.7.C.r r C.H /.>.9.0.9.8.;.H r r j.q + @ g s u D.:.c.+.E.F.F.{.G.P L u u L N H.E.+.+. .+.+.W u v { g @ # s.h.x x Y c.+.E.F.F.{.G.Z A x x A V H.E.+.+. .+.+.k.x x h.m # ",
". y 3 p p A...2.#.#.I.B.A.J.p p p p A.K.z.B.r.@.3...L.p p 3 0 . + ' M.r r 7.8.9.,.,.,./.7.r r r r r 7.N././.u.>.a.;.).r r M.' + @ f n.u u P +.+.].].O.P.Z D.u u u u P Q.G.H.w.o.+.+.k.u u n.f @ # S 3 x x C  ...].].O.P.D x x x x x C Q.G.H.w.o.+.+.(.x x 3 _.# ",
". = 4 p p R...#.#.#.#.L.S.p p p p A.D T.T.q.q.q.I...6.p p 4 = . + 8 _ r r ).;.,.u.u.,.).% r r r r 7.H t.t.t.t.t.,.;.).r r b 8 + @ U.t u u (.+.V.V.V.].(.W.u u u u P O X.v.v.v.v.O.+.(.u u t U.@ # = Y.x x (...V.V.V.].(.Z.x x x x C W X.v.v.v.v.O.+.(.x x Y.= # ",
". - 5 p p D ..q.q.r.T.`.p p p p  +L.z.z.B.B.T.T.r.2.R.p p 5 - . + ) c r r H 8.t.u.u.t..+c r r r 7.)././././.t.t.u.0.++r r s.) + @ / h u u O +.@+#+#+X.L.u u u u C (.G.G.$+P.X.X.@+..(.u u h / @ # [ x.x l W +.@+#+#+X.6.x x x x [.(.G.G.$+P.X.X.@++.%+x x x.[ # ",
". - 5 p p L.+.B.T.q.K.`.p p p Y  +&+&+&+&+&+&+&+N.&+ +p p 5 - . + ) c r r ).;./.t.t. +.+r r r F .+.+.+.+.+.+.+.+.+.+.+r r s.) + @ / h u u k.+.P.X.v.*+L.u u u :.C A.A.A.A.A.A.A.A.A.C u u h / @ # [ x.x x (.+.P.X.v.*+6.x x x Y [.&.&.&.&.=+=+=+=+=+[.-+x x.[ # ",
". = 4 p p ;+{.B.B.z.K.;+p p p p p p p p p p p p p p p p p 4 = . + 8 _ r r >+8././. + +++c r r r r r r r r r r r c r r r r b ) + @ U.t u u ,++.P.H.'+*+%+D.u u u u u u u u u u u u u u u u t U.@ # = Y.x x ,++.P.H.'+*+,+-+x x x x x x x x x x x x x x x x Y.= # ",
". y 3 p p )+y.r.z.K.K.6.'.p p p p p p !+~+J.p p p p p p p 3 y . + ' M.r r >+>.u./. + +).{+r r r r r r r ]+r r r r r r r r M.' + @ f n.u u ;+F.@+G.*+*+(.^+u u u u u u /+(+D.u u u u u u u n.f @ # S 3 x x ;+F.@+G.*+*+(.&+x x x x x x _+!+-+x x x x x x x 3 _.# ",
". m h.p p b.B.I.K.K.K.z.;+b.p p p :+A <+..Z.~+p p p p p p h.m . + q j.r r {+/.,. + + + +++{+r r r r C.F ;.% ]+r r r r r r j.q + @ g s u u ^+H.O.'+*+*+'+%+-.u u u u L L +.W./+u u u u u u s g @ # m h.x l &+H.O.'+*+*+'+,+'.x x x x A %.+.[+!+x x x x x x h.m # ",
"  i | 5 5 Z.;+|.z.K.K.z.B.=+)+b.b.}+-.{.|.+.Z.~+p ~+p p 5 | i     7 8 s.r ]+++8. +&+ + +/.).>+{+{+{+I a.8.;.% ]+r ]+r r s.8 7     d e h u W.,++.'+Q.'+'+G.|+;+^+^+&+Q  . ...W.(+u (+u u h e d     i | x.x Z.,++.'+Q.'+'+$+*.;+&+&+N.E |.....[+~+x !+x x x.| i   ",
"  . y l.p p N.z...K.z.z.B.q.r.B.q.@.1.3.......~+Z.p p p l.y .     + ' y r r >+/.;.N. +/./.t.u./.t.>.9.a.;.;.;.]+% c r r y ' +     @ f n.u u `.H.+.Q.'+G.H.v.w.P.v.o.+.+.+.+.+.(+W.u u u n.f @     p._.l.x x )+H.+.Q.'+'+H.v.w.P.v.{.+.+.+.+...!+[+x x x l._.p.  ",
"    % : 4 p !+1+{.@.K.z.B.T.r.#.I.@.1.|.......Z.S.p p 4 : %         > 8 b r ]+>+a.>. +/./.t.u.u.,.>.9.;.;.;.;.% ]+r r b 8 >         ~ ] d u /+1++.{.*+G.P.v.#+V.O.o.+.+.+.+.+.W.W.u u d ] ~         % : 6 x !+2++.{.*+G.P.v.#+V.O.o.+.+.+.+.+.[+Z.x x 6 : %     ",
"    . & h.p p 3+1+m.1.z.B.q.r.#.I.1.{.......T <+:+p p h.& .         + , j.r c C.>+0.>././.t.u.,.,.9.8.;.;.;.C.C.r r r j., +         @ K { u u %.,+ . .G.P.v.w.V.E.|.+.+.+.+.W.L u u u { K @         # a h.x x <+2++.+.G.P.v.w.V.E.|.+.+.+. .4+<+x x x h.a #     ",
"      ( S }.p p <+1+B...#.q.r.#.I.1.|.....%.5+:+p p }.S (             ; ' 0 r s.C.>+/.8.,.t.u.,.,.0.;.;.;.F C.r r r 0 ' ;             h f g u u %.1+P. .].v.w.].E.+.+.+. .!.%.D.u u g f h             } _.X x x <+2+P. .].v.w.].E.+.+.+...:.<+x x x X _.}       ",
"        } S X 5 p 6+N.;+z.y.3.m.m.|.y.-.b.<+J.p 5 X S }                 7 ' * c c ]+>+>+ +>.a.0.0.;.>.I {+C.r r c * ' 7                 d f s v u (+`.,+'+F.+.+.+.+.E.Q ^+%.u u v s f d                 i _.X l x ~+)+,+'+F.+.+.+.+.E.E '.<+:+x l X _.i         ",
"          } y z o :+l S.}+)+1+1+)+)+}+<+p 5 p o z y }                     7 ' 9 _ r r C.{+>+>+>+>+>++ C.r r r _ 9 ' 7                     d f K ~ u u L ^+;+2+;+;+;+&+%.D.u u ~ K f d                     i S z w x p S.&+1+2+2+1+1+N.<+:+x x w z S i           ",
"            $ m : n o p p p :+:+p p p p p o n : m $                         ; q 8 * _ r r c c c c r r r r _ * 8 q ;                         ! g ] s t v u u u u u u u u u t s ] g !                         ( m : n w x x :+x x -+x x x x w n : m (             ",
"              . } & | 1 2 3 6 5 5 6 3 2 1 | & } .                             + 7 , 8 9 0 a b c c b a 0 9 8 , 7 +                             @ d { e f g ~ d h h d ~ g f e { d @                             # i _ | j k 3 6 l l 6 3 k j | _ i #               ",
"                  . $ % & * = - - = * & % $ .                                     + ; > , 8 ) ) ) ) ' , > ; +                                     @ ! ~ { ] ^ / / ^ ] { ~ ! @                                     # ( % _ : < [ [ < : _ % ( #                   ",
"                        . . . . . . . .                                                 + + + + + + + +                                                 @ @ @ @ @ @ @ @                                                 # # # # # # # #                         "};
