/* XPM */
static char * EXTNAVDELETET_xpm[] = {
"80 20 188 2",
"  	c None",
". 	c #2A67A6",
"+ 	c #2A629B",
"@ 	c #285D92",
"# 	c #244E78",
"$ 	c #254A70",
"% 	c #23476A",
"& 	c #0C72EA",
"* 	c #1167D3",
"= 	c #115FC1",
"- 	c #2766A6",
"; 	c #27609B",
"> 	c #255B92",
", 	c #2565A6",
"' 	c #175089",
") 	c #0E4F92",
"! 	c #0956A2",
"~ 	c #0859AB",
"{ 	c #214C78",
"] 	c #183E64",
"^ 	c #123D6A",
"/ 	c #0F4174",
"( 	c #0E447B",
"_ 	c #046DE8",
": 	c #0444B1",
"< 	c #0043C2",
"[ 	c #004FD0",
"} 	c #0058C1",
"| 	c #2263A6",
"1 	c #134E89",
"2 	c #0A4D91",
"3 	c #0653A1",
"4 	c #0457AC",
"5 	c #195796",
"6 	c #084F98",
"7 	c #0968C8",
"8 	c #0A75E1",
"9 	c #19436D",
"0 	c #0D3D6E",
"a 	c #0E4E8F",
"b 	c #0F579F",
"c 	c #0352CA",
"d 	c #0043BB",
"e 	c #0072F5",
"f 	c #008CFF",
"g 	c #165596",
"h 	c #044D99",
"i 	c #0566CA",
"j 	c #0674E4",
"k 	c #14508D",
"l 	c #095AAC",
"m 	c #0A72DB",
"n 	c #163E67",
"o 	c #0F457C",
"p 	c #0F549B",
"q 	c #0046BA",
"r 	c #0058D2",
"s 	c #0086FF",
"t 	c #104E8E",
"u 	c #0558AD",
"v 	c #0671DE",
"w 	c #185491",
"x 	c #0960B7",
"y 	c #18406A",
"z 	c #0F4983",
"A 	c #014CC0",
"B 	c #0064E2",
"C 	c #145291",
"D 	c #055EB8",
"E 	c #2564A4",
"F 	c #095098",
"G 	c #0A72DC",
"H 	c #214B77",
"I 	c #0E3E6E",
"J 	c #0F559C",
"K 	c #076AE6",
"L 	c #0046BC",
"M 	c #0087FC",
"N 	c #2263A5",
"O 	c #064E99",
"P 	c #0671DF",
"Q 	c #154F8B",
"R 	c #096ACC",
"S 	c #163E65",
"T 	c #0F5091",
"U 	c #0444B2",
"V 	c #0077F7",
"W 	c #114D8B",
"X 	c #0669CE",
"Y 	c #2C6AA9",
"Z 	c #0D5196",
"` 	c #0A74E0",
" .	c #26507A",
"..	c #113F6D",
"+.	c #0F569E",
"@.	c #0D77EF",
"#.	c #0047C2",
"$.	c #008BFF",
"%.	c #2969AA",
"&.	c #094F96",
"*.	c #0673E2",
"=.	c #286098",
"-.	c #095AAB",
";.	c #83B0DC",
">.	c #E1DED7",
",.	c #E3DFD7",
"'.	c #EEE4D4",
").	c #EEE3D4",
"!.	c #B8CAD9",
"~.	c #23496F",
"{.	c #0F457B",
"].	c #5B86AF",
"^.	c #90A5B8",
"/.	c #8DA3B6",
"(.	c #859FB8",
"_.	c #1063CF",
":.	c #0058DE",
"<.	c #85C6FB",
"[.	c #EEF6F8",
"}.	c #F0F7F8",
"|.	c #FEFEF9",
"1.	c #FDFEFA",
"2.	c #BFE1FA",
"3.	c #255E98",
"4.	c #0659AC",
"5.	c #87BCF0",
"6.	c #EEF5FA",
"7.	c #F0F6FA",
"8.	c #FEFEFE",
"9.	c #FDFDFE",
"0.	c #C1DBF5",
"a.	c #265A8E",
"b.	c #095FB7",
"c.	c #E2DED7",
"d.	c #EFE3D3",
"e.	c #224568",
"f.	c #0E4883",
"g.	c #8EA3B6",
"h.	c #1059BB",
"i.	c #0063D2",
"j.	c #FFFFFA",
"k.	c #FCFEF9",
"l.	c #23588E",
"m.	c #EFF5FA",
"n.	c #FFFFFF",
"o.	c #FCFDFE",
"p.	c #94B9DC",
"q.	c #D4D7D6",
"r.	c #D9DAD6",
"s.	c #CDD4D8",
"t.	c #A3BED8",
"u.	c #7CAEDE",
"v.	c #7294B4",
"w.	c #8CA4B8",
"x.	c #8FA5B8",
"y.	c #88A1B7",
"z.	c #638AAE",
"A.	c #628AB1",
"B.	c #98CFFA",
"C.	c #E0F0F9",
"D.	c #E6F3F9",
"E.	c #D8EBF9",
"F.	c #AAD9FC",
"G.	c #7DC1F9",
"H.	c #9AC5F2",
"I.	c #E1EDFA",
"J.	c #E6F0FB",
"K.	c #D8EAFA",
"L.	c #ACD1F6",
"M.	c #ACD0F6",
"N.	c #7FB9F0",
"O.	c #167BE1",
"P.	c #3B8EE0",
"Q.	c #4190E0",
"R.	c #348AE0",
"S.	c #1C5FA2",
"T.	c #3871A9",
"U.	c #3B72A9",
"V.	c #346EA8",
"W.	c #0E92FE",
"X.	c #36A3FD",
"Y.	c #3CA6FC",
"Z.	c #2E9FFC",
"`.	c #137BE5",
" +	c #3B90E8",
".+	c #4094E9",
"++	c #328CE7",
"@+	c #0674E3",
"              . + @ @ + .                             # $ % % $ #                             & * = = * &                             - ; > > ; -               ",
"          , ' ) ! ~ ~ ! ) ' ,                     { ] ^ / ( ( / ^ ] {                     _ : < [ } } [ < : _                     | 1 2 3 4 4 3 2 1 |           ",
"        5 6 7 8 8 8 8 8 8 7 6 5                 9 0 a b b b b b b a 0 9                 c d e f f f f f f e d c                 g h i j j j j j j i h g         ",
"      k l m 8 8 8 8 8 8 8 8 m l k             n o p b b b b b b b b p o n             q r s f f f f f f f f s r q             t u v j j j j j j j j v u t       ",
"    w x 8 8 8 8 8 8 8 8 8 8 8 8 x w         y z b b b b b b b b b b b b z y         A B f f f f f f f f f f f f B A         C D j j j j j j j j j j j j D C     ",
"  E F G 8 8 8 8 8 8 8 8 8 8 8 8 G F E     H I J b b b b b b b b b b b b J I H     K L M f f f f f f f f f f f f M L K     N O P j j j j j j j j j j j j P O N   ",
"  Q R 8 8 8 8 8 8 8 8 8 8 8 8 8 8 R Q     S T b b b b b b b b b b b b b b T S     U V f f f f f f f f f f f f f f V U     W X j j j j j j j j j j j j j j X W   ",
"Y Z ` 8 8 8 8 8 8 8 8 8 8 8 8 8 8 ` Z Y  ...+.b b b b b b b b b b b b b b +... .@.#.$.f f f f f f f f f f f f f f $.#.@.%.&.*.j j j j j j j j j j j j j j *.&.%.",
"=.-.8 8 8 ;.>.,.,.,.'.'.'.).!.8 8 8 -.=.~.{.b b b ].^.^.^.^././././.(.b b b {.~._.:.f f f <.[.}.}.}.|.|.|.1.2.f f f :._.3.4.j j j 5.6.7.7.7.8.8.8.9.0.j j j 4.3.",
"a.b.8 8 8 c.d.d.d.d.d.d.d.d.).8 8 8 b.a.e.f.b b b ^././././././././.g.b b b f.e.h.i.f f f [.j.j.j.j.j.j.j.j.k.f f f i.h.l.D j j j m.n.n.n.n.n.n.n.n.o.j j j D l.",
"a.b.8 8 8 p.q.r.r.r.r.s.t.t.u.8 8 8 b.a.e.f.b b b v.w.x.x.x.x.y.z.z.A.b b b f.e.h.i.f f f B.C.D.D.D.D.E.F.F.G.f f f i.h.l.D j j j H.I.J.J.J.J.K.L.M.N.j j j D l.",
"=.-.8 8 8 O.P.Q.Q.Q.Q.R.8 8 8 8 8 8 -.=.~.{.b b b S.T.U.U.U.U.V.b b b b b b {.~._.:.f f f W.X.Y.Y.Y.Y.Z.f f f f f f :._.3.4.j j j `. +.+.+.+.+++j j @+j j j 4.3.",
"Y Z ` 8 8 8 8 8 8 8 8 8 8 8 8 8 8 ` Z Y  ...+.b b b b b b b b b b b b b b +... .@.#.$.f f f f f f f f f f f f f f $.#.@.%.&.*.j j j j j j j j j j j j j j *.&.%.",
"  Q R 8 8 8 8 8 8 8 8 8 8 8 8 8 8 R Q     S T b b b b b b b b b b b b b b T S     U V f f f f f f f f f f f f f f V U     W X j j j j j j j j j j j j j j X W   ",
"  E F G 8 8 8 8 8 8 8 8 8 8 8 8 G F E     H I J b b b b b b b b b b b b J I H     K L M f f f f f f f f f f f f M L K     N O P j j j j j j j j j j j j P O N   ",
"    w x 8 8 8 8 8 8 8 8 8 8 8 8 x w         y z b b b b b b b b b b b b z y         A B f f f f f f f f f f f f B A         C D j j j j j j j j j j j j D C     ",
"      k l m 8 8 8 8 8 8 8 8 m l k             n o p b b b b b b b b p o n             q r s f f f f f f f f s r q             t u v j j j j j j j j v u t       ",
"        5 6 7 8 8 8 8 8 8 7 6 5                 9 0 a b b b b b b a 0 9                 c d e f f f f f f e d c                 g h i j j j j j j i h g         ",
"          , ' ) ! ~ ~ ! ) ' ,                     { ] ^ / ( ( / ^ ] {                     _ : < [ } } [ < : _                     | 1 2 3 4 4 3 2 1 |           ",
"              . + @ @ + .                             # $ % % $ #                             & * = = * &                             - ; > > ; -               "};
