/* XPM */
static char * EXTNAVFIRSTL_xpm[] = {
"128 30 195 2",
"  	c None",
". 	c #3975B2",
"+ 	c #2F5780",
"@ 	c #198CFF",
"# 	c #3774B3",
"$ 	c #3171B5",
"% 	c #2264AA",
"& 	c #134E8B",
"* 	c #0B3C6E",
"= 	c #073159",
"- 	c #05294C",
"; 	c #295482",
"> 	c #1F4B7A",
", 	c #153D66",
"' 	c #103152",
") 	c #0D2944",
"! 	c #0C243B",
"~ 	c #0A84FF",
"{ 	c #006BF2",
"] 	c #0041B6",
"^ 	c #001F7F",
"/ 	c #000A56",
"( 	c #00003D",
"_ 	c #2E70B6",
": 	c #1E63AA",
"< 	c #0F4C8A",
"[ 	c #073A6D",
"} 	c #032E58",
"| 	c #01264A",
"1 	c #2A6DB2",
"2 	c #144F8C",
"3 	c #073869",
"4 	c #07427D",
"5 	c #08529E",
"6 	c #0961B9",
"7 	c #096CCF",
"8 	c #0A72DD",
"9 	c #245180",
"0 	c #163D66",
"a 	c #0D2E4F",
"b 	c #0D355C",
"c 	c #0E3F72",
"d 	c #0E4984",
"e 	c #0E5193",
"f 	c #0F559D",
"g 	c #007DFF",
"h 	c #0043B8",
"i 	c #001775",
"j 	c #002A9B",
"k 	c #0049DB",
"l 	c #0066FF",
"m 	c #007BFF",
"n 	c #0086FF",
"o 	c #276CB3",
"p 	c #104D8B",
"q 	c #033668",
"r 	c #033F7C",
"s 	c #04509E",
"t 	c #055FBA",
"u 	c #056AD1",
"v 	c #0671DF",
"w 	c #3272B4",
"x 	c #175796",
"y 	c #073A6F",
"z 	c #074D94",
"A 	c #0966C5",
"B 	c #0A75E1",
"C 	c #2A5581",
"D 	c #18436D",
"E 	c #0D2F53",
"F 	c #0D3C6C",
"G 	c #0E4D8C",
"H 	c #0F579F",
"I 	c #0B86FF",
"J 	c #0052CB",
"K 	c #001B80",
"L 	c #003FC7",
"M 	c #006FFF",
"N 	c #008CFF",
"O 	c #2F71B5",
"P 	c #145597",
"Q 	c #03386E",
"R 	c #034B94",
"S 	c #0565C7",
"T 	c #0674E4",
"U 	c #2A6DB3",
"V 	c #0D4277",
"W 	c #074483",
"X 	c #0964C1",
"Y 	c #113558",
"Z 	c #0D3660",
"` 	c #0E4B8A",
" .	c #002A90",
"..	c #002EA7",
"+.	c #006BFF",
"@.	c #276CB4",
"#.	c #0A4077",
"$.	c #034283",
"%.	c #0563C3",
"&.	c #0B4075",
"*.	c #084F96",
"=.	c #0A73DE",
"-.	c #103357",
";.	c #0E3D6D",
">.	c #00268C",
",.	c #0043CB",
"'.	c #0088FF",
").	c #073D74",
"!.	c #044D97",
"~.	c #0672E0",
"{.	c #2E70B4",
"].	c #0C4075",
"^.	c #08519A",
"/.	c #275381",
"(.	c #0E3F70",
"_.	c #0482FF",
":.	c #0047D3",
"<.	c #2B6FB5",
"[.	c #083D74",
"}.	c #044F9A",
"|.	c #124C87",
"1.	c #074A8D",
"2.	c #EFE3D3",
"3.	c #143B63",
"4.	c #0D3A67",
"5.	c #8DA3B6",
"6.	c #003DAE",
"7.	c #0039BA",
"8.	c #FFFFFA",
"9.	c #0E4A87",
"0.	c #03488D",
"a.	c #FEFEFE",
"b.	c #2366AB",
"c.	c #063A70",
"d.	c #096CCE",
"e.	c #204D7B",
"f.	c #0C2F53",
"g.	c #0E5192",
"h.	c #006FF3",
"i.	c #001B82",
"j.	c #2065AB",
"k.	c #02386F",
"l.	c #056AD0",
"m.	c #3975B3",
"n.	c #0D4276",
"o.	c #0857A5",
"p.	c #113557",
"q.	c #0E4377",
"r.	c #002A8E",
"s.	c #0052E8",
"t.	c #3774B4",
"u.	c #093F76",
"v.	c #0455A6",
"w.	c #286CB1",
"x.	c #06376A",
"y.	c #0A71D9",
"z.	c #23517F",
"A.	c #0C2D4F",
"B.	c #0F549A",
"C.	c #001577",
"D.	c #0084FF",
"E.	c #256BB2",
"F.	c #023569",
"G.	c #0670DB",
"H.	c #175797",
"I.	c #074B90",
"J.	c #18436E",
"K.	c #0D3B69",
"L.	c #0052CD",
"M.	c #003BC0",
"N.	c #145598",
"O.	c #034990",
"P.	c #0D4175",
"Q.	c #085CB0",
"R.	c #113457",
"S.	c #0E467E",
"T.	c #00288C",
"U.	c #005CFD",
"V.	c #093E74",
"W.	c #045AB1",
"X.	c #08335F",
"Y.	c #0969CB",
"Z.	c #0E2B48",
"`.	c #0E4F90",
" +	c #000D62",
".+	c #0075FF",
"++	c #04305D",
"@+	c #0568CC",
"#+	c #06294D",
"$+	c #0A72DC",
"%+	c #0C243C",
"&+	c #0F559C",
"*+	c #00003F",
"=+	c #02264B",
"-+	c #0671DE",
"                        . . . . . . . .                                                 + + + + + + + +                                                 @ @ @ @ @ @ @ @                                                 # # # # # # # #                         ",
"                  . $ % & * = - - = * & % $ .                                     + ; > , ' ) ! ! ) ' , > ; +                                     @ ~ { ] ^ / ( ( / ^ ] { ~ @                                     # _ : < [ } | | } [ < : _ #                   ",
"              . 1 2 3 4 5 6 7 8 8 7 6 5 4 3 2 1 .                             + 9 0 a b c d e f f e d c b a 0 9 +                             @ g h i j k l m n n m l k j i h g @                             # o p q r s t u v v u t s r q p o #               ",
"            w x y z A B B B B B B B B B B A z y x w                         C D E F G H H H H H H H H H H G F E D C                         I J K L M N N N N N N N N N N M L K J I                         O P Q R S T T T T T T T T T T S R Q P O             ",
"          U V W X B B B B B B B B B B B B B B X W V U                     9 Y Z ` H H H H H H H H H H H H H H ` Z Y 9                     g  ...+.N N N N N N N N N N N N N N +... .g                     @.#.$.%.T T T T T T T T T T T T T T %.$.#.@.          ",
"        1 &.*.=.B B B B B B B B B B B B B B B B =.*.&.1                 9 -.;.f H H H H H H H H H H H H H H H H f ;.-.9                 g >.,.'.N N N N N N N N N N N N N N N N '.,.>.g                 o ).!.~.T T T T T T T T T T T T T T T T ~.!.).o         ",
"      {.].^.B B B B B B B B B B B B B B B B B B B B ^.].{.            /.-.(.H H H H H H H H H H H H H H H H H H H H (.-./.            _.>.:.N N N N N N N N N N N N N N N N N N N N :.>._.            <.[.}.T T T T T T T T T T T T T T T T T T T T }.[.<.      ",
"    . |.1.B 2.2.B B B B B B B 2.B B B B B B B 2.B B B 1.|..         + 3.4.H 5.5.H H H H H H H 5.H H H H H H H 5.H H H 4.3.+         @ 6.7.N N 8.8.N N N N N N N 8.N N N N N N N 8.N N 7.6.@         # 9.0.T a.a.T T T T T T T a.T T T T T T T a.T T T 0.9.#     ",
"    b.c.d.B 2.2.B B B B B B 2.2.B B B B B B 2.2.B B B d.c.b.        e.f.g.H 5.5.H H H H H H 5.5.H H H H H H 5.5.H H H g.f.e.        h.i.m N N 8.8.N N N N N N 8.8.N N N N N N 8.8.N N m i.h.        j.k.l.T a.a.T T T T T T a.a.T T T T T T a.a.T T T l.k.j.    ",
"  m.n.o.B B 2.2.B B B B B 2.2.2.B B B B B 2.2.2.B B B B o.n.m.    + p.q.H H 5.5.H H H H H 5.5.5.H H H H H 5.5.5.H H H H q.p.+     @ r.s.N N N 8.8.N N N N N 8.8.8.N N N N N 8.8.8.N N N s.r.@     t.u.v.T T a.a.T T T T T a.a.a.T T T T T a.a.a.T T T T v.u.t.  ",
"  w.x.y.B B 2.2.B B B B 2.2.2.2.B B B B 2.2.2.2.B B B B y.x.w.    z.A.B.H H 5.5.H H H H 5.5.5.5.H H H H 5.5.5.5.H H H H B.A.z.    m C.D.N N N 8.8.N N N N 8.8.8.8.N N N N 8.8.8.8.N N N D.C.m     E.F.G.T T a.a.T T T T a.a.a.a.T T T T a.a.a.a.T T T T G.F.E.  ",
". H.I.B B B 2.2.B B B 2.2.2.2.2.B B B 2.2.2.2.2.B B B B B I.H.. + J.K.H H H 5.5.H H H 5.5.5.5.5.H H H 5.5.5.5.5.H H H H H K.J.+ @ L.M.N N N N 8.8.N N N 8.8.8.8.8.N N N 8.8.8.8.8.N N N N M.L.@ # N.O.T T T a.a.T T T a.a.a.a.a.T T T a.a.a.a.a.T T T T T O.N.# ",
". P.Q.B B B 2.2.B B 2.2.2.2.2.2.B B 2.2.2.2.2.2.B B B B B Q.P.. + R.S.H H H 5.5.H H 5.5.5.5.5.5.H H 5.5.5.5.5.5.H H H H H S.R.+ @ T.U.N N N N 8.8.N N 8.8.8.8.8.8.N N 8.8.8.8.8.8.N N N N U.T.@ # V.W.T T T a.a.T T a.a.a.a.a.a.T T a.a.a.a.a.a.T T T T T W.V.# ",
". X.Y.B B B 2.2.B 2.2.2.2.2.2.2.B 2.2.2.2.2.2.2.B B B B B Y.X.. + Z.`.H H H 5.5.H 5.5.5.5.5.5.5.H 5.5.5.5.5.5.5.H H H H H `.Z.+ @  +.+N N N N 8.8.N 8.8.8.8.8.8.8.N 8.8.8.8.8.8.8.N N N N .+ +@ # ++@+T T T a.a.T a.a.a.a.a.a.a.T a.a.a.a.a.a.a.T T T T T @+++# ",
". #+$+B B B 2.2.2.2.2.2.2.2.2.2.2.2.2.2.2.2.2.2.B B B B B $+#+. + %+&+H H H 5.5.5.5.5.5.5.5.5.5.5.5.5.5.5.5.5.5.H H H H H &+%++ @ *+n N N N N 8.8.8.8.8.8.8.8.8.8.8.8.8.8.8.8.8.8.N N N N n *+@ # =+-+T T T a.a.a.a.a.a.a.a.a.a.a.a.a.a.a.a.a.a.T T T T T -+=+# ",
". #+$+B B B 2.2.2.2.2.2.2.2.2.2.2.2.2.2.2.2.2.2.B B B B B $+#+. + %+&+H H H 5.5.5.5.5.5.5.5.5.5.5.5.5.5.5.5.5.5.H H H H H &+%++ @ *+n N N N N 8.8.8.8.8.8.8.8.8.8.8.8.8.8.8.8.8.8.N N N N n *+@ # =+-+T T T a.a.a.a.a.a.a.a.a.a.a.a.a.a.a.a.a.a.T T T T T -+=+# ",
". X.Y.B B B 2.2.B 2.2.2.2.2.2.2.B 2.2.2.2.2.2.2.B B B B B Y.X.. + Z.`.H H H 5.5.H 5.5.5.5.5.5.5.H 5.5.5.5.5.5.5.H H H H H `.Z.+ @  +.+N N N N 8.8.N 8.8.8.8.8.8.8.N 8.8.8.8.8.8.8.N N N N .+ +@ # ++@+T T T a.a.T a.a.a.a.a.a.a.T a.a.a.a.a.a.a.T T T T T @+++# ",
". P.Q.B B B 2.2.B B 2.2.2.2.2.2.B B 2.2.2.2.2.2.B B B B B Q.P.. + R.S.H H H 5.5.H H 5.5.5.5.5.5.H H 5.5.5.5.5.5.H H H H H S.R.+ @ T.U.N N N N 8.8.N N 8.8.8.8.8.8.N N 8.8.8.8.8.8.N N N N U.T.@ # V.W.T T T a.a.T T a.a.a.a.a.a.T T a.a.a.a.a.a.T T T T T W.V.# ",
". H.I.B B B 2.2.B B B 2.2.2.2.2.B B B 2.2.2.2.2.B B B B B I.H.. + J.K.H H H 5.5.H H H 5.5.5.5.5.H H H 5.5.5.5.5.H H H H H K.J.+ @ L.M.N N N N 8.8.N N N 8.8.8.8.8.N N N 8.8.8.8.8.N N N N M.L.@ # N.O.T T T a.a.T T T a.a.a.a.a.T T T a.a.a.a.a.T T T T T O.N.# ",
"  w.x.y.B B 2.2.B B B B 2.2.2.2.B B B B 2.2.2.2.B B B B y.x.w.    z.A.B.H H 5.5.H H H H 5.5.5.5.H H H H 5.5.5.5.H H H H B.A.z.    m C.D.N N N 8.8.N N N N 8.8.8.8.N N N N 8.8.8.8.N N N D.C.m     E.F.G.T T a.a.T T T T a.a.a.a.T T T T a.a.a.a.T T T T G.F.E.  ",
"  m.n.o.B B 2.2.B B B B B 2.2.2.B B B B B 2.2.2.B B B B o.n.m.    + p.q.H H 5.5.H H H H H 5.5.5.H H H H H 5.5.5.H H H H q.p.+     @ r.s.N N N 8.8.N N N N N 8.8.8.N N N N N 8.8.8.N N N s.r.@     t.u.v.T T a.a.T T T T T a.a.a.T T T T T a.a.a.T T T T v.u.t.  ",
"    b.c.d.B 2.2.B B B B B B 2.2.B B B B B B 2.2.B B B d.c.b.        e.f.g.H 5.5.H H H H H H 5.5.H H H H H H 5.5.H H H g.f.e.        h.i.m N N 8.8.N N N N N N 8.8.N N N N N N 8.8.N N m i.h.        j.k.l.T a.a.T T T T T T a.a.T T T T T T a.a.T T T l.k.j.    ",
"    . |.1.B 2.2.B B B B B B B 2.B B B B B B B 2.B B B 1.|..         + 3.4.H 5.5.H H H H H H H 5.H H H H H H H 5.H H H 4.3.+         @ 6.7.N N 8.8.N N N N N N N 8.N N N N N N N 8.N N 7.6.@         # 9.0.T a.a.T T T T T T T a.T T T T T T T a.T T T 0.9.#     ",
"      {.].^.B B B B B B B B B B B B B B B B B B B B ^.].{.            /.-.(.H H H H H H H H H H H H H H H H H H H H (.-./.            _.>.:.N N N N N N N N N N N N N N N N N N N N :.>._.            <.[.}.T T T T T T T T T T T T T T T T T T T T }.[.<.      ",
"        1 &.*.=.B B B B B B B B B B B B B B B B =.*.&.1                 9 -.;.f H H H H H H H H H H H H H H H H f ;.-.9                 g >.,.'.N N N N N N N N N N N N N N N N '.,.>.g                 o ).!.~.T T T T T T T T T T T T T T T T ~.!.).o         ",
"          U V W X B B B B B B B B B B B B B B X W V U                     9 Y Z ` H H H H H H H H H H H H H H ` Z Y 9                     g  ...+.N N N N N N N N N N N N N N +... .g                     @.#.$.%.T T T T T T T T T T T T T T %.$.#.@.          ",
"            w x y z A B B B B B B B B B B A z y x w                         C D E F G H H H H H H H H H H G F E D C                         I J K L M N N N N N N N N N N M L K J I                         O P Q R S T T T T T T T T T T S R Q P O             ",
"              . 1 2 3 4 5 6 7 8 8 7 6 5 4 3 2 1 .                             + 9 0 a b c d e f f e d c b a 0 9 +                             @ g h i j k l m n n m l k j i h g @                             # o p q r s t u v v u t s r q p o #               ",
"                  . $ % & * = - - = * & % $ .                                     + ; > , ' ) ! ! ) ' , > ; +                                     @ ~ { ] ^ / ( ( / ^ ] { ~ @                                     # _ : < [ } | | } [ < : _ #                   ",
"                        . . . . . . . .                                                 + + + + + + + +                                                 @ @ @ @ @ @ @ @                                                 # # # # # # # #                         "};
