/* XPM */
static char * EXTNAVMOVENEXTL_xpm[] = {
"128 30 194 2",
"  	c None",
". 	c #3975B2",
"+ 	c #2F5780",
"@ 	c #198CFF",
"# 	c #3774B3",
"$ 	c #3171B5",
"% 	c #2264AA",
"& 	c #134E8B",
"* 	c #0B3C6E",
"= 	c #073159",
"- 	c #05294C",
"; 	c #295482",
"> 	c #1F4B7A",
", 	c #153D66",
"' 	c #103152",
") 	c #0D2944",
"! 	c #0C243B",
"~ 	c #0A84FF",
"{ 	c #006BF2",
"] 	c #0041B6",
"^ 	c #001F7F",
"/ 	c #000A56",
"( 	c #00003D",
"_ 	c #2E70B6",
": 	c #1E63AA",
"< 	c #0F4C8A",
"[ 	c #073A6D",
"} 	c #032E58",
"| 	c #01264A",
"1 	c #2A6DB2",
"2 	c #144F8C",
"3 	c #073869",
"4 	c #07427D",
"5 	c #08529E",
"6 	c #0961B9",
"7 	c #096CCF",
"8 	c #0A72DD",
"9 	c #245180",
"0 	c #163D66",
"a 	c #0D2E4F",
"b 	c #0D355C",
"c 	c #0E3F72",
"d 	c #0E4984",
"e 	c #0E5193",
"f 	c #0F559D",
"g 	c #007DFF",
"h 	c #0043B8",
"i 	c #001775",
"j 	c #002A9B",
"k 	c #0049DB",
"l 	c #0066FF",
"m 	c #007BFF",
"n 	c #0086FF",
"o 	c #276CB3",
"p 	c #104D8B",
"q 	c #033668",
"r 	c #033F7C",
"s 	c #04509E",
"t 	c #055FBA",
"u 	c #056AD1",
"v 	c #0671DF",
"w 	c #3272B4",
"x 	c #175796",
"y 	c #073A6F",
"z 	c #074D94",
"A 	c #0966C5",
"B 	c #0A75E1",
"C 	c #2A5581",
"D 	c #18436D",
"E 	c #0D2F53",
"F 	c #0D3C6C",
"G 	c #0E4D8C",
"H 	c #0F579F",
"I 	c #0B86FF",
"J 	c #0052CB",
"K 	c #001B80",
"L 	c #003FC7",
"M 	c #006FFF",
"N 	c #008CFF",
"O 	c #2F71B5",
"P 	c #145597",
"Q 	c #03386E",
"R 	c #034B94",
"S 	c #0565C7",
"T 	c #0674E4",
"U 	c #2A6DB3",
"V 	c #0D4277",
"W 	c #074483",
"X 	c #0964C1",
"Y 	c #113558",
"Z 	c #0D3660",
"` 	c #0E4B8A",
" .	c #002A90",
"..	c #002EA7",
"+.	c #006BFF",
"@.	c #276CB4",
"#.	c #0A4077",
"$.	c #034283",
"%.	c #0563C3",
"&.	c #0B4075",
"*.	c #084F96",
"=.	c #0A73DE",
"-.	c #FDF1E1",
";.	c #103357",
">.	c #0E3D6D",
",.	c #8DA3B6",
"'.	c #00268C",
").	c #0043CB",
"!.	c #0088FF",
"~.	c #FFFFFA",
"{.	c #073D74",
"].	c #044D97",
"^.	c #0672E0",
"/.	c #2E70B4",
"(.	c #0C4075",
"_.	c #08519A",
":.	c #275381",
"<.	c #0E3F70",
"[.	c #0482FF",
"}.	c #0047D3",
"|.	c #2B6FB5",
"1.	c #083D74",
"2.	c #044F9A",
"3.	c #124C87",
"4.	c #074A8D",
"5.	c #143B63",
"6.	c #0D3A67",
"7.	c #003DAE",
"8.	c #0039BA",
"9.	c #0E4A87",
"0.	c #03488D",
"a.	c #2366AB",
"b.	c #063A70",
"c.	c #096CCE",
"d.	c #204D7B",
"e.	c #0C2F53",
"f.	c #0E5192",
"g.	c #006FF3",
"h.	c #001B82",
"i.	c #2065AB",
"j.	c #02386F",
"k.	c #056AD0",
"l.	c #3975B3",
"m.	c #0D4276",
"n.	c #0857A5",
"o.	c #113557",
"p.	c #0E4377",
"q.	c #002A8E",
"r.	c #0052E8",
"s.	c #3774B4",
"t.	c #093F76",
"u.	c #0455A6",
"v.	c #286CB1",
"w.	c #06376A",
"x.	c #0A71D9",
"y.	c #23517F",
"z.	c #0C2D4F",
"A.	c #0F549A",
"B.	c #001577",
"C.	c #0084FF",
"D.	c #256BB2",
"E.	c #023569",
"F.	c #0670DB",
"G.	c #175797",
"H.	c #074B90",
"I.	c #18436E",
"J.	c #0D3B69",
"K.	c #0052CD",
"L.	c #003BC0",
"M.	c #145598",
"N.	c #034990",
"O.	c #0D4175",
"P.	c #085CB0",
"Q.	c #113457",
"R.	c #0E467E",
"S.	c #00288C",
"T.	c #005CFD",
"U.	c #093E74",
"V.	c #045AB1",
"W.	c #08335F",
"X.	c #0969CB",
"Y.	c #0E2B48",
"Z.	c #0E4F90",
"`.	c #000D62",
" +	c #0075FF",
".+	c #04305D",
"++	c #0568CC",
"@+	c #06294D",
"#+	c #0A72DC",
"$+	c #0C243C",
"%+	c #0F559C",
"&+	c #00003F",
"*+	c #02264B",
"=+	c #0671DE",
"                        . . . . . . . .                                                 + + + + + + + +                                                 @ @ @ @ @ @ @ @                                                 # # # # # # # #                         ",
"                  . $ % & * = - - = * & % $ .                                     + ; > , ' ) ! ! ) ' , > ; +                                     @ ~ { ] ^ / ( ( / ^ ] { ~ @                                     # _ : < [ } | | } [ < : _ #                   ",
"              . 1 2 3 4 5 6 7 8 8 7 6 5 4 3 2 1 .                             + 9 0 a b c d e f f e d c b a 0 9 +                             @ g h i j k l m n n m l k j i h g @                             # o p q r s t u v v u t s r q p o #               ",
"            w x y z A B B B B B B B B B B A z y x w                         C D E F G H H H H H H H H H H G F E D C                         I J K L M N N N N N N N N N N M L K J I                         O P Q R S T T T T T T T T T T S R Q P O             ",
"          U V W X B B B B B B B B B B B B B B X W V U                     9 Y Z ` H H H H H H H H H H H H H H ` Z Y 9                     g  ...+.N N N N N N N N N N N N N N +... .g                     @.#.$.%.T T T T T T T T T T T T T T %.$.#.@.          ",
"        1 &.*.=.B B B B B -.-.-.-.-.B B B B B B =.*.&.1                 9 ;.>.f H H H H H H ,.,.,.,.,.H H H H H f >.;.9                 g '.).!.N N N N N N ~.~.~.~.~.N N N N N !.).'.g                 o {.].^.T T T T T T T T T T T T T T T T ^.].{.o         ",
"      /.(._.B B B B B B B -.-.-.-.-.B B B B B B B B _.(./.            :.;.<.H H H H H H H H ,.,.,.,.,.H H H H H H H <.;.:.            [.'.}.N N N N N N N N ~.~.~.~.~.N N N N N N N }.'.[.            |.1.2.T T T T T T T T ~.~.~.~.~.T T T T T T T 2.1.|.      ",
"    . 3.4.B B B B B B B B -.-.-.-.-.B B B B B B B B B 4.3..         + 5.6.H H H H H H H H H ,.,.,.,.,.H H H H H H H H 6.5.+         @ 7.8.N N N N N N N N N ~.~.~.~.~.N N N N N N N N 8.7.@         # 9.0.T T T T T T T T T ~.~.~.~.~.T T T T T T T T 0.9.#     ",
"    a.b.c.B B B B B B B B -.-.-.-.-.B B B B B B B B B c.b.a.        d.e.f.H H H H H H H H H ,.,.,.,.,.H H H H H H H H f.e.d.        g.h.m N N N N N N N N N ~.~.~.~.~.N N N N N N N N m h.g.        i.j.k.T T T T T T T T T ~.~.~.~.~.T T T T T T T T k.j.i.    ",
"  l.m.n.B B B B B B B B B -.-.-.-.-.B B B B B B B B B B n.m.l.    + o.p.H H H H H H H H H H ,.,.,.,.,.H H H H H H H H H p.o.+     @ q.r.N N N N N N N N N N ~.~.~.~.~.N N N N N N N N N r.q.@     s.t.u.T T T T T T T T T T ~.~.~.~.~.T T T T T T T T T u.t.s.  ",
"  v.w.x.B B B B B B B B B -.-.-.-.-.B B B B B B B B B B x.w.v.    y.z.A.H H H H H H H H H H ,.,.,.,.,.H H H H H H H H H A.z.y.    m B.C.N N N N N N N N N N ~.~.~.~.~.N N N N N N N N N C.B.m     D.E.F.T T T T T T T T T T ~.~.~.~.~.T T T T T T T T T F.E.D.  ",
". G.H.B B B B -.B B B B B -.-.-.-.-.B B B B B -.B B B B B H.G.. + I.J.H H H H H ,.H H H H H ,.,.,.,.,.H H H H H ,.H H H H J.I.+ @ K.L.N N N N N ~.N N N N N ~.~.~.~.~.N N N N N ~.N N N N L.K.@ # M.N.T T T T T T T T T T T ~.~.~.~.~.T T T T T T T T T T N.M.# ",
". O.P.B B B B -.-.B B B B -.-.-.-.-.B B B B -.-.B B B B B P.O.. + Q.R.H H H H H ,.,.H H H H ,.,.,.,.,.H H H H ,.,.H H H H R.Q.+ @ S.T.N N N N N ~.~.N N N N ~.~.~.~.~.N N N N ~.~.N N N N T.S.@ # U.V.T T T T T ~.T T T T T ~.~.~.~.~.T T T T T ~.T T T T V.U.# ",
". W.X.B B B B -.-.-.B B B -.-.-.-.-.B B B -.-.-.B B B B B X.W.. + Y.Z.H H H H H ,.,.,.H H H ,.,.,.,.,.H H H ,.,.,.H H H H Z.Y.+ @ `. +N N N N N ~.~.~.N N N ~.~.~.~.~.N N N ~.~.~.N N N N  +`.@ # .+++T T T T T ~.~.T T T T ~.~.~.~.~.T T T T ~.~.T T T T ++.+# ",
". @+#+B B B B -.-.-.-.B B -.-.-.-.-.B B -.-.-.-.B B B B B #+@+. + $+%+H H H H H ,.,.,.,.H H ,.,.,.,.,.H H ,.,.,.,.H H H H %+$++ @ &+n N N N N N ~.~.~.~.N N ~.~.~.~.~.N N ~.~.~.~.N N N N n &+@ # *+=+T T T T T ~.~.~.T T T ~.~.~.~.~.T T T ~.~.~.T T T T =+*+# ",
". @+#+B B B B -.-.-.-.-.B -.-.-.-.-.B -.-.-.-.-.B B B B B #+@+. + $+%+H H H H H ,.,.,.,.,.H ,.,.,.,.,.H ,.,.,.,.,.H H H H %+$++ @ &+n N N N N N ~.~.~.~.~.N ~.~.~.~.~.N ~.~.~.~.~.N N N N n &+@ # *+=+T T T T T ~.~.~.~.T T ~.~.~.~.~.T T ~.~.~.~.T T T T =+*+# ",
". W.X.B B B B -.-.-.-.-.-.-.-.-.-.-.-.-.-.-.-.-.B B B B B X.W.. + Y.Z.H H H H H ,.,.,.,.,.,.,.,.,.,.,.,.,.,.,.,.,.H H H H Z.Y.+ @ `. +N N N N N ~.~.~.~.~.~.~.~.~.~.~.~.~.~.~.~.~.N N N N  +`.@ # .+++T T T T T ~.~.~.~.~.T ~.~.~.~.~.T ~.~.~.~.~.T T T T ++.+# ",
". O.P.B B B B -.-.-.-.-.-.-.-.-.-.-.-.-.-.-.-.-.B B B B B P.O.. + Q.R.H H H H H ,.,.,.,.,.,.,.,.,.,.,.,.,.,.,.,.,.H H H H R.Q.+ @ S.T.N N N N N ~.~.~.~.~.~.~.~.~.~.~.~.~.~.~.~.~.N N N N T.S.@ # U.V.T T T T T ~.~.~.~.~.~.~.~.~.~.~.~.~.~.~.~.~.T T T T V.U.# ",
". G.H.B B B B B -.-.-.-.-.-.-.-.-.-.-.-.-.-.-.B B B B B B H.G.. + I.J.H H H H H H ,.,.,.,.,.,.,.,.,.,.,.,.,.,.,.H H H H H J.I.+ @ K.L.N N N N N N ~.~.~.~.~.~.~.~.~.~.~.~.~.~.~.N N N N N L.K.@ # M.N.T T T T T ~.~.~.~.~.~.~.~.~.~.~.~.~.~.~.~.~.T T T T N.M.# ",
"  v.w.x.B B B B B -.-.-.-.-.-.-.-.-.-.-.-.-.B B B B B B x.w.v.    y.z.A.H H H H H H ,.,.,.,.,.,.,.,.,.,.,.,.,.H H H H H A.z.y.    m B.C.N N N N N N ~.~.~.~.~.~.~.~.~.~.~.~.~.N N N N N C.B.m     D.E.F.T T T T T ~.~.~.~.~.~.~.~.~.~.~.~.~.~.~.T T T T F.E.D.  ",
"  l.m.n.B B B B B B -.-.-.-.-.-.-.-.-.-.-.B B B B B B B n.m.l.    + o.p.H H H H H H H ,.,.,.,.,.,.,.,.,.,.,.H H H H H H p.o.+     @ q.r.N N N N N N N ~.~.~.~.~.~.~.~.~.~.~.N N N N N N r.q.@     s.t.u.T T T T T T ~.~.~.~.~.~.~.~.~.~.~.~.~.T T T T T u.t.s.  ",
"    a.b.c.B B B B B B -.-.-.-.-.-.-.-.-.B B B B B B B c.b.a.        d.e.f.H H H H H H H ,.,.,.,.,.,.,.,.,.H H H H H H f.e.d.        g.h.m N N N N N N N ~.~.~.~.~.~.~.~.~.N N N N N N m h.g.        i.j.k.T T T T T T ~.~.~.~.~.~.~.~.~.~.~.T T T T T k.j.i.    ",
"    . 3.4.B B B B B B B -.-.-.-.-.-.-.B B B B B B B B 4.3..         + 5.6.H H H H H H H H ,.,.,.,.,.,.,.H H H H H H H 6.5.+         @ 7.8.N N N N N N N N ~.~.~.~.~.~.~.N N N N N N N 8.7.@         # 9.0.T T T T T T T ~.~.~.~.~.~.~.~.~.T T T T T T 0.9.#     ",
"      /.(._.B B B B B B B -.-.-.-.-.B B B B B B B B _.(./.            :.;.<.H H H H H H H H ,.,.,.,.,.H H H H H H H <.;.:.            [.'.}.N N N N N N N N ~.~.~.~.~.N N N N N N N }.'.[.            |.1.2.T T T T T T T ~.~.~.~.~.~.~.T T T T T T 2.1.|.      ",
"        1 &.*.=.B B B B B B -.-.-.B B B B B B B =.*.&.1                 9 ;.>.f H H H H H H H ,.,.,.H H H H H H f >.;.9                 g '.).!.N N N N N N N ~.~.~.N N N N N N !.).'.g                 o {.].^.T T T T T T ~.~.~.~.~.T T T T T ^.].{.o         ",
"          U V W X B B B B B B -.B B B B B B B X W V U                     9 Y Z ` H H H H H H H ,.H H H H H H ` Z Y 9                     g  ...+.N N N N N N N ~.N N N N N N +... .g                     @.#.$.%.T T T T T T ~.~.~.T T T T T %.$.#.@.          ",
"            w x y z A B B B B B B B B B B A z y x w                         C D E F G H H H H H H H H H H G F E D C                         I J K L M N N N N N N N N N N M L K J I                         O P Q R S T T T T T ~.T T T T S R Q P O             ",
"              . 1 2 3 4 5 6 7 8 8 7 6 5 4 3 2 1 .                             + 9 0 a b c d e f f e d c b a 0 9 +                             @ g h i j k l m n n m l k j i h g @                             # o p q r s t u v v u t s r q p o #               ",
"                  . $ % & * = - - = * & % $ .                                     + ; > , ' ) ! ! ) ' , > ; +                                     @ ~ { ] ^ / ( ( / ^ ] { ~ @                                     # _ : < [ } | | } [ < : _ #                   ",
"                        . . . . . . . .                                                 + + + + + + + +                                                 @ @ @ @ @ @ @ @                                                 # # # # # # # #                         "};
