/* XPM */
static char * EXTNAVDELETEL_xpm[] = {
"128 30 199 2",
"  	c None",
". 	c #3975B2",
"+ 	c #2F5780",
"@ 	c #198CFF",
"# 	c #3774B3",
"$ 	c #3272B5",
"% 	c #2264AA",
"& 	c #124E8B",
"* 	c #0B3C6E",
"= 	c #073159",
"- 	c #05294C",
"; 	c #295482",
"> 	c #1F4B7A",
", 	c #153D66",
"' 	c #103152",
") 	c #0D2944",
"! 	c #0C243B",
"~ 	c #0B85FF",
"{ 	c #006DF3",
"] 	c #0042B7",
"^ 	c #001F7F",
"/ 	c #000A56",
"( 	c #00003D",
"_ 	c #2E70B6",
": 	c #1E63AA",
"< 	c #0F4C8A",
"[ 	c #073A6D",
"} 	c #032E58",
"| 	c #01264A",
"1 	c #2A6DB2",
"2 	c #144F8C",
"3 	c #073869",
"4 	c #07427D",
"5 	c #08529E",
"6 	c #0862BC",
"7 	c #096CCF",
"8 	c #0A72DD",
"9 	c #245180",
"0 	c #163D66",
"a 	c #0D2E4F",
"b 	c #0D355C",
"c 	c #0E3F72",
"d 	c #0E4984",
"e 	c #0E5193",
"f 	c #0F559D",
"g 	c #007DFF",
"h 	c #001775",
"i 	c #002A9B",
"j 	c #0048D7",
"k 	c #0066FF",
"l 	c #007BFF",
"m 	c #0086FF",
"n 	c #276CB3",
"o 	c #033668",
"p 	c #033F7C",
"q 	c #04509E",
"r 	c #055FBA",
"s 	c #056AD1",
"t 	c #0671DF",
"u 	c #175797",
"v 	c #073A6F",
"w 	c #074D94",
"x 	c #0965C3",
"y 	c #0A75E1",
"z 	c #2A5581",
"A 	c #18436D",
"B 	c #0D2F53",
"C 	c #0D3C6C",
"D 	c #0E4D8C",
"E 	c #0F579F",
"F 	c #0052CC",
"G 	c #001B80",
"H 	c #003DC4",
"I 	c #006DFF",
"J 	c #008CFF",
"K 	c #2F71B5",
"L 	c #145597",
"M 	c #03386F",
"N 	c #034B94",
"O 	c #0564C5",
"P 	c #0674E4",
"Q 	c #0D4277",
"R 	c #074483",
"S 	c #113558",
"T 	c #0D3660",
"U 	c #0E4B8A",
"V 	c #002A90",
"W 	c #002EA7",
"X 	c #276CB4",
"Y 	c #0A4077",
"Z 	c #034283",
"` 	c #0B4075",
" .	c #084F96",
"..	c #0A73DE",
"+.	c #103357",
"@.	c #0E3D6D",
"#.	c #00268C",
"$.	c #0043CB",
"%.	c #0088FF",
"&.	c #073D74",
"*.	c #044D97",
"=.	c #0672E0",
"-.	c #08519A",
";.	c #275381",
">.	c #0E3F70",
",.	c #0482FF",
"'.	c #2B6FB5",
").	c #083D74",
"!.	c #044F9A",
"~.	c #124C87",
"{.	c #074A8D",
"].	c #143B63",
"^.	c #0D3A67",
"/.	c #003DAE",
"(.	c #0039BA",
"_.	c #0E4A87",
":.	c #03488D",
"<.	c #2366AB",
"[.	c #063A70",
"}.	c #204D7B",
"|.	c #001B82",
"1.	c #2065AB",
"2.	c #3975B3",
"3.	c #0857A5",
"4.	c #113557",
"5.	c #0E4377",
"6.	c #002A8E",
"7.	c #0052E8",
"8.	c #3774B4",
"9.	c #093F76",
"0.	c #0656A7",
"a.	c #286CB1",
"b.	c #06376A",
"c.	c #0A71D9",
"d.	c #23517F",
"e.	c #0C2D4F",
"f.	c #0F549A",
"g.	c #001577",
"h.	c #0084FF",
"i.	c #256BB2",
"j.	c #023569",
"k.	c #0670DB",
"l.	c #074B90",
"m.	c #18436E",
"n.	c #0D3B69",
"o.	c #145598",
"p.	c #034990",
"q.	c #0D4175",
"r.	c #085CB0",
"s.	c #D3D7DA",
"t.	c #DDDDD9",
"u.	c #EEE4D5",
"v.	c #EBE2D6",
"w.	c #6EA7DF",
"x.	c #0E467E",
"y.	c #93A8BB",
"z.	c #91A6B9",
"A.	c #8DA3B6",
"B.	c #8FA4B7",
"C.	c #7799B9",
"D.	c #00288C",
"E.	c #005CFD",
"F.	c #DCECF7",
"G.	c #E8F3F7",
"H.	c #FDFEF9",
"I.	c #F8FAFA",
"J.	c #6CBBFA",
"K.	c #093E74",
"L.	c #065CB2",
"M.	c #E9F1F8",
"N.	c #FDFDFE",
"O.	c #70ADEC",
"P.	c #08335F",
"Q.	c #0969CA",
"R.	c #EFE3D3",
"S.	c #EDE3D5",
"T.	c #0E2B48",
"U.	c #0E4F90",
"V.	c #8EA3B6",
"W.	c #000D62",
"X.	c #0075FF",
"Y.	c #FFFFFA",
"Z.	c #FBFDF8",
"`.	c #04305D",
" +	c #0568CC",
".+	c #FFFFFF",
"++	c #FBFCFD",
"@+	c #06294D",
"#+	c #0C243C",
"$+	c #00003F",
"%+	c #02264B",
"&+	c #AEC7DD",
"*+	c #93BCE3",
"=+	c #92A9BD",
"-+	c #8AA5BD",
";+	c #B3DAF7",
">+	c #94C7F4",
",+	c #B5D3F2",
"'+	c #FFFEFE",
"                        . . . . . . . .                                                 + + + + + + + +                                                 @ @ @ @ @ @ @ @                                                 # # # # # # # #                         ",
"                  . $ % & * = - - = * & % $ .                                     + ; > , ' ) ! ! ) ' , > ; +                                     @ ~ { ] ^ / ( ( / ^ ] { ~ @                                     # _ : < [ } | | } [ < : _ #                   ",
"              . 1 2 3 4 5 6 7 8 8 7 6 5 4 3 2 1 .                             + 9 0 a b c d e f f e d c b a 0 9 +                             @ g ] h i j k l m m l k j i h ] g @                             # n < o p q r s t t s r q p o < n #               ",
"            $ u v w x y y y y y y y y y y x w v u $                         z A B C D E E E E E E E E E E D C B A z                         ~ F G H I J J J J J J J J J J I H G F ~                         K L M N O P P P P P P P P P P O N M L K             ",
"          1 Q R x y y y y y y y y y y y y y y x R Q 1                     9 S T U E E E E E E E E E E E E E E U T S 9                     g V W I J J J J J J J J J J J J J J I W V g                     X Y Z O P P P P P P P P P P P P P P O Z Y X           ",
"        1 `  ...y y y y y y y y y y y y y y y y .. .` 1                 9 +.@.f E E E E E E E E E E E E E E E E f @.+.9                 g #.$.%.J J J J J J J J J J J J J J J J %.$.#.g                 n &.*.=.P P P P P P P P P P P P P P P P =.*.&.n         ",
"      K ` -.y y y y y y y y y y y y y y y y y y y y -.` K             ;.+.>.E E E E E E E E E E E E E E E E E E E E >.+.;.            ,.#.j J J J J J J J J J J J J J J J J J J J J j #.,.            '.).!.P P P P P P P P P P P P P P P P P P P P !.).'.      ",
"    . ~.{.y y y y y y y y y y y y y y y y y y y y y y {.~..         + ].^.E E E E E E E E E E E E E E E E E E E E E E ^.].+         @ /.(.J J J J J J J J J J J J J J J J J J J J J J (./.@         # _.:.P P P P P P P P P P P P P P P P P P P P P P :._.#     ",
"    <.[.7 y y y y y y y y y y y y y y y y y y y y y y 7 [.<.        }.B e E E E E E E E E E E E E E E E E E E E E E E e B }.        { |.l J J J J J J J J J J J J J J J J J J J J J J l |.{         1.M s P P P P P P P P P P P P P P P P P P P P P P s M 1.    ",
"  2.Q 3.y y y y y y y y y y y y y y y y y y y y y y y y 3.Q 2.    + 4.5.E E E E E E E E E E E E E E E E E E E E E E E E 5.4.+     @ 6.7.J J J J J J J J J J J J J J J J J J J J J J J J 7.6.@     8.9.0.P P P P P P P P P P P P P P P P P P P P P P P P 0.9.8.  ",
"  a.b.c.y y y y y y y y y y y y y y y y y y y y y y y y c.b.a.    d.e.f.E E E E E E E E E E E E E E E E E E E E E E E E f.e.d.    l g.h.J J J J J J J J J J J J J J J J J J J J J J J J h.g.l     i.j.k.P P P P P P P P P P P P P P P P P P P P P P P P k.j.i.  ",
". u l.y y y y y y y y y y y y y y y y y y y y y y y y y y l.u . + m.n.E E E E E E E E E E E E E E E E E E E E E E E E E E n.m.+ @ F H J J J J J J J J J J J J J J J J J J J J J J J J J J H F @ # o.p.P P P P P P P P P P P P P P P P P P P P P P P P P P p.o.# ",
". q.r.y y y y y y s.t.t.t.t.t.t.u.u.u.u.u.u.v.w.y y y y y r.q.. + 4.x.E E E E E E y.z.z.z.z.z.z.A.A.A.A.A.A.B.C.E E E E E x.4.+ @ D.E.J J J J J J F.G.G.G.G.G.G.H.H.H.H.H.H.I.J.J J J J J E.D.@ # K.L.P P P P P P F.M.M.M.M.M.M.N.N.N.N.N.N.I.O.P P P P P L.K.# ",
". P.Q.y y y y y s.R.R.R.R.R.R.R.R.R.R.R.R.R.R.S.y y y y y Q.P.. + T.U.E E E E E y.A.A.A.A.A.A.A.A.A.A.A.A.A.A.V.E E E E E U.T.+ @ W.X.J J J J J F.Y.Y.Y.Y.Y.Y.Y.Y.Y.Y.Y.Y.Y.Y.Z.J J J J J X.W.@ # `. +P P P P P F..+.+.+.+.+.+.+.+.+.+.+.+.+.+++P P P P P  +`.# ",
". @+8 y y y y y t.R.R.R.R.R.R.R.R.R.R.R.R.R.R.S.y y y y y 8 @+. + #+f E E E E E z.A.A.A.A.A.A.A.A.A.A.A.A.A.A.V.E E E E E f #++ @ $+m J J J J J G.Y.Y.Y.Y.Y.Y.Y.Y.Y.Y.Y.Y.Y.Y.Z.J J J J J m $+@ # %+t P P P P P M..+.+.+.+.+.+.+.+.+.+.+.+.+.+++P P P P P t %+# ",
". @+8 y y y y y &+R.R.R.R.R.R.R.R.R.R.R.R.R.R.*+y y y y y 8 @+. + #+f E E E E E =+A.A.A.A.A.A.A.A.A.A.A.A.A.A.-+E E E E E f #++ @ $+m J J J J J ;+Y.Y.Y.Y.Y.Y.Y.Y.Y.Y.Y.Y.Y.Y.>+J J J J J m $+@ # %+t P P P P P ,+.+.+.+.+.+.+.+.+.+.+.+.+.+'+>+P P P P P t %+# ",
". P.Q.y y y y y y w.&+&+&+&+&+&+&+&+*+y y y y y y y y y y Q.P.. + T.U.E E E E E E C.=+=+=+=+=+=+=+=+-+E E E E E E E E E E U.T.+ @ W.X.J J J J J J J.;+;+;+;+;+;+;+;+>+J J J J J J J J J J X.W.@ # `. +P P P P P P O.,+,+,+,+,+,+,+,+>+P P P P =.P P P P P  +`.# ",
". q.r.y y y y y y y y y y y y y y y ..y y y y y y y y y y r.q.. + 4.x.E E E E E E E E E E E E E E E E E E E E E E E E E E x.4.+ @ D.E.J J J J J J J J J J J J J J J J J J J J J J J J J J E.D.@ # K.L.P P P P P P P P P P P P P P P =.P P P P P P P P P P L.K.# ",
". u l.y y y y y y y y y y y y y y y y y y y y y y y y y y l.u . + m.n.E E E E E E E E E E E E E E E E E E E E E E E E E E n.m.+ @ F H J J J J J J J J J J J J J J J J J J J J J J J J J J H F @ # o.p.P P P P P P P P P P P P P P P P P P P P P P P P P P p.o.# ",
"  a.b.c.y y y y y y y y y y y y y y y y y y y y y y y y c.b.a.    d.e.f.E E E E E E E E E E E E E E E E E E E E E E E E f.e.d.    l g.h.J J J J J J J J J J J J J J J J J J J J J J J J h.g.l     i.j.k.P P P P P P P P P P P P P P P P P P P P P P P P k.j.i.  ",
"  2.Q 3.y y y y y y y y y y y y y y y y y y y y y y y y 3.Q 2.    + 4.5.E E E E E E E E E E E E E E E E E E E E E E E E 5.4.+     @ 6.7.J J J J J J J J J J J J J J J J J J J J J J J J 7.6.@     8.9.0.P P P P P P P P P P P P P P P P P P P P P P P P 0.9.8.  ",
"    <.[.7 y y y y y y y y y y y y y y y y y y y y y y 7 [.<.        }.B e E E E E E E E E E E E E E E E E E E E E E E e B }.        { |.l J J J J J J J J J J J J J J J J J J J J J J l |.{         1.M s P P P P P P P P P P P P P P P P P P P P P P s M 1.    ",
"    . ~.{.y y y y y y y y y y y y y y y y y y y y y y {.~..         + ].^.E E E E E E E E E E E E E E E E E E E E E E ^.].+         @ /.(.J J J J J J J J J J J J J J J J J J J J J J (./.@         # _.:.P P P P P P P P P P P P P P P P P P P P P P :._.#     ",
"      K ` -.y y y y y y y y y y y y y y y y y y y y -.` K             ;.+.>.E E E E E E E E E E E E E E E E E E E E >.+.;.            ,.#.j J J J J J J J J J J J J J J J J J J J J j #.,.            '.).!.P P P P P P P P P P P P P P P P P P P P !.).'.      ",
"        1 `  ...y y y y y y y y y y y y y y y y .. .` 1                 9 +.@.f E E E E E E E E E E E E E E E E f @.+.9                 g #.$.%.J J J J J J J J J J J J J J J J %.$.#.g                 n &.*.=.P P P P P P P P P P P P P P P P =.*.&.n         ",
"          1 Q R x y y y y y y y y y y y y y y x R Q 1                     9 S T U E E E E E E E E E E E E E E U T S 9                     g V W I J J J J J J J J J J J J J J I W V g                     X Y Z O P P P P P P P P P P P P P P O Z Y X           ",
"            $ u v w x y y y y y y y y y y x w v u $                         z A B C D E E E E E E E E E E D C B A z                         ~ F G H I J J J J J J J J J J I H G F ~                         K L M N O P P P P P P P P P P O N M L K             ",
"              . 1 2 3 4 5 6 7 8 8 7 6 5 4 3 2 1 .                             + 9 0 a b c d e f f e d c b a 0 9 +                             @ g ] h i j k l m m l k j i h ] g @                             # n < o p q r s t t s r q p o < n #               ",
"                  . $ % & * = - - = * & % $ .                                     + ; > , ' ) ! ! ) ' , > ; +                                     @ ~ { ] ^ / ( ( / ^ ] { ~ @                                     # _ : < [ } | | } [ < : _ #                   ",
"                        . . . . . . . .                                                 + + + + + + + +                                                 @ @ @ @ @ @ @ @                                                 # # # # # # # #                         "};
