/* XPM */
static char * EXTNAVFIRSTT_xpm[] = {
"80 20 164 2",
"  	c None",
". 	c #2A67A6",
"+ 	c #2A629B",
"@ 	c #285D92",
"# 	c #244E78",
"$ 	c #254A70",
"% 	c #23476A",
"& 	c #0C71EA",
"* 	c #1167D3",
"= 	c #115FC1",
"- 	c #2766A6",
"; 	c #27609B",
"> 	c #255B92",
", 	c #2565A6",
"' 	c #174F89",
") 	c #0E4F92",
"! 	c #0A55A1",
"~ 	c #0859AB",
"{ 	c #214C78",
"] 	c #183E64",
"^ 	c #123D6A",
"/ 	c #0F4174",
"( 	c #0E447B",
"_ 	c #046DE9",
": 	c #0444B1",
"< 	c #0043C3",
"[ 	c #004FD0",
"} 	c #0058C1",
"| 	c #2263A6",
"1 	c #144E89",
"2 	c #0A4D91",
"3 	c #0653A1",
"4 	c #0457AC",
"5 	c #195796",
"6 	c #084F98",
"7 	c #0968C8",
"8 	c #0A75E1",
"9 	c #19436D",
"0 	c #0D3D6E",
"a 	c #0E4E8F",
"b 	c #0F579F",
"c 	c #0352C9",
"d 	c #0043BC",
"e 	c #0073F6",
"f 	c #008CFF",
"g 	c #165596",
"h 	c #044D98",
"i 	c #0567CB",
"j 	c #0674E4",
"k 	c #14508E",
"l 	c #095AAC",
"m 	c #0A71DA",
"n 	c #163E67",
"o 	c #0F457C",
"p 	c #0F549B",
"q 	c #0046BA",
"r 	c #0058D2",
"s 	c #0085FF",
"t 	c #104E8E",
"u 	c #0558AD",
"v 	c #0670DD",
"w 	c #185491",
"x 	c #1C69B6",
"y 	c #569ADC",
"z 	c #3A8CDE",
"A 	c #0960B7",
"B 	c #18406A",
"C 	c #194F85",
"D 	c #3970A7",
"E 	c #2967A4",
"F 	c #0F4983",
"G 	c #014CC0",
"H 	c #0063E0",
"I 	c #35A4FE",
"J 	c #145291",
"K 	c #1A6ABA",
"L 	c #59A2ED",
"M 	c #3A91E9",
"N 	c #055EB8",
"O 	c #2564A4",
"P 	c #095098",
"Q 	c #438ED8",
"R 	c #EFE3D3",
"S 	c #3087DF",
"T 	c #D2D5D5",
"U 	c #0A72DC",
"V 	c #214B77",
"W 	c #0E3E6E",
"X 	c #2E68A1",
"Y 	c #8DA3B6",
"Z 	c #2464A3",
"` 	c #7D9AB3",
" .	c #0F559C",
"..	c #076BE6",
"+.	c #0046BC",
"@.	c #0087FC",
"#.	c #9FD4FC",
"$.	c #6ABCFD",
"%.	c #2263A5",
"&.	c #054E98",
"*.	c #4494E5",
"=.	c #FEFEFE",
"-.	c #2F8BE8",
";.	c #DFEDFB",
">.	c #0671DF",
",.	c #154F8B",
"'.	c #096ACC",
").	c #4390DE",
"!.	c #DCDAD4",
"~.	c #163E65",
"{.	c #0F5091",
"].	c #2E6AA5",
"^.	c #829DB4",
"/.	c #0444B2",
"(.	c #0077F7",
"_.	c #75C1FD",
":.	c #FFFFFA",
"<.	c #114D8B",
"[.	c #0569CE",
"}.	c #4496EB",
"|.	c #E9F3FC",
"1.	c #2C6AA9",
"2.	c #0D5196",
"3.	c #0A74E0",
"4.	c #1D7EE0",
"5.	c #C9D1D5",
"6.	c #26507A",
"7.	c #113F6D",
"8.	c #0F569E",
"9.	c #1A5DA1",
"0.	c #7896B2",
"a.	c #0D77EF",
"b.	c #0046C0",
"c.	c #008BFF",
"d.	c #55B2FD",
"e.	c #F4FAFA",
"f.	c #2969AA",
"g.	c #094F96",
"h.	c #0673E2",
"i.	c #1B7FE6",
"j.	c #D5E7FA",
"k.	c #286098",
"l.	c #095AAB",
"m.	c #2783DF",
"n.	c #23496F",
"o.	c #0F457B",
"p.	c #1F60A2",
"q.	c #1063CF",
"r.	c #0058DE",
"s.	c #255E98",
"t.	c #0558AC",
"u.	c #2585E7",
"v.	c #265A8E",
"w.	c #095FB7",
"x.	c #BFCCD6",
"y.	c #224568",
"z.	c #0E4883",
"A.	c #7393B1",
"B.	c #1059BB",
"C.	c #0063D2",
"D.	c #DFF1FB",
"E.	c #EAF5FA",
"F.	c #23588E",
"G.	c #CAE1F9",
"              . + @ @ + .                             # $ % % $ #                             & * = = * &                             - ; > > ; -               ",
"          , ' ) ! ~ ~ ! ) ' ,                     { ] ^ / ( ( / ^ ] {                     _ : < [ } } [ < : _                     | 1 2 3 4 4 3 2 1 |           ",
"        5 6 7 8 8 8 8 8 8 7 6 5                 9 0 a b b b b b b a 0 9                 c d e f f f f f f e d c                 g h i j j j j j j i h g         ",
"      k l m 8 8 8 8 8 8 8 8 m l k             n o p b b b b b b b b p o n             q r s f f f f f f f f s r q             t u v j j j j j j j j v u t       ",
"    w x y 8 8 8 8 z 8 8 8 8 z 8 A w         B C D b b b b E b b b b E b F B         G H I I f f f f I f f f f I H G         J K L j j j j M j j j j M j N J     ",
"  O P Q R 8 8 8 S T 8 8 8 S T 8 U P O     V W X Y b b b Z ` b b b Z ` b  .W V     ..+.@.#.#.f f f $.#.f f f $.#.@.+...    %.&.*.=.j j j -.;.j j j -.;.j >.&.%.  ",
"  ,.'.).R 8 8 S !.R 8 8 S !.R 8 8 '.,.    ~.{.].Y b b Z ^.Y b b Z ^.Y b b {.~.    /.(.f #.#.f f _.:.#.f f _.:.#.f (./.    <.[.}.=.j j -.|.=.j j -.|.=.j j [.<.  ",
"1.2.3.).R 8 4.5.R R 8 4.5.R R 8 8 3.2.1.6.7.8.].Y b 9.0.Y Y b 9.0.Y Y b b 8.7.6.a.b.c.f #.#.f d.e.:.#.f d.e.:.#.f c.b.a.f.g.h.}.=.j i.j.=.=.j i.j.=.=.j j h.g.f.",
"k.l.8 ).R m.5.R R R m.5.R R R 8 8 8 l.k.n.o.b ].Y p.0.Y Y Y p.0.Y Y Y b b b o.n.q.r.f f #.#.d.:.:.:.#.d.:.:.:.#.f f r.q.s.t.j }.=.u.j.=.=.=.u.j.=.=.=.j j j t.s.",
"v.w.8 ).R x.R R R R x.R R R R 8 8 8 w.v.y.z.b ].Y A.Y Y Y Y A.Y Y Y Y b b b z.y.B.C.f f #.D.E.:.:.:.D.E.:.:.:.#.f f C.B.F.N j }.=.G.=.=.=.=.G.=.=.=.=.j j j N F.",
"v.w.8 ).R x.R R R R x.R R R R 8 8 8 w.v.y.z.b ].Y A.Y Y Y Y A.Y Y Y Y b b b z.y.B.C.f f #.D.E.:.:.:.D.E.:.:.:.#.f f C.B.F.N j }.=.G.=.=.=.=.G.=.=.=.=.j j j N F.",
"k.l.8 ).R m.5.R R R m.5.R R R 8 8 8 l.k.n.o.b ].Y p.0.Y Y Y p.0.Y Y Y b b b o.n.q.r.f f #.#.d.:.:.:.#.d.:.:.:.#.f f r.q.s.t.j }.=.u.j.=.=.=.u.j.=.=.=.j j j t.s.",
"1.2.3.).R 8 4.5.R R 8 4.5.R R 8 8 3.2.1.6.7.8.].Y b 9.0.Y Y b 9.0.Y Y b b 8.7.6.a.b.c.f #.#.f d.e.:.#.f d.e.:.#.f c.b.a.f.g.h.}.=.j i.j.=.=.j i.j.=.=.j j h.g.f.",
"  ,.'.).R 8 8 S !.R 8 8 S !.R 8 8 '.,.    ~.{.].Y b b Z ^.Y b b Z ^.Y b b {.~.    /.(.f #.#.f f _.:.#.f f _.:.#.f (./.    <.[.}.=.j j -.|.=.j j -.|.=.j j [.<.  ",
"  O P Q R 8 8 8 S T 8 8 8 S T 8 U P O     V W X Y b b b Z ` b b b Z ` b  .W V     ..+.@.#.#.f f f $.#.f f f $.#.@.+...    %.&.*.=.j j j -.;.j j j -.;.j >.&.%.  ",
"    w x y 8 8 8 8 z 8 8 8 8 z 8 A w         B C D b b b b E b b b b E b F B         G H I I f f f f I f f f f I H G         J K L j j j j M j j j j M j N J     ",
"      k l m 8 8 8 8 8 8 8 8 m l k             n o p b b b b b b b b p o n             q r s f f f f f f f f s r q             t u v j j j j j j j j v u t       ",
"        5 6 7 8 8 8 8 8 8 7 6 5                 9 0 a b b b b b b a 0 9                 c d e f f f f f f e d c                 g h i j j j j j j i h g         ",
"          , ' ) ! ~ ~ ! ) ' ,                     { ] ^ / ( ( / ^ ] {                     _ : < [ } } [ < : _                     | 1 2 3 4 4 3 2 1 |           ",
"              . + @ @ + .                             # $ % % $ #                             & * = = * &                             - ; > > ; -               "};
