/* XPM */
static char * EXTNAVCANCELT_xpm[] = {
"80 20 495 2",
"  	c None",
". 	c #2A68A7",
"+ 	c #2A629B",
"@ 	c #285D92",
"# 	c #244E78",
"$ 	c #254A70",
"% 	c #24476B",
"& 	c #0C72EA",
"* 	c #1167D3",
"= 	c #115FC2",
"- 	c #2866A7",
"; 	c #27609B",
"> 	c #255B92",
", 	c #3F74AA",
"' 	c #174F8A",
") 	c #0E4F92",
"! 	c #0955A2",
"~ 	c #0859AB",
"{ 	c #366CA3",
"] 	c #365A7E",
"^ 	c #183D64",
"/ 	c #113D6A",
"( 	c #0F4275",
"_ 	c #0E447B",
": 	c #1F80E8",
"< 	c #0444B1",
"[ 	c #0043C2",
"} 	c #004FD0",
"| 	c #0057C2",
"1 	c #1576E8",
"2 	c #487DB3",
"3 	c #144E89",
"4 	c #0B4D91",
"5 	c #0654A2",
"6 	c #0557AB",
"7 	c #3D76B0",
"8 	c #A5B3C0",
"9 	c #DCD6CE",
"0 	c #5F96CC",
"a 	c #0A75E1",
"b 	c #2C7BC9",
"c 	c #B9C0C5",
"d 	c #BFC4C7",
"e 	c #728CA5",
"f 	c #90A4B5",
"g 	c #547CA4",
"h 	c #0F579F",
"i 	c #306498",
"j 	c #7F96AC",
"k 	c #8499AD",
"l 	c #A6C8F0",
"m 	c #E9EEF7",
"n 	c #60A8FA",
"o 	c #008CFF",
"p 	c #2787F7",
"q 	c #C3D2ED",
"r 	c #C3DCF4",
"s 	c #BCD0E4",
"t 	c #F8F9FB",
"u 	c #7CAEE3",
"v 	c #0674E4",
"w 	c #3A87D5",
"x 	c #D5E1ED",
"y 	c #DAE6F0",
"z 	c #175390",
"A 	c #789BBD",
"B 	c #EFE3D3",
"C 	c #CFD3D5",
"D 	c #2E86DF",
"E 	c #0F77E1",
"F 	c #99BAD8",
"G 	c #EDE2D3",
"H 	c #97ADC0",
"I 	c #205992",
"J 	c #1A426A",
"K 	c #64819C",
"L 	c #8DA3B6",
"M 	c #88A0B5",
"N 	c #346DA6",
"O 	c #165BA0",
"P 	c #7595B2",
"Q 	c #8EA3B6",
"R 	c #768EA4",
"S 	c #24496F",
"T 	c #044ABC",
"U 	c #7BA8E4",
"V 	c #FFFFFA",
"W 	c #DBEFFB",
"X 	c #289EFE",
"Y 	c #068FFF",
"Z 	c #9FD3FC",
"` 	c #FDFEFA",
" .	c #9DBDE8",
"..	c #0D52BF",
"+.	c #185491",
"@.	c #9AB8D6",
"#.	c #FFFFFF",
"$.	c #EAF3FC",
"%.	c #4094E9",
"&.	c #117AE4",
"*.	c #BBD9F6",
"=.	c #BACEE1",
"-.	c #255E98",
";.	c #175492",
">.	c #0960B7",
",.	c #91B6D9",
"'.	c #EAE1D3",
").	c #B2C6D7",
"!.	c #1A7DE0",
"~.	c #0E77E1",
"{.	c #6DA5DB",
"].	c #E7DFD3",
"^.	c #C9D1D5",
"/.	c #1D7EE0",
"(.	c #175392",
"_.	c #18406A",
":.	c #0F4984",
"<.	c #7494B1",
"[.	c #7E98B1",
"}.	c #1F61A1",
"|.	c #135AA0",
"1.	c #5F87AE",
"2.	c #879FB5",
"3.	c #2866A4",
"4.	c #014CC0",
"5.	c #0064E2",
"6.	c #97D0FC",
"7.	c #F9FCFA",
"8.	c #BBE0FC",
"9.	c #1294FF",
"0.	c #048EFF",
"a.	c #6EBEFD",
"b.	c #F6FBFA",
"c.	c #D4ECFB",
"d.	c #1595FF",
"e.	c #145291",
"f.	c #065EB8",
"g.	c #B7D6F5",
"h.	c #FDFEFE",
"i.	c #D1E4F8",
"j.	c #2082E6",
"k.	c #0D78E5",
"l.	c #8EBFF0",
"m.	c #FBFDFE",
"n.	c #E6F0FB",
"o.	c #2A88E7",
"p.	c #2463A4",
"q.	c #095099",
"r.	c #0A72DC",
"s.	c #2381DF",
"t.	c #C0CCD6",
"u.	c #6FA5DB",
"v.	c #2B86E1",
"w.	c #D3D6D5",
"x.	c #DDDAD4",
"y.	c #5599DC",
"z.	c #214B77",
"A.	c #0E3E6F",
"B.	c #0F559C",
"C.	c #2564A3",
"D.	c #7E9AB3",
"E.	c #8EA4B6",
"F.	c #5B85AD",
"G.	c #2E69A4",
"H.	c #8AA2B6",
"I.	c #8CA2B6",
"J.	c #4F7DAA",
"K.	c #076AE6",
"L.	c #0046BC",
"M.	c #0087FC",
"N.	c #1C98FE",
"O.	c #CBE7FB",
"P.	c #70BEFD",
"Q.	c #269DFE",
"R.	c #E0F1FA",
"S.	c #EBF6FA",
"T.	c #54B2FD",
"U.	c #2363A4",
"V.	c #064E98",
"W.	c #0671DF",
"X.	c #2B88E7",
"Y.	c #D8E9FA",
"Z.	c #FEFEFF",
"`.	c #8BBDF0",
" +	c #3B92EA",
".+	c #EFF5FC",
"++	c #F6F9FD",
"@+	c #71AEED",
"#+	c #15508A",
"$+	c #096ACC",
"%+	c #3B8CDE",
"&+	c #DBD9D4",
"*+	c #E0DCD4",
"=+	c #5C9CDC",
"-+	c #177BE0",
";+	c #ACC3D7",
">+	c #7CACDA",
",+	c #163E65",
"'+	c #0F5091",
")+	c #3E72A4",
"!+	c #8AA1B6",
"~+	c #5380AC",
"{+	c #1D5FA2",
"]+	c #7A98B2",
"^+	c #638AAF",
"/+	c #0078F7",
"(+	c #37A4FE",
"_+	c #E8F5FA",
":+	c #EEF7FA",
"<+	c #5BB5FD",
"[+	c #0F93FF",
"}+	c #B4DDFC",
"|+	c #80C5FC",
"1+	c #114E8A",
"2+	c #0669CE",
"3+	c #519DEA",
"4+	c #F3F8FD",
"5+	c #F8FBFE",
"6+	c #79B3EE",
"7+	c #1C80E6",
"8+	c #CAE1F8",
"9+	c #9AC6F2",
"0+	c #2C6AA9",
"a+	c #0C5096",
"b+	c #0A74E0",
"c+	c #70A6DB",
"d+	c #CCD2D5",
"e+	c #7DACDA",
"f+	c #E5DED4",
"g+	c #C6CFD5",
"h+	c #2682DF",
"i+	c #26507A",
"j+	c #113F6C",
"k+	c #0F569E",
"l+	c #145AA0",
"m+	c #6088AE",
"n+	c #89A1B6",
"o+	c #6B8EB0",
"p+	c #2A67A4",
"q+	c #0D77EF",
"r+	c #0047C1",
"s+	c #008BFF",
"t+	c #058EFF",
"u+	c #71BFFD",
"v+	c #D8EDFB",
"w+	c #80C6FD",
"x+	c #F4FAFA",
"y+	c #D2EBFB",
"z+	c #1F9AFE",
"A+	c #2969AA",
"B+	c #0A5096",
"C+	c #0674E3",
"D+	c #91C1F1",
"E+	c #EBF3FB",
"F+	c #A3CBF2",
"G+	c #F9FBFE",
"H+	c #E6F1FB",
"I+	c #318CE8",
"J+	c #286098",
"K+	c #0A5AAB",
"L+	c #4C95DE",
"M+	c #23496E",
"N+	c #0E457B",
"O+	c #6B8FB0",
"P+	c #8BA2B6",
"Q+	c #4276A8",
"R+	c #1063CF",
"S+	c #0058DE",
"T+	c #4AADFE",
"U+	c #0659AC",
"V+	c #AED1F4",
"W+	c #F6FAFE",
"X+	c #60A6ED",
"Y+	c #265A8E",
"Z+	c #095FB7",
"`+	c #3D8EDE",
" @	c #E2DDD4",
".@	c #9EBCD8",
"+@	c #0F78E2",
"@@	c #224568",
"#@	c #0E4883",
"$@	c #356EA6",
"%@	c #90A5B6",
"&@	c #7997B2",
"*@	c #1059BB",
"=@	c #0062D2",
"-@	c #39A6FE",
";@	c #F0F8FA",
">@	c #A4D6FC",
",@	c #068EFF",
"'@	c #24588E",
")@	c #055EB7",
"!@	c #4999EA",
"~@	c #FCFDFE",
"{@	c #C3DDF6",
"]@	c #107AE5",
"^@	c #1C7EE0",
"/@	c #B0C5D7",
"(@	c #E9E0D3",
"_@	c #D4D6D4",
":@	c #2883DE",
"<@	c #2262A2",
"[@	c #829CB4",
"}@	c #869FB5",
"|@	c #2C68A4",
"1@	c #1495FF",
"2@	c #BAE0FB",
"3@	c #F8FCFA",
"4@	c #E1F1FA",
"5@	c #229CFE",
"6@	c #2384E6",
"7@	c #D5E7F8",
"8@	c #EBF3FC",
"9@	c #358EE8",
"0@	c #1279E0",
"a@	c #87B1D9",
"b@	c #C9D1D6",
"c@	c #9CBBD8",
"d@	c #ECE1D3",
"e@	c #89B2D8",
"f@	c #1078E1",
"g@	c #175CA1",
"h@	c #6D90B0",
"i@	c #8CA3B6",
"j@	c #7192B2",
"k@	c #6C8FB0",
"l@	c #0890FF",
"m@	c #8BCBFC",
"n@	c #A3D5FC",
"o@	c #FBFDFA",
"p@	c #8ECCFC",
"q@	c #078FFF",
"r@	c #137BE5",
"s@	c #AACFF3",
"t@	c #EDF4FB",
"u@	c #BBD9F7",
"v@	c #A9CEF3",
"w@	c #117AE5",
"x@	c #6AA3DB",
"y@	c #C4CED6",
"z@	c #2582DF",
"A@	c #BECBD6",
"B@	c #4C94DC",
"C@	c #165CA1",
"D@	c #5783AD",
"E@	c #316CA5",
"F@	c #2B68A4",
"G@	c #4376A9",
"H@	c #6BBBFD",
"I@	c #D0EAFB",
"J@	c #1E9AFE",
"K@	c #C8E6FB",
"L@	c #49ADFE",
"M@	c #84B9F0",
"N@	c #E3EFFA",
"O@	c #3E92E9",
"P@	c #328CE8",
"Q@	c #DBEBFA",
"R@	c #60A5EC",
"S@	c #4491DD",
"T@	c #D5D7D5",
"U@	c #5297DD",
"V@	c #0C76E1",
"W@	c #589CDF",
"X@	c #B8C8D5",
"Y@	c #4175A8",
"Z@	c #8FA4B7",
"`@	c #4678A9",
" #	c #1259A0",
".#	c #4B7BA9",
"+#	c #819CB4",
"@#	c #40A9FE",
"##	c #E2F2FA",
"$#	c #50B0FE",
"%#	c #028DFF",
"&#	c #59B4FD",
"*#	c #C1E3FB",
"=#	c #59A2EB",
"-#	c #EFF6FC",
";#	c #FDFDFE",
">#	c #66A9EC",
",#	c #0A76E4",
"'#	c #71B0F0",
")#	c #D8E8F9",
"!#	c #3389DE",
"~#	c #DCDAD4",
"{#	c #6BA4DB",
"]#	c #1379E0",
"^#	c #98B9D8",
"/#	c #EBE1D3",
"(#	c #95B8D8",
"_#	c #0D76E1",
":#	c #91A5B6",
"<#	c #8BA2B5",
"[#	c #5B84AC",
"}#	c #185DA1",
"|#	c #7494B2",
"1#	c #2EA1FE",
"2#	c #EAF5FA",
"3#	c #6CBCFD",
"4#	c #0A90FF",
"5#	c #9FD4FC",
"6#	c #FAFDFA",
"7#	c #9BD1FC",
"8#	c #4395E9",
"9#	c #FAFCFD",
"0#	c #F9FCFE",
"a#	c #88BCF0",
"b#	c #157CE5",
"c#	c #BBD8F6",
"d#	c #B8D7F6",
"e#	c #0D78E4",
"f#	c #1D6AB5",
"g#	c #ABC2D7",
"h#	c #147AE0",
"i#	c #388BDE",
"j#	c #DEDBD4",
"k#	c #4692DD",
"l#	c #225587",
"m#	c #7D99B3",
"n#	c #7695B2",
"o#	c #1C5EA0",
"p#	c #3971A7",
"q#	c #8FA4B6",
"r#	c #4879A9",
"s#	c #176EE1",
"t#	c #B3DDFB",
"u#	c #A2D5FC",
"v#	c #0C91FF",
"w#	c #33A2FE",
"x#	c #ECF6FA",
"y#	c #43AAFE",
"z#	c #2670BB",
"A#	c #CEE2F8",
"B#	c #BEDAF6",
"C#	c #197EE5",
"D#	c #4A9AEA",
"E#	c #F1F7FD",
"F#	c #FCFEFE",
"G#	c #62A7EC",
"H#	c #45719C",
"I#	c #E0D8CD",
"J#	c #9EBAD5",
"K#	c #1C7DE0",
"L#	c #68A2DB",
"M#	c #E4DED4",
"N#	c #A4B1BB",
"O#	c #1E5791",
"P#	c #35587A",
"Q#	c #8BA1B3",
"R#	c #7896B2",
"S#	c #5D86AD",
"T#	c #708AA2",
"U#	c #22486E",
"V#	c #376FC7",
"W#	c #EEF1F3",
"X#	c #A4D3FC",
"Y#	c #69BBFD",
"Z#	c #F2F9FA",
"`#	c #ABBDE2",
" $	c #0A4DBC",
".$	c #4B79A8",
"+$	c #F6F8FA",
"@$	c #C2DBF5",
"#$	c #8ABDF0",
"$$	c #FAFCFE",
"%$	c #BACCDF",
"&$	c #225B95",
"*$	c #5681AC",
"=$	c #215D99",
"-$	c #0968C9",
";$	c #146DC8",
">$	c #5C80A3",
",$	c #4E7BA8",
"'$	c #426588",
")$	c #264E77",
"!$	c #0E4E8E",
"~$	c #195590",
"{$	c #516F8B",
"]$	c #3E6285",
"^$	c #468AE1",
"/$	c #1C55BC",
"($	c #0074F6",
"_$	c #0D7AF6",
":$	c #5E7EC6",
"<$	c #3D7FDB",
"[$	c #5F8DBC",
"}$	c #2C66A1",
"|$	c #0567CB",
"1$	c #1770CC",
"2$	c #779ABE",
"3$	c #5C89B7",
"4$	c #2565A6",
"5$	c #046DE8",
"6$	c #2163A6",
"              . + @ @ + .                             # $ % % $ #                             & * = = * &                             - ; > > ; -               ",
"          , ' ) ! ~ ~ ! ) ' {                     ] ^ / ( _ _ ( / ^ ]                     : < [ } | | } [ < 1                     2 3 4 5 6 6 5 4 3 7           ",
"        8 9 0 a a a a a a b c d                 e f g h h h h h h i j k                 l m n o o o o o o p q r                 s t u v v v v v v w x y         ",
"      z A B C D a a a a E F G H I             J K L M N h h h h O P Q R S             T U V W X o o o o Y Z `  ...            +.@.#.$.%.v v v v &.*.#.=.-.      ",
"    ;.>.a ,.'.).!.a a ~.{.].^./.>.(.        _.:.h <.Q [.}.h h |.1.L 2.3.:._.        4.5.o 6.7.8.9.o o 0.a.b.c.d.5.4.        e.f.v g.h.i.j.v v k.l.m.n.o.f.e.    ",
"  p.q.r.a s.t.'.u.a a v.w.x.y.a r.q.p.    z.A.B.h C.D.E.F.h h G.H.I.J.h B.A.z.    K.L.M.o N.O.7.P.o o Q.R.S.T.o M.L.K.    U.V.W.v X.Y.Z.`.v v  +.+++@+v W.V.U.  ",
"  #+$+a a a %+&+*+=+-+;+B >+a a a $+#+    ,+'+h h h )+!+L ~+{+]+L ^+h h h '+,+    < /+o o o (+_+:+<+[+}+V |+o o o /+<     1+2+v v v 3+4+5+6+7+8+#.9+v v v 2+1+  ",
"0+a+b+a a a ~.c+].d+e+f+g+h+a a a b+a+0+i+j+k+h h h l+m+L n+o+I.M p+h h h k+j+i+q+r+s+o o o t+u+b.v+w+x+y+z+o o o s+r+q+A+B+C+v v v k.D+m.E+F+G+H+I+v v v C+B+A+",
"J+K+a a a a a a ,.G B *+L+a a a a a K+J+M+N+h h h h h h O+Q L P+Q+h h h h h N+M+R+S+o o o o o o 6.` V :+T+o o o o o S+R+-.U+v v v v v v V+#.#.W+X+v v v v v U+-.",
"Y+Z+a a a a a a `+ @B .@+@a a a a a Z+Y+@@#@h h h h h h $@%@L &@O h h h h h #@@@*@=@o o o o o o -@;@V >@,@o o o o o =@*@'@)@v v v v v v !@~@#.{@]@v v v v v )@'@",
"Y+Z+a a a a a ^@/@B (@_@:@a a a a a Z+Y+@@#@h h h h h <@[@L L }@|@h h h h h #@@@*@=@o o o o o 1@2@V 3@4@5@o o o o o =@*@'@)@v v v v v 6@7@#.#.8@9@v v v v v )@'@",
"J+K+a a a a 0@a@'.b@c@d@e@f@a a a a K+J+M+N+h h h h g@h@i@L j@L k@O h h h h N+M+R+S+o o o o l@m@7.c.n@o@p@q@o o o o S+R+-.U+v v v v r@s@~@t@u@Z.v@w@v v v v U+-.",
"0+a+b+a a f@x@B y@D z@A@'.B@a a a b+a+0+i+j+k+h h C@D@L }@E@F@[@E.G@h h h k+j+i+q+r+s+o o Y H@V I@X J@K@7.L@o o o s+r+q+A+B+C+v v w@M@#.N@O@P@Q@Z.R@v v v C+B+A+",
"  #+$+a a S@T@f+U@V@a W@B X@z@a a $+#+    ,+'+h h Y@!+Z@`@ #h .#L +#F@h h '+,+    < /+o o @###x+$#%#o &#V *#J@o o /+<     1+2+v v =#-#;#>#,#v '##.)#P@v v 2+1+  ",
"  p.q.r.!#~#].{#~.a a ]#^#/#(#_#r.q.p.    z.A.B.N :#<#[#l+h h }#<.E.|#|.B.A.z.    K.L.M.1#2#b.3#0.o o 4#5#6#7#0.M.L.K.    U.V.W.8#9#0#a#k.v v b#c#Z.d#e#W.V.U.  ",
"    ;.f#g#B c@h#a a a a i#j#f+k#>.(.        _.l#m#L n#o#h h h h p#M q#r#:._.        4.s#t#V u#v#o o o o w#x#x+y#5.4.        e.z#A##.B#C#v v v v D#E#F#G#f.e.    ",
"      H#I#J#K#a a a a a a L#M#N#O#            P#Q#R#<@h h h h h h S#L T#U#            V#W#X#1@o o o o o o Y#Z#`# $            .$+$@$6@v v v v v v #$$$%$&$      ",
"        *$=$-$a a a a a a ;$>$,$                '$)$!$h h h h h h ~${$]$                ^$/$($o o o o o o _$:$<$                [$}$|$v v v v v v 1$2$3$        ",
"          4$' ) ! ~ ~ ! ) ' 4$                    z.^ / ( _ _ ( / ^ z.                    5$< [ } | | } [ < 5$                    6$3 4 5 6 6 5 4 3 6$          ",
"              . + @ @ + .                             # $ % % $ #                             & * = = * &                             - ; > > ; -               "};
