/* XPM */
static char * tfwdblookupcombo_xpm[] = {
"24 24 22 1",
" 	c None",
".	c #A7C2E6",
"+	c #4276C4",
"@	c #776666",
"#	c #000000",
"$	c #D3E1F3",
"%	c #FFFFFF",
"&	c #BDD1EC",
"*	c #91B2DF",
"=	c #709BD6",
"-	c #7BA3D9",
";	c #6493D2",
">	c #4578C5",
",	c #777792",
"'	c #313133",
")	c #3F3F3E",
"!	c #AFB0B7",
"~	c #797981",
"{	c #7A7A7A",
"]	c #787888",
"^	c #BDBBBC",
"/	c #AEAEB7",
"                        ",
"   .++++++.    @#  #@   ",
" .++$%$&.*++.  @#  #@   ",
" +=*&$&.*-=;+    ##     ",
" ;++.&.*-=++;  ##  ##   ",
" ;-*++++++-=;  ##  ##   ",
" >-*&%$&.*-=+           ",
" ;>+&%,,,,,,,,,,,,,,,   ",
" ;-*++,%%%%%%%%%%,   ,  ",
" >-*&%,%''''''''%, ) ,! ",
" ;>+&%,%%%%%%%%%%,   ,! ",
" ;-*++,,,~{{{{{{{],,,,! ",
" >-*&%$&.,%%%%%%%%%%%,! ",
" .>+&%$&.,%'''''''''%,! ",
"   .+++++,%%%%%%%%%%%,! ",
"         ,^^^^^^^^^^^,! ",
"         ,^'''''''''^,! ",
"         ,^^^^^^^^^^^,! ",
"         ,%%%%%%%%%%%,! ",
"         ,%'''''''''%,! ",
"         ,%%%%%%%%%%%,! ",
"         ,,,,,,,,,,,,,! ",
"           ///!!!!!!!!! ",
"                        "};
