/* XPM */
static char * tfwdbedit_xpm[] = {
"24 24 18 1",
" 	c None",
".	c #A7C2E6",
"+	c #4276C4",
"@	c #D3E1F3",
"#	c #FFFFFF",
"$	c #BDD1EC",
"%	c #91B2DF",
"&	c #709BD6",
"*	c #7BA3D9",
"=	c #6493D2",
"-	c #4578C5",
";	c #9D9DA1",
">	c #716F64",
",	c #F1EFE2",
"'	c #05B2EF",
")	c #386CBE",
"!	c #333333",
"~	c #048CBD",
"                        ",
"   .++++++.             ",
" .++@#@$.%++.           ",
" +&%$@$.%*&=+           ",
" =++.$.%*&++=           ",
" =*%++++++*&=           ",
" +*%$#@$.%*&+           ",
" =-+$#@$.%++=           ",
" =*%++++++*&=           ",
" +*%$#@$.%*&+           ",
" =-+$;;;;;;;;;;;;;;;;;; ",
" =*%+;>>>>>>>>>>>>>>>>, ",
" -*%$;>''''''''''''''', ",
" .-+$;>'''''')''''!'!', ",
"   .+;>'''''')'''''!'', ",
"     ;>'~))~')))~''!'', ",
"     ;>'''')')'')''!'', ",
"     ;>'~)))')'')''!'', ",
"     ;>')'')')'')''!'', ",
"     ;>'~)))')))~'!'!', ",
"     ;>''''''''''''''', ",
"     ,,,,,,,,,,,,,,,,,, ",
"                        ",
"                        "};
