/* XPM */
static char * tfwdateedit_xpm[] = {
"24 24 22 1",
" 	c None",
".	c #777792",
"+	c #F0EBE2",
"@	c #003C74",
"#	c #C0C1C3",
"$	c #FDFDFD",
"%	c #174E80",
"&	c #FFFFFF",
"*	c #FCFCFA",
"=	c #F6F7FD",
"-	c #164D80",
";	c #E6E8F2",
">	c #154C7F",
",	c #D9DAE7",
"'	c #144A7E",
")	c #CEDDF4",
"!	c #FFA4A4",
"~	c #6A96DD",
"{	c #B30059",
"]	c #DFDFDB",
"^	c #386CBE",
"/	c #8CACDD",
"                        ",
" ...............+@@@@@+ ",
" .##############@$$$$$% ",
" .#&&&&&&&&&&&*#@=====- ",
" .#&&&&&&&&&&&*#@;;;;;> ",
" .#&&&&&&&&&&&*#@,,,,,' ",
" .#&&&#..............#' ",
" .####.))))))))!)!)!).+ ",
" ......~~~~~~~!{!{!{!.  ",
"      ................  ",
"      .]]]]]]]]]]]]]].  ",
"      .]]..........]].  ",
"      .]]]]]]]]]]]]]].  ",
"      .]]]^^]]]^^^^]].  ",
"      .]]^^^]]]^/]]]].  ",
"      .]]]/^]]]^^^]]].  ",
"      .]]]/^]]]]]/^]].  ",
"      .]]]/^]]]/]/^]].  ",
"      .]]]/^]]]^//^]].  ",
"      .]]^^^^^]]^^]]].  ",
"      .]]]]]]]]]]]]]].  ",
"      ................  ",
"                        ",
"                        "};
