/* XPM */
static char * tfwdbgrid_xpm[] = {
"24 24 25 1",
" 	c None",
".	c #A7C2E6",
"+	c #4276C4",
"@	c #D3E1F3",
"#	c #FFFFFF",
"$	c #BDD1EC",
"%	c #91B2DF",
"&	c #709BD6",
"*	c #7BA3D9",
"=	c #6493D2",
"-	c #4578C5",
";	c #777792",
">	c #B7B7BA",
",	c #9595A9",
"'	c #DDDDDC",
")	c #C0C0C0",
"!	c #048CBD",
"~	c #808098",
"{	c #C2C0C1",
"]	c #9999AD",
"^	c #05B2EF",
"/	c #8888A0",
"(	c #E0E0E2",
"_	c #B0B0B0",
":	c #2D2D2D",
"                        ",
"   .++++++.             ",
" .++@#@$.%++.           ",
" +&%$@$.%*&=+           ",
" =++.$.%*&++=           ",
" =*%++++++*&=           ",
" +*%$#@$.%*&+           ",
" =-+$#@$.%++=           ",
" =*%++++++*&=           ",
" +*%$#;;;;;;;;;;;;;;;;  ",
" =-+$#;>,'))))!))))))~{ ",
" =*%++;;;;;;;;;;;;;;;;{ ",
" -*%$#;>]^^^^/^^^^^^^/{ ",
" .-+$#;(]_::!/^:::::!/{ ",
"   .++;>]^^^^/^^^^^^^/{ ",
"      ;(]_::!/^::::!^/{ ",
"      ;>]^^^^/^^^^^^^/{ ",
"      ;(]_::!/^:::::!/{ ",
"      ;>]^^^^/^^^^^^^/{ ",
"      ;(]_::!/^::::!^/{ ",
"      ;>]^^^^/^^^^^^^/{ ",
"      ;;;;;;;;;;;;;;;;{ ",
"       {{{{{{{{{{{{{{{{ ",
"                        "};
