/* XPM */
static char * tfwdbdatedit_xpm[] = {
"24 22 8 1",
" 	c None",
".	c #808080",
"+	c #C0C0C0",
"@	c #FFFFFF",
"#	c #000080",
"$	c #0000FF",
"%	c #000000",
"&	c #800000",
"                        ",
"                        ",
"   ...............      ",
"   .+.@++++@+++++.      ",
"   ...............      ",
"   .+.@@@@+@@@@@@.      ",
"   .@.@++@+@++++@.      ",
"   .+.@@############    ",
"   .@.@+#$$$#$$$#$$#%   ",
"   .+.@@############%   ",
"   .@.@+#@@@@@@@@@@#%   ",
"   .+.@@#@@&@@&&&&@#%   ",
"   .....#@&&@@&@@@@#%   ",
"        #@@&@@&&&+@#%   ",
"        #@@&@@@@@&@#%   ",
"        #@@&@@+@+&@#%   ",
"        #@&&&@&&&+@#%   ",
"        #@@@@@@@@@@#%   ",
"        ############%   ",
"         %%%%%%%%%%%%   ",
"                        ",
"                        "};
