/* XPM */
static char * tfwdbmemo_xpm[] = {
"24 24 56 1",
" 	c None",
".	c #A7C2E6",
"+	c #4276C4",
"@	c #D3E1F3",
"#	c #FFFFFF",
"$	c #BDD1EC",
"%	c #91B2DF",
"&	c #709BD6",
"*	c #7BA3D9",
"=	c #6493D2",
"-	c #4578C5",
";	c #9D9DA1",
">	c #716F64",
",	c #938160",
"'	c #ECDCC2",
")	c #FCFFFF",
"!	c #F1D9AA",
"~	c #E8C395",
"{	c #EED3B1",
"]	c #DFB987",
"^	c #020107",
"/	c #030013",
"(	c #F5E5B0",
"_	c #F6DFA3",
":	c #E7C08B",
"<	c #F8D7B5",
"[	c #E3B98C",
"}	c #F5E6B2",
"|	c #F6E59B",
"1	c #F8E47A",
"2	c #EFCE71",
"3	c #DEAE74",
"4	c #F1E0AC",
"5	c #F8EBAD",
"6	c #F7E375",
"7	c #F4DB69",
"8	c #E6B161",
"9	c #F6E2C9",
"0	c #E2CD9F",
"a	c #F0E2A9",
"b	c #F7DF63",
"c	c #F5DD66",
"d	c #E0AA59",
"e	c #BFAB86",
"f	c #DEC091",
"g	c #D6AE55",
"h	c #E5C755",
"i	c #E1B870",
"j	c #917235",
"k	c #F7CC9D",
"l	c #D3944C",
"m	c #B47932",
"n	c #594218",
"o	c #9A6E36",
"p	c #C09A63",
"q	c #FBFEF9",
"                        ",
"   .++++++.             ",
" .++@#@$.%++.           ",
" +&%$@$.%*&=+           ",
" =++.$.%*&++=           ",
" =*%++++++*&=           ",
" +*%$#@$.%*&+           ",
" =-+$#@$.%++=           ",
" =*%++++;;;;;;;;;;;;;;  ",
" +*%$#@$;>>>>>>>>>>>,'  ",
" =-+$#@$;>)))))))) !~{] ",
" =*%++++;>#^/^))))(_:<[ ",
" -*%$#@$;>)))))) }|123  ",
" .-+$#@$;>#^^^^^456789  ",
"   .++++;>)))))0abcd    ",
"        ;>#^^^efghi )   ",
"        ;>####jklm #)   ",
"        ;>)^^^nop )))   ",
"        ;>#########))   ",
"        ;>#^^^^^^^^^)   ",
"        ;>)))))))))))   ",
"        ;>)))))))))q)   ",
"        ;               ",
"                        "};
