/* XPM */
static char * tfwedit_xpm[] = {
"24 24 19 1",
" 	c None",
".	c #9D9DA1",
"+	c #716F64",
"@	c #F1EFE2",
"#	c #FFFFFF",
"$	c #000000",
"%	c #010000",
"&	c #020202",
"*	c #386CBE",
"=	c #030004",
"-	c #020005",
";	c #000004",
">	c #000002",
",	c #060A0B",
"'	c #000202",
")	c #010602",
"!	c #000300",
"~	c #000200",
"{	c #010200",
"                        ",
"                        ",
"                        ",
"                        ",
"                        ",
" ...................... ",
" .++++++++++++++++++++@ ",
" .+###################@ ",
" .+#############$%#&$#@ ",
" .+########**#####=###@ ",
" .+########**#####-###@ ",
" .+###***##****###;###@ ",
" .+#####**#**#**##>###@ ",
" .+###****#**#**##,###@ ",
" .+##**#**#**#**##'###@ ",
" .+##**#**#**#**##)###@ ",
" .+###****#****###!###@ ",
" .+#############~!#{$#@ ",
" .+###################@ ",
" .@@@@@@@@@@@@@@@@@@@@@ ",
"                        ",
"                        ",
"                        ",
"                        "};
