/* XPM */
static char * tfwgrid_xpm[] = {
"24 24 7 1",
" 	c None",
".	c #777792",
"+	c #C0C0C0",
"@	c #C2C0C1",
"#	c #FFFFFF",
"$	c #2D2D2D",
"%	c #386CBE",
"                        ",
" ..................     ",
" .+. +++++ +++++++.@    ",
" ..................@    ",
" .+.#####.########.@    ",
" . .#$$$#.#$$$$$$#.@    ",
" .+.#####.########.@    ",
" . .#$$$#.#$$$$$##.@    ",
" .+.#####.########.@    ",
" . .#$$$#.#$$$$$$#.@    ",
" .+.#####.########.@    ",
" . .#$$$#.#$$$$$##.@    ",
" .+.#####.########.@    ",
" ..................@    ",
"  @@@@@@@@@@@%@@@@@@    ",
"             %          ",
"         %%  %%%   %%   ",
"           % %  % %  %  ",
"         %%% %  % %     ",
"        %  % %  % %     ",
"        %  % %  % %  %  ",
"         %%% %%%   %%   ",
"                        ",
"                        "};
