/* XPM */
static char * tfwlabel_xpm[] = {
"24 24 3 1",
" 	c None",
".	c #386CBE",
"+	c #81A5DA",
"                        ",
"                        ",
"                        ",
"                        ",
"                        ",
"                        ",
"                        ",
"                        ",
"    ...   ..            ",
"    ...   ..            ",
"   +. .+  ....   ....   ",
"   .. ..  .. .. ..  .   ",
"   .. ..  .. .. ..      ",
"  +.....+ .. .. ..      ",
"  ..   .. .. .. ..  .   ",
"  ..   .. ....   ....   ",
"                        ",
"  .......               ",
"                        ",
"                        ",
"                        ",
"                        ",
"                        ",
"                        "};
