/* XPM */
static char * tfwmemo_xpm[] = {
"24 24 81 1",
" 	c None",
".	c #9D9DA1",
"+	c #F0EBE2",
"@	c #716F64",
"#	c #F1EFE2",
"$	c #FCFFFF",
"%	c #F7EBCB",
"&	c #D8A558",
"*	c #DBB185",
"=	c #D09D46",
"-	c #F2E2C4",
";	c #F8ECC3",
">	c #E7BE77",
",	c #F0D2B4",
"'	c #FFF3E5",
")	c #EFD2AC",
"!	c #D19F67",
"~	c #020107",
"{	c #040019",
"]	c #F8ECC6",
"^	c #EFD784",
"/	c #F9E3B2",
"(	c #E7C08B",
"_	c #F6D3AE",
":	c #FCE0C4",
"<	c #D6A570",
"[	c #F9F0CE",
"}	c #EFD57F",
"|	c #FDF6C4",
"1	c #F6DD6C",
"2	c #EDCA6D",
"3	c #D7A363",
"4	c #D8A974",
"5	c #F9F2E9",
"6	c #F8EDCD",
"7	c #EED379",
"8	c #FDF7C7",
"9	c #F5DC5F",
"0	c #F7E25B",
"a	c #F2D67A",
"b	c #E5AA60",
"c	c #F8EEE2",
"d	c #E7CB77",
"e	c #F5DC5E",
"f	c #F7E15A",
"g	c #F1D47B",
"h	c #E09F55",
"i	c #F9ECDD",
"j	c #E7D7B4",
"k	c #D7BA76",
"l	c #FDF6C2",
"m	c #F7DF63",
"n	c #F8E25D",
"o	c #F0D379",
"p	c #D89649",
"q	c #F9F1E9",
"r	c #C9BCA7",
"s	c #D5B67A",
"t	c #D1B790",
"u	c #E4C955",
"v	c #F5DF5B",
"w	c #EDD078",
"x	c #DD9D51",
"y	c #AA8943",
"z	c #FFF2E0",
"A	c #D89A54",
"B	c #BE7A1A",
"C	c #C59849",
"D	c #C38C48",
"E	c #F7EADC",
"F	c #84672E",
"G	c #F9C794",
"H	c #F9C991",
"I	c #C98541",
"J	c #AC6A27",
"K	c #0A0931",
"L	c #594218",
"M	c #88612B",
"N	c #BD894C",
"O	c #C2A36F",
"P	c #FAFDF2",
"                        ",
"                        ",
"  ..................++  ",
"  .@@@@@@@@@@@@@@@@#++  ",
"  .@$$$$$$$$$$$$$%&*=-  ",
"  .@$$$$$$$$$$$$;>,')!  ",
"  .@$~~{~$$$$$$]^/(_:<  ",
"  .@$$$$$$$$$$[}|12345  ",
"  .@$$$$$$$$$67890abc+  ",
"  .@$~~~~~~~6d8efghi++  ",
"  .@$$$$$$$jklmnopq#++  ",
"  .@$~~~~~rstuvwx$$#++  ",
"  .@$$$$$$yzABCDE$$#++  ",
"  .@$~~~~~FGHIJ~K$$#++  ",
"  .@$$$$$$LMNO$$$$$#++  ",
"  .@$~~~~~$$$~~~$$$#++  ",
"  .@$$$$$$$$$$$$$$$#++  ",
"  .@$~~~~~~~~~~~~$$#++  ",
"  .@$$$$$$$$$$$$$$$#++  ",
"  .@$$$$$$$$$$$$$P$#++  ",
"  .@$$$$$$$$$$$$$$$#++  ",
"  .#################++  ",
"                        ",
"                        "};
