/* XPM */
static char * TriBas_xpm[] = {
"14 13 11 1",
" 	c None",
".	c #3131FF",
"+	c #6363FF",
"@	c #FFFFFF",
"#	c #0063FF",
"$	c #0063CE",
"%	c #009CFF",
"&	c #00CEFF",
"*	c #00FFFF",
"=	c #000000",
"-	c #848484",
"  .++++       ",
" .+++@@++     ",
"......#@++    ",
"    .$#%&+%   ",
"     #%%%+%   ",
"      #&%&%   ",
"      #&**%   ",
"   =---****--=",
"    =*******= ",
"     =*****=  ",
"      =***=   ",
"       =*=    ",
"        =     "};
