/* XPM */
static char * TriHaut_xpm[] = {
"14 13 12 1",
" 	c None",
".	c #000000",
"+	c #00FFFF",
"@	c #949494",
"#	c #009CFF",
"$	c #00CEFF",
"%	c #0063FF",
"&	c #000063",
"*	c #63CEFF",
"=	c #FFFFFF",
"-	c #3131FF",
";	c #6363FF",
"     .        ",
"    .+.       ",
"   .+++.      ",
"  .+++++.     ",
" .+++++++.    ",
".@@@+++@@@.   ",
"   #++$%      ",
"   #+$#%      ",
"    #$##%    &",
"    #$$#%   &%",
"     #*=%-----",
"      ##==;;- ",
"       ;;;;-  "};
